<svg width="16" height="13" viewBox="0 0 16 13" fill="none" xmlns="http://www.w3.org/2000/svg">
    <path d="M14.101 0.787567H1.89906C0.851928 0.787567 0 1.59545 0 2.58843V10.9867C0 11.9797 0.851928 12.7876 1.89906 12.7876H14.101C15.1481 12.7876 16 11.9797 16 10.9867V2.58843C16 1.59545 15.1481 0.787567 14.101 0.787567ZM14.101 11.1977H1.89906C1.74514 11.1977 1.61015 11.0991 1.61015 10.9867V3.69897L7.12875 8.29965C7.24189 8.394 7.38576 8.44593 7.5339 8.44593L8.46593 8.44597C8.61399 8.44597 8.75795 8.394 8.87113 8.29965L14.39 3.69881V10.9868C14.3899 11.0991 14.2549 11.1977 14.101 11.1977ZM8.00002 6.8673L2.63249 2.37744H13.3675L8.00002 6.8673Z"
          fill="#3363BE"/>
</svg>