<svg width="28" height="28" viewBox="0 0 28 28" fill="none" xmlns="http://www.w3.org/2000/svg">
<path d="M13.9923 17.3384C12.153 17.3384 10.6538 15.8469 10.6538 13.9999C10.6538 12.1607 12.1453 10.6615 13.9923 10.6615C15.8393 10.6615 17.3308 12.153 17.3308 13.9999C17.3308 15.8392 15.8315 17.3384 13.9923 17.3384Z" fill="#354D7A"/>
<path fill-rule="evenodd" clip-rule="evenodd" d="M22.1376 18.0417C22.0912 19.0155 21.9289 19.5487 21.7898 19.8964C21.6121 20.3601 21.3879 20.7002 21.0402 21.0479C20.6924 21.3957 20.3601 21.6121 19.8887 21.7975C19.5332 21.9366 19.0077 22.0989 18.034 22.1453L17.9837 22.1475C16.9648 22.1921 16.6233 22.2071 13.9923 22.2071C11.3184 22.2071 11.0015 22.1994 9.95054 22.1453C8.97682 22.0989 8.44359 21.9366 8.09583 21.7975C7.63215 21.6198 7.29212 21.3957 6.94436 21.0479C6.5966 20.7002 6.38022 20.3679 6.19475 19.8964C6.05564 19.541 5.89335 19.0155 5.84699 18.0417L5.84515 17.9999C5.80021 16.9742 5.78516 16.6307 5.78516 14C5.78516 11.3338 5.79289 11.0093 5.84699 9.95827C5.89335 8.98454 6.05564 8.45131 6.19475 8.10356C6.37249 7.63988 6.5966 7.29985 6.94436 6.95209C7.29212 6.60433 7.62442 6.38794 8.09583 6.20247C8.45131 6.06337 8.97682 5.90108 9.95054 5.85471L9.99236 5.85288C11.0181 5.80794 11.3615 5.79289 13.9923 5.79289C16.6584 5.79289 16.983 5.80062 18.034 5.85471C19.0077 5.90108 19.541 6.06337 19.8887 6.20247C20.3524 6.38022 20.6924 6.60433 21.0402 6.95209C21.3879 7.29985 21.6043 7.63215 21.7898 8.10356C21.9289 8.45904 22.0912 8.98454 22.1376 9.95827L22.1394 10.0001C22.1843 11.0258 22.1994 11.3693 22.1994 14C22.1994 16.6407 22.1842 16.9843 22.1389 18.0118L22.1376 18.0417ZM13.9923 8.86084C11.1561 8.86084 8.85317 11.1638 8.85317 13.9999C8.85317 16.8361 11.1561 19.139 13.9923 19.139C16.8284 19.139 19.1314 16.8361 19.1314 13.9999C19.1314 11.1638 16.8284 8.86084 13.9923 8.86084ZM20.5302 8.66006C20.5302 9.3216 19.9939 9.85789 19.3323 9.85789C18.6708 9.85789 18.1345 9.3216 18.1345 8.66006C18.1345 7.99851 18.6708 7.46222 19.3323 7.46222C19.9939 7.46222 20.5302 7.99851 20.5302 8.66006Z" fill="#354D7A"/>
<path fill-rule="evenodd" clip-rule="evenodd" d="M4 0C1.79086 0 0 1.79086 0 4V24C0 26.2091 1.79086 28 4 28H24C26.2091 28 28 26.2091 28 24V4C28 1.79086 26.2091 0 24 0H4ZM23.4745 7.44668C23.2195 6.7898 22.8794 6.23338 22.323 5.67697C21.7666 5.12056 21.2102 4.78052 20.5533 4.5255C19.9196 4.27821 19.1855 4.10819 18.1267 4.06182L18.1088 4.06104C17.0564 4.01528 16.7049 4 14 4C11.2798 4 10.9397 4.00773 9.87326 4.06182C8.8068 4.10819 8.08037 4.27821 7.44668 4.5255C6.7898 4.78052 6.23338 5.12056 5.67697 5.67697C5.12056 6.23338 4.78053 6.7898 4.5255 7.44668C4.27821 8.08037 4.10819 8.81453 4.06182 9.87326L4.06104 9.89124C4.01528 10.9436 4 11.2951 4 14C4 16.7202 4.00773 17.0603 4.06182 18.1267C4.10819 19.1932 4.27821 19.9196 4.5255 20.5533C4.78053 21.2102 5.12056 21.7666 5.67697 22.323C6.23338 22.8794 6.7898 23.2195 7.44668 23.4745C8.08037 23.7218 8.81453 23.8918 9.87326 23.9382L9.89122 23.939C10.9436 23.9847 11.2951 24 14 24C16.7202 24 17.0603 23.9923 18.1267 23.9382C19.1932 23.8918 19.9196 23.7218 20.5533 23.4745C21.2102 23.2195 21.7666 22.8794 22.323 22.323C22.8794 21.7666 23.2195 21.2102 23.4745 20.5533C23.7218 19.9196 23.8918 19.1855 23.9382 18.1267L23.939 18.1088C23.9847 17.0564 24 16.7049 24 14C24 11.2798 23.9923 10.9397 23.9382 9.87326C23.8918 8.8068 23.7218 8.08037 23.4745 7.44668Z" fill="#354D7A"/>
</svg>
