<svg width="312" height="39" viewBox="0 0 312 39" fill="none" xmlns="http://www.w3.org/2000/svg">
    <path d="M33.9004 38.1379H1.21073C0.889623 38.1379 0.58167 38.0104 0.354614 37.7833C0.127559 37.5563 0 37.2483 0 36.9272V1.21073C0 0.889623 0.127559 0.58167 0.354614 0.354614C0.58167 0.127559 0.889623 0 1.21073 0H30.1169V2.42146H2.42146V35.7165H32.6897V8.29954H8.17241V29.115L27.9527 11.6079C28.1274 11.4533 28.343 11.3526 28.5736 11.3177C28.8043 11.2828 29.0401 11.3152 29.2527 11.4111C29.4653 11.5071 29.6457 11.6623 29.7721 11.8583C29.8986 12.0543 29.9657 12.2827 29.9655 12.5159V32.8652H27.5441V15.2007L7.76379 32.7108C7.58908 32.8654 7.37345 32.9661 7.14283 33.001C6.91221 33.0359 6.67642 33.0035 6.46381 32.9076C6.2512 32.8117 6.07082 32.6564 5.94436 32.4604C5.8179 32.2644 5.75074 32.036 5.75096 31.8028V7.08881C5.75096 6.76771 5.87852 6.45976 6.10557 6.2327C6.33263 6.00564 6.64058 5.87809 6.96169 5.87809H33.9004C34.2215 5.87809 34.5294 6.00564 34.7565 6.2327C34.9836 6.45976 35.1111 6.76771 35.1111 7.08881V36.9272C35.1111 37.2483 34.9836 37.5563 34.7565 37.7833C34.5294 38.0104 34.2215 38.1379 33.9004 38.1379Z"
          fill="white"/>
    <path d="M48.5111 11.32H69.3511V17.32H55.3911V20.76H62.1111C64.9378 20.76 67.1511 21.5867 68.7511 23.24C70.3511 24.8667 71.1511 26.9067 71.1511 29.36C71.1511 31.8133 70.3511 33.8667 68.7511 35.52C67.1511 37.1733 64.9378 38 62.1111 38H48.5111V11.32ZM61.2711 26.76H55.3911V32H61.2711C62.1244 32 62.8178 31.7733 63.3511 31.32C63.8844 30.84 64.1511 30.1867 64.1511 29.36C64.1511 28.56 63.8844 27.9333 63.3511 27.48C62.8178 27 62.1244 26.76 61.2711 26.76Z"
          fill="white"/>
    <path d="M79.9342 38H74.0542V18.68H80.2142V28.8L87.0942 18.68H93.2942V38H87.1342V27.36L79.9342 38Z" fill="white"/>
    <path d="M104.925 38.48C100.979 38.48 97.9385 37.4533 95.8052 35.4L98.5652 31.76C100.325 33.0933 102.445 33.76 104.925 33.76C107.059 33.76 108.125 33.2533 108.125 32.24C108.125 31.12 106.965 30.56 104.645 30.56H100.845V25.96H104.645C106.725 25.96 107.765 25.4267 107.765 24.36C107.765 23.9333 107.485 23.5867 106.925 23.32C106.365 23.0533 105.632 22.92 104.725 22.92C102.379 22.92 100.472 23.6133 99.0052 25L96.0452 21.48C98.2052 19.32 100.992 18.24 104.405 18.24C107.525 18.2133 109.912 18.68 111.565 19.64C113.245 20.6 114.099 21.92 114.125 23.6C114.125 24.6933 113.632 25.6533 112.645 26.48C111.685 27.3067 110.512 27.84 109.125 28.08C110.459 28.16 111.685 28.6133 112.805 29.44C113.925 30.2667 114.485 31.3333 114.485 32.64C114.512 34.3733 113.659 35.7733 111.925 36.84C110.192 37.9067 107.859 38.4533 104.925 38.48Z"
          fill="white"/>
    <path d="M123.847 38H117.687V18.68H123.847V25.32H130.767V18.68H136.927V38H130.767V30.68H123.847V38Z" fill="white"/>
    <path d="M150.678 38.48C147.638 38.48 145.118 37.56 143.118 35.72C141.118 33.8533 140.118 31.3867 140.118 28.32C140.118 25.4667 141.078 23.0667 142.998 21.12C144.945 19.1733 147.411 18.2 150.398 18.2C153.305 18.2 155.678 19.1867 157.518 21.16C159.358 23.1067 160.278 25.7067 160.278 28.96V30.28H146.518C146.705 31.24 147.225 32.0533 148.078 32.72C148.931 33.3867 150.025 33.72 151.358 33.72C152.105 33.72 152.958 33.5733 153.918 33.28C154.905 32.96 155.651 32.56 156.158 32.08L158.758 35.92C157.825 36.7467 156.625 37.3867 155.158 37.84C153.718 38.2667 152.225 38.48 150.678 38.48ZM154.398 26.28C154.291 25.4267 153.918 24.6667 153.278 24C152.638 23.3067 151.678 22.96 150.398 22.96C149.198 22.96 148.278 23.2933 147.638 23.96C146.998 24.6267 146.598 25.4 146.438 26.28H154.398Z"
          fill="white"/>
    <path d="M172.592 38.48C169.552 38.48 167.032 37.5467 165.032 35.68C163.032 33.7867 162.032 31.3333 162.032 28.32C162.032 25.3333 163.032 22.9067 165.032 21.04C167.032 19.1467 169.552 18.2 172.592 18.2C174.512 18.2 176.139 18.5467 177.472 19.24C178.832 19.9333 179.845 20.7733 180.512 21.76L176.512 25.48C175.685 24.2533 174.472 23.64 172.872 23.64C171.565 23.64 170.485 24.0667 169.632 24.92C168.779 25.7467 168.352 26.88 168.352 28.32C168.352 29.76 168.779 30.9067 169.632 31.76C170.485 32.6133 171.565 33.04 172.872 33.04C174.419 33.04 175.632 32.4133 176.512 31.16L180.512 34.92C179.845 35.9067 178.832 36.7467 177.472 37.44C176.139 38.1333 174.512 38.48 172.592 38.48Z"
          fill="white"/>
    <path d="M187.392 38H184.192V11.32H187.512V32.16L202.872 11.32H206.272V38H202.952V16.72L187.392 38Z" fill="white"/>
    <path d="M215.392 38H212.392V18.68H215.392V26.72H225.472V18.68H228.472V38H225.472V29.36H215.392V38Z" fill="white"/>
    <path d="M245.303 38H234.463V18.68H245.103C246.783 18.68 248.103 19.1333 249.063 20.04C250.049 20.9467 250.543 22.1467 250.543 23.64C250.543 24.7333 250.236 25.68 249.623 26.48C249.036 27.2533 248.303 27.7733 247.423 28.04C248.409 28.28 249.236 28.8533 249.903 29.76C250.596 30.6667 250.943 31.6667 250.943 32.76C250.943 34.3333 250.436 35.6 249.423 36.56C248.436 37.52 247.063 38 245.303 38ZM244.703 35.36C245.663 35.36 246.423 35.0933 246.983 34.56C247.543 34.0267 247.823 33.3067 247.823 32.4C247.823 31.5733 247.543 30.8667 246.983 30.28C246.423 29.6933 245.663 29.4 244.703 29.4H237.463V35.36H244.703ZM244.583 26.76C245.489 26.76 246.196 26.52 246.703 26.04C247.209 25.5333 247.463 24.88 247.463 24.08C247.463 23.2267 247.209 22.56 246.703 22.08C246.196 21.5733 245.489 21.32 244.583 21.32H237.463V26.76H244.583Z"
          fill="white"/>
    <path d="M265.331 38.48C262.451 38.48 260.091 37.5467 258.251 35.68C256.411 33.7867 255.491 31.3333 255.491 28.32C255.491 25.4933 256.398 23.1067 258.211 21.16C260.024 19.1867 262.291 18.2 265.011 18.2C267.864 18.2 270.118 19.1867 271.771 21.16C273.451 23.1067 274.291 25.5733 274.291 28.56V29.32H258.651C258.784 31.2133 259.478 32.8 260.731 34.08C261.984 35.36 263.611 36 265.611 36C268.011 36 269.998 35.1867 271.571 33.56L273.011 35.52C271.038 37.4933 268.478 38.48 265.331 38.48ZM271.331 27.12C271.304 25.4667 270.744 23.9867 269.651 22.68C268.558 21.3467 266.998 20.68 264.971 20.68C263.051 20.68 261.531 21.3333 260.411 22.64C259.318 23.9467 258.731 25.44 258.651 27.12H271.331Z"
          fill="white"/>
    <path d="M287.67 38.48C284.817 38.48 282.497 37.52 280.71 35.6C278.924 33.6533 278.03 31.2267 278.03 28.32C278.03 25.4133 278.924 23 280.71 21.08C282.497 19.16 284.817 18.2 287.67 18.2C290.657 18.2 293.017 19.32 294.75 21.56L292.75 23.4C291.524 21.72 289.884 20.88 287.83 20.88C285.804 20.88 284.177 21.5733 282.95 22.96C281.75 24.3467 281.15 26.1333 281.15 28.32C281.15 30.5067 281.75 32.3067 282.95 33.72C284.177 35.1067 285.804 35.8 287.83 35.8C289.857 35.8 291.497 34.96 292.75 33.28L294.75 35.12C293.017 37.36 290.657 38.48 287.67 38.48Z"
          fill="white"/>
    <path d="M305.475 38H302.475V21.32H296.875V18.68H311.115V21.32H305.475V38Z" fill="white"/>
</svg>