<svg width="20" height="21" viewBox="0 0 20 21" fill="none" xmlns="http://www.w3.org/2000/svg">
    <path d="M16.891 3.80702C18.4691 5.38289 19.4963 7.36316 19.8677 9.53936C19.9221 9.84369 19.7133 10.1355 19.4085 10.1814C19.4052 10.1818 19.4018 10.1822 19.3985 10.1826C19.3692 10.1863 19.3426 10.1897 19.3126 10.1897C19.0411 10.1897 18.8032 9.99794 18.7573 9.72279C18.4274 7.78005 17.5089 6.00823 16.0976 4.59913C14.6865 3.19418 12.9121 2.27284 10.9665 1.94349C10.6576 1.8893 10.453 1.60164 10.5031 1.29314C10.5574 0.988792 10.8454 0.780349 11.1502 0.834545C13.3296 1.20558 15.3128 2.23115 16.891 3.80702Z"
          fill="#3363BE"/>
    <path fill-rule="evenodd" clip-rule="evenodd"
          d="M15.7428 13.0624C15.3379 12.6412 14.8494 12.4162 14.3317 12.4162C13.8181 12.4162 13.3254 12.6372 12.9038 13.0582L11.5845 14.3714C11.5127 14.3328 11.441 14.2961 11.3704 14.2599C11.3342 14.2414 11.2984 14.223 11.263 14.2047C11.1127 14.1296 10.9707 14.0588 10.8497 13.9837C9.61383 13.1999 8.49074 12.1785 7.41357 10.857C6.89168 10.1983 6.54097 9.64379 6.28629 9.08098C6.59561 8.79847 6.88448 8.50576 7.16522 8.22129L7.25491 8.13045C7.31333 8.07212 7.37175 8.01275 7.43017 7.95336C7.48862 7.89396 7.54717 7.83445 7.60562 7.77609C8.48239 6.9006 8.48239 5.76664 7.60562 4.89116L6.46582 3.75303C6.33639 3.62379 6.20278 3.49039 6.07754 3.35698C5.82703 3.0985 5.56401 2.83169 5.29263 2.58155C4.88764 2.18133 4.40333 1.96871 3.89397 1.96871C3.38461 1.96871 2.89195 2.18133 2.47444 2.58155L2.46609 2.5899L1.04656 4.01984C0.512153 4.55347 0.207376 5.20384 0.140574 5.95842C0.040367 7.17576 0.399425 8.30972 0.674979 9.05179C1.35135 10.8736 2.36171 12.5621 3.86892 14.3714C5.6976 16.5517 7.89787 18.2736 10.4113 19.4868C11.3715 19.9411 12.6533 20.479 14.0853 20.5706C14.1731 20.5748 14.2649 20.579 14.3484 20.579C15.3128 20.579 16.1228 20.2329 16.7574 19.545C16.7595 19.541 16.7626 19.5378 16.7658 19.5347C16.7689 19.5316 16.772 19.5284 16.7741 19.5243C16.9752 19.2811 17.2048 19.0594 17.4465 18.8259L17.5048 18.7696C17.6843 18.5988 17.868 18.4195 18.0475 18.2318C18.4608 17.8025 18.678 17.3022 18.678 16.7894C18.678 16.2725 18.4566 15.7763 18.0349 15.3595L15.7428 13.0624ZM16.8233 17.8684L16.7281 17.9609C16.4568 18.2194 16.1812 18.4904 15.9223 18.7947C15.5007 19.2449 15.0038 19.4575 14.3526 19.4575C14.2899 19.4575 14.2231 19.4575 14.1605 19.4533C12.9205 19.3742 11.7682 18.8906 10.9039 18.4779C8.54084 17.3355 6.46582 15.7138 4.74151 13.6585C3.31781 11.9451 2.36589 10.3609 1.73546 8.65992C1.34717 7.62183 1.20521 6.81306 1.26784 6.05013C1.30959 5.56237 1.49747 5.15798 1.844 4.81195L3.26771 3.39034C3.47229 3.19856 3.68939 3.09434 3.90232 3.09434C4.16535 3.09434 4.37828 3.25276 4.51188 3.38617L4.52441 3.39867C4.77909 3.6363 5.02125 3.88228 5.27592 4.14492C5.3411 4.2121 5.40733 4.27927 5.47409 4.34699C5.53984 4.41367 5.60629 4.48108 5.67255 4.54931L6.81235 5.68743C7.25491 6.12934 7.25491 6.53791 6.81235 6.97982C6.77185 7.02026 6.73182 7.0607 6.69194 7.10098C6.61262 7.18111 6.53384 7.26069 6.4533 7.33835C6.10259 7.69688 5.76859 8.0304 5.40535 8.35557C5.40239 8.35852 5.39944 8.36095 5.39666 8.36324C5.39161 8.36739 5.38717 8.37104 5.38448 8.37642C5.02542 8.73495 5.09222 9.08515 5.16737 9.32278L5.1799 9.3603C5.47633 10.0774 5.89383 10.7527 6.52845 11.5573L6.53262 11.5615C7.68495 12.979 8.89989 14.0837 10.2401 14.93C10.4113 15.0384 10.5866 15.1259 10.7536 15.2094C10.9039 15.2844 11.0459 15.3553 11.167 15.4304C11.1753 15.4344 11.1837 15.4398 11.192 15.4449C11.2004 15.4501 11.2087 15.4553 11.2171 15.4595C11.359 15.5304 11.4926 15.5637 11.6304 15.5637C11.9769 15.5637 12.1941 15.3469 12.2651 15.276L13.6928 13.8502C13.8348 13.7085 14.0602 13.5377 14.3233 13.5377C14.5822 13.5377 14.7951 13.7002 14.9246 13.842L17.2333 16.1474C17.6634 16.5726 17.6634 17.0104 17.2375 17.4522C17.1038 17.596 16.9673 17.7286 16.8233 17.8684Z"
          fill="#3363BE"/>
    <path d="M10.7997 5.5246C11.8936 5.70804 12.8873 6.22499 13.6805 7.0171C14.4738 7.8092 14.9873 8.80142 15.1752 9.89368C15.2211 10.1688 15.4591 10.3606 15.7305 10.3606C15.7605 10.3606 15.7871 10.3572 15.8165 10.3535L15.8265 10.3523C16.1354 10.3022 16.34 10.0104 16.2899 9.70191C16.0644 8.38034 15.4383 7.17552 14.4821 6.22082C13.526 5.26613 12.3194 4.64079 10.9959 4.41566C10.6869 4.36563 10.3989 4.56991 10.3446 4.87424C10.2903 5.17857 10.4907 5.47457 10.7997 5.5246Z"
          fill="#3363BE"/>
    <path d="M19.4085 10.1814L19.4238 10.3039L19.4269 10.3035L19.4085 10.1814ZM10.5031 1.29314L10.3815 1.27146L10.3812 1.27335L10.5031 1.29314ZM15.7428 13.0624L15.6538 13.1479L15.6554 13.1495L15.7428 13.0624ZM11.5845 14.3714L11.5261 14.4801L11.6067 14.5235L11.6716 14.4589L11.5845 14.3714ZM11.263 14.2047L11.3199 14.0951L11.3182 14.0942L11.263 14.2047ZM10.8497 13.9837L10.7835 14.0879L10.7846 14.0886L10.8497 13.9837ZM7.41357 10.857L7.31679 10.9336L7.31786 10.935L7.41357 10.857ZM6.28629 9.08098L6.20304 8.98982L6.13687 9.05024L6.17382 9.13188L6.28629 9.08098ZM6.07754 3.35698L6.16755 3.27246L6.16619 3.27107L6.07754 3.35698ZM5.29263 2.58155L5.20579 2.66942L5.20895 2.67233L5.29263 2.58155ZM2.47444 2.58155L2.389 2.49242L2.38721 2.49419L2.47444 2.58155ZM14.0853 20.5706L14.0774 20.6939H14.0795L14.0853 20.5706ZM16.7574 19.545L16.8481 19.6288L16.86 19.616L16.8678 19.6004L16.7574 19.545ZM16.7741 19.5243L16.679 19.4455L16.67 19.4564L16.6637 19.469L16.7741 19.5243ZM15.9223 18.7947L16.0126 18.8791L16.0164 18.8747L15.9223 18.7947ZM3.26771 3.39034L3.18323 3.30022L3.18047 3.30297L3.26771 3.39034ZM4.52441 3.39867L4.43712 3.48608L4.44019 3.48895L4.52441 3.39867ZM5.67255 4.54931L5.58398 4.63532L5.58532 4.63667L5.67255 4.54931ZM6.4533 7.33835L6.36757 7.24943L6.36504 7.25202L6.4533 7.33835ZM5.40535 8.35557L5.32288 8.26346L5.31811 8.26822L5.40535 8.35557ZM5.38448 8.37642L5.47171 8.46378L5.48588 8.44962L5.49486 8.4317L5.38448 8.37642ZM5.16737 9.32278L5.04964 9.36002L5.05027 9.36187L5.16737 9.32278ZM5.1799 9.3603L5.0625 9.39948L5.0658 9.40746L5.1799 9.3603ZM6.52845 11.5573L6.43083 11.6343L6.44123 11.6447L6.52845 11.5573ZM6.53262 11.5615L6.62893 11.4832L6.61984 11.4741L6.53262 11.5615ZM11.167 15.4304L11.1017 15.5357L11.1118 15.5407L11.167 15.4304ZM14.9246 13.842L14.8333 13.9253L14.8373 13.9293L14.9246 13.842ZM17.2375 17.4522L17.1486 17.3665L17.1471 17.3681L17.2375 17.4522ZM15.8265 10.3523L15.842 10.4748L15.8463 10.4741L15.8265 10.3523ZM16.8037 3.89438C18.3639 5.45232 19.3789 7.40937 19.7461 9.56014L19.9895 9.51857C19.6136 7.31693 18.5743 5.31347 16.9783 3.71966L16.8037 3.89438ZM19.7461 9.56014C19.7882 9.79642 19.6259 10.0238 19.3902 10.0593L19.4269 10.3035C19.8007 10.2472 20.0559 9.89096 19.9895 9.51857L19.7461 9.56014ZM19.3933 10.0589C19.3897 10.0593 19.3864 10.0597 19.3831 10.0601L19.414 10.3051C19.4174 10.3047 19.4206 10.3043 19.4238 10.3039L19.3933 10.0589ZM19.3831 10.0601C19.3528 10.064 19.3337 10.0663 19.3126 10.0663V10.3132C19.3515 10.3132 19.3855 10.3087 19.414 10.3051L19.3831 10.0601ZM19.3126 10.0663C19.0994 10.0663 18.9147 9.91604 18.879 9.70247L18.6354 9.74311C18.6917 10.0798 18.9829 10.3132 19.3126 10.3132V10.0663ZM18.879 9.70247C18.5448 7.73421 17.6141 5.9388 16.1849 4.51177L16.0105 4.68648C17.4037 6.07767 18.3099 7.8259 18.6354 9.74311L18.879 9.70247ZM16.1849 4.51177C14.7559 3.08912 12.9583 2.15544 10.9871 1.82176L10.9452 2.0651C12.8652 2.39011 14.617 3.29924 16.0105 4.68648L16.1849 4.51177ZM10.9871 1.82176C10.7446 1.77922 10.5857 1.55456 10.6249 1.31293L10.3812 1.27335C10.3203 1.64872 10.5699 1.99926 10.9452 2.0651L10.9871 1.82176ZM10.6246 1.3148C10.6674 1.07517 10.8933 0.914248 11.1286 0.9561L11.1718 0.712996C10.7976 0.646444 10.4473 0.902409 10.3815 1.27146L10.6246 1.3148ZM11.1286 0.9561C13.2827 1.32283 15.2436 2.33644 16.8037 3.89438L16.9783 3.71966C15.3821 2.12585 13.3766 1.08835 11.1718 0.712996L11.1286 0.9561ZM15.8318 12.9768C15.4072 12.5352 14.8878 12.2927 14.3317 12.2927V12.5396C14.811 12.5396 15.2686 12.7474 15.6538 13.1479L15.8318 12.9768ZM14.3317 12.2927C13.7802 12.2927 13.2575 12.5305 12.8165 12.9709L12.9909 13.1457C13.3933 12.7438 13.856 12.5396 14.3317 12.5396V12.2927ZM12.8165 12.9709L11.4974 14.284L11.6716 14.4589L12.9909 13.1457L12.8165 12.9709ZM11.643 14.2627C11.5699 14.2235 11.497 14.1861 11.4267 14.15L11.3141 14.3698C11.3848 14.4061 11.4556 14.4422 11.5261 14.4801L11.643 14.2627ZM11.4267 14.15C11.3905 14.1315 11.3549 14.1132 11.3199 14.0951L11.2061 14.3142C11.2419 14.3327 11.278 14.3514 11.3141 14.3698L11.4267 14.15ZM11.3182 14.0942C11.1665 14.0185 11.03 13.9502 10.9147 13.8788L10.7846 14.0886C10.9115 14.1673 11.0589 14.2407 11.2078 14.3151L11.3182 14.0942ZM10.9158 13.8794C9.69281 13.1038 8.57938 12.0919 7.50926 10.779L7.31786 10.935C8.40209 12.2652 9.53484 13.2961 10.7835 14.0879L10.9158 13.8794ZM7.51033 10.7803C6.99275 10.127 6.64816 9.58121 6.39877 9.03008L6.17382 9.13188C6.43378 9.70637 6.79058 10.2695 7.31679 10.9336L7.51033 10.7803ZM6.36955 9.17214C6.68161 8.88713 6.97268 8.59215 7.2531 8.30802L7.07737 8.13456C6.7963 8.41936 6.50961 8.70982 6.20304 8.98982L6.36955 9.17214ZM7.2531 8.30802L7.34277 8.21719L7.16768 8.04309L7.07737 8.13456L7.2531 8.30802ZM7.34277 8.21719C7.40163 8.15841 7.45981 8.09927 7.51817 8.03996L7.34217 7.86679C7.28368 7.92623 7.22564 7.9852 7.16768 8.04309L7.34277 8.21719ZM7.51817 8.03996C7.57669 7.98048 7.63485 7.92136 7.69285 7.86345L7.51838 7.68874C7.45948 7.74754 7.40056 7.80744 7.34217 7.86679L7.51817 8.03996ZM7.69285 7.86345C8.15044 7.40653 8.38665 6.874 8.38665 6.33363C8.38665 5.79326 8.15044 5.26073 7.69285 4.80381L7.51838 4.97852C7.93757 5.39709 8.13974 5.86927 8.13974 6.33363C8.13974 6.79799 7.93757 7.27017 7.51838 7.68874L7.69285 7.86345ZM7.69285 4.80381L6.55305 3.66567L6.37858 3.8404L7.51838 4.97852L7.69285 4.80381ZM6.55305 3.66567C6.42337 3.53618 6.2912 3.40417 6.16755 3.27246L5.98754 3.44149C6.11438 3.57659 6.24941 3.71141 6.37858 3.8404L6.55305 3.66567ZM6.16619 3.27107C5.91539 3.01228 5.65035 2.74339 5.37629 2.49077L5.20895 2.67233C5.47765 2.92 5.73867 3.18474 5.98888 3.44291L6.16619 3.27107ZM5.3794 2.49374C4.95436 2.0737 4.43986 1.84526 3.89397 1.84526V2.09217C4.36679 2.09217 4.82087 2.28902 5.20579 2.66942L5.3794 2.49374ZM3.89397 1.84526C3.34841 1.84526 2.82613 2.07338 2.389 2.49242L2.55987 2.67068C2.95775 2.28927 3.42081 2.09217 3.89397 2.09217V1.84526ZM2.38721 2.49419L2.37886 2.50253L2.55333 2.67726L2.56167 2.66891L2.38721 2.49419ZM2.37886 2.50253L0.958941 3.93287L1.13379 4.10721L2.55333 2.67726L2.37886 2.50253ZM0.958941 3.93287C0.40403 4.48697 0.0869544 5.16401 0.0175905 5.94753L0.263549 5.96931C0.327783 5.24367 0.61988 4.62037 1.13379 4.10721L0.958941 3.93287ZM0.0175905 5.94753C-0.0849251 7.19297 0.282265 8.34887 0.559239 9.09477L0.790719 9.00883C0.516585 8.27059 0.16566 7.15855 0.263549 5.96931L0.0175905 5.94753ZM0.559239 9.09477C1.24132 10.932 2.25961 12.6324 3.77406 14.4504L3.96378 14.2923C2.46381 12.4917 1.46136 10.8153 0.790719 9.00883L0.559239 9.09477ZM3.77406 14.4504C5.61372 16.6438 7.82811 18.3769 10.3576 19.5979L10.4649 19.3755C7.96764 18.1701 5.7815 16.4596 3.96378 14.2923L3.77406 14.4504ZM10.3576 19.5979C11.3207 20.0538 12.621 20.6007 14.0774 20.6939L14.0932 20.4475C12.6856 20.3573 11.4222 19.8285 10.4649 19.3755L10.3576 19.5979ZM14.0795 20.6939C14.1668 20.6981 14.2615 20.7025 14.3484 20.7025V20.4555C14.2683 20.4555 14.1793 20.4516 14.0912 20.4474L14.0795 20.6939ZM14.3484 20.7025C15.3459 20.7025 16.1892 20.3431 16.8481 19.6288L16.6667 19.4613C16.0564 20.1229 15.2797 20.4555 14.3484 20.4555V20.7025ZM16.8678 19.6004C16.8632 19.6095 16.8584 19.6158 16.8554 19.6192C16.8529 19.6222 16.8508 19.6242 16.8529 19.6221L16.6785 19.4473C16.6774 19.4485 16.6595 19.4649 16.647 19.4897L16.8678 19.6004ZM16.8529 19.6221C16.8542 19.621 16.8721 19.6043 16.8844 19.5795L16.6637 19.469C16.6683 19.4599 16.6732 19.4536 16.6762 19.45C16.6785 19.4471 16.6807 19.4452 16.6785 19.4473L16.8529 19.6221ZM16.8692 19.603C17.065 19.366 17.2896 19.149 17.5322 18.9147L17.3607 18.7372C17.12 18.9696 16.8852 19.1962 16.679 19.4455L16.8692 19.603ZM17.5322 18.9147L17.5905 18.8585L17.4196 18.6802L17.3607 18.7372L17.5322 18.9147ZM17.5905 18.8585C17.7707 18.6869 17.9553 18.5068 18.1366 18.3173L17.9585 18.1463C17.7808 18.332 17.5985 18.51 17.4196 18.6802L17.5905 18.8585ZM18.1366 18.3173C18.5686 17.8685 18.8015 17.339 18.8015 16.7894H18.5545C18.5545 17.2654 18.3533 17.7362 17.9585 18.1463L18.1366 18.3173ZM18.8015 16.7894C18.8015 16.2349 18.5634 15.7084 18.1218 15.2716L17.9476 15.4467C18.3494 15.8437 18.5545 16.31 18.5545 16.7894H18.8015ZM18.1218 15.2716L15.8302 12.9752L15.6554 13.1495L17.9476 15.4467L18.1218 15.2716ZM16.7374 17.7797L16.6421 17.8723L16.8133 18.0502L16.9094 17.9569L16.7374 17.7797ZM16.6431 17.8715C16.371 18.1306 16.0916 18.4053 15.8284 18.7147L16.0164 18.8747C16.271 18.5754 16.5427 18.3081 16.8133 18.0502L16.6431 17.8715ZM15.8323 18.7102C15.4349 19.1346 14.9712 19.3341 14.3526 19.3341V19.581C15.0365 19.581 15.5665 19.3553 16.0126 18.8791L15.8323 18.7102ZM14.3526 19.3341C14.2891 19.3341 14.2265 19.3341 14.1686 19.3302L14.1523 19.5765C14.2197 19.5811 14.2907 19.581 14.3526 19.581V19.3341ZM14.1686 19.3302C12.9533 19.2527 11.8186 18.7779 10.9571 18.3664L10.8502 18.589C11.7173 19.0031 12.8877 19.4958 14.1523 19.5765L14.1686 19.3302ZM10.9571 18.3664C8.61007 17.2318 6.54941 15.6214 4.83608 13.5791L4.64655 13.7374C6.38186 15.8058 8.47108 17.4389 10.8502 18.589L10.9571 18.3664ZM4.83608 13.5791C3.41937 11.8741 2.47585 10.3023 1.85121 8.61701L1.61969 8.70282C2.25592 10.4194 3.21586 12.0156 4.64655 13.7374L4.83608 13.5791ZM1.85121 8.61701C1.46683 7.58937 1.33022 6.79915 1.39089 6.06023L1.14483 6.03961C1.08022 6.82654 1.22751 7.65432 1.61969 8.70282L1.85121 8.61701ZM1.39089 6.06023C1.43016 5.60143 1.60537 5.22471 1.93123 4.89931L1.75676 4.7246C1.38957 5.09125 1.18906 5.52288 1.14483 6.03961L1.39089 6.06023ZM1.93123 4.89931L3.35494 3.4777L3.18047 3.30297L1.75676 4.7246L1.93123 4.89931ZM3.35214 3.4804C3.54257 3.3019 3.73097 3.2178 3.90232 3.2178V2.97088C3.64781 2.97088 3.40194 3.09518 3.18323 3.30022L3.35214 3.4804ZM3.90232 3.2178C4.11588 3.2178 4.29874 3.34781 4.42464 3.47353L4.59911 3.29881C4.45781 3.15771 4.21483 2.97088 3.90232 2.97088V3.2178ZM4.42464 3.47353L4.43712 3.48608L4.61164 3.31132L4.59911 3.29881L4.42464 3.47353ZM4.44019 3.48895C4.69248 3.72435 4.93285 3.96846 5.18729 4.23086L5.36455 4.05898C5.10964 3.79609 4.86569 3.54827 4.60863 3.3084L4.44019 3.48895ZM5.18729 4.23086C5.25287 4.29846 5.31948 4.36602 5.38618 4.43367L5.56201 4.26031C5.49518 4.19254 5.42933 4.12575 5.36455 4.05898L5.18729 4.23086ZM5.38618 4.43367C5.45198 4.50041 5.51811 4.5675 5.58398 4.63532L5.76112 4.4633C5.69449 4.39468 5.6277 4.32694 5.56201 4.26031L5.38618 4.43367ZM5.58532 4.63667L6.72511 5.7748L6.89958 5.60008L5.75978 4.46194L5.58532 4.63667ZM6.72511 5.7748C6.93467 5.98405 7.02082 6.16705 7.02082 6.33363C7.02082 6.50021 6.93467 6.68321 6.72511 6.89245L6.89958 7.06718C7.13259 6.83452 7.26773 6.59228 7.26773 6.33363C7.26773 6.07498 7.13259 5.83274 6.89958 5.60008L6.72511 5.7748ZM6.72511 6.89245C6.68432 6.93319 6.64404 6.97389 6.6042 7.01413L6.77968 7.18784C6.81959 7.14752 6.85938 7.10733 6.89958 7.06718L6.72511 6.89245ZM6.6042 7.01413C6.52471 7.09443 6.44692 7.17294 6.36757 7.24943L6.53898 7.42723C6.62074 7.34839 6.70053 7.26779 6.77968 7.18784L6.6042 7.01413ZM6.36504 7.25202C6.01481 7.61006 5.68298 7.94108 5.32288 8.26346L5.4877 8.44756C5.85406 8.11957 6.19036 7.7837 6.54155 7.42468L6.36504 7.25202ZM5.31811 8.26822L5.47502 8.45864C5.47743 8.45666 5.48481 8.4507 5.49259 8.44293L5.31811 8.26822ZM5.31811 8.26822C5.31684 8.26927 5.29049 8.28838 5.27408 8.32114L5.49486 8.4317C5.48883 8.44373 5.48175 8.45185 5.47751 8.45613C5.47553 8.45814 5.47404 8.45943 5.47372 8.45971C5.47354 8.45987 5.47353 8.45986 5.47502 8.45864L5.31811 8.26822ZM5.29724 8.28907C5.09911 8.48689 5.01263 8.68945 4.99045 8.88072C4.96868 9.06865 5.01024 9.23546 5.04964 9.36002L5.28508 9.28555C5.24932 9.17249 5.21993 9.04536 5.23572 8.90915C5.25113 8.7763 5.31077 8.62447 5.47171 8.46378L5.29724 8.28907ZM5.05027 9.36187L5.0625 9.39948L5.297 9.3212L5.28447 9.28368L5.05027 9.36187ZM5.0658 9.40746C5.36782 10.1381 5.79155 10.8238 6.43083 11.6343L6.62539 11.4809C5.99544 10.6822 5.58482 10.0167 5.29398 9.31314L5.0658 9.40746ZM6.44123 11.6447L6.4454 11.6489L6.61984 11.4741L6.61567 11.47L6.44123 11.6447ZM6.43683 11.6394C7.59631 13.0657 8.82103 14.18 10.1742 15.0344L10.3061 14.8257C8.97888 13.9875 7.7741 12.8918 6.62893 11.4832L6.43683 11.6394ZM10.1742 15.0344C10.3515 15.1468 10.5322 15.2368 10.6985 15.3199L10.8088 15.0989C10.641 15.0152 10.4712 14.9302 10.3061 14.8257L10.1742 15.0344ZM10.6985 15.3199C10.8501 15.3956 10.9863 15.4642 11.1017 15.5357L11.232 15.3254C11.1052 15.2468 10.9578 15.1733 10.8088 15.0989L10.6985 15.3199ZM11.1118 15.5407C11.114 15.5419 11.1173 15.5438 11.1266 15.5496L11.2574 15.3401C11.25 15.3356 11.2367 15.3272 11.2221 15.3199L11.1118 15.5407ZM11.1266 15.5496C11.134 15.5542 11.1474 15.5627 11.1619 15.57L11.2722 15.349C11.27 15.348 11.2668 15.346 11.2574 15.3401L11.1266 15.5496ZM11.1619 15.57C11.3187 15.6483 11.471 15.6872 11.6304 15.6872V15.4402C11.5142 15.4402 11.3994 15.4126 11.2722 15.349L11.1619 15.57ZM11.6304 15.6872C12.0306 15.6872 12.2791 15.4364 12.3522 15.3635L12.1778 15.1888C12.109 15.2574 11.9233 15.4402 11.6304 15.4402V15.6872ZM12.3522 15.3635L13.7801 13.9377L13.6057 13.763L12.1778 15.1888L12.3522 15.3635ZM13.7801 13.9377C13.9165 13.8015 14.1115 13.6611 14.3233 13.6611V13.4142C14.0091 13.4142 13.7532 13.6157 13.6057 13.763L13.7801 13.9377ZM14.3233 13.6611C14.5309 13.6611 14.7131 13.7936 14.8333 13.9253L15.0157 13.7586C14.8772 13.6069 14.6336 13.4142 14.3233 13.4142V13.6611ZM14.8373 13.9293L17.1462 16.2347L17.3206 16.06L15.0117 13.7546L14.8373 13.9293ZM17.1462 16.2347C17.3469 16.4332 17.4326 16.6199 17.4329 16.7938C17.4333 16.9685 17.3485 17.1591 17.1486 17.3665L17.3264 17.5379C17.5525 17.3035 17.6805 17.0543 17.6799 16.7933C17.6792 16.5316 17.55 16.2867 17.3206 16.06L17.1462 16.2347ZM17.1471 17.3681C17.0159 17.5093 16.8817 17.6396 16.7374 17.7797L16.9094 17.9569C17.0529 17.8175 17.1917 17.6828 17.3279 17.5363L17.1471 17.3681ZM10.7793 5.64636C11.8473 5.82546 12.8178 6.3301 13.5932 7.10445L13.7678 6.92973C12.9567 6.11986 11.9398 5.59061 10.8201 5.40284L10.7793 5.64636ZM13.5932 7.10445C14.3685 7.87857 14.87 8.84761 15.0534 9.91461L15.2969 9.87335C15.1046 8.75581 14.579 7.73981 13.7678 6.92973L13.5932 7.10445ZM15.0534 9.91461C15.1096 10.2513 15.4009 10.4841 15.7305 10.4841V10.2371C15.5173 10.2371 15.3326 10.0869 15.2969 9.87335L15.0534 9.91461ZM15.7305 10.4841C15.7694 10.4841 15.8034 10.4796 15.832 10.476L15.8011 10.231C15.771 10.2349 15.7516 10.2371 15.7305 10.2371V10.4841ZM15.832 10.476L15.842 10.4748L15.8111 10.2298L15.8011 10.231L15.832 10.476ZM15.8463 10.4741C16.2243 10.4129 16.4726 10.0561 16.4118 9.68211L16.168 9.72169C16.2075 9.96469 16.0465 10.1916 15.8068 10.2304L15.8463 10.4741ZM16.4118 9.68211C16.1821 8.33504 15.5433 7.10605 14.5694 6.13346L14.3949 6.30818C15.3331 7.24497 15.9469 8.42562 16.168 9.72169L16.4118 9.68211ZM14.5694 6.13346C13.5953 5.16087 12.3656 4.5234 11.0166 4.29394L10.9752 4.53736C12.2733 4.75816 13.4567 5.37138 14.3949 6.30818L14.5694 6.13346ZM11.0166 4.29394C10.6417 4.23323 10.2893 4.48131 10.2231 4.85256L10.4661 4.89592C10.5085 4.6585 10.7322 4.49802 10.9752 4.53736L11.0166 4.29394ZM10.2231 4.85256C10.1571 5.2222 10.3997 5.58489 10.7793 5.64636L10.8201 5.40284C10.5818 5.36425 10.4235 5.13495 10.4661 4.89592L10.2231 4.85256Z"
          fill="#3363BE"/>
</svg>