<svg width="120" height="36" viewBox="0 0 120 36" fill="none" xmlns="http://www.w3.org/2000/svg">
<path d="M98.5112 17.7903H93.9138L94.5403 19.3503H98.1302C98.3346 19.3503 98.5306 19.4329 98.675 19.58C98.8195 19.7271 98.9007 19.9266 98.9007 20.1346V20.6776H95.4463C95.1431 20.6765 94.8427 20.7363 94.5624 20.8536C94.282 20.9709 94.0271 21.1434 93.8123 21.3612C93.5976 21.579 93.4272 21.8378 93.3109 22.1228C93.1947 22.4078 93.1348 22.7133 93.1348 23.0219V23.2546C93.1348 23.8749 93.3763 24.4699 93.8064 24.9093C94.2364 25.3487 94.82 25.5967 95.4293 25.599H100.797V20.1346C100.797 19.5158 100.557 18.9221 100.129 18.483C99.7005 18.0438 99.1191 17.7948 98.5112 17.7903ZM98.9007 24.0389H95.8357C95.6314 24.0389 95.4354 23.9563 95.2909 23.8092C95.1464 23.6621 95.0653 23.4626 95.0653 23.2546V23.0219C95.0653 22.8139 95.1464 22.6144 95.2909 22.4673C95.4354 22.3202 95.6314 22.2376 95.8357 22.2376H98.9007V24.0389Z" fill="#7E91B4"/>
<path d="M108.519 20.6776H104.76V17.7903H102.846V25.599H104.76V22.2376H108.519V25.599H110.441V17.7903H108.519V20.6776Z" fill="#7E91B4"/>
<path d="M119.467 17.7903H117.223L115.089 20.6776H114.387V17.7903H112.473V25.599H114.387V22.2376H115.081L117.595 25.599H120L116.546 21.4619L119.467 17.7903Z" fill="#7E91B4"/>
<path d="M88.6051 17.7904H85.7094V16.2045H90.3831L91.0012 14.6445H83.8213V25.599H88.6305C89.4688 25.599 90.273 25.2606 90.8666 24.6579C91.4602 24.0553 91.7948 23.2376 91.7971 22.3842V21.0052C91.796 20.5804 91.7124 20.1601 91.5512 19.7683C91.3899 19.3765 91.1543 19.021 90.8576 18.7223C90.561 18.4235 90.2093 18.1874 89.8227 18.0275C89.4361 17.8675 89.0223 17.787 88.6051 17.7904ZM89.8497 22.3842C89.8497 22.6015 89.8076 22.8167 89.726 23.0175C89.6443 23.2182 89.5245 23.4007 89.3736 23.5543C89.2226 23.708 89.0434 23.8299 88.8462 23.913C88.6489 23.9962 88.4375 24.039 88.2241 24.039H85.684V19.3504H88.2241C88.4375 19.3504 88.6489 19.3932 88.8462 19.4763C89.0434 19.5595 89.2226 19.6814 89.3736 19.8351C89.5245 19.9887 89.6443 20.1711 89.726 20.3719C89.8076 20.5727 89.8497 20.7879 89.8497 21.0052V22.3842Z" fill="#7E91B4"/>
<path d="M49.4038 20.1346V23.2546C49.4038 23.4626 49.3226 23.6621 49.1781 23.8092C49.0336 23.9563 48.8377 24.0389 48.6333 24.0389H48.4047V25.599H49.0143C49.6251 25.599 50.2109 25.352 50.6428 24.9123C51.0747 24.4727 51.3173 23.8764 51.3173 23.2546V20.1346C51.3173 19.9281 51.3973 19.7299 51.54 19.583C51.6826 19.4362 51.8764 19.3526 52.0793 19.3503H54.7633V25.599H56.7276V17.7903H51.6983C51.3963 17.7903 51.0972 17.851 50.8183 17.9689C50.5393 18.0868 50.286 18.2596 50.0728 18.4775C49.8597 18.6953 49.6908 18.9538 49.576 19.2381C49.4612 19.5225 49.4027 19.8272 49.4038 20.1346Z" fill="#7E91B4"/>
<path d="M34.5869 19.3503H38.1006L38.7187 17.7903H34.2059C33.5951 17.7903 33.0093 18.0373 32.5774 18.4769C32.1455 18.9166 31.9029 19.5129 31.9029 20.1346V23.2546C31.9029 23.8764 32.1455 24.4727 32.5774 24.9123C33.0093 25.352 33.5951 25.599 34.2059 25.599H38.7356L38.1006 24.0389H34.5869C34.3825 24.0389 34.1866 23.9563 34.0421 23.8092C33.8976 23.6621 33.8164 23.4626 33.8164 23.2546V20.1346C33.8164 19.9266 33.8976 19.7271 34.0421 19.58C34.1866 19.4329 34.3825 19.3503 34.5869 19.3503Z" fill="#7E91B4"/>
<path d="M45.1027 17.7903H42.0377C41.4269 17.7903 40.8411 18.0373 40.4092 18.4769C39.9773 18.9166 39.7347 19.5129 39.7347 20.1346V23.2547C39.7347 23.8764 39.9773 24.4727 40.4092 24.9123C40.8411 25.352 41.4269 25.599 42.0377 25.599H45.1027C45.4058 25.6001 45.7062 25.5403 45.9866 25.423C46.2669 25.3057 46.5218 25.1332 46.7366 24.9154C46.9513 24.6976 47.1217 24.4388 47.238 24.1538C47.3542 23.8688 47.4141 23.5632 47.4141 23.2547V20.1346C47.4141 19.826 47.3542 19.5205 47.238 19.2355C47.1217 18.9505 46.9513 18.6917 46.7366 18.4739C46.5218 18.2561 46.2669 18.0836 45.9866 17.9663C45.7062 17.849 45.4058 17.7892 45.1027 17.7903ZM45.4837 23.2547C45.4848 23.3572 45.4659 23.459 45.4281 23.5541C45.3903 23.6493 45.3344 23.7358 45.2635 23.8087C45.1926 23.8817 45.1082 23.9396 45.0152 23.9791C44.9222 24.0186 44.8224 24.039 44.7216 24.039H42.4187C42.2158 24.0367 42.022 23.9531 41.8793 23.8062C41.7367 23.6594 41.6567 23.4612 41.6567 23.2547V20.1346C41.6567 19.9281 41.7367 19.7299 41.8793 19.5831C42.022 19.4362 42.2158 19.3526 42.4187 19.3503H44.7216C44.8224 19.3503 44.9222 19.3707 45.0152 19.4102C45.1082 19.4497 45.1926 19.5076 45.2635 19.5806C45.3344 19.6535 45.3903 19.74 45.4281 19.8351C45.4659 19.9302 45.4848 20.032 45.4837 20.1346V23.2547Z" fill="#7E91B4"/>
<path d="M28.0675 17.7904H25.0025C24.8758 17.7776 24.7482 17.7776 24.6215 17.7904C24.639 17.3635 24.8179 16.9601 25.1209 16.6646C25.4239 16.369 25.8275 16.2041 26.2471 16.2045H28.7872L29.4052 14.6445H25.8576C25.4372 14.6444 25.0209 14.7298 24.6332 14.8956C24.2456 15.0615 23.8944 15.3045 23.6002 15.6103C23.3061 15.9162 23.0749 16.2788 22.9202 16.6768C22.7655 17.0748 22.6905 17.5003 22.6995 17.9283V23.2978C22.6995 23.9195 22.9422 24.5158 23.3741 24.9555C23.8059 25.3951 24.3917 25.6421 25.0025 25.6421H28.0675C28.6783 25.6421 29.264 25.3951 29.6959 24.9555C30.1278 24.5158 30.3705 23.9195 30.3705 23.2978V20.1347C30.3705 19.5129 30.1278 18.9166 29.6959 18.477C29.264 18.0373 28.6783 17.7904 28.0675 17.7904ZM28.457 23.2547C28.457 23.4627 28.3758 23.6622 28.2313 23.8093C28.0868 23.9564 27.8908 24.039 27.6865 24.039H25.4004C25.2997 24.039 25.1999 24.0187 25.1069 23.9792C25.0139 23.9396 24.9295 23.8817 24.8586 23.8088C24.7877 23.7358 24.7318 23.6493 24.694 23.5542C24.6562 23.4591 24.6373 23.3573 24.6384 23.2547V20.1261C24.6384 19.9203 24.7187 19.723 24.8616 19.5776C25.0045 19.4321 25.1983 19.3504 25.4004 19.3504H27.6865C27.8908 19.3504 28.0868 19.433 28.2313 19.5801C28.3758 19.7272 28.457 19.9267 28.457 20.1347V23.2547Z" fill="#7E91B4"/>
<path d="M71.3413 19.3503H73.729V25.599H75.6424V19.3503H78.3264V17.7903H70.7232L71.3413 19.3503Z" fill="#7E91B4"/>
<path d="M67.5989 17.7903H64.534C63.9232 17.7903 63.3374 18.0373 62.9055 18.4769C62.4736 18.9166 62.231 19.5129 62.231 20.1346V20.6776H60.6223V17.7903H58.7088V25.599H60.6223V22.2376H62.231V23.2546C62.231 23.8764 62.4736 24.4727 62.9055 24.9123C63.3374 25.352 63.9232 25.599 64.534 25.599H67.5989C68.2097 25.599 68.7955 25.352 69.2274 24.9123C69.6593 24.4727 69.9019 23.8764 69.9019 23.2546V20.1346C69.9019 19.5129 69.6593 18.9166 69.2274 18.4769C68.7955 18.0373 68.2097 17.7903 67.5989 17.7903ZM67.9799 23.2546C67.9811 23.3572 67.9622 23.459 67.9244 23.5541C67.8866 23.6492 67.8306 23.7358 67.7598 23.8087C67.6889 23.8817 67.6045 23.9396 67.5115 23.9791C67.4185 24.0186 67.3187 24.039 67.2179 24.0389H64.915C64.8142 24.039 64.7144 24.0186 64.6214 23.9791C64.5284 23.9396 64.444 23.8817 64.3731 23.8087C64.3023 23.7358 64.2463 23.6492 64.2085 23.5541C64.1707 23.459 64.1518 23.3572 64.1529 23.2546V20.1346C64.1518 20.032 64.1707 19.9302 64.2085 19.8351C64.2463 19.74 64.3023 19.6535 64.3731 19.5805C64.444 19.5076 64.5284 19.4497 64.6214 19.4102C64.7144 19.3706 64.8142 19.3503 64.915 19.3503H67.2179C67.3187 19.3503 67.4185 19.3706 67.5115 19.4102C67.6045 19.4497 67.6889 19.5076 67.7598 19.5805C67.8306 19.6535 67.8866 19.74 67.9244 19.8351C67.9622 19.9302 67.9811 20.032 67.9799 20.1346V23.2546Z" fill="#7E91B4"/>
<path d="M15.3588 14.6703L11.0068 25.599H13.3691L14.2158 23.2547H18.8725L19.7192 25.599H22.0137L17.6279 14.6703H15.3588ZM14.7407 21.6946L16.4933 16.6957L18.2883 21.6946H14.7407Z" fill="#7E91B4"/>
<path d="M3.81853 25.5818L0 25.6162L4.4366 30.1325C5.42963 31.0421 6.70069 31.5749 8.035 31.6408H11.9043L7.41692 27.0728C6.41895 26.1737 5.14967 25.6477 3.81853 25.5818Z" fill="#7E91B4"/>
<path d="M5.99449 25.6852V19.2211C5.92985 17.8467 5.4004 16.5374 4.49587 15.515L1.76955 12.7569V19.1435C1.8368 20.5147 2.36603 21.8204 3.26818 22.841L5.99449 25.6852Z" fill="#7E91B4"/>
<path d="M11.9636 8.88709L11.9382 5L7.5016 9.51627C6.60908 10.5286 6.0833 11.821 6.01144 13.1793V17.1181L10.4988 12.5501C11.3827 11.5346 11.8995 10.2423 11.9636 8.88709Z" fill="#7E91B4"/>
</svg>
