<svg width="66" height="20" viewBox="0 0 66 20" fill="none" xmlns="http://www.w3.org/2000/svg">
<path d="M54.1812 9.78466H51.6526L51.9972 10.6427H53.9716C54.084 10.6427 54.1918 10.6881 54.2713 10.769C54.3507 10.8499 54.3954 10.9596 54.3954 11.074V11.3727H52.4954C52.3287 11.3721 52.1635 11.4049 52.0093 11.4695C51.8551 11.534 51.7149 11.6289 51.5968 11.7486C51.4787 11.8684 51.385 12.0108 51.321 12.1675C51.2571 12.3243 51.2241 12.4923 51.2242 12.6621V12.79C51.2241 13.1312 51.357 13.4584 51.5935 13.7001C51.83 13.9418 52.151 14.0782 52.4861 14.0794H55.4385V11.074C55.4385 10.7337 55.3063 10.4072 55.0708 10.1656C54.8353 9.92411 54.5155 9.78716 54.1812 9.78466ZM54.3954 13.2214H52.7097C52.5973 13.2214 52.4895 13.176 52.41 13.0951C52.3305 13.0142 52.2859 12.9045 52.2859 12.79V12.6621C52.2859 12.5476 52.3305 12.4379 52.41 12.357C52.4895 12.2761 52.5973 12.2307 52.7097 12.2307H54.3954V13.2214Z" fill="#7E91B4"/>
<path d="M59.6855 11.3727H57.6179V9.78466H56.5654V14.0794H57.6179V12.2307H59.6855V14.0794H60.7425V9.78466H59.6855V11.3727Z" fill="#7E91B4"/>
<path d="M65.7066 9.78466H64.4726L63.2991 11.3727H62.9126V9.78466H61.8602V14.0794H62.9126V12.2307H63.2944L64.6775 14.0794H66L64.1001 11.8041L65.7066 9.78466Z" fill="#7E91B4"/>
<path d="M48.7328 9.7847H47.1402V8.91247H49.7107L50.0506 8.05447H46.1017V14.0795H48.7468C49.2079 14.0795 49.6501 13.8933 49.9766 13.5619C50.3031 13.2304 50.4871 12.7807 50.4884 12.3113V11.5528C50.4878 11.3192 50.4418 11.088 50.3531 10.8725C50.2645 10.6571 50.1348 10.4616 49.9717 10.2972C49.8085 10.1329 49.6151 10.0031 49.4025 9.9151C49.1899 9.82714 48.9623 9.78282 48.7328 9.7847ZM49.4173 12.3113C49.4173 12.4308 49.3942 12.5492 49.3493 12.6596C49.3043 12.77 49.2385 12.8704 49.1555 12.9549C49.0724 13.0394 48.9739 13.1064 48.8654 13.1522C48.7569 13.1979 48.6406 13.2215 48.5232 13.2215H47.1262V10.6427H48.5232C48.6406 10.6427 48.7569 10.6662 48.8654 10.712C48.9739 10.7577 49.0724 10.8248 49.1555 10.9093C49.2385 10.9938 49.3043 11.0941 49.3493 11.2045C49.3942 11.315 49.4173 11.4333 49.4173 11.5528V12.3113Z" fill="#7E91B4"/>
<path d="M27.1721 11.074V12.79C27.1721 12.9045 27.1274 13.0142 27.048 13.0951C26.9685 13.176 26.8607 13.2214 26.7483 13.2214H26.6226V14.0794H26.9579C27.2938 14.0794 27.616 13.9436 27.8535 13.7018C28.0911 13.46 28.2245 13.132 28.2245 12.79V11.074C28.2245 10.9604 28.2685 10.8514 28.347 10.7707C28.4254 10.6899 28.532 10.6439 28.6436 10.6427H30.1198V14.0794H31.2002V9.78466H28.4341C28.2679 9.78466 28.1035 9.81804 27.95 9.8829C27.7966 9.94775 27.6573 10.0428 27.5401 10.1626C27.4228 10.2824 27.33 10.4246 27.2668 10.581C27.2037 10.7374 27.1715 10.9049 27.1721 11.074Z" fill="#7E91B4"/>
<path d="M19.0228 10.6427H20.9553L21.2953 9.78466H18.8132C18.4773 9.78466 18.1551 9.92051 17.9176 10.1623C17.68 10.4041 17.5466 10.7321 17.5466 11.074V12.79C17.5466 13.132 17.68 13.46 17.9176 13.7018C18.1551 13.9436 18.4773 14.0794 18.8132 14.0794H21.3046L20.9553 13.2214H19.0228C18.9104 13.2214 18.8026 13.176 18.7231 13.0951C18.6437 13.0142 18.599 12.9045 18.599 12.79V11.074C18.599 10.9596 18.6437 10.8499 18.7231 10.769C18.8026 10.6881 18.9104 10.6427 19.0228 10.6427Z" fill="#7E91B4"/>
<path d="M24.8065 9.78467H23.1207C22.7848 9.78467 22.4626 9.92051 22.2251 10.1623C21.9875 10.4041 21.8541 10.7321 21.8541 11.074V12.7901C21.8541 13.132 21.9875 13.46 22.2251 13.7018C22.4626 13.9436 22.7848 14.0794 23.1207 14.0794H24.8065C24.9732 14.0801 25.1384 14.0472 25.2926 13.9826C25.4468 13.9181 25.587 13.8233 25.7051 13.7035C25.8232 13.5837 25.9169 13.4413 25.9809 13.2846C26.0448 13.1278 26.0777 12.9598 26.0777 12.7901V11.074C26.0777 10.9043 26.0448 10.7363 25.9809 10.5795C25.9169 10.4228 25.8232 10.2804 25.7051 10.1606C25.587 10.0408 25.4468 9.94597 25.2926 9.88145C25.1384 9.81694 24.9732 9.78405 24.8065 9.78467ZM25.016 12.7901C25.0166 12.8465 25.0062 12.9025 24.9855 12.9548C24.9647 13.0071 24.9339 13.0547 24.8949 13.0948C24.8559 13.1349 24.8095 13.1668 24.7584 13.1885C24.7072 13.2102 24.6523 13.2214 24.5969 13.2214H23.3303C23.2187 13.2202 23.1121 13.1742 23.0336 13.0934C22.9552 13.0127 22.9112 12.9036 22.9112 12.7901V11.074C22.9112 10.9605 22.9552 10.8514 23.0336 10.7707C23.1121 10.6899 23.2187 10.6439 23.3303 10.6427H24.5969C24.6523 10.6427 24.7072 10.6539 24.7584 10.6756C24.8095 10.6973 24.8559 10.7292 24.8949 10.7693C24.9339 10.8094 24.9647 10.857 24.9855 10.9093C25.0062 10.9616 25.0166 11.0176 25.016 11.074V12.7901Z" fill="#7E91B4"/>
<path d="M15.4371 9.7847H13.7514C13.6817 9.77766 13.6115 9.77766 13.5418 9.7847C13.5514 9.54994 13.6499 9.32807 13.8165 9.1655C13.9832 9.00293 14.2051 8.91227 14.4359 8.91247H15.8329L16.1729 8.05447H14.2217C13.9904 8.05441 13.7615 8.10137 13.5483 8.19259C13.3351 8.28381 13.1419 8.41745 12.9801 8.58568C12.8183 8.75391 12.6912 8.95333 12.6061 9.17225C12.521 9.39117 12.4798 9.62517 12.4847 9.86054V12.8138C12.4847 13.1557 12.6182 13.4837 12.8557 13.7255C13.0933 13.9673 13.4154 14.1032 13.7514 14.1032H15.4371C15.773 14.1032 16.0952 13.9673 16.3328 13.7255C16.5703 13.4837 16.7037 13.1557 16.7037 12.8138V11.0741C16.7037 10.7321 16.5703 10.4042 16.3328 10.1623C16.0952 9.92054 15.773 9.7847 15.4371 9.7847ZM15.6513 12.7901C15.6513 12.9045 15.6067 13.0142 15.5272 13.0951C15.4477 13.176 15.3399 13.2215 15.2276 13.2215H13.9702C13.9148 13.2215 13.8599 13.2103 13.8088 13.1885C13.7576 13.1668 13.7112 13.1349 13.6722 13.0948C13.6332 13.0547 13.6025 13.0071 13.5817 12.9548C13.5609 12.9025 13.5505 12.8465 13.5511 12.7901V11.0693C13.5511 10.9562 13.5953 10.8477 13.6739 10.7677C13.7525 10.6876 13.8591 10.6427 13.9702 10.6427H15.2276C15.3399 10.6427 15.4477 10.6881 15.5272 10.769C15.6067 10.8499 15.6513 10.9597 15.6513 11.0741V12.7901Z" fill="#7E91B4"/>
<path d="M39.2377 10.6427H40.5509V14.0794H41.6033V10.6427H43.0795V9.78466H38.8978L39.2377 10.6427Z" fill="#7E91B4"/>
<path d="M37.1794 9.78466H35.4937C35.1577 9.78466 34.8356 9.92051 34.598 10.1623C34.3605 10.4041 34.227 10.7321 34.227 11.074V11.3727H33.3423V9.78466H32.2898V14.0794H33.3423V12.2307H34.227V12.79C34.227 13.132 34.3605 13.46 34.598 13.7018C34.8356 13.9436 35.1577 14.0794 35.4937 14.0794H37.1794C37.5153 14.0794 37.8375 13.9436 38.0751 13.7018C38.3126 13.46 38.446 13.132 38.446 12.79V11.074C38.446 10.7321 38.3126 10.4041 38.0751 10.1623C37.8375 9.92051 37.5153 9.78466 37.1794 9.78466ZM37.389 12.79C37.3896 12.8465 37.3792 12.9025 37.3584 12.9548C37.3376 13.0071 37.3069 13.0547 37.2679 13.0948C37.2289 13.1349 37.1825 13.1668 37.1313 13.1885C37.0802 13.2102 37.0253 13.2214 36.9699 13.2214H35.7032C35.6478 13.2214 35.5929 13.2102 35.5418 13.1885C35.4906 13.1668 35.4442 13.1349 35.4052 13.0948C35.3662 13.0547 35.3355 13.0071 35.3147 12.9548C35.2939 12.9025 35.2835 12.8465 35.2841 12.79V11.074C35.2835 11.0176 35.2939 10.9616 35.3147 10.9093C35.3355 10.857 35.3662 10.8094 35.4052 10.7693C35.4442 10.7292 35.4906 10.6973 35.5418 10.6756C35.5929 10.6539 35.6478 10.6427 35.7032 10.6427H36.9699C37.0253 10.6427 37.0802 10.6539 37.1313 10.6756C37.1825 10.6973 37.2289 10.7292 37.2679 10.7693C37.3069 10.8094 37.3376 10.857 37.3584 10.9093C37.3792 10.9616 37.3896 11.0176 37.389 11.074V12.79Z" fill="#7E91B4"/>
<path d="M8.44733 8.06866L6.05377 14.0794H7.353L7.81867 12.7901H10.3799L10.8456 14.0794H12.1075L9.69534 8.06866H8.44733ZM8.10739 11.9321L9.07133 9.18264L10.0586 11.9321H8.10739Z" fill="#7E91B4"/>
<path d="M2.10019 14.07L0 14.0889L2.44013 16.5729C2.9863 17.0732 3.68538 17.3662 4.41925 17.4024H6.54738L4.07931 14.89C3.53043 14.3955 2.83232 14.1062 2.10019 14.07Z" fill="#7E91B4"/>
<path d="M3.29697 14.1268V10.5716C3.26142 9.81569 2.97022 9.09555 2.47273 8.53322L0.973255 7.01631V10.5289C1.01024 11.2831 1.30132 12.0012 1.7975 12.5625L3.29697 14.1268Z" fill="#7E91B4"/>
<path d="M6.57998 4.8879L6.56601 2.75L4.12588 5.23395C3.63499 5.79071 3.34581 6.50156 3.30629 7.2486V9.41494L5.77436 6.90255C6.2605 6.34402 6.54472 5.63326 6.57998 4.8879Z" fill="#7E91B4"/>
</svg>
