<svg width="66" height="20" viewBox="0 0 66 20" fill="none" xmlns="http://www.w3.org/2000/svg">
<path d="M30.2923 5.0349L29.3598 5.5553V15.9459H30.2923V14.8531L30.4669 15.0699C31.0851 15.7777 31.7662 16.1107 32.6219 16.1107C34.3857 16.1107 35.5208 14.4385 35.5208 11.8712C35.5208 9.35074 34.5272 7.90577 32.7826 7.90577C31.9094 7.90577 31.1532 8.28393 30.4669 9.03504L30.2923 9.22238V5.0349ZM53.1921 5.0349L52.2578 5.5553V15.9459H53.1903V13.6909L54.6922 11.6093C54.6922 11.6093 56.69 15.8366 56.7459 15.9459H57.75C57.6173 15.6701 55.2737 10.8373 55.2737 10.8373C55.2737 10.8373 57.0689 8.37586 57.2837 8.08791H56.2743C55.9827 8.50596 53.7107 11.7966 53.7107 11.7931L53.2008 12.5737L53.1921 5.0349ZM22.2504 5.57785L20.649 6.43131V8.0376H19.2642V9.52768H20.649V13.9858C20.649 15.2 21.372 16.0327 22.4547 16.0535C22.9608 16.077 23.4627 15.9515 23.8972 15.6927L23.9129 15.6771L24.3058 14.1592L24.2185 14.2165C23.8586 14.454 23.4401 14.589 23.0083 14.6068C22.4844 14.6068 22.2522 14.3396 22.2522 13.7238V9.52768H23.8972V8.0376H22.2504V5.57785ZM12.4168 7.9075C11.346 7.88262 10.3051 8.25987 9.50213 8.96391C8.69008 9.70462 8.25 10.7489 8.25 11.9874C8.25 13.226 8.69008 14.2841 9.50213 15.0266C10.3048 15.7312 11.3459 16.1085 12.4168 16.083C12.9582 16.091 13.4943 15.9749 13.9832 15.7435C14.472 15.5121 14.9006 15.1718 15.2354 14.749L15.265 14.7195L14.3325 13.6059L14.3028 13.6492C13.7248 14.2321 13.0542 14.5322 12.3661 14.5322C10.9324 14.5322 9.88981 13.4602 9.88981 11.984C9.88981 10.5078 10.9376 9.45135 12.3661 9.45135C12.7337 9.46032 13.0956 9.54354 13.4298 9.69593C13.7639 9.84832 14.0634 10.0667 14.3098 10.3378L14.3395 10.3811L15.272 9.26748L15.2354 9.23799C14.8997 8.81643 14.4709 8.4772 13.9821 8.2465C13.4934 8.0158 12.9578 7.89981 12.4168 7.9075ZM39.8343 7.9075C38.9532 7.90249 38.0838 8.1071 37.2986 8.50423C37.358 8.6378 37.5728 9.11656 37.6339 9.25707C38.2733 8.87952 39.0031 8.67943 39.747 8.67769C40.9607 8.67769 41.5824 9.30738 41.5824 10.5581V11.6873L41.4217 11.6006C40.8285 11.2956 40.1686 11.1413 39.5007 11.1513C38.0792 11.1513 36.5582 11.8001 36.5582 13.6267C36.5582 15.8627 38.2556 16.1159 38.9908 16.1159C39.9269 16.1159 40.7249 15.736 41.4095 14.9867L41.5841 14.7993V15.9425H42.5167V10.4245C42.5149 8.73667 41.64 7.9075 39.8343 7.9075ZM47.6562 7.9075C47.2379 7.90174 46.8251 8.00114 46.4559 8.19646C46.0868 8.39178 45.7734 8.67667 45.5448 9.02463L45.3545 9.30044V8.08617H44.4219V15.9442H45.3545V11.3231C45.3545 9.6838 46.1264 8.70371 47.4239 8.70371C48.7773 8.70371 49.4042 9.53462 49.4042 11.3231V15.939H50.3368V11.1201C50.3368 9.02463 49.413 7.9075 47.6562 7.9075ZM16.2046 8.0376V15.939H17.8217V8.0376H16.2046ZM25.5562 8.0376V15.939H27.1891V8.0376H25.5562ZM32.4909 8.70371C33.8374 8.70371 34.604 9.87461 34.604 11.9007C34.604 14.1696 33.9055 15.3162 32.5346 15.3162C32.0844 15.3093 31.6433 15.1902 31.2515 14.9698C30.8597 14.7495 30.5299 14.435 30.2923 14.0551V9.93359L30.3063 9.9041C30.9419 9.10616 31.6737 8.70371 32.4909 8.70371ZM39.4257 11.8729C40.3215 11.8729 40.9275 11.9996 41.5213 12.3361L41.5806 12.3639V14.0864L41.5649 14.1159C41.3022 14.5014 40.9487 14.8175 40.5351 15.0366C40.1215 15.2558 39.6604 15.3714 39.1916 15.3735C38.081 15.3735 37.4575 14.7247 37.4575 13.5504C37.4593 12.494 38.1962 11.8729 39.4257 11.8729Z" fill="#7E91B4"/>
<path d="M28.1425 6.6464C27.4133 5.61283 26.444 4.76905 25.3169 4.1865C24.1897 3.60396 22.9377 3.2998 21.6671 3.2998C20.3965 3.2998 19.1446 3.60396 18.0174 4.1865C16.8902 4.76905 15.9209 5.61283 15.1917 6.6464L15.1149 6.75221H16.9817L17.0026 6.73139C17.6003 6.09998 18.3218 5.5968 19.1226 5.25284C19.9235 4.90889 20.7868 4.73144 21.6593 4.73144C22.5318 4.73144 23.395 4.90889 24.1959 5.25284C24.9967 5.5968 25.7182 6.09998 26.3159 6.73139L26.3386 6.75221H28.2107L28.1425 6.6464Z" fill="#7E91B4"/>
</svg>
