<svg width="120" height="36" viewBox="0 0 120 36" fill="none" xmlns="http://www.w3.org/2000/svg">
<path d="M55.0769 9.15472L53.3814 10.1009V28.993H55.0769V27.006L55.3944 27.4002C56.5184 28.687 57.7567 29.2926 59.3126 29.2926C62.5195 29.2926 64.5833 26.2522 64.5833 21.5844C64.5833 17.0017 62.7767 14.3745 59.6047 14.3745C58.0171 14.3745 56.6423 15.062 55.3944 16.4277L55.0769 16.7683V9.15472ZM96.7128 9.15472L95.0141 10.1009V28.993H96.7096V24.8928L99.4403 21.1081C99.4403 21.1081 103.073 28.7943 103.174 28.993H105C104.759 28.4915 100.498 19.7046 100.498 19.7046C100.498 19.7046 103.762 15.2292 104.152 14.7056H102.317C101.787 15.4657 97.6558 21.4487 97.6558 21.4424L96.7287 22.8617L96.7128 9.15472ZM40.4553 10.1419L37.5437 11.6936V14.6142H35.0258V17.3234H37.5437V25.429C37.5437 27.6368 38.8582 29.1506 40.8268 29.1885C41.747 29.2313 42.6594 29.0031 43.4495 28.5325L43.478 28.5041L44.1924 25.7444L44.0337 25.8485C43.3794 26.2804 42.6183 26.5259 41.8333 26.5581C40.8808 26.5581 40.4585 26.0724 40.4585 24.9528V17.3234H43.4495V14.6142H40.4553V10.1419ZM22.5759 14.3776C20.6291 14.3324 18.7366 15.0183 17.2766 16.2984C15.8001 17.6451 15 19.5438 15 21.7957C15 24.0476 15.8001 25.9715 17.2766 27.3214C18.736 28.6025 20.6288 29.2886 22.5759 29.2421C23.5604 29.2568 24.5351 29.0456 25.4239 28.6249C26.3128 28.2042 27.0919 27.5854 27.7007 26.8167L27.7546 26.7631L26.0591 24.7383L26.0051 24.8171C24.9541 25.8769 23.7349 26.4225 22.4839 26.4225C19.8771 26.4225 17.9815 24.4734 17.9815 21.7894C17.9815 19.1054 19.8866 17.1846 22.4839 17.1846C23.1522 17.2009 23.8102 17.3522 24.4178 17.6293C25.0253 17.9064 25.5697 18.3035 26.0178 18.7963L26.0718 18.8751L27.7673 16.8503L27.7007 16.7967C27.0903 16.0302 26.3107 15.4134 25.4221 14.994C24.5335 14.5745 23.5597 14.3636 22.5759 14.3776ZM72.426 14.3776C70.8241 14.3685 69.2432 14.7405 67.8157 15.4626C67.9236 15.7054 68.3142 16.5759 68.4253 16.8314C69.5879 16.1449 70.9147 15.7811 72.2672 15.778C74.474 15.778 75.6043 16.9229 75.6043 19.1968V21.2501L75.3122 21.0924C74.2337 20.5379 73.0338 20.2573 71.8195 20.2755C69.235 20.2755 66.4694 21.4551 66.4694 24.7761C66.4694 28.8416 69.5557 29.302 70.8924 29.302C72.5943 29.302 74.0453 28.6113 75.29 27.2488L75.6075 26.9082V28.9866H77.303V18.954C77.2999 15.8852 75.7091 14.3776 72.426 14.3776ZM86.6476 14.3776C85.8872 14.3672 85.1365 14.5479 84.4653 14.903C83.7941 15.2581 83.2243 15.7761 82.8088 16.4088L82.4627 16.9102V14.7025H80.7672V28.9898H82.4627V20.5877C82.4627 17.6073 83.8661 15.8253 86.2253 15.8253C88.686 15.8253 89.8259 17.336 89.8259 20.5877V28.9803H91.5214V20.2187C91.5214 16.4088 89.8418 14.3776 86.6476 14.3776ZM29.4629 14.6142V28.9803H32.4031V14.6142H29.4629ZM46.4659 14.6142V28.9803H49.4346V14.6142H46.4659ZM59.0744 15.8253C61.5225 15.8253 62.9164 17.9542 62.9164 21.638C62.9164 25.7633 61.6463 27.8481 59.1538 27.8481C58.3354 27.8354 57.5332 27.6188 56.8209 27.2182C56.1086 26.8176 55.5089 26.2458 55.0769 25.5552V18.0614L55.1023 18.0078C56.2581 16.557 57.5885 15.8253 59.0744 15.8253ZM71.683 21.5875C73.3119 21.5875 74.4137 21.8178 75.4932 22.4296L75.6012 22.4801V25.6119L75.5726 25.6656C75.0948 26.3666 74.4521 26.9412 73.7002 27.3397C72.9482 27.7382 72.1098 27.9484 71.2575 27.9522C69.2381 27.9522 68.1046 26.7726 68.1046 24.6374C68.1078 22.7166 69.4477 21.5875 71.683 21.5875Z" fill="#7E91B4"/>
<path d="M51.1683 12.0847C49.8424 10.2055 48.0801 8.67135 46.0306 7.61218C43.9812 6.553 41.705 6 39.3948 6C37.0845 6 34.8083 6.553 32.7589 7.61218C30.7095 8.67135 28.9472 10.2055 27.6213 12.0847L27.4816 12.2771H30.8758L30.9139 12.2393C32.0006 11.0912 33.3123 10.1763 34.7684 9.55097C36.2245 8.9256 37.7941 8.60298 39.3805 8.60298C40.9669 8.60298 42.5364 8.9256 43.9925 9.55097C45.4486 10.1763 46.7604 11.0912 47.847 12.2393L47.8883 12.2771H51.2921L51.1683 12.0847Z" fill="#7E91B4"/>
</svg>
