<svg width="66" height="20" viewBox="0 0 66 20" fill="none" xmlns="http://www.w3.org/2000/svg">
<path d="M42.4083 9.96664L40.3321 7.99697L42.3246 6.16872L42.3679 6.12917H41.4139L41.4071 6.13516L39.4929 7.88744V6.12917H38.7252V10.0064H39.4929V8.17793L41.4068 9.99996L41.4134 10.0064H42.4492L42.4083 9.96664Z" fill="#7E91B4"/>
<path d="M16.404 9.35354V6.13132H13.1612V6.62745C13.1612 6.84292 13.1559 7.05623 13.1444 7.26164C13.1337 7.46728 13.1162 7.67101 13.0929 7.8661C13.0688 8.06048 13.0384 8.24551 13.0021 8.41784C12.9656 8.58849 12.9238 8.7426 12.8778 8.87586C12.8209 9.03069 12.7482 9.1467 12.6618 9.221C12.5811 9.29002 12.5086 9.35953 12.4451 9.35953H12.1921L12.1923 9.71114L12.2349 10.7993H12.9085L12.9591 10.0035H16.1812L16.2201 10.7993H16.8884L16.9497 9.70179V9.35354H16.404ZM15.6417 6.78108V9.3533H13.4925C13.6161 9.13567 13.7112 8.80564 13.784 8.41856C13.8676 7.96749 13.9146 7.39346 13.9224 6.78108H15.6417Z" fill="#7E91B4"/>
<path d="M55.8794 9.35354V6.13132H52.6369V6.62745C52.6369 6.84292 52.6315 7.05623 52.6198 7.26164C52.6094 7.46728 52.5919 7.67101 52.5685 7.8661C52.5442 8.06048 52.5143 8.24551 52.4778 8.41784C52.4413 8.58849 52.3999 8.7426 52.3537 8.87586C52.297 9.03069 52.2241 9.1467 52.1367 9.221C52.0572 9.29002 51.9837 9.35953 51.9202 9.35953H51.668V9.71114L51.7103 10.7993H52.3844L52.4342 10.0035H55.6569L55.6948 10.7993H56.3635L56.4243 9.70179V9.35354H55.8794ZM55.1168 6.78108V9.3533H52.9677C53.091 9.13567 53.1864 8.80564 53.2591 8.41856C53.3428 7.96749 53.3897 7.39346 53.3973 6.78108H55.1168Z" fill="#7E91B4"/>
<path d="M17.5096 6.13132H21.0339V6.78108H18.2773V7.68107H20.6505V8.33084H18.2773V9.3533H21.0991V10.0033H17.5096V6.13132Z" fill="#7E91B4"/>
<path d="M31.7271 6.78108H29.9703V6.13132H34.2518V6.78108H32.495V10.0033H31.7273L31.7271 6.78108Z" fill="#7E91B4"/>
<path d="M35.4639 6.13132H36.3399L38.2484 10.0035H37.4379L37.0271 9.11386H34.7616L34.3454 10.0035H33.5293L35.4639 6.13132ZM36.7242 8.4641L35.9018 6.73818L35.0803 8.4641H36.7242Z" fill="#7E91B4"/>
<path d="M47.5181 6.13132H51.0428V6.78108H48.2858V7.68107H50.6585V8.33084H48.2858V9.3533H51.1075V10.0033H47.5181V6.13132Z" fill="#7E91B4"/>
<path d="M61.1588 10.0038H60.4234V7.10609L57.6878 10.0038H56.9855V6.13132H57.7204V8.92739L60.3478 6.13132H61.1588V10.0038Z" fill="#7E91B4"/>
<path d="M63.4758 6.78108H61.7182V6.13132H66V6.78108H64.243V10.0033H63.4758V6.78108Z" fill="#7E91B4"/>
<path d="M45.5801 6.13204H43.1403V10.0043H43.908V8.70066L45.5799 8.70161C46.44 8.70161 46.981 8.24287 46.981 7.44595C46.9812 6.68042 46.4402 6.13204 45.5801 6.13204ZM45.5993 8.05089H44.0571L43.9082 8.05113V6.7818H45.5575C45.9768 6.7818 46.2133 7.07397 46.2133 7.45601C46.2133 7.80354 45.9768 8.05089 45.5993 8.05089Z" fill="#7E91B4"/>
<path d="M30.4658 8.68987C30.4658 7.8927 29.9258 7.43396 29.0659 7.43396L27.3932 7.43492V6.13204H26.6255V10.0043H29.0659C29.926 10.0043 30.4658 9.4554 30.4658 8.68987ZM29.699 8.6798C29.699 9.06209 29.4624 9.35401 29.043 9.35401H27.3932V8.08492L29.0843 8.08516C29.4621 8.08516 29.699 8.33275 29.699 8.6798Z" fill="#7E91B4"/>
<path d="M22.5306 6.13132V6.783C22.5306 7.39729 22.5141 7.84669 22.4805 8.24767C22.4482 8.63595 22.3747 8.97437 22.2625 9.1606C22.2168 9.2337 22.1665 9.28451 22.1144 9.31159C22.0633 9.33772 22.0052 9.35162 21.939 9.3533H21.659V10.0033H22.0745V9.99995C22.227 9.9918 22.3659 9.96016 22.4866 9.90216C22.6274 9.83529 22.7488 9.7351 22.8473 9.60544C22.9517 9.46714 23.0344 9.2917 23.0933 9.08366C23.1504 8.88377 23.1949 8.65224 23.2256 8.39627C23.256 8.14437 23.275 7.86323 23.283 7.56195C23.2896 7.28728 23.293 7.06678 23.2937 6.77653H25.1125V10.0033H25.8809V6.13132H22.5306Z" fill="#7E91B4"/>
<path fill-rule="evenodd" clip-rule="evenodd" d="M0 5.49976H9.14316L9.14364 14.5078H0.000232798L0 5.49976ZM1.59453 9.72936H7.54353V10.2777H1.59453V9.72936Z" fill="#7E91B4"/>
<path d="M14.34 11.6242L13.0328 13.2365C12.8878 13.4213 12.7713 13.58 12.6769 13.7207C12.6808 13.5845 12.6852 13.4177 12.6852 13.2375V11.6242H12.1916V14.5083H12.6258L13.9822 12.7859C14.0853 12.6572 14.1717 12.5403 14.2478 12.4365C14.2787 12.3943 14.3087 12.3533 14.3381 12.3145C14.3298 12.4451 14.3257 12.5932 14.3257 12.7663V14.5083H14.8192V11.6242H14.34Z" fill="#7E91B4"/>
<path d="M15.4113 12.3804V14.5083H15.863V12.8114H16.8312V14.5083H17.2863V12.3804H15.4113Z" fill="#7E91B4"/>
<path d="M18.7711 12.3449C18.1606 12.3449 17.7337 12.7955 17.7337 13.4405C17.7337 14.0778 18.1703 14.5408 18.7711 14.5408C19.0716 14.5408 19.3301 14.4318 19.5199 14.2254C19.7028 14.026 19.8037 13.7475 19.8037 13.4409C19.8035 12.7955 19.3788 12.3449 18.7711 12.3449ZM18.7711 14.1398C18.4228 14.1398 18.2063 13.8724 18.2063 13.4405C18.2063 13.0124 18.4228 12.7463 18.7711 12.7463C19.1217 12.7463 19.3313 13.0057 19.3313 13.4405C19.3313 13.8783 19.1217 14.1398 18.7711 14.1398Z" fill="#7E91B4"/>
<path d="M20.0655 12.379V12.7965H20.7004V14.5066H21.148V12.7965H21.7084L21.8415 12.379H20.0655Z" fill="#7E91B4"/>
<path d="M23.8761 13.4633C23.8761 12.767 23.5321 12.3514 22.9566 12.3514C22.3954 12.3514 22.0183 12.7946 22.0183 13.4539C22.0183 13.9819 22.2995 14.5476 23.0877 14.5476C23.3557 14.5476 23.6107 14.4805 23.8053 14.3587L23.8184 14.351L23.6788 14.0356L23.671 14.0184L23.654 14.0268C23.4898 14.1147 23.3302 14.154 23.1375 14.154C22.752 14.154 22.5204 13.9565 22.5022 13.6119L22.5012 13.5913H23.8763L23.8761 13.4633ZM22.4973 13.18C22.5109 12.9029 22.6766 12.7435 22.9522 12.7435C23.2198 12.7435 23.3757 12.8984 23.3922 13.18L23.3932 13.2006H22.4963L22.4973 13.18Z" fill="#7E91B4"/>
<path d="M28.0683 12.3804V13.2516H27.1001V12.3804H26.6484V14.5083H27.1001V13.6368H28.0683V14.5083H28.5237V12.3804H28.0683Z" fill="#7E91B4"/>
<path d="M25.6041 12.3804V13.3262C25.4886 13.3566 25.3699 13.3708 25.2667 13.3708C24.8678 13.3708 24.7895 13.2802 24.7895 12.982V12.3809H24.3402V13.0084C24.3402 13.5071 24.5803 13.7298 25.2176 13.7298C25.3205 13.7298 25.402 13.719 25.6039 13.6893V14.509H26.0566V12.3811H25.6041V12.3804Z" fill="#7E91B4"/>
<path d="M33.9005 14.5083V12.3811H33.4279L32.56 13.8238V12.3811H32.127V14.5083H32.5921L33.4707 13.0542V14.5083H33.9005Z" fill="#7E91B4"/>
<path d="M33.6867 11.5214H33.396L33.3875 11.5595C33.3466 11.7436 33.2284 11.8292 33.0153 11.8292C32.8027 11.8292 32.6845 11.7436 32.6432 11.5595L32.6344 11.5214H32.3444L32.3498 11.5754C32.3902 11.943 32.6385 12.1631 33.0151 12.1631C33.3916 12.1631 33.6402 11.943 33.6806 11.5754L33.6867 11.5214Z" fill="#7E91B4"/>
<path d="M41.8364 12.3804V13.2143H40.868V12.3804H40.4161V14.5083H40.868V13.6337H41.8364V14.5083H42.2913V12.3804H41.8364Z" fill="#7E91B4"/>
<path d="M36.667 12.7653H35.8616V12.0432H37.3915V11.6242H35.4009V14.5083H36.7471C37.3319 14.5083 37.6963 14.1737 37.6963 13.6363C37.6972 13.075 37.3309 12.7653 36.667 12.7653ZM36.695 14.0893H35.8616V13.186H36.6104C37.0317 13.186 37.2119 13.3106 37.2119 13.6363C37.2119 13.9544 37.0482 14.0893 36.695 14.0893Z" fill="#7E91B4"/>
<path d="M30.052 13.1266H29.5735V12.3809H29.115V14.5081H30.0525C30.5322 14.5081 30.8297 14.2432 30.8297 13.8171C30.8294 13.3909 30.5317 13.1266 30.052 13.1266ZM29.98 14.1274H29.5735V13.5072H29.9481C30.233 13.5072 30.3712 13.6083 30.3712 13.8171C30.3712 14.0237 30.2398 14.1274 29.98 14.1274Z" fill="#7E91B4"/>
<path d="M31.5351 12.3811H31.0834V14.5087H31.5351V12.3811Z" fill="#7E91B4"/>
<path d="M43.339 14.5083V13.6548L44.0522 14.5083H44.6008L43.6854 13.4168L44.5562 12.3804H44.0152L43.339 13.2195V12.3804H42.8831V14.5083H43.339Z" fill="#7E91B4"/>
<path d="M38.767 14.5566C38.9938 14.5566 39.1852 14.4706 39.3686 14.3062L39.381 14.2959L39.4528 14.5082H39.8661C39.8366 14.4049 39.8257 14.2276 39.8257 13.904V13.0946C39.8257 12.6001 39.5377 12.3387 38.9942 12.3387C38.7055 12.3387 38.435 12.4089 38.1883 12.5479L38.1842 12.5503L38.3513 12.8671L38.3564 12.8643C38.5384 12.761 38.7284 12.7087 38.9222 12.7087C39.1156 12.7087 39.3455 12.7758 39.3455 13.0946V13.179L38.9663 13.1921C38.7196 13.2029 38.563 13.2432 38.4265 13.3108C38.2606 13.3925 38.094 13.6157 38.094 13.8846C38.0937 14.2999 38.443 14.5566 38.767 14.5566ZM38.6902 13.5881C38.7705 13.545 38.8789 13.5227 39.031 13.5184L39.3455 13.5047V13.9728L39.3414 13.9761C39.192 14.1068 39.0424 14.1703 38.8853 14.1703C38.6746 14.1703 38.544 14.0478 38.544 13.851C38.544 13.7307 38.5941 13.6401 38.6902 13.5881Z" fill="#7E91B4"/>
</svg>
