<svg width="120" height="36" viewBox="0 0 120 36" fill="none" xmlns="http://www.w3.org/2000/svg">
<path d="M77.106 18.1216L73.3312 14.5404L76.9539 11.2163L77.0326 11.1444H75.298L75.2856 11.1553L71.8053 14.3412V11.1444H70.4095V18.1939H71.8053V14.8694L75.2852 18.1822L75.2971 18.1939H77.1803L77.106 18.1216Z" fill="#7E91B4"/>
<path d="M29.8255 17.0069V11.1483H23.9295V12.0504C23.9295 12.4421 23.9198 12.83 23.899 13.2034C23.8795 13.5773 23.8477 13.9477 23.8052 14.3024C23.7614 14.6559 23.7062 14.9923 23.6403 15.3056C23.5739 15.6159 23.4978 15.8961 23.4142 16.1384C23.3108 16.4199 23.1785 16.6308 23.0215 16.7659C22.8747 16.8914 22.7429 17.0178 22.6274 17.0178H22.1675L22.1679 17.6571L22.2453 19.6355H23.47L23.562 18.1887H29.4204L29.4912 19.6355H30.7061L30.8176 17.6401V17.0069H29.8255ZM28.4394 12.3297V17.0064H24.5319C24.7566 16.6108 24.9295 16.0107 25.0617 15.3069C25.2139 14.4868 25.2992 13.4431 25.3134 12.3297H28.4394Z" fill="#7E91B4"/>
<path d="M101.599 17.0069V11.1483H95.7034V12.0504C95.7034 12.4421 95.6937 12.83 95.6725 13.2034C95.6534 13.5773 95.6216 13.9477 95.5791 14.3024C95.5349 14.6559 95.4805 14.9923 95.4142 15.3056C95.3478 15.6159 95.2726 15.8961 95.1886 16.1384C95.0855 16.4199 94.9529 16.6308 94.7941 16.7659C94.6495 16.8914 94.5159 17.0178 94.4005 17.0178H93.9418V17.6571L94.0188 19.6355H95.2443L95.335 18.1887H101.194L101.263 19.6355H102.479L102.59 17.6401V17.0069H101.599ZM100.212 12.3297V17.0064H96.3049C96.5292 16.6108 96.7025 16.0107 96.8348 15.3069C96.9869 14.4868 97.0723 13.4431 97.086 12.3297H100.212Z" fill="#7E91B4"/>
<path d="M31.8357 11.1483H38.2434V12.3297H33.2315V13.966H37.5464V15.1474H33.2315V17.0064H38.3619V18.1883H31.8357V11.1483Z" fill="#7E91B4"/>
<path d="M57.6856 12.3297H54.4914V11.1483H62.276V12.3297H59.0818V18.1883H57.686L57.6856 12.3297Z" fill="#7E91B4"/>
<path d="M64.4799 11.1483H66.0725L69.5426 18.1887H68.0689L67.3219 16.5711H63.203L62.4463 18.1887H60.9624L64.4799 11.1483ZM66.7713 15.3897L65.276 12.2517L63.7824 15.3897H66.7713Z" fill="#7E91B4"/>
<path d="M86.3965 11.1483H92.8052V12.3297H87.7924V13.966H92.1064V15.1474H87.7924V17.0064H92.9228V18.1883H86.3965V11.1483Z" fill="#7E91B4"/>
<path d="M111.198 18.1891H109.861V12.9206L104.887 18.1891H103.61V11.1483H104.946V16.2321L109.723 11.1483H111.198V18.1891Z" fill="#7E91B4"/>
<path d="M115.41 12.3297H112.215V11.1483H120V12.3297H116.805V18.1883H115.41V12.3297Z" fill="#7E91B4"/>
<path d="M82.8729 11.1496H78.4369V18.19H79.8327V15.8198L82.8725 15.8216C84.4364 15.8216 85.42 14.9875 85.42 13.5385C85.4204 12.1467 84.4368 11.1496 82.8729 11.1496ZM82.9079 14.6384H80.1038L79.8331 14.6389V12.331H82.8318C83.5943 12.331 84.0242 12.8622 84.0242 13.5568C84.0242 14.1887 83.5943 14.6384 82.9079 14.6384Z" fill="#7E91B4"/>
<path d="M55.3923 15.8002C55.3923 14.3508 54.4105 13.5167 52.847 13.5167L49.8059 13.5185V11.1496H48.4101V18.19H52.847C54.4109 18.19 55.3923 17.1921 55.3923 15.8002ZM53.9983 15.7819C53.9983 16.477 53.5679 17.0077 52.8054 17.0077H49.8059V14.7003L52.8806 14.7007C53.5675 14.7007 53.9983 15.1509 53.9983 15.7819Z" fill="#7E91B4"/>
<path d="M40.9648 11.1483V12.3332C40.9648 13.4501 40.9347 14.2672 40.8736 14.9962C40.8148 15.7022 40.6813 16.3175 40.4774 16.6561C40.3942 16.789 40.3027 16.8814 40.208 16.9306C40.1151 16.9781 40.0094 17.0034 39.8891 17.0064H39.3801V18.1883H40.1355V18.1822C40.4128 18.1673 40.6653 18.1098 40.8847 18.0044C41.1408 17.8828 41.3615 17.7006 41.5406 17.4649C41.7303 17.2134 41.8807 16.8944 41.9877 16.5162C42.0917 16.1528 42.1726 15.7318 42.2283 15.2664C42.2836 14.8084 42.3181 14.2972 42.3327 13.7494C42.3447 13.25 42.3509 12.8491 42.3522 12.3214H45.6591V18.1883H47.0563V11.1483H40.9648Z" fill="#7E91B4"/>
<path fill-rule="evenodd" clip-rule="evenodd" d="M0 10H16.6239L16.6248 26.3783H0.00042327L0 10ZM2.89914 17.6902H13.7155V18.6872H2.89914V17.6902Z" fill="#7E91B4"/>
<path d="M26.0728 21.1354L23.696 24.0669C23.4324 24.4028 23.2205 24.6913 23.0489 24.9471C23.056 24.6996 23.064 24.3963 23.064 24.0686V21.1354H22.1666V26.3791H22.9561L25.4222 23.2476C25.6097 23.0136 25.7667 22.8009 25.9052 22.6122C25.9613 22.5355 26.0157 22.461 26.0693 22.3904C26.0542 22.6279 26.0467 22.8972 26.0467 23.2119V26.3791H26.9441V21.1354H26.0728Z" fill="#7E91B4"/>
<path d="M28.0206 22.5103V26.3791H28.8419V23.2938H30.6022V26.3791H31.4297V22.5103H28.0206Z" fill="#7E91B4"/>
<path d="M34.1293 22.4457C33.0192 22.4457 32.243 23.265 32.243 24.4376C32.243 25.5964 33.0369 26.4383 34.1293 26.4383C34.6756 26.4383 35.1457 26.24 35.4907 25.8648C35.8233 25.5022 36.0068 24.9959 36.0068 24.4385C36.0064 23.265 35.2341 22.4457 34.1293 22.4457ZM34.1293 25.7092C33.496 25.7092 33.1024 25.2229 33.1024 24.4376C33.1024 23.6593 33.496 23.1756 34.1293 23.1756C34.7667 23.1756 35.1479 23.6471 35.1479 24.4376C35.1479 25.2338 34.7667 25.7092 34.1293 25.7092Z" fill="#7E91B4"/>
<path d="M36.4827 22.5077V23.2668H37.637V26.3761H38.4508V23.2668H39.4698L39.7118 22.5077H36.4827Z" fill="#7E91B4"/>
<path d="M43.411 24.4791C43.411 23.2132 42.7856 22.4576 41.7392 22.4576C40.7189 22.4576 40.0333 23.2633 40.0333 24.4621C40.0333 25.4221 40.5446 26.4506 41.9776 26.4506C42.465 26.4506 42.9285 26.3286 43.2823 26.1072L43.3062 26.0932L43.0523 25.5198L43.0382 25.4884L43.0072 25.5036C42.7087 25.6636 42.4185 25.735 42.0683 25.735C41.3672 25.735 40.9462 25.3759 40.913 24.7493L40.9113 24.7118H43.4115L43.411 24.4791ZM40.9042 23.964C40.9289 23.4603 41.2301 23.1705 41.7312 23.1705C42.2178 23.1705 42.5012 23.452 42.5313 23.964L42.5331 24.0015H40.9024L40.9042 23.964Z" fill="#7E91B4"/>
<path d="M51.0332 22.5103V24.0943H49.273V22.5103H48.4517V26.3791H49.273V24.7946H51.0332V26.3791H51.8612V22.5103H51.0332Z" fill="#7E91B4"/>
<path d="M46.5529 22.5103V24.2299C46.3429 24.2852 46.127 24.3109 45.9395 24.3109C45.2142 24.3109 45.0718 24.1462 45.0718 23.6041V22.5112H44.2549V23.652C44.2549 24.5589 44.6914 24.9637 45.8502 24.9637C46.0373 24.9637 46.1854 24.9441 46.5525 24.8901V26.3804H47.3756V22.5116H46.5529V22.5103Z" fill="#7E91B4"/>
<path d="M61.6373 26.3791V22.5116H60.778L59.1999 25.1346V22.5116H58.4127V26.3791H59.2583L60.8558 23.7353V26.3791H61.6373Z" fill="#7E91B4"/>
<path d="M61.2486 20.9485H60.72L60.7046 21.0178C60.6303 21.3525 60.4153 21.508 60.0279 21.508C59.6413 21.508 59.4264 21.3525 59.3512 21.0178L59.3353 20.9485H58.8081L58.8178 21.0466C58.8912 21.715 59.3428 22.1151 60.0274 22.1151C60.7121 22.1151 61.1641 21.715 61.2375 21.0466L61.2486 20.9485Z" fill="#7E91B4"/>
<path d="M76.0663 22.5103V24.0264H74.3055V22.5103H73.4838V26.3791H74.3055V24.789H76.0663V26.3791H76.8933V22.5103H76.0663Z" fill="#7E91B4"/>
<path d="M66.6674 23.2101H65.203V21.8971H67.9845V21.1354H64.3653V26.3791H66.8129C67.8761 26.3791 68.5387 25.7707 68.5387 24.7937C68.5404 23.7731 67.8743 23.2101 66.6674 23.2101ZM66.7182 25.6173H65.203V23.9749H66.5643C67.3303 23.9749 67.6581 24.2015 67.6581 24.7937C67.6581 25.372 67.3604 25.6173 66.7182 25.6173Z" fill="#7E91B4"/>
<path d="M54.64 23.8669H53.7701V22.5112H52.9364V26.3787H54.6409C55.5131 26.3787 56.054 25.8972 56.054 25.1224C56.0535 24.3476 55.5122 23.8669 54.64 23.8669ZM54.5091 25.6867H53.7701V24.5589H54.4512C54.9691 24.5589 55.2203 24.7428 55.2203 25.1224C55.2203 25.498 54.9815 25.6867 54.5091 25.6867Z" fill="#7E91B4"/>
<path d="M57.3366 22.5116H56.5153V26.38H57.3366V22.5116Z" fill="#7E91B4"/>
<path d="M78.7982 26.3791V24.8273L80.095 26.3791H81.0923L79.428 24.3946L81.0114 22.5103H80.0277L78.7982 24.036V22.5103H77.9694V26.3791H78.7982Z" fill="#7E91B4"/>
<path d="M70.4855 26.467C70.8977 26.467 71.2458 26.3106 71.5793 26.0117L71.6019 25.9929L71.7323 26.379H72.4838C72.4303 26.1912 72.4103 25.8687 72.4103 25.2804V23.8088C72.4103 22.9098 71.8867 22.4344 70.8986 22.4344C70.3736 22.4344 69.8818 22.5621 69.4334 22.8148L69.4258 22.8192L69.7297 23.3953L69.739 23.39C70.0698 23.2022 70.4152 23.1072 70.7677 23.1072C71.1193 23.1072 71.5373 23.2292 71.5373 23.8088V23.9622L70.8478 23.9862C70.3993 24.0058 70.1145 24.079 69.8664 24.2019C69.5647 24.3505 69.2618 24.7562 69.2618 25.2451C69.2613 26.0003 69.8964 26.467 70.4855 26.467ZM70.3458 24.7061C70.4917 24.6276 70.689 24.5871 70.9654 24.5793L71.5373 24.5544V25.4055L71.5298 25.4116C71.2582 25.6491 70.9862 25.7646 70.7005 25.7646C70.3175 25.7646 70.08 25.5419 70.08 25.1841C70.08 24.9654 70.1711 24.8006 70.3458 24.7061Z" fill="#7E91B4"/>
</svg>
