<svg width="66" height="20" viewBox="0 0 66 20" fill="none" xmlns="http://www.w3.org/2000/svg">
<path fill-rule="evenodd" clip-rule="evenodd" d="M0.242969 9.93799C0.21558 8.12557 0.910361 6.37641 2.17467 5.07481C3.43899 3.7732 5.16942 3.02561 6.98581 2.99626C8.7965 3.03411 10.5186 3.78544 11.7759 5.08611C13.0332 6.38679 13.7235 8.1311 13.6961 9.93799C13.7235 11.7449 13.0332 13.4892 11.7759 14.7899C10.5186 16.0905 8.7965 16.8419 6.98581 16.8797C6.08623 16.8658 5.19821 16.6752 4.37247 16.3188C3.54673 15.9624 2.79944 15.4471 2.17329 14.8025C1.54714 14.1579 1.05439 13.3965 0.723177 12.5618C0.391969 11.7272 0.228793 10.8356 0.242969 9.93799ZM0.000822441 9.93799C-0.0278052 11.8153 0.691936 13.6271 2.00179 14.975C3.31165 16.3229 5.10438 17.0966 6.98581 17.126C8.86685 17.0954 10.6589 16.3213 11.9685 14.9737C13.278 13.626 13.9982 11.8149 13.9708 9.93799C13.9982 8.06105 13.278 6.24996 11.9685 4.90231C10.6589 3.55465 8.86685 2.78057 6.98581 2.75C5.10438 2.77935 3.31165 3.55305 2.00179 4.90097C0.691936 6.24889 -0.0278052 8.06069 0.000822441 9.93799Z" fill="#7E91B4"/>
<path fill-rule="evenodd" clip-rule="evenodd" d="M11.4007 9.20854C11.3494 9.25501 11.2935 9.29682 11.2284 9.34793C10.6724 9.72277 10.0496 9.98775 9.39363 10.1285C7.64273 10.5932 6.37611 10.6861 4.92789 11.0578C4.63984 11.1298 4.358 11.2246 4.08504 11.3412C4.35512 11.476 4.64384 11.6107 4.94186 11.7269C5.50455 11.5537 6.07873 11.4202 6.66017 11.3273C6.98614 11.2669 7.98266 11.0903 8.70444 10.9324C10.0037 10.6443 11.9082 10.0031 11.4007 9.21319V9.20854ZM10.5625 7.5219C10.2436 7.37634 9.91342 7.2567 9.57524 7.16412C9.38665 7.31797 9.17436 7.44036 8.94659 7.52654C9.34823 7.61445 9.74466 7.72459 10.134 7.85644C10.2039 7.89361 10.5159 7.59159 10.5625 7.5219ZM4.19214 9.31541C5.88717 8.79966 7.67532 8.64168 9.48211 8.14452C8.89216 7.93907 8.26197 7.87539 7.64273 7.95866C6.52582 8.09189 5.42268 8.32198 4.34581 8.64633C3.94534 8.79037 1.86381 9.38046 2.44589 10.2447C2.44589 10.2447 2.79514 9.71965 4.19214 9.31541ZM3.01866 12.2752C3.01866 12.4331 3.10714 12.5772 3.31669 12.7398C3.34187 12.6545 3.3847 12.5753 3.44242 12.5075C3.29806 12.4331 3.15371 12.3495 3.01866 12.2659V12.2752ZM3.81495 12.1915C3.96276 12.1014 4.11866 12.0252 4.28062 11.9639C4.03847 11.8616 3.79167 11.7501 3.54021 11.6293C3.43918 11.695 3.34551 11.7713 3.26081 11.857C3.45173 11.9732 3.64266 12.0847 3.83824 12.1915H3.81495ZM10.3343 8.47441C9.83922 8.69361 9.32476 8.86628 8.79758 8.99016C8.22015 9.13885 6.80918 9.34793 5.30043 9.68712C4.83476 9.79399 3.52158 10.1099 2.88828 10.6675C3.0328 10.7837 3.18883 10.8849 3.35394 10.9695C3.71035 10.7465 4.10023 10.5818 4.50879 10.4817C5.32351 10.2617 6.15079 10.091 6.98614 9.97055C8.09149 9.79159 9.1813 9.5275 10.2458 9.18066C10.5095 9.08858 10.7576 8.95697 10.9816 8.79037C10.786 8.65528 10.573 8.54742 10.3482 8.46976L10.3343 8.47441ZM10.8372 8.15845C10.9991 8.23085 11.1549 8.31632 11.3029 8.41401C11.41 8.20492 11.3448 8.07017 11.1212 7.87502C11.0356 7.97969 10.9388 8.07473 10.8325 8.15845H10.8372ZM2.92087 11.3273C2.77186 11.2344 2.66941 11.174 2.53903 11.0857C2.46918 11.239 2.59956 11.4063 2.73926 11.4899C2.79639 11.432 2.85704 11.3777 2.92087 11.3273ZM10.1713 6.46716C10.1171 6.60094 10.0345 6.72141 9.92915 6.82029C10.1853 6.88999 10.446 6.98756 10.6928 7.08049C10.6602 6.84817 10.3948 6.61585 10.1713 6.46716ZM2.17115 7.96795C3.95465 6.76453 5.91976 6.06293 9.25859 6.65767C9.34838 6.6136 9.42593 6.54816 9.4844 6.46714C9.54287 6.38611 9.58046 6.29197 9.59387 6.19303C8.65982 5.87556 7.6734 5.73991 6.68811 5.79343C5.30865 5.86582 3.96066 6.23178 2.73461 6.86675L3.04195 6.46716C4.2705 5.85545 5.61439 5.50874 6.98614 5.4496C7.87917 5.4083 8.77228 5.52953 9.62181 5.80737C9.51936 5.60293 9.27721 5.50071 8.93262 5.34273C7.79174 4.81769 5.7009 4.77122 3.98725 5.53788C4.21375 5.38455 4.4502 5.2464 4.69506 5.12435C5.52779 4.76109 6.43181 4.58958 7.34004 4.62254C8.33566 4.61914 9.29626 4.98893 10.0316 5.65869C10.1285 5.77348 10.1985 5.90841 10.2365 6.05363C10.6554 6.23831 11.009 6.54425 11.2516 6.9318C11.326 7.09459 11.3487 7.27616 11.3168 7.4522C11.4897 7.55259 11.639 7.68886 11.7546 7.85179C11.8325 7.97317 11.8848 8.10914 11.9082 8.25138C11.9297 8.35364 11.9287 8.45932 11.9054 8.56117C11.8821 8.66302 11.837 8.75864 11.7732 8.84148C11.9406 8.94965 12.063 9.11474 12.1178 9.30612C12.1353 9.52288 12.0976 9.74055 12.008 9.93881C11.9184 10.1371 11.78 10.3094 11.6055 10.4398C11.0238 10.8853 10.3589 11.2107 9.64975 11.397C8.25275 11.7594 7.02339 11.9128 6.04083 12.0986C6.69694 12.2731 7.37352 12.359 8.05251 12.3542C9.42085 12.3122 10.7623 11.9645 11.9781 11.3366L11.8943 11.5829C10.5689 12.3133 9.0822 12.7029 7.56822 12.7166C6.73713 12.6797 5.91482 12.5312 5.12347 12.2752C4.89669 12.3332 4.67543 12.411 4.46223 12.5075C5.39964 12.9489 6.41615 13.1985 7.4518 13.2416C8.83108 13.2706 10.2031 13.0356 11.4938 12.5493C11.4286 12.6144 11.396 12.7166 11.3308 12.7816C10.3901 13.2159 9.38238 13.4877 8.35054 13.5855C7.52178 13.6299 6.69064 13.58 5.8732 13.4368C5.23848 13.3024 4.62241 13.0918 4.03847 12.8095C3.98885 12.8445 3.94707 12.8894 3.9158 12.9414C3.88454 12.9934 3.86446 13.0514 3.85686 13.1115C6.15259 14.3475 8.29932 14.3753 10.7441 13.5762L10.5205 13.7992C9.51086 14.2685 8.40711 14.5016 7.29344 14.4807C6.17977 14.4597 5.08559 14.1853 4.09435 13.6784C4.03774 13.6552 3.98321 13.6272 3.93137 13.5948C4.67749 14.3505 5.66687 14.8194 6.72536 14.919C7.68175 14.9947 8.64338 14.868 9.5473 14.5473L9.14217 14.7656C8.37421 15.1378 7.52049 15.2982 6.66948 15.2303C5.54392 15.1835 4.47352 14.7312 3.65663 13.9572C3.47347 13.7801 3.3526 13.5486 3.31203 13.2974C2.97991 13.1349 2.70062 12.882 2.50643 12.5679C2.42133 12.4068 2.39499 12.2212 2.43192 12.0428C2.44148 11.9906 2.4555 11.9393 2.47383 11.8895C2.303 11.7768 2.15459 11.6334 2.03611 11.4667C1.97345 11.3457 1.94511 11.2099 1.95414 11.0739C1.96317 10.938 2.00922 10.8071 2.08733 10.6954C1.99193 10.5853 1.91631 10.4595 1.86381 10.3237C1.82343 10.1866 1.81077 10.0429 1.82656 9.90086C1.86642 9.64182 1.98321 9.40067 2.16184 9.20854C2.68545 8.6743 3.34577 8.29344 4.07107 8.10734C4.74449 7.88017 5.43202 7.69702 6.12931 7.55907C7.03667 7.41985 7.93531 7.22903 8.82086 6.98756C7.65557 6.75389 6.45504 6.75689 5.29094 6.99638C4.12684 7.23588 3.02304 7.70695 2.04542 8.38148L2.17115 7.96795Z" fill="#7E91B4"/>
<path d="M22.7117 8.68812L22.9771 10.6071H22.4416L22.7117 8.68812ZM20.6069 13.079H22.0458L22.2181 11.9917H23.2053L23.3776 13.079H24.8165L23.6011 6.78774H21.8223L20.6069 13.079Z" fill="#7E91B4"/>
<path d="M26.1716 9.22244C26.2549 9.22492 26.3379 9.21083 26.4157 9.18099C26.4935 9.15116 26.5646 9.10618 26.6249 9.04867C26.6851 8.99116 26.7333 8.92227 26.7666 8.84601C26.7999 8.76975 26.8177 8.68765 26.8189 8.60447C26.822 8.52372 26.8077 8.44325 26.7768 8.36853C26.746 8.2938 26.6994 8.22659 26.6402 8.17147C26.5809 8.11635 26.5105 8.07461 26.4337 8.04911C26.3568 8.0236 26.2754 8.01493 26.1949 8.02367C25.9256 8.02287 25.6596 8.08325 25.4172 8.20023V6.83884C25.8201 6.72562 26.2373 6.67085 26.6559 6.67621C26.8764 6.66497 27.0968 6.69986 27.3029 6.77866C27.5091 6.85745 27.6965 6.97839 27.8531 7.13373C28.0096 7.28906 28.1319 7.47534 28.212 7.68062C28.2921 7.88589 28.3283 8.10562 28.3183 8.32569C28.3339 8.6287 28.259 8.92951 28.1032 9.19005C27.9473 9.45059 27.7175 9.65914 27.4428 9.7893V9.85435C27.7489 9.96184 28.0101 10.1685 28.1848 10.4413C28.3595 10.7142 28.4377 11.0375 28.4068 11.3598C28.4251 11.6057 28.3905 11.8528 28.3055 12.0843C28.2204 12.3159 28.0868 12.5267 27.9136 12.7026C27.7404 12.8786 27.5315 13.0156 27.3009 13.1045C27.0704 13.1934 26.8235 13.2323 26.5767 13.2184C26.107 13.2415 25.6407 13.1268 25.2356 12.8885V11.5828C25.5271 11.7173 25.8459 11.7825 26.1669 11.7733C26.2489 11.7784 26.331 11.7667 26.4083 11.7388C26.4855 11.711 26.5562 11.6676 26.616 11.6115C26.6758 11.5553 26.7234 11.4875 26.7559 11.4122C26.7884 11.337 26.805 11.2559 26.8049 11.1739C26.8049 10.8208 26.586 10.5838 26.1064 10.5838H25.5662V9.23638L26.1716 9.22244Z" fill="#7E91B4"/>
<path d="M29.0727 6.78774H32.933V13.079H31.5221V8.29782H30.4883V13.079H29.0727V6.78774Z" fill="#7E91B4"/>
<path d="M35.1589 8.17237H35.4942C35.8155 8.17237 36.0158 8.36752 36.0158 8.89256C36.0158 9.57094 35.6805 9.6174 35.4942 9.6174H35.1589V8.17237ZM33.7619 13.079H35.1589V11.002H35.6246C37.0216 11.002 37.4593 9.70568 37.4593 8.87862C37.4593 8.05156 36.9657 6.78774 35.6246 6.78774H33.7433L33.7619 13.079Z" fill="#7E91B4"/>
<path d="M40.0857 11.634C39.5874 11.634 39.3313 11.0346 39.3313 9.92408C39.3313 8.81359 39.5874 8.21421 40.0857 8.21421C40.5839 8.21421 40.8447 8.81359 40.8447 9.92408C40.8447 11.0346 40.5839 11.634 40.0857 11.634ZM40.0857 13.1533C41.7667 13.1533 42.3302 11.541 42.3302 9.90085C42.3302 8.26067 41.7667 6.6716 40.0857 6.6716C38.4046 6.6716 37.8458 8.28855 37.8458 9.92408C37.8458 11.5596 38.4093 13.1533 40.0857 13.1533Z" fill="#7E91B4"/>
<path d="M49.8786 11.8198V10.3887H50.0882C50.2512 10.3887 50.6982 10.3887 50.6982 11.0438C50.6982 11.699 50.2325 11.8198 50.0882 11.8198H49.8786ZM48.4816 13.079H50.172C50.5352 13.079 52.0673 12.921 52.0673 11.016C52.0673 9.40831 50.8845 9.12953 50.1161 9.12953H49.8647V8.29318H51.7273V6.78774H48.4677L48.4816 13.079Z" fill="#7E91B4"/>
<path d="M57.1756 6.78774H58.5633V9.05054H59.5505V6.78774H60.9382V13.079H59.5505V10.5606H58.5633V13.079H57.1756V6.78774Z" fill="#7E91B4"/>
<path d="M61.8649 6.78774H63.2526L63.2479 9.05054H63.5506L64.3422 6.78774H65.851L64.7706 9.77073L66 13.079H64.3702L63.5785 10.5467H63.2479L63.2526 13.079H61.8649V6.78774Z" fill="#7E91B4"/>
<path d="M17.8688 6.78774H20.7699V8.35358H19.3077V13.079H17.8688V6.78774Z" fill="#7E91B4"/>
<path d="M43.0101 6.78774H44.2115L45.2732 8.26994L46.3396 6.78774H47.541V13.079H46.1254V9.24104L45.2732 10.3422L44.4257 9.24104V13.079H43.0101V6.78774Z" fill="#7E91B4"/>
<path d="M54.4841 8.69737L54.7495 10.6163H54.214L54.4841 8.69737ZM52.3793 13.0882H53.8182L53.9905 12.001H54.9497L55.122 13.0882H56.5609L55.3549 6.79699H53.576L52.3793 13.0882Z" fill="#7E91B4"/>
</svg>
