<svg width="120" height="36" viewBox="0 0 120 36" fill="none" xmlns="http://www.w3.org/2000/svg">
<path fill-rule="evenodd" clip-rule="evenodd" d="M0.441761 18.0691C0.391963 14.7738 1.6552 11.5935 3.95395 9.22693C6.2527 6.86037 9.39895 5.5011 12.7015 5.44774C15.9936 5.51656 19.1247 6.88261 21.4107 9.24748C23.6967 11.6123 24.9519 14.7838 24.9019 18.0691C24.9519 21.3543 23.6967 24.5258 21.4107 26.8907C19.1247 29.2555 15.9936 30.6216 12.7015 30.6904C11.0659 30.6651 9.45129 30.3185 7.94995 29.6705C6.4486 29.0225 5.08989 28.0857 3.95144 26.9137C2.81298 25.7416 1.91706 24.3573 1.31487 22.8397C0.712672 21.3221 0.415988 19.7011 0.441761 18.0691ZM0.00149535 18.0691C-0.050555 21.4824 1.25807 24.7765 3.63962 27.2273C6.02118 29.6781 9.28069 31.0848 12.7015 31.1382C16.1215 31.0826 19.3797 29.6751 21.7608 27.2249C24.1419 24.7746 25.4513 21.4817 25.4015 18.0691C25.4513 14.6565 24.1419 11.3636 21.7608 8.91328C19.3797 6.46301 16.1215 5.05559 12.7015 5C9.28069 5.05336 6.02118 6.46008 3.63962 8.91085C1.25807 11.3616 -0.050555 14.6558 0.00149535 18.0691Z" fill="#7E91B4"/>
<path fill-rule="evenodd" clip-rule="evenodd" d="M20.7285 16.7428C20.6353 16.8273 20.5337 16.9033 20.4152 16.9962C19.4044 17.6778 18.272 18.1596 17.0793 18.4155C13.8959 19.2603 11.5929 19.4293 8.95981 20.1051C8.43607 20.236 7.92363 20.4083 7.42734 20.6204C7.91841 20.8654 8.44334 21.1104 8.98521 21.3216C10.0083 21.0068 11.0522 20.764 12.1094 20.5951C12.7021 20.4853 14.5139 20.1643 15.8263 19.877C18.1885 19.3532 21.6513 18.1874 20.7285 16.7513V16.7428ZM19.2045 13.6762C18.6247 13.4115 18.0244 13.194 17.4095 13.0257C17.0666 13.3054 16.6807 13.5279 16.2665 13.6846C16.9968 13.8445 17.7176 14.0447 18.4255 14.2844C18.5525 14.352 19.1198 13.8029 19.2045 13.6762ZM7.62208 16.9371C10.7039 15.9994 13.9551 15.7122 17.2402 14.8082C16.1676 14.4347 15.0218 14.3189 13.8959 14.4703C11.8651 14.7125 9.85941 15.1309 7.90148 15.7206C7.17334 15.9825 3.38875 17.0554 4.44708 18.6267C4.44708 18.6267 5.08208 17.6721 7.62208 16.9371ZM5.48848 22.3185C5.48848 22.6057 5.64934 22.8676 6.03034 23.1633C6.07612 23.0081 6.154 22.8642 6.25894 22.7409C5.99648 22.6057 5.73401 22.4537 5.48848 22.3016V22.3185ZM6.93628 22.1664C7.20503 22.0026 7.48847 21.864 7.78294 21.7525C7.34268 21.5666 6.89394 21.3639 6.43674 21.1442C6.25306 21.2637 6.08275 21.4025 5.92874 21.5582C6.27588 21.7694 6.62301 21.9721 6.97861 22.1664H6.93628ZM18.7896 15.408C17.8895 15.8066 16.9541 16.1205 15.9956 16.3458C14.9457 16.6161 12.3803 16.9962 9.63714 17.613C8.79047 17.8073 6.40288 18.3817 5.25141 19.3955C5.51418 19.6068 5.79787 19.7908 6.09808 19.9446C6.7461 19.5391 7.45497 19.2396 8.19781 19.0576C9.6791 18.6576 11.1833 18.3472 12.7021 18.1283C14.7118 17.8029 16.6933 17.3227 18.6287 16.6921C19.1081 16.5247 19.5592 16.2854 19.9665 15.9825C19.611 15.7369 19.2236 15.5408 18.815 15.3996L18.7896 15.408ZM19.704 14.8336C19.9984 14.9652 20.2816 15.1206 20.5507 15.2982C20.7454 14.918 20.6269 14.673 20.2205 14.3182C20.0648 14.5085 19.8888 14.6813 19.6955 14.8336H19.704ZM5.31068 20.5951C5.03975 20.4261 4.85348 20.3163 4.61641 20.1558C4.48941 20.4346 4.72648 20.7387 4.98048 20.8908C5.08435 20.7855 5.19462 20.6868 5.31068 20.5951ZM18.4933 11.7585C18.3947 12.0017 18.2445 12.2208 18.053 12.4005C18.5187 12.5272 18.9928 12.7047 19.4415 12.8736C19.3823 12.4512 18.8997 12.0288 18.4933 11.7585ZM3.94755 14.4872C7.19028 12.2992 10.7632 11.0235 16.8338 12.1048C16.9971 12.0247 17.1381 11.9058 17.2444 11.7584C17.3507 11.6111 17.419 11.4399 17.4434 11.26C15.7451 10.6828 13.9516 10.4362 12.1602 10.5335C9.65209 10.6651 7.2012 11.3305 4.97201 12.485L5.53081 11.7585C7.76455 10.6463 10.208 10.0159 12.7021 9.90837C14.3258 9.83327 15.9496 10.0537 17.4942 10.5589C17.3079 10.1871 16.8677 10.0013 16.2411 9.71406C14.1668 8.75944 10.3653 8.67496 7.24954 10.0689C7.66136 9.79009 8.09128 9.53891 8.53647 9.317C10.0505 8.65653 11.6942 8.34469 13.3455 8.40462C15.1558 8.39843 16.9023 9.07079 18.2393 10.2885C18.4155 10.4972 18.5427 10.7426 18.6118 11.0066C19.3734 11.3424 20.0164 11.8986 20.4575 12.6033C20.5927 12.8993 20.6341 13.2294 20.5761 13.5495C20.8904 13.732 21.1618 13.9797 21.3719 14.276C21.5136 14.4967 21.6087 14.7439 21.6513 15.0025C21.6903 15.1884 21.6885 15.3806 21.6462 15.5658C21.6038 15.7509 21.5218 15.9248 21.4058 16.0754C21.7102 16.2721 21.9328 16.5722 22.0323 16.9202C22.0643 17.3143 21.9956 17.7101 21.8327 18.0706C21.6699 18.431 21.4181 18.7444 21.101 18.9815C20.0432 19.7914 18.8344 20.383 17.545 20.7218C15.005 21.3808 12.7698 21.6596 10.9833 21.9975C12.1763 22.3147 13.4064 22.471 14.6409 22.4621C17.1288 22.3859 19.5678 21.7537 21.7783 20.612L21.6259 21.0597C19.2163 22.3878 16.5131 23.0962 13.7604 23.1211C12.2493 23.0539 10.7542 22.784 9.31541 22.3185C8.90307 22.424 8.50078 22.5654 8.11314 22.7409C9.81752 23.5435 11.6657 23.9973 13.5487 24.0757C16.0565 24.1284 18.5512 23.7011 20.8978 22.8169C20.7793 22.9352 20.72 23.1211 20.6015 23.2393C18.8911 24.0289 17.0589 24.5231 15.1828 24.7008C13.676 24.7816 12.1648 24.6909 10.6785 24.4305C9.5245 24.1862 8.40439 23.8032 7.34268 23.29C7.25245 23.3537 7.17649 23.4354 7.11964 23.5299C7.06279 23.6244 7.0263 23.7298 7.01248 23.8391C11.1865 26.0863 15.0897 26.137 19.5347 24.6839L19.1283 25.0894C17.2925 25.9428 15.2857 26.3666 13.2608 26.3285C11.2359 26.2905 9.24654 25.7915 7.44428 24.8698C7.34134 24.8276 7.24221 24.7767 7.14794 24.7177C8.50452 26.0918 10.3034 26.9444 12.2279 27.1254C13.9668 27.2631 15.7152 27.0328 17.3587 26.4496L16.6221 26.8466C15.2258 27.5232 13.6736 27.8149 12.1263 27.6914C10.0799 27.6064 8.13366 26.784 6.64841 25.3767C6.3154 25.0547 6.09564 24.6339 6.02188 24.1771C5.41801 23.8817 4.91021 23.4219 4.55715 22.8507C4.40242 22.5578 4.35453 22.2204 4.42168 21.8961C4.43905 21.8012 4.46455 21.7079 4.49788 21.6173C4.18727 21.4123 3.91743 21.1517 3.70201 20.8485C3.5881 20.6285 3.53657 20.3816 3.55298 20.1344C3.56939 19.8873 3.65313 19.6493 3.79515 19.4462C3.62168 19.2459 3.48419 19.0173 3.38875 18.7703C3.31533 18.5211 3.29231 18.2598 3.32102 18.0016C3.39348 17.5306 3.60583 17.0921 3.93061 16.7428C4.88263 15.7715 6.08322 15.079 7.40194 14.7406C8.62634 14.3276 9.87641 13.9946 11.1442 13.7438C12.7939 13.4906 14.4278 13.1437 16.0379 12.7047C13.9192 12.2798 11.7364 12.2853 9.6199 12.7207C7.50335 13.1561 5.49643 14.0126 3.71895 15.2391L3.94755 14.4872Z" fill="#7E91B4"/>
<path d="M41.294 15.7966L41.7766 19.2856H40.8029L41.294 15.7966ZM37.467 23.78H40.0832L40.3965 21.8031H42.1914L42.5047 23.78H45.1209L42.9111 12.3413H39.6768L37.467 23.78Z" fill="#7E91B4"/>
<path d="M47.5847 16.7681C47.7362 16.7726 47.8871 16.747 48.0286 16.6927C48.1701 16.6385 48.2994 16.5567 48.4089 16.4521C48.5184 16.3476 48.606 16.2223 48.6665 16.0837C48.7271 15.945 48.7594 15.7957 48.7616 15.6445C48.7673 15.4977 48.7412 15.3514 48.6852 15.2155C48.6291 15.0796 48.5443 14.9574 48.4367 14.8572C48.329 14.757 48.2009 14.6811 48.0612 14.6347C47.9215 14.5884 47.7734 14.5726 47.627 14.5885C47.1374 14.587 46.6539 14.6968 46.2131 14.9095V12.4342C46.9457 12.2284 47.7042 12.1288 48.4652 12.1386C48.8661 12.1181 49.2669 12.1816 49.6417 12.3248C50.0166 12.4681 50.3573 12.688 50.6419 12.9704C50.9266 13.2528 51.1489 13.5915 51.2945 13.9648C51.4402 14.338 51.506 14.7375 51.4878 15.1376C51.5161 15.6885 51.38 16.2355 51.0967 16.7092C50.8133 17.1829 50.3955 17.5621 49.8961 17.7987V17.917C50.4526 18.1124 50.9275 18.4881 51.2451 18.9842C51.5628 19.4803 51.7048 20.0682 51.6487 20.6542C51.6819 21.1014 51.6191 21.5505 51.4645 21.9715C51.3099 22.3926 51.0669 22.7758 50.752 23.0957C50.437 23.4156 50.0573 23.6647 49.6381 23.8264C49.2189 23.9881 48.77 24.0586 48.3213 24.0334C47.4672 24.0754 46.6195 23.8669 45.8829 23.4336V21.0597C46.4129 21.3042 46.9925 21.4228 47.5762 21.406C47.7252 21.4153 47.8746 21.3939 48.015 21.3433C48.1554 21.2927 48.284 21.2139 48.3927 21.1118C48.5014 21.0096 48.588 20.8863 48.647 20.7495C48.7061 20.6127 48.7364 20.4652 48.7362 20.3162C48.7362 19.6742 48.3382 19.2433 47.4662 19.2433H46.484V16.7934L47.5847 16.7681Z" fill="#7E91B4"/>
<path d="M52.8594 12.3413H59.8783V23.78H57.3129V15.087H55.4333V23.78H52.8594V12.3413Z" fill="#7E91B4"/>
<path d="M63.9253 14.8589H64.5349C65.1191 14.8589 65.4832 15.2137 65.4832 16.1683C65.4832 17.4017 64.8736 17.4862 64.5349 17.4862H63.9253V14.8589ZM61.3853 23.78H63.9253V20.0037H64.772C67.312 20.0037 68.1079 17.6467 68.1079 16.143C68.1079 14.6392 67.2104 12.3413 64.772 12.3413H61.3515L61.3853 23.78Z" fill="#7E91B4"/>
<path d="M72.8831 21.1527C71.9771 21.1527 71.5115 20.0629 71.5115 18.0438C71.5115 16.0247 71.9771 14.9349 72.8831 14.9349C73.789 14.9349 74.2631 16.0247 74.2631 18.0438C74.2631 20.0629 73.789 21.1527 72.8831 21.1527ZM72.8831 23.9152C75.9395 23.9152 76.964 20.9837 76.964 18.0016C76.964 15.0194 75.9395 12.1302 72.8831 12.1302C69.8266 12.1302 68.8106 15.0701 68.8106 18.0438C68.8106 21.0175 69.8351 23.9152 72.8831 23.9152Z" fill="#7E91B4"/>
<path d="M90.6884 21.4905V18.8886H91.0694C91.3658 18.8886 92.1786 18.8886 92.1786 20.0797C92.1786 21.2709 91.3319 21.4905 91.0694 21.4905H90.6884ZM88.1484 23.78H91.2218C91.8822 23.78 94.6677 23.4927 94.6677 20.029C94.6677 17.106 92.5172 16.5991 91.1202 16.5991H90.663V15.0785H94.0497V12.3413H88.123L88.1484 23.78Z" fill="#7E91B4"/>
<path d="M103.956 12.3413H106.479V16.4555H108.274V12.3413H110.797V23.78H108.274V19.2011H106.479V23.78H103.956V12.3413Z" fill="#7E91B4"/>
<path d="M112.482 12.3413H115.005L114.996 16.4555H115.547L116.986 12.3413H119.729L117.765 17.765L120 23.78H117.037L115.597 19.1758H114.996L115.005 23.78H112.482V12.3413Z" fill="#7E91B4"/>
<path d="M32.4887 12.3413H37.7634V15.1883H35.1048V23.78H32.4887V12.3413Z" fill="#7E91B4"/>
<path d="M78.2001 12.3413H80.3845L82.3149 15.0363L84.2538 12.3413H86.4382V23.78H83.8643V16.8019L82.3149 18.8041L80.774 16.8019V23.78H78.2001V12.3413Z" fill="#7E91B4"/>
<path d="M99.062 15.8134L99.5446 19.3024H98.5709L99.062 15.8134ZM95.235 23.7968H97.8512L98.1645 21.82H99.9086L100.222 23.7968H102.838L100.645 12.3582H97.411L95.235 23.7968Z" fill="#7E91B4"/>
</svg>
