<svg width="120" height="36" viewBox="0 0 120 36" fill="none" xmlns="http://www.w3.org/2000/svg">
<path d="M60.0763 0.453558C60.6782 0.453558 61.2633 0.444889 61.8468 0.463853C61.9313 0.463853 62.0314 0.589015 62.0909 0.677875C63.1763 2.30625 64.2603 3.93642 65.3428 5.56841C65.4116 5.67189 65.4852 5.77213 65.5832 5.91084C65.6687 5.78947 65.7353 5.69899 65.7997 5.60579C66.8817 3.96731 67.9718 2.32991 69.05 0.687086C69.1701 0.503406 69.2984 0.441096 69.5084 0.44814C69.9414 0.462227 70.3744 0.464395 70.8074 0.44814C71.0359 0.439471 71.0997 0.516952 71.0981 0.739101C71.09 2.14785 71.0943 3.5566 71.0943 4.96535C71.0943 6.75338 71.0894 8.54141 71.0992 10.3294C71.0992 10.5939 71.0413 10.6935 70.7555 10.6827C70.1428 10.6594 69.529 10.6637 68.9152 10.6827C68.6565 10.6903 68.5753 10.6155 68.5774 10.3511C68.5893 8.90714 68.5834 7.46263 68.5823 6.0165C68.587 5.89077 68.5609 5.7658 68.5065 5.65239C68.4481 5.73475 68.3864 5.81494 68.3317 5.89946C67.6887 6.89064 67.0473 7.88273 66.4075 8.87572C66.3198 9.01334 66.2235 9.07511 66.0595 9.06969C65.7439 9.05994 65.4278 9.05886 65.1128 9.06969C64.9374 9.07619 64.8357 9.00738 64.7426 8.86163C64.1223 7.88634 63.4939 6.92026 62.8671 5.95039C62.7959 5.82607 62.6988 5.71852 62.5824 5.63505V10.6572H60.0763V0.453558Z" fill="#7E91B4"/>
<path d="M53.7517 10.6469C56.1582 8.59175 55.6505 5.44807 54.0435 3.91849C52.3628 2.31848 49.7133 2.24317 47.9764 3.81013C46.9572 4.73124 46.4511 5.88858 46.4858 7.26915C46.5204 8.63835 47.1202 9.73718 48.1772 10.6583C48.0338 10.6648 47.9477 10.6724 47.8617 10.6724C46.9145 10.6724 45.9673 10.6659 45.02 10.6778C44.7938 10.681 44.6666 10.6106 44.5513 10.4112C42.6499 7.12123 43.7329 3.04236 47.0622 1.05873C50.3499 -0.89889 54.8018 -0.108364 57.0762 3.15343C58.5619 5.2839 58.661 8.30838 57.2786 10.4876C57.2245 10.571 57.1048 10.6632 57.015 10.6637C55.9417 10.6756 54.8678 10.6707 53.7945 10.6691C53.7804 10.6691 53.7663 10.6545 53.7517 10.6469Z" fill="#7E91B4"/>
<path d="M39.734 30.7178C39.8266 30.7568 39.8818 30.7839 39.9392 30.804C41.2263 31.258 41.6636 32.4836 41.4839 33.5781C41.2837 34.7994 40.4615 35.5964 39.1229 35.8495C38.5627 35.9578 37.9793 35.9643 37.4055 35.9703C35.963 35.9865 34.5195 35.9757 33.0754 35.9757H32.736V25.7655C32.8372 25.7595 32.9249 25.7498 33.0126 25.7498C34.6267 25.7498 36.2418 25.7346 37.8553 25.7633C38.7711 25.7796 39.6382 25.9963 40.3408 26.6519C41.4894 27.7231 41.2523 29.9387 39.8304 30.6457C39.7969 30.6679 39.7648 30.692 39.734 30.7178ZM35.2356 33.8642C35.2668 33.8811 35.3001 33.8936 35.3346 33.9016C36.2158 33.8945 37.0986 33.9103 37.9782 33.8658C38.389 33.8452 38.7635 33.6561 38.9595 33.246C39.2685 32.5985 38.8588 31.9228 38.0534 31.8632C37.176 31.7982 36.2921 31.8188 35.411 31.8134C35.3525 31.8134 35.2442 31.9055 35.2432 31.9559C35.2318 32.5931 35.2356 33.2313 35.2356 33.8642ZM35.247 29.963C36.0118 29.963 36.7495 29.9836 37.4845 29.9517C37.7232 29.9414 37.9782 29.8308 38.1882 29.7024C38.6878 29.3963 38.8236 28.7271 38.4983 28.2861C38.2791 27.9886 37.9527 27.8624 37.6042 27.8488C36.8751 27.8207 36.1427 27.825 35.4147 27.8185C35.3584 27.8233 35.3028 27.8339 35.2486 27.8499L35.247 29.963Z" fill="#7E91B4"/>
<path d="M60.5922 31.4309V25.7488H61.8328C62.1754 25.7488 62.518 25.7553 62.8612 25.7488C63.0263 25.745 63.088 25.8094 63.0836 25.9704C63.0777 26.1958 63.0836 26.4217 63.0836 26.6476C63.0836 29.6356 63.0836 32.624 63.0836 35.6127C63.0836 35.9991 63.075 36.0012 62.6901 35.9953C62.2669 35.9882 61.8431 35.9871 61.4198 35.9953C61.3312 36.0011 61.2425 35.9852 61.1614 35.949C61.0803 35.9129 61.0092 35.8575 60.9543 35.7877C59.4644 34.0701 57.9699 32.3567 56.471 30.6474C56.4131 30.5813 56.3498 30.5195 56.2404 30.4047C56.2274 30.5721 56.2112 30.6816 56.2112 30.7905C56.2112 32.4067 56.2036 34.0225 56.2161 35.6387C56.2161 35.9145 56.1381 35.9936 55.8648 35.985C55.2434 35.9649 54.6199 35.9633 53.9985 35.985C53.7187 35.9953 53.697 35.8663 53.697 35.6458C53.7017 32.8015 53.7028 29.9575 53.7003 27.1136C53.7003 26.7435 53.7062 26.3735 53.7003 26.0034C53.6965 25.823 53.7506 25.7439 53.946 25.7482C54.4418 25.759 54.9381 25.7417 55.4334 25.7596C55.5616 25.772 55.6806 25.8317 55.7674 25.927C57.3031 27.7125 58.8338 29.502 60.3594 31.2954C60.4103 31.355 60.4509 31.4239 60.4964 31.4883L60.5922 31.4309Z" fill="#7E91B4"/>
<path d="M64.0097 23.3408V23.0276C64.0097 19.8308 64.0141 16.634 64.0022 13.4416C64.0022 13.1539 64.0909 13.097 64.3518 13.1002C65.8214 13.1187 67.2952 13.0536 68.7593 13.1441C71.1193 13.2904 73.109 14.7696 73.5328 17.1813C74.0323 20.0248 72.5168 22.5205 69.5696 23.1685C69.0468 23.2834 68.499 23.3207 67.9621 23.331C66.754 23.3543 65.5453 23.3381 64.3356 23.3381L64.0097 23.3408ZM66.5299 18.2129C66.5299 19.0799 66.5299 19.9459 66.5299 20.811C66.5299 20.9448 66.5299 21.0754 66.7161 21.0684C67.4165 21.0413 68.1315 21.0944 68.8135 20.9676C70.099 20.7292 71.0592 19.677 71.0814 18.1902C71.1019 16.8389 70.1071 15.6566 68.748 15.4453C68.1131 15.3467 67.4554 15.403 66.8086 15.3716C66.5721 15.3602 66.5239 15.455 66.5261 15.6691C66.5337 16.5165 66.5299 17.365 66.5299 18.2129Z" fill="#7E91B4"/>
<path d="M46.4376 20.3641V23.3224H43.9364C43.9304 23.2314 43.9191 23.1366 43.9191 23.0412C43.9191 19.8358 43.9171 16.6303 43.9131 13.4249C43.9131 13.1762 43.984 13.0998 44.2319 13.103C45.8097 13.1198 47.3897 13.0803 48.9658 13.1447C50.1896 13.1946 51.2743 13.6481 52.012 14.6933C52.9863 16.0728 52.818 18.3988 51.1872 19.5475C51.0989 19.6093 51.0118 19.6727 50.8835 19.7642C51.2808 20.3559 51.6754 20.9427 52.0683 21.5301C52.4613 22.1174 52.8553 22.7075 53.2786 23.3414C52.4445 23.3414 51.6705 23.3138 50.8997 23.3522C50.4781 23.3734 50.2362 23.2395 50.0196 22.8787C49.5509 22.0984 49.0275 21.3507 48.5377 20.583C48.4982 20.5087 48.4375 20.4479 48.3634 20.4082C48.2893 20.3686 48.2051 20.3519 48.1214 20.3603C47.5737 20.3727 47.0259 20.3641 46.4376 20.3641ZM46.45 18.064C46.5216 18.0769 46.5939 18.0855 46.6665 18.09C47.3058 18.0857 47.9461 18.0949 48.5842 18.0651C48.8255 18.047 49.0613 17.9843 49.2797 17.8803C49.9704 17.5661 50.2697 16.8313 49.9774 16.2006C49.7539 15.7184 49.3431 15.4312 48.8408 15.3879C48.063 15.324 47.2781 15.3451 46.496 15.3337C46.483 15.3337 46.4695 15.3548 46.4506 15.3711L46.45 18.064Z" fill="#7E91B4"/>
<path d="M35.1263 10.6594H32.6289V0.468686H35.1155V4.5584C35.2237 4.56436 35.3109 4.57303 35.3964 4.57303C36.605 4.57303 37.8131 4.56652 39.0229 4.57953C39.2686 4.57953 39.3287 4.49988 39.327 4.27177C39.32 3.1166 39.327 1.96088 39.327 0.804077V0.452431H40.5086C40.8691 0.452431 41.2301 0.458933 41.5912 0.452431C41.7535 0.448097 41.825 0.506614 41.8131 0.669162C41.8093 0.723345 41.8131 0.777528 41.8131 0.83171V10.2812C41.8131 10.6718 41.8131 10.6724 41.4115 10.6724H39.3249V10.3532C39.3249 9.2788 39.3184 8.20489 39.3298 7.13045C39.3298 6.89584 39.2675 6.81836 39.0266 6.82053C37.8272 6.83136 36.6278 6.83136 35.4283 6.82053C35.1967 6.82053 35.1171 6.87471 35.1203 7.12178C35.1339 8.19568 35.1263 9.27013 35.1263 10.344V10.6594Z" fill="#7E91B4"/>
<path d="M65.2638 25.7666H67.7612V30.3494L67.8727 30.4344C67.9176 30.3494 67.9485 30.2524 68.0097 30.1814C69.2264 28.7759 70.4443 27.3715 71.6632 25.9681C71.7191 25.8941 71.7923 25.8349 71.8764 25.7958C71.9605 25.7567 72.0529 25.7389 72.1455 25.7438C72.9395 25.7563 73.733 25.7487 74.527 25.7487H74.8458C74.4431 26.2157 74.0816 26.6373 73.7173 27.0572C72.8513 28.052 71.9923 29.0484 71.1192 30.0373C70.9855 30.1884 70.9839 30.2854 71.1041 30.448C72.3713 32.1594 73.6332 33.8752 74.8897 35.5953C74.9692 35.7037 75.0472 35.8121 75.1462 35.9508C75.0746 35.9631 75.0023 35.9716 74.9297 35.9762C74.0366 35.9762 73.1436 35.9714 72.2505 35.9822C72.0621 35.9822 71.9576 35.9112 71.8553 35.7655C71.0774 34.6681 70.2958 33.574 69.5106 32.4831C69.4435 32.3883 69.372 32.2967 69.2816 32.1753C69.2004 32.2609 69.1322 32.3259 69.0711 32.3969C68.7052 32.8201 68.3496 33.253 67.9712 33.6648C67.8975 33.7417 67.8407 33.8332 67.8045 33.9335C67.7682 34.0337 67.7533 34.1404 67.7607 34.2467C67.7737 34.8059 67.765 35.3651 67.765 35.9502H65.2644L65.2638 25.7666Z" fill="#7E91B4"/>
<path d="M54.5647 18.2201C54.5647 16.6314 54.5706 15.0428 54.5587 13.452C54.5587 13.1811 54.6367 13.0987 54.9105 13.0998C57.2456 13.1096 59.5811 13.1052 61.9161 13.1058C62.269 13.1058 62.2695 13.1058 62.2701 13.471C62.2701 13.9765 62.2614 14.482 62.2744 14.9881C62.2804 15.2108 62.2095 15.2828 61.9832 15.2812C60.459 15.2725 58.9354 15.2769 57.4117 15.2769C57.0588 15.2769 57.0583 15.2769 57.0577 15.6394C57.0577 16.0457 57.0761 16.4521 57.0512 16.8574C57.0339 17.144 57.1411 17.2025 57.4063 17.1998C58.7053 17.1868 60.0044 17.1998 61.3034 17.1884C61.5459 17.1884 61.6374 17.2464 61.6282 17.5011C61.6108 18.0055 61.613 18.5121 61.6282 19.0182C61.6346 19.2571 61.574 19.3433 61.3137 19.3433C59.9973 19.3297 58.681 19.3433 57.3625 19.3319C57.127 19.3319 57.0431 19.3948 57.0534 19.6364C57.0707 20.0509 57.068 20.467 57.0534 20.8826C57.0464 21.0993 57.1259 21.1584 57.3354 21.1573C58.8683 21.1503 60.4011 21.1622 61.9361 21.1459C62.2246 21.1427 62.2858 21.237 62.2771 21.4981C62.2603 22.0215 62.2663 22.5455 62.2771 23.0694C62.2804 23.2699 62.2311 23.3506 62.0065 23.3501C59.617 23.3414 57.2275 23.3414 54.838 23.3501C54.5869 23.3501 54.5674 23.2417 54.5674 23.0434C54.5668 21.4336 54.5647 19.8266 54.5647 18.2201Z" fill="#7E91B4"/>
<path d="M75.7481 2.64625V3.83014C75.7481 4.54643 75.7481 4.54643 76.4517 4.54643C77.6247 4.54643 78.7976 4.55185 79.97 4.5421C80.2119 4.5421 80.3061 4.6082 80.298 4.86232C80.2812 5.3673 80.2817 5.87391 80.298 6.37944C80.3055 6.62434 80.2119 6.68557 79.9824 6.68448C78.7288 6.67582 77.4747 6.67852 76.2206 6.68123C75.6961 6.68123 75.7514 6.63355 75.7476 7.16888C75.7476 7.51185 75.7595 7.85591 75.7427 8.19835C75.7313 8.43513 75.8141 8.50936 76.0512 8.50773C77.5668 8.49906 79.0823 8.5034 80.5978 8.5034C80.9697 8.5034 80.9697 8.5034 80.9702 8.86425V10.6572H73.2756V0.475146H80.9729C80.9632 0.687542 80.9453 0.891269 80.9464 1.095C80.9493 1.51004 80.958 1.92544 80.9724 2.3412C80.98 2.56281 80.9085 2.65546 80.6633 2.65383C79.1478 2.64354 77.6322 2.64841 76.1167 2.64841L75.7481 2.64625Z" fill="#7E91B4"/>
<path d="M42.3933 16.7576H41.3243C40.8734 16.7576 40.422 16.7674 39.9711 16.75C39.8677 16.7457 39.7178 16.6742 39.674 16.5902C39.1251 15.5277 38.0891 15.15 36.9882 15.2871C35.8066 15.4345 34.9281 16.2201 34.6532 17.3563C34.3863 18.4568 34.5601 19.4743 35.3438 20.3315C36.4534 21.5447 38.894 21.5035 39.6826 19.826C39.7029 19.7894 39.7312 19.758 39.7655 19.7341C39.7997 19.7101 39.8389 19.6943 39.8802 19.6878C40.7088 19.6786 41.5381 19.6819 42.3954 19.6819C42.3897 19.7641 42.3789 19.8459 42.363 19.9268C42.1139 20.852 41.5952 21.6819 40.8729 22.3107C40.1507 22.9396 39.2576 23.3387 38.3078 23.4573C36.9655 23.6275 35.6767 23.4752 34.5043 22.7611C32.7588 21.6996 31.968 20.1018 32.001 18.0883C32.0313 16.2835 32.7669 14.8222 34.2819 13.8079C36.2364 12.4967 39.0656 12.6159 40.8084 14.0647C41.59 14.7149 42.0826 15.5488 42.3646 16.516C42.3803 16.5957 42.3899 16.6764 42.3933 16.7576Z" fill="#7E91B4"/>
<path d="M41.7096 35.9556C41.8644 35.585 42.01 35.2296 42.1605 34.8763C43.4097 31.9342 44.6579 28.9913 45.905 26.0478C45.9997 25.8235 46.1042 25.7335 46.3553 25.7422C46.9767 25.7628 47.6002 25.7541 48.221 25.7454C48.3959 25.7454 48.4917 25.7871 48.5664 25.9622C49.9397 29.2236 51.3178 32.4831 52.7005 35.7405C52.7276 35.805 52.7471 35.8727 52.7823 35.9741C52.6497 35.9811 52.5457 35.9914 52.4418 35.9919C51.7755 35.9919 51.1081 35.9789 50.4424 35.9995C50.1777 36.0077 50.0635 35.9096 49.9791 35.6744C49.8389 35.2659 49.6592 34.8714 49.5114 34.4656C49.4508 34.2993 49.3723 34.2283 49.1834 34.2294C47.8844 34.2384 46.5862 34.2384 45.289 34.2294C45.1174 34.2294 45.033 34.2836 44.9745 34.4461C44.8094 34.9029 44.6346 35.3569 44.4446 35.8045C44.4095 35.8868 44.2823 35.9838 44.2 35.9849C43.4254 35.9936 42.6509 35.9849 41.8763 35.9773C41.8325 35.9741 41.7887 35.9649 41.7096 35.9556ZM47.2771 28.726L47.1975 28.7314L45.8849 32.1184H48.5956L47.2771 28.726Z" fill="#7E91B4"/>
<path d="M84.3894 23.3295H81.8796V15.3489H81.3334C80.639 15.3489 79.9445 15.3418 79.2507 15.3527C79.0266 15.3565 78.9302 15.3061 78.9389 15.0547C78.9584 14.4955 78.9524 13.9353 78.9389 13.375C78.9351 13.181 78.9844 13.1041 79.1927 13.1041C81.8168 13.1095 84.4406 13.1095 87.0643 13.1041C87.2483 13.1041 87.3187 13.1626 87.3154 13.3539C87.3057 13.9315 87.3046 14.5096 87.3154 15.0877C87.3192 15.2914 87.2489 15.3543 87.0502 15.3521C86.2751 15.344 85.4995 15.3478 84.7228 15.3521C84.6146 15.3521 84.5117 15.3673 84.3856 15.3771L84.3894 23.3295Z" fill="#7E91B4"/>
<path d="M77.5527 23.33H75.0662C75.0607 23.2336 75.0521 23.1469 75.0521 23.0591C75.0521 19.8442 75.0503 16.6294 75.0467 13.4145C75.0467 13.1848 75.0943 13.0954 75.3411 13.1014C75.9906 13.1165 76.6401 13.1149 77.2897 13.1014C77.5197 13.097 77.576 13.1821 77.5755 13.4005C77.5697 16.6236 77.5681 19.8473 77.5706 23.0716C77.5706 23.1523 77.5598 23.2314 77.5527 23.33Z" fill="#7E91B4"/>
<path d="M48.5788 8.16313H53.2878C53.1287 9.0436 52.1203 9.80487 51.0389 9.86989C49.9574 9.93491 48.8938 9.20723 48.5788 8.16313Z" fill="#7E91B4"/>
</svg>
