<svg width="66" height="20" viewBox="0 0 66 20" fill="none" xmlns="http://www.w3.org/2000/svg">
<path d="M33.042 0.249457C33.373 0.249457 33.6948 0.244689 34.0157 0.255119C34.0622 0.255119 34.1172 0.323958 34.15 0.372831C34.747 1.26844 35.3431 2.16503 35.9385 3.06262C35.9763 3.11954 36.0168 3.17467 36.0707 3.25096C36.1178 3.18421 36.1544 3.13444 36.1898 3.08319C36.7849 2.18202 37.3844 1.28145 37.9775 0.377897C38.0435 0.276873 38.1141 0.242603 38.2296 0.246477C38.4678 0.254225 38.7059 0.255417 38.9441 0.246477C39.0697 0.241709 39.1048 0.284324 39.1039 0.406506C39.0995 1.18132 39.1018 1.95613 39.1018 2.73094C39.1018 3.71436 39.0992 4.69778 39.1045 5.68119C39.1045 5.82662 39.0727 5.88145 38.9155 5.87549C38.5785 5.86268 38.2409 5.86506 37.9033 5.87549C37.761 5.87966 37.7164 5.83854 37.7176 5.69311C37.7241 4.89893 37.7208 4.10445 37.7202 3.30907C37.7228 3.23992 37.7085 3.17119 37.6786 3.10881C37.6464 3.15411 37.6125 3.19822 37.5824 3.2447C37.2287 3.78985 36.876 4.3355 36.5241 4.88165C36.4759 4.95734 36.4229 4.99131 36.3327 4.98833C36.1591 4.98297 35.9853 4.98237 35.812 4.98833C35.7156 4.99191 35.6596 4.95406 35.6084 4.8739C35.2672 4.33749 34.9216 3.80615 34.5769 3.27272C34.5377 3.20434 34.4843 3.14519 34.4203 3.09928V5.86149H33.042V0.249457Z" fill="#7E91B4"/>
<path d="M29.5634 5.8558C30.887 4.72546 30.6077 2.99644 29.7239 2.15517C28.7995 1.27516 27.3423 1.23374 26.387 2.09557C25.8265 2.60218 25.5481 3.23872 25.5672 3.99803C25.5862 4.75109 25.9161 5.35545 26.4975 5.86206C26.4186 5.86563 26.3712 5.8698 26.3239 5.8698C25.8029 5.8698 25.282 5.86623 24.761 5.87278C24.6366 5.87457 24.5666 5.83583 24.5032 5.72616C23.4574 3.91668 24.0531 1.6733 25.8842 0.582302C27.6924 -0.494389 30.141 -0.0596001 31.3919 1.73439C32.209 2.90614 32.2635 4.56961 31.5032 5.76818C31.4734 5.81408 31.4076 5.86474 31.3582 5.86503C30.7679 5.87159 30.1773 5.86891 29.5869 5.86801C29.5792 5.86801 29.5715 5.85997 29.5634 5.8558Z" fill="#7E91B4"/>
<path d="M21.8537 16.8948C21.9046 16.9163 21.935 16.9312 21.9665 16.9422C22.6744 17.1919 22.915 17.866 22.8161 18.468C22.706 19.1397 22.2538 19.578 21.5176 19.7172C21.2095 19.7768 20.8886 19.7804 20.573 19.7837C19.7797 19.7926 18.9857 19.7866 18.1914 19.7866H18.0048V14.171C18.0605 14.1678 18.1087 14.1624 18.1569 14.1624C19.0446 14.1624 19.933 14.154 20.8204 14.1698C21.3241 14.1788 21.801 14.298 22.1874 14.6586C22.8191 15.2477 22.6887 16.4663 21.9067 16.8552C21.8883 16.8674 21.8706 16.8806 21.8537 16.8948ZM19.3795 18.6253C19.3967 18.6346 19.415 18.6415 19.434 18.6459C19.9187 18.642 20.4042 18.6506 20.888 18.6262C21.1139 18.6149 21.3199 18.5109 21.4277 18.2853C21.5977 17.9292 21.3723 17.5576 20.9294 17.5248C20.4468 17.489 19.9607 17.5003 19.476 17.4974C19.4439 17.4974 19.3843 17.548 19.3837 17.5757C19.3775 17.9262 19.3795 18.2772 19.3795 18.6253ZM19.3858 16.4797C19.8064 16.4797 20.2122 16.491 20.6165 16.4734C20.7478 16.4678 20.888 16.407 21.0035 16.3363C21.2782 16.168 21.353 15.7999 21.1741 15.5573C21.0535 15.3937 20.874 15.3243 20.6823 15.3169C20.2813 15.3014 19.8785 15.3037 19.4781 15.3002C19.4471 15.3028 19.4165 15.3086 19.3867 15.3175L19.3858 16.4797Z" fill="#7E91B4"/>
<path d="M33.3257 17.287V14.1618H34.008C34.1964 14.1618 34.3849 14.1654 34.5736 14.1618C34.6644 14.1597 34.6984 14.1952 34.696 14.2837C34.6927 14.4077 34.696 14.5319 34.696 14.6562C34.696 16.2996 34.696 17.9432 34.696 19.587C34.696 19.7995 34.6912 19.8007 34.4795 19.7974C34.2467 19.7935 34.0137 19.7929 33.7809 19.7974C33.7321 19.8006 33.6834 19.7919 33.6388 19.772C33.5942 19.7521 33.5551 19.7216 33.5248 19.6833C32.7054 18.7386 31.8834 17.7962 31.059 16.8561C31.0272 16.8197 30.9923 16.7858 30.9322 16.7226C30.9251 16.8147 30.9161 16.8749 30.9161 16.9348C30.9161 17.8237 30.912 18.7124 30.9188 19.6013C30.9188 19.753 30.8759 19.7965 30.7256 19.7917C30.3839 19.7807 30.0409 19.7798 29.6992 19.7917C29.5452 19.7974 29.5333 19.7265 29.5333 19.6052C29.5359 18.0408 29.5365 16.4766 29.5351 14.9125C29.5351 14.709 29.5384 14.5054 29.5351 14.3019C29.533 14.2026 29.5628 14.1591 29.6703 14.1615C29.943 14.1675 30.216 14.1579 30.4883 14.1678C30.5589 14.1746 30.6243 14.2074 30.672 14.2599C31.5167 15.2419 32.3586 16.2261 33.1977 17.2125C33.2257 17.2453 33.248 17.2831 33.273 17.3186L33.3257 17.287Z" fill="#7E91B4"/>
<path d="M35.2053 12.8374V12.6652C35.2053 10.907 35.2077 9.14873 35.2012 7.39288C35.2012 7.23464 35.25 7.20335 35.3935 7.20514C36.2017 7.21527 37.0124 7.17951 37.8176 7.22927C39.1156 7.30974 40.2099 8.12329 40.443 9.44971C40.7178 11.0136 39.8842 12.3863 38.2633 12.7427C37.9757 12.8058 37.6744 12.8264 37.3791 12.8321C36.7147 12.8449 36.0499 12.8359 35.3845 12.8359L35.2053 12.8374ZM36.5914 10.0171C36.5914 10.4939 36.5914 10.9702 36.5914 11.446C36.5914 11.5197 36.5914 11.5915 36.6938 11.5876C37.079 11.5727 37.4723 11.6019 37.8474 11.5322C38.5544 11.4011 39.0825 10.8223 39.0947 10.0046C39.106 9.26137 38.5589 8.61112 37.8114 8.4949C37.4622 8.44067 37.1005 8.47166 36.7447 8.45438C36.6146 8.44812 36.5881 8.50027 36.5893 8.61798C36.5935 9.08406 36.5914 9.55074 36.5914 10.0171Z" fill="#7E91B4"/>
<path d="M25.5406 11.2002V12.8273H24.165C24.1617 12.7773 24.1555 12.7251 24.1555 12.6727C24.1555 10.9097 24.1544 9.14667 24.1522 7.38367C24.1522 7.24689 24.1912 7.20487 24.3275 7.20666C25.1953 7.21589 26.0643 7.19414 26.9312 7.2296C27.6043 7.25702 28.2008 7.50645 28.6066 8.0813C29.1424 8.84002 29.0499 10.1194 28.1529 10.7511C28.1044 10.7851 28.0565 10.82 27.9859 10.8703C28.2044 11.1958 28.4214 11.5185 28.6376 11.8415C28.8537 12.1646 29.0704 12.4891 29.3032 12.8378C28.8445 12.8378 28.4188 12.8226 27.9948 12.8437C27.7629 12.8554 27.6299 12.7817 27.5108 12.5833C27.253 12.1541 26.9651 11.7429 26.6957 11.3206C26.674 11.2798 26.6406 11.2463 26.5998 11.2245C26.5591 11.2027 26.5128 11.1935 26.4668 11.1981C26.1655 11.205 25.8642 11.2002 25.5406 11.2002ZM25.5475 9.9352C25.5869 9.94228 25.6266 9.94705 25.6666 9.9495C26.0181 9.94711 26.3703 9.95218 26.7213 9.93579C26.854 9.92584 26.9837 9.89139 27.1038 9.83417C27.4837 9.66133 27.6483 9.25723 27.4876 8.91035C27.3646 8.64513 27.1387 8.48719 26.8624 8.46335C26.4346 8.42818 26.003 8.4398 25.5728 8.43355C25.5656 8.43355 25.5582 8.44517 25.5478 8.45411L25.5475 9.9352Z" fill="#7E91B4"/>
<path d="M19.3194 5.86265H17.9459V0.257777H19.3135V2.50712C19.373 2.5104 19.421 2.51516 19.468 2.51516C20.1327 2.51516 20.7972 2.51159 21.4625 2.51874C21.5977 2.51874 21.6307 2.47493 21.6299 2.34947C21.626 1.71413 21.6299 1.07848 21.6299 0.442242V0.248837H22.2797C22.478 0.248837 22.6765 0.252413 22.8751 0.248837C22.9644 0.246453 23.0037 0.278638 22.9972 0.368039C22.9951 0.39784 22.9972 0.42764 22.9972 0.457441V5.65465C22.9972 5.86951 22.9972 5.86981 22.7763 5.86981H21.6287V5.69428C21.6287 5.10334 21.6251 4.51269 21.6313 3.92175C21.6313 3.79271 21.5971 3.7501 21.4646 3.75129C20.8049 3.75725 20.1452 3.75725 19.4856 3.75129C19.3581 3.75129 19.3144 3.78109 19.3162 3.91698C19.3236 4.50763 19.3194 5.09857 19.3194 5.68922V5.86265Z" fill="#7E91B4"/>
<path d="M35.8951 14.1716H37.2686V16.6921L37.33 16.7389C37.3547 16.6921 37.3717 16.6388 37.4053 16.5998C38.0745 15.8267 38.7443 15.0543 39.4147 14.2825C39.4455 14.2418 39.4858 14.2092 39.532 14.1877C39.5782 14.1662 39.6291 14.1564 39.68 14.1591C40.1167 14.1659 40.5531 14.1618 40.9898 14.1618H41.1652C40.9437 14.4187 40.7448 14.6505 40.5445 14.8815C40.0682 15.4286 39.5957 15.9766 39.1155 16.5205C39.042 16.6036 39.0411 16.657 39.1072 16.7464C39.8042 17.6877 40.4982 18.6314 41.1893 19.5774C41.2331 19.637 41.2759 19.6966 41.3304 19.7729C41.291 19.7797 41.2512 19.7844 41.2113 19.7869C40.7201 19.7869 40.2289 19.7843 39.7377 19.7902C39.6341 19.7902 39.5767 19.7512 39.5204 19.671C39.0925 19.0674 38.6627 18.4657 38.2308 17.8657C38.1939 17.8135 38.1546 17.7632 38.1049 17.6964C38.0602 17.7435 38.0227 17.7793 37.9891 17.8183C37.7878 18.051 37.5922 18.2892 37.3842 18.5156C37.3436 18.5579 37.3124 18.6083 37.2924 18.6634C37.2725 18.7185 37.2643 18.7772 37.2684 18.8357C37.2755 19.1432 37.2707 19.4508 37.2707 19.7726H35.8954L35.8951 14.1716Z" fill="#7E91B4"/>
<path d="M30.0106 10.021C30.0106 9.14729 30.0138 8.27354 30.0073 7.3986C30.0073 7.2496 30.0501 7.2043 30.2008 7.2049C31.485 7.21026 32.7696 7.20788 34.0538 7.20818C34.2479 7.20818 34.2482 7.20818 34.2485 7.40903C34.2485 7.68707 34.2438 7.96511 34.2509 8.24344C34.2542 8.36592 34.2152 8.40556 34.0907 8.40466C33.2524 8.3999 32.4144 8.40228 31.5764 8.40228C31.3823 8.40228 31.382 8.40228 31.3817 8.60164C31.3817 8.82515 31.3919 9.04865 31.3782 9.27156C31.3686 9.4292 31.4276 9.46139 31.5734 9.4599C32.2879 9.45275 33.0024 9.4599 33.7168 9.45364C33.8502 9.45364 33.9005 9.48553 33.8955 9.62559C33.8859 9.90303 33.8871 10.1817 33.8955 10.46C33.899 10.5914 33.8657 10.6388 33.7225 10.6388C32.9985 10.6314 32.2745 10.6388 31.5493 10.6325C31.4198 10.6325 31.3737 10.6671 31.3793 10.8C31.3889 11.028 31.3874 11.2569 31.3793 11.4854C31.3755 11.6046 31.4192 11.6371 31.5344 11.6365C32.3775 11.6326 33.2206 11.6392 34.0648 11.6303C34.2235 11.6285 34.2572 11.6803 34.2524 11.824C34.2432 12.1118 34.2464 12.4 34.2524 12.6882C34.2542 12.7984 34.2271 12.8428 34.1035 12.8425C32.7893 12.8378 31.4751 12.8378 30.1609 12.8425C30.0228 12.8425 30.012 12.7829 30.012 12.6739C30.0117 11.7885 30.0106 10.9046 30.0106 10.021Z" fill="#7E91B4"/>
<path d="M41.6614 1.45544V2.10658C41.6614 2.50054 41.6614 2.50054 42.0484 2.50054C42.6935 2.50054 43.3386 2.50352 43.9835 2.49816C44.1165 2.49816 44.1683 2.53451 44.1639 2.67428C44.1546 2.95202 44.1549 3.23065 44.1639 3.50869C44.168 3.64339 44.1165 3.67706 43.9903 3.67647C43.3008 3.6717 42.6111 3.67319 41.9213 3.67468C41.6329 3.67468 41.6632 3.64845 41.6611 3.94288C41.6611 4.13152 41.6677 4.32075 41.6585 4.50909C41.6522 4.63932 41.6978 4.68015 41.8281 4.67925C42.6617 4.67448 43.4952 4.67687 44.3288 4.67687C44.5333 4.67687 44.5333 4.67687 44.5336 4.87534V5.86144H40.3016V0.26133H44.5351C44.5297 0.378148 44.5199 0.490198 44.5205 0.602248C44.5221 0.83052 44.5268 1.05899 44.5348 1.28766C44.539 1.40954 44.4997 1.4605 44.3648 1.45961C43.5313 1.45395 42.6977 1.45663 41.8642 1.45663L41.6614 1.45544Z" fill="#7E91B4"/>
<path d="M23.3163 9.21668H22.7283C22.4803 9.21668 22.2321 9.22205 21.9841 9.21251C21.9272 9.21013 21.8448 9.17079 21.8206 9.1246C21.5188 8.54021 20.949 8.3325 20.3435 8.4079C19.6936 8.48895 19.2105 8.92106 19.0592 9.54598C18.9125 10.1512 19.008 10.7109 19.4391 11.1823C20.0494 11.8496 21.3917 11.8269 21.8254 10.9043C21.8366 10.8842 21.8522 10.8669 21.871 10.8537C21.8898 10.8406 21.9114 10.8319 21.9341 10.8283C22.3898 10.8232 22.8459 10.825 23.3175 10.825C23.3143 10.8703 23.3084 10.9152 23.2996 10.9597C23.1626 11.4686 22.8773 11.9251 22.4801 12.2709C22.0828 12.6168 21.5917 12.8363 21.0693 12.9015C20.331 12.9951 19.6222 12.9114 18.9774 12.5186C18.0173 11.9348 17.5824 11.056 17.6005 9.94859C17.6172 8.95593 18.0218 8.15221 18.855 7.59434C19.93 6.87316 21.486 6.93873 22.4446 7.73559C22.8745 8.0932 23.1454 8.55183 23.3005 9.08377C23.3091 9.12761 23.3144 9.17204 23.3163 9.21668Z" fill="#7E91B4"/>
<path d="M22.9403 19.7756C23.0254 19.5718 23.1055 19.3763 23.1883 19.182C23.8753 17.5638 24.5618 15.9452 25.2477 14.3263C25.2998 14.2029 25.3573 14.1534 25.4954 14.1582C25.8371 14.1695 26.1801 14.1648 26.5215 14.16C26.6177 14.16 26.6704 14.1829 26.7115 14.2792C27.4668 16.073 28.2248 17.8657 28.9853 19.6573C29.0002 19.6928 29.0109 19.73 29.0302 19.7857C28.9573 19.7896 28.9001 19.7953 28.843 19.7956C28.4765 19.7956 28.1095 19.7884 27.7433 19.7997C27.5977 19.8042 27.5349 19.7503 27.4885 19.6209C27.4114 19.3962 27.3125 19.1793 27.2313 18.9561C27.1979 18.8646 27.1547 18.8256 27.0508 18.8262C26.3364 18.8311 25.6224 18.8311 24.9089 18.8262C24.8146 18.8262 24.7681 18.856 24.736 18.9454C24.6452 19.1966 24.549 19.4463 24.4445 19.6925C24.4252 19.7378 24.3552 19.7911 24.31 19.7917C23.884 19.7965 23.458 19.7917 23.032 19.7875C23.0078 19.7857 22.9837 19.7807 22.9403 19.7756ZM26.0024 15.7993L25.9586 15.8023L25.2367 17.6651H26.7276L26.0024 15.7993Z" fill="#7E91B4"/>
<path d="M46.4141 12.8312H45.0337V8.44188H44.7334C44.3514 8.44188 43.9695 8.43801 43.5878 8.44397C43.4646 8.44606 43.4116 8.41834 43.4164 8.28007C43.4271 7.97253 43.4238 7.66439 43.4164 7.35625C43.4143 7.24957 43.4414 7.20725 43.556 7.20725C44.9992 7.21023 46.4423 7.21023 47.8853 7.20725C47.9866 7.20725 48.0253 7.23943 48.0235 7.34463C48.0181 7.6623 48.0175 7.98027 48.0235 8.29825C48.0256 8.4103 47.9869 8.44486 47.8776 8.44367C47.4513 8.4392 47.0247 8.44129 46.5975 8.44367C46.538 8.44367 46.4814 8.45202 46.4121 8.45738L46.4141 12.8312Z" fill="#7E91B4"/>
<path d="M42.654 12.8315H41.2864C41.2834 12.7785 41.2786 12.7308 41.2786 12.6825C41.2786 10.9143 41.2776 9.14617 41.2756 7.378C41.2756 7.25165 41.3018 7.20247 41.4376 7.20575C41.7948 7.2141 42.1521 7.2132 42.5093 7.20575C42.6358 7.20337 42.6668 7.25016 42.6665 7.37025C42.6633 9.14299 42.6624 10.916 42.6638 12.6894C42.6638 12.7338 42.6578 12.7773 42.654 12.8315Z" fill="#7E91B4"/>
<path d="M26.7183 4.48972H29.3083C29.2208 4.97398 28.6662 5.39268 28.0714 5.42844C27.4766 5.4642 26.8916 5.06398 26.7183 4.48972Z" fill="#7E91B4"/>
</svg>
