<svg width="66" height="20" viewBox="0 0 66 20" fill="none" xmlns="http://www.w3.org/2000/svg">
<path d="M38.108 2.21619C38.108 1.31008 37.4794 0.43945 36.6281 0.135692C36.4641 0.0771448 36.293 0.0520038 36.1284 0H29.0978C29.0927 0.0196306 29.0779 0.0241077 29.06 0.0268629C28.3919 0.137758 27.8764 0.483877 27.5055 1.048C27.344 1.29493 27.2233 1.56459 27.1962 1.86559L27.2577 1.85974C27.3385 1.36002 27.5859 0.9526 27.9568 0.619913C28.3898 0.230057 28.9047 0.054759 29.4852 0.0551034C31.6133 0.0551034 33.7418 0.0440827 35.8699 0.0619913C36.7009 0.0688792 37.3375 0.465624 37.7602 1.19161C37.9702 1.55082 38.051 1.94033 38.051 2.35085C38.051 4.46785 38.0578 6.58451 38.0486 8.70152C38.0434 9.93342 37.0886 10.9294 35.8283 10.9308C33.6917 10.9329 31.5549 10.9329 29.4178 10.9308C28.9106 10.9309 28.4188 10.7557 28.0253 10.4349C27.6319 10.1141 27.3608 9.66724 27.2577 9.16955C27.2193 8.98446 27.2002 8.79586 27.2007 8.60681C27.1979 6.52872 27.1979 4.45086 27.2007 2.37323C27.2007 2.23548 27.1873 2.09772 27.2309 1.96409H27.2055C27.2055 1.99199 27.1842 1.98717 27.1673 1.98958C27.1594 2.11356 27.1443 2.23789 27.1443 2.36187C27.1429 4.45281 27.1429 6.54376 27.1443 8.6347C27.1403 8.92749 27.1868 9.21877 27.2818 9.49569C27.5966 10.3763 28.4472 10.9921 29.3838 10.9928C31.5463 10.9942 33.7088 10.9942 35.8713 10.9928C36.0772 10.9942 36.2822 10.9649 36.4796 10.906C37.4303 10.6174 38.1046 9.74331 38.1063 8.77522C38.1109 6.58807 38.1115 4.40173 38.108 2.21619Z" fill="#7E91B4"/>
<path d="M33.7583 17.1892V15.1366C33.7583 14.9575 33.7927 14.7953 33.9617 14.6923C34.0249 14.6554 34.0973 14.6371 34.1704 14.6396C35.0846 14.6396 35.9988 14.6396 36.913 14.6375C37.0096 14.6375 37.0429 14.6751 37.0412 14.7663C37.0385 14.9255 37.0337 15.0853 37.0429 15.244C37.0502 15.3718 36.9979 15.4073 36.8783 15.4066C36.1909 15.4031 35.5035 15.4066 34.8182 15.4066C34.6519 15.4066 34.6519 15.4066 34.6519 15.5733C34.6519 15.8488 34.6553 16.1243 34.6498 16.3998C34.6481 16.489 34.6715 16.5176 34.7636 16.5166C35.1585 16.5114 35.5541 16.5097 35.9479 16.5166C36.2813 16.5217 36.6044 16.5855 36.8989 16.7497C37.3457 17.0018 37.5413 17.412 37.588 17.9038C37.6423 18.4745 37.4581 18.9535 37.0038 19.3134C36.7082 19.5454 36.3426 19.6694 35.9672 19.665C35.3619 19.6692 34.7567 19.6671 34.1518 19.665C33.8576 19.665 33.76 19.5665 33.759 19.2662C33.7569 18.575 33.7583 17.8821 33.7583 17.1892ZM34.6519 18.0636C34.6519 18.2957 34.655 18.5278 34.6498 18.76C34.6481 18.8443 34.6636 18.8802 34.7598 18.8784C35.1282 18.8726 35.497 18.8802 35.8658 18.875C36.3088 18.8685 36.6161 18.5867 36.6673 18.1469C36.7185 17.7072 36.4356 17.2963 35.9754 17.2663C35.5603 17.2391 35.1444 17.2622 34.7289 17.2529C34.6515 17.2529 34.6512 17.2984 34.6515 17.3541C34.6522 17.5904 34.6519 17.827 34.6519 18.0636Z" fill="#7E91B4"/>
<path d="M20.9094 17.2955V19.4897C20.9094 19.6588 20.9018 19.6664 20.7375 19.6671C20.5447 19.6671 20.3516 19.6646 20.1584 19.6671C20.0677 19.6671 20.0209 19.6309 20.0209 19.5403C20.0209 19.4928 20.0182 19.4456 20.0182 19.3984C20.0182 18.1207 20.0189 16.843 20.0203 15.5653C20.0203 15.4492 19.9941 15.4096 19.8714 15.412C19.4425 15.4196 19.0122 15.4186 18.5847 15.412C18.4706 15.412 18.4413 15.4496 18.4355 15.5591C18.3974 16.2499 18.3455 16.9398 18.2705 17.6275C18.2252 18.0463 18.1499 18.4596 17.9729 18.8491C17.7522 19.3382 17.379 19.6457 16.8672 19.7897C16.759 19.82 16.6844 19.7841 16.6473 19.6726C16.6057 19.5462 16.5579 19.4222 16.5156 19.2961C16.4813 19.1928 16.4995 19.1115 16.6108 19.0657C17.1147 18.8591 17.2982 18.4327 17.3831 17.9361C17.5038 17.227 17.5264 16.5089 17.5893 15.7947C17.611 15.5463 17.6237 15.2973 17.6433 15.049C17.6667 14.7735 17.8124 14.6395 18.0873 14.6392C18.8723 14.6392 19.6574 14.6392 20.4427 14.6392C20.7657 14.6392 20.909 14.7842 20.9097 15.1145C20.9102 15.8416 20.9101 16.5686 20.9094 17.2955Z" fill="#7E91B4"/>
<path d="M41.371 18.1311C41.371 18.501 41.3683 18.8712 41.371 19.2407C41.3727 19.385 41.3139 19.4708 41.1792 19.5242C40.6197 19.7453 40.0385 19.7735 39.448 19.7384C39.1992 19.7273 38.9552 19.6653 38.7311 19.5562C38.2603 19.3206 38.1403 18.9418 38.173 18.4149C38.2176 17.6892 38.7803 17.3228 39.4515 17.2756C39.7629 17.2536 40.0773 17.2615 40.3901 17.2674C40.508 17.2694 40.5341 17.2284 40.531 17.1186C40.52 16.7287 40.3207 16.5293 39.9007 16.5162C39.5403 16.5046 39.1803 16.5492 38.8335 16.6485C38.6837 16.6915 38.6421 16.6695 38.6081 16.5197C38.5837 16.4105 38.5637 16.3006 38.5352 16.1928C38.5067 16.085 38.5424 16.0241 38.6414 15.9934C39.2491 15.8047 39.8711 15.7413 40.4936 15.8688C41.0534 15.9831 41.3528 16.3812 41.3693 17.0218C41.3782 17.392 41.371 17.7616 41.371 18.1311ZM40.5204 18.4462C40.5204 18.3085 40.5156 18.1707 40.5221 18.0329C40.5266 17.9396 40.5001 17.9035 40.4008 17.9066C40.1825 17.9138 39.9643 17.9066 39.7457 17.9093C39.5738 17.9093 39.4051 17.93 39.2563 18.0326C39.0435 18.1786 39.0102 18.3911 39.0356 18.6236C39.0586 18.8302 39.1731 18.9497 39.391 19.011C39.7453 19.1116 40.0935 19.0548 40.4427 18.9807C40.5114 18.9663 40.5204 18.9253 40.5204 18.8698V18.4462Z" fill="#7E91B4"/>
<path d="M21.6091 17.837C21.6012 17.4409 21.6631 17.0728 21.8315 16.7246C22.0666 16.239 22.4502 15.9383 22.9746 15.8439C23.3527 15.7751 23.7338 15.7892 24.0995 15.9349C24.5903 16.1301 24.8639 16.5141 24.9976 17.0046C25.1351 17.5067 25.1241 18.0136 25.0072 18.5199C24.8477 19.2139 24.3408 19.665 23.638 19.7339C23.3066 19.7663 22.9812 19.758 22.6598 19.6557C22.1683 19.4994 21.8786 19.1539 21.7291 18.6745C21.6447 18.4036 21.6042 18.1208 21.6091 17.837ZM24.2281 17.7529C24.2401 17.5911 24.2126 17.4123 24.1775 17.2363C24.1229 16.9608 24.0095 16.7129 23.7435 16.5892C23.2582 16.363 22.7124 16.6268 22.5553 17.1403C22.4179 17.5942 22.4306 18.0464 22.5656 18.4958C22.6505 18.7775 22.8237 18.9804 23.131 19.0255C23.539 19.0861 23.8871 19.0065 24.0933 18.5388C24.2026 18.296 24.2332 18.0367 24.2281 17.7529Z" fill="#7E91B4"/>
<path d="M29.4573 17.9103C29.4532 17.3248 29.5391 16.8689 29.8244 16.4718C30.1402 16.0323 30.5805 15.8267 31.1119 15.8126C31.404 15.8047 31.6913 15.8277 31.9683 15.9448C32.1478 16.0173 32.3102 16.1266 32.4452 16.2655C32.5802 16.4044 32.6848 16.57 32.7523 16.7518C33.0154 17.4197 33.013 18.1632 32.7458 18.8295C32.5457 19.3413 32.1381 19.6306 31.6023 19.7187C31.2146 19.7821 30.8266 19.7732 30.4475 19.6368C30.0351 19.4887 29.7722 19.2001 29.6147 18.8013C29.4876 18.4799 29.4591 18.1428 29.4573 17.9103ZM32.0694 17.7612C32.0725 17.5976 32.0592 17.4341 32.0295 17.2732C31.9883 17.0514 31.9154 16.8375 31.7336 16.6877C31.3212 16.3485 30.674 16.5096 30.4568 17.0004C30.2526 17.4626 30.276 17.9392 30.3853 18.4145C30.4568 18.7245 30.6259 18.9611 30.9675 19.0262C31.4243 19.1133 31.7552 18.9418 31.9463 18.5168C32.0553 18.2754 32.0615 18.0184 32.0694 17.7612Z" fill="#7E91B4"/>
<path d="M45.5421 17.7884C45.5421 18.356 45.5421 18.9238 45.5421 19.4918C45.5421 19.6571 45.5321 19.6664 45.3664 19.6671C45.2008 19.6678 45.0403 19.6643 44.8774 19.6671C44.7581 19.6695 44.7089 19.6223 44.7103 19.4983C44.7151 19.0465 44.7103 18.595 44.7144 18.1431C44.7144 18.034 44.6911 17.993 44.5728 17.9947C44.1398 18.002 43.7065 18.002 43.273 17.9947C43.1537 17.9926 43.1311 18.035 43.1324 18.1435C43.1376 18.5864 43.1352 19.0296 43.1345 19.4725C43.1345 19.6447 43.1142 19.6654 42.9427 19.666C42.7712 19.6667 42.608 19.666 42.4406 19.666C42.3447 19.666 42.2976 19.622 42.2962 19.5266C42.2962 19.4921 42.2962 19.4577 42.2962 19.4232C42.2962 18.3262 42.2962 17.2293 42.2962 16.1326C42.2962 15.9056 42.3151 15.887 42.5368 15.8867C42.6784 15.8867 42.82 15.8867 42.9616 15.8867C43.1032 15.8867 43.1359 15.9211 43.1365 16.0626C43.1365 16.4329 43.1414 16.8027 43.1345 17.1726C43.1324 17.2825 43.1668 17.3087 43.272 17.3073C43.705 17.3018 44.1388 17.2997 44.5718 17.3073C44.6973 17.3097 44.7186 17.266 44.7169 17.154C44.7107 16.7928 44.7141 16.4308 44.7148 16.0699C44.7148 15.9194 44.7464 15.8873 44.8956 15.8856C45.0544 15.8856 45.2131 15.8856 45.3719 15.8856C45.5307 15.8856 45.5438 15.9035 45.5438 16.0692C45.5426 16.6429 45.5421 17.216 45.5421 17.7884Z" fill="#7E91B4"/>
<path d="M46.459 17.7819C46.459 17.2138 46.459 16.646 46.459 16.0785C46.459 15.9063 46.4772 15.8887 46.6522 15.888C46.8196 15.888 46.9869 15.8901 47.154 15.888C47.2619 15.8863 47.3073 15.9304 47.3059 16.0427C47.3018 16.4298 47.3059 16.8169 47.3021 17.204C47.3021 17.2956 47.3172 17.3355 47.42 17.3286C47.5695 17.3193 47.72 17.3238 47.8702 17.3286C47.9019 17.3308 47.9336 17.3239 47.9616 17.3088C47.9896 17.2937 48.0127 17.271 48.0283 17.2432C48.3146 16.8217 48.6054 16.4032 48.893 15.9827C48.9097 15.9551 48.9333 15.9325 48.9616 15.9171C48.9899 15.9017 49.0217 15.8942 49.0539 15.8953C49.2601 15.8953 49.4663 15.8953 49.6725 15.8953C49.733 15.8953 49.7866 15.9087 49.8145 15.9641C49.8423 16.0196 49.7952 16.0506 49.7691 16.0892C49.4464 16.5655 49.1278 17.0476 48.8006 17.5256C48.7257 17.6352 48.7319 17.7137 48.8047 17.8215C49.1762 18.3818 49.5399 18.9473 49.9045 19.5114C49.9688 19.6106 49.9437 19.6643 49.8255 19.666C49.5894 19.6695 49.3536 19.666 49.1175 19.6681C49.045 19.6681 49.012 19.6247 48.9776 19.5727C48.6683 19.105 48.3535 18.6401 48.0496 18.1686C47.9654 18.0377 47.8778 17.9592 47.7114 17.984C47.6132 17.995 47.5141 17.995 47.4159 17.984C47.3258 17.9771 47.3007 18.0071 47.3014 18.0977C47.3059 18.5581 47.3038 19.0182 47.3035 19.4787C47.3035 19.6623 47.3 19.6657 47.1162 19.666C46.9533 19.666 46.79 19.666 46.6271 19.666C46.4642 19.666 46.4583 19.655 46.4583 19.4976C46.4588 18.9259 46.459 18.354 46.459 17.7819Z" fill="#7E91B4"/>
<path d="M25.7884 17.785C25.7884 17.2126 25.7884 16.6403 25.7884 16.0682C25.7884 15.9104 25.8104 15.8891 25.9675 15.8884C26.1246 15.8877 26.2851 15.8884 26.4439 15.8884C26.6109 15.8884 26.6308 15.9077 26.6312 16.0716C26.6312 16.4246 26.6312 16.7773 26.6312 17.1303C26.6312 17.3607 26.6085 17.3228 26.8326 17.3259C26.9226 17.3259 27.0144 17.3156 27.1027 17.3283C27.2512 17.3504 27.3361 17.2822 27.4141 17.1647C27.6701 16.7797 27.9348 16.4002 28.1946 16.0175C28.2517 15.9332 28.319 15.8867 28.4283 15.8918C28.6081 15.9005 28.7885 15.8936 28.969 15.8946C29.0277 15.8946 29.0934 15.8832 29.1301 15.9473C29.1669 16.0113 29.1178 16.0606 29.0855 16.1088C28.7516 16.6066 28.4173 17.1039 28.0826 17.6007C28.0659 17.6197 28.0566 17.6439 28.0561 17.6692C28.0557 17.6944 28.0642 17.719 28.0802 17.7385C28.4539 18.3072 28.8262 18.8768 29.1972 19.4474C29.2152 19.4714 29.2313 19.4969 29.2453 19.5235C29.2858 19.6127 29.2553 19.6651 29.157 19.6661C28.9253 19.6688 28.6937 19.6661 28.462 19.6685C28.3861 19.6685 28.3434 19.6299 28.3063 19.5741C27.9729 19.0702 27.6399 18.5662 27.3072 18.0622C27.2946 18.0377 27.2752 18.0174 27.2512 18.0039C27.2273 17.9903 27.1999 17.984 27.1725 17.9858C27.0309 17.9892 26.8889 17.9916 26.7477 17.9858C26.6566 17.9813 26.6308 18.0137 26.6315 18.1029C26.6353 18.5633 26.6336 19.0238 26.6315 19.4842C26.6315 19.6606 26.6243 19.6675 26.4514 19.6678C26.2785 19.6682 26.1077 19.664 25.9359 19.6678C25.8235 19.6713 25.7857 19.6241 25.7864 19.5139C25.7905 18.938 25.7888 18.3615 25.7884 17.785Z" fill="#7E91B4"/>
<path d="M33.7067 2.22202C33.9995 2.72484 34.292 3.22778 34.5842 3.73083C34.8498 4.19025 35.1124 4.65209 35.3774 5.1122C35.597 5.49448 35.8187 5.87573 36.039 6.25801C36.2995 6.7102 36.5545 7.16687 36.8223 7.61424C37.1278 8.12188 37.0704 8.68704 36.6552 9.09721C36.1706 9.57558 35.297 9.47605 34.943 8.89057C34.6526 8.41083 34.3779 7.92144 34.0975 7.4355C33.7462 6.82775 33.3956 6.21932 33.0455 5.6102C32.9064 5.36935 32.7667 5.12885 32.6265 4.88869C32.6265 4.87767 32.6265 4.86699 32.6238 4.85425C32.6952 4.73474 32.7674 4.61558 32.8379 4.49539C32.9366 4.32686 33.0347 4.15788 33.1321 3.98843C33.2352 3.81176 33.3383 3.63646 33.4359 3.45703C33.56 3.22732 33.7091 3.01276 33.7452 2.73759C33.7686 2.55919 33.7146 2.39491 33.7067 2.22202Z" fill="#7E91B4"/>
<path d="M32.6238 4.85597C32.6238 4.86699 32.6258 4.87767 32.6265 4.89041C32.489 5.05744 32.4031 5.25478 32.2948 5.43869C31.9735 5.9849 31.6607 6.53628 31.3445 7.08559C31.0094 7.66831 30.6654 8.24655 30.3413 8.83547C29.977 9.49739 28.9803 9.59727 28.5039 9.00766C28.1657 8.58991 28.1462 8.06677 28.4314 7.59564C28.7084 7.13759 28.9703 6.67059 29.2377 6.20669C29.5051 5.74279 29.7749 5.27062 30.0437 4.80294C30.3874 4.20598 30.7311 3.60811 31.0747 3.00932C31.2029 2.78684 31.3301 2.56367 31.4586 2.34119C31.4707 2.32053 31.4796 2.29194 31.5129 2.29436C31.5151 2.34962 31.5135 2.40497 31.5081 2.46001C31.4683 2.68992 31.5093 2.92658 31.6243 3.12951C31.845 3.52488 32.0687 3.91853 32.3 4.30769C32.4086 4.49022 32.4928 4.68756 32.6238 4.85597Z" fill="#7E91B4"/>
<path d="M32.6238 4.85597C32.4928 4.68618 32.4086 4.48888 32.3 4.30497C32.0687 3.91581 31.8449 3.52216 31.6243 3.12679C31.5093 2.92385 31.4683 2.6872 31.5081 2.45729C31.5135 2.40224 31.5151 2.3469 31.5129 2.29163L31.5129 2.29436C31.5532 2.28023 31.5446 2.24686 31.5428 2.21655C31.7288 1.79501 32.0323 1.51536 32.5021 1.47197C33.0015 1.42616 33.3819 1.63039 33.628 2.07363C33.6548 2.12219 33.6806 2.17109 33.7067 2.21965C33.7146 2.39185 33.7686 2.55682 33.7449 2.73831C33.7105 3.01383 33.56 3.22805 33.4355 3.45776C33.3386 3.63719 33.2338 3.81249 33.1317 3.98916C33.0341 4.15861 32.936 4.32759 32.8375 4.49611C32.7674 4.61872 32.6952 4.73784 32.6238 4.85597Z" fill="#7E91B4"/>
<path d="M31.4624 8.26552C31.4611 8.11191 31.4905 7.9596 31.5487 7.8175C31.6069 7.67541 31.6929 7.5464 31.8015 7.43804C31.9102 7.32968 32.0393 7.24415 32.1814 7.18647C32.3235 7.12879 32.4756 7.10012 32.6289 7.10215C33.2781 7.10215 33.7844 7.61874 33.7834 8.27964C33.7835 8.43229 33.7535 8.58347 33.6951 8.72446C33.6367 8.86545 33.551 8.99346 33.443 9.10112C33.3349 9.20877 33.2067 9.29395 33.0657 9.35174C32.9247 9.40953 32.7737 9.43879 32.6214 9.43784C31.9577 9.43646 31.4421 8.88749 31.4624 8.26552Z" fill="#7E91B4"/>
<path d="M31.5429 2.21891C31.5446 2.24922 31.5532 2.28262 31.513 2.29674C31.5081 2.28231 31.5084 2.26662 31.5138 2.2524C31.5193 2.23817 31.5296 2.22632 31.5429 2.21891Z" fill="#7E91B4"/>
</svg>
