<svg width="120" height="36" viewBox="0 0 120 36" fill="none" xmlns="http://www.w3.org/2000/svg">
<path d="M69.2873 4.02944C69.2873 2.38197 68.1444 0.798999 66.5965 0.246713C66.2984 0.140263 65.9872 0.0945524 65.6879 0H52.9051C52.8958 0.035692 52.8689 0.0438322 52.8364 0.0488416C51.6216 0.25047 50.6843 0.879776 50.01 1.90545C49.7163 2.35442 49.497 2.84471 49.4476 3.39199L49.5595 3.38134C49.7063 2.47276 50.1563 1.732 50.8305 1.12711C51.6179 0.418285 52.554 0.0995618 53.6094 0.100188C57.4787 0.100188 61.3487 0.0801504 65.218 0.112711C66.729 0.125235 67.8863 0.846588 68.6549 2.16657C69.0367 2.81967 69.1836 3.52787 69.1836 4.27427C69.1836 8.12337 69.1961 11.9718 69.1792 15.8209C69.1698 18.0608 67.4339 19.8717 65.1424 19.8742C61.2576 19.8779 57.3725 19.8779 53.4869 19.8742C52.5646 19.8743 51.6705 19.5559 50.9551 18.9726C50.2398 18.3893 49.7469 17.5768 49.5595 16.6719C49.4896 16.3354 49.4548 15.9925 49.4557 15.6487C49.4507 11.8704 49.4507 8.09248 49.4557 4.31497C49.4557 4.0645 49.4314 3.81403 49.5107 3.57108H49.4645C49.4645 3.6218 49.4258 3.61303 49.3951 3.61741C49.3808 3.84284 49.3533 4.06889 49.3533 4.29431C49.3508 8.09603 49.3508 11.8977 49.3533 15.6995C49.346 16.2318 49.4305 16.7614 49.6032 17.2649C50.1756 18.866 51.7222 19.9856 53.4251 19.9869C57.3569 19.9894 61.2887 19.9894 65.2205 19.9869C65.5949 19.9894 65.9677 19.9362 66.3266 19.8291C68.055 19.3043 69.281 17.7151 69.2842 15.9549C69.2925 11.9783 69.2935 8.00314 69.2873 4.02944Z" fill="#7E91B4"/>
<path d="M61.3787 31.253V27.521C61.3787 27.1954 61.4412 26.9005 61.7486 26.7133C61.8635 26.6462 61.995 26.613 62.1279 26.6175C63.7901 26.6175 65.4524 26.6175 67.1146 26.6137C67.2902 26.6137 67.3508 26.682 67.3477 26.8479C67.3427 27.1372 67.3339 27.4277 67.3508 27.7164C67.3639 27.9487 67.2689 28.0132 67.0515 28.012C65.8017 28.0057 64.5519 28.012 63.3059 28.012C63.0034 28.012 63.0034 28.012 63.0034 28.315C63.0034 28.816 63.0097 29.3169 62.9997 29.8179C62.9965 29.98 63.039 30.032 63.2065 30.0301C63.9245 30.0207 64.6438 30.0176 65.3599 30.0301C65.966 30.0395 66.5534 30.1554 67.089 30.4541C67.9013 30.9124 68.2569 31.6582 68.3419 32.5524C68.4406 33.5899 68.1057 34.4609 67.2796 35.1153C66.7422 35.5371 66.0774 35.7626 65.3949 35.7546C64.2944 35.7621 63.194 35.7584 62.0942 35.7546C61.5593 35.7546 61.3818 35.5755 61.3799 35.0295C61.3762 33.7728 61.3787 32.5129 61.3787 31.253ZM63.0034 32.8429C63.0034 33.265 63.009 33.687 62.9997 34.109C62.9965 34.2625 63.0247 34.3276 63.1996 34.3244C63.8695 34.3138 64.54 34.3276 65.2105 34.3182C66.016 34.3063 66.5747 33.7941 66.6678 32.9944C66.7609 32.1948 66.2466 31.4478 65.4099 31.3933C64.655 31.3438 63.8989 31.3858 63.1434 31.3689C63.0028 31.3689 63.0022 31.4515 63.0028 31.553C63.004 31.9825 63.0034 32.4127 63.0034 32.8429Z" fill="#7E91B4"/>
<path d="M38.0171 31.4464V35.4358C38.0171 35.7432 38.0033 35.757 37.7046 35.7583C37.3541 35.7583 37.0029 35.7539 36.6517 35.7583C36.4867 35.7583 36.4017 35.6925 36.4017 35.5278C36.4017 35.4414 36.3967 35.3556 36.3967 35.2699C36.3967 32.9467 36.398 30.6236 36.4005 28.3005C36.4005 28.0895 36.353 28.0175 36.1299 28.0219C35.35 28.0357 34.5677 28.0338 33.7903 28.0219C33.5828 28.0219 33.5297 28.0901 33.5191 28.2892C33.4497 29.5454 33.3554 30.7996 33.2191 32.0501C33.1367 32.8115 32.9998 33.5629 32.678 34.2711C32.2768 35.1603 31.5982 35.7194 30.6677 35.9812C30.4709 36.0363 30.3353 35.9712 30.2678 35.7683C30.1922 35.5385 30.1053 35.3131 30.0284 35.0839C29.966 34.896 29.9991 34.7483 30.2015 34.665C31.1176 34.2893 31.4513 33.5141 31.6057 32.6111C31.825 31.3218 31.8663 30.0162 31.9806 28.7176C32.02 28.2661 32.0431 27.8134 32.0787 27.3619C32.1212 26.8609 32.3862 26.6174 32.8861 26.6167C34.3133 26.6167 35.7408 26.6167 37.1685 26.6167C37.7559 26.6167 38.0164 26.8804 38.0177 27.4809C38.0185 28.8029 38.0183 30.1248 38.0171 31.4464Z" fill="#7E91B4"/>
<path d="M75.22 32.9656C75.22 33.6381 75.215 34.3113 75.22 34.9832C75.2231 35.2455 75.1163 35.4014 74.8713 35.4985C73.854 35.9005 72.7973 35.9519 71.7237 35.888C71.2712 35.8678 70.8276 35.7551 70.4202 35.5567C69.5641 35.1284 69.346 34.4396 69.4054 33.4816C69.4866 32.1623 70.5096 31.496 71.73 31.4102C72.2961 31.3701 72.8679 31.3845 73.4366 31.3952C73.6509 31.3989 73.6984 31.3244 73.6928 31.1247C73.6728 30.4159 73.3103 30.0533 72.5467 30.0295C71.8914 30.0084 71.2368 30.0895 70.6064 30.27C70.334 30.3482 70.2583 30.3082 70.1965 30.0358C70.1521 29.8373 70.1159 29.6375 70.064 29.4415C70.0121 29.2455 70.0771 29.1347 70.2571 29.079C71.3619 28.7358 72.493 28.6206 73.6246 28.8523C74.6426 29.0602 75.1869 29.784 75.2169 30.9487C75.2331 31.6219 75.22 32.2938 75.22 32.9656ZM73.6734 33.5386C73.6734 33.2881 73.6646 33.0376 73.6765 32.7872C73.6846 32.6175 73.6365 32.5517 73.4559 32.5574C73.0591 32.5705 72.6623 32.5574 72.2649 32.5624C71.9524 32.5624 71.6456 32.5999 71.375 32.7865C70.9882 33.052 70.9276 33.4384 70.9739 33.8611C71.0157 34.2368 71.2238 34.4541 71.62 34.5655C72.2643 34.7484 72.8973 34.645 73.5322 34.5104C73.6571 34.4841 73.6734 34.4096 73.6734 34.3088V33.5386Z" fill="#7E91B4"/>
<path d="M39.2894 32.4309C39.275 31.7108 39.3875 31.0414 39.6937 30.4083C40.1211 29.5254 40.8185 28.9788 41.7721 28.8072C42.4594 28.6819 43.1524 28.7076 43.8173 28.9725C44.7097 29.3275 45.2071 30.0257 45.4502 30.9174C45.7001 31.8303 45.6801 32.7521 45.4677 33.6726C45.1777 34.9343 44.256 35.7546 42.9781 35.8798C42.3757 35.9387 41.7839 35.9236 41.1997 35.7377C40.3061 35.4534 39.7793 34.8253 39.5074 33.9537C39.354 33.461 39.2804 32.9469 39.2894 32.4309ZM44.051 32.2781C44.0729 31.9838 44.0229 31.6588 43.9592 31.3388C43.8598 30.8379 43.6536 30.387 43.1699 30.1622C42.2876 29.7508 41.2953 30.2305 41.0097 31.1641C40.7597 31.9894 40.7828 32.8116 41.0284 33.6287C41.1828 34.1409 41.4977 34.5098 42.0564 34.5918C42.7981 34.702 43.4311 34.5573 43.8061 33.707C44.0048 33.2655 44.0604 32.794 44.051 32.2781Z" fill="#7E91B4"/>
<path d="M53.5588 32.5642C53.5513 31.4997 53.7075 30.6706 54.2262 29.9487C54.8004 29.1497 55.6009 28.7758 56.567 28.7502C57.0982 28.7358 57.6206 28.7777 58.1242 28.9906C58.4505 29.1224 58.7458 29.321 58.9913 29.5736C59.2367 29.8262 59.4268 30.1273 59.5496 30.4577C60.0279 31.6722 60.0237 33.0241 59.5377 34.2355C59.1741 35.166 58.4329 35.692 57.4587 35.8523C56.7539 35.9675 56.0484 35.9512 55.3591 35.7032C54.6092 35.434 54.1312 34.9092 53.845 34.1841C53.6138 33.5999 53.5619 32.9869 53.5588 32.5642ZM58.308 32.2931C58.3136 31.9956 58.2894 31.6983 58.2355 31.4058C58.1605 31.0025 58.028 30.6137 57.6974 30.3413C56.9476 29.7245 55.7709 30.0175 55.376 30.9098C55.0048 31.7502 55.0473 32.6168 55.246 33.4809C55.376 34.0445 55.6834 34.4747 56.3046 34.593C57.135 34.7514 57.7368 34.4396 58.0842 33.6669C58.2823 33.2279 58.2936 32.7608 58.308 32.2931Z" fill="#7E91B4"/>
<path d="M82.8037 32.3426C82.8037 33.3745 82.8037 34.4068 82.8037 35.4396C82.8037 35.7402 82.7856 35.7571 82.4844 35.7583C82.1832 35.7596 81.8914 35.7533 81.5952 35.7583C81.3783 35.7627 81.289 35.6769 81.2915 35.4515C81.3002 34.63 81.2915 33.809 81.299 32.9875C81.299 32.789 81.2565 32.7145 81.0415 32.7176C80.2542 32.731 79.4664 32.731 78.6782 32.7176C78.4613 32.7139 78.4201 32.7909 78.4226 32.9881C78.432 33.7934 78.4276 34.5993 78.4263 35.4045C78.4263 35.7176 78.3895 35.7552 78.0776 35.7564C77.7658 35.7577 77.469 35.7564 77.1647 35.7564C76.9903 35.7564 76.9047 35.6763 76.9022 35.5028C76.9022 35.4402 76.9022 35.3776 76.9022 35.315C76.9022 33.3204 76.9022 31.3261 76.9022 29.3319C76.9022 28.9193 76.9366 28.8855 77.3396 28.8848C77.5971 28.8848 77.8545 28.8848 78.112 28.8848C78.3695 28.8848 78.4288 28.9474 78.4301 29.2048C78.4301 29.8779 78.4388 30.5504 78.4263 31.223C78.4226 31.4227 78.4851 31.4703 78.6763 31.4678C79.4637 31.4578 80.2523 31.454 81.0396 31.4678C81.2677 31.4722 81.3065 31.3926 81.3034 31.1891C81.2921 30.5323 81.2984 29.8742 81.2996 29.218C81.2996 28.9443 81.3571 28.8861 81.6283 28.8829C81.917 28.8829 82.2057 28.8829 82.4944 28.8829C82.7831 28.8829 82.8069 28.9155 82.8069 29.2167C82.8048 30.2599 82.8037 31.3019 82.8037 32.3426Z" fill="#7E91B4"/>
<path d="M84.471 32.3307C84.471 31.2979 84.471 30.2655 84.471 29.2336C84.471 28.9205 84.5041 28.8886 84.8221 28.8873C85.1265 28.8873 85.4308 28.8911 85.7345 28.8873C85.9307 28.8842 86.0132 28.9644 86.0107 29.1685C86.0032 29.8723 86.0107 30.5761 86.0038 31.2799C86.0038 31.4465 86.0313 31.5191 86.2182 31.5066C86.49 31.4897 86.7637 31.4979 87.0368 31.5066C87.0944 31.5106 87.152 31.4981 87.2029 31.4706C87.2537 31.4431 87.2958 31.4018 87.3242 31.3513C87.8447 30.5849 88.3734 29.8241 88.8964 29.0595C88.9267 29.0093 88.9697 28.9681 89.0211 28.9402C89.0725 28.9122 89.1304 28.8985 89.1889 28.9005C89.5638 28.9005 89.9388 28.9005 90.3137 28.9005C90.4237 28.9005 90.5212 28.9249 90.5718 29.0257C90.6224 29.1265 90.5368 29.1829 90.4893 29.253C89.9025 30.119 89.3232 30.9957 88.7283 31.8648C88.5921 32.0639 88.6034 32.2067 88.7358 32.4027C89.4114 33.4215 90.0725 34.4496 90.7355 35.4753C90.8524 35.6556 90.8067 35.7533 90.5918 35.7565C90.1625 35.7627 89.7338 35.7565 89.3045 35.7602C89.1726 35.7602 89.1127 35.6813 89.0502 35.5868C88.4878 34.7364 87.9154 33.8911 87.363 33.0339C87.2099 32.7959 87.0505 32.6531 86.7481 32.6982C86.5695 32.7183 86.3892 32.7183 86.2107 32.6982C86.0469 32.6857 86.0013 32.7402 86.0026 32.9049C86.0107 33.7421 86.0069 34.5786 86.0063 35.4158C86.0063 35.7496 86.0001 35.7558 85.6657 35.7565C85.3695 35.7565 85.0727 35.7565 84.7765 35.7565C84.4803 35.7565 84.4697 35.7364 84.4697 35.4503C84.4705 34.4108 84.471 33.3709 84.471 32.3307Z" fill="#7E91B4"/>
<path d="M46.8881 32.3363C46.8881 31.2956 46.8881 30.2551 46.8881 29.2149C46.8881 28.9281 46.9281 28.8893 47.2136 28.888C47.4992 28.8867 47.791 28.888 48.0797 28.888C48.3834 28.888 48.4197 28.9231 48.4203 29.2211C48.4203 29.863 48.4203 30.5042 48.4203 31.146C48.4203 31.5649 48.3791 31.496 48.7865 31.5017C48.9502 31.5017 49.1171 31.4829 49.2777 31.506C49.5476 31.5461 49.702 31.4221 49.8438 31.2086C50.3094 30.5085 50.7905 29.8185 51.2629 29.1228C51.3667 28.9694 51.4892 28.8849 51.6879 28.8943C52.0147 28.9099 52.3428 28.8974 52.6708 28.8993C52.7777 28.8993 52.897 28.8786 52.9639 28.9951C53.0308 29.1115 52.9414 29.2011 52.8827 29.2887C52.2757 30.1938 51.6679 31.098 51.0592 32.0013C51.029 32.0358 51.0119 32.0799 51.0111 32.1258C51.0103 32.1716 51.0258 32.2163 51.0549 32.2518C51.7343 33.2858 52.4113 34.3215 53.0858 35.3589C53.1186 35.4026 53.1479 35.4489 53.1732 35.4973C53.247 35.6595 53.1914 35.7546 53.0126 35.7565C52.5915 35.7615 52.1703 35.7565 51.7491 35.7609C51.611 35.7609 51.5335 35.6908 51.466 35.5893C50.8599 34.673 50.2544 33.7567 49.6495 32.8404C49.6266 32.7959 49.5912 32.759 49.5477 32.7343C49.5042 32.7096 49.4544 32.6982 49.4045 32.7014C49.1471 32.7077 48.889 32.7121 48.6321 32.7014C48.4665 32.6933 48.4197 32.7521 48.4209 32.9143C48.4278 33.7515 48.4247 34.5887 48.4209 35.4259C48.4209 35.7465 48.4078 35.759 48.0935 35.7597C47.7792 35.7603 47.4686 35.7528 47.1561 35.7597C46.9518 35.7659 46.8831 35.6801 46.8843 35.4797C46.8918 34.4328 46.8887 33.3846 46.8881 32.3363Z" fill="#7E91B4"/>
<path d="M61.2849 4.04004C61.8173 4.95426 62.3491 5.86869 62.8803 6.78332C63.3633 7.61864 63.8407 8.45834 64.3225 9.29491C64.7218 9.98996 65.1249 10.6831 65.5254 11.3782C65.9991 12.2004 66.4628 13.0307 66.9496 13.8441C67.5051 14.7671 67.4007 15.7946 66.6459 16.5404C65.7648 17.4101 64.1763 17.2292 63.5327 16.1647C63.0046 15.2924 62.5054 14.4026 61.9954 13.5191C61.3568 12.4141 60.7192 11.3079 60.0826 10.2004C59.8298 9.76245 59.5759 9.32517 59.3209 8.88852C59.3209 8.86848 59.3209 8.84907 59.3159 8.8259C59.4459 8.60862 59.5771 8.39196 59.7052 8.17343C59.8848 7.86702 60.0631 7.55978 60.2401 7.2517C60.4276 6.93047 60.6151 6.61175 60.7925 6.28551C61.0181 5.86785 61.2893 5.47774 61.3549 4.97743C61.3974 4.65307 61.2993 4.35438 61.2849 4.04004Z" fill="#7E91B4"/>
<path d="M59.3159 8.82904C59.3159 8.84908 59.3197 8.86849 59.3209 8.89166C59.071 9.19535 58.9147 9.55415 58.7179 9.88853C58.1336 10.8816 57.565 11.8841 56.9901 12.8829C56.3808 13.9424 55.7553 14.9937 55.166 16.0645C54.5036 17.268 52.6914 17.4496 51.8253 16.3776C51.2104 15.618 51.1748 14.6669 51.6935 13.8103C52.1972 12.9774 52.6733 12.1284 53.1595 11.2849C53.6456 10.4414 54.1362 9.58295 54.6249 8.73261C55.2497 7.64724 55.8746 6.5602 56.4995 5.47149C56.7326 5.06698 56.9638 4.66122 57.1975 4.25671C57.2194 4.21914 57.2357 4.16717 57.2963 4.17155C57.3002 4.27203 57.2973 4.37267 57.2875 4.47274C57.215 4.89077 57.2897 5.32105 57.4987 5.69003C57.8999 6.40888 58.3067 7.12459 58.7273 7.83217C58.9247 8.16404 59.0778 8.52284 59.3159 8.82904Z" fill="#7E91B4"/>
<path d="M59.3159 8.82904C59.0778 8.52033 58.9247 8.1616 58.7273 7.82722C58.3067 7.11965 57.8999 6.40393 57.4987 5.68508C57.2897 5.3161 57.215 4.88582 57.2875 4.46779C57.2973 4.36772 57.3002 4.26708 57.2963 4.1666L57.2963 4.17155C57.3694 4.14588 57.3537 4.0852 57.3506 4.0301C57.6887 3.26366 58.2405 2.7552 59.0947 2.67631C60.0027 2.59302 60.6944 2.96435 61.1418 3.77023C61.1906 3.85852 61.2374 3.94744 61.2849 4.03573C61.2993 4.34882 61.3974 4.64876 61.3543 4.97875C61.2918 5.47969 61.0181 5.86917 60.7919 6.28683C60.6157 6.61307 60.4251 6.93179 60.2395 7.25302C60.062 7.5611 59.8837 7.86834 59.7046 8.17475C59.5771 8.39767 59.4459 8.61426 59.3159 8.82904Z" fill="#7E91B4"/>
<path d="M57.2044 15.0282C57.2021 14.7489 57.2554 14.472 57.3613 14.2136C57.4671 13.9553 57.6234 13.7207 57.821 13.5237C58.0185 13.3267 58.2533 13.1712 58.5117 13.0663C58.77 12.9614 59.0466 12.9093 59.3253 12.913C60.5057 12.913 61.4262 13.8523 61.4243 15.0539C61.4246 15.3314 61.37 15.6063 61.2638 15.8627C61.1575 16.119 61.0018 16.3517 60.8054 16.5475C60.609 16.7432 60.3759 16.8981 60.1195 17.0032C59.8631 17.1082 59.5885 17.1614 59.3115 17.1597C58.1049 17.1572 57.1675 16.1591 57.2044 15.0282Z" fill="#7E91B4"/>
<path d="M57.3506 4.03438C57.3538 4.08948 57.3694 4.15022 57.2963 4.1759C57.2874 4.14966 57.2879 4.12113 57.2979 4.09527C57.3078 4.06941 57.3265 4.04786 57.3506 4.03438Z" fill="#7E91B4"/>
</svg>
