<svg width="120" height="36" viewBox="0 0 120 36" fill="none" xmlns="http://www.w3.org/2000/svg">
<path fill-rule="evenodd" clip-rule="evenodd" d="M60.4245 0C62.9657 0.108443 65.3636 1.22235 67.1032 3.10251C68.9493 5.03078 69.8807 7.33013 69.8807 9.99718C69.8807 12.7456 68.9008 15.1042 66.9694 17.0698C65.038 19.0353 62.6836 20.0198 59.9462 20.0198C57.2089 20.0198 54.9146 19.0234 52.9916 17.0664C51.0686 15.1093 50.0636 12.7625 50.0636 9.99718C50.0636 7.33352 50.9967 5.03417 52.8428 3.08726C53.7004 2.14989 54.733 1.39432 55.8809 0.86437C57.0288 0.334417 58.2691 0.0406162 59.5299 0V2.84496C57.7263 2.928 56.0291 3.73307 54.811 5.08331C54.1775 5.73358 53.6774 6.50457 53.3396 7.35175C53.0018 8.19894 52.8329 9.10554 52.8428 10.0192C52.8428 12.2898 53.7374 14.1519 55.5183 15.5837L58.2139 8.44338H56.3644C56.2676 8.41252 56.1645 8.40786 56.0654 8.42985C55.9662 8.45185 55.8745 8.49974 55.7992 8.56877C55.652 8.71539 55.4962 8.85289 55.3327 8.98052L55.3528 7.67241L55.5685 6.89975C55.665 6.48999 55.835 6.10172 56.0701 5.75431C56.4337 5.36267 56.9289 5.12327 57.458 5.08331H63.4294L62.5448 6.02881L64.5882 15.46C66.2214 14.0311 67.0441 12.2186 67.0564 10.0226C67.0651 8.18543 66.3731 6.41585 65.125 5.08331C64.5258 4.41432 63.8021 3.87189 62.9955 3.48718C62.1888 3.10247 61.3151 2.88306 60.4245 2.84157V0ZM58.1369 5.89834C57.948 5.89834 57.8543 6.01356 57.8543 6.22367C57.8543 6.43378 57.948 6.5185 58.1369 6.5185C58.371 6.5185 58.4848 6.42361 58.4848 6.22367C58.4848 6.02372 58.371 5.89834 58.1369 5.89834Z" fill="#7E91B4"/>
<path fill-rule="evenodd" clip-rule="evenodd" d="M92.1374 31.4725C91.9742 31.275 91.7692 31.1173 91.5376 31.0111C91.306 30.9049 91.0538 30.8529 90.7997 30.8591H89.5556V29.5323H92.1374V27.8972H87.6058V35.8966H90.798C91.0658 35.8994 91.3297 35.8319 91.5642 35.7006C91.7986 35.5694 91.9955 35.3789 92.1357 35.1477C92.5087 34.5855 92.6971 33.9184 92.6742 33.2415C92.6758 32.4247 92.507 31.8808 92.1374 31.4725ZM90.0555 33.8548H89.5539V32.7653H90.0555C90.2228 32.7653 90.2896 32.8331 90.3231 32.9348L90.4903 33.3431C90.492 33.6854 90.3231 33.8548 90.0555 33.8548Z" fill="#7E91B4"/>
<path fill-rule="evenodd" clip-rule="evenodd" d="M30.3402 27.8295H28.056L26.1079 35.8967H28.056L28.3905 34.7733H30.1362L30.3386 35.8967H32.3536L30.3402 27.8295ZM28.6681 33.106L29.2383 31.0727L29.6747 33.106H28.6681Z" fill="#7E91B4"/>
<path fill-rule="evenodd" clip-rule="evenodd" d="M9.53496 31.642L8.49319 27.8295H6.24243L5 35.8967H7.08187L7.82264 31.5742L8.86274 35.8967H10.1721L11.2138 31.5742L12.0198 35.8967H14.0365L12.7924 27.8295H10.5433L9.53496 31.642Z" fill="#7E91B4"/>
<path fill-rule="evenodd" clip-rule="evenodd" d="M19.747 29.7696V27.8295H15.0782V35.8967H19.747V33.9227H17.2604V32.6637H19.1768V30.893H17.2604V29.7696H19.747Z" fill="#7E91B4"/>
<path fill-rule="evenodd" clip-rule="evenodd" d="M21.9977 35.8967H24.0796V29.8374H25.5913V27.8295H20.4526V29.8374H21.9977V35.8967Z" fill="#7E91B4"/>
<path fill-rule="evenodd" clip-rule="evenodd" d="M33.0442 35.8967H35.2949L36.4705 29.7696H36.5708L37.8483 35.8967H40.0991L37.748 27.8295H35.2949L33.0442 35.8967Z" fill="#7E91B4"/>
<path fill-rule="evenodd" clip-rule="evenodd" d="M40.375 35.8967H42.6258L43.8013 29.7696H43.9016L45.1792 35.8967H47.4299L45.1457 27.8295H42.6592L40.375 35.8967Z" fill="#7E91B4"/>
<path fill-rule="evenodd" clip-rule="evenodd" d="M48.2426 27.8295V35.8967H50.2576L52.7759 31.8131V35.8967H54.8929V27.8295H52.9448L50.2576 32.0842V27.8295H48.2426Z" fill="#7E91B4"/>
<path fill-rule="evenodd" clip-rule="evenodd" d="M56.3009 27.8295V35.8967H58.4848V32.7654H60.366V35.8967H62.5164V27.8295H60.366V30.8592H58.4848V27.8295H56.3009Z" fill="#7E91B4"/>
<path fill-rule="evenodd" clip-rule="evenodd" d="M65.7521 30.5185H66.155C66.3574 30.5185 66.4895 30.349 66.4895 29.9407C66.4895 29.5323 66.3557 29.3612 66.155 29.3612H65.7521V30.5185ZM66.7554 27.66C67.359 27.6261 67.7587 27.8294 68.0312 28.2378C68.3639 28.6504 68.5416 29.169 68.5329 29.7018L68.3657 30.8879L67.8272 31.3962L68.7018 32.0418C68.9376 32.3807 69.0362 32.8246 69.1048 33.3363C69.0379 34.0836 68.869 34.6292 68.5329 35.1053C68.3444 35.2993 68.1198 35.4534 67.8721 35.5587C67.6244 35.664 67.3584 35.7184 67.0898 35.7187H63.804V27.66H66.7554ZM65.7521 32.4247V33.6108H66.2537C66.5229 33.6108 66.6902 33.4414 66.7554 33.0669L66.6534 32.5908L66.2504 32.4213L65.7521 32.4247Z" fill="#7E91B4"/>
<path fill-rule="evenodd" clip-rule="evenodd" d="M74.9541 29.7696V27.8295H70.2519V35.8967H74.8872V33.9227H72.5026V32.6637H74.3504V30.893H72.5026V29.7696H74.9541Z" fill="#7E91B4"/>
<path fill-rule="evenodd" clip-rule="evenodd" d="M75.7333 31.8808C75.7333 33.0669 76.0677 34.0243 76.7366 34.7732C77.4757 35.6204 78.3151 36 79.3569 36L80.499 35.8306V33.2415L79.693 33.4465C78.6897 33.4465 78.188 32.9382 78.188 31.8808C78.188 30.7913 78.6897 30.2813 79.693 30.2118L80.499 30.4507V27.8294L79.3285 27.66C78.8401 27.6528 78.357 27.7632 77.9189 27.9821C77.4809 28.201 77.1003 28.522 76.8085 28.919C76.0677 29.7018 75.7333 30.6896 75.7333 31.8808Z" fill="#7E91B4"/>
<path fill-rule="evenodd" clip-rule="evenodd" d="M83.019 35.8967H85.0691V29.8374H86.6476V27.8295H81.4405V29.8374H83.019V35.8967Z" fill="#7E91B4"/>
<path fill-rule="evenodd" clip-rule="evenodd" d="M97.9733 27.8972L99.9214 35.9644H97.9733L97.7041 34.8071H95.9667L95.6323 35.9644H93.6808L95.6323 27.8972H97.9733ZM97.2342 33.1737L96.8028 31.1319L96.2309 33.1737H97.2342Z" fill="#7E91B4"/>
<path fill-rule="evenodd" clip-rule="evenodd" d="M101.186 27.8295V35.8967H103.368V32.7654H105.149V35.8967H107.333V27.8295H105.149V30.8592H103.368V27.8295H101.186Z" fill="#7E91B4"/>
<path fill-rule="evenodd" clip-rule="evenodd" d="M108.766 27.8295V35.8967H110.747V32.4248L112.528 35.8967H114.946L112.459 31.7098L114.812 27.8295H112.595L110.747 31.1997V27.8295H108.766Z" fill="#7E91B4"/>
</svg>
