<svg width="66" height="20" viewBox="0 0 66 20" fill="none" xmlns="http://www.w3.org/2000/svg">
<path fill-rule="evenodd" clip-rule="evenodd" d="M33.2333 0C34.631 0.0596437 35.9498 0.672294 36.9066 1.70638C37.922 2.76693 38.4342 4.03157 38.4342 5.49845C38.4342 7.01006 37.8953 8.30732 36.833 9.38837C35.7708 10.4694 34.4759 11.0109 32.9703 11.0109C31.4648 11.0109 30.2029 10.4629 29.1453 9.3865C28.0876 8.31011 27.5349 7.01938 27.5349 5.49845C27.5349 4.03344 28.0481 2.7688 29.0634 1.698C29.5351 1.18244 30.103 0.766878 30.7344 0.475404C31.3657 0.183929 32.0479 0.0223389 32.7413 0V1.56473C31.7494 1.6104 30.8159 2.05319 30.1459 2.79582C29.7975 3.15347 29.5225 3.57751 29.3367 4.04346C29.1509 4.50942 29.058 5.00805 29.0634 5.51056C29.0634 6.75936 29.5555 7.78357 30.5349 8.57106L32.0175 4.64386H31.0003C30.9471 4.62689 30.8904 4.62432 30.8358 4.63642C30.7813 4.64852 30.7308 4.67486 30.6895 4.71282C30.6085 4.79347 30.5228 4.86909 30.4329 4.93928L30.4439 4.21983L30.5625 3.79486C30.6156 3.5695 30.7091 3.35594 30.8384 3.16487C31.0384 2.94947 31.3108 2.8178 31.6018 2.79582H34.886L34.3995 3.31584L35.5234 8.50302C36.4216 7.71709 36.8741 6.72022 36.8809 5.51243C36.8857 4.50199 36.5051 3.52872 35.8186 2.79582C35.4891 2.42788 35.0911 2.12954 34.6474 1.91795C34.2037 1.70636 33.7232 1.58569 33.2333 1.56286V0ZM31.9752 3.24408C31.8713 3.24408 31.8198 3.30746 31.8198 3.42302C31.8198 3.53858 31.8713 3.58517 31.9752 3.58517C32.1039 3.58517 32.1665 3.53299 32.1665 3.42302C32.1665 3.31305 32.1039 3.24408 31.9752 3.24408Z" fill="#7E91B4"/>
<path fill-rule="evenodd" clip-rule="evenodd" d="M50.6754 17.3099C50.5857 17.2012 50.4729 17.1145 50.3456 17.0561C50.2182 16.9977 50.0795 16.9691 49.9397 16.9725H49.2554V16.2428H50.6754V15.3435H48.1831V19.7432H49.9388C50.0861 19.7447 50.2312 19.7075 50.3602 19.6353C50.4891 19.5632 50.5974 19.4584 50.6745 19.3312C50.8796 19.022 50.9833 18.6551 50.9707 18.2828C50.9716 17.8336 50.8787 17.5345 50.6754 17.3099ZM49.5304 18.6202H49.2545V18.0209H49.5304C49.6224 18.0209 49.6592 18.0582 49.6776 18.1141L49.7695 18.3387C49.7705 18.527 49.6776 18.6202 49.5304 18.6202Z" fill="#7E91B4"/>
<path fill-rule="evenodd" clip-rule="evenodd" d="M16.687 15.3062H15.4307L14.3592 19.7432H15.4307L15.6146 19.1253H16.5748L16.6861 19.7432H17.7943L16.687 15.3062ZM15.7673 18.2083L16.0809 17.09L16.321 18.2083H15.7673Z" fill="#7E91B4"/>
<path fill-rule="evenodd" clip-rule="evenodd" d="M5.2441 17.4031L4.67113 15.3062H3.43321L2.74988 19.7432H3.8949L4.30233 17.3658L4.87438 19.7432H5.59451L6.16748 17.3658L6.61078 19.7432H7.71994L7.03568 15.3062H5.79868L5.2441 17.4031Z" fill="#7E91B4"/>
<path fill-rule="evenodd" clip-rule="evenodd" d="M10.8607 16.3733V15.3062H8.29291V19.7432H10.8607V18.6575H9.49312V17.9651H10.5471V16.9912H9.49312V16.3733H10.8607Z" fill="#7E91B4"/>
<path fill-rule="evenodd" clip-rule="evenodd" d="M12.0986 19.7432H13.2437V16.4106H14.0751V15.3062H11.2488V16.4106H12.0986V19.7432Z" fill="#7E91B4"/>
<path fill-rule="evenodd" clip-rule="evenodd" d="M18.1742 19.7432H19.4121L20.0586 16.3733H20.1138L20.8165 19.7432H22.0544L20.7613 15.3062H19.4121L18.1742 19.7432Z" fill="#7E91B4"/>
<path fill-rule="evenodd" clip-rule="evenodd" d="M22.2061 19.7432H23.444L24.0906 16.3733H24.1458L24.8484 19.7432H26.0863L24.83 15.3062H23.4624L22.2061 19.7432Z" fill="#7E91B4"/>
<path fill-rule="evenodd" clip-rule="evenodd" d="M26.5333 15.3062V19.7432H27.6416L29.0266 17.4972V19.7432H30.191V15.3062H29.1195L27.6416 17.6463V15.3062H26.5333Z" fill="#7E91B4"/>
<path fill-rule="evenodd" clip-rule="evenodd" d="M30.9654 15.3062V19.7432H32.1665V18.021H33.2012V19.7432H34.3839V15.3062H33.2012V16.9725H32.1665V15.3062H30.9654Z" fill="#7E91B4"/>
<path fill-rule="evenodd" clip-rule="evenodd" d="M36.1635 16.7852H36.3852C36.4964 16.7852 36.5691 16.692 36.5691 16.4674C36.5691 16.2428 36.4955 16.1487 36.3852 16.1487H36.1635V16.7852ZM36.7153 15.213C37.0473 15.1944 37.2672 15.3062 37.4171 15.5308C37.6 15.7577 37.6978 16.043 37.693 16.336L37.601 16.9883L37.3049 17.2679L37.7859 17.623C37.9155 17.8094 37.9698 18.0535 38.0075 18.335C37.9707 18.746 37.8778 19.0461 37.693 19.3079C37.5893 19.4146 37.4658 19.4994 37.3295 19.5573C37.1933 19.6152 37.047 19.6451 36.8993 19.6453H35.092V15.213H36.7153ZM36.1635 17.8336V18.486H36.4394C36.5875 18.486 36.6795 18.3928 36.7153 18.1868L36.6592 17.9249L36.4376 17.8317L36.1635 17.8336Z" fill="#7E91B4"/>
<path fill-rule="evenodd" clip-rule="evenodd" d="M41.2246 16.3733V15.3062H38.6384V19.7432H41.1878V18.6575H39.8763V17.9651H40.8926V16.9912H39.8763V16.3733H41.2246Z" fill="#7E91B4"/>
<path fill-rule="evenodd" clip-rule="evenodd" d="M41.6532 17.5345C41.6532 18.1868 41.8371 18.7134 42.205 19.1253C42.6115 19.5912 43.0732 19.8 43.6462 19.8L44.2743 19.7068V18.2828L43.831 18.3956C43.2792 18.3956 43.0033 18.116 43.0033 17.5345C43.0033 16.9352 43.2792 16.6547 43.831 16.6165L44.2743 16.7479V15.3062L43.6305 15.213C43.3619 15.2091 43.0962 15.2698 42.8553 15.3902C42.6143 15.5105 42.405 15.6871 42.2446 15.9054C41.8371 16.336 41.6532 16.8793 41.6532 17.5345Z" fill="#7E91B4"/>
<path fill-rule="evenodd" clip-rule="evenodd" d="M45.6603 19.7432H46.7879V16.4106H47.6561V15.3062H44.7921V16.4106H45.6603V19.7432Z" fill="#7E91B4"/>
<path fill-rule="evenodd" clip-rule="evenodd" d="M53.8852 15.3435L54.9567 19.7804H53.8852L53.7371 19.1439H52.7816L52.5976 19.7804H51.5243L52.5976 15.3435H53.8852ZM53.4787 18.2455L53.2414 17.1225L52.9269 18.2455H53.4787Z" fill="#7E91B4"/>
<path fill-rule="evenodd" clip-rule="evenodd" d="M55.652 15.3062V19.7432H56.8522V18.021H57.8316V19.7432H59.0328V15.3062H57.8316V16.9725H56.8522V15.3062H55.652Z" fill="#7E91B4"/>
<path fill-rule="evenodd" clip-rule="evenodd" d="M59.8209 15.3062V19.7432H60.9108V17.8336L61.8903 19.7432H63.2202L61.8526 17.4404L63.1466 15.3062H61.9271L60.9108 17.1599V15.3062H59.8209Z" fill="#7E91B4"/>
</svg>
