<svg width="120" height="36" viewBox="0 0 120 36" fill="none" xmlns="http://www.w3.org/2000/svg">
<path fill-rule="evenodd" clip-rule="evenodd" d="M19.3217 10.0271L11.5942 18.1059L7.70435 14.0517L11.5942 9.99146H3.7913L0 14.0517L11.6348 26.2145L21.5884 15.7281H27.5536L33.0435 10.0271H19.3217ZM13.258 26.0123L14.3594 24.865L22.029 16.917H33.0435L27.5362 22.6298H24.313L21.0377 26.0123H13.258ZM38.3768 20.2698L37.9246 22.4277L38.5391 22.3623L40.5797 20.2698H42.1043L39.4783 22.939L41.0667 25.9767H39.4493L38.2899 23.5453H37.6812L37.1652 25.9767H35.942L37.1768 20.2341H38.3768V20.2698ZM45.6058 20.2698C46.9043 20.2698 47.6174 21.0783 47.3449 22.3267C47.1965 22.9416 46.8466 23.4856 46.3537 23.8676C45.8609 24.2496 45.2551 24.4464 44.6377 24.4251H43.5304L43.2116 25.9767H41.9768L43.2116 20.2341H45.6058V20.2698ZM43.7623 23.3075H44.8638C45.1491 23.3273 45.4322 23.2434 45.6633 23.0706C45.8944 22.8978 46.0587 22.647 46.1275 22.3623C46.2551 21.7679 45.9942 21.4171 45.3159 21.4171H44.1565L43.7623 23.3075ZM53.0377 20.2698L52.7826 21.4171H49.8841L49.658 22.499H52.2493L52.0232 23.6107H49.4667L49.2058 24.7996H52.2551L51.9942 25.947H47.7449L48.9797 20.2044H53.0377V20.2698ZM59.6522 20.2698L58.6783 24.8294H59.4899L59.4261 25.1682L58.9043 27.1597H57.8029L58 25.9707H54.2957L53.971 27.1597H52.8116L53.171 25.1682L53.2348 24.8294H53.4609C53.6194 24.8094 53.7706 24.7496 53.9011 24.6552C54.0315 24.5608 54.1372 24.4348 54.2087 24.2884C54.7415 23.3252 55.1027 22.2724 55.2754 21.1793L55.4725 20.2341H59.6522V20.2698ZM56.4754 21.4171C56.2664 22.6257 55.8377 23.7832 55.2116 24.8294H57.4493L58.1623 21.4171H56.4754ZM62.9913 20.2698L62.1797 24.0863L65.658 20.2698H66.7246L65.5072 26.0123H64.2725L65.0493 22.398L61.7449 26.0123H60.5449L61.7797 20.2698H62.9913ZM75.0145 20.2698L74.5333 22.499H76.9275L77.4145 20.2698H78.6493L77.4145 26.0123H76.1855L76.6725 23.7118H74.2725L73.7855 26.0123H72.5797L73.8087 20.2698H75.0145ZM81.3391 20.2698L80.9507 22.0235H81.9884C83.2812 22.0235 83.9942 22.7368 83.7275 24.0209C83.5902 24.5966 83.2629 25.1058 82.8012 25.4623C82.3395 25.8188 81.7717 26.0005 81.1942 25.9767H78.8754L80.1101 20.2341H81.3101L81.3391 20.2698ZM80.3652 24.865H81.3681C81.6286 24.8938 81.8903 24.8238 82.1039 24.6683C82.3175 24.5128 82.4682 24.2825 82.5275 24.0209C82.6551 23.4264 82.3652 23.1767 81.7159 23.1767H80.742L80.3652 24.865ZM86.3768 20.2698L85.142 26.0123H83.913L85.142 20.2698H86.3768ZM89.0319 20.2698L88.2203 24.0863L91.6985 20.2698H92.7536L91.5246 26.0123H90.2898L91.0667 22.398L87.7623 26.0123H86.5623L87.7971 20.2698H89.0319ZM105.501 20.2698L106.533 26.0123H105.177L105.014 24.865H102.649L102.029 26.0123H100.696L104.174 20.2698H105.501ZM103.293 23.7474H104.852L104.591 21.5538H104.493L103.293 23.7474ZM72.9217 20.2698H67.7681L67.5072 21.4587H69.3913L68.4058 26.0123H69.6348L70.6087 21.4528H72.1971L72.9217 20.2698ZM97.3913 22.3267L97.5826 21.4528H100.046L100.759 20.2995H96.6087L95.3797 26.048H97.8783C98.4462 26.095 99.012 25.9338 99.4748 25.5931C99.9377 25.2523 100.268 24.7542 100.406 24.1873C100.713 22.9033 99.9362 22.3267 98.6725 22.3267H97.3913ZM96.8754 24.865L97.171 23.4442H98.4638C99.0145 23.4442 99.2754 23.7118 99.1768 24.1517C99.0783 24.5916 98.7362 24.865 98.1507 24.865H96.8754ZM110.006 20.2698L109.519 22.499H111.919L112.406 20.2698H113.623L112.394 26.0123H111.159L111.646 23.7118H109.246L108.759 26.0123H107.53L108.759 20.2698H110.006ZM116.296 20.2698L115.838 22.4277L116.458 22.3623L118.464 20.2698H120L117.374 22.939L118.962 25.9767H117.374L116.214 23.5453H115.594L115.072 25.9767H113.872L115.107 20.2341H116.307L116.296 20.2698ZM89.3217 18.3081L89.142 19.2949H91.9594L92.6725 18.314L89.3217 18.3081ZM40.6783 10.0271L41.687 12.6309L43.7623 10.0271H45.0899L43.8551 15.7756H42.6609L43.4783 11.9889H43.4145L41.6754 14.1825H41.0029L40.1971 11.9889H40.1275L39.3217 15.7756H38.1217L39.3507 10.0271H40.6783ZM51.4725 12.8687C51.2921 13.7038 50.8418 14.4519 50.1946 14.9914C49.5474 15.531 48.7413 15.8304 47.9072 15.841C46.1681 15.841 45.2812 14.557 45.6406 12.8687C45.8232 12.0414 46.2695 11.3 46.9088 10.7618C47.5481 10.2235 48.3441 9.91901 49.171 9.89635C50.9217 9.8904 51.8667 11.1745 51.4725 12.8687ZM46.8696 12.8687C46.6435 13.9149 47.1304 14.6937 48.1681 14.6937C48.6655 14.679 49.1429 14.4898 49.5206 14.1576C49.8983 13.8255 50.1535 13.3705 50.2435 12.8687C50.4696 11.8165 50.0174 11.0437 48.9449 11.0437C48.4485 11.0616 47.9727 11.252 47.5957 11.5836C47.2186 11.9152 46.9626 12.3683 46.8696 12.8687ZM57.1826 11.6144C57.0033 11.434 56.79 11.2931 56.5557 11.2001C56.3215 11.1071 56.0713 11.064 55.8203 11.0734C55.3113 11.0708 54.8177 11.2523 54.4264 11.5862C54.0351 11.92 53.7712 12.3847 53.6812 12.8984C53.4551 13.9803 54.0058 14.7234 55.0377 14.7234C55.6702 14.7098 56.281 14.4843 56.7768 14.0814L57.2985 14.9969C56.5714 15.5924 55.6668 15.9135 54.7362 15.9064C52.9971 15.9064 52.0812 14.7591 52.4696 12.9341C52.6506 12.0775 53.1136 11.311 53.7808 10.7632C54.448 10.2154 55.2787 9.91984 56.1333 9.92607C56.4928 9.90319 56.8528 9.96102 57.1882 10.0955C57.5236 10.23 57.8264 10.438 58.0754 10.7048L57.1826 11.6144ZM60.713 10.0271L60.2899 12.2267L60.8696 12.1613L62.8812 10.0331H64.4L61.7855 12.6963L63.3739 15.7281H61.7855L60.6261 13.2967H60L59.4841 15.7281H58.2841L59.513 9.97957H60.713V10.0271ZM70.2087 12.8687C70.0283 13.7038 69.578 14.4519 68.9308 14.9914C68.2836 15.531 67.4775 15.8304 66.6435 15.841C64.9044 15.841 64.0174 14.557 64.3768 12.8687C64.5595 12.0414 65.0057 11.3 65.645 10.7618C66.2844 10.2235 67.0803 9.91901 67.9072 9.89635C69.6927 9.8904 70.5971 11.1745 70.2087 12.8687ZM65.6058 12.8687C65.3797 13.9149 65.8667 14.6937 66.9044 14.6937C67.4027 14.6803 67.8815 14.4917 68.2604 14.1594C68.6393 13.8272 68.8953 13.3715 68.9855 12.8687C69.2116 11.8165 68.7594 11.0437 67.687 11.0437C67.1892 11.0592 66.7116 11.2486 66.3331 11.5805C65.9546 11.9124 65.698 12.3669 65.6058 12.8687ZM74.3942 10.0271C75.6232 10.0271 76.1739 10.6216 75.9826 11.5846C75.942 11.8052 75.8537 12.0137 75.7243 12.1947C75.5949 12.3757 75.4277 12.5248 75.2348 12.6309L75.2 12.6963C75.4451 12.7975 75.6445 12.9889 75.7592 13.233C75.874 13.4771 75.8957 13.7563 75.8203 14.016C75.6232 14.9612 74.8464 15.74 73.4203 15.74H70.7594L71.9942 9.99146H74.3942V10.0271ZM72.7072 12.2564H73.971C74.1492 12.2731 74.3272 12.2217 74.4706 12.1119C74.614 12.0022 74.7128 11.8419 74.7478 11.6619C74.8116 11.2874 74.6203 11.0674 74.1681 11.0674H72.9333L72.7072 12.2564ZM72.1855 14.6342H73.6232C74.1449 14.6342 74.4986 14.3965 74.5623 13.9566C74.6261 13.5167 74.4232 13.3502 73.9072 13.3502H72.4638L72.1855 14.6342ZM81.7391 11.6144C81.5611 11.4339 81.3488 11.2928 81.1155 11.1998C80.8822 11.1068 80.6328 11.0637 80.3826 11.0734C79.8732 11.0717 79.3794 11.2535 78.9874 11.587C78.5954 11.9206 78.3301 12.3847 78.2377 12.8984C78.0116 13.9803 78.5623 14.7234 79.6 14.7234C80.2325 14.7098 80.8433 14.4843 81.3391 14.0814L81.8609 14.9969C81.1337 15.5924 80.2291 15.9135 79.2985 15.9064C77.5594 15.9064 76.6377 14.7591 77.0319 12.9341C77.2127 12.0785 77.6749 11.3127 78.3409 10.7651C79.0068 10.2174 79.8362 9.92121 80.6899 9.92607C81.0502 9.90271 81.4112 9.9603 81.7477 10.0948C82.0841 10.2293 82.3878 10.4375 82.6377 10.7048L81.7391 11.6144ZM85.113 10.0271L84.6377 12.2267L85.2522 12.1613L87.2638 10.0331H88.7826L86.1565 12.6963L87.7449 15.7281H86.1565L84.9971 13.2967H84.3826L83.8609 15.7281H82.6667L83.8957 9.97957H85.0956L85.113 10.0271ZM91.1768 10.0271L90.3652 13.8436L93.8435 10.0271H94.9159L93.6812 15.7756H92.4522L93.1942 12.1613L89.8841 15.7816H88.6956L89.9246 10.0331L91.1768 10.0271ZM97.5942 10.0271L96.7826 13.8436L100.261 10.0271H101.333L100.099 15.7756H98.8986L99.6406 12.1613L96.3362 15.7816H95.1362L96.371 10.0331L97.5942 10.0271ZM97.8956 8L97.6985 8.98087H100.516L101.229 8H97.8956Z" fill="#7E91B4"/>
</svg>
