<svg width="66" height="20" viewBox="0 0 66 20" fill="none" xmlns="http://www.w3.org/2000/svg">
<path fill-rule="evenodd" clip-rule="evenodd" d="M10.627 5.51507L6.37681 9.95841L4.23739 7.72857L6.37681 5.49545H2.08522L0 7.72857L6.39913 14.4181L11.8736 8.65058H15.1545L18.1739 5.51507H10.627ZM7.29188 14.3069L7.89768 13.6759L12.1159 9.3045H18.1739L15.1449 12.4466H13.3722L11.5707 14.3069H7.29188ZM21.1072 11.1485L20.8586 12.3354L21.1965 12.2994L22.3188 11.1485H23.1574L21.713 12.6166L22.5867 14.2873H21.6971L21.0594 12.9501H20.7246L20.4409 14.2873H19.7681L20.4472 11.1289H21.1072V11.1485ZM25.0832 11.1485C25.7974 11.1485 26.1896 11.5932 26.0397 12.2798C25.9581 12.618 25.7656 12.9172 25.4946 13.1273C25.2235 13.3374 24.8903 13.4457 24.5507 13.434H23.9417L23.7664 14.2873H23.0872L23.7664 11.1289H25.0832V11.1485ZM24.0693 12.8193H24.6751C24.832 12.8302 24.9877 12.784 25.1148 12.689C25.2419 12.5939 25.3323 12.456 25.3701 12.2994C25.4403 11.9725 25.2968 11.7796 24.9238 11.7796H24.2861L24.0693 12.8193ZM29.1707 11.1485L29.0304 11.7796H27.4362L27.3119 12.3746H28.7371L28.6128 12.986H27.2067L27.0632 13.6399H28.7403L28.5968 14.271H26.2597L26.9388 11.1126H29.1707V11.1485ZM32.8087 11.1485L32.273 13.6563H32.7194L32.6843 13.8427L32.3974 14.938H31.7916L31.9 14.284H29.8626L29.6841 14.938H29.0464L29.2441 13.8427L29.2791 13.6563H29.4035C29.4906 13.6453 29.5738 13.6124 29.6456 13.5605C29.7173 13.5086 29.7755 13.4393 29.8148 13.3588C30.1078 12.829 30.3065 12.25 30.4014 11.6488L30.5099 11.1289H32.8087V11.1485ZM31.0614 11.7796C30.9465 12.4443 30.7107 13.0809 30.3664 13.6563H31.5971L31.9893 11.7796H31.0614ZM34.6452 11.1485L34.1988 13.2476L36.1119 11.1485H36.6985L36.029 14.3069H35.3499L35.7771 12.319L33.9597 14.3069H33.2997L33.9788 11.1485H34.6452ZM41.258 11.1485L40.9933 12.3746H42.3101L42.578 11.1485H43.2571L42.578 14.3069H41.902L42.1698 13.0416H40.8499L40.582 14.3069H39.9188L40.5948 11.1485H41.258ZM44.7365 11.1485L44.5229 12.1131H45.0936C45.8046 12.1131 46.1968 12.5054 46.0501 13.2116C45.9746 13.5283 45.7946 13.8084 45.5407 14.0044C45.2867 14.2005 44.9744 14.3004 44.6568 14.2873H43.3814L44.0606 11.1289H44.7206L44.7365 11.1485ZM44.2009 13.6759H44.7525C44.8957 13.6917 45.0396 13.6532 45.1571 13.5677C45.2746 13.4822 45.3575 13.3555 45.3901 13.2116C45.4603 12.8847 45.3009 12.7474 44.9438 12.7474H44.4081L44.2009 13.6759ZM47.5072 11.1485L46.8281 14.3069H46.1522L46.8281 11.1485H47.5072ZM48.9675 11.1485L48.5212 13.2476L50.4342 11.1485H51.0145L50.3386 14.3069H49.6594L50.0867 12.319L48.2693 14.3069H47.6093L48.2884 11.1485H48.9675ZM58.0258 11.1485L58.5933 14.3069H57.8472L57.758 13.6759H56.4571L56.1159 14.3069H55.3826L57.2957 11.1485H58.0258ZM56.811 13.0612H57.6687L57.5252 11.8548H57.471L56.811 13.0612ZM40.107 11.1485H37.2725L37.129 11.8024H38.1652L37.6232 14.3069H38.2991L38.8348 11.7992H39.7084L40.107 11.1485ZM53.5652 12.2798L53.6704 11.7992H55.0255L55.4177 11.1649H53.1348L52.4588 14.3266H53.833C54.1454 14.3524 54.4566 14.2637 54.7112 14.0763C54.9657 13.8889 55.1472 13.6149 55.2232 13.3032C55.3922 12.597 54.9649 12.2798 54.2699 12.2798H53.5652ZM53.2814 13.6759L53.4441 12.8945H54.1551C54.458 12.8945 54.6015 13.0416 54.5472 13.2836C54.493 13.5255 54.3049 13.6759 53.9829 13.6759H53.2814ZM60.5032 11.1485L60.2354 12.3746H61.5554L61.8232 11.1485H62.4928L61.8168 14.3069H61.1377L61.4055 13.0416H60.0855L59.8177 14.3069H59.1417L59.8177 11.1485H60.5032ZM63.9626 11.1485L63.7107 12.3354L64.0519 12.2994L65.1551 11.1485H66L64.5556 12.6166L65.4293 14.2873H64.5556L63.918 12.9501H63.5768L63.2899 14.2873H62.6299L63.309 11.1289H63.969L63.9626 11.1485ZM49.127 10.0696L49.0281 10.6123H50.5777L50.9699 10.0728L49.127 10.0696ZM22.373 5.51507L22.9278 6.94714L24.0693 5.51507H24.7994L24.1203 8.67674H23.4635L23.913 6.59403H23.878L22.9214 7.8005H22.5516L22.1084 6.59403H22.0701L21.627 8.67674H20.967L21.6429 5.51507H22.373ZM28.3099 7.07792C28.2107 7.53723 27.963 7.94867 27.607 8.24544C27.251 8.54221 26.8077 8.70688 26.349 8.71271C25.3925 8.71271 24.9046 8.00648 25.1023 7.07792C25.2028 6.6229 25.4482 6.21517 25.7998 5.91912C26.1515 5.62308 26.5893 5.4556 27.0441 5.44314C28.007 5.43987 28.5267 6.1461 28.3099 7.07792ZM25.7783 7.07792C25.6539 7.65337 25.9217 8.08168 26.4925 8.08168C26.766 8.07359 27.0286 7.96951 27.2363 7.78683C27.4441 7.60415 27.5844 7.35392 27.6339 7.07792C27.7583 6.49921 27.5096 6.07416 26.9197 6.07416C26.6467 6.08404 26.385 6.18874 26.1776 6.37112C25.9702 6.55349 25.8294 6.80271 25.7783 7.07792ZM31.4504 6.38804C31.3518 6.28887 31.2345 6.21134 31.1057 6.16019C30.9768 6.10904 30.8392 6.08533 30.7012 6.09051C30.4212 6.08906 30.1497 6.18893 29.9345 6.37254C29.7193 6.55615 29.5742 6.81172 29.5246 7.09427C29.4003 7.68933 29.7032 8.09803 30.2707 8.09803C30.6186 8.09052 30.9545 7.96651 31.2272 7.74491L31.5142 8.24843C31.1143 8.57594 30.6167 8.75255 30.1049 8.74867C29.1484 8.74867 28.6446 8.11764 28.8583 7.11389C28.9578 6.64279 29.2125 6.22118 29.5794 5.91991C29.9464 5.61864 30.4033 5.45606 30.8733 5.45949C31.071 5.4469 31.269 5.4787 31.4535 5.55268C31.638 5.62666 31.8045 5.74102 31.9414 5.8878L31.4504 6.38804ZM33.3922 5.51507L33.1594 6.72481L33.4783 6.68884L34.5846 5.51834H35.42L33.982 6.9831L34.8557 8.65058H33.982L33.3443 7.31333H33L32.7162 8.65058H32.0562L32.7322 5.48891H33.3922V5.51507ZM38.6148 7.07792C38.5156 7.53723 38.2679 7.94867 37.9119 8.24544C37.556 8.54221 37.1126 8.70688 36.6539 8.71271C35.6974 8.71271 35.2096 8.00648 35.4072 7.07792C35.5077 6.6229 35.7531 6.21517 36.1048 5.91912C36.4564 5.62308 36.8942 5.4556 37.349 5.44314C38.331 5.43987 38.8284 6.1461 38.6148 7.07792ZM36.0832 7.07792C35.9588 7.65337 36.2267 8.08168 36.7974 8.08168C37.0715 8.07433 37.3348 7.97059 37.5432 7.78784C37.7516 7.6051 37.8924 7.35446 37.942 7.07792C38.0664 6.49921 37.8177 6.07416 37.2278 6.07416C36.9541 6.08272 36.6914 6.18688 36.4832 6.36942C36.275 6.55196 36.1339 6.80192 36.0832 7.07792ZM40.9168 5.51507C41.5928 5.51507 41.8957 5.84203 41.7904 6.3717C41.7681 6.49301 41.7196 6.60765 41.6484 6.70723C41.5772 6.8068 41.4852 6.88878 41.3791 6.94714L41.36 6.9831C41.4948 7.03879 41.6045 7.14406 41.6676 7.27831C41.7307 7.41256 41.7427 7.56612 41.7012 7.70895C41.5928 8.22881 41.1655 8.65712 40.3812 8.65712H38.9177L39.5968 5.49545H40.9168V5.51507ZM39.989 6.74116H40.6841C40.7821 6.75038 40.88 6.72208 40.9588 6.66171C41.0377 6.60135 41.092 6.51318 41.1113 6.4142C41.1464 6.20822 41.0412 6.08724 40.7925 6.08724H40.1133L39.989 6.74116ZM39.702 8.04898H40.4928C40.7797 8.04898 40.9742 7.9182 41.0093 7.67625C41.0443 7.43431 40.9328 7.34276 40.649 7.34276H39.8551L39.702 8.04898ZM44.9565 6.38804C44.8586 6.28881 44.7419 6.21121 44.6135 6.16003C44.4852 6.10886 44.348 6.0852 44.2104 6.09051C43.9303 6.08958 43.6587 6.18957 43.4431 6.37302C43.2275 6.55647 43.0815 6.81174 43.0307 7.09427C42.9064 7.68933 43.2093 8.09803 43.78 8.09803C44.1279 8.09052 44.4638 7.96651 44.7365 7.74491L45.0235 8.24843C44.6236 8.57594 44.126 8.75255 43.6142 8.74867C42.6577 8.74867 42.1507 8.11764 42.3675 7.11389C42.467 6.64334 42.7212 6.22215 43.0875 5.92094C43.4538 5.61973 43.9099 5.45681 44.3794 5.45949C44.5776 5.44664 44.7762 5.47831 44.9612 5.55229C45.1462 5.62627 45.3133 5.74077 45.4507 5.8878L44.9565 6.38804ZM46.8122 5.51507L46.5507 6.72481L46.8887 6.68884L47.9951 5.51834H48.8304L47.3861 6.9831L48.2597 8.65058H47.3861L46.7484 7.31333H46.4104L46.1235 8.65058H45.4667L46.1426 5.48891H46.8026L46.8122 5.51507ZM50.1472 5.51507L49.7009 7.61413L51.6139 5.51507H52.2038L51.5246 8.67674H50.8487L51.2568 6.68884L49.4362 8.68001H48.7826L49.4585 5.51834L50.1472 5.51507ZM53.6768 5.51507L53.2304 7.61413L55.1435 5.51507H55.7333L55.0542 8.67674H54.3942L54.8023 6.68884L52.9849 8.68001H52.3249L53.0041 5.51834L53.6768 5.51507ZM53.8426 4.40015L53.7342 4.93963H55.2838L55.6759 4.40015H53.8426Z" fill="#7E91B4"/>
</svg>
