<svg width="120" height="36" viewBox="0 0 120 36" fill="none" xmlns="http://www.w3.org/2000/svg">
<path fill-rule="evenodd" clip-rule="evenodd" d="M47.4473 14.7701H51.5434V25.3215H55.9319V14.7701H60.028V10.8669H47.4473V14.7701Z" fill="#7E91B4"/>
<path fill-rule="evenodd" clip-rule="evenodd" d="M69.3898 14.7701H75.8252V10.8669H69.3898C63.4746 10.8669 60.3139 13.7736 60.3139 18.0953C60.3139 22.417 63.4703 25.3194 69.3855 25.3194H75.8209V21.4184H69.3898C66.6526 21.4184 64.8529 20.4537 64.8529 18.0953C64.8529 15.7368 66.6526 14.7701 69.3898 14.7701Z" fill="#7E91B4"/>
<path fill-rule="evenodd" clip-rule="evenodd" d="M38.5219 10.8669L36.1826 19.4955L33.8432 10.8669H26.0897V25.3215H30.4782V13.5653L33.6669 25.3215H38.6983L41.8891 13.5568V25.3215H46.2776V10.8669H38.5219Z" fill="#7E91B4"/>
<path fill-rule="evenodd" clip-rule="evenodd" d="M15.8506 26.1905C11.8061 26.1905 10 22.9843 10 19.8035C10 17.632 10.7418 15.1291 11.9868 13.1106C13.1822 11.1601 14.6293 10 15.8506 10C17.0719 10 18.5168 11.1601 19.7209 13.1106C20.9594 15.1312 21.7034 17.632 21.7034 19.8035C21.7034 22.9843 19.8908 26.1905 15.8506 26.1905Z" fill="#7E91B4"/>
<path fill-rule="evenodd" clip-rule="evenodd" d="M83.8303 15.0568H82.2822V16.4698H83.8303C84.2217 16.4698 84.456 16.2722 84.456 15.9046V15.6433C84.456 15.2651 84.2539 15.0568 83.8303 15.0568ZM84.2217 18.0952H80.2137V10.8711H86.116V12.6007H82.2887V13.544H84.2238C85.8472 13.544 86.6298 14.3387 86.6298 15.7431C86.6277 17.2241 85.845 18.0952 84.2217 18.0952Z" fill="#7E91B4"/>
<path fill-rule="evenodd" clip-rule="evenodd" d="M89.7712 15.1398H91.4054L90.5883 12.469L89.7712 15.1398ZM92.2805 10.8648L94.5382 18.0889H92.302L91.8719 16.7057H89.2917L88.8789 18.0889H86.9438L89.2014 10.8648H92.2805Z" fill="#7E91B4"/>
<path fill-rule="evenodd" clip-rule="evenodd" d="M99.7673 18.0953V15.297H97.4022V18.0953H95.2821V10.8648H97.4022V13.5165H99.7673V10.8648H101.887V18.0953H99.7673Z" fill="#7E91B4"/>
<path fill-rule="evenodd" clip-rule="evenodd" d="M105.28 13.5165H105.652L107.551 10.8648H109.787L107.349 14.3133L110 18.0953H107.551L105.588 15.297H105.28V18.0953H103.16V10.8648H105.28V13.5165Z" fill="#7E91B4"/>
</svg>
