<svg width="66" height="20" viewBox="0 0 66 20" fill="none" xmlns="http://www.w3.org/2000/svg">
<path fill-rule="evenodd" clip-rule="evenodd" d="M26.096 8.12329H28.3489V13.9266H30.7625V8.12329H33.0154V5.97657H26.096V8.12329Z" fill="#7E91B4"/>
<path fill-rule="evenodd" clip-rule="evenodd" d="M38.1644 8.12329H41.7039V5.97657H38.1644C34.9111 5.97657 33.1726 7.57522 33.1726 9.95216C33.1726 12.3291 34.9087 13.9254 38.162 13.9254H41.7015V11.7799H38.1644C36.6589 11.7799 35.6691 11.2493 35.6691 9.95216C35.6691 8.65501 36.6589 8.12329 38.1644 8.12329Z" fill="#7E91B4"/>
<path fill-rule="evenodd" clip-rule="evenodd" d="M21.1871 5.97657L19.9004 10.7223L18.6138 5.97657H14.3493V13.9266H16.763V7.4607L18.5168 13.9266H21.284L23.039 7.45602V13.9266H25.4527V5.97657H21.1871Z" fill="#7E91B4"/>
<path fill-rule="evenodd" clip-rule="evenodd" d="M8.71783 14.4045C6.49338 14.4045 5.5 12.6411 5.5 10.8917C5.5 9.69738 5.90799 8.32077 6.59272 7.21059C7.25024 6.13781 8.04612 5.49976 8.71783 5.49976C9.38955 5.49976 10.1842 6.13781 10.8465 7.21059C11.5277 8.32193 11.9369 9.69738 11.9369 10.8917C11.9369 12.6411 10.9399 14.4045 8.71783 14.4045Z" fill="#7E91B4"/>
<path fill-rule="evenodd" clip-rule="evenodd" d="M46.1067 8.28102H45.2552V9.05814H46.1067C46.3219 9.05814 46.4508 8.94946 46.4508 8.74729V8.60355C46.4508 8.39554 46.3396 8.28102 46.1067 8.28102ZM46.3219 9.95212H44.1176V5.97887H47.3638V6.93011H45.2588V7.44897H46.3231C47.216 7.44897 47.6464 7.88603 47.6464 8.65848C47.6452 9.473 47.2148 9.95212 46.3219 9.95212Z" fill="#7E91B4"/>
<path fill-rule="evenodd" clip-rule="evenodd" d="M49.3742 8.32665H50.273L49.8236 6.85771L49.3742 8.32665ZM50.7543 5.97542L51.996 9.94867H50.7661L50.5296 9.18791H49.1105L48.8834 9.94867H47.8191L49.0608 5.97542H50.7543Z" fill="#7E91B4"/>
<path fill-rule="evenodd" clip-rule="evenodd" d="M54.872 9.95218V8.41313H53.5712V9.95218H52.4052V5.97542H53.5712V7.43384H54.872V5.97542H56.0381V9.95218H54.872Z" fill="#7E91B4"/>
<path fill-rule="evenodd" clip-rule="evenodd" d="M57.9042 7.43384H58.1088L59.153 5.97542H60.3829L59.0418 7.87206L60.5 9.95218H59.153L58.0733 8.41313H57.9042V9.95218H56.7382V5.97542H57.9042V7.43384Z" fill="#7E91B4"/>
</svg>
