<svg width="120" height="36" viewBox="0 0 120 36" fill="none" xmlns="http://www.w3.org/2000/svg">
<path fill-rule="evenodd" clip-rule="evenodd" d="M0 17.8105C-2.3971e-06 14.6807 1.24853 11.6788 3.47134 9.46436C5.69415 7.24988 8.70946 6.00386 11.8549 6V10.2722C10.3559 10.2751 8.89146 10.7204 7.64689 11.5518C6.40233 12.3831 5.4336 13.5632 4.86331 14.9426C4.29302 16.322 4.1468 17.8387 4.44316 19.3008C4.73951 20.7629 5.46513 22.1047 6.52817 23.1563C7.5912 24.2079 8.94388 24.9221 10.415 25.2085C11.8861 25.4949 13.4096 25.3406 14.7925 24.7651C16.1755 24.1897 17.3558 23.2189 18.1841 21.9758C19.0124 20.7326 19.4514 19.2729 19.4456 17.7813H23.7392C23.7411 19.3323 23.436 20.8685 22.8413 22.3021C22.2465 23.7358 21.3738 25.0388 20.273 26.1369C19.1722 27.2349 17.8648 28.1065 16.4254 28.7018C14.9861 29.2971 13.443 29.6045 11.8842 29.6064C10.3255 29.6083 8.78165 29.3047 7.34083 28.713C5.90001 28.1212 4.59044 27.2528 3.48688 26.1575C2.38333 25.0621 1.50741 23.7612 0.909126 22.3291C0.310846 20.8969 0.00192434 19.3615 0 17.8105Z" fill="#7E91B4"/>
<path d="M6.62352 17.8105C6.62062 16.7717 6.92755 15.7554 7.50545 14.8903C8.08335 14.0252 8.90623 13.3501 9.86992 12.9506C10.8336 12.551 11.8948 12.445 12.9191 12.6459C13.9433 12.8468 14.8847 13.3456 15.6239 14.0791C16.3632 14.8126 16.8671 15.7479 17.0718 16.7665C17.2765 17.7851 17.1729 18.8413 16.7741 19.8013C16.3752 20.7613 15.6991 21.5819 14.8312 22.1594C13.9634 22.7368 12.9429 23.045 11.8989 23.045C10.5023 23.045 9.16271 22.494 8.17381 21.5127C7.18491 20.5315 6.6274 19.2001 6.62352 17.8105Z" fill="#7E91B4"/>
<path d="M15.5477 11.1762C15.5477 10.5821 15.7247 10.0014 16.0564 9.50745C16.3881 9.0135 16.8596 8.62852 17.4112 8.40118C17.9628 8.17384 18.5697 8.11436 19.1553 8.23025C19.7409 8.34615 20.2787 8.63222 20.7009 9.05229C21.1231 9.47236 21.4106 10.0076 21.527 10.5902C21.6435 11.1729 21.5837 11.7768 21.3553 12.3256C21.1268 12.8745 20.7399 13.3436 20.2435 13.6736C19.747 14.0037 19.1634 14.1798 18.5664 14.1798C17.7658 14.1798 16.9979 13.8634 16.4318 13.3001C15.8657 12.7368 15.5477 11.9728 15.5477 11.1762Z" fill="#7E91B4"/>
<path d="M108.218 14.1507L107.852 15.9441C106.973 19.8372 106.68 21.0912 105.932 24.9551L105.771 25.1009H103.397L103.28 24.9551L104.232 20.96L104.511 19.6623C103.485 19.6623 102.474 19.6623 101.448 19.6623H99.426C99.0743 21.2224 98.7813 22.5784 98.3417 24.9259L98.1658 25.0718H95.7919L95.6747 24.9551L96.6272 20.96L97.0082 19.2248C97.483 17.3009 97.8596 15.3543 98.1365 13.3925L98.2977 13.2904C99.3821 13.1446 99.6459 13.1009 100.76 12.8676L100.877 13.028L100.628 14.1799L100.261 15.9733L99.8803 17.6647H104.98C105.302 16.2066 105.434 15.3609 105.727 13.4508L105.888 13.2904C106.716 13.1908 107.537 13.0497 108.35 12.8676L108.438 12.9988L108.189 14.1507" fill="#7E91B4"/>
<path d="M79.5995 19.356C79.7694 18.7031 79.8628 18.0328 79.8779 17.3584C79.8779 14.9964 78.4125 14.6027 77.4893 14.6027C73.8112 14.6027 73.3423 20.2892 73.3423 21.1495C73.2932 21.4871 73.3187 21.8314 73.417 22.1582C73.5153 22.4851 73.6839 22.7867 73.9113 23.0421C74.1387 23.2974 74.4192 23.5004 74.7335 23.6369C75.0477 23.7734 75.3881 23.8401 75.7309 23.8323C78.2367 23.8323 79.1745 21.2661 79.5995 19.356ZM82.032 20.0851C81.5191 22.0972 80.0831 25.5675 75.6869 25.5675C75.0341 25.6527 74.3704 25.588 73.7467 25.3783C73.123 25.1686 72.5559 24.8194 72.0889 24.3576C71.622 23.8958 71.2676 23.3336 71.0531 22.7143C70.8385 22.095 70.7694 21.435 70.8512 20.7849C70.8516 20.3359 70.8859 19.8875 70.9537 19.4435V19.079C71.8036 13.8299 74.0896 8.8724 79.1159 8.8724C80.1001 8.87096 81.0817 8.77329 82.0467 8.58078L81.7682 10.6075C80.6993 10.8399 79.6092 10.962 78.5151 10.972C77.6596 10.9446 76.8278 11.2537 76.1998 11.8323C75.9657 12.0511 75.7634 12.3014 75.599 12.5759C75.4663 12.776 75.3488 12.9855 75.2473 13.2029C75.971 12.9678 76.728 12.8496 77.4893 12.853C78.1459 12.7746 78.8118 12.8446 79.4374 13.0579C80.063 13.2711 80.6322 13.622 81.1026 14.0845C81.573 14.5469 81.9325 15.109 82.1543 15.7289C82.3761 16.3488 82.4545 17.0104 82.3837 17.6646C82.3724 18.4813 82.2642 19.2937 82.0613 20.0851" fill="#7E91B4"/>
<path d="M112.248 17.9271C112.805 17.446 113.127 17.1398 113.889 16.4691C114.651 15.7983 116.688 13.6404 117.069 13.2467L117.318 13.1009H120V13.3196L118.71 14.3986C118.344 14.7048 118.11 14.9381 117.67 15.3317L114.71 18.0584L118.329 24.9551L118.183 25.1447L115.589 25.2176L115.413 25.0718C114.798 23.6137 114.637 23.3075 113.801 21.6161L112.175 18.2625C111.662 20.5809 111.369 22.0389 110.768 24.9551L110.592 25.0863L108.218 25.1592L108.101 24.9551L109.068 20.96L109.435 19.2248C109.912 17.3023 110.284 15.3553 110.548 13.3925L110.709 13.2904C111.542 13.1909 112.368 13.0497 113.186 12.8676L113.303 13.028L113.054 14.1799L112.688 15.9441L112.248 17.9271Z" fill="#7E91B4"/>
<path d="M91.6156 22.1555C91.3705 22.3765 91.1111 22.581 90.8389 22.7679C90.2174 23.1161 89.5153 23.297 88.8021 23.2929C88.4243 23.2982 88.0496 23.2248 87.702 23.0776C87.3544 22.9304 87.0416 22.7125 86.7836 22.4379C86.5256 22.1634 86.3281 21.8382 86.2038 21.4832C86.0795 21.1282 86.0311 20.7513 86.0618 20.3767C86.0934 19.4438 86.335 18.5299 86.7686 17.7022C87.2023 16.8745 87.817 16.1541 88.5676 15.5942C89.6897 14.8992 90.999 14.5633 92.319 14.6318H93.374L91.6889 22.141L91.6156 22.1555ZM96.1729 13.0717L96.0557 12.8821H92.7439C91.3982 12.7476 90.0393 12.9192 88.77 13.384C87.5007 13.8488 86.3541 14.5946 85.417 15.565C84.2526 16.9863 83.5886 18.7482 83.5267 20.5808C83.4767 21.1779 83.5543 21.7788 83.7545 22.344C83.9548 22.9091 84.273 23.4256 84.6883 23.8595C85.1036 24.2934 85.6066 24.6349 86.1641 24.8614C86.7216 25.0879 87.321 25.1944 87.9228 25.1738C89.1724 25.2225 90.3937 24.7949 91.3372 23.9782L91.176 24.9113L91.2932 25.0717H93.4913L93.6671 24.9113C94.1214 22.141 94.2972 21.2515 95.1325 17.6209L96.1729 13.0717Z" fill="#7E91B4"/>
<path d="M34.3632 25.4946C31.8281 25.4946 28.1646 24.6927 29.4981 18.8604C29.7606 16.8959 30.7565 15.1017 32.2879 13.8346C33.8192 12.5675 35.7738 11.9204 37.7629 12.0219C43.8442 12.0219 42.9503 16.994 42.5693 18.7437C41.4556 23.672 38.4223 25.4946 34.3632 25.4946ZM35.1691 22.9284C36.9422 22.9284 37.7775 21.0766 38.3197 18.6854C38.7007 17.0086 39.1257 14.559 36.9715 14.559C35.1398 14.559 34.3192 16.3087 33.777 18.6854C33.2348 21.0621 33.1616 22.9284 35.1691 22.9284Z" fill="#7E91B4"/>
<path d="M49.2368 25.203C48.0645 25.203 46.1302 25.203 45.3242 25.203L45.1777 25.0572C45.4121 24.2844 45.9543 22.141 46.5405 19.6331C47.0094 17.5626 47.4197 15.74 47.5809 14.9089C46.5991 14.9089 45.0898 14.9089 44.3424 14.9089L44.2105 14.7339C44.4157 14.107 44.6794 13.0134 44.8553 12.3573L45.0751 12.226C45.7345 12.226 48.2257 12.226 50.2186 12.226C52.6365 12.226 54.9957 12.226 55.4939 12.226L55.6845 12.4156C55.5086 12.9988 55.1862 14.1944 55.025 14.7923L54.8052 14.9381H51.6693C51.5521 15.463 51.1711 17.0231 50.541 19.7935C50.072 21.8931 49.6764 23.8178 49.4566 25.028L49.2368 25.203Z" fill="#7E91B4"/>
<path d="M62.8209 15.2296H60.7547C60.6374 15.7691 60.1539 17.7667 59.7142 19.706C59.2014 21.9952 58.7324 24.0802 58.5566 25.028L58.3221 25.1738C57.1352 25.1738 55.5965 25.1738 54.3656 25.1738L54.2337 25.028C54.4828 24.0365 55.1276 21.3099 55.6991 18.6124C56.2706 15.9149 56.8568 13.2029 57.0326 12.4593L57.2378 12.2843C58.5566 12.2843 59.8901 12.2843 63.1725 12.2843C65.737 12.2843 68.2134 12.2843 69.5469 12.1968L69.6495 12.3426C69.4883 12.9988 68.741 16.1337 68.0376 19.2394C67.4661 21.7473 66.9532 24.2552 66.8067 24.9551L66.6308 25.1009C65.5758 25.1009 63.7001 25.1009 62.645 25.1009L62.5424 24.9259C62.7476 24.0802 63.2165 22.1118 63.7733 19.6768C64.1983 17.825 64.6233 15.8566 64.7845 15.1276H62.7915" fill="#7E91B4"/>
</svg>
