<svg width="66" height="20" viewBox="0 0 66 20" fill="none" xmlns="http://www.w3.org/2000/svg">
<path fill-rule="evenodd" clip-rule="evenodd" d="M0 9.79557C-1.3184e-06 8.07418 0.68669 6.42317 1.90924 5.2052C3.13178 3.98724 4.7902 3.30193 6.52021 3.2998V5.64951C5.69575 5.6511 4.8903 5.89602 4.20579 6.35327C3.52128 6.81052 2.98848 7.45955 2.67482 8.21822C2.36116 8.97689 2.28074 9.81109 2.44374 10.6152C2.60673 11.4194 3.00582 12.1574 3.59049 12.7358C4.17516 13.3142 4.91913 13.707 5.72825 13.8645C6.53737 14.022 7.37527 13.9371 8.13589 13.6206C8.89652 13.3041 9.54569 12.7702 10.0012 12.0865C10.4568 11.4027 10.6983 10.5999 10.6951 9.77953H13.0565C13.0576 10.6326 12.8898 11.4775 12.5627 12.266C12.2356 13.0545 11.7556 13.7712 11.1502 14.3751C10.5447 14.979 9.82562 15.4584 9.03398 15.7858C8.24234 16.1132 7.39363 16.2823 6.53633 16.2833C5.67902 16.2844 4.82991 16.1174 4.03746 15.7919C3.245 15.4665 2.52474 14.9889 1.91779 14.3864C1.31083 13.784 0.829073 13.0685 0.500019 12.2808C0.170965 11.4931 0.00105839 10.6486 0 9.79557Z" fill="#7E91B4"/>
<path d="M3.64294 9.79558C3.64134 9.22424 3.81015 8.66528 4.128 8.18946C4.44584 7.71364 4.89843 7.34236 5.42845 7.12262C5.95848 6.90288 6.54212 6.84456 7.10548 6.95505C7.66883 7.06554 8.18658 7.33986 8.59316 7.7433C8.99974 8.14673 9.27688 8.66113 9.38949 9.22137C9.5021 9.78162 9.44511 10.3625 9.22574 10.8905C9.00638 11.4185 8.6345 11.8699 8.15718 12.1875C7.67987 12.505 7.11858 12.6746 6.54439 12.6746C5.77627 12.6746 5.03949 12.3715 4.4956 11.8318C3.9517 11.2921 3.64507 10.5599 3.64294 9.79558Z" fill="#7E91B4"/>
<path d="M8.55123 6.14671C8.55123 5.81997 8.6486 5.50057 8.83103 5.2289C9.01347 4.95723 9.27277 4.74549 9.57614 4.62045C9.87952 4.49542 10.2133 4.4627 10.5354 4.52644C10.8575 4.59019 11.1533 4.74753 11.3855 4.97856C11.6177 5.2096 11.7758 5.50396 11.8399 5.82442C11.9039 6.14488 11.8711 6.47704 11.7454 6.77891C11.6197 7.08077 11.4069 7.33878 11.1339 7.52031C10.8609 7.70183 10.5399 7.79872 10.2115 7.79872C9.77117 7.79872 9.34887 7.62467 9.03751 7.31486C8.72615 7.00505 8.55123 6.58485 8.55123 6.14671Z" fill="#7E91B4"/>
<path d="M59.5201 7.78269L59.3186 8.76908C58.835 10.9103 58.6738 11.6 58.2628 13.7251L58.1741 13.8053H56.8685L56.804 13.7251L57.3279 11.5278L57.481 10.814C56.9168 10.814 56.3607 10.814 55.7966 10.814H54.6843C54.4909 11.6721 54.3297 12.4179 54.0879 13.7091L53.9912 13.7893H52.6856L52.6211 13.7251L53.1449 11.5278L53.3545 10.5735C53.6157 9.51531 53.8228 8.44468 53.9751 7.36568L54.0637 7.30954C54.6601 7.22935 54.8052 7.20529 55.4178 7.07698L55.4822 7.16519L55.3452 7.79873L55.1437 8.78512L54.9342 9.71538H57.7389C57.9162 8.91343 57.9888 8.4483 58.15 7.39775L58.2386 7.30954C58.6936 7.25476 59.1455 7.17714 59.5926 7.07698L59.641 7.14915L59.504 7.78269" fill="#7E91B4"/>
<path d="M43.7797 10.6456C43.8731 10.2865 43.9245 9.91782 43.9328 9.54695C43.9328 8.2478 43.1269 8.03127 42.6191 8.03127C40.5962 8.03127 40.3383 11.1589 40.3383 11.632C40.3113 11.8177 40.3253 12.0071 40.3793 12.1868C40.4334 12.3666 40.5262 12.5325 40.6512 12.6729C40.7763 12.8134 40.9306 12.925 41.1034 13.0001C41.2762 13.0752 41.4634 13.1119 41.652 13.1076C43.0302 13.1076 43.546 11.6962 43.7797 10.6456ZM45.1176 11.0466C44.8355 12.1533 44.0457 14.0619 41.6278 14.0619C41.2688 14.1088 40.9037 14.0732 40.5607 13.9579C40.2176 13.8425 39.9057 13.6505 39.6489 13.3965C39.3921 13.1425 39.1972 12.8333 39.0792 12.4927C38.9612 12.152 38.9232 11.789 38.9681 11.4315C38.9684 11.1845 38.9872 10.9379 39.0246 10.6937V10.4932C39.492 7.60624 40.7493 4.87962 43.5137 4.87962C44.055 4.87884 44.5949 4.82511 45.1257 4.71923L44.9725 5.83394C44.3846 5.96174 43.7851 6.02892 43.1833 6.03443C42.7128 6.01932 42.2553 6.18932 41.9099 6.50757C41.7811 6.6279 41.6699 6.76557 41.5794 6.91657C41.5065 7.02659 41.4418 7.14185 41.386 7.2614C41.7841 7.13208 42.2004 7.0671 42.6191 7.06894C42.9802 7.02584 43.3465 7.06436 43.6906 7.18163C44.0347 7.2989 44.3477 7.4919 44.6064 7.74625C44.8652 8.00061 45.0629 8.30976 45.1849 8.65069C45.3069 8.99162 45.35 9.35555 45.311 9.71536C45.3048 10.1645 45.2453 10.6113 45.1337 11.0466" fill="#7E91B4"/>
<path d="M61.7365 9.85973C62.0427 9.59509 62.2201 9.42668 62.6392 9.05778C63.0583 8.68889 64.1785 7.50201 64.3881 7.28548L64.5251 7.20529H66V7.32558L65.2908 7.91902C65.0893 8.08743 64.9603 8.21574 64.7185 8.43227L63.0905 9.93191L65.0812 13.7251L65.0006 13.8294L63.5741 13.8695L63.4773 13.7893C63.1388 12.9873 63.0502 12.8189 62.5908 11.8887L61.6962 10.0442C61.4141 11.3193 61.2529 12.1212 60.9225 13.7251L60.8257 13.7973L59.5201 13.8374L59.4556 13.7251L59.9875 11.5278L60.189 10.5735C60.4516 9.51605 60.656 8.4452 60.8016 7.36568L60.8902 7.30954C61.3479 7.25477 61.8025 7.17715 62.2523 7.07698L62.3168 7.16519L62.1798 7.79873L61.9783 8.76908L61.7365 9.85973Z" fill="#7E91B4"/>
<path d="M50.3886 12.1854C50.2538 12.3069 50.1111 12.4194 49.9614 12.5222C49.6196 12.7137 49.2334 12.8132 48.8411 12.8109C48.6334 12.8138 48.4273 12.7735 48.2361 12.6925C48.0449 12.6115 47.8729 12.4917 47.731 12.3407C47.5891 12.1897 47.4804 12.0108 47.4121 11.8156C47.3437 11.6203 47.3171 11.413 47.334 11.207C47.3514 10.6939 47.4842 10.1912 47.7228 9.73599C47.9613 9.28077 48.2994 8.88457 48.7122 8.5766C49.3293 8.19437 50.0495 8.00964 50.7754 8.04731H51.3557L50.4289 12.1773L50.3886 12.1854ZM52.8951 7.18923L52.8306 7.08498H51.0092C50.269 7.011 49.5216 7.10539 48.8235 7.36102C48.1254 7.61665 47.4948 8.02683 46.9794 8.56056C46.3389 9.34225 45.9737 10.3113 45.9397 11.3193C45.9122 11.6477 45.9549 11.9782 46.065 12.289C46.1751 12.5998 46.3501 12.8839 46.5786 13.1225C46.807 13.3612 47.0836 13.549 47.3902 13.6736C47.6969 13.7982 48.0265 13.8567 48.3576 13.8454C49.0448 13.8722 49.7165 13.637 50.2354 13.1878L50.1468 13.701L50.2113 13.7893H51.4202L51.5169 13.701C51.7668 12.1773 51.8635 11.6882 52.3229 9.6913L52.8951 7.18923Z" fill="#7E91B4"/>
<path d="M18.8997 14.0219C17.5054 14.0219 15.4905 13.5808 16.224 10.373C16.3683 9.29255 16.9161 8.30574 17.7583 7.60884C18.6006 6.91195 19.6756 6.55603 20.7696 6.61187C24.1143 6.61187 23.6227 9.34651 23.4131 10.3088C22.8006 13.0194 21.1323 14.0219 18.8997 14.0219ZM19.343 12.6104C20.3182 12.6104 20.7776 11.592 21.0758 10.2768C21.2854 9.35453 21.5191 8.00726 20.3344 8.00726C19.3269 8.00726 18.8756 8.96959 18.5774 10.2768C18.2792 11.5839 18.2389 12.6104 19.343 12.6104Z" fill="#7E91B4"/>
<path d="M27.0802 13.8614C26.4355 13.8614 25.3716 13.8614 24.9283 13.8614L24.8477 13.7812C24.9767 13.3562 25.2749 12.1774 25.5973 10.798C25.8552 9.65924 26.0808 8.65681 26.1695 8.1997C25.6295 8.1997 24.7994 8.1997 24.3883 8.1997L24.3158 8.10347C24.4286 7.75863 24.5737 7.15717 24.6704 6.79629L24.7913 6.72412C25.154 6.72412 26.5241 6.72412 27.6202 6.72412C28.9501 6.72412 30.2476 6.72412 30.5217 6.72412L30.6264 6.82837C30.5297 7.14915 30.3524 7.80675 30.2638 8.13554L30.1429 8.21574H28.4181C28.3536 8.50444 28.1441 9.36252 27.7975 10.8862C27.5396 12.041 27.322 13.0996 27.2011 13.7652L27.0802 13.8614Z" fill="#7E91B4"/>
<path d="M34.5515 8.37611H33.4151C33.3506 8.67283 33.0846 9.7715 32.8428 10.8381C32.5607 12.0971 32.3028 13.2439 32.2061 13.7652L32.0772 13.8454C31.4243 13.8454 30.5781 13.8454 29.9011 13.8454L29.8285 13.7652C29.9656 13.2199 30.3202 11.7202 30.6345 10.2366C30.9488 8.75302 31.2712 7.2614 31.3679 6.85241L31.4808 6.75618C32.2061 6.75618 32.9396 6.75618 34.7449 6.75618C36.1553 6.75618 37.5174 6.75618 38.2508 6.70806L38.3072 6.78826C38.2186 7.14913 37.8075 8.87332 37.4207 10.5815C37.1064 11.9608 36.8243 13.3402 36.7437 13.7251L36.647 13.8053C36.0667 13.8053 35.035 13.8053 34.4548 13.8053L34.3983 13.7091C34.5112 13.2439 34.7691 12.1613 35.0753 10.822C35.3091 9.80357 35.5428 8.72095 35.6315 8.31997H34.5353" fill="#7E91B4"/>
</svg>
