<svg width="66" height="20" viewBox="0 0 66 20" fill="none" xmlns="http://www.w3.org/2000/svg">
<path d="M48.3784 4.82032H53.1883V5.91178H52.8484C52.8334 5.75823 52.7628 5.61586 52.6505 5.51236C52.5382 5.40886 52.3922 5.35164 52.2408 5.35181H51.4003V10.401H50.2106V5.35181H49.3422C49.1901 5.34888 49.0425 5.40516 48.9296 5.50919C48.8168 5.61322 48.747 5.75718 48.7346 5.91178H48.3854L48.3784 4.82032Z" fill="#7E91B4"/>
<path d="M58.4359 4.82032H59.3043V10.401H58.1402V6.50259L55.272 10.401H54.4036V5.84534C54.4134 5.67542 54.3631 5.50756 54.2619 5.37218C54.1606 5.2368 54.0152 5.14287 53.8518 5.10742V4.82032H55.5607V8.74721L58.4359 4.82032Z" fill="#7E91B4"/>
<path d="M33.2922 10.401H31.7859L30.7126 8.33435C30.7126 8.33435 30.3936 7.71269 30.0468 7.71269H29.6137V10.401H28.4241V5.84534C28.4348 5.67371 28.3808 5.50437 28.273 5.37204C28.1652 5.2397 28.0119 5.15436 27.8444 5.13352V4.82032H29.6137V7.15035H30.1329C30.2692 7.12086 30.3973 7.06057 30.5077 6.97392C30.6181 6.88727 30.708 6.77648 30.7708 6.6497C31.7021 5.11454 31.5833 4.82032 31.9884 4.82032H33.1525V5.2047C32.3423 5.2047 32.1118 6.88698 31.3272 7.41847C31.7067 7.56558 31.8511 7.91912 32.6892 9.48513C32.6892 9.48513 32.8941 10.0166 33.2991 10.0166L33.2922 10.401Z" fill="#7E91B4"/>
<path d="M65.6531 9.1885C65.3823 9.59101 65.0191 9.91991 64.5951 10.1466C64.171 10.3732 63.699 10.4907 63.2202 10.4888C61.7698 10.4888 60.3799 9.33799 60.3799 7.83129V7.50623C60.3799 5.8809 61.6534 4.73249 63.2202 4.73249C63.5873 4.73435 63.9504 4.80993 64.2888 4.95489C64.6272 5.09985 64.9342 5.31137 65.1924 5.57734C65.4506 5.84331 65.6548 6.15852 65.7933 6.50496C65.9319 6.8514 66.0021 7.22228 66 7.59639H61.8093V8.5099C61.8093 9.30714 62.4449 9.95727 63.3738 9.95727C63.7145 9.96077 64.0518 9.88848 64.3622 9.74546C64.6726 9.60244 64.9487 9.39213 65.1711 9.12919L65.6531 9.1885ZM61.793 7.03168H64.631V6.73746C64.6162 6.36404 64.4602 6.01095 64.1957 5.75209C63.9312 5.49323 63.5787 5.34867 63.212 5.34867C62.8453 5.34867 62.4929 5.49323 62.2284 5.75209C61.9639 6.01095 61.8079 6.36404 61.793 6.73746V7.03168Z" fill="#7E91B4"/>
<path d="M38.4792 8.48143C38.4941 8.83722 38.3723 9.1849 38.1397 9.45069C37.9072 9.71648 37.5822 9.87947 37.2337 9.90507H37.1196C36.4538 9.90507 35.8717 9.40442 35.7856 8.87293V6.47408C35.8354 6.14795 35.9965 5.85018 36.2405 5.63317C36.4845 5.41617 36.7958 5.29384 37.1196 5.28771H37.3524C37.3524 5.28771 38.4536 5.34703 38.4816 6.71136L38.4792 8.48143ZM37.3803 4.73249C36.7122 4.73249 36.0743 5.02671 35.7856 5.44431V4.82028H34.0465V5.14534C34.2075 5.17563 34.3522 5.26452 34.4538 5.39547C34.5553 5.52642 34.6066 5.6905 34.5982 5.85717V12.9398H35.7856V9.81016C35.9732 10.028 36.2052 10.2015 36.4653 10.3187C36.7254 10.4359 37.0075 10.4939 37.2919 10.4888C38.8261 10.4603 39.8714 9.2502 39.8714 7.7435V7.38759C39.8714 5.76463 38.8843 4.73249 37.3803 4.73249Z" fill="#7E91B4"/>
<path d="M20.832 8.45534C20.8324 8.6557 20.7934 8.85411 20.7173 9.03884C20.6411 9.22358 20.5295 9.39089 20.3888 9.5309C20.2482 9.67091 20.0815 9.78077 19.8985 9.85401C19.7155 9.92724 19.52 9.96236 19.3234 9.95729C19.1287 9.96115 18.9353 9.92496 18.7547 9.85087C18.574 9.77679 18.4099 9.66634 18.2721 9.52612C18.1343 9.38591 18.0257 9.21882 17.9527 9.03483C17.8797 8.85085 17.8439 8.65376 17.8474 8.45534V6.67815C17.8722 6.28944 18.0422 5.9252 18.3225 5.6603C18.6027 5.3954 18.9719 5.24998 19.354 5.25393C19.7362 5.25788 20.1024 5.4109 20.3773 5.68153C20.6522 5.95217 20.8149 6.31985 20.832 6.709V8.45534ZM19.3234 4.73013C17.2654 4.73013 16.4249 6.35546 16.4249 7.41845V7.893C16.4249 9.13157 17.6146 10.503 19.3234 10.503C20.9159 10.503 22.2499 9.29292 22.2499 7.87402V7.4754C22.2499 6.05175 21.1487 4.73013 19.3234 4.73013Z" fill="#7E91B4"/>
<path d="M47.5682 4.82032H45.8291V5.14538C45.9972 5.17473 46.1489 5.26573 46.2557 5.40122C46.3625 5.53671 46.4169 5.70734 46.4088 5.88093V10.401H47.5729L47.5682 4.82032Z" fill="#7E91B4"/>
<path d="M42.4673 9.83867V7.50626H43.4824C43.6188 7.50816 43.7533 7.53844 43.8778 7.59526C44.0023 7.65207 44.1141 7.73422 44.2063 7.83665C44.2985 7.93907 44.3692 8.05963 44.4141 8.19091C44.4589 8.3222 44.477 8.46144 44.4672 8.60009V8.83737C44.4526 9.10403 44.3401 9.35535 44.152 9.54132C43.9639 9.7273 43.7141 9.8343 43.4521 9.84104L42.4673 9.83867ZM42.4673 6.94629V4.81082H40.7282V5.13588C40.8883 5.16337 41.0318 5.25268 41.1289 5.38526C41.2261 5.51783 41.2693 5.68347 41.2497 5.84771V10.401H43.9457C44.9887 10.401 45.7406 9.75087 45.7406 8.83499V8.57162C45.7406 7.56558 45.0166 6.94629 43.8781 6.94629H42.4673Z" fill="#7E91B4"/>
<path d="M22.4547 4.82032H27.2647V5.91178H26.9154C26.9009 5.75802 26.8305 5.61534 26.7181 5.51174C26.6057 5.40814 26.4594 5.3511 26.3078 5.35181H25.4673V10.401H24.28V5.35181H23.4093C23.2571 5.34888 23.1096 5.40516 22.9967 5.50919C22.8838 5.61322 22.814 5.75718 22.8016 5.91178H22.4547V4.82032Z" fill="#7E91B4"/>
<path d="M10.7094 7.93573C10.7239 8.68962 10.5365 9.43328 10.1673 10.0867C9.79809 10.7402 9.2611 11.2787 8.61406 11.6443L8.31606 11.7891C8.21809 11.8348 8.11182 11.859 8.00409 11.8603C7.91282 11.8662 7.82163 11.8474 7.73982 11.8057C7.65802 11.764 7.58854 11.701 7.53846 11.623C7.46245 11.4906 7.43755 11.3341 7.46862 11.184C7.48594 11.1063 7.51916 11.0331 7.56609 10.9693C7.61303 10.9056 7.67263 10.8526 7.74101 10.8139C8.12097 10.6332 8.44194 10.345 8.66567 9.98367C8.88939 9.62229 9.00644 9.20297 9.00285 8.77569V6.45514C9.0069 6.02867 8.89025 5.61005 8.66687 5.24941C8.44349 4.88877 8.12285 4.6014 7.74334 4.4217C7.67317 4.38289 7.61182 4.32945 7.56328 4.26485C7.51474 4.20026 7.48011 4.12596 7.46164 4.0468C7.43056 3.89672 7.45546 3.74023 7.53148 3.60785C7.58011 3.52765 7.64897 3.46223 7.73088 3.41841C7.81278 3.37459 7.90472 3.35397 7.9971 3.35871C8.10496 3.35876 8.21148 3.38307 8.30907 3.42989L8.60009 3.57225C9.24957 3.93682 9.7892 4.47503 10.1609 5.12893C10.5325 5.78282 10.7222 6.52765 10.7094 7.28323V7.93573ZM5.04272 10.8044C5.11138 10.8427 5.1712 10.8956 5.21818 10.9594C5.26516 11.0233 5.2982 11.0966 5.31511 11.1745C5.34831 11.3246 5.32328 11.4819 5.24526 11.6135C5.19554 11.6918 5.12613 11.7552 5.04424 11.7969C4.96234 11.8386 4.87098 11.8572 4.77964 11.8508C4.67269 11.8493 4.56722 11.825 4.47 11.7796L4.16967 11.6348C3.52188 11.2715 2.98346 10.7352 2.61224 10.0834C2.24103 9.43171 2.05105 8.68922 2.06272 7.93573V7.28323C2.05172 6.52573 2.24416 5.77958 2.61922 5.1255C2.99427 4.47142 3.53767 3.93431 4.19062 3.57225L4.48397 3.42989C4.58082 3.38334 4.68652 3.35904 4.79361 3.35871C4.88599 3.35397 4.97793 3.37459 5.05984 3.41841C5.14174 3.46223 5.2106 3.52765 5.25923 3.60785C5.33748 3.7394 5.36252 3.89679 5.32908 4.0468C5.30991 4.12762 5.27347 4.20313 5.22236 4.26794C5.17125 4.33274 5.10673 4.38525 5.0334 4.4217C4.65582 4.60301 4.33726 4.89104 4.11563 5.25152C3.894 5.612 3.77862 6.02976 3.7832 6.45514V8.7662C3.77941 9.19322 3.89611 9.61236 4.11941 9.97371C4.34271 10.3351 4.6632 10.6234 5.04272 10.8044ZM6.38837 1.09985C5.12487 1.09985 3.88975 1.48171 2.83918 2.19712C1.78862 2.91254 0.969809 3.92939 0.486289 5.11909C0.00276796 6.30878 -0.123743 7.61789 0.122754 8.88087C0.36925 10.1438 0.977683 11.304 1.87111 12.2145C2.76454 13.1251 3.90284 13.7452 5.14206 13.9964C6.38129 14.2476 7.66577 14.1187 8.8331 13.6259C10.0004 13.1331 10.9981 12.2986 11.7001 11.2279C12.4021 10.1572 12.7767 8.89839 12.7767 7.61067C12.7767 5.88389 12.1037 4.22784 10.9056 3.00683C9.70758 1.78581 8.08267 1.09985 6.38837 1.09985Z" fill="#7E91B4"/>
<path d="M17.7519 18.7697H16.8696V15.0492H18.7577L18.8322 15.5237H17.3655V16.5701H17.8311C18.604 16.5701 19.0697 16.9521 19.0697 17.6426C19.0697 18.4019 18.5412 18.7815 17.7473 18.7815L17.7519 18.7697ZM17.8101 16.9972H17.3655V18.3141H17.7776C18.2758 18.3141 18.5714 18.1029 18.5714 17.6402C18.5714 17.2131 18.306 16.9972 17.8101 16.9972Z" fill="#7E91B4"/>
<path d="M21.0509 15.0326H21.5491L22.946 18.6985L22.4548 18.8053L22.0241 17.6521H20.548L20.1406 18.7697H19.6214L21.0509 15.0326ZM20.7063 17.2061H21.8704L21.2884 15.6258L20.7063 17.2061Z" fill="#7E91B4"/>
<path d="M26.1099 18.7697V17.0542H24.266V18.7697H23.7655V15.0492H24.266V16.5891H26.1099V15.0492H26.6058V18.7697H26.1099Z" fill="#7E91B4"/>
<path d="M29.8745 18.8053L28.1889 16.881V18.7673H27.6907V15.0468H28.1889V16.7196L29.6999 15.0468H30.3354L28.7267 16.7956L30.4262 18.6866L29.8745 18.8053Z" fill="#7E91B4"/>
</svg>
