<svg width="120" height="36" viewBox="0 0 120 36" fill="none" xmlns="http://www.w3.org/2000/svg">
<path d="M87.9607 8.76448H96.706V10.749H96.088C96.0607 10.4698 95.9324 10.2109 95.7282 10.0227C95.5241 9.83456 95.2585 9.73052 94.9832 9.73083H93.4551V18.9112H91.2921V9.73083H89.7132C89.4365 9.7255 89.1682 9.82783 88.963 10.017C88.7577 10.2061 88.6309 10.4679 88.6084 10.749H87.9734L87.9607 8.76448Z" fill="#7E91B4"/>
<path d="M106.247 8.76448H107.826V18.9112H105.709V11.8232L100.494 18.9112H98.9156V10.6282C98.9334 10.3192 98.842 10.014 98.6579 9.76786C98.4739 9.52172 98.2094 9.35094 97.9124 9.28648V8.76448H101.019V15.9043L106.247 8.76448Z" fill="#7E91B4"/>
<path d="M60.5312 18.9112H57.7925L55.8411 15.1536C55.8411 15.1536 55.2612 14.0233 54.6305 14.0233H53.8431V18.9112H51.6801V10.6282C51.6996 10.3161 51.6014 10.0082 51.4054 9.7676C51.2095 9.52699 50.9306 9.37184 50.6261 9.33393V8.76448H53.8431V13.0009H54.7871C55.0349 12.9473 55.2678 12.8377 55.4685 12.6801C55.6692 12.5226 55.8327 12.3211 55.9469 12.0906C57.6401 9.29942 57.4242 8.76448 58.1607 8.76448H60.2772V9.46336C58.8042 9.46336 58.3851 12.522 56.9586 13.4884C57.6486 13.7559 57.911 14.3987 59.4349 17.246C59.4349 17.246 59.8074 18.2123 60.5439 18.2123L60.5312 18.9112Z" fill="#7E91B4"/>
<path d="M119.369 16.7066C118.877 17.4385 118.217 18.0365 117.446 18.4485C116.675 18.8606 115.816 19.0742 114.946 19.0708C112.309 19.0708 109.782 16.9784 109.782 14.239V13.648C109.782 10.6928 112.097 8.60479 114.946 8.60479C115.613 8.60818 116.273 8.74559 116.889 9.00916C117.504 9.27273 118.062 9.65729 118.532 10.1409C119.001 10.6245 119.372 11.1976 119.624 11.8275C119.876 12.4574 120.004 13.1317 120 13.8119H112.381V15.4728C112.381 16.9223 113.536 18.1044 115.225 18.1044C115.845 18.1108 116.458 17.9793 117.022 17.7193C117.587 17.4593 118.089 17.0769 118.493 16.5988L119.369 16.7066ZM112.351 12.7851H117.511V12.2502C117.484 11.5712 117.2 10.9293 116.719 10.4586C116.239 9.98796 115.598 9.72513 114.931 9.72513C114.264 9.72513 113.623 9.98796 113.142 10.4586C112.662 10.9293 112.378 11.5712 112.351 12.2502V12.7851Z" fill="#7E91B4"/>
<path d="M69.9622 15.421C69.9892 16.0679 69.7678 16.7001 69.345 17.1833C68.9222 17.6666 68.3312 17.9629 67.6976 18.0095H67.4902C66.2796 18.0095 65.2213 17.0992 65.0647 16.1329V11.7713C65.1553 11.1784 65.4481 10.637 65.8918 10.2424C66.3355 9.84784 66.9015 9.62542 67.4902 9.61428H67.9135C67.9135 9.61428 69.9157 9.72214 69.9665 12.2027L69.9622 15.421ZM67.9643 8.60479C66.7494 8.60479 65.5896 9.13973 65.0647 9.89901V8.76441H61.9027V9.35544C62.1955 9.4105 62.4586 9.57212 62.6432 9.81021C62.8277 10.0483 62.9211 10.3466 62.9059 10.6497V23.5272H65.0647V17.8369C65.4059 18.233 65.8276 18.5485 66.3006 18.7616C66.7735 18.9747 67.2864 19.0802 67.8034 19.0708C70.5929 19.019 72.4935 16.8188 72.4935 14.0794V13.4322C72.4935 10.4814 70.6988 8.60479 67.9643 8.60479Z" fill="#7E91B4"/>
<path d="M37.8764 15.3736C37.8771 15.7379 37.8062 16.0986 37.6678 16.4345C37.5294 16.7704 37.3263 17.0746 37.0706 17.3292C36.8149 17.5837 36.5118 17.7835 36.1791 17.9166C35.8463 18.0498 35.4908 18.1137 35.1335 18.1044C34.7795 18.1114 34.4278 18.0456 34.0994 17.9109C33.771 17.7762 33.4725 17.5754 33.222 17.3205C32.9715 17.0656 32.774 16.7618 32.6413 16.4272C32.5086 16.0927 32.4435 15.7344 32.4498 15.3736V12.1424C32.495 11.4356 32.8041 10.7733 33.3136 10.2917C33.8231 9.81008 34.4943 9.54568 35.1892 9.55286C35.8841 9.56004 36.5499 9.83826 37.0497 10.3303C37.5495 10.8224 37.8454 11.4909 37.8764 12.1984V15.3736ZM35.1335 8.6005C31.3916 8.6005 29.8635 11.5556 29.8635 13.4884V14.3512C29.8635 16.6031 32.0265 19.0967 35.1335 19.0967C38.0288 19.0967 40.4543 16.8965 40.4543 14.3167V13.5919C40.4543 11.0034 38.4521 8.6005 35.1335 8.6005Z" fill="#7E91B4"/>
<path d="M86.4877 8.76448H83.3257V9.3555C83.6312 9.40886 83.9071 9.57431 84.1013 9.82067C84.2954 10.067 84.3944 10.3772 84.3797 10.6929V18.9112H86.4961L86.4877 8.76448Z" fill="#7E91B4"/>
<path d="M77.2133 17.8888V13.648H79.0588C79.3068 13.6515 79.5515 13.7065 79.7778 13.8098C80.0042 13.9131 80.2074 14.0625 80.3751 14.2487C80.5428 14.4349 80.6713 14.6541 80.7529 14.8928C80.8344 15.1315 80.8673 15.3847 80.8494 15.6368V16.0682C80.8229 16.5531 80.6184 17.01 80.2764 17.3481C79.9344 17.6863 79.4801 17.8808 79.0038 17.8931L77.2133 17.8888ZM77.2133 12.6299V8.74721H74.0513V9.33824C74.3423 9.3882 74.6033 9.5506 74.7799 9.79165C74.9565 10.0327 75.0351 10.3338 74.9994 10.6325V18.9112H79.9012C81.7976 18.9112 83.1648 17.7291 83.1648 16.0639V15.585C83.1648 13.7559 81.8484 12.6299 79.7784 12.6299H77.2133Z" fill="#7E91B4"/>
<path d="M40.8268 8.76448H49.5721V10.749H48.9371C48.9108 10.4694 48.7828 10.21 48.5784 10.0216C48.374 9.83325 48.1079 9.72954 47.8323 9.73083H46.3042V18.9112H44.1454V9.73083H42.5623C42.2857 9.7255 42.0174 9.82783 41.8121 10.017C41.6069 10.2061 41.4801 10.4679 41.4575 10.749H40.8268V8.76448Z" fill="#7E91B4"/>
<path d="M19.4716 14.4289C19.498 15.7996 19.1572 17.1517 18.486 18.3398C17.8147 19.5279 16.8384 20.507 15.6619 21.1718L15.1201 21.4349C14.942 21.518 14.7488 21.5621 14.5529 21.5644C14.3869 21.5752 14.2211 21.541 14.0724 21.4652C13.9237 21.3894 13.7973 21.2748 13.7063 21.133C13.5681 20.8923 13.5228 20.6077 13.5793 20.3349C13.6108 20.1935 13.6712 20.0605 13.7565 19.9445C13.8419 19.8286 13.9502 19.7323 14.0746 19.6619C14.7654 19.3334 15.349 18.8094 15.7558 18.1524C16.1625 17.4953 16.3753 16.7329 16.3688 15.9561V11.7369C16.3762 10.9615 16.1641 10.2004 15.7579 9.54465C15.3518 8.88894 14.7688 8.36644 14.0788 8.03972C13.9512 7.96916 13.8397 7.87199 13.7514 7.75454C13.6632 7.63709 13.6002 7.50201 13.5666 7.35809C13.5101 7.08522 13.5554 6.80068 13.6936 6.55999C13.782 6.41418 13.9072 6.29523 14.0561 6.21555C14.2051 6.13588 14.3722 6.09839 14.5402 6.10701C14.7363 6.10711 14.93 6.1513 15.1074 6.23643L15.6365 6.49528C16.8174 7.15813 17.7985 8.13668 18.4743 9.32558C19.1501 10.5145 19.4949 11.8687 19.4716 13.2425V14.4289ZM9.16858 19.6446C9.29341 19.7143 9.40218 19.8105 9.48759 19.9265C9.57301 20.0426 9.6331 20.1759 9.66383 20.3176C9.7242 20.5904 9.67869 20.8764 9.53684 21.1157C9.44644 21.2582 9.32023 21.3733 9.17134 21.4492C9.02244 21.5251 8.85632 21.5589 8.69025 21.5471C8.4958 21.5444 8.30404 21.5003 8.12727 21.4177L7.58122 21.1545C6.40342 20.4939 5.42446 19.5188 4.74953 18.3338C4.07459 17.1488 3.72918 15.7989 3.7504 14.4289V13.2425C3.73041 11.8652 4.0803 10.5086 4.76222 9.31936C5.44413 8.13012 6.43212 7.15355 7.61932 6.49528L8.15267 6.23643C8.32876 6.15179 8.52095 6.1076 8.71565 6.10701C8.88362 6.09839 9.05079 6.13588 9.1997 6.21555C9.34861 6.29523 9.47381 6.41418 9.56224 6.55999C9.70451 6.79917 9.75004 7.08534 9.68923 7.35809C9.65438 7.50504 9.58813 7.64232 9.4952 7.76015C9.40227 7.87798 9.28496 7.97344 9.15164 8.03972C8.46512 8.36938 7.88593 8.89306 7.48297 9.54848C7.08001 10.2039 6.87022 10.9635 6.87855 11.7369V15.9388C6.87165 16.7152 7.08383 17.4773 7.48983 18.1343C7.89583 18.7913 8.47854 19.3155 9.16858 19.6446ZM11.6152 2C9.31795 2 7.07227 2.69428 5.16215 3.99504C3.25204 5.2958 1.76329 7.14461 0.884161 9.3077C0.00503266 11.4708 -0.224987 13.851 0.223188 16.1473C0.671364 18.4436 1.77761 20.5529 3.40202 22.2085C5.02644 23.864 7.09607 24.9915 9.34921 25.4482C11.6023 25.905 13.9378 25.6706 16.0602 24.7746C18.1826 23.8786 19.9966 22.3613 21.2729 20.4146C22.5492 18.4679 23.2304 16.1791 23.2304 13.8378C23.2304 10.6983 22.0067 7.68725 19.8284 5.46722C17.6501 3.2472 14.6958 2 11.6152 2Z" fill="#7E91B4"/>
<path d="M32.2763 34.1269H30.672V27.3624H34.1049L34.2403 28.2253H31.5736V30.1278H32.4202C33.8255 30.1278 34.6721 30.8223 34.6721 32.0777C34.6721 33.4582 33.7112 34.1485 32.2678 34.1485L32.2763 34.1269ZM32.3821 30.9043H31.5736V33.2986H32.3228C33.2287 33.2986 33.7663 32.9147 33.7663 32.0734C33.7663 31.2969 33.2837 30.9043 32.3821 30.9043Z" fill="#7E91B4"/>
<path d="M38.2744 27.3323H39.1802L41.72 33.9976L40.8268 34.1917L40.0437 32.0951H37.36L36.6193 34.127H35.6753L38.2744 27.3323ZM37.6479 31.284H39.7644L38.7061 28.4108L37.6479 31.284Z" fill="#7E91B4"/>
<path d="M47.4725 34.1269V31.0078H44.1201V34.1269H43.21V27.3624H44.1201V30.1623H47.4725V27.3624H48.3742V34.1269H47.4725Z" fill="#7E91B4"/>
<path d="M54.3172 34.1917L51.2526 30.6929V34.1226H50.3467V27.3581H51.2526V30.3996L53.9998 27.3581H55.1554L52.2304 30.5376L55.3204 33.976L54.3172 34.1917Z" fill="#7E91B4"/>
</svg>
