<svg width="66" height="20" viewBox="0 0 66 20" fill="none" xmlns="http://www.w3.org/2000/svg">
<path d="M50.1874 5.50004H50.0884C50.0802 5.49917 50.072 5.50014 50.0643 5.50288C50.0565 5.50561 50.0495 5.51004 50.0437 5.51584C50.0379 5.52164 50.0335 5.52867 50.0307 5.5364C50.028 5.54413 50.027 5.55238 50.0279 5.56054C50.0279 5.77504 50.0279 5.98404 50.0279 6.19854C50.0279 6.25904 50.0279 6.28104 50.1104 6.28104H50.8089C50.9244 6.28104 50.9354 6.24254 50.9244 6.14354C50.8474 5.61004 50.7264 5.50004 50.1874 5.50004Z" fill="#7E91B4"/>
<path d="M40.5404 11.4234C40.4524 11.4234 40.4249 11.4564 40.4249 11.5334C40.4249 11.6104 40.4249 11.7094 40.4249 11.7974C40.4249 11.8854 40.4249 11.9129 40.4249 11.9679C40.4249 12.2044 40.4249 12.2044 40.6669 12.2044H41.2169C41.2664 12.2044 41.2884 12.2044 41.2829 12.1329C41.2499 11.5499 41.1179 11.4124 40.5404 11.4234Z" fill="#7E91B4"/>
<path d="M37.3999 12.826C37.3066 12.8178 37.2127 12.8178 37.1194 12.826H37.0149C36.9379 12.826 36.9104 12.8535 36.9104 12.9305C36.9104 13.0075 36.9104 13.2385 36.9104 13.387V13.728C36.9104 13.8985 36.9104 14.069 36.9104 14.245C36.9104 14.278 36.9104 14.311 36.9544 14.3275C37.0586 14.3632 37.1696 14.3745 37.2789 14.3605C37.3886 14.3445 37.4937 14.3051 37.5869 14.245C37.6793 14.1846 37.7565 14.1037 37.8124 14.0085C37.8681 13.913 37.9002 13.8055 37.9059 13.695C37.9141 13.6017 37.9141 13.5078 37.9059 13.4145C37.9165 13.2695 37.8692 13.1261 37.7744 13.0158C37.6796 12.9055 37.5449 12.8373 37.3999 12.826Z" fill="#7E91B4"/>
<path d="M40.5569 8.316C40.5907 8.3615 40.6346 8.39847 40.6852 8.42393C40.7359 8.4494 40.7917 8.46267 40.8484 8.46267C40.9051 8.46267 40.9609 8.4494 41.0116 8.42393C41.0622 8.39847 41.1061 8.3615 41.1399 8.316C41.2459 8.1959 41.3181 8.04972 41.3489 7.8925C41.4873 7.31174 41.5023 6.70841 41.3929 6.1215C41.3646 5.90861 41.2833 5.70625 41.1564 5.533C41.1244 5.4842 41.0807 5.44414 41.0293 5.41642C40.978 5.3887 40.9205 5.37418 40.8622 5.37418C40.8038 5.37418 40.7463 5.3887 40.695 5.41642C40.6436 5.44414 40.5999 5.4842 40.5679 5.533C40.4884 5.62436 40.4285 5.73106 40.3919 5.8465C40.2882 6.20369 40.24 6.57467 40.2489 6.9465C40.2425 7.14162 40.2554 7.3369 40.2874 7.5295C40.3034 7.81141 40.3967 8.0835 40.5569 8.316Z" fill="#7E91B4"/>
<path d="M53.7404 0H34.0669C33.9404 0 33.9074 0.0275 33.9074 0.1595V19.6405C33.9074 19.767 33.9349 19.8 34.0669 19.8H53.7404C53.8669 19.8 53.8999 19.8 53.8999 19.646C53.8999 13.1487 53.8999 6.65317 53.8999 0.1595C53.8999 0.033 53.8999 0 53.7404 0ZM36.2229 4.774H38.5604C38.6704 4.774 38.6979 4.8015 38.6979 4.9115V8.9705C38.6979 9.075 38.6979 9.108 38.5659 9.1025C38.4339 9.097 38.2029 9.1025 38.0159 9.1025C37.9114 9.1025 37.8839 9.075 37.8839 8.9705C37.8839 8.481 37.8839 7.997 37.8839 7.5075V5.6485C37.8839 5.5275 37.8839 5.4945 37.7299 5.5C37.5044 5.5 37.2734 5.5 37.0424 5.5C36.9269 5.5 36.8939 5.5275 36.8939 5.643V7.3315C36.8939 7.8815 36.8939 8.3985 36.8939 8.9375C36.8939 9.0695 36.8664 9.1135 36.7289 9.1025C36.5549 9.0915 36.3804 9.0915 36.2064 9.1025C36.1074 9.1025 36.0799 9.1025 36.0799 8.9815V4.906C36.0909 4.8015 36.1129 4.774 36.2229 4.774ZM38.3019 14.674C38.1889 14.7936 38.0524 14.8886 37.901 14.953C37.7496 15.0173 37.5864 15.0497 37.4219 15.048H36.7399C36.5584 15.048 36.3769 15.048 36.1899 15.048C36.0029 15.048 36.0744 15.0095 36.0744 14.927C36.0744 14.245 36.0744 13.5575 36.0744 12.8755V10.8295C36.0744 10.7305 36.0744 10.6975 36.2009 10.6975C36.8719 10.6975 37.5374 10.6975 38.2029 10.6975C38.3019 10.6975 38.3349 10.6975 38.3294 10.8185C38.3184 10.987 38.3184 11.156 38.3294 11.3245C38.3294 11.4125 38.3019 11.44 38.2084 11.44C38.1149 11.44 37.8784 11.44 37.7079 11.44H37.0699C36.9269 11.44 36.8884 11.4785 36.8994 11.6105C36.9104 11.7349 36.9104 11.8601 36.8994 11.9845C36.8994 12.089 36.8994 12.133 37.0369 12.122C37.267 12.1005 37.499 12.1153 37.7244 12.166C37.983 12.2199 38.2172 12.3563 38.3917 12.5547C38.5663 12.753 38.6718 13.0026 38.6924 13.266C38.7354 13.5107 38.7227 13.7619 38.655 14.0009C38.5874 14.2399 38.4667 14.4606 38.3019 14.6465V14.674ZM39.4569 6.974V6.9135C39.4289 6.38601 39.5348 5.86 39.7649 5.3845C39.8583 5.17295 40.0132 4.99432 40.2093 4.87174C40.4054 4.74917 40.6338 4.68829 40.8649 4.697C41.095 4.69334 41.3213 4.75628 41.5165 4.87826C41.7116 5.00024 41.8674 5.17605 41.9649 5.3845C42.1383 5.72693 42.2394 6.10135 42.2619 6.4845C42.3489 7.10658 42.2847 7.74046 42.0749 8.3325C42.0124 8.54202 41.8972 8.73197 41.7402 8.88414C41.5832 9.03631 41.3898 9.14559 41.1784 9.2015C40.9301 9.26576 40.6675 9.24676 40.4311 9.1474C40.1946 9.04805 39.9973 8.87383 39.8694 8.6515C39.6062 8.17343 39.4716 7.6352 39.4789 7.0895L39.4569 6.974ZM42.2619 15.048H41.6294C41.5469 15.048 41.5304 15.015 41.5249 14.9435L41.4589 14.069C41.4314 13.7335 41.4039 13.4035 41.3819 13.068C41.3819 12.98 41.3544 12.947 41.2609 12.9525C41.0079 12.9525 40.7549 12.9525 40.4964 12.9525C40.4084 12.9525 40.3699 12.9525 40.3644 13.068C40.3644 13.464 40.3644 13.8545 40.3259 14.245C40.3259 14.454 40.3259 14.6575 40.3259 14.8665C40.3259 15.037 40.3259 15.037 40.1389 15.037H39.6549C39.5339 15.037 39.4954 15.037 39.5009 14.8885C39.5009 14.4155 39.5394 13.9425 39.5559 13.4695V12.8975C39.5559 12.6555 39.5559 12.408 39.5559 12.166C39.5559 11.7315 39.5889 11.297 39.5999 10.8625C39.5999 10.747 39.6439 10.703 39.7704 10.7085C40.0069 10.7085 40.2434 10.7085 40.4744 10.7085H40.7549C40.9155 10.6922 41.0777 10.71 41.2309 10.7609C41.3841 10.8117 41.5248 10.8944 41.6437 11.0035C41.7627 11.1126 41.8572 11.2456 41.9211 11.3938C41.985 11.542 42.0168 11.7021 42.0144 11.8635C42.1097 12.8865 42.2087 13.9077 42.3114 14.927C42.3499 15.004 42.3499 15.0205 42.2619 15.0205V15.048ZM42.8449 5.9345V4.8895C42.8449 4.807 42.8449 4.774 42.9494 4.7795H43.5434C43.6314 4.7795 43.6644 4.7795 43.6589 4.8895V5.907C43.6512 5.98995 43.6762 6.07263 43.7286 6.13738C43.781 6.20213 43.8567 6.24381 43.9394 6.2535C44.0864 6.27906 44.2358 6.28829 44.3849 6.281H44.5004C44.5774 6.281 44.5774 6.237 44.5719 6.193V6.028C44.5719 5.665 44.5719 5.3075 44.5719 4.928C44.5719 4.8125 44.5719 4.774 44.7204 4.7795C44.9036 4.79073 45.0872 4.79073 45.2704 4.7795C45.3694 4.7795 45.3969 4.807 45.3969 4.906C45.3969 5.4175 45.3969 5.9345 45.3969 6.446C45.3969 6.611 45.3969 6.776 45.3969 6.941C45.3969 7.106 45.3969 7.26 45.3969 7.4195C45.3969 7.9365 45.3969 8.459 45.3969 8.976C45.3969 9.0805 45.3969 9.1135 45.2649 9.108C45.1329 9.1025 44.8909 9.108 44.7149 9.108C44.6104 9.108 44.5884 9.0805 44.5884 8.987C44.5884 8.6955 44.5884 8.404 44.5884 8.1125C44.5884 7.821 44.5884 7.4745 44.5884 7.1555C44.5884 7.04 44.5884 7.007 44.4454 7.0125H44.3299C44.1053 7.02822 43.8796 7.01342 43.6589 6.9685C43.4222 6.92149 43.2101 6.79147 43.0609 6.60187C42.9116 6.41228 42.835 6.17559 42.8449 5.9345ZM45.7434 15.026C45.5602 15.015 45.3766 15.015 45.1934 15.026C45.0944 15.026 45.0779 14.993 45.0779 14.905V14.1075C45.0779 13.7225 45.0779 13.3375 45.0779 12.9525C45.0779 12.826 45.0394 12.7985 44.9184 12.804H44.1374C44.0274 12.804 43.9944 12.804 43.9944 12.936C43.9944 13.2605 43.9944 13.5795 43.9944 13.8985V14.8775C43.9944 14.993 43.9944 15.0315 43.8514 15.026C43.6682 15.015 43.4846 15.015 43.3014 15.026C43.2079 15.026 43.1804 15.026 43.1804 14.9105C43.1804 14.652 43.1804 14.3935 43.1804 14.1405C43.1804 14.0415 43.1804 13.948 43.1804 13.849V13.145C43.1804 12.375 43.1804 11.605 43.1804 10.835C43.1804 10.7195 43.2134 10.692 43.3234 10.6975C43.5065 10.7092 43.6903 10.7092 43.8734 10.6975C43.9944 10.6975 44.0109 10.736 44.0109 10.8405V11.3905C44.0109 11.5885 44.0109 11.781 44.0109 11.979C44.0109 12.078 44.0439 12.1 44.1374 12.1C44.4179 12.1 44.6874 12.1 44.9679 12.1C45.0669 12.1 45.0999 12.1 45.0944 11.979V11.429C45.0944 11.2365 45.0944 11.0385 45.0944 10.846C45.0944 10.7525 45.0944 10.714 45.2209 10.7195C45.3474 10.725 45.5894 10.7195 45.7709 10.7195C45.9524 10.7195 45.9084 10.747 45.9084 10.857V13.4475C45.9084 13.937 45.9084 14.4265 45.9084 14.916C45.8919 15.004 45.8534 15.0315 45.7434 15.026ZM46.9204 6.9465V5.621C46.9204 5.533 46.9204 5.5 46.8049 5.5H46.3704C46.2934 5.5 46.2604 5.5 46.2604 5.401C46.2604 5.225 46.2604 5.038 46.2604 4.851C46.2604 4.7795 46.2604 4.763 46.3484 4.763H48.3229C48.3944 4.763 48.4054 4.763 48.4054 4.851C48.4054 5.03067 48.4054 5.214 48.4054 5.401C48.4054 5.4835 48.3724 5.5 48.3009 5.4945H47.8499C47.7509 5.4945 47.7234 5.4945 47.7234 5.6155C47.7234 6.0335 47.7234 6.4515 47.7234 6.8695V7.656C47.7234 8.0905 47.7234 8.525 47.7234 8.965C47.7234 9.0695 47.6959 9.097 47.5859 9.0915C47.4759 9.086 47.2229 9.0915 47.0359 9.0915C46.8489 9.0915 46.8929 9.053 46.8929 8.943C46.8929 8.4425 46.8929 7.9365 46.8929 7.436L46.9204 6.9465ZM49.6704 15.0205H49.0709C48.9939 15.0205 48.9829 14.9765 48.9664 14.9325C48.9659 14.9233 48.9659 14.9142 48.9664 14.905L48.8014 14.454C48.6199 13.959 48.4439 13.464 48.2514 12.969C48.2489 12.9476 48.2418 12.9269 48.2308 12.9084C48.2197 12.8898 48.2049 12.8738 48.1873 12.8614C48.1697 12.8489 48.1496 12.8403 48.1284 12.8361C48.1073 12.8319 48.0854 12.8322 48.0644 12.837C47.8939 12.837 47.8114 12.837 47.7674 12.881C47.7234 12.925 47.7289 13.0075 47.7289 13.178V13.629C47.7289 14.0433 47.7289 14.4558 47.7289 14.8665C47.7289 14.9985 47.6904 15.0315 47.5639 15.0205C47.4009 15.0095 47.2374 15.0095 47.0744 15.0205C46.9534 15.0205 46.9204 15.0205 46.9204 14.872V11.066C46.9259 10.9836 46.9259 10.9009 46.9204 10.8185C46.9204 10.7305 46.9204 10.6975 47.0304 10.6975C47.2136 10.7075 47.3972 10.7075 47.5804 10.6975C47.6794 10.6975 47.7014 10.7305 47.7014 10.8185V11.3685C47.7014 11.583 47.7014 11.7975 47.7014 12.012C47.7014 12.122 47.7289 12.144 47.8334 12.1495C48.2734 12.1495 48.5044 12.0835 48.5924 11.495C48.5924 11.319 48.6309 11.143 48.6419 10.945C48.6446 10.9065 48.6446 10.868 48.6419 10.8295C48.6419 10.7415 48.6749 10.7085 48.7684 10.714C48.8619 10.7195 49.0489 10.714 49.1864 10.714H49.3679C49.4174 10.714 49.4559 10.714 49.4449 10.7855L49.4119 11.033C49.39 11.2882 49.3514 11.5418 49.2964 11.792C49.2434 12.0387 49.1191 12.2644 48.9389 12.441C48.9196 12.4631 48.9089 12.4914 48.9089 12.5208C48.9089 12.5501 48.9196 12.5784 48.9389 12.6005L49.8189 14.85C49.835 14.8835 49.8479 14.9185 49.8574 14.9545V15.004L49.6704 15.0205ZM51.8704 9.1025C51.6669 9.1025 51.4689 9.1025 51.2654 9.1025C51.1829 9.1025 51.1499 9.1025 51.1444 8.998C51.1444 8.602 51.0894 8.206 51.0564 7.81L51.0069 7.194C51.0069 7.018 51.0069 7.018 50.8089 7.018H50.0994C50.0169 7.018 49.9784 7.018 49.9729 7.128C49.9729 7.524 49.9729 7.9255 49.9344 8.327C49.9344 8.5195 49.9344 8.7175 49.9344 8.91C49.9344 9.0145 49.9344 9.064 49.9014 9.086C49.8684 9.108 49.8244 9.1135 49.7254 9.1135H49.5879C49.4724 9.1135 49.3624 9.1135 49.2469 9.1135C49.1314 9.1135 49.1259 9.1135 49.1259 9.0035C49.1259 8.525 49.1644 8.0465 49.1809 7.568V7.106C49.1809 6.6 49.2139 6.094 49.2359 5.588C49.2332 5.5367 49.2332 5.4853 49.2359 5.434C49.2359 5.269 49.2359 5.0985 49.2359 4.9335C49.2359 4.7685 49.2359 4.7795 49.3844 4.785C49.5329 4.7905 49.6484 4.785 49.7859 4.785H50.4294C50.5761 4.77147 50.7241 4.78755 50.8644 4.83229C51.0048 4.87702 51.1348 4.94951 51.2466 5.04544C51.3584 5.14137 51.4499 5.25879 51.5155 5.39073C51.581 5.52266 51.6194 5.66643 51.6284 5.8135C51.6889 6.281 51.7329 6.754 51.7769 7.227L51.8264 7.7275L51.8759 8.2775C51.8759 8.514 51.9199 8.756 51.9474 8.9925C51.9694 9.075 51.9529 9.108 51.8539 9.1025H51.8704Z" fill="#7E91B4"/>
<path d="M18.6999 8.12894C18.6614 8.12894 18.6339 8.09044 18.6394 8.04644C18.6394 8.09594 18.6394 8.11794 18.6944 8.13444L18.6999 8.12894Z" fill="#7E91B4"/>
<path d="M26.1524 15.246C26.0754 15.246 26.0424 15.158 25.9709 15.1415C26.0534 15.1415 26.0809 15.2515 26.1634 15.246H26.1524Z" fill="#7E91B4"/>
<path d="M16.8849 10.4665L16.9234 10.4555L16.8904 10.4665H16.8849Z" fill="#7E91B4"/>
<path d="M20.9934 5.49995C20.9494 5.49995 20.8889 5.47245 20.8669 5.49995C20.8999 5.45595 20.9494 5.49995 20.9934 5.49995Z" fill="#7E91B4"/>
<path d="M24.3649 5.63756C24.3841 5.62336 24.3993 5.6044 24.4089 5.58256C24.4004 5.60362 24.3848 5.6211 24.3649 5.63206C24.3154 5.67056 24.3264 5.60456 24.2989 5.58806C24.3264 5.60456 24.3154 5.67056 24.3649 5.63756Z" fill="#7E91B4"/>
<path d="M23.0394 4.94999V4.95549L23.0614 4.93899H23.0559L23.0394 4.94999Z" fill="#7E91B4"/>
<path d="M26.2349 15.3561C26.2101 15.3519 26.1871 15.3404 26.1689 15.3231C26.1881 15.3402 26.2106 15.3533 26.2349 15.3616V15.3561Z" fill="#7E91B4"/>
<path d="M12.6499 19.8H32.4499V0H12.6499V19.8ZM18.9419 9.691H19.0354C19.0959 9.6635 19.1399 9.6635 19.1454 9.746C19.1509 9.8285 19.2444 9.8835 19.2114 9.9715H19.2389C19.3654 9.8835 19.5359 9.8945 19.6569 9.7845C19.6908 9.84521 19.7062 9.91449 19.7014 9.98385C19.6965 10.0532 19.6715 10.1196 19.6294 10.175C19.5574 10.279 19.4634 10.3659 19.3541 10.4296C19.2448 10.4933 19.1229 10.5322 18.9969 10.5435C18.8759 10.5435 18.8594 10.5105 18.9034 10.4115C18.9577 10.3039 19.0261 10.204 19.1069 10.1145C18.992 10.2119 18.8499 10.2714 18.6999 10.285C18.5734 10.285 18.5349 10.2465 18.5569 10.1145C18.5715 10.0534 18.5986 9.99595 18.6365 9.94579C18.6743 9.89563 18.7221 9.85383 18.7769 9.823C18.8374 9.779 18.9199 9.7625 18.9639 9.6965C18.8979 9.6965 18.8649 9.7295 18.8099 9.7515C18.7214 9.80013 18.6221 9.82562 18.5212 9.82562C18.4202 9.82562 18.3209 9.80013 18.2324 9.7515C18.1169 9.68 18.1114 9.6195 18.2324 9.5425C18.3534 9.4655 18.5294 9.405 18.6614 9.306H18.6999C18.8484 9.37247 19.0147 9.38794 19.1729 9.35C19.1729 9.482 19.1729 9.4765 19.0794 9.57C18.9859 9.6635 18.9859 9.6195 18.9749 9.68L18.9419 9.691ZM20.5369 10.021C20.7294 10.0485 20.7734 10.021 20.8009 9.812C20.8009 9.757 20.8009 9.6635 20.8009 9.6525C20.8893 9.62567 20.9729 9.58482 21.0484 9.5315C21.0484 9.5315 21.2794 9.7075 21.2904 9.7515C21.3243 9.88576 21.3107 10.0276 21.2519 10.153C21.1309 10.417 20.9989 10.6755 20.8724 10.9505C20.7913 10.8625 20.7411 10.7506 20.7294 10.6315C20.7059 10.4651 20.6557 10.3035 20.5809 10.153C20.5645 10.1046 20.5313 10.0636 20.4874 10.0375L20.5369 10.021ZM20.0474 5.9455C19.9539 5.995 19.9154 5.9455 19.8659 5.9015C19.8223 5.84701 19.7959 5.7808 19.79 5.71127C19.7842 5.64174 19.7991 5.57203 19.8329 5.511C19.8729 5.46504 19.9254 5.43172 19.984 5.41512C20.0426 5.39851 20.1048 5.39934 20.1629 5.4175C20.1959 5.4175 20.2234 5.4175 20.2344 5.4505C20.3083 5.57591 20.429 5.66689 20.5699 5.7035C20.6615 5.75504 20.7405 5.82646 20.8009 5.9125C20.879 6.00307 20.9655 6.08595 21.0594 6.16C20.942 6.15872 20.8268 6.19261 20.7288 6.2573C20.6308 6.32199 20.5544 6.41452 20.5094 6.523C20.3664 6.3305 20.3829 6.2095 20.5699 6.017C20.5043 5.94687 20.4165 5.90147 20.3214 5.88845C20.2262 5.87543 20.1295 5.89558 20.0474 5.9455ZM21.2354 5.1755C21.0571 5.23626 20.8637 5.23626 20.6854 5.1755C20.8641 5.11712 21.0567 5.11712 21.2354 5.1755ZM20.8449 4.675C20.8449 4.631 20.8174 4.5815 20.8449 4.554C20.8727 4.53578 20.9052 4.52608 20.9384 4.52608C20.9716 4.52608 21.0041 4.53578 21.0319 4.554C21.0869 4.5815 21.0759 4.6365 21.0594 4.675C21.0429 4.7135 20.9879 4.829 20.9384 4.928L20.8449 4.675ZM22.1374 5.2525C22.1374 5.291 22.1044 5.313 22.0824 5.3405C22.0604 5.368 21.9999 5.401 22.0824 5.434C22.1649 5.467 22.1264 5.489 22.0824 5.5165L21.9724 5.61C22.0856 5.72284 22.2322 5.79614 22.3904 5.819C22.2254 5.962 21.9834 5.929 21.7249 5.72C21.7249 5.7805 21.7249 5.874 21.6149 5.8135C21.5819 5.9015 21.4994 5.9125 21.4224 5.918C21.4554 6.0555 21.3674 5.9785 21.3344 5.9675L21.0264 5.819V5.907C20.8984 5.86305 20.7875 5.77987 20.7095 5.66928C20.6315 5.55869 20.5904 5.42632 20.5919 5.291C20.5919 5.225 20.6359 5.2525 20.6579 5.258C21.1465 5.35441 21.6495 5.35254 22.1374 5.2525ZM26.1469 10.0705L26.1194 10.043C26.0039 9.9275 26.1194 9.8285 26.1579 9.7295C26.1964 9.6305 26.2844 9.7735 26.3449 9.7295C26.2679 9.636 26.1304 9.581 26.1359 9.4215C26.3009 9.4215 26.4714 9.4765 26.6254 9.3665C26.6254 9.3665 26.6529 9.3665 26.6639 9.3665C26.8014 9.438 26.9444 9.5095 27.0764 9.592C27.2084 9.6745 27.1974 9.7295 27.0764 9.8065C27.0151 9.8412 26.9471 9.86257 26.877 9.8692C26.8069 9.87583 26.7361 9.86759 26.6694 9.845C26.6089 9.845 26.5539 9.79 26.4769 9.845C26.6254 9.933 26.7574 10.032 26.7574 10.23C26.7574 10.3125 26.7189 10.34 26.6364 10.34C26.5283 10.3347 26.4229 10.3046 26.3284 10.252C26.2954 10.252 26.2734 10.186 26.2129 10.208C26.2847 10.2809 26.3475 10.3622 26.3999 10.45C26.3999 10.4995 26.4384 10.5435 26.3504 10.5545C26.192 10.547 26.0387 10.4958 25.9076 10.4065C25.7765 10.3171 25.6728 10.1932 25.6079 10.0485C25.5998 10.0086 25.5998 9.96742 25.6079 9.9275C25.6079 9.823 25.6079 9.779 25.7399 9.8505C25.8719 9.922 26.0149 9.911 26.1139 10.0265L26.1414 10.054L26.1469 10.0705ZM26.7739 8.602C26.7888 8.59608 26.802 8.58664 26.8124 8.5745C26.8949 8.3545 27.0984 8.3435 27.2854 8.3325C27.3901 8.32241 27.4957 8.3375 27.5934 8.3765C27.6914 8.41613 27.781 8.47399 27.8574 8.547C27.9289 8.624 27.9179 8.668 27.8244 8.723C27.6639 8.80965 27.4843 8.85502 27.3019 8.85502C27.1195 8.85502 26.9399 8.80965 26.7794 8.723C26.6529 8.6735 26.7794 8.6295 26.7794 8.58L26.7739 8.602ZM27.2304 8.9265C27.3158 8.94903 27.3954 8.98967 27.4637 9.04566C27.532 9.10165 27.5875 9.17168 27.6264 9.251C27.6869 9.3665 27.6264 9.405 27.5439 9.438C27.3733 9.47882 27.1946 9.46996 27.029 9.41245C26.8633 9.35495 26.7175 9.25121 26.6089 9.1135C26.5594 9.0365 26.5154 8.954 26.4659 8.866C26.722 8.82766 26.9835 8.84835 27.2304 8.9265ZM26.1029 11.066C26.0589 10.8955 26.0039 10.7305 25.9544 10.5545C25.9807 10.5542 26.0066 10.5606 26.0297 10.5731C26.0528 10.5856 26.0723 10.6038 26.0864 10.626C26.3065 10.9425 26.4496 11.3059 26.5044 11.6875C26.5044 11.858 26.5044 12.089 26.3944 12.1495C26.2844 12.21 26.1249 12.012 26.0149 11.8965C25.8621 11.689 25.7775 11.4392 25.7729 11.1815C25.7289 10.9216 25.7068 10.6586 25.7069 10.395C25.8444 10.4225 25.8609 10.5215 25.8719 10.626C25.8953 10.8889 25.9526 11.1478 26.0424 11.396C26.0684 11.4629 26.1036 11.5258 26.1469 11.583C26.1852 11.4102 26.1699 11.2298 26.1029 11.066ZM26.3449 12.749C26.403 12.6063 26.4917 12.4782 26.6048 12.3736C26.7179 12.2691 26.8526 12.1907 26.9994 12.144C27.0272 12.1342 27.0569 12.1312 27.0861 12.1355C27.1152 12.1397 27.1429 12.151 27.1667 12.1683C27.1905 12.1856 27.2098 12.2085 27.2228 12.2349C27.2358 12.2614 27.2422 12.2906 27.2414 12.32C27.1844 12.4793 27.0887 12.622 26.9629 12.7353C26.8372 12.8486 26.6853 12.9289 26.5209 12.969C26.4936 12.9699 26.4664 12.9644 26.4416 12.9529C26.4168 12.9415 26.3949 12.9244 26.3779 12.903C26.3608 12.8817 26.3489 12.8566 26.3432 12.8299C26.3375 12.8032 26.3381 12.7755 26.3449 12.749ZM26.6694 11.3575C26.5433 11.1141 26.4019 10.8789 26.2459 10.6535C26.4109 10.582 26.4989 10.6535 26.5814 10.791C26.7218 11.0549 26.9213 11.2826 27.1644 11.4565C27.1623 11.3234 27.1223 11.1936 27.0489 11.0825C26.9084 10.8475 26.7342 10.6344 26.5319 10.45C26.4879 10.406 26.4439 10.3675 26.4439 10.307C26.527 10.3069 26.6088 10.3269 26.6826 10.3652C26.7563 10.4035 26.8197 10.459 26.8674 10.527C27.1926 10.8637 27.4125 11.2881 27.4999 11.748C27.5109 11.8375 27.5109 11.928 27.4999 12.0175C27.1534 11.9032 26.859 11.6692 26.6694 11.3575ZM22.7534 15.312L23.0174 14.8555L23.4189 15.477C23.4904 15.5815 23.4189 15.6255 23.3474 15.686C23.2759 15.7465 23.2979 15.6585 23.2814 15.6365L23.0394 15.2845C22.9624 15.422 22.8909 15.5485 22.8139 15.675C22.6599 15.499 22.6544 15.488 22.7534 15.312ZM22.6819 14.883C22.6379 14.9325 22.6104 14.883 22.5829 14.883C22.504 14.7894 22.4408 14.6835 22.3959 14.5695C22.4727 14.6082 22.5574 14.6283 22.6434 14.6283C22.7294 14.6283 22.8141 14.6082 22.8909 14.5695C22.8424 14.6867 22.7714 14.7932 22.6819 14.883ZM23.0229 14.498C22.9679 14.454 22.9294 14.4375 22.8634 14.498C22.7927 14.5371 22.7132 14.5579 22.6324 14.5585C22.5533 14.558 22.4756 14.5371 22.4069 14.498C22.3848 14.4787 22.3565 14.468 22.3272 14.468C22.2978 14.468 22.2695 14.4787 22.2474 14.498C22.0561 14.622 21.8463 14.7149 21.6259 14.773C22.0266 14.4426 22.3703 14.0487 22.6434 13.607C22.9077 14.0518 23.2485 14.4465 23.6499 14.773C23.425 14.7231 23.212 14.6297 23.0229 14.498ZM19.3599 14.949C19.3874 14.9875 19.4699 15.0095 19.4424 15.0755C19.4149 15.1415 19.3379 15.1085 19.2829 15.1085C19.2124 15.1034 19.1444 15.0807 19.0849 15.0425C19.0409 15.0425 18.9969 14.9875 19.0134 14.938C19.0299 14.8885 19.0794 14.883 19.1234 14.883H19.2004C19.0482 14.7487 18.8533 14.6727 18.6504 14.6685L18.4524 14.63C18.4444 14.6087 18.4444 14.5853 18.4524 14.564C18.4638 14.5417 18.4787 14.5213 18.4964 14.5035C18.5696 14.4343 18.6648 14.3931 18.7654 14.387C18.866 14.381 18.9654 14.4105 19.0464 14.4705L19.1289 14.5255C19.2994 14.63 19.3874 14.6135 19.4809 14.4375C19.5744 14.2615 19.6459 14.0855 19.7339 13.8875C19.832 13.6626 19.9537 13.4488 20.0969 13.2495C20.1166 13.217 20.1428 13.1889 20.1739 13.167C20.2069 13.1445 20.2445 13.1295 20.2839 13.123C20.3238 13.1149 20.365 13.1149 20.4049 13.123C20.4819 13.123 20.4049 13.2385 20.4489 13.299C20.4929 13.3595 20.5424 13.2605 20.5919 13.2385C20.6414 13.2165 20.6799 13.2055 20.7239 13.2385C20.7679 13.2715 20.7954 13.2935 20.7954 13.332C20.7954 13.3705 20.7404 13.3815 20.7019 13.3925C20.4273 13.4771 20.1903 13.6539 20.0309 13.893C19.8353 14.1475 19.6898 14.4368 19.6019 14.7455C19.5689 14.894 19.5084 14.927 19.3764 14.883H19.2994L19.3599 14.949ZM18.3974 11.22C18.5193 11.0905 18.6246 10.9464 18.7109 10.791C18.7824 10.6535 18.8649 10.5765 19.0354 10.6535C18.8319 10.9285 18.6999 11.253 18.4854 11.5335C18.296 11.7638 18.0408 11.9308 17.7539 12.012C17.7323 11.7531 17.7858 11.4934 17.9079 11.264C18.0751 10.9421 18.2923 10.6488 18.5514 10.395C18.6339 10.307 18.7494 10.395 18.8429 10.296C18.8433 10.3301 18.8349 10.3637 18.8185 10.3935C18.8021 10.4234 18.7783 10.4485 18.7494 10.4665C18.5579 10.6443 18.3897 10.8458 18.2489 11.066C18.175 11.1821 18.1298 11.314 18.1169 11.451C18.2243 11.3926 18.3195 11.3142 18.3974 11.22ZM18.1114 12.1935C18.1507 12.1583 18.2016 12.1389 18.2544 12.1389C18.3072 12.1389 18.3581 12.1583 18.3974 12.1935C18.6353 12.3126 18.8283 12.5056 18.9474 12.7435C18.968 12.7734 18.9791 12.8088 18.9794 12.8451C18.9797 12.8814 18.9691 12.9169 18.9489 12.9471C18.9288 12.9773 18.9001 13.0008 18.8665 13.0145C18.8329 13.0282 18.7959 13.0315 18.7604 13.024C18.71 13.0251 18.6604 13.0117 18.6174 12.9855C18.4132 12.8798 18.2419 12.72 18.1224 12.5235C18.0983 12.5036 18.0787 12.4789 18.0649 12.4509C18.0511 12.4228 18.0434 12.3922 18.0424 12.361C18.0413 12.3298 18.0469 12.2987 18.0588 12.2698C18.0707 12.2409 18.0887 12.2149 18.1114 12.1935ZM18.9529 12.1605C18.8759 12.21 18.8704 12.1605 18.8484 12.1C18.7584 11.855 18.7584 11.586 18.8484 11.341C18.9363 11.0947 19.0506 10.8587 19.1894 10.637C19.2018 10.6136 19.221 10.5944 19.2444 10.582C19.2715 10.575 19.2998 10.575 19.3269 10.582C19.1829 10.9209 19.1117 11.2863 19.1179 11.6545C19.2542 11.4215 19.3422 11.1633 19.3764 10.8955C19.3964 10.8011 19.4111 10.7056 19.4204 10.6095C19.4204 10.505 19.4809 10.4555 19.5854 10.4115C19.5782 10.8427 19.5173 11.2714 19.4039 11.6875C19.3126 11.8924 19.1532 12.0595 18.9529 12.1605ZM20.8504 14.0085C20.8504 14.0085 20.8504 14.036 20.8504 14.0415C20.7184 14.102 20.7349 14.168 20.8174 14.278C21.0814 14.63 21.3344 15.004 21.6039 15.378C21.7029 15.5045 21.7414 15.609 21.6039 15.7355C21.5544 15.7355 21.5434 15.6695 21.5104 15.631L20.6689 14.465C20.5534 14.3 20.5479 14.3 20.3719 14.4045V13.8545L20.8504 14.0085ZM20.5204 11.2145C20.6799 11.2145 20.7129 11.341 20.7129 11.4675C20.745 11.6829 20.7125 11.9031 20.6194 12.1C20.4104 11.935 20.3004 11.5995 20.2124 10.835C20.4489 11.066 20.3444 11.385 20.5369 11.66C20.5574 11.5117 20.5518 11.3609 20.5204 11.2145ZM21.1419 12.4135C21.0099 12.705 20.7294 12.76 20.5094 12.881C20.4434 12.9195 20.3114 12.837 20.1959 12.8095C20.4379 12.4795 20.8174 12.5345 21.1419 12.4135ZM21.2354 6.3635C21.3674 6.457 21.4444 6.6 21.5819 6.688C21.6259 6.7155 21.5819 6.754 21.5819 6.787C21.544 6.90989 21.5255 7.03792 21.5269 7.1665C21.4393 7.0618 21.3788 6.93713 21.3509 6.8035C21.3466 6.69421 21.3067 6.58934 21.2371 6.50491C21.1676 6.42048 21.0723 6.36116 20.9659 6.336C21.0041 6.30519 21.0516 6.28839 21.1007 6.28839C21.1497 6.28839 21.1972 6.30519 21.2354 6.336V6.3635ZM20.9714 6.0115C21.1207 6.01247 21.2641 6.0696 21.3731 6.17151C21.4822 6.27342 21.5489 6.41265 21.5599 6.5615C21.3839 6.3085 21.1089 6.2205 20.9714 5.984V6.0115ZM21.1804 7.843C21.2854 7.80957 21.381 7.75179 21.4594 7.67436C21.5377 7.59693 21.5967 7.50206 21.6314 7.3975C21.6598 7.50018 21.6578 7.60889 21.6255 7.71043C21.5933 7.81198 21.5323 7.90198 21.4499 7.9695C21.4085 7.99642 21.3614 8.01336 21.3124 8.019C21.2633 8.02098 21.2143 8.01157 21.1694 7.9915C21.1089 7.9915 21.0374 7.9255 21.0374 7.8595C21.0374 7.7935 21.1364 7.8265 21.1804 7.8155V7.843ZM21.3509 6.05C21.4169 6.0225 21.5049 6.127 21.5214 5.9895C21.5214 5.9565 21.6424 5.962 21.6809 6.028C21.7416 6.15854 21.8134 6.28366 21.8954 6.402C21.9449 6.4735 21.8954 6.5285 21.8514 6.6165C21.7468 6.38068 21.572 6.18286 21.3509 6.05ZM22.6104 6.4295C22.7039 6.4295 22.7589 6.49 22.8194 6.5395C22.8556 6.56956 22.8799 6.61154 22.888 6.6579C22.896 6.70426 22.8873 6.75198 22.8634 6.7925C22.7974 6.919 22.7259 7.04 22.6434 7.183C22.5719 7.0565 22.4949 6.9465 22.4344 6.831C22.4134 6.79408 22.4021 6.75246 22.4014 6.71C22.3931 6.67009 22.3931 6.62891 22.4014 6.589C22.4189 6.5504 22.4453 6.51649 22.4784 6.49C22.515 6.45649 22.5611 6.43533 22.6104 6.4295ZM22.5499 4.873C22.5499 4.818 22.5774 4.774 22.6379 4.774H22.7094C22.7121 4.78669 22.7121 4.79981 22.7094 4.8125C22.7094 4.8675 22.6764 4.9005 22.6159 4.9115C22.5554 4.9225 22.5499 4.95 22.5499 4.873ZM23.4189 13.4805C23.5007 13.556 23.589 13.6241 23.6829 13.684C23.7755 13.7487 23.848 13.8384 23.8919 13.9425C23.8919 14.0085 23.8919 14.0415 23.8204 14.025C23.6347 13.9859 23.4667 13.8874 23.3419 13.7445C23.1878 13.5702 23.075 13.3634 23.0119 13.1395C23.0035 13.1145 23.0035 13.0875 23.0119 13.0625C23.007 13.0352 23.007 13.0073 23.0119 12.98C23.0559 12.903 23.0834 12.8205 23.1439 12.683C23.3804 13.0735 23.7654 13.2715 24.0129 13.607C23.5949 13.607 23.4629 13.2275 23.1824 12.9855C23.1782 13.0811 23.1975 13.1762 23.2388 13.2626C23.28 13.3489 23.3419 13.4237 23.4189 13.4805ZM22.5499 8.019C22.6159 8.107 22.6819 8.1015 22.7424 8.019C22.9514 8.272 22.9624 8.47 22.7919 8.6735C22.6214 8.877 22.6269 8.7945 22.5169 8.6735C22.4069 8.5525 22.3354 8.283 22.5499 8.019ZM22.5499 7.469C22.5879 7.41986 22.6228 7.36843 22.6544 7.315C22.6848 7.36441 22.7179 7.41215 22.7534 7.458C22.7827 7.48668 22.8059 7.52091 22.8218 7.55868C22.8377 7.59646 22.8458 7.63702 22.8458 7.678C22.8458 7.71898 22.8377 7.75954 22.8218 7.79732C22.8059 7.83509 22.7827 7.86932 22.7534 7.898C22.6819 7.997 22.6324 8.0025 22.5554 7.898C22.4124 7.7275 22.4069 7.6505 22.5499 7.4745V7.469ZM21.2849 13.6235C21.2911 13.5694 21.312 13.518 21.3454 13.475C21.3774 13.4301 21.4187 13.3926 21.4664 13.365C21.6816 13.2495 21.862 13.0786 21.9889 12.87L22.0219 12.826C22.1319 12.7105 22.1374 12.727 22.2144 12.8535C22.3684 13.09 22.2144 13.2825 22.1374 13.4695C22.0696 13.6182 21.9647 13.7468 21.8327 13.8432C21.7007 13.9395 21.5462 14.0002 21.3839 14.0195C21.3946 13.9455 21.422 13.8749 21.4639 13.813C21.5058 13.7511 21.5612 13.6994 21.6259 13.662C21.7786 13.5678 21.9113 13.4444 22.0164 13.299C22.0859 13.204 22.1155 13.0856 22.0989 12.969C21.8184 13.2 21.6809 13.5905 21.2739 13.629L21.2849 13.6235ZM21.9504 12.672C21.8902 12.7221 21.8143 12.7495 21.7359 12.7495C21.6575 12.7495 21.5817 12.7221 21.5214 12.672C21.5092 12.6661 21.4985 12.6574 21.4902 12.6467C21.4819 12.6359 21.4762 12.6234 21.4735 12.6101C21.4708 12.5968 21.4713 12.583 21.4748 12.5699C21.4784 12.5568 21.4849 12.5447 21.4939 12.5345C21.5093 12.5026 21.5308 12.474 21.5572 12.4504C21.5836 12.4268 21.6145 12.4087 21.6479 12.397C21.9151 12.2979 22.1441 12.117 22.3024 11.88C22.3076 12.0319 22.2775 12.183 22.2145 12.3214C22.1515 12.4597 22.0574 12.5816 21.9394 12.6775L21.9504 12.672ZM21.6864 12.1C21.6496 12.0571 21.6294 12.0025 21.6294 11.946C21.6294 11.8895 21.6496 11.8349 21.6864 11.792L21.9009 11.5335C21.9449 11.6215 21.9834 11.7095 22.0219 11.7975C22.05 11.8456 22.0598 11.9023 22.0494 11.957C22.0415 12.0134 22.0198 12.0671 21.9862 12.1131C21.9526 12.1592 21.9082 12.1962 21.8569 12.221C21.7744 12.232 21.7304 12.1385 21.6864 12.1ZM22.1924 11.913C22.1678 11.8187 22.1308 11.7281 22.0824 11.6435C22.034 11.515 22.0265 11.3747 22.0609 11.2417C22.0954 11.1088 22.1701 10.9898 22.2749 10.901C22.3134 10.868 22.3299 10.901 22.3519 10.901C22.4256 10.9695 22.4774 11.0583 22.5008 11.1561C22.5243 11.2539 22.5184 11.3565 22.4839 11.451C22.4275 11.6225 22.327 11.7762 22.1924 11.8965V11.913ZM22.4124 9.2455C22.3785 9.19987 22.3636 9.14289 22.3707 9.0865C22.3779 9.0301 22.4066 8.97868 22.4509 8.943C22.5076 8.89942 22.5774 8.87618 22.6489 8.877C22.7204 8.87769 22.7891 8.90516 22.8414 8.954C22.8825 8.98836 22.9089 9.03719 22.915 9.09041C22.9211 9.14363 22.9066 9.19718 22.8744 9.24L22.6434 9.592C22.5499 9.46 22.4839 9.35 22.4124 9.229V9.2455ZM22.6379 11.0825C22.3354 10.7195 22.3354 10.5655 22.6379 10.2025C22.7031 10.254 22.7559 10.3196 22.7921 10.3944C22.8284 10.4691 22.8472 10.5511 22.8472 10.6342C22.8472 10.7174 22.8284 10.7994 22.7921 10.8741C22.7559 10.9489 22.7031 11.0145 22.6379 11.066V11.0825ZM22.3739 9.35C22.4975 9.47313 22.5702 9.63836 22.5773 9.81271C22.5845 9.98706 22.5256 10.1577 22.4124 10.2905C22.338 10.241 22.2744 10.1769 22.2257 10.1019C22.177 10.027 22.1442 9.94286 22.1292 9.85475C22.1143 9.76663 22.1176 9.67638 22.1388 9.58957C22.1601 9.50277 22.1989 9.42123 22.2529 9.35C22.2969 9.3005 22.3134 9.295 22.3739 9.35ZM22.6434 11.4125C23.0339 11.836 22.8524 12.2595 22.6434 12.6775C22.3244 12.1 22.3244 11.803 22.6434 11.429V11.4125ZM22.7974 11.1595C22.7949 11.1321 22.7949 11.1044 22.7974 11.077C22.8304 10.9835 22.8799 10.879 22.9679 10.8625C23.0559 10.846 23.0669 10.967 23.1164 11.033C23.1951 11.1185 23.2424 11.2283 23.2504 11.3443C23.2584 11.4602 23.2267 11.5755 23.1604 11.671C23.1219 11.7315 23.1054 11.803 23.0669 11.88C22.9723 11.7902 22.899 11.6803 22.8524 11.5585C22.8058 11.4367 22.787 11.306 22.7974 11.176V11.1595ZM23.2704 11.7975C23.3089 11.6985 23.3584 11.605 23.4024 11.5005C23.4794 11.5885 23.5399 11.6655 23.6059 11.748C23.6298 11.784 23.6457 11.8248 23.6526 11.8675C23.6594 11.9102 23.657 11.9538 23.6456 11.9955C23.6341 12.0372 23.6138 12.076 23.5861 12.1092C23.5584 12.1424 23.5239 12.1693 23.4849 12.188H23.4354C23.3718 12.1512 23.3215 12.0952 23.2919 12.0279C23.2622 11.9607 23.2547 11.8858 23.2704 11.814V11.7975ZM23.2704 10.9835C23.2099 11.0275 23.2044 10.9835 23.1824 10.956C23.1193 10.899 23.0702 10.8281 23.0391 10.7489C23.008 10.6697 22.9957 10.5843 23.0032 10.4996C23.0106 10.4148 23.0376 10.3329 23.0821 10.2604C23.1266 10.1879 23.1873 10.1266 23.2594 10.0815C23.2979 10.1255 23.3309 10.175 23.3694 10.2245C23.4207 10.2799 23.4587 10.3462 23.4807 10.4184C23.5028 10.4907 23.5081 10.5669 23.4965 10.6415C23.4849 10.7161 23.4565 10.7871 23.4135 10.8492C23.3706 10.9113 23.3141 10.9628 23.2484 11L23.2704 10.9835ZM22.9184 10.285C22.6654 9.9715 22.6819 9.7075 23.0009 9.2785C23.0701 9.34833 23.123 9.43263 23.1558 9.52534C23.1886 9.61805 23.2004 9.71687 23.1904 9.81469C23.1804 9.91251 23.1488 10.0069 23.098 10.0911C23.0472 10.1753 22.9783 10.2471 22.8964 10.3015L22.9184 10.285ZM22.9184 8.6955C22.9827 8.60777 23.0174 8.5018 23.0174 8.393C23.0174 8.2842 22.9827 8.17823 22.9184 8.0905C22.8524 7.9915 22.9184 7.8705 22.9184 7.744C23.0724 7.9255 23.2649 8.0795 23.2319 8.327C23.2161 8.41809 23.1746 8.50275 23.1122 8.57098C23.0498 8.63921 22.9692 8.68814 22.8799 8.712L22.9184 8.6955ZM22.4014 8.1125C22.3554 8.18483 22.331 8.26878 22.331 8.3545C22.331 8.44022 22.3554 8.52417 22.4014 8.5965C22.4014 8.635 22.4564 8.668 22.4014 8.712C22.3299 8.6515 22.2584 8.591 22.1924 8.525C22.1254 8.47551 22.0804 8.40178 22.067 8.31956C22.0537 8.23734 22.073 8.15316 22.1209 8.085C22.193 7.96319 22.2819 7.8521 22.3849 7.755C22.4156 7.81345 22.4298 7.87916 22.4259 7.94506C22.422 8.01096 22.4002 8.07455 22.3629 8.129L22.4014 8.1125ZM22.0934 8.5415C22.1728 8.59106 22.2372 8.66123 22.2798 8.74453C22.3224 8.82784 22.3416 8.92114 22.3354 9.0145C22.339 9.03926 22.3369 9.0645 22.3292 9.08832C22.3216 9.11214 22.3087 9.13391 22.2914 9.152C22.2028 9.24466 22.1353 9.35535 22.0934 9.4765L21.9889 9.361C21.934 9.30955 21.8901 9.24737 21.8602 9.17831C21.8303 9.10925 21.8148 9.03478 21.8148 8.9595C21.8148 8.88422 21.8303 8.80975 21.8602 8.74069C21.8901 8.67163 21.934 8.60945 21.9889 8.558C21.9999 8.5195 21.9999 8.525 22.0549 8.558L22.0934 8.5415ZM22.1869 10.1915C22.3959 10.472 22.3739 10.637 22.1539 10.9615C22.1099 11.022 22.0879 10.989 22.0604 10.9615C22.0015 10.918 21.9527 10.8623 21.9172 10.7983C21.8817 10.7342 21.8603 10.6633 21.8546 10.5903C21.8489 10.5173 21.8589 10.4439 21.8839 10.3751C21.909 10.3063 21.9485 10.2437 21.9999 10.1915L22.0824 10.0815C22.1008 10.129 22.1229 10.1749 22.1484 10.219L22.1869 10.1915ZM21.8569 10.868C21.9185 10.9465 21.9519 11.0433 21.9519 11.143C21.9519 11.2427 21.9185 11.3396 21.8569 11.418L21.7194 11.6325C21.6583 11.5288 21.6103 11.418 21.5764 11.3025C21.5618 11.2136 21.5721 11.1224 21.6061 11.0389C21.64 10.9555 21.6964 10.883 21.7689 10.8295C21.8019 10.8185 21.8019 10.868 21.8184 10.8955L21.8569 10.868ZM21.6809 12.177H21.7579C21.7607 12.1897 21.7607 12.2028 21.7579 12.2155C21.7579 12.276 21.7139 12.276 21.6754 12.287C21.6301 12.2961 21.5872 12.3145 21.5493 12.341C21.5115 12.3675 21.4795 12.4016 21.4554 12.441C21.3399 12.6225 21.3289 12.628 21.0979 12.5785C21.2355 12.3875 21.427 12.242 21.6479 12.1605L21.6809 12.177ZM21.3894 12.727C21.4829 12.727 21.4829 12.727 21.5654 12.804C21.4983 12.8034 21.4321 12.8184 21.3719 12.8481C21.3117 12.8777 21.2593 12.921 21.2189 12.9745C21.1988 13.0056 21.1881 13.0419 21.1881 13.079C21.1881 13.1161 21.1988 13.1524 21.2189 13.1835C21.2629 13.2605 21.3344 13.244 21.4059 13.2385H21.4774C21.4169 13.387 21.3289 13.4475 21.2079 13.4255C21.1761 13.4294 21.1438 13.4265 21.1131 13.4169C21.0825 13.4074 21.0543 13.3914 21.0304 13.37C21.0064 13.3487 20.9873 13.3225 20.9743 13.2932C20.9613 13.2638 20.9547 13.2321 20.9549 13.2C20.9671 13.0916 21.0113 12.9893 21.0818 12.906C21.1523 12.8228 21.246 12.7624 21.3509 12.7325L21.3894 12.727ZM21.3069 14.63C21.6392 14.4361 21.9246 14.1713 22.1429 13.8545C22.1672 13.8139 22.2036 13.782 22.247 13.7632C22.2905 13.7445 22.3387 13.7398 22.3849 13.75C22.1337 14.1755 21.7777 14.5296 21.3509 14.7785C21.2684 14.828 21.2574 14.7785 21.2244 14.7235C21.1914 14.6685 21.2354 14.652 21.2684 14.6355L21.3069 14.63ZM22.2254 13.651C22.5224 13.431 22.5609 13.31 22.3959 12.9745C22.3295 12.8755 22.2909 12.7605 22.2841 12.6415C22.2773 12.5225 22.3026 12.4039 22.3574 12.298L22.4014 12.243C22.4742 12.4941 22.5718 12.7373 22.6929 12.969C22.813 12.7343 22.9124 12.4895 22.9899 12.2375C23.0507 12.3218 23.0878 12.4208 23.0975 12.5243C23.1072 12.6277 23.089 12.7319 23.0449 12.826C22.9972 12.915 22.9549 13.0068 22.9184 13.101C22.8359 13.3595 22.8854 13.475 23.1714 13.651C22.9349 13.706 22.8194 13.5685 22.6929 13.442C22.5499 13.5795 22.4124 13.75 22.1869 13.6565L22.2254 13.651ZM23.3254 12.65C23.2202 12.5573 23.1362 12.443 23.0792 12.3148C23.0223 12.1867 22.9937 12.0477 22.9954 11.9075C23.1578 12.1419 23.3853 12.3236 23.6499 12.43C23.7434 12.43 23.8259 12.5455 23.8039 12.6335C23.7819 12.7215 23.6719 12.7655 23.5674 12.7655C23.4756 12.7568 23.3899 12.7159 23.3254 12.65ZM23.5234 12.287C23.5729 12.188 23.6334 12.1825 23.7269 12.2265C23.9177 12.3256 24.0804 12.4712 24.1999 12.65C23.9744 12.6995 23.9414 12.694 23.8424 12.5125C23.7434 12.331 23.6499 12.3585 23.5234 12.298V12.287ZM23.5949 11.649L23.4244 11.3795C23.3791 11.2985 23.3596 11.2056 23.3685 11.1133C23.3773 11.0209 23.4141 10.9334 23.4739 10.8625C23.5124 10.7965 23.5399 10.8295 23.5674 10.8625C23.6514 10.9233 23.7109 11.0122 23.7352 11.1131C23.7594 11.214 23.7467 11.3202 23.6994 11.4125C23.6499 11.495 23.6499 11.55 23.5949 11.66V11.649ZM23.5014 10.2465C23.1879 9.911 23.2044 9.6415 23.5729 9.273C23.6499 9.3885 23.7324 9.4985 23.8149 9.6085C23.828 9.63004 23.835 9.65478 23.835 9.68C23.835 9.70522 23.828 9.72996 23.8149 9.7515C23.7557 9.94434 23.6477 10.1186 23.5014 10.2575V10.2465ZM23.8369 9.5095C23.7014 9.3889 23.6186 9.21996 23.6062 9.03898C23.5939 8.85799 23.653 8.67938 23.7709 8.5415C23.8435 8.59851 23.9099 8.66303 23.9689 8.734C24.003 8.79368 24.0232 8.86029 24.0279 8.92885C24.0327 8.99742 24.0219 9.06618 23.9964 9.13C23.9668 9.2686 23.9128 9.40084 23.8369 9.5205V9.5095ZM23.5509 8.712C23.4079 8.3435 23.1219 8.0465 23.3364 7.645C23.4149 7.91256 23.5335 8.16663 23.6884 8.3985C23.7434 8.5085 23.6114 8.591 23.5509 8.723V8.712ZM23.3034 7.2435C23.2559 7.15792 23.2343 7.06041 23.2412 6.9628C23.248 6.86518 23.283 6.77164 23.3419 6.6935C23.3749 6.633 23.4134 6.6935 23.4409 6.6935C23.4913 6.74758 23.5292 6.81205 23.552 6.88236C23.5748 6.95268 23.582 7.02714 23.5729 7.1005C23.5777 7.24372 23.5591 7.38675 23.5179 7.524C23.4409 7.4525 23.3639 7.359 23.3034 7.2545V7.2435ZM23.4519 8.7285C23.4914 8.77252 23.5211 8.82441 23.539 8.88075C23.5569 8.93709 23.5627 8.9966 23.556 9.05533C23.5492 9.11407 23.5301 9.17071 23.4998 9.2215C23.4695 9.2723 23.4288 9.31609 23.3804 9.35L23.2374 9.515C23.203 9.41875 23.1548 9.32798 23.0944 9.2455C23.0362 9.17616 23.0043 9.08853 23.0043 8.998C23.0043 8.90747 23.0362 8.81984 23.0944 8.7505C23.2374 8.481 23.3199 8.4865 23.4519 8.7395V8.7285ZM23.1384 7.7935C23.07 7.67528 22.9868 7.56624 22.8909 7.469C22.845 7.42195 22.8142 7.36226 22.8024 7.29759C22.7907 7.23291 22.7985 7.1662 22.8249 7.106C22.8839 6.96429 22.9518 6.82651 23.0284 6.6935C23.0999 7.0565 23.4024 7.3865 23.1384 7.8045V7.7935ZM22.4784 7.1775C22.4875 7.22278 22.4863 7.26952 22.4748 7.31427C22.4634 7.35901 22.4421 7.40062 22.4124 7.436C22.3299 7.5515 22.2309 7.6615 22.1429 7.7715C22.0743 7.69943 22.0295 7.60795 22.0148 7.50953C22 7.41111 22.0159 7.31054 22.0604 7.2215C22.1154 7.0345 22.1869 6.8475 22.2529 6.6715C22.348 6.83446 22.4236 7.00797 22.4784 7.1885V7.1775ZM22.1099 6.7375C22.0815 6.5882 22.0276 6.44493 21.9504 6.314C21.862 6.18117 21.7969 6.03423 21.7579 5.8795C21.8419 5.90841 21.9188 5.955 21.9833 6.01613C22.0478 6.07725 22.0984 6.1515 22.1317 6.23386C22.1651 6.31622 22.1804 6.40477 22.1767 6.49355C22.1729 6.58233 22.1501 6.66927 22.1099 6.7485V6.7375ZM21.9119 6.677C22.1099 7.0125 22.0879 7.1335 21.7744 7.5295C21.7073 7.39228 21.6845 7.2376 21.7091 7.08685C21.7337 6.93609 21.8046 6.79672 21.9119 6.688V6.677ZM21.7524 8.69C21.5654 8.481 21.5654 8.4645 21.6919 8.2665C21.8055 8.06923 21.8942 7.85862 21.9559 7.6395C22.1759 8.0575 21.8844 8.3545 21.7524 8.701V8.69ZM21.4499 9.5205C21.1804 9.031 21.1969 8.8605 21.5104 8.547C21.6293 8.6851 21.6895 8.86419 21.6782 9.04606C21.6669 9.22793 21.585 9.39819 21.4499 9.5205ZM21.4499 9.614C21.5324 9.5095 21.6094 9.394 21.6919 9.2785C22.0604 9.702 22.0659 9.8285 21.7689 10.263C21.6072 10.1243 21.4873 9.94341 21.4224 9.7405C21.4181 9.71574 21.4216 9.69026 21.4325 9.66759C21.4433 9.64493 21.4609 9.62619 21.4829 9.614H21.4499ZM21.4499 10.0705C21.5233 10.1162 21.585 10.1786 21.6297 10.2527C21.6745 10.3267 21.7012 10.4102 21.7077 10.4965C21.7141 10.5828 21.7001 10.6693 21.6668 10.7492C21.6334 10.829 21.5818 10.8999 21.5159 10.956C21.454 10.9012 21.4037 10.8345 21.3681 10.7598C21.3325 10.6851 21.3123 10.6041 21.3087 10.5214C21.3051 10.4388 21.3182 10.3563 21.3472 10.2788C21.3762 10.2013 21.4204 10.1305 21.4774 10.0705H21.4499ZM21.4994 11.891C21.4994 11.891 21.4994 11.9295 21.4994 11.9515C21.4994 11.9735 21.5874 12.111 21.5654 12.133C21.4984 12.1897 21.4221 12.2344 21.3399 12.265C21.1935 12.3332 21.0378 12.3795 20.8779 12.4025C21.0549 12.1873 21.2763 12.0128 21.5269 11.891H21.4994ZM21.1254 12.738C21.0403 12.799 20.9676 12.8755 20.9109 12.9635C20.8669 13.0405 20.8119 13.057 20.7294 13.002C20.6703 12.9662 20.6076 12.9367 20.5424 12.914C20.7148 12.7773 20.9342 12.714 21.1529 12.738H21.1254ZM22.8964 13.75C22.9542 13.734 23.0157 13.7391 23.0701 13.7643C23.1245 13.7894 23.1682 13.8331 23.1934 13.8875C23.4045 14.1968 23.6828 14.4543 24.0074 14.641C24.0404 14.641 24.1064 14.641 24.0569 14.7345C24.0074 14.828 23.9909 14.8225 23.9139 14.7785C23.4943 14.5259 23.1445 14.1723 22.8964 13.75ZM23.8699 13.255C23.9689 13.255 24.0899 13.3045 24.1174 13.167C24.1265 13.1119 24.1175 13.0553 24.0917 13.0057C24.0659 12.9561 24.0248 12.9162 23.9744 12.892C23.8989 12.8491 23.8137 12.8264 23.7269 12.826C23.7445 12.8019 23.767 12.7819 23.793 12.7673C23.8189 12.7526 23.8477 12.7437 23.8774 12.7411C23.9071 12.7385 23.937 12.7423 23.9651 12.7522C23.9932 12.7621 24.0189 12.7779 24.0404 12.7985C24.1464 12.8692 24.2303 12.9683 24.2824 13.0845C24.3 13.1139 24.3109 13.1467 24.3145 13.1808C24.3182 13.2148 24.3144 13.2492 24.3034 13.2817C24.2924 13.3141 24.2745 13.3437 24.2509 13.3686C24.2274 13.3934 24.1987 13.4128 24.1669 13.4255C24.0514 13.464 23.9414 13.409 23.8699 13.244V13.255ZM24.2659 12.8645L24.1559 12.749C24.3649 12.6995 24.5244 12.826 24.7059 12.925L24.6564 12.9525C24.4254 13.046 24.4254 13.046 24.2659 12.8535V12.8645ZM24.4474 13.1615C24.6514 13.0413 24.8747 12.9576 25.1074 12.914C25.1844 12.914 25.2064 12.98 25.2229 13.0295C25.2394 13.079 25.1734 13.0955 25.1294 13.101H24.9479C24.8489 13.101 24.7499 13.101 24.7774 13.244C24.5629 13.1725 24.5464 13.1835 24.4144 13.3815C24.3965 13.3665 24.3828 13.3471 24.3745 13.3253C24.3661 13.3035 24.3635 13.28 24.3668 13.2568C24.3701 13.2337 24.3792 13.2118 24.3933 13.1932C24.4074 13.1746 24.426 13.1599 24.4474 13.1505V13.1615ZM25.1624 10.8405C25.2139 10.8713 25.2557 10.9161 25.283 10.9696C25.3102 11.0231 25.3218 11.0832 25.3164 11.143C25.3056 11.3316 25.3395 11.52 25.4154 11.693C25.4888 11.5469 25.5139 11.3813 25.4869 11.22C25.4668 11.149 25.467 11.0737 25.4874 11.0028C25.5078 10.9318 25.5476 10.868 25.6024 10.8185C25.6904 11.253 25.6739 12.0835 25.4209 12.232C25.2464 11.7852 25.1586 11.3092 25.1624 10.8295V10.8405ZM25.4154 10.912C25.3769 10.9615 25.3549 10.956 25.3109 10.912C25.1924 10.7727 25.1211 10.5994 25.1074 10.417C25.0821 10.6117 25.0166 10.799 24.9149 10.967C24.8661 11.0563 24.7935 11.1303 24.7051 11.1808C24.6168 11.2313 24.5161 11.2563 24.4144 11.253C24.5481 10.9252 24.6602 10.589 24.7499 10.2465C24.8014 10.121 24.8719 10.0041 24.9589 9.9C24.9589 9.8725 24.9974 9.823 25.0359 9.834C25.0575 9.84404 25.0764 9.85913 25.0909 9.878C25.0989 9.89927 25.0989 9.92273 25.0909 9.944C25.0909 10.0375 25.0909 10.1365 25.1184 10.2355V10.1145C25.1184 10.0375 25.1514 9.9495 25.2669 10.0155H25.3329C25.4484 9.9 25.4814 10.0155 25.5144 10.0815C25.5767 10.2136 25.6005 10.3605 25.583 10.5055C25.5655 10.6505 25.5074 10.7876 25.4154 10.901V10.912ZM24.7499 11.6545C24.9369 11.3905 24.8434 11.055 25.0799 10.835C25.0786 11.2861 24.9426 11.7266 24.6894 12.1C24.6191 12.0063 24.5806 11.8926 24.5794 11.7755C24.5739 11.6729 24.5739 11.5701 24.5794 11.4675C24.5794 11.341 24.5794 11.22 24.7719 11.2145C24.7421 11.3592 24.7346 11.5076 24.7499 11.6545ZM25.0799 12.8095C24.9589 12.8095 24.8434 12.925 24.7499 12.8755C24.5354 12.7545 24.2604 12.6995 24.1449 12.419C24.4694 12.529 24.8379 12.485 25.0854 12.8095H25.0799ZM23.7104 12.166C23.6719 12.166 23.6719 12.122 23.7104 12.089C23.7468 12.0282 23.771 11.961 23.7819 11.891C24.0192 12.0165 24.2287 12.1886 24.3979 12.397C24.1563 12.3711 23.9235 12.2923 23.7159 12.166H23.7104ZM23.7434 10.9615C23.4794 10.5985 23.4904 10.4115 23.7984 10.0595C23.9016 10.19 23.9535 10.3537 23.9444 10.5199C23.9353 10.686 23.8658 10.8431 23.7489 10.9615H23.7434ZM23.8864 9.6085C23.9248 9.48848 23.9784 9.37388 24.0459 9.2675C24.0954 9.3335 24.2109 9.372 24.1779 9.4325C24.1503 9.48475 24.1093 9.52864 24.059 9.5596C24.0087 9.59056 23.951 9.60745 23.8919 9.6085H23.8864ZM24.0679 8.844C24.0679 8.844 24.0679 8.8 24.1174 8.811C24.2321 8.84589 24.3547 8.84589 24.4694 8.811C24.4524 9.00594 24.3903 9.19426 24.2879 9.361C24.2494 9.4215 24.2274 9.405 24.1834 9.361C24.0404 9.1795 24.0789 9.009 24.0734 8.844H24.0679ZM23.9579 8.6075C23.659 8.34718 23.4637 7.98795 23.4079 7.5955C23.5309 7.77688 23.6729 7.94465 23.8314 8.096C23.8656 8.1283 23.9024 8.15773 23.9414 8.184C24.1779 8.338 24.3264 8.2995 24.4584 8.0575C24.4584 8.0575 24.4584 8.0025 24.5024 7.9915C24.5721 8.07691 24.6102 8.18377 24.6102 8.294C24.6102 8.40423 24.5721 8.51109 24.5024 8.5965C24.4683 8.63349 24.427 8.6632 24.3811 8.68386C24.3352 8.70451 24.2856 8.71569 24.2352 8.71672C24.1849 8.71774 24.1349 8.7086 24.0882 8.68983C24.0415 8.67107 23.999 8.64306 23.9634 8.6075H23.9579ZM23.6499 7.3645C23.7002 7.48955 23.7772 7.60215 23.8754 7.6945C23.9816 7.77808 24.1094 7.8296 24.2439 7.843C24.2307 7.87795 24.2104 7.90984 24.1844 7.93671C24.1585 7.96358 24.1273 7.98487 24.0928 7.99928C24.0583 8.0137 24.0212 8.02093 23.9839 8.02053C23.9465 8.02014 23.9096 8.01213 23.8754 7.997C23.7687 7.93568 23.6873 7.83829 23.646 7.72234C23.6047 7.6064 23.606 7.47951 23.6499 7.3645ZM23.9194 6.7705C23.888 6.90088 23.832 7.02408 23.7544 7.1335C23.7586 7.08042 23.7586 7.02709 23.7544 6.974C23.7544 6.875 23.6609 6.7265 23.6994 6.688C23.8221 6.5305 23.9687 6.39317 24.1339 6.281C24.1944 6.2425 24.2494 6.281 24.3154 6.281C24.2063 6.30884 24.1094 6.3719 24.0398 6.46041C23.9702 6.54891 23.9318 6.65791 23.9304 6.7705H23.9194ZM23.4244 6.6055C23.3474 6.5065 23.3419 6.4405 23.4244 6.3525C23.4867 6.26157 23.5419 6.16595 23.5894 6.0665C23.6554 5.9455 23.6994 5.9455 23.7874 6.0665C23.7874 6.0665 23.8424 6.0665 23.8919 6.0995C23.696 6.2204 23.5378 6.39379 23.4354 6.6L23.4244 6.6055ZM23.1769 6.7595C23.1355 6.68155 23.1116 6.59556 23.1067 6.50746C23.1017 6.41935 23.116 6.33123 23.1484 6.24916C23.1808 6.16708 23.2306 6.09301 23.2944 6.03204C23.3582 5.97108 23.4344 5.92466 23.5179 5.896C23.4794 6.2095 23.2154 6.4295 23.1879 6.7595H23.1769ZM22.7424 6.413C22.7407 6.35031 22.7539 6.2881 22.7809 6.2315C22.802 6.17207 22.838 6.11905 22.8854 6.0775C22.931 6.03497 22.9855 6.00304 23.0449 5.984C23.1065 5.97025 23.1703 5.97025 23.2319 5.984C23.1329 6.1765 23.0229 6.3745 22.7534 6.413H22.7424ZM22.6434 4.763C22.5178 4.77419 22.3911 4.76302 22.2694 4.73C22.2309 4.73 22.1869 4.73 22.1869 4.664C22.1869 4.598 22.2309 4.62 22.2639 4.6145C22.5158 4.55954 22.7765 4.55954 23.0284 4.6145C23.0559 4.6145 23.0999 4.6145 23.0944 4.6695C23.0889 4.7245 23.0504 4.7135 23.0229 4.7245C22.9025 4.75438 22.7779 4.76368 22.6544 4.752L22.6434 4.763ZM22.0384 5.9675C22.1015 5.96216 22.165 5.97001 22.2249 5.99054C22.2849 6.01108 22.3398 6.04386 22.3864 6.08679C22.4329 6.12973 22.4701 6.18188 22.4954 6.23993C22.5207 6.29799 22.5336 6.36067 22.5334 6.424C22.4182 6.39665 22.3125 6.33882 22.2273 6.25657C22.1422 6.17431 22.0807 6.07067 22.0494 5.9565L22.0384 5.9675ZM20.7514 8.0025C20.7954 8.0025 20.7954 8.052 20.8064 8.074C20.9439 8.3105 21.0869 8.3435 21.3179 8.195C21.4924 8.07187 21.6402 7.91472 21.7524 7.733C21.7799 7.689 21.8129 7.6505 21.8404 7.612C21.7964 7.99215 21.6167 8.34367 21.3344 8.602C21.2815 8.66386 21.2094 8.70617 21.1296 8.72213C21.0498 8.73809 20.967 8.72677 20.8944 8.69C20.8151 8.64627 20.7504 8.58021 20.7084 8.50003C20.6664 8.41985 20.6488 8.32908 20.6579 8.239C20.6559 8.19258 20.6642 8.14629 20.6823 8.10349C20.7004 8.06068 20.7277 8.02243 20.7624 7.9915L20.7514 8.0025ZM21.1419 8.8275C21.2079 8.8275 21.1859 8.866 21.1914 8.8935C21.2197 9.04676 21.1861 9.205 21.0979 9.3335C21.2519 9.3005 21.2849 9.3335 21.3784 9.603C21.3121 9.61077 21.2454 9.592 21.1928 9.55079C21.1403 9.50958 21.1062 9.44927 21.0979 9.383V9.35C20.8779 9.3225 20.9219 9.108 20.8394 8.9815C20.8065 8.92506 20.7949 8.85877 20.8064 8.7945C20.9197 8.8245 21.0387 8.82638 21.1529 8.8L21.1419 8.8275ZM20.6469 10.5545C20.7074 10.7847 20.7922 11.0078 20.8999 11.22C20.8312 11.2366 20.7596 11.2366 20.6909 11.22C20.6239 11.1934 20.5637 11.1521 20.5149 11.099C20.3825 10.9421 20.2878 10.7568 20.2382 10.5575C20.1886 10.3582 20.1854 10.1502 20.2289 9.9495C20.2237 9.93153 20.2237 9.91247 20.2289 9.8945C20.2438 9.87853 20.2628 9.86709 20.2839 9.8615C20.3279 9.8615 20.3389 9.9 20.3609 9.9275C20.5047 10.1081 20.6061 10.3186 20.6579 10.5435L20.6469 10.5545ZM20.1739 12.914C20.3887 12.9601 20.5961 13.036 20.7899 13.1395C20.9054 13.211 20.9164 13.266 20.8504 13.3815C20.7954 13.233 20.7019 13.1505 20.5369 13.222H20.4984C20.4984 13.068 20.3719 13.123 20.2894 13.112C20.2069 13.101 20.1959 13.112 20.1464 13.112C20.0969 13.112 20.0309 13.112 20.0529 13.046C20.0749 12.98 20.0969 12.881 20.1849 12.903L20.1739 12.914ZM19.9759 10.8955C19.973 10.9005 19.9715 10.9062 19.9715 10.912C19.9715 10.9178 19.973 10.9235 19.9759 10.9285C20.0529 10.9725 20.0419 10.8515 20.1189 10.8625C20.119 11.3411 20.0275 11.8153 19.8494 12.2595C19.6312 11.8047 19.5656 11.2916 19.6624 10.7965C19.7199 10.8392 19.7632 10.8983 19.7868 10.966C19.8103 11.0336 19.813 11.1068 19.7944 11.176C19.7612 11.3492 19.7843 11.5284 19.8604 11.6875C19.9541 11.446 19.9935 11.1869 19.9759 10.9285C19.9652 10.9354 19.9532 10.94 19.9406 10.942C19.928 10.9441 19.9151 10.9436 19.9028 10.9405C19.8904 10.9374 19.8788 10.9318 19.8687 10.9241C19.8586 10.9163 19.8501 10.9066 19.8439 10.8955C19.7444 10.7782 19.6823 10.6338 19.6656 10.4808C19.649 10.3279 19.6785 10.1735 19.7504 10.0375C19.7779 9.9825 19.8054 9.9055 19.8879 9.9935C19.8982 10.003 19.9104 10.0104 19.9236 10.0151C19.9368 10.0198 19.9509 10.0218 19.9649 10.021C20.1134 9.9495 20.1079 10.0705 20.1189 10.1475C20.1575 10.2719 20.1656 10.4038 20.1427 10.5321C20.1197 10.6603 20.0663 10.7812 19.9869 10.8845L19.9759 10.8955ZM17.9024 9.4655C17.8034 9.4655 17.6769 9.4655 17.6329 9.3775C17.5889 9.2895 17.6824 9.2015 17.7429 9.1245C17.9152 8.95654 18.1458 8.8619 18.3864 8.8605C18.5265 8.83583 18.6698 8.83583 18.8099 8.8605C18.7479 9.04816 18.6248 9.20966 18.4604 9.3193C18.2959 9.42894 18.0995 9.4804 17.9024 9.4655ZM17.4459 8.723C17.3469 8.6625 17.3579 8.613 17.4459 8.547C17.565 8.42979 17.7187 8.35417 17.8842 8.33137C18.0497 8.30858 18.2181 8.33984 18.3644 8.4205C18.4689 8.47 18.4909 8.6185 18.6009 8.7065C18.4264 8.80933 18.2281 8.86493 18.0256 8.86783C17.8231 8.87072 17.6233 8.82081 17.4459 8.723ZM17.3524 8.338C16.8707 8.20612 16.3668 8.17615 15.8729 8.25C16.1224 8.32386 16.3784 8.37358 16.6374 8.3985C16.8849 8.4315 17.1324 8.4425 17.3799 8.4645C17.3685 8.50563 17.3429 8.54141 17.3077 8.56555C17.2725 8.58969 17.2299 8.60065 17.1874 8.5965C16.6812 8.64413 16.1709 8.62564 15.6694 8.5415C15.1996 8.43335 14.7551 8.23539 14.3604 7.9585C15.4713 7.80066 16.604 7.91581 17.6604 8.294C17.6169 8.32655 17.5658 8.34763 17.512 8.35532C17.4582 8.36301 17.4033 8.35705 17.3524 8.338ZM14.7069 9.2675H14.6684C15.4549 8.7175 16.3789 8.8 17.2644 8.7175C17.2929 8.71691 17.321 8.72369 17.346 8.73719C17.3711 8.75068 17.3922 8.77042 17.4074 8.7945C16.9863 8.80644 16.5693 8.88057 16.1699 9.0145C16.2758 9.02832 16.383 9.02832 16.4889 9.0145C16.5989 9.0145 16.7144 9.0145 16.8244 9.0145C17.053 8.99385 17.2793 8.95336 17.5009 8.8935C17.6219 8.8605 17.7154 8.9375 17.8199 8.9485C17.6769 9.174 17.4294 9.174 17.2094 9.207C16.5089 9.34525 15.7936 9.3933 15.0809 9.35C14.9544 9.317 14.8499 9.2895 14.7069 9.2675ZM15.2569 10.3675C15.2569 10.307 15.2569 10.2685 15.3064 10.23C15.4416 10.0215 15.6166 9.84184 15.8214 9.7012C16.0262 9.56057 16.2568 9.46178 16.4999 9.4105C16.8189 9.3445 17.1434 9.3005 17.4679 9.2455H17.5449V9.2785C17.1179 9.40914 16.7094 9.59398 16.3294 9.8285C16.621 9.81082 16.9084 9.74964 17.1819 9.647L17.3139 9.5975C17.3895 9.55494 17.4734 9.52943 17.5599 9.52278C17.6464 9.51613 17.7332 9.52849 17.8144 9.559C17.8144 9.603 17.7704 9.5975 17.7429 9.603C17.3414 9.74524 16.9484 9.91052 16.5659 10.098C16.2421 10.2579 15.8916 10.3567 15.5319 10.3895C15.4374 10.3901 15.3432 10.379 15.2514 10.3565L15.2569 10.3675ZM15.9499 11.0715C16.0197 10.8509 16.1344 10.6471 16.2868 10.4729C16.4392 10.2987 16.626 10.158 16.8354 10.0595C17.2204 9.889 17.6164 9.7405 18.0124 9.5975C18.0124 9.691 17.9464 9.68 17.9024 9.702C17.6331 9.79845 17.3821 9.93978 17.1599 10.12C17.0511 10.2076 16.9565 10.3115 16.8794 10.428C17.2571 10.2667 17.6106 10.0538 17.9299 9.7955C17.9457 9.7779 17.9643 9.76304 17.9849 9.7515C17.9849 9.7515 18.0234 9.7075 18.0509 9.7515C18.0784 9.7955 18.0509 9.801 18.0509 9.823C17.6329 10.1695 17.2534 10.571 16.8134 10.89C16.575 11.0528 16.2936 11.1409 16.0049 11.143C15.9499 11.1595 15.9499 11.1485 15.9499 11.0715ZM16.9674 11.6875C16.7969 11.726 16.7914 11.7205 16.8189 11.55C16.9242 11.0714 17.2022 10.6484 17.5999 10.362C17.7539 10.23 17.9134 10.109 18.0619 9.977C18.0958 9.93459 18.1424 9.9042 18.1949 9.89034C18.2474 9.87647 18.303 9.87986 18.3534 9.9C18.4022 9.91189 18.4531 9.91189 18.5019 9.9C18.4952 9.94336 18.4775 9.98429 18.4505 10.0189C18.4236 10.0536 18.3883 10.0808 18.3479 10.098C18.0367 10.2493 17.7612 10.4649 17.5394 10.7305C17.5033 10.774 17.4703 10.82 17.4404 10.868V10.923C17.8203 10.723 18.1627 10.4588 18.4524 10.142C18.4651 10.1597 18.4742 10.1797 18.4792 10.2009C18.4841 10.2221 18.4848 10.244 18.4812 10.2655C18.4777 10.287 18.4699 10.3075 18.4583 10.326C18.4468 10.3444 18.4317 10.3604 18.4139 10.373C18.1717 10.626 17.9526 10.9003 17.7594 11.1925C17.577 11.4515 17.3008 11.6291 16.9894 11.6875H16.9674ZM18.2874 14.85C18.2313 14.7177 18.1468 14.5994 18.0399 14.5035C17.8603 14.3059 17.7418 14.0604 17.6988 13.7969C17.6559 13.5333 17.6903 13.2629 17.7979 13.0185C17.8915 12.8362 17.9423 12.6349 17.9464 12.43C18.118 12.7404 18.4043 12.9713 18.7439 13.0735C18.3699 13.178 18.2599 13.475 18.1939 13.7995C18.277 13.6847 18.3889 13.5938 18.5183 13.5359C18.6476 13.478 18.7899 13.4551 18.9309 13.4695C19.074 13.4802 19.2109 13.5321 19.3251 13.619C19.4393 13.7059 19.5259 13.824 19.5744 13.959C19.6294 14.091 19.5194 14.179 19.4754 14.2945C19.4778 14.1879 19.4546 14.0824 19.4077 13.9867C19.3608 13.8909 19.2916 13.8079 19.2059 13.7445C19.0929 13.6671 18.9578 13.6285 18.8209 13.6345C18.685 13.6477 18.5573 13.7058 18.4579 13.7995C18.3521 13.8877 18.2833 14.0123 18.265 14.1487C18.2466 14.2852 18.2802 14.4236 18.3589 14.5365C18.3864 14.5805 18.4084 14.6355 18.4744 14.641C18.5349 14.751 18.6449 14.7455 18.7439 14.751H18.8704C18.8883 14.7455 18.9075 14.7455 18.9254 14.751C18.9296 14.7672 18.9296 14.7843 18.9254 14.8005V14.8775H18.3754C18.3736 14.8833 18.3707 14.8886 18.3668 14.8933C18.3629 14.8979 18.3582 14.9018 18.3528 14.9046C18.3474 14.9074 18.3416 14.9091 18.3355 14.9097C18.3295 14.9102 18.3234 14.9096 18.3177 14.9078C18.3119 14.9059 18.3065 14.903 18.3019 14.8991C18.2972 14.8953 18.2934 14.8905 18.2906 14.8851C18.2878 14.8798 18.286 14.8739 18.2855 14.8679C18.2849 14.8619 18.2856 14.8558 18.2874 14.85ZM18.4084 15.268C18.3644 15.213 18.3149 15.158 18.3314 15.081C18.3479 15.004 18.4249 14.9985 18.4854 14.9875C18.5459 14.9765 18.7219 14.9875 18.8374 14.9875C18.9529 14.9875 18.9199 14.9875 18.9309 15.048C18.9354 15.0679 18.9354 15.0886 18.9309 15.1085L18.8814 15.147L18.5954 15.301C18.5184 15.2845 18.4579 15.3065 18.4084 15.2515V15.268ZM19.3159 15.4385C19.2359 15.4715 19.153 15.4972 19.0684 15.5155C18.9749 15.389 18.8539 15.554 18.7439 15.488C18.6339 15.422 18.6064 15.367 18.6999 15.2845C18.7743 15.2142 18.8622 15.1599 18.9584 15.125C19.0409 15.092 19.1289 15.059 19.1399 15.202C19.1509 15.345 19.1949 15.235 19.2224 15.202C19.2499 15.169 19.4039 15.103 19.4534 15.202C19.5029 15.301 19.4039 15.4 19.3159 15.4V15.4385ZM19.6349 15.213C19.5524 15.213 19.5194 15.18 19.5249 15.103C19.5304 15.026 19.5909 15.0535 19.6349 15.0535C19.9965 15.0359 20.3539 14.9674 20.6964 14.85C20.7194 14.8374 20.745 14.8302 20.7712 14.8288C20.7974 14.8274 20.8236 14.8318 20.8478 14.8419C20.8721 14.8519 20.8938 14.8672 20.9114 14.8867C20.929 14.9062 20.9419 14.9293 20.9494 14.9545C20.525 15.0975 20.0824 15.179 19.6349 15.1965V15.213ZM22.5169 16.2195C22.4289 16.368 22.3464 16.5165 22.2529 16.6705L21.8459 16.1205C21.8074 16.0655 21.8129 16.06 21.9394 15.8895L22.2309 16.2855L22.4509 15.906C22.5939 16.0105 22.5994 16.049 22.5169 16.203V16.2195ZM22.2419 15.3065C22.0494 15.5925 21.8679 15.8565 21.6919 16.137C21.6644 16.181 21.6919 16.2085 21.6919 16.2305L21.8074 16.3075L21.2574 16.522V15.95H21.2904C21.4059 16.0545 21.4664 16.0215 21.5434 15.895C21.7579 15.543 21.9944 15.2075 22.2309 14.85L23.0119 16.247L23.1164 16.115C23.5564 15.5045 23.9909 14.8885 24.4364 14.278C24.5189 14.168 24.5739 14.0855 24.3704 14.0085C24.5464 13.9425 24.6894 13.893 24.8324 13.8325C24.9754 13.772 24.9204 13.8325 24.9204 13.8985C24.9204 13.9645 24.9204 14.201 24.9204 14.355C24.9204 14.355 24.8929 14.355 24.8874 14.355C24.7224 14.2615 24.7224 14.2615 24.6124 14.4155L23.0009 16.6485L22.2419 15.3065ZM24.0019 16.5165L23.4519 16.313C23.5289 16.2415 23.6609 16.214 23.5564 16.071C23.5564 16.038 23.6114 15.939 23.6664 15.9115C23.7214 15.884 23.7324 15.961 23.7544 15.9995C23.7764 16.038 23.8259 16.0655 23.8754 15.9995C23.9249 15.9335 23.9304 15.95 23.9799 15.95L24.0019 16.5165ZM25.6519 15.213C25.4973 15.213 25.3429 15.2019 25.1899 15.18C24.8974 15.1337 24.6088 15.0657 24.3264 14.9765C24.3296 14.948 24.3399 14.9207 24.3564 14.8973C24.373 14.8738 24.3951 14.8549 24.4209 14.8423C24.4467 14.8296 24.4752 14.8237 24.5039 14.8251C24.5326 14.8264 24.5604 14.835 24.5849 14.85C24.9407 14.9632 25.3115 15.0225 25.6849 15.026C25.7289 15.026 25.7839 15.026 25.7839 15.081C25.7839 15.136 25.7399 15.1965 25.6629 15.1965L25.6519 15.213ZM26.9499 15.1305C26.9169 15.2515 26.8399 15.3065 26.7354 15.2735C26.6309 15.2405 26.6364 15.202 26.5594 15.224C26.6144 15.2845 26.7189 15.323 26.6474 15.422C26.6104 15.4591 26.5615 15.4822 26.5093 15.4872C26.4572 15.4922 26.4048 15.4789 26.3614 15.4495C26.3229 15.422 26.3064 15.367 26.2459 15.3615C26.2184 15.4055 26.3119 15.433 26.2459 15.477C26.1799 15.521 26.1579 15.477 26.1084 15.477C26.0549 15.4729 26.003 15.4569 25.9564 15.4303C25.9098 15.4036 25.8696 15.367 25.8389 15.323C25.8059 15.268 25.7729 15.213 25.8389 15.169C25.9049 15.125 25.8884 15.1415 25.8389 15.1195C25.7894 15.0975 25.8389 15.0095 25.8829 14.938C25.6959 15.004 25.6849 14.872 25.6464 14.7565C25.5279 14.3569 25.3103 13.9936 25.0139 13.7005C24.8867 13.5807 24.7346 13.4905 24.5684 13.4365C24.5299 13.4365 24.4419 13.4365 24.4639 13.365C24.4682 13.3466 24.4763 13.3293 24.4878 13.3143C24.4993 13.2993 24.5139 13.287 24.5306 13.2781C24.5473 13.2693 24.5657 13.2641 24.5845 13.2629C24.6034 13.2618 24.6223 13.2647 24.6399 13.2715L24.7994 13.3485C24.7994 13.2935 24.7554 13.2 24.8434 13.1835C24.8927 13.1675 24.9457 13.1675 24.9951 13.1832C25.0444 13.199 25.0875 13.2299 25.1184 13.2715C25.3152 13.5536 25.4812 13.856 25.6134 14.1735C25.6519 14.267 25.6904 14.355 25.7344 14.443C25.8444 14.641 25.9379 14.663 26.1304 14.5365C26.204 14.4684 26.2986 14.4274 26.3986 14.4204C26.4986 14.4134 26.5981 14.4408 26.6804 14.498C26.7299 14.5255 26.8069 14.5475 26.7849 14.6245C26.7629 14.7015 26.6969 14.6905 26.6309 14.6905C26.4157 14.6952 26.2076 14.7684 26.0369 14.8995C26.0974 14.9435 26.1909 14.8665 26.2239 14.9545C26.2569 15.0425 26.1579 15.048 26.1414 15.1085C26.2238 15.1022 26.3057 15.1257 26.3724 15.1745C26.3724 15.1305 26.3724 15.125 26.3724 15.114C26.3724 15.103 26.3174 15.0535 26.3339 15.015C26.3504 14.9765 26.3889 14.971 26.4274 14.971C26.5549 14.9702 26.6822 14.9831 26.8069 15.0095C26.9169 14.993 26.9774 15.0315 26.9499 15.1305ZM27.2249 14.5145C27.1479 14.619 27.0379 14.696 27.0049 14.8335C27.0049 14.8775 26.9719 14.883 26.9334 14.883H26.4714C26.4219 14.883 26.3669 14.883 26.3669 14.817C26.3669 14.751 26.4164 14.7345 26.4769 14.7345C26.8124 14.7345 26.9884 14.597 27.0269 14.3C27.041 14.1604 27.0066 14.0202 26.9295 13.903C26.8523 13.7858 26.7372 13.6988 26.6034 13.6565C26.5131 13.6344 26.4187 13.6344 26.3284 13.6565C26.2385 13.6736 26.1538 13.7113 26.0809 13.7665C26.0082 13.8208 25.9482 13.8902 25.9049 13.97C25.8656 14.0525 25.8449 14.1426 25.8444 14.234C25.8479 14.2558 25.8498 14.2779 25.8499 14.3C25.7949 14.168 25.6739 14.0525 25.7674 13.882C25.8234 13.7702 25.9057 13.6738 26.0073 13.601C26.1088 13.5281 26.2266 13.4811 26.3504 13.464C26.492 13.4447 26.6362 13.463 26.7684 13.517C26.9007 13.5711 27.0164 13.659 27.1039 13.772C27.083 13.617 27.021 13.4705 26.9243 13.3476C26.8276 13.2248 26.6997 13.1301 26.5539 13.0735C26.8657 12.9923 27.1351 12.7957 27.3074 12.5235C27.4404 12.8665 27.538 13.2222 27.5989 13.585C27.5819 13.929 27.448 14.2569 27.2194 14.5145H27.2249ZM28.3744 11.704C28.0742 11.6643 27.8017 11.5082 27.6154 11.2695C27.386 10.9459 27.1362 10.6372 26.8674 10.3455C26.8069 10.285 26.8674 10.2245 26.8399 10.1255C27.1439 10.4554 27.5008 10.7324 27.8959 10.945C27.7846 10.7422 27.6307 10.5658 27.4449 10.428C27.2952 10.3022 27.1309 10.1951 26.9554 10.109C26.917 10.0943 26.8831 10.0698 26.8571 10.038C26.831 10.0061 26.8137 9.96805 26.8069 9.9275C26.901 9.88988 27.0044 9.88238 27.1029 9.90602C27.2014 9.92966 27.2902 9.98329 27.3569 10.0595C27.6303 10.2852 27.8858 10.5316 28.1214 10.7965C28.3103 11.0352 28.4318 11.32 28.4734 11.6215C28.4789 11.715 28.4349 11.7095 28.3689 11.704H28.3744ZM29.2654 11.154C28.9395 11.1551 28.6231 11.0445 28.3689 10.8405C27.9839 10.516 27.6099 10.1805 27.2304 9.845C27.2304 9.845 27.1644 9.8065 27.2029 9.768C27.2414 9.7295 27.2689 9.768 27.2964 9.768C27.5978 10.0369 27.9323 10.266 28.2919 10.45L28.3744 10.4775V10.45C28.0741 10.0786 27.6702 9.80482 27.2139 9.6635C27.2689 9.6085 27.2909 9.6635 27.3184 9.6635C27.6979 9.801 28.0719 9.944 28.4184 10.109C28.6221 10.208 28.8036 10.3473 28.952 10.5184C29.1004 10.6895 29.2126 10.8889 29.2819 11.1045C29.3534 11.1485 29.3259 11.1595 29.2599 11.154H29.2654ZM28.8639 10.1365C28.4069 9.91951 27.9387 9.72675 27.4614 9.559C27.6814 9.4545 27.6814 9.4545 27.8849 9.559C28.2098 9.70528 28.558 9.7928 28.9134 9.8175C28.5447 9.58738 28.1495 9.40271 27.7364 9.2675C27.8001 9.24292 27.8707 9.24292 27.9344 9.2675L28.1434 9.3005C28.488 9.33511 28.8275 9.40892 29.1554 9.5205C29.5552 9.68125 29.8861 9.97706 30.0904 10.3565C29.6672 10.4006 29.2402 10.3243 28.8584 10.1365H28.8639ZM30.2499 9.35C29.4051 9.40819 28.5563 9.34148 27.7309 9.152C27.6302 9.1211 27.5405 9.06192 27.4724 8.9815C27.7254 8.822 27.9619 8.9815 28.1984 8.9815C28.5096 9.02815 28.8252 9.03922 29.1389 9.0145C28.7421 8.87792 28.3265 8.8037 27.9069 8.7945C27.921 8.76561 27.9444 8.7423 27.9733 8.72833C28.0022 8.71437 28.035 8.71055 28.0664 8.7175C28.5229 8.745 28.9794 8.7615 29.4304 8.8C29.8624 8.86155 30.2776 9.00931 30.6514 9.2345C30.5271 9.30051 30.3903 9.33984 30.2499 9.35ZM29.2324 8.6295C28.8404 8.6515 28.4474 8.6515 28.0554 8.6295C27.9619 8.6295 27.9289 8.5635 27.8849 8.492C28.3976 8.46106 28.906 8.38 29.4029 8.25C29.0088 8.17344 28.6036 8.17344 28.2094 8.25C28.1049 8.25 28.0059 8.2885 27.9069 8.316C27.8594 8.33524 27.8074 8.3408 27.7568 8.33206C27.7063 8.32331 27.6592 8.3006 27.6209 8.2665C28.6933 7.89159 29.8389 7.77476 30.9649 7.9255C30.4539 8.29017 29.8606 8.52259 29.2379 8.602L29.2324 8.6295ZM30.4864 7.293C30.0928 7.54794 29.6541 7.72529 29.1939 7.8155C28.6714 7.9475 28.1324 8.0465 27.6154 8.2115C27.6154 8.2115 27.5659 8.2555 27.5494 8.2115C27.5329 8.1675 27.6539 8.162 27.6484 8.085C27.6209 8.085 27.6044 8.085 27.5879 8.085C27.4447 8.20856 27.269 8.28827 27.0818 8.31461C26.8945 8.34094 26.7036 8.31279 26.5319 8.2335C26.6321 8.13525 26.7075 8.01461 26.7519 7.8815C26.7519 7.832 26.8014 7.8265 26.8454 7.832C26.9794 7.86225 27.1184 7.86225 27.2524 7.832C27.3341 7.81541 27.4182 7.81541 27.4999 7.832C27.6869 7.832 27.7034 7.8925 27.6319 8.063C27.6319 8.063 27.6319 8.096 27.6319 8.1015C27.6869 7.9255 27.8299 7.9035 27.9894 7.8815C28.392 7.80127 28.7822 7.66812 29.1499 7.4855L29.3589 7.3755C29.1732 7.36635 28.9872 7.38866 28.8089 7.4415C28.4946 7.51509 28.1858 7.61066 27.8849 7.7275C27.8374 7.75557 27.7833 7.77037 27.7282 7.77037C27.673 7.77037 27.6189 7.75557 27.5714 7.7275C27.5274 7.7 27.4669 7.6945 27.4119 7.667C28.5999 7.2435 29.6999 6.7375 30.9649 6.7485C30.8556 6.95953 30.6924 7.13789 30.4919 7.2655L30.4864 7.293ZM26.5209 7.6065C26.8951 7.25607 27.3568 7.01289 27.8574 6.9025C27.7657 7.18699 27.5915 7.43778 27.3569 7.623C27.2292 7.69728 27.0826 7.73269 26.9351 7.72487C26.7876 7.71706 26.6455 7.66636 26.5264 7.579L26.5209 7.6065ZM30.2939 4.9445C30.3393 5.19752 30.3198 5.45792 30.237 5.70131C30.1543 5.94469 30.0111 6.16308 29.8209 6.336C29.2506 6.84005 28.5679 7.20025 27.8299 7.3865H27.7034C27.7258 7.32908 27.7595 7.27672 27.8024 7.2325C27.8426 7.18729 27.8937 7.15319 27.9509 7.1335C28.4745 6.90559 28.9503 6.5809 29.3534 6.1765L29.4469 6.072L29.5239 5.9675C29.3585 6.0267 29.2028 6.11011 29.0619 6.215L27.9014 7.073C27.9 7.0024 27.914 6.93233 27.9425 6.86773C27.971 6.80312 28.0133 6.74553 28.0664 6.699C28.4624 6.3745 28.8199 6.0115 29.1939 5.665C29.4364 5.43894 29.6997 5.23637 29.9804 5.06C30.0757 4.99081 30.1843 4.94212 30.2994 4.917L30.2939 4.9445ZM27.5769 6.314C27.5588 6.1935 27.5721 6.07038 27.6154 5.9565C28.0266 5.14977 28.5673 4.41588 29.2159 3.784L29.3534 3.6575C29.4497 3.95724 29.4764 4.27496 29.4316 4.58657C29.3869 4.89819 29.2717 5.19551 29.0949 5.456C28.7226 5.98985 28.2477 6.44419 27.6979 6.7925C27.5649 6.87927 27.4179 6.94252 27.2634 6.9795C27.3935 6.82972 27.4893 6.65325 27.5439 6.4625C27.5439 6.402 27.6044 6.3745 27.6484 6.3415C28.0484 6.04968 28.3946 5.69049 28.6714 5.28C28.7426 5.1704 28.7947 5.04952 28.8254 4.9225C28.3635 5.33146 27.9468 5.78874 27.5824 6.2865L27.5769 6.314ZM26.9499 6.2315C27.0674 6.08583 27.2183 5.97072 27.3899 5.896C27.4559 5.8685 27.4999 5.8685 27.5054 5.9565C27.5532 6.2294 27.4962 6.51027 27.3459 6.743C27.1322 7.03629 26.8511 7.27396 26.5264 7.436C26.5264 7.436 26.4659 7.48 26.4274 7.436V7.4085C26.5186 7.29839 26.5826 7.1684 26.6144 7.029C26.6723 6.74358 26.7864 6.47251 26.9499 6.2315ZM26.0369 7.788C26.2001 7.71929 26.3774 7.69099 26.5539 7.7055C26.7079 7.7055 26.7189 7.744 26.6694 7.8925C26.6018 8.0637 26.4722 8.20313 26.3064 8.283C26.4332 8.28342 26.5586 8.30962 26.6749 8.36C26.7684 8.404 26.8619 8.448 26.7629 8.5745C26.6328 8.70149 26.4648 8.78259 26.2844 8.8055C26.3945 8.89983 26.4811 9.01845 26.5374 9.152C26.5649 9.24 26.5374 9.2895 26.4494 9.3005C26.293 9.31772 26.135 9.29106 25.9929 9.2235C26.0644 9.35479 26.0987 9.50315 26.0919 9.6525C26.0534 9.867 26.0039 9.8945 25.8004 9.8065C25.6772 9.75089 25.5709 9.66358 25.4924 9.5535C25.4539 9.647 25.4649 9.735 25.4264 9.812C25.3879 9.889 25.3219 9.9495 25.2009 9.8835C25.1223 9.8319 25.0519 9.76887 24.9919 9.6965C24.9237 9.80809 24.8216 9.89485 24.7004 9.944C24.6234 9.944 24.5849 9.944 24.5684 9.8835V9.8285C24.5409 9.7405 24.6069 9.6085 24.5684 9.5645C24.5299 9.5205 24.3979 9.5645 24.3154 9.5095C24.3154 9.592 24.3979 9.603 24.4474 9.6085C24.4969 9.614 24.5464 9.6635 24.5409 9.7295C24.5355 9.76781 24.5355 9.80669 24.5409 9.845C24.5739 10.021 24.6069 10.043 24.7939 10.01H24.8324C24.7274 10.1091 24.6595 10.241 24.6399 10.384C24.6115 10.5779 24.5461 10.7646 24.4474 10.934C24.3044 10.626 24.1669 10.3345 24.0349 10.043C23.9993 9.93965 23.9993 9.82735 24.0349 9.724C24.0679 9.5865 24.2054 9.5535 24.3099 9.493C24.3539 9.3335 24.4749 9.2125 24.5299 9.053C24.5299 9.009 24.5959 9.053 24.6289 9.053C24.8593 9.11619 25.1025 9.11619 25.3329 9.053C25.5969 8.987 25.6684 8.866 25.5969 8.613C25.5411 8.44071 25.4712 8.27332 25.3879 8.1125C25.3547 8.05561 25.3332 7.99267 25.3247 7.92737C25.3161 7.86207 25.3207 7.79572 25.3381 7.73221C25.3555 7.66869 25.3854 7.60929 25.4261 7.55749C25.4668 7.50568 25.5173 7.46251 25.5749 7.4305C26.0085 7.16065 26.3633 6.78123 26.6034 6.3305C26.6608 6.60276 26.6373 6.88587 26.5356 7.14488C26.434 7.4039 26.2587 7.62747 26.0314 7.788H26.0369ZM26.1854 5.1975C26.0959 5.18645 26.0054 5.18645 25.9159 5.1975C25.8499 5.1975 25.8774 5.0985 25.8664 5.0435C25.8554 4.9885 25.9049 4.9335 25.9764 4.9775C26.0613 5.03296 26.1312 5.10853 26.1799 5.1975H26.1854ZM25.7894 4.3285C25.8554 4.3285 25.9709 4.3285 25.9599 4.466C25.9537 4.55855 25.9275 4.64864 25.8829 4.73C25.8171 4.85293 25.7903 4.99296 25.8059 5.1315C25.8228 5.28141 25.7836 5.43227 25.6959 5.555C25.6629 5.434 25.6354 5.324 25.6024 5.214C25.5755 5.13007 25.5655 5.04164 25.5731 4.95384C25.5806 4.86603 25.6056 4.7806 25.6464 4.7025C25.6906 4.61578 25.722 4.52317 25.7399 4.4275C25.7399 4.4 25.7069 4.312 25.7839 4.3285H25.7894ZM25.4649 4.125C25.5474 4.1855 25.7289 4.2295 25.6464 4.3505C25.5639 4.4715 25.4484 4.3505 25.3549 4.279C25.2614 4.2075 25.1899 4.1305 25.0634 4.092C25.1237 4.05283 25.1954 4.03482 25.267 4.0408C25.3387 4.04677 25.4064 4.07639 25.4594 4.125H25.4649ZM25.0359 4.125C25.0708 4.25614 25.1306 4.37936 25.2119 4.488C25.2602 4.56165 25.299 4.64111 25.3274 4.7245C25.3879 4.9335 25.3274 5.06 25.0579 5.1095C25.1058 5.05684 25.1324 4.9882 25.1324 4.917C25.1324 4.8458 25.1058 4.77716 25.0579 4.7245C25.0084 4.653 24.9809 4.5705 24.9369 4.4935C24.9034 4.43156 24.8944 4.35927 24.9117 4.29099C24.929 4.22272 24.9714 4.16347 25.0304 4.125H25.0359ZM24.9149 5.3185C24.9066 5.37202 24.8872 5.4232 24.8578 5.46869C24.8284 5.51418 24.7898 5.55296 24.7444 5.5825C24.7444 5.5825 24.6894 5.5825 24.7004 5.5825C24.7114 5.5825 24.7334 5.3955 24.7774 5.3075C24.8214 5.2195 24.8214 5.3075 24.8434 5.3075C24.8654 5.3075 24.9094 5.2745 24.9149 5.3185ZM24.7114 4.609C24.7829 4.609 24.8159 4.653 24.7884 4.7135C24.7364 4.83132 24.6699 4.94218 24.5904 5.0435C24.5904 5.071 24.5409 5.0435 24.5079 5.0435C24.4749 5.0435 24.4199 5.0435 24.4364 4.972C24.4529 4.9005 24.4749 4.8015 24.5024 4.7135C24.5299 4.6255 24.6124 4.6035 24.7114 4.609ZM24.3374 4.95C24.2879 4.8565 24.2494 4.785 24.2164 4.708C24.1834 4.631 24.1834 4.6145 24.2164 4.587C24.2429 4.56561 24.2759 4.55396 24.3099 4.554C24.3406 4.54608 24.3727 4.54608 24.4034 4.554C24.4584 4.587 24.4474 4.6365 24.4034 4.686L24.3374 4.95ZM24.1999 4.191C24.2659 4.191 24.2934 4.1635 24.2824 4.1085C24.2824 4.0535 24.3099 4.0425 24.3484 4.048C24.3869 4.0535 24.4144 4.048 24.4089 4.0865C24.4034 4.125 24.4089 4.202 24.5134 4.1965C24.6179 4.191 24.5464 4.1965 24.5519 4.2515C24.5574 4.3065 24.5519 4.3065 24.5134 4.301C24.3979 4.301 24.4034 4.356 24.4089 4.433C24.4144 4.51 24.4089 4.4935 24.3539 4.4935C24.2989 4.4935 24.2769 4.4935 24.2824 4.433C24.2879 4.3725 24.2824 4.2845 24.1724 4.301C24.1339 4.301 24.1394 4.2625 24.1394 4.235C24.1394 4.2075 24.1669 4.1855 24.1999 4.191ZM23.9414 4.6145C24.0074 4.565 24.1504 4.6145 24.1834 4.7245C24.2164 4.8345 24.2384 4.9335 24.2659 5.0435C24.2455 5.05526 24.2226 5.06217 24.199 5.06369C24.1755 5.06521 24.1519 5.0613 24.1301 5.05226C24.1083 5.04323 24.0889 5.02931 24.0734 5.01158C24.0578 4.99385 24.0465 4.97278 24.0404 4.95C24.0129 4.906 23.9799 4.862 23.9524 4.8125C23.9249 4.763 23.8479 4.6805 23.9414 4.6145ZM24.5684 5.2415C24.3828 5.24045 24.1981 5.21643 24.0184 5.17C24.2077 5.12037 24.4066 5.12037 24.5959 5.17C24.6206 5.18848 24.6404 5.21261 24.6538 5.24037C24.6672 5.26812 24.6738 5.29869 24.6729 5.3295C24.6567 5.50155 24.6002 5.66737 24.5079 5.8135C24.6729 5.698 24.9094 5.6925 25.0194 5.511C25.1294 5.3295 25.2064 5.4065 25.3109 5.423C25.3654 5.43085 25.4152 5.45788 25.4515 5.49922C25.4878 5.54056 25.5082 5.59349 25.5089 5.6485C25.5171 5.73199 25.4957 5.81571 25.4484 5.885C25.3934 5.962 25.3439 6.017 25.2339 5.9455C25.1809 5.91164 25.1205 5.8909 25.0579 5.885C24.9935 5.88343 24.9295 5.8966 24.8709 5.9235C24.7897 5.97137 24.6928 5.98521 24.6014 5.962C24.5934 5.94839 24.582 5.93703 24.5684 5.929C24.5764 5.93265 24.5834 5.93798 24.5891 5.94463C24.5948 5.95127 24.599 5.95908 24.6014 5.9675C24.8544 6.116 24.8929 6.2425 24.7609 6.5175C24.713 6.41023 24.6362 6.31843 24.539 6.25237C24.4419 6.18631 24.3283 6.14861 24.2109 6.1435C24.1669 6.1435 24.1394 6.1435 24.1064 6.1435C23.9799 6.27 23.8149 6.336 23.7049 6.49C23.6114 6.2425 23.9854 5.9785 24.2549 5.94L24.1559 6.0775C24.2439 6.0775 24.2714 6.0115 24.3044 5.9675C24.3217 5.9408 24.3453 5.91879 24.3731 5.90344C24.4009 5.88808 24.4321 5.87986 24.4639 5.8795C24.4639 5.775 24.4254 5.742 24.3209 5.819C24.2164 5.896 24.1614 5.9235 24.1779 5.7475C24.0805 5.81361 23.9752 5.8672 23.8644 5.907C23.8259 5.907 23.7489 5.9895 23.7709 5.863C23.7709 5.8245 23.7709 5.8245 23.7214 5.8355C23.6719 5.8465 23.5949 5.885 23.6169 5.764C23.6169 5.764 23.6169 5.764 23.5784 5.764C23.4739 5.819 23.4849 5.731 23.4739 5.6705C23.2099 5.885 22.9844 5.918 22.8029 5.7695C22.8928 5.75267 22.9799 5.72304 23.0614 5.6815C23.2099 5.5935 23.2099 5.5935 23.1109 5.467L23.0834 5.4175C23.2429 5.3295 23.0504 5.2745 23.0834 5.1975C23.5709 5.30844 24.0752 5.32338 24.5684 5.2415ZM23.5564 5.2415C23.4267 5.26068 23.2943 5.24179 23.1752 5.18711C23.0561 5.13243 22.9554 5.04432 22.8854 4.9335C22.8524 4.873 22.8469 4.8455 22.9349 4.8455C23.0658 4.84366 23.1944 4.88018 23.3049 4.95054C23.4153 5.02091 23.5027 5.12205 23.5564 5.2415ZM23.2264 3.762C23.3089 3.762 23.3969 3.8115 23.3859 3.894C23.3309 4.11434 23.2573 4.32962 23.1659 4.5375C23.1659 4.576 23.1219 4.6035 23.0834 4.576C23.0449 4.5485 22.9129 4.576 22.9294 4.4715C22.9439 4.25965 22.9865 4.05067 23.0559 3.85C23.055 3.82938 23.0594 3.80888 23.0687 3.79045C23.078 3.77201 23.0918 3.75626 23.1089 3.74468C23.126 3.73311 23.1458 3.7261 23.1663 3.72431C23.1869 3.72253 23.2076 3.72604 23.2264 3.7345V3.762ZM22.9514 3.6905C22.9745 3.66103 23.0079 3.64139 23.0449 3.6355C22.9589 3.8836 22.8981 4.13973 22.8634 4.4C22.8634 4.433 22.8634 4.488 22.8029 4.477C22.7424 4.466 22.7369 4.4385 22.7424 4.389C22.7742 4.16848 22.8257 3.95127 22.8964 3.74C22.9058 3.70902 22.9252 3.68198 22.9514 3.663V3.6905ZM22.4894 3.289C22.5609 3.289 22.5829 3.289 22.5774 3.2065C22.5719 3.124 22.5774 3.1295 22.6324 3.1295C22.6874 3.1295 22.7094 3.1295 22.7039 3.1955C22.6984 3.2615 22.7039 3.3 22.7974 3.2945C22.8909 3.289 22.8414 3.2945 22.8469 3.344C22.8524 3.3935 22.8139 3.4045 22.7699 3.4045C22.7259 3.4045 22.6929 3.4045 22.7094 3.4485C22.7259 3.4925 22.6379 3.586 22.7094 3.6355C22.7524 3.66375 22.7835 3.70686 22.7967 3.75658C22.8099 3.80631 22.8042 3.85915 22.7809 3.905C22.7424 4.0315 22.6929 4.158 22.6379 4.3065C22.5774 4.158 22.5224 4.0315 22.4729 3.8995C22.4545 3.87666 22.4416 3.8498 22.4355 3.82109C22.4294 3.79238 22.4301 3.76263 22.4376 3.73425C22.4451 3.70587 22.4592 3.67965 22.4787 3.65772C22.4982 3.63578 22.5226 3.61875 22.5499 3.608C22.6269 3.5585 22.5499 3.4815 22.5499 3.421C22.5499 3.3605 22.5059 3.377 22.4729 3.377C22.4399 3.377 22.4124 3.377 22.4124 3.322C22.4124 3.267 22.4509 3.2615 22.4894 3.2615V3.289ZM22.4014 3.806C22.4631 4.00075 22.5127 4.19913 22.5499 4.4C22.5499 4.4495 22.5499 4.4715 22.4894 4.4825C22.4289 4.4935 22.4234 4.455 22.4234 4.4165C22.3937 4.13742 22.3328 3.86254 22.2419 3.597C22.2818 3.6111 22.3174 3.63519 22.3453 3.66696C22.3732 3.69874 22.3925 3.73714 22.4014 3.7785V3.806ZM22.0549 3.762C22.1594 3.7235 22.2144 3.762 22.2474 3.8665C22.3026 4.04594 22.3412 4.23003 22.3629 4.4165C22.3959 4.565 22.2694 4.521 22.2254 4.5595C22.1814 4.598 22.1484 4.5595 22.1264 4.5265C22.0604 4.334 21.9724 4.1525 21.9229 3.9765C21.8734 3.8005 21.9614 3.7675 22.0549 3.7345V3.762ZM22.4179 4.862C22.3632 4.99285 22.2664 5.10174 22.1429 5.17146C22.0194 5.24118 21.8762 5.26776 21.7359 5.247C21.7832 5.10921 21.8774 4.99242 22.0021 4.91703C22.1267 4.84163 22.2739 4.81242 22.4179 4.8345V4.862ZM21.3784 4.653C21.4224 4.7025 21.3784 4.7575 21.3784 4.807L21.2354 5.038C21.2079 5.0765 21.1859 5.1095 21.1364 5.0875C21.0869 5.0655 21.0374 5.0875 21.0649 5.005C21.0924 4.9225 21.1034 4.84 21.1254 4.763C21.1312 4.73318 21.1466 4.7061 21.1694 4.686C21.1904 4.66435 21.2171 4.64909 21.2464 4.642C21.2794 4.6035 21.3399 4.5815 21.3784 4.6255V4.653ZM20.7899 4.191C20.8724 4.191 20.8944 4.191 20.8834 4.092C20.8724 3.993 20.8834 4.048 20.9384 4.048C20.9934 4.048 20.9989 4.048 20.9934 4.092C20.9879 4.136 21.0209 4.202 21.1034 4.191C21.1859 4.18 21.1529 4.191 21.1529 4.246C21.1553 4.25364 21.1555 4.26179 21.1536 4.26955C21.1516 4.27731 21.1476 4.2844 21.142 4.29006C21.1363 4.29572 21.1292 4.29972 21.1215 4.30165C21.1137 4.30358 21.1055 4.30335 21.0979 4.301C20.9989 4.301 20.9879 4.3395 20.9934 4.411C20.9989 4.4825 20.9934 4.499 20.9329 4.4935C20.8724 4.488 20.8999 4.455 20.8999 4.4C20.8999 4.345 20.8999 4.268 20.8064 4.2845C20.7129 4.301 20.7569 4.2845 20.7569 4.235C20.7569 4.1855 20.7404 4.1855 20.7899 4.191ZM20.5809 4.6035C20.6964 4.6035 20.7679 4.642 20.8009 4.741C20.8226 4.8112 20.8392 4.88289 20.8504 4.9555C20.8504 4.9885 20.8944 5.049 20.8504 5.06C20.8064 5.071 20.7459 5.0875 20.7129 5.0215C20.6799 4.9555 20.5919 4.84 20.5369 4.741C20.4819 4.642 20.4984 4.609 20.5809 4.6035ZM20.5259 5.3405C20.5432 5.44097 20.567 5.54019 20.5974 5.6375C20.5007 5.57581 20.4257 5.48543 20.3829 5.379C20.3829 5.3405 20.3499 5.28 20.4214 5.269C20.4929 5.258 20.5149 5.269 20.5259 5.3405ZM20.3499 4.466C20.3134 4.56651 20.2654 4.66248 20.2069 4.752C20.1617 4.80163 20.1366 4.86636 20.1366 4.9335C20.1366 5.00064 20.1617 5.06537 20.2069 5.115C19.9484 5.0545 19.8659 4.917 19.9429 4.7025C19.9906 4.58699 20.0495 4.47645 20.1189 4.3725C20.1738 4.30474 20.2082 4.22267 20.2179 4.136C20.3884 4.2405 20.4159 4.3175 20.3499 4.466ZM19.7119 4.191C19.8549 4.092 19.9979 3.9765 20.2234 4.092C20.1195 4.14089 20.0216 4.20181 19.9319 4.2735C19.893 4.30576 19.8482 4.33006 19.7999 4.345C19.7394 4.345 19.6679 4.422 19.6184 4.345C19.5689 4.268 19.6679 4.2295 19.7229 4.191H19.7119ZM19.5139 4.323C19.6239 4.5046 19.6874 4.7105 19.699 4.92249C19.7105 5.13449 19.6696 5.34606 19.5799 5.5385C19.5412 5.49047 19.5133 5.43465 19.4981 5.37485C19.4829 5.31506 19.4808 5.25269 19.4919 5.192C19.5188 5.01626 19.4817 4.83672 19.3874 4.686V4.631C19.2939 4.4 19.3049 4.4 19.5249 4.323H19.5139ZM19.1564 5.1095C19.2224 5.0215 19.2994 4.9005 19.3984 4.939C19.4974 4.9775 19.3984 5.0985 19.3984 5.2085C19.2994 5.126 19.2114 5.181 19.1179 5.2085C19.1234 5.1535 19.1509 5.1315 19.1674 5.1095H19.1564ZM18.6999 6.3965C18.8119 6.61513 18.9566 6.81542 19.1289 6.9905C19.3162 7.16842 19.5166 7.33204 19.7284 7.48C19.7864 7.513 19.8373 7.55727 19.8779 7.61021C19.9186 7.66315 19.9482 7.72369 19.9652 7.78826C19.9821 7.85284 19.9859 7.92014 19.9764 7.98621C19.9669 8.05229 19.9443 8.1158 19.9099 8.173C19.8218 8.34941 19.75 8.53351 19.6954 8.723C19.6459 8.9265 19.6954 9.02 19.8879 9.0915C20.136 9.17412 20.4043 9.17412 20.6524 9.0915C20.7349 9.0915 20.7734 9.0915 20.8064 9.163C20.8379 9.24432 20.8785 9.32181 20.9274 9.394C20.9989 9.504 20.9824 9.5535 20.8504 9.57H20.7349V9.5425V9.5755C20.757 9.67141 20.757 9.77109 20.7349 9.867C20.7349 9.944 20.6854 9.9715 20.5974 9.9385C20.4777 9.8846 20.375 9.79902 20.3004 9.691C20.2451 9.7657 20.176 9.82916 20.0969 9.878C19.9759 9.944 19.9264 9.933 19.8714 9.8065C19.8561 9.767 19.8432 9.72659 19.8329 9.6855C19.8329 9.647 19.8329 9.603 19.8329 9.5425C19.76 9.62597 19.6768 9.69989 19.5854 9.7625C19.4919 9.8065 19.3874 9.889 19.2994 9.834C19.2114 9.779 19.2114 9.636 19.2114 9.5205C19.2114 9.405 19.3159 9.328 19.2499 9.2675C19.1839 9.207 19.0849 9.2675 18.9969 9.3005C18.9089 9.3335 18.8044 9.3005 18.7604 9.2565C18.7164 9.2125 18.7604 9.097 18.8264 9.0255C18.8839 8.94815 18.9463 8.87466 19.0134 8.8055C18.8506 8.77846 18.6994 8.70383 18.5789 8.591C18.4579 8.459 18.4689 8.426 18.6174 8.349C18.7271 8.30039 18.8443 8.27064 18.9639 8.261C18.8979 8.2225 18.8704 8.162 18.7989 8.1675C18.6185 8.26204 18.4112 8.29231 18.2113 8.25332C18.0113 8.21433 17.8306 8.10841 17.6989 7.953C17.6439 7.8595 17.6494 7.8045 17.7649 7.7715C17.8701 7.74955 17.9787 7.74955 18.0839 7.7715C18.2249 7.81259 18.3728 7.82383 18.5184 7.8045C18.5734 7.8045 18.5844 7.8045 18.6009 7.865C18.6174 7.9255 18.6339 8.008 18.7054 8.041C18.7054 7.9695 18.6614 7.9145 18.6394 7.854C18.6174 7.7935 18.6394 7.722 18.7329 7.711C18.9193 7.68255 19.11 7.70734 19.2829 7.7825C19.1085 7.60507 18.9636 7.40081 18.8539 7.1775C18.7417 6.93296 18.6889 6.66534 18.6999 6.3965ZM17.4019 6.8805C17.905 6.98549 18.3693 7.22718 18.7439 7.579C18.6325 7.65388 18.5039 7.69922 18.3702 7.71077C18.2365 7.72231 18.102 7.69968 17.9794 7.645C17.7083 7.46405 17.5097 7.19337 17.4184 6.8805H17.4019ZM17.7704 5.94C17.7704 5.8465 17.8309 5.874 17.8749 5.896C18.0178 5.95374 18.147 6.04086 18.254 6.15171C18.3611 6.26257 18.4437 6.39469 18.4964 6.5395C18.5775 6.84889 18.6805 7.15214 18.8044 7.447C18.4253 7.28489 18.1034 7.01285 17.8804 6.666C17.7673 6.44177 17.7343 6.18558 17.7869 5.94H17.7704ZM15.8784 3.85C15.8811 3.77649 15.906 3.70552 15.9499 3.6465C16.1115 3.787 16.264 3.93764 16.4064 4.0975C16.9067 4.65698 17.3337 5.27799 17.6769 5.9455C17.6906 5.96531 17.7 5.9878 17.7044 6.0115C17.7044 6.094 17.7044 6.1765 17.7044 6.2755C17.3261 5.76217 16.9008 5.28527 16.4339 4.851C16.4537 4.95975 16.4928 5.06407 16.5494 5.159C16.8364 5.61116 17.2103 6.00187 17.6494 6.3085C17.7059 6.34596 17.7469 6.40262 17.7649 6.468C17.8226 6.64525 17.9141 6.80962 18.0344 6.952H17.9959C17.15 6.58018 16.4516 5.93788 16.0104 5.126C15.8159 4.72994 15.7691 4.27749 15.8784 3.85ZM15.0644 4.95C15.2185 5.015 15.3644 5.09808 15.4989 5.1975C15.9533 5.54549 16.385 5.92209 16.7914 6.325C16.902 6.43341 17.0196 6.53446 17.1434 6.6275C17.284 6.74088 17.3748 6.90468 17.3964 7.084C16.8853 6.66209 16.3324 6.29351 15.7464 5.984C15.9915 6.31933 16.3068 6.59712 16.6704 6.798C16.8656 6.91625 17.0676 7.02277 17.2754 7.117C17.3445 7.13343 17.4092 7.16453 17.4652 7.20818C17.5212 7.25184 17.5671 7.30702 17.5999 7.37C17.5035 7.37203 17.4079 7.35327 17.3194 7.315C16.5887 7.11672 15.9193 6.73854 15.3724 6.215C15.2244 6.05357 15.1141 5.86129 15.0494 5.65204C14.9847 5.44279 14.9673 5.2218 14.9984 5.005C14.9764 4.906 15.0149 4.917 15.0644 4.95ZM15.0919 6.809C16.045 7.00301 16.9757 7.2942 17.8694 7.678C17.7862 7.72414 17.6944 7.75238 17.5996 7.76091C17.5049 7.76943 17.4095 7.75805 17.3194 7.7275C16.9484 7.56784 16.5584 7.45691 16.1589 7.3975C16.0893 7.39188 16.0195 7.39188 15.9499 7.3975C16.1172 7.51182 16.3034 7.59562 16.4999 7.645C16.8066 7.74369 17.1213 7.81546 17.4404 7.8595C17.4704 7.86151 17.4991 7.87258 17.5226 7.89124C17.5462 7.9099 17.5636 7.93527 17.5724 7.964C17.619 8.06492 17.6888 8.15347 17.7759 8.2225C17.0499 7.9805 16.3569 7.887 15.6749 7.7C15.2471 7.5871 14.854 7.36977 14.5309 7.0675C14.4463 6.98741 14.3773 6.8923 14.3274 6.787C14.5816 6.75765 14.8386 6.76135 15.0919 6.798V6.809Z" fill="#7E91B4"/>
</svg>
