<svg width="120" height="36" viewBox="0 0 120 36" fill="none" xmlns="http://www.w3.org/2000/svg">
<path d="M91.25 10.0001H91.07C91.0552 9.9985 91.0402 10.0003 91.0261 10.0052C91.012 10.0102 90.9993 10.0183 90.9887 10.0288C90.9782 10.0393 90.9701 10.0521 90.9652 10.0662C90.9602 10.0802 90.9584 10.0952 90.96 10.1101C90.96 10.5001 90.96 10.8801 90.96 11.2701C90.96 11.3801 90.96 11.4201 91.11 11.4201H92.38C92.59 11.4201 92.61 11.3501 92.59 11.1701C92.45 10.2001 92.23 10.0001 91.25 10.0001Z" fill="#7E91B4"/>
<path d="M73.71 20.7699C73.55 20.7699 73.5 20.8299 73.5 20.9699C73.5 21.1099 73.5 21.2899 73.5 21.4499C73.5 21.6099 73.5 21.6599 73.5 21.7599C73.5 22.1899 73.5 22.1899 73.94 22.1899H74.94C75.03 22.1899 75.07 22.1899 75.06 22.0599C75 20.9999 74.76 20.7499 73.71 20.7699Z" fill="#7E91B4"/>
<path d="M68 23.32C67.8303 23.3051 67.6597 23.3051 67.49 23.32H67.3C67.16 23.32 67.11 23.37 67.11 23.51C67.11 23.65 67.11 24.07 67.11 24.34V24.96C67.11 25.27 67.11 25.58 67.11 25.9C67.11 25.96 67.11 26.02 67.19 26.05C67.3795 26.1149 67.5813 26.1354 67.78 26.11C67.9795 26.0809 68.1705 26.0093 68.34 25.9C68.508 25.7903 68.6484 25.6431 68.75 25.47C68.8513 25.2963 68.9096 25.1009 68.92 24.9C68.935 24.7304 68.935 24.5597 68.92 24.39C68.9393 24.1263 68.8533 23.8656 68.6809 23.6651C68.5085 23.4645 68.2637 23.3405 68 23.32Z" fill="#7E91B4"/>
<path d="M73.74 15.12C73.8014 15.2027 73.8813 15.2699 73.9733 15.3162C74.0654 15.3626 74.167 15.3867 74.27 15.3867C74.373 15.3867 74.4746 15.3626 74.5667 15.3162C74.6587 15.2699 74.7386 15.2027 74.8 15.12C74.9928 14.9016 75.124 14.6359 75.18 14.35C75.4316 13.2941 75.4588 12.1971 75.26 11.13C75.2086 10.7429 75.0607 10.375 74.83 10.06C74.7718 9.97128 74.6924 9.89844 74.599 9.84804C74.5056 9.79763 74.4011 9.77124 74.295 9.77124C74.1889 9.77124 74.0844 9.79763 73.991 9.84804C73.8976 9.89844 73.8182 9.97128 73.76 10.06C73.6155 10.2261 73.5066 10.4201 73.44 10.63C73.2515 11.2794 73.1639 11.954 73.18 12.63C73.1684 12.9848 73.1919 13.3398 73.25 13.69C73.2791 14.2026 73.4487 14.6973 73.74 15.12Z" fill="#7E91B4"/>
<path d="M97.71 0H61.94C61.71 0 61.65 0.05 61.65 0.29V35.71C61.65 35.94 61.7 36 61.94 36H97.71C97.94 36 98 36 98 35.72C98 23.9067 98 12.0967 98 0.29C98 0.06 98 0 97.71 0ZM65.86 8.68H70.11C70.31 8.68 70.36 8.73 70.36 8.93V16.31C70.36 16.5 70.36 16.56 70.12 16.55C69.88 16.54 69.46 16.55 69.12 16.55C68.93 16.55 68.88 16.5 68.88 16.31C68.88 15.42 68.88 14.54 68.88 13.65V10.27C68.88 10.05 68.88 9.99 68.6 10C68.19 10 67.77 10 67.35 10C67.14 10 67.08 10.05 67.08 10.26V13.33C67.08 14.33 67.08 15.27 67.08 16.25C67.08 16.49 67.03 16.57 66.78 16.55C66.4636 16.53 66.1463 16.53 65.83 16.55C65.65 16.55 65.6 16.55 65.6 16.33V8.92C65.62 8.73 65.66 8.68 65.86 8.68ZM69.64 26.68C69.4346 26.8975 69.1864 27.0702 68.9111 27.1872C68.6357 27.3043 68.3392 27.3631 68.04 27.36H66.8C66.47 27.36 66.14 27.36 65.8 27.36C65.46 27.36 65.59 27.29 65.59 27.14C65.59 25.9 65.59 24.65 65.59 23.41V19.69C65.59 19.51 65.59 19.45 65.82 19.45C67.04 19.45 68.25 19.45 69.46 19.45C69.64 19.45 69.7 19.45 69.69 19.67C69.67 19.9763 69.67 20.2837 69.69 20.59C69.69 20.75 69.64 20.8 69.47 20.8C69.3 20.8 68.87 20.8 68.56 20.8H67.4C67.14 20.8 67.07 20.87 67.09 21.11C67.11 21.3362 67.11 21.5638 67.09 21.79C67.09 21.98 67.09 22.06 67.34 22.04C67.7583 22.0009 68.1801 22.0279 68.59 22.12C69.0602 22.2181 69.486 22.466 69.8033 22.8266C70.1207 23.1873 70.3125 23.6411 70.35 24.12C70.4282 24.5648 70.405 25.0216 70.2821 25.4562C70.1591 25.8908 69.9396 26.2921 69.64 26.63V26.68ZM71.74 12.68V12.57C71.689 11.6109 71.8817 10.6546 72.3 9.79C72.4699 9.40536 72.7514 9.08058 73.1079 8.85771C73.4645 8.63485 73.8798 8.52417 74.3 8.54C74.7184 8.53334 75.1298 8.64779 75.4846 8.86957C75.8395 9.09135 76.1226 9.41099 76.3 9.79C76.6152 10.4126 76.799 11.0934 76.84 11.79C76.9982 12.9211 76.8815 14.0736 76.5 15.15C76.3864 15.5309 76.1769 15.8763 75.8914 16.153C75.606 16.4297 75.2543 16.6283 74.87 16.73C74.4185 16.8468 73.9412 16.8123 73.5112 16.6316C73.0813 16.451 72.7225 16.1342 72.49 15.73C72.0114 14.8608 71.7668 13.8822 71.78 12.89L71.74 12.68ZM76.84 27.36H75.69C75.54 27.36 75.51 27.3 75.5 27.17L75.38 25.58C75.33 24.97 75.28 24.37 75.24 23.76C75.24 23.6 75.19 23.54 75.02 23.55C74.56 23.55 74.1 23.55 73.63 23.55C73.47 23.55 73.4 23.55 73.39 23.76C73.39 24.48 73.39 25.19 73.32 25.9C73.32 26.28 73.32 26.65 73.32 27.03C73.32 27.34 73.32 27.34 72.98 27.34H72.1C71.88 27.34 71.81 27.34 71.82 27.07C71.82 26.21 71.89 25.35 71.92 24.49V23.45C71.92 23.01 71.92 22.56 71.92 22.12C71.92 21.33 71.98 20.54 72 19.75C72 19.54 72.08 19.46 72.31 19.47C72.74 19.47 73.17 19.47 73.59 19.47H74.1C74.392 19.4403 74.6869 19.4728 74.9654 19.5652C75.2439 19.6577 75.4997 19.808 75.716 20.0063C75.9323 20.2047 76.1042 20.4466 76.2203 20.716C76.3365 20.9855 76.3943 21.2766 76.39 21.57C76.5633 23.43 76.7433 25.2867 76.93 27.14C77 27.28 77 27.31 76.84 27.31V27.36ZM77.9 10.79V8.89C77.9 8.74 77.9 8.68 78.09 8.69H79.17C79.33 8.69 79.39 8.69 79.38 8.89V10.74C79.3659 10.8908 79.4114 11.0411 79.5067 11.1589C79.602 11.2766 79.7396 11.3524 79.89 11.37C80.1573 11.4165 80.429 11.4332 80.7 11.42H80.91C81.05 11.42 81.05 11.34 81.04 11.26V10.96C81.04 10.3 81.04 9.65 81.04 8.96C81.04 8.75 81.04 8.68 81.31 8.69C81.643 8.71042 81.977 8.71042 82.31 8.69C82.49 8.69 82.54 8.74 82.54 8.92C82.54 9.85 82.54 10.79 82.54 11.72C82.54 12.02 82.54 12.32 82.54 12.62C82.54 12.92 82.54 13.2 82.54 13.49C82.54 14.43 82.54 15.38 82.54 16.32C82.54 16.51 82.54 16.57 82.3 16.56C82.06 16.55 81.62 16.56 81.3 16.56C81.11 16.56 81.07 16.51 81.07 16.34C81.07 15.81 81.07 15.28 81.07 14.75C81.07 14.22 81.07 13.59 81.07 13.01C81.07 12.8 81.07 12.74 80.81 12.75H80.6C80.1916 12.7786 79.7812 12.7517 79.38 12.67C78.9497 12.5845 78.5641 12.3481 78.2927 12.0034C78.0213 11.6587 77.882 11.2284 77.9 10.79ZM83.17 27.32C82.837 27.3 82.503 27.3 82.17 27.32C81.99 27.32 81.96 27.26 81.96 27.1V25.65C81.96 24.95 81.96 24.25 81.96 23.55C81.96 23.32 81.89 23.27 81.67 23.28H80.25C80.05 23.28 79.99 23.28 79.99 23.52C79.99 24.11 79.99 24.69 79.99 25.27V27.05C79.99 27.26 79.99 27.33 79.73 27.32C79.397 27.3 79.063 27.3 78.73 27.32C78.56 27.32 78.51 27.32 78.51 27.11C78.51 26.64 78.51 26.17 78.51 25.71C78.51 25.53 78.51 25.36 78.51 25.18V23.9C78.51 22.5 78.51 21.1 78.51 19.7C78.51 19.49 78.57 19.44 78.77 19.45C79.103 19.4713 79.437 19.4713 79.77 19.45C79.99 19.45 80.02 19.52 80.02 19.71V20.71C80.02 21.07 80.02 21.42 80.02 21.78C80.02 21.96 80.08 22 80.25 22C80.76 22 81.25 22 81.76 22C81.94 22 82 22 81.99 21.78V20.78C81.99 20.43 81.99 20.07 81.99 19.72C81.99 19.55 81.99 19.48 82.22 19.49C82.45 19.5 82.89 19.49 83.22 19.49C83.55 19.49 83.47 19.54 83.47 19.74V24.45C83.47 25.34 83.47 26.23 83.47 27.12C83.44 27.28 83.37 27.33 83.17 27.32ZM85.31 12.63V10.22C85.31 10.06 85.31 10 85.1 10H84.31C84.17 10 84.11 10 84.11 9.82C84.11 9.5 84.11 9.16 84.11 8.82C84.11 8.69 84.11 8.66 84.27 8.66H87.86C87.99 8.66 88.01 8.66 88.01 8.82C88.01 9.14667 88.01 9.48 88.01 9.82C88.01 9.97 87.95 10 87.82 9.99H87C86.82 9.99 86.77 9.99 86.77 10.21C86.77 10.97 86.77 11.73 86.77 12.49V13.92C86.77 14.71 86.77 15.5 86.77 16.3C86.77 16.49 86.72 16.54 86.52 16.53C86.32 16.52 85.86 16.53 85.52 16.53C85.18 16.53 85.26 16.46 85.26 16.26C85.26 15.35 85.26 14.43 85.26 13.52L85.31 12.63ZM90.31 27.31H89.22C89.08 27.31 89.06 27.23 89.03 27.15C89.029 27.1333 89.029 27.1167 89.03 27.1L88.73 26.28C88.4 25.38 88.08 24.48 87.73 23.58C87.7254 23.541 87.7126 23.5035 87.6925 23.4698C87.6724 23.4361 87.6455 23.4069 87.6134 23.3843C87.5814 23.3617 87.5449 23.346 87.5064 23.3384C87.4679 23.3308 87.4283 23.3313 87.39 23.34C87.08 23.34 86.93 23.34 86.85 23.42C86.77 23.5 86.78 23.65 86.78 23.96V24.78C86.78 25.5333 86.78 26.2833 86.78 27.03C86.78 27.27 86.71 27.33 86.48 27.31C86.1837 27.29 85.8863 27.29 85.59 27.31C85.37 27.31 85.31 27.31 85.31 27.04V20.12C85.32 19.9702 85.32 19.8198 85.31 19.67C85.31 19.51 85.31 19.45 85.51 19.45C85.8431 19.4681 86.1769 19.4681 86.51 19.45C86.69 19.45 86.73 19.51 86.73 19.67V20.67C86.73 21.06 86.73 21.45 86.73 21.84C86.73 22.04 86.78 22.08 86.97 22.09C87.77 22.09 88.19 21.97 88.35 20.9C88.35 20.58 88.42 20.26 88.44 19.9C88.445 19.8301 88.445 19.7599 88.44 19.69C88.44 19.53 88.5 19.47 88.67 19.48C88.84 19.49 89.18 19.48 89.43 19.48H89.76C89.85 19.48 89.92 19.48 89.9 19.61L89.84 20.06C89.8001 20.5241 89.73 20.9851 89.63 21.44C89.5337 21.8885 89.3076 22.2989 88.98 22.62C88.9448 22.6601 88.9254 22.7117 88.9254 22.765C88.9254 22.8183 88.9448 22.8699 88.98 22.91L90.58 27C90.6093 27.061 90.6327 27.1246 90.65 27.19V27.28L90.31 27.31ZM94.31 16.55C93.94 16.55 93.58 16.55 93.21 16.55C93.06 16.55 93 16.55 92.99 16.36C92.99 15.64 92.89 14.92 92.83 14.2L92.74 13.08C92.74 12.76 92.74 12.76 92.38 12.76H91.09C90.94 12.76 90.87 12.76 90.86 12.96C90.86 13.68 90.86 14.41 90.79 15.14C90.79 15.49 90.79 15.85 90.79 16.2C90.79 16.39 90.79 16.48 90.73 16.52C90.67 16.56 90.59 16.57 90.41 16.57H90.16C89.95 16.57 89.75 16.57 89.54 16.57C89.33 16.57 89.32 16.57 89.32 16.37C89.32 15.5 89.39 14.63 89.42 13.76V12.92C89.42 12 89.48 11.08 89.52 10.16C89.515 10.0667 89.515 9.97327 89.52 9.88C89.52 9.58 89.52 9.27 89.52 8.97C89.52 8.67 89.52 8.69 89.79 8.7C90.06 8.71 90.27 8.7 90.52 8.7H91.69C91.9567 8.6754 92.2257 8.70463 92.481 8.78597C92.7362 8.86732 92.9725 8.99911 93.1758 9.17352C93.3792 9.34794 93.5454 9.56143 93.6646 9.80132C93.7839 10.0412 93.8537 10.3026 93.87 10.57C93.98 11.42 94.06 12.28 94.14 13.14L94.23 14.05L94.32 15.05C94.32 15.48 94.4 15.92 94.45 16.35C94.49 16.5 94.46 16.56 94.28 16.55H94.31Z" fill="#7E91B4"/>
<path d="M34 14.7799C33.93 14.7799 33.88 14.7099 33.89 14.6299C33.89 14.7199 33.89 14.7599 33.99 14.7899L34 14.7799Z" fill="#7E91B4"/>
<path d="M47.55 27.72C47.41 27.72 47.35 27.56 47.22 27.53C47.37 27.53 47.42 27.73 47.57 27.72H47.55Z" fill="#7E91B4"/>
<path d="M30.7 19.03L30.77 19.01L30.71 19.03H30.7Z" fill="#7E91B4"/>
<path d="M38.17 9.99991C38.09 9.99991 37.98 9.94991 37.94 9.99991C38 9.91991 38.09 9.99991 38.17 9.99991Z" fill="#7E91B4"/>
<path d="M44.3 10.2501C44.3349 10.2243 44.3625 10.1898 44.38 10.1501C44.3645 10.1884 44.3362 10.2202 44.3 10.2401C44.21 10.3101 44.23 10.1901 44.18 10.1601C44.23 10.1901 44.21 10.3101 44.3 10.2501Z" fill="#7E91B4"/>
<path d="M41.89 8.99998V9.00998L41.93 8.97998H41.92L41.89 8.99998Z" fill="#7E91B4"/>
<path d="M47.7 27.9201C47.6549 27.9125 47.6131 27.8916 47.58 27.8601C47.6149 27.8912 47.6557 27.915 47.7 27.9301V27.9201Z" fill="#7E91B4"/>
<path d="M23 36H59V0H23V36ZM34.44 17.62H34.61C34.72 17.57 34.8 17.57 34.81 17.72C34.82 17.87 34.99 17.97 34.93 18.13H34.98C35.21 17.97 35.52 17.99 35.74 17.79C35.8016 17.9004 35.8297 18.0263 35.8208 18.1525C35.8119 18.2786 35.7665 18.3993 35.69 18.5C35.5591 18.6891 35.3882 18.8471 35.1895 18.9629C34.9908 19.0787 34.7691 19.1494 34.54 19.17C34.32 19.17 34.29 19.11 34.37 18.93C34.4687 18.7343 34.5932 18.5527 34.74 18.39C34.5311 18.567 34.2727 18.6753 34 18.7C33.77 18.7 33.7 18.63 33.74 18.39C33.7666 18.2789 33.8159 18.1745 33.8847 18.0833C33.9535 17.9921 34.0404 17.9161 34.14 17.86C34.25 17.78 34.4 17.75 34.48 17.63C34.36 17.63 34.3 17.69 34.2 17.73C34.0391 17.8184 33.8586 17.8648 33.675 17.8648C33.4914 17.8648 33.3109 17.8184 33.15 17.73C32.94 17.6 32.93 17.49 33.15 17.35C33.37 17.21 33.69 17.1 33.93 16.92H34C34.27 17.0409 34.5724 17.069 34.86 17C34.86 17.24 34.86 17.23 34.69 17.4C34.52 17.57 34.52 17.49 34.5 17.6L34.44 17.62ZM37.34 18.22C37.69 18.27 37.77 18.22 37.82 17.84C37.82 17.74 37.82 17.57 37.82 17.55C37.9808 17.5012 38.1327 17.4269 38.27 17.33C38.27 17.33 38.69 17.65 38.71 17.73C38.7717 17.9741 38.7469 18.2321 38.64 18.46C38.42 18.94 38.18 19.41 37.95 19.91C37.8026 19.7501 37.7113 19.5465 37.69 19.33C37.6472 19.0274 37.5561 18.7336 37.42 18.46C37.3902 18.372 37.3299 18.2975 37.25 18.25L37.34 18.22ZM36.45 10.81C36.28 10.9 36.21 10.81 36.12 10.73C36.0408 10.6309 35.9927 10.5105 35.9821 10.3841C35.9714 10.2577 35.9985 10.131 36.06 10.02C36.1327 9.93644 36.2281 9.87586 36.3347 9.84567C36.4412 9.81548 36.5543 9.81698 36.66 9.85C36.72 9.85 36.77 9.85 36.79 9.91C36.9244 10.138 37.1438 10.3034 37.4 10.37C37.5666 10.4637 37.7101 10.5936 37.82 10.75C37.9619 10.9147 38.1193 11.0654 38.29 11.2C38.0765 11.1977 37.8672 11.2593 37.689 11.3769C37.5107 11.4945 37.3718 11.6628 37.29 11.86C37.03 11.51 37.06 11.29 37.4 10.94C37.2807 10.8125 37.1211 10.73 36.9481 10.7063C36.7751 10.6826 36.5992 10.7192 36.45 10.81ZM38.61 9.41C38.2858 9.52048 37.9342 9.52048 37.61 9.41C37.9349 9.30386 38.2851 9.30386 38.61 9.41ZM37.9 8.5C37.9 8.42 37.85 8.33 37.9 8.28C37.9505 8.24688 38.0096 8.22923 38.07 8.22923C38.1304 8.22923 38.1895 8.24688 38.24 8.28C38.34 8.33 38.32 8.43 38.29 8.5C38.26 8.57 38.16 8.78 38.07 8.96L37.9 8.5ZM40.25 9.55C40.25 9.62 40.19 9.66 40.15 9.71C40.11 9.76 40 9.82 40.15 9.88C40.3 9.94 40.23 9.98 40.15 10.03L39.95 10.2C40.1558 10.4052 40.4224 10.5384 40.71 10.58C40.41 10.84 39.97 10.78 39.5 10.4C39.5 10.51 39.5 10.68 39.3 10.57C39.24 10.73 39.09 10.75 38.95 10.76C39.01 11.01 38.85 10.87 38.79 10.85L38.23 10.58V10.74C37.9973 10.6601 37.7957 10.5089 37.6538 10.3078C37.512 10.1067 37.4372 9.86604 37.44 9.62C37.44 9.5 37.52 9.55 37.56 9.56C38.4484 9.73529 39.3629 9.73189 40.25 9.55ZM47.54 18.31L47.49 18.26C47.28 18.05 47.49 17.87 47.56 17.69C47.63 17.51 47.79 17.77 47.9 17.69C47.76 17.52 47.51 17.42 47.52 17.13C47.82 17.13 48.13 17.23 48.41 17.03C48.41 17.03 48.46 17.03 48.48 17.03C48.73 17.16 48.99 17.29 49.23 17.44C49.47 17.59 49.45 17.69 49.23 17.83C49.1185 17.8931 48.995 17.9319 48.8675 17.944C48.74 17.9561 48.6113 17.9411 48.49 17.9C48.38 17.9 48.28 17.8 48.14 17.9C48.41 18.06 48.65 18.24 48.65 18.6C48.65 18.75 48.58 18.8 48.43 18.8C48.2335 18.7904 48.0419 18.7357 47.87 18.64C47.81 18.64 47.77 18.52 47.66 18.56C47.7905 18.6926 47.9046 18.8403 48 19C48 19.09 48.07 19.17 47.91 19.19C47.6219 19.1764 47.3433 19.0833 47.1049 18.9208C46.8666 18.7584 46.678 18.5331 46.56 18.27C46.5452 18.1974 46.5452 18.1226 46.56 18.05C46.56 17.86 46.56 17.78 46.8 17.91C47.04 18.04 47.3 18.02 47.48 18.23L47.53 18.28L47.54 18.31ZM48.68 15.64C48.707 15.6292 48.7311 15.6121 48.75 15.59C48.9 15.19 49.27 15.17 49.61 15.15C49.8004 15.1317 49.9924 15.1591 50.17 15.23C50.3482 15.3021 50.511 15.4073 50.65 15.54C50.78 15.68 50.76 15.76 50.59 15.86C50.2981 16.0175 49.9717 16.1 49.64 16.1C49.3083 16.1 48.9819 16.0175 48.69 15.86C48.46 15.77 48.69 15.69 48.69 15.6L48.68 15.64ZM49.51 16.23C49.6653 16.271 49.81 16.3449 49.9342 16.4467C50.0584 16.5485 50.1593 16.6758 50.23 16.82C50.34 17.03 50.23 17.1 50.08 17.16C49.7699 17.2342 49.445 17.2181 49.1437 17.1136C48.8425 17.009 48.5775 16.8204 48.38 16.57C48.29 16.43 48.21 16.28 48.12 16.12C48.5857 16.0503 49.0611 16.0879 49.51 16.23ZM47.46 20.12C47.38 19.81 47.28 19.51 47.19 19.19C47.2378 19.1894 47.2849 19.201 47.3269 19.2238C47.3689 19.2465 47.4044 19.2797 47.43 19.32C47.8302 19.8954 48.0904 20.5563 48.19 21.25C48.19 21.56 48.19 21.98 47.99 22.09C47.79 22.2 47.5 21.84 47.3 21.63C47.0221 21.2528 46.8684 20.7985 46.86 20.33C46.78 19.8575 46.7398 19.3792 46.74 18.9C46.99 18.95 47.02 19.13 47.04 19.32C47.0826 19.7981 47.1868 20.2686 47.35 20.72C47.3973 20.8416 47.4612 20.956 47.54 21.06C47.6097 20.7458 47.5818 20.4179 47.46 20.12ZM47.9 23.18C48.0056 22.9206 48.1669 22.6876 48.3726 22.4975C48.5782 22.3074 48.8231 22.1649 49.09 22.08C49.1405 22.0621 49.1946 22.0568 49.2476 22.0645C49.3006 22.0722 49.3509 22.0927 49.3942 22.1242C49.4375 22.1557 49.4725 22.1973 49.4962 22.2453C49.5198 22.2934 49.5314 22.3465 49.53 22.4C49.4263 22.6897 49.2523 22.9491 49.0237 23.1551C48.7951 23.361 48.5189 23.507 48.22 23.58C48.1703 23.5816 48.1209 23.5716 48.0758 23.5508C48.0306 23.5299 47.991 23.4989 47.9599 23.4601C47.9289 23.4212 47.9073 23.3757 47.8969 23.3271C47.8865 23.2785 47.8875 23.2281 47.9 23.18ZM48.49 20.65C48.2608 20.2074 48.0036 19.7799 47.72 19.37C48.02 19.24 48.18 19.37 48.33 19.62C48.5852 20.0997 48.948 20.5139 49.39 20.83C49.3862 20.588 49.3134 20.352 49.18 20.15C48.9246 19.7228 48.6079 19.3353 48.24 19C48.16 18.92 48.08 18.85 48.08 18.74C48.231 18.7399 48.3799 18.7762 48.5139 18.8458C48.6479 18.9155 48.7632 19.0164 48.85 19.14C49.4414 19.7522 49.8411 20.5238 50 21.36C50.0201 21.5227 50.0201 21.6873 50 21.85C49.37 21.6422 48.8347 21.2168 48.49 20.65ZM41.37 27.84L41.85 27.01L42.58 28.14C42.71 28.33 42.58 28.41 42.45 28.52C42.32 28.63 42.36 28.47 42.33 28.43L41.89 27.79C41.75 28.04 41.62 28.27 41.48 28.5C41.2 28.18 41.19 28.16 41.37 27.84ZM41.24 27.06C41.16 27.15 41.11 27.06 41.06 27.06C40.9165 26.8897 40.8016 26.6972 40.72 26.49C40.8596 26.5603 41.0137 26.597 41.17 26.597C41.3263 26.597 41.4804 26.5603 41.62 26.49C41.5319 26.7031 41.4028 26.8967 41.24 27.06ZM41.86 26.36C41.76 26.28 41.69 26.25 41.57 26.36C41.4414 26.4312 41.297 26.469 41.15 26.47C41.0062 26.469 40.865 26.4312 40.74 26.36C40.6999 26.3248 40.6483 26.3055 40.595 26.3055C40.5417 26.3055 40.4901 26.3248 40.45 26.36C40.1022 26.5855 39.7208 26.7543 39.32 26.86C40.0485 26.2593 40.6735 25.5431 41.17 24.74C41.6506 25.5488 42.2701 26.2664 43 26.86C42.591 26.7693 42.2037 26.5995 41.86 26.36ZM35.2 27.18C35.25 27.25 35.4 27.29 35.35 27.41C35.3 27.53 35.16 27.47 35.06 27.47C34.9319 27.4607 34.8081 27.4194 34.7 27.35C34.62 27.35 34.54 27.25 34.57 27.16C34.6 27.07 34.69 27.06 34.77 27.06H34.91C34.6333 26.8158 34.279 26.6776 33.91 26.67L33.55 26.6C33.5354 26.5613 33.5354 26.5187 33.55 26.48C33.5708 26.4394 33.5978 26.4023 33.63 26.37C33.7631 26.2442 33.9363 26.1692 34.1191 26.1582C34.3019 26.1473 34.4828 26.201 34.63 26.31L34.78 26.41C35.09 26.6 35.25 26.57 35.42 26.25C35.59 25.93 35.72 25.61 35.88 25.25C36.0584 24.8411 36.2797 24.4523 36.54 24.09C36.5758 24.0309 36.6235 23.9798 36.68 23.94C36.7401 23.8991 36.8083 23.8718 36.88 23.86C36.9526 23.8452 37.0274 23.8452 37.1 23.86C37.24 23.86 37.1 24.07 37.18 24.18C37.26 24.29 37.35 24.11 37.44 24.07C37.53 24.03 37.6 24.01 37.68 24.07C37.76 24.13 37.81 24.17 37.81 24.24C37.81 24.31 37.71 24.33 37.64 24.35C37.1407 24.5039 36.7098 24.8253 36.42 25.26C36.0644 25.7228 35.7998 26.2487 35.64 26.81C35.58 27.08 35.47 27.14 35.23 27.06H35.09L35.2 27.18ZM33.45 20.4C33.6716 20.1646 33.8631 19.9026 34.02 19.62C34.15 19.37 34.3 19.23 34.61 19.37C34.24 19.87 34 20.46 33.61 20.97C33.2657 21.3888 32.8016 21.6923 32.28 21.84C32.2408 21.3692 32.338 20.897 32.56 20.48C32.8639 19.8947 33.2588 19.3614 33.73 18.9C33.88 18.74 34.09 18.9 34.26 18.72C34.2607 18.7819 34.2455 18.843 34.2157 18.8973C34.1859 18.9516 34.1426 18.9973 34.09 19.03C33.7417 19.3533 33.4359 19.7196 33.18 20.12C33.0457 20.331 32.9635 20.571 32.94 20.82C33.1353 20.7139 33.3084 20.5713 33.45 20.4ZM32.93 22.17C33.0015 22.106 33.0941 22.0707 33.19 22.0707C33.2859 22.0707 33.3785 22.106 33.45 22.17C33.8826 22.3866 34.2334 22.7374 34.45 23.17C34.4874 23.2244 34.5077 23.2887 34.5082 23.3547C34.5087 23.4206 34.4894 23.4853 34.4528 23.5402C34.4162 23.5951 34.3639 23.6377 34.3028 23.6627C34.2417 23.6876 34.1746 23.6936 34.11 23.68C34.0184 23.682 33.9282 23.6577 33.85 23.61C33.4787 23.4178 33.1673 23.1272 32.95 22.77C32.9062 22.7339 32.8705 22.6889 32.8454 22.6379C32.8203 22.587 32.8064 22.5313 32.8045 22.4745C32.8026 22.4178 32.8128 22.3612 32.8344 22.3087C32.8561 22.2562 32.8887 22.2089 32.93 22.17ZM34.46 22.11C34.32 22.2 34.31 22.11 34.27 22C34.1063 21.5546 34.1063 21.0654 34.27 20.62C34.4298 20.1722 34.6377 19.743 34.89 19.34C34.9125 19.2974 34.9474 19.2625 34.99 19.24C35.0392 19.2273 35.0908 19.2273 35.14 19.24C34.8782 19.8562 34.7487 20.5206 34.76 21.19C35.0079 20.7663 35.1677 20.2969 35.23 19.81C35.2664 19.6383 35.2931 19.4647 35.31 19.29C35.31 19.1 35.42 19.01 35.61 18.93C35.597 19.7141 35.4861 20.4934 35.28 21.25C35.1139 21.6226 34.8243 21.9264 34.46 22.11ZM37.91 25.47C37.91 25.47 37.91 25.52 37.91 25.53C37.67 25.64 37.7 25.76 37.85 25.96C38.33 26.6 38.79 27.28 39.28 27.96C39.46 28.19 39.53 28.38 39.28 28.61C39.19 28.61 39.17 28.49 39.11 28.42L37.58 26.3C37.37 26 37.36 26 37.04 26.19V25.19L37.91 25.47ZM37.31 20.39C37.6 20.39 37.66 20.62 37.66 20.85C37.7184 21.2417 37.6593 21.642 37.49 22C37.11 21.7 36.91 21.09 36.75 19.7C37.18 20.12 36.99 20.7 37.34 21.2C37.3772 20.9303 37.367 20.6562 37.31 20.39ZM38.44 22.57C38.2 23.1 37.69 23.2 37.29 23.42C37.17 23.49 36.93 23.34 36.72 23.29C37.16 22.69 37.85 22.79 38.44 22.57ZM38.61 11.57C38.85 11.74 38.99 12 39.24 12.16C39.32 12.21 39.24 12.28 39.24 12.34C39.1712 12.5634 39.1374 12.7962 39.14 13.03C38.9807 12.8396 38.8708 12.613 38.82 12.37C38.8122 12.1713 38.7396 11.9806 38.6132 11.8271C38.4867 11.6736 38.3135 11.5657 38.12 11.52C38.1894 11.464 38.2758 11.4334 38.365 11.4334C38.4542 11.4334 38.5406 11.464 38.61 11.52V11.57ZM38.13 10.93C38.4014 10.9318 38.6621 11.0356 38.8604 11.2209C39.0587 11.4062 39.1799 11.6594 39.2 11.93C38.88 11.47 38.38 11.31 38.13 10.88V10.93ZM38.51 14.26C38.7009 14.1992 38.8747 14.0942 39.0172 13.9534C39.1597 13.8126 39.2669 13.6401 39.33 13.45C39.3816 13.6367 39.3779 13.8343 39.3193 14.019C39.2608 14.2036 39.1498 14.3672 39 14.49C38.9248 14.5389 38.8392 14.5697 38.75 14.58C38.6606 14.5836 38.5717 14.5665 38.49 14.53C38.38 14.53 38.25 14.41 38.25 14.29C38.25 14.17 38.43 14.23 38.51 14.21V14.26ZM38.82 11C38.94 10.95 39.1 11.14 39.13 10.89C39.13 10.83 39.35 10.84 39.42 10.96C39.5304 11.1974 39.6609 11.4248 39.81 11.64C39.9 11.77 39.81 11.87 39.73 12.03C39.5398 11.6012 39.2221 11.2416 38.82 11ZM41.11 11.69C41.28 11.69 41.38 11.8 41.49 11.89C41.5558 11.9447 41.6 12.021 41.6147 12.1053C41.6293 12.1896 41.6135 12.2763 41.57 12.35C41.45 12.58 41.32 12.8 41.17 13.06C41.04 12.83 40.9 12.63 40.79 12.42C40.7519 12.3529 40.7312 12.2772 40.73 12.2C40.7149 12.1274 40.7149 12.0526 40.73 11.98C40.7619 11.9098 40.8098 11.8482 40.87 11.8C40.9365 11.7391 41.0204 11.7006 41.11 11.69ZM41 8.86C41 8.76 41.05 8.68 41.16 8.68H41.29C41.2949 8.70308 41.2949 8.72692 41.29 8.75C41.29 8.85 41.23 8.91 41.12 8.93C41.01 8.95 41 9 41 8.86ZM42.58 24.51C42.7287 24.6473 42.8893 24.7712 43.06 24.88C43.2284 24.9977 43.3602 25.1606 43.44 25.35C43.44 25.47 43.44 25.53 43.31 25.5C42.9723 25.4289 42.667 25.2499 42.44 24.99C42.1598 24.6732 41.9547 24.2972 41.84 23.89C41.8248 23.8446 41.8248 23.7954 41.84 23.75C41.831 23.7004 41.831 23.6496 41.84 23.6C41.92 23.46 41.97 23.31 42.08 23.06C42.51 23.77 43.21 24.13 43.66 24.74C42.9 24.74 42.66 24.05 42.15 23.61C42.1423 23.7838 42.1775 23.9568 42.2525 24.1137C42.3275 24.2707 42.44 24.4068 42.58 24.51ZM41 14.58C41.12 14.74 41.24 14.73 41.35 14.58C41.73 15.04 41.75 15.4 41.44 15.77C41.13 16.14 41.14 15.99 40.94 15.77C40.74 15.55 40.61 15.06 41 14.58ZM41 13.58C41.069 13.4907 41.1325 13.3971 41.19 13.3C41.2453 13.3898 41.3054 13.4766 41.37 13.56C41.4232 13.6121 41.4655 13.6744 41.4944 13.7431C41.5232 13.8117 41.5381 13.8855 41.5381 13.96C41.5381 14.0345 41.5232 14.1083 41.4944 14.1769C41.4655 14.2456 41.4232 14.3079 41.37 14.36C41.24 14.54 41.15 14.55 41.01 14.36C40.75 14.05 40.74 13.91 41 13.59V13.58ZM38.7 24.77C38.7112 24.6716 38.7493 24.5782 38.81 24.5C38.8682 24.4183 38.9432 24.3501 39.03 24.3C39.4212 24.0901 39.7492 23.7793 39.98 23.4L40.04 23.32C40.24 23.11 40.25 23.14 40.39 23.37C40.67 23.8 40.39 24.15 40.25 24.49C40.1267 24.7603 39.9359 24.9943 39.696 25.1694C39.456 25.3446 39.175 25.455 38.88 25.49C38.8995 25.3555 38.9492 25.2271 39.0254 25.1145C39.1016 25.0019 39.2023 24.9081 39.32 24.84C39.5976 24.6686 39.8389 24.4444 40.03 24.18C40.1564 24.0072 40.2102 23.7919 40.18 23.58C39.67 24 39.42 24.71 38.68 24.78L38.7 24.77ZM39.91 23.04C39.8004 23.1311 39.6625 23.181 39.52 23.181C39.3775 23.181 39.2395 23.1311 39.13 23.04C39.1078 23.0292 39.0884 23.0135 39.0733 22.9939C39.0581 22.9744 39.0478 22.9516 39.0429 22.9274C39.0381 22.9032 39.0389 22.8782 39.0453 22.8544C39.0518 22.8305 39.0636 22.8085 39.08 22.79C39.108 22.732 39.1471 22.68 39.1951 22.6371C39.2432 22.5942 39.2992 22.5612 39.36 22.54C39.8458 22.3598 40.2622 22.0308 40.55 21.6C40.5594 21.8762 40.5047 22.1509 40.3902 22.4025C40.2757 22.654 40.1045 22.8757 39.89 23.05L39.91 23.04ZM39.43 22C39.3631 21.922 39.3263 21.8227 39.3263 21.72C39.3263 21.6173 39.3631 21.518 39.43 21.44L39.82 20.97C39.9 21.13 39.97 21.29 40.04 21.45C40.0911 21.5375 40.1089 21.6405 40.09 21.74C40.0756 21.8426 40.0362 21.9401 39.9751 22.0238C39.9141 22.1076 39.8333 22.1749 39.74 22.22C39.59 22.24 39.51 22.07 39.43 22ZM40.35 21.66C40.3053 21.4885 40.2381 21.3238 40.15 21.17C40.0619 20.9364 40.0483 20.6812 40.1109 20.4395C40.1736 20.1978 40.3095 19.9814 40.5 19.82C40.57 19.76 40.6 19.82 40.64 19.82C40.7739 19.9446 40.8681 20.1059 40.9108 20.2838C40.9535 20.4617 40.9428 20.6482 40.88 20.82C40.7775 21.1318 40.5947 21.4112 40.35 21.63V21.66ZM40.75 16.81C40.6883 16.727 40.6612 16.6234 40.6743 16.5209C40.6873 16.4184 40.7395 16.3249 40.82 16.26C40.9231 16.1808 41.0499 16.1385 41.18 16.14C41.3101 16.1412 41.4349 16.1912 41.53 16.28C41.6047 16.3425 41.6526 16.4313 41.6638 16.528C41.675 16.6248 41.6486 16.7222 41.59 16.8L41.17 17.44C41 17.2 40.88 17 40.75 16.78V16.81ZM41.16 20.15C40.61 19.49 40.61 19.21 41.16 18.55C41.2786 18.6436 41.3745 18.7629 41.4404 18.8988C41.5063 19.0348 41.5405 19.1839 41.5405 19.335C41.5405 19.4861 41.5063 19.6352 41.4404 19.7712C41.3745 19.9071 41.2786 20.0264 41.16 20.12V20.15ZM40.68 17C40.9048 17.2239 41.0369 17.5243 41.0499 17.8413C41.0628 18.1583 40.9558 18.4685 40.75 18.71C40.6146 18.6201 40.4991 18.5034 40.4106 18.3671C40.322 18.2309 40.2623 18.0779 40.2352 17.9177C40.208 17.7575 40.2139 17.5934 40.2526 17.4356C40.2913 17.2778 40.3619 17.1295 40.46 17C40.54 16.91 40.57 16.9 40.68 17ZM41.17 20.75C41.88 21.52 41.55 22.29 41.17 23.05C40.59 22 40.59 21.46 41.17 20.78V20.75ZM41.45 20.29C41.4455 20.2401 41.4455 20.1899 41.45 20.14C41.51 19.97 41.6 19.78 41.76 19.75C41.92 19.72 41.94 19.94 42.03 20.06C42.1732 20.2155 42.2591 20.4151 42.2736 20.626C42.2882 20.8368 42.2305 21.0463 42.11 21.22C42.04 21.33 42.01 21.46 41.94 21.6C41.768 21.4367 41.6348 21.237 41.55 21.0155C41.4652 20.794 41.431 20.5564 41.45 20.32V20.29ZM42.31 21.45C42.38 21.27 42.47 21.1 42.55 20.91C42.69 21.07 42.8 21.21 42.92 21.36C42.9635 21.4255 42.9924 21.4996 43.0049 21.5772C43.0173 21.6549 43.013 21.7343 42.9921 21.8101C42.9713 21.8859 42.9344 21.9564 42.884 22.0167C42.8336 22.0771 42.7709 22.1259 42.7 22.16H42.61C42.4944 22.0931 42.403 21.9912 42.349 21.869C42.2951 21.7467 42.2814 21.6105 42.31 21.48V21.45ZM42.31 19.97C42.2 20.05 42.19 19.97 42.15 19.92C42.0352 19.8163 41.946 19.6874 41.8894 19.5434C41.8329 19.3994 41.8105 19.2442 41.8241 19.0901C41.8377 18.936 41.8868 18.7872 41.9676 18.6553C42.0485 18.5234 42.1588 18.412 42.29 18.33C42.36 18.41 42.42 18.5 42.49 18.59C42.5832 18.6908 42.6524 18.8113 42.6924 18.9426C42.7325 19.0739 42.7423 19.2126 42.7211 19.3482C42.6999 19.4838 42.6484 19.6129 42.5702 19.7258C42.4921 19.8387 42.3895 19.9324 42.27 20L42.31 19.97ZM41.67 18.7C41.21 18.13 41.24 17.65 41.82 16.87C41.9459 16.997 42.0421 17.1502 42.1016 17.3188C42.1612 17.4874 42.1827 17.667 42.1645 17.8449C42.1463 18.0228 42.089 18.1944 41.9965 18.3474C41.9041 18.5005 41.7789 18.6311 41.63 18.73L41.67 18.7ZM41.67 15.81C41.787 15.6505 41.8501 15.4578 41.8501 15.26C41.8501 15.0622 41.787 14.8695 41.67 14.71C41.55 14.53 41.67 14.31 41.67 14.08C41.95 14.41 42.3 14.69 42.24 15.14C42.2113 15.3056 42.1358 15.4596 42.0224 15.5836C41.909 15.7077 41.7624 15.7966 41.6 15.84L41.67 15.81ZM40.73 14.75C40.6464 14.8815 40.602 15.0341 40.602 15.19C40.602 15.3459 40.6464 15.4985 40.73 15.63C40.73 15.7 40.83 15.76 40.73 15.84C40.6 15.73 40.47 15.62 40.35 15.5C40.2282 15.41 40.1464 15.276 40.1221 15.1265C40.0978 14.977 40.1329 14.8239 40.22 14.7C40.3511 14.4785 40.5127 14.2766 40.7 14.1C40.7558 14.2063 40.7816 14.3257 40.7745 14.4456C40.7675 14.5654 40.7279 14.681 40.66 14.78L40.73 14.75ZM40.17 15.53C40.3143 15.6201 40.4314 15.7477 40.5089 15.8992C40.5864 16.0506 40.6213 16.2203 40.61 16.39C40.6165 16.435 40.6127 16.4809 40.5988 16.5242C40.5849 16.5675 40.5614 16.6071 40.53 16.64C40.369 16.8085 40.2462 17.0097 40.17 17.23L39.98 17.02C39.8801 16.9265 39.8004 16.8134 39.746 16.6878C39.6915 16.5623 39.6634 16.4269 39.6634 16.29C39.6634 16.1531 39.6915 16.0177 39.746 15.8922C39.8004 15.7666 39.8801 15.6535 39.98 15.56C40 15.49 40 15.5 40.1 15.56L40.17 15.53ZM40.34 18.53C40.72 19.04 40.68 19.34 40.28 19.93C40.2 20.04 40.16 19.98 40.11 19.93C40.003 19.8508 39.9141 19.7496 39.8496 19.6332C39.785 19.5167 39.7462 19.3878 39.7358 19.2551C39.7254 19.1224 39.7436 18.9889 39.7891 18.8638C39.8347 18.7388 39.9066 18.6249 40 18.53L40.15 18.33C40.1835 18.4163 40.2236 18.4999 40.27 18.58L40.34 18.53ZM39.74 19.76C39.8519 19.9026 39.9127 20.0787 39.9127 20.26C39.9127 20.4413 39.8519 20.6174 39.74 20.76L39.49 21.15C39.379 20.9615 39.2917 20.7599 39.23 20.55C39.2035 20.3883 39.2222 20.2225 39.284 20.0707C39.3457 19.919 39.4482 19.7872 39.58 19.69C39.64 19.67 39.64 19.76 39.67 19.81L39.74 19.76ZM39.42 22.14H39.56C39.5652 22.163 39.5652 22.187 39.56 22.21C39.56 22.32 39.48 22.32 39.41 22.34C39.3276 22.3566 39.2496 22.3901 39.1808 22.4382C39.1119 22.4864 39.0538 22.5483 39.01 22.62C38.8 22.95 38.78 22.96 38.36 22.87C38.6103 22.5228 38.9585 22.2582 39.36 22.11L39.42 22.14ZM38.89 23.14C39.06 23.14 39.06 23.14 39.21 23.28C39.0881 23.2788 38.9676 23.3063 38.8581 23.3601C38.7487 23.4139 38.6535 23.4927 38.58 23.59C38.5434 23.6466 38.5239 23.7126 38.5239 23.78C38.5239 23.8474 38.5434 23.9134 38.58 23.97C38.66 24.11 38.79 24.08 38.92 24.07H39.05C38.94 24.34 38.78 24.45 38.56 24.41C38.5021 24.4171 38.4434 24.4118 38.3877 24.3944C38.332 24.377 38.2807 24.3479 38.2372 24.3091C38.1936 24.2703 38.1589 24.2227 38.1352 24.1694C38.1116 24.1161 38.0996 24.0583 38.1 24C38.1222 23.8029 38.2025 23.6168 38.3307 23.4655C38.4589 23.3141 38.6292 23.2043 38.82 23.15L38.89 23.14ZM38.74 26.6C39.3441 26.2474 39.8631 25.766 40.26 25.19C40.3041 25.1162 40.3704 25.0581 40.4493 25.024C40.5283 24.9899 40.616 24.9815 40.7 25C40.2433 25.7737 39.5961 26.4174 38.82 26.87C38.67 26.96 38.65 26.87 38.59 26.77C38.53 26.67 38.61 26.64 38.67 26.61L38.74 26.6ZM40.41 24.82C40.95 24.42 41.02 24.2 40.72 23.59C40.5993 23.41 40.5291 23.2009 40.5167 22.9846C40.5044 22.7682 40.5504 22.5525 40.65 22.36L40.73 22.26C40.8623 22.7165 41.0398 23.1587 41.26 23.58C41.4784 23.1533 41.6591 22.7082 41.8 22.25C41.9105 22.4033 41.9781 22.5833 41.9957 22.7714C42.0132 22.9595 41.9802 23.1489 41.9 23.32C41.8132 23.4818 41.7364 23.6488 41.67 23.82C41.52 24.29 41.61 24.5 42.13 24.82C41.7 24.92 41.49 24.67 41.26 24.44C41 24.69 40.75 25 40.34 24.83L40.41 24.82ZM42.41 23C42.2187 22.8315 42.066 22.6236 41.9624 22.3906C41.8589 22.1576 41.8069 21.905 41.81 21.65C42.1052 22.0763 42.5189 22.4066 43 22.6C43.17 22.6 43.32 22.81 43.28 22.97C43.24 23.13 43.04 23.21 42.85 23.21C42.6831 23.1941 42.5273 23.1197 42.41 23ZM42.77 22.34C42.86 22.16 42.97 22.15 43.14 22.23C43.487 22.4101 43.7828 22.675 44 23C43.59 23.09 43.53 23.08 43.35 22.75C43.17 22.42 43 22.47 42.77 22.36V22.34ZM42.9 21.18L42.59 20.69C42.5077 20.5427 42.4722 20.3739 42.4883 20.206C42.5044 20.038 42.5712 19.879 42.68 19.75C42.75 19.63 42.8 19.69 42.85 19.75C43.0028 19.8606 43.111 20.0222 43.155 20.2056C43.199 20.389 43.176 20.5821 43.09 20.75C43 20.9 43 21 42.9 21.2V21.18ZM42.73 18.63C42.16 18.02 42.19 17.53 42.86 16.86C43 17.07 43.15 17.27 43.3 17.47C43.3238 17.5092 43.3365 17.5541 43.3365 17.6C43.3365 17.6459 43.3238 17.6908 43.3 17.73C43.1924 18.0806 42.996 18.3975 42.73 18.65V18.63ZM43.34 17.29C43.0936 17.0707 42.943 16.7636 42.9206 16.4345C42.8982 16.1054 43.0057 15.7807 43.22 15.53C43.352 15.6336 43.4727 15.751 43.58 15.88C43.642 15.9885 43.6787 16.1096 43.6874 16.2343C43.696 16.359 43.6764 16.484 43.63 16.6C43.5763 16.852 43.4781 17.0924 43.34 17.31V17.29ZM42.82 15.84C42.56 15.17 42.04 14.63 42.43 13.9C42.5726 14.3865 42.7884 14.8484 43.07 15.27C43.17 15.47 42.93 15.62 42.82 15.86V15.84ZM42.37 13.17C42.2837 13.0144 42.2444 12.8371 42.2568 12.6596C42.2693 12.4821 42.3329 12.3121 42.44 12.17C42.5 12.06 42.57 12.17 42.62 12.17C42.7116 12.2683 42.7806 12.3855 42.8221 12.5134C42.8635 12.6412 42.8765 12.7766 42.86 12.91C42.8687 13.1704 42.8349 13.4305 42.76 13.68C42.62 13.55 42.48 13.38 42.37 13.19V13.17ZM42.64 15.87C42.7118 15.95 42.7657 16.0444 42.7984 16.1468C42.831 16.2493 42.8415 16.3574 42.8292 16.4642C42.8169 16.571 42.7821 16.674 42.7271 16.7664C42.6721 16.8587 42.5981 16.9384 42.51 17L42.25 17.3C42.1874 17.125 42.0998 16.96 41.99 16.81C41.8842 16.6839 41.8262 16.5246 41.8262 16.36C41.8262 16.1954 41.8842 16.0361 41.99 15.91C42.25 15.42 42.4 15.43 42.64 15.89V15.87ZM42.07 14.17C41.9456 13.9551 41.7944 13.7568 41.62 13.58C41.5365 13.4945 41.4805 13.3859 41.4591 13.2683C41.4378 13.1507 41.452 13.0295 41.5 12.92C41.6072 12.6624 41.7308 12.4118 41.87 12.17C42 12.83 42.55 13.43 42.07 14.19V14.17ZM40.87 13.05C40.8865 13.1323 40.8843 13.2173 40.8635 13.2987C40.8428 13.38 40.804 13.4557 40.75 13.52C40.6 13.73 40.42 13.93 40.26 14.13C40.1352 13.999 40.0539 13.8326 40.027 13.6537C40.0002 13.4748 40.0292 13.2919 40.11 13.13C40.21 12.79 40.34 12.45 40.46 12.13C40.6328 12.4263 40.7704 12.7418 40.87 13.07V13.05ZM40.2 12.25C40.1484 11.9786 40.0503 11.7181 39.91 11.48C39.7492 11.2385 39.6309 10.9713 39.56 10.69C39.7128 10.7426 39.8525 10.8273 39.9698 10.9384C40.087 11.0496 40.1791 11.1845 40.2397 11.3343C40.3004 11.484 40.3282 11.645 40.3214 11.8065C40.3145 11.9679 40.2731 12.1259 40.2 12.27V12.25ZM39.84 12.14C40.2 12.75 40.16 12.97 39.59 13.69C39.468 13.4405 39.4265 13.1593 39.4713 12.8852C39.5161 12.6111 39.6449 12.3577 39.84 12.16V12.14ZM39.55 15.8C39.21 15.42 39.21 15.39 39.44 15.03C39.6466 14.6713 39.8078 14.2884 39.92 13.89C40.32 14.65 39.79 15.19 39.55 15.82V15.8ZM39 17.31C38.51 16.42 38.54 16.11 39.11 15.54C39.3262 15.7911 39.4357 16.1167 39.4151 16.4474C39.3946 16.7781 39.2456 17.0876 39 17.31ZM39 17.48C39.15 17.29 39.29 17.08 39.44 16.87C40.11 17.64 40.12 17.87 39.58 18.66C39.286 18.4078 39.0679 18.0789 38.95 17.71C38.9422 17.665 38.9486 17.6187 38.9683 17.5774C38.988 17.5362 39.0201 17.5022 39.06 17.48H39ZM39 18.31C39.1335 18.3931 39.2456 18.5066 39.327 18.6412C39.4084 18.7758 39.4569 18.9277 39.4686 19.0845C39.4803 19.2414 39.4548 19.3988 39.3943 19.544C39.3337 19.6891 39.2397 19.818 39.12 19.92C39.0074 19.8203 38.916 19.699 38.8512 19.5633C38.7865 19.4275 38.7498 19.2801 38.7432 19.1299C38.7367 18.9796 38.7605 18.8296 38.8132 18.6887C38.8659 18.5479 38.9464 18.4191 39.05 18.31H39ZM39.09 21.62C39.09 21.62 39.09 21.69 39.09 21.73C39.09 21.77 39.25 22.02 39.21 22.06C39.0882 22.1631 38.9495 22.2443 38.8 22.3C38.5337 22.424 38.2507 22.5082 37.96 22.55C38.2818 22.1587 38.6843 21.8415 39.14 21.62H39.09ZM38.41 23.16C38.2553 23.2709 38.123 23.41 38.02 23.57C37.94 23.71 37.84 23.74 37.69 23.64C37.5826 23.5749 37.4686 23.5213 37.35 23.48C37.6635 23.2314 38.0623 23.1164 38.46 23.16H38.41ZM41.63 25C41.735 24.971 41.847 24.9801 41.9459 25.0259C42.0448 25.0717 42.1242 25.1511 42.17 25.25C42.5539 25.8123 43.0598 26.2806 43.65 26.62C43.71 26.62 43.83 26.62 43.74 26.79C43.65 26.96 43.62 26.95 43.48 26.87C42.7171 26.4107 42.0811 25.7678 41.63 25ZM43.4 24.1C43.58 24.1 43.8 24.19 43.85 23.94C43.8665 23.8398 43.8501 23.7369 43.8033 23.6467C43.7564 23.5566 43.6816 23.484 43.59 23.44C43.4528 23.3621 43.2978 23.3207 43.14 23.32C43.172 23.2762 43.2129 23.2398 43.2601 23.2132C43.3073 23.1866 43.3597 23.1703 43.4136 23.1656C43.4676 23.1609 43.522 23.1677 43.5731 23.1857C43.6242 23.2037 43.6709 23.2325 43.71 23.27C43.9027 23.3985 44.0552 23.5787 44.15 23.79C44.1819 23.8434 44.2019 23.9032 44.2084 23.9651C44.215 24.0269 44.2081 24.0895 44.1881 24.1485C44.1682 24.2074 44.1356 24.2613 44.0928 24.3065C44.05 24.3517 43.9978 24.387 43.94 24.41C43.73 24.48 43.53 24.38 43.4 24.08V24.1ZM44.12 23.39L43.92 23.18C44.3 23.09 44.59 23.32 44.92 23.5L44.83 23.55C44.41 23.72 44.41 23.72 44.12 23.37V23.39ZM44.45 23.93C44.8209 23.7115 45.2269 23.5593 45.65 23.48C45.79 23.48 45.83 23.6 45.86 23.69C45.89 23.78 45.77 23.81 45.69 23.82H45.36C45.18 23.82 45 23.82 45.05 24.08C44.66 23.95 44.63 23.97 44.39 24.33C44.3575 24.3027 44.3325 24.2675 44.3174 24.2279C44.3023 24.1882 44.2975 24.1454 44.3035 24.1034C44.3095 24.0613 44.3261 24.0215 44.3517 23.9877C44.3773 23.9539 44.4112 23.9271 44.45 23.91V23.93ZM45.75 19.71C45.8437 19.766 45.9197 19.8474 45.9692 19.9447C46.0188 20.042 46.0398 20.1513 46.03 20.26C46.0104 20.6029 46.0721 20.9455 46.21 21.26C46.3435 20.9944 46.3891 20.6932 46.34 20.4C46.3035 20.2708 46.3038 20.134 46.3409 20.0051C46.378 19.8761 46.4504 19.76 46.55 19.67C46.71 20.46 46.68 21.97 46.22 22.24C45.9027 21.4276 45.7431 20.5621 45.75 19.69V19.71ZM46.21 19.84C46.14 19.93 46.1 19.92 46.02 19.84C45.8045 19.5868 45.6749 19.2716 45.65 18.94C45.6041 19.294 45.4849 19.6346 45.3 19.94C45.2113 20.1024 45.0792 20.237 44.9186 20.3288C44.7579 20.4206 44.5749 20.466 44.39 20.46C44.6332 19.864 44.8369 19.2527 45 18.63C45.0937 18.4018 45.2218 18.1893 45.38 18C45.38 17.95 45.45 17.86 45.52 17.88C45.5593 17.8983 45.5936 17.9257 45.62 17.96C45.6346 17.9987 45.6346 18.0413 45.62 18.08C45.62 18.25 45.62 18.43 45.67 18.61V18.39C45.67 18.25 45.73 18.09 45.94 18.21H46.06C46.27 18 46.33 18.21 46.39 18.33C46.5033 18.5701 46.5466 18.8373 46.5147 19.1009C46.4829 19.3645 46.3772 19.6138 46.21 19.82V19.84ZM45 21.19C45.34 20.71 45.17 20.1 45.6 19.7C45.5976 20.5203 45.3503 21.3211 44.89 22C44.7622 21.8296 44.6921 21.6229 44.69 21.41C44.68 21.2235 44.68 21.0365 44.69 20.85C44.69 20.62 44.69 20.4 45.04 20.39C44.9857 20.653 44.9722 20.9229 45 21.19ZM45.6 23.29C45.38 23.29 45.17 23.5 45 23.41C44.61 23.19 44.11 23.09 43.9 22.58C44.49 22.78 45.16 22.7 45.61 23.29H45.6ZM43.11 22.12C43.04 22.12 43.04 22.04 43.11 21.98C43.1761 21.8695 43.2202 21.7473 43.24 21.62C43.6714 21.8483 44.0523 22.1612 44.36 22.54C43.9208 22.493 43.4974 22.3496 43.12 22.12H43.11ZM43.17 19.93C42.69 19.27 42.71 18.93 43.27 18.29C43.4576 18.5273 43.552 18.825 43.5355 19.127C43.5189 19.4291 43.3925 19.7147 43.18 19.93H43.17ZM43.43 17.47C43.4998 17.2518 43.5972 17.0434 43.72 16.85C43.81 16.97 44.02 17.04 43.96 17.15C43.9099 17.245 43.8352 17.3248 43.7437 17.3811C43.6523 17.4374 43.5474 17.4681 43.44 17.47H43.43ZM43.76 16.08C43.76 16.08 43.76 16 43.85 16.02C44.0586 16.0834 44.2814 16.0834 44.49 16.02C44.4592 16.3744 44.3462 16.7168 44.16 17.02C44.09 17.13 44.05 17.1 43.97 17.02C43.71 16.69 43.78 16.38 43.77 16.08H43.76ZM43.56 15.65C43.0165 15.1767 42.6615 14.5235 42.56 13.81C42.7837 14.1398 43.0418 14.4448 43.33 14.72C43.3922 14.7787 43.4591 14.8322 43.53 14.88C43.96 15.16 44.23 15.09 44.47 14.65C44.47 14.65 44.47 14.55 44.55 14.53C44.6767 14.6853 44.7459 14.8796 44.7459 15.08C44.7459 15.2804 44.6767 15.4747 44.55 15.63C44.4879 15.6972 44.4129 15.7513 44.3294 15.7888C44.246 15.8264 44.1558 15.8467 44.0643 15.8486C43.9727 15.8504 43.8818 15.8338 43.7969 15.7997C43.7119 15.7656 43.6348 15.7147 43.57 15.65H43.56ZM43 13.39C43.0915 13.6174 43.2314 13.8221 43.41 13.99C43.6031 14.142 43.8355 14.2356 44.08 14.26C44.0559 14.3236 44.0191 14.3815 43.9719 14.4304C43.9247 14.4792 43.8679 14.5179 43.8052 14.5442C43.7425 14.5704 43.6751 14.5835 43.6072 14.5828C43.5392 14.5821 43.4721 14.5675 43.41 14.54C43.2159 14.4285 43.068 14.2514 42.9929 14.0406C42.9177 13.8298 42.9203 13.5991 43 13.39ZM43.49 12.31C43.4328 12.5471 43.331 12.771 43.19 12.97C43.1976 12.8735 43.1976 12.7765 43.19 12.68C43.19 12.5 43.02 12.23 43.09 12.16C43.3131 11.8736 43.5797 11.624 43.88 11.42C43.99 11.35 44.09 11.42 44.21 11.42C44.0116 11.4706 43.8355 11.5853 43.7089 11.7462C43.5824 11.9071 43.5124 12.1053 43.51 12.31H43.49ZM42.59 12.01C42.45 11.83 42.44 11.71 42.59 11.55C42.7033 11.3847 42.8036 11.2108 42.89 11.03C43.01 10.81 43.09 10.81 43.25 11.03C43.25 11.03 43.35 11.03 43.44 11.09C43.0837 11.3098 42.7962 11.6251 42.61 12L42.59 12.01ZM42.14 12.29C42.0648 12.1483 42.0212 11.9919 42.0123 11.8317C42.0033 11.6716 42.0292 11.5113 42.0881 11.3621C42.1471 11.2129 42.2377 11.0782 42.3536 10.9674C42.4696 10.8565 42.6083 10.7721 42.76 10.72C42.69 11.29 42.21 11.69 42.16 12.29H42.14ZM41.35 11.66C41.3469 11.546 41.3709 11.4329 41.42 11.33C41.4583 11.2219 41.5238 11.1255 41.61 11.05C41.693 10.9727 41.792 10.9146 41.9 10.88C42.012 10.855 42.128 10.855 42.24 10.88C42.06 11.23 41.86 11.59 41.37 11.66H41.35ZM41.17 8.66C40.9416 8.68035 40.7113 8.66004 40.49 8.6C40.42 8.6 40.34 8.6 40.34 8.48C40.34 8.36 40.42 8.4 40.48 8.39C40.9379 8.29007 41.4121 8.29007 41.87 8.39C41.92 8.39 42 8.39 41.99 8.49C41.98 8.59 41.91 8.57 41.86 8.59C41.6411 8.64433 41.4146 8.66123 41.19 8.64L41.17 8.66ZM40.07 10.85C40.1847 10.8403 40.3002 10.8546 40.4092 10.8919C40.5181 10.9292 40.618 10.9888 40.7027 11.0669C40.7873 11.145 40.8548 11.2398 40.9008 11.3453C40.9469 11.4509 40.9704 11.5649 40.97 11.68C40.7606 11.6303 40.5684 11.5251 40.4135 11.3756C40.2587 11.226 40.147 11.0376 40.09 10.83L40.07 10.85ZM37.73 14.55C37.81 14.55 37.81 14.64 37.83 14.68C38.08 15.11 38.34 15.17 38.76 14.9C39.0773 14.6761 39.346 14.3904 39.55 14.06C39.6 13.98 39.66 13.91 39.71 13.84C39.63 14.5312 39.3034 15.1703 38.79 15.64C38.6939 15.7525 38.5628 15.8294 38.4177 15.8584C38.2726 15.8874 38.122 15.8669 37.99 15.8C37.8459 15.7205 37.7283 15.6004 37.6518 15.4546C37.5754 15.3088 37.5434 15.1438 37.56 14.98C37.5563 14.8956 37.5715 14.8114 37.6044 14.7336C37.6372 14.6558 37.687 14.5862 37.75 14.53L37.73 14.55ZM38.44 16.05C38.56 16.05 38.52 16.12 38.53 16.17C38.5815 16.4487 38.5204 16.7364 38.36 16.97C38.64 16.91 38.7 16.97 38.87 17.46C38.7494 17.4741 38.6281 17.44 38.5326 17.3651C38.437 17.2901 38.375 17.1805 38.36 17.06V17C37.96 16.95 38.04 16.56 37.89 16.33C37.8303 16.2274 37.809 16.1069 37.83 15.99C38.0361 16.0445 38.2523 16.048 38.46 16L38.44 16.05ZM37.54 19.19C37.6499 19.6085 37.8041 20.0142 38 20.4C37.8751 20.4301 37.7449 20.4301 37.62 20.4C37.4981 20.3517 37.3887 20.2765 37.3 20.18C37.0592 19.8946 36.8871 19.5578 36.7969 19.1955C36.7068 18.8331 36.701 18.4549 36.78 18.09C36.7706 18.0573 36.7706 18.0227 36.78 17.99C36.807 17.961 36.8417 17.9402 36.88 17.93C36.96 17.93 36.98 18 37.02 18.05C37.2814 18.3783 37.4659 18.761 37.56 19.17L37.54 19.19ZM36.68 23.48C37.0706 23.5639 37.4476 23.7019 37.8 23.89C38.01 24.02 38.03 24.12 37.91 24.33C37.81 24.06 37.64 23.91 37.34 24.04H37.27C37.27 23.76 37.04 23.86 36.89 23.84C36.74 23.82 36.72 23.84 36.63 23.84C36.54 23.84 36.42 23.84 36.46 23.72C36.5 23.6 36.54 23.42 36.7 23.46L36.68 23.48ZM36.32 19.81C36.3147 19.8191 36.312 19.8295 36.312 19.84C36.312 19.8505 36.3147 19.8609 36.32 19.87C36.46 19.95 36.44 19.73 36.58 19.75C36.5802 20.6202 36.4139 21.4823 36.09 22.29C35.6933 21.4631 35.574 20.5301 35.75 19.63C35.8545 19.7077 35.9333 19.8151 35.9761 19.9381C36.0189 20.0611 36.0237 20.1942 35.99 20.32C35.9296 20.6349 35.9716 20.9608 36.11 21.25C36.2804 20.811 36.3521 20.3398 36.32 19.87C36.3005 19.8825 36.2786 19.8909 36.2558 19.8946C36.2329 19.8984 36.2095 19.8974 36.1871 19.8918C36.1646 19.8862 36.1435 19.876 36.1251 19.8619C36.1067 19.8479 36.0913 19.8302 36.08 19.81C35.8991 19.5967 35.7862 19.3341 35.7559 19.0561C35.7256 18.778 35.7793 18.4973 35.91 18.25C35.96 18.15 36.01 18.01 36.16 18.17C36.1788 18.1873 36.2009 18.2007 36.2249 18.2093C36.249 18.2179 36.2745 18.2215 36.3 18.22C36.57 18.09 36.56 18.31 36.58 18.45C36.6502 18.6763 36.665 18.9161 36.6232 19.1492C36.5814 19.3824 36.4843 19.6022 36.34 19.79L36.32 19.81ZM32.55 17.21C32.37 17.21 32.14 17.21 32.06 17.05C31.98 16.89 32.15 16.73 32.26 16.59C32.5732 16.2846 32.9926 16.1126 33.43 16.11C33.6847 16.0651 33.9453 16.0651 34.2 16.11C34.0872 16.4512 33.8635 16.7448 33.5645 16.9442C33.2654 17.1435 32.9083 17.2371 32.55 17.21ZM31.72 15.86C31.54 15.75 31.56 15.66 31.72 15.54C31.9365 15.3269 32.2159 15.1894 32.5168 15.1479C32.8178 15.1065 33.124 15.1633 33.39 15.31C33.58 15.4 33.62 15.67 33.82 15.83C33.5027 16.017 33.1422 16.1181 32.774 16.1233C32.4057 16.1286 32.0425 16.0378 31.72 15.86ZM31.55 15.16C30.6742 14.9202 29.758 14.8657 28.86 15C29.3136 15.1343 29.7791 15.2247 30.25 15.27C30.7 15.33 31.15 15.35 31.6 15.39C31.5792 15.4648 31.5327 15.5298 31.4687 15.5737C31.4047 15.6176 31.3272 15.6375 31.25 15.63C30.3296 15.7166 29.4018 15.683 28.49 15.53C27.6358 15.3334 26.8276 14.9734 26.11 14.47C28.1299 14.183 30.1892 14.3924 32.11 15.08C32.0308 15.1392 31.9381 15.1775 31.8402 15.1915C31.7424 15.2055 31.6426 15.1946 31.55 15.16ZM26.74 16.85H26.67C28.1 15.85 29.78 16 31.39 15.85C31.4417 15.8489 31.4929 15.8613 31.5384 15.8858C31.584 15.9103 31.6224 15.9462 31.65 15.99C30.8844 16.0117 30.1262 16.1465 29.4 16.39C29.5925 16.4151 29.7875 16.4151 29.98 16.39C30.18 16.39 30.39 16.39 30.59 16.39C31.0056 16.3524 31.4171 16.2788 31.82 16.17C32.04 16.11 32.21 16.25 32.4 16.27C32.14 16.68 31.69 16.68 31.29 16.74C30.0164 16.9914 28.7158 17.0787 27.42 17C27.19 16.94 27 16.89 26.74 16.85ZM27.74 18.85C27.74 18.74 27.74 18.67 27.83 18.6C28.0758 18.221 28.394 17.8942 28.7664 17.6385C29.1388 17.3829 29.558 17.2032 30 17.11C30.58 16.99 31.17 16.91 31.76 16.81H31.9V16.87C31.1236 17.1075 30.3809 17.4436 29.69 17.87C30.2202 17.8379 30.7427 17.7266 31.24 17.54L31.48 17.45C31.6174 17.3726 31.77 17.3262 31.9272 17.3141C32.0845 17.3021 32.2424 17.3245 32.39 17.38C32.39 17.46 32.31 17.45 32.26 17.46C31.53 17.7186 30.8154 18.0191 30.12 18.36C29.5312 18.6508 28.8939 18.8304 28.24 18.89C28.0682 18.891 27.8969 18.8709 27.73 18.83L27.74 18.85ZM29 20.13C29.1269 19.7288 29.3355 19.3583 29.6126 19.0416C29.8896 18.725 30.2292 18.4691 30.61 18.29C31.31 17.98 32.03 17.71 32.75 17.45C32.75 17.62 32.63 17.6 32.55 17.64C32.0604 17.8154 31.6039 18.0723 31.2 18.4C31.0022 18.5593 30.8302 18.7482 30.69 18.96C31.3767 18.6667 32.0195 18.2796 32.6 17.81C32.6287 17.778 32.6625 17.751 32.7 17.73C32.7 17.73 32.77 17.65 32.82 17.73C32.87 17.81 32.82 17.82 32.82 17.86C32.06 18.49 31.37 19.22 30.57 19.8C30.1366 20.096 29.6248 20.2562 29.1 20.26C29 20.29 29 20.27 29 20.13ZM30.85 21.25C30.54 21.32 30.53 21.31 30.58 21C30.7714 20.1298 31.277 19.3607 32 18.84C32.28 18.6 32.57 18.38 32.84 18.14C32.9016 18.0629 32.9864 18.0076 33.0819 17.9824C33.1773 17.9572 33.2783 17.9634 33.37 18C33.4587 18.0216 33.5513 18.0216 33.64 18C33.6277 18.0788 33.5956 18.1533 33.5466 18.2162C33.4976 18.2792 33.4334 18.3287 33.36 18.36C32.7942 18.6351 32.2932 19.0271 31.89 19.51C31.8244 19.5892 31.7643 19.6727 31.71 19.76V19.86C32.4007 19.4964 33.0232 19.016 33.55 18.44C33.5731 18.4721 33.5897 18.5085 33.5987 18.547C33.6077 18.5856 33.6089 18.6255 33.6024 18.6646C33.5959 18.7036 33.5818 18.741 33.5607 18.7745C33.5397 18.8081 33.5123 18.8371 33.48 18.86C33.0396 19.3201 32.6413 19.8188 32.29 20.35C31.9584 20.821 31.4561 21.1439 30.89 21.25H30.85ZM33.25 27C33.148 26.7595 32.9944 26.5444 32.8 26.37C32.4734 26.0107 32.2579 25.5644 32.1798 25.0852C32.1017 24.606 32.1643 24.1144 32.36 23.67C32.5302 23.3385 32.6225 22.9726 32.63 22.6C32.9421 23.1643 33.4625 23.5842 34.08 23.77C33.4 23.96 33.2 24.5 33.08 25.09C33.2312 24.8813 33.4345 24.716 33.6697 24.6107C33.9049 24.5054 34.1637 24.4638 34.42 24.49C34.6802 24.5094 34.9291 24.6038 35.1368 24.7618C35.3444 24.9197 35.5018 25.1345 35.59 25.38C35.69 25.62 35.49 25.78 35.41 25.99C35.4144 25.7963 35.3721 25.6043 35.2869 25.4303C35.2016 25.2563 35.0758 25.1053 34.92 24.99C34.7145 24.8493 34.4688 24.7791 34.22 24.79C33.9728 24.8141 33.7407 24.9196 33.56 25.09C33.3677 25.2503 33.2426 25.4769 33.2092 25.725C33.1759 25.9731 33.2368 26.2246 33.38 26.43C33.43 26.51 33.47 26.61 33.59 26.62C33.7 26.82 33.9 26.81 34.08 26.82H34.31C34.3426 26.81 34.3774 26.81 34.41 26.82C34.4176 26.8495 34.4176 26.8805 34.41 26.91V27.05H33.41C33.4067 27.0605 33.4014 27.0703 33.3943 27.0787C33.3873 27.0872 33.3786 27.0941 33.3689 27.0992C33.3591 27.1044 33.3485 27.1075 33.3375 27.1085C33.3266 27.1095 33.3155 27.1083 33.305 27.105C33.2945 27.1017 33.2847 27.0964 33.2763 27.0893C33.2678 27.0823 33.2609 27.0736 33.2558 27.0639C33.2506 27.0541 33.2475 27.0435 33.2465 27.0325C33.2455 27.0216 33.2467 27.0105 33.25 27ZM33.47 27.76C33.39 27.66 33.3 27.56 33.33 27.42C33.36 27.28 33.5 27.27 33.61 27.25C33.72 27.23 34.04 27.25 34.25 27.25C34.46 27.25 34.4 27.25 34.42 27.36C34.4282 27.3962 34.4282 27.4338 34.42 27.47L34.33 27.54L33.81 27.82C33.67 27.79 33.56 27.83 33.47 27.73V27.76ZM35.12 28.07C34.9745 28.1299 34.8239 28.1768 34.67 28.21C34.5 27.98 34.28 28.28 34.08 28.16C33.88 28.04 33.83 27.94 34 27.79C34.1352 27.6622 34.2951 27.5635 34.47 27.5C34.62 27.44 34.78 27.38 34.8 27.64C34.82 27.9 34.9 27.7 34.95 27.64C35 27.58 35.28 27.46 35.37 27.64C35.46 27.82 35.28 28 35.12 28V28.07ZM35.7 27.66C35.55 27.66 35.49 27.6 35.5 27.46C35.51 27.32 35.62 27.37 35.7 27.37C36.3575 27.338 37.0073 27.2135 37.63 27C37.6719 26.9772 37.7184 26.964 37.766 26.9614C37.8136 26.9588 37.8613 26.967 37.9054 26.9852C37.9495 27.0034 37.9889 27.0312 38.0209 27.0667C38.0528 27.1021 38.0764 27.1443 38.09 27.19C37.3184 27.45 36.5136 27.5982 35.7 27.63V27.66ZM40.94 29.49C40.78 29.76 40.63 30.03 40.46 30.31L39.72 29.31C39.65 29.21 39.66 29.2 39.89 28.89L40.42 29.61L40.82 28.92C41.08 29.11 41.09 29.18 40.94 29.46V29.49ZM40.44 27.83C40.09 28.35 39.76 28.83 39.44 29.34C39.39 29.42 39.44 29.47 39.44 29.51L39.65 29.65L38.65 30.04V29H38.71C38.92 29.19 39.03 29.13 39.17 28.9C39.56 28.26 39.99 27.65 40.42 27L41.84 29.54L42.03 29.3C42.83 28.19 43.62 27.07 44.43 25.96C44.58 25.76 44.68 25.61 44.31 25.47C44.63 25.35 44.89 25.26 45.15 25.15C45.41 25.04 45.31 25.15 45.31 25.27C45.31 25.39 45.31 25.82 45.31 26.1C45.31 26.1 45.26 26.1 45.25 26.1C44.95 25.93 44.95 25.93 44.75 26.21L41.82 30.27L40.44 27.83ZM43.64 30.03L42.64 29.66C42.78 29.53 43.02 29.48 42.83 29.22C42.83 29.16 42.93 28.98 43.03 28.93C43.13 28.88 43.15 29.02 43.19 29.09C43.23 29.16 43.32 29.21 43.41 29.09C43.5 28.97 43.51 29 43.6 29L43.64 30.03ZM46.64 27.66C46.3589 27.6599 46.0782 27.6399 45.8 27.6C45.2682 27.5159 44.7434 27.3922 44.23 27.23C44.2358 27.1781 44.2546 27.1286 44.2846 27.0859C44.3146 27.0432 44.355 27.0088 44.4018 26.9859C44.4487 26.963 44.5006 26.9522 44.5527 26.9547C44.6048 26.9572 44.6555 26.9727 44.7 27C45.347 27.2058 46.0211 27.3136 46.7 27.32C46.78 27.32 46.88 27.32 46.88 27.42C46.88 27.52 46.8 27.63 46.66 27.63L46.64 27.66ZM49 27.51C48.94 27.73 48.8 27.83 48.61 27.77C48.42 27.71 48.43 27.64 48.29 27.68C48.39 27.79 48.58 27.86 48.45 28.04C48.3827 28.1075 48.2939 28.1494 48.199 28.1585C48.1041 28.1677 48.009 28.1434 47.93 28.09C47.86 28.04 47.83 27.94 47.72 27.93C47.67 28.01 47.84 28.06 47.72 28.14C47.6 28.22 47.56 28.14 47.47 28.14C47.3727 28.1325 47.2783 28.1034 47.1936 28.055C47.1088 28.0066 47.0359 27.94 46.98 27.86C46.92 27.76 46.86 27.66 46.98 27.58C47.1 27.5 47.07 27.53 46.98 27.49C46.89 27.45 46.98 27.29 47.06 27.16C46.72 27.28 46.7 27.04 46.63 26.83C46.4145 26.1034 46.0189 25.4429 45.48 24.91C45.2488 24.6921 44.9721 24.5282 44.67 24.43C44.6 24.43 44.44 24.43 44.48 24.3C44.4877 24.2665 44.5026 24.2351 44.5235 24.2079C44.5444 24.1806 44.5709 24.1582 44.6012 24.1421C44.6316 24.1259 44.665 24.1165 44.6993 24.1144C44.7336 24.1124 44.7679 24.1177 44.8 24.13L45.09 24.27C45.09 24.17 45.01 24 45.17 23.97C45.2596 23.941 45.356 23.9408 45.4457 23.9695C45.5354 23.9982 45.6139 24.0544 45.67 24.13C46.0279 24.6429 46.3296 25.1927 46.57 25.77C46.64 25.94 46.71 26.1 46.79 26.26C46.99 26.62 47.16 26.66 47.51 26.43C47.6438 26.3061 47.8158 26.2317 47.9977 26.2189C48.1795 26.2062 48.3603 26.256 48.51 26.36C48.6 26.41 48.74 26.45 48.7 26.59C48.66 26.73 48.54 26.71 48.42 26.71C48.0287 26.7186 47.6504 26.8517 47.34 27.09C47.45 27.17 47.62 27.03 47.68 27.19C47.74 27.35 47.56 27.36 47.53 27.47C47.6798 27.4586 47.8288 27.5012 47.95 27.59C47.95 27.51 47.95 27.5 47.95 27.48C47.95 27.46 47.85 27.37 47.88 27.3C47.91 27.23 47.98 27.22 48.05 27.22C48.2818 27.2185 48.5132 27.242 48.74 27.29C48.94 27.26 49.05 27.33 49 27.51ZM49.5 26.39C49.36 26.58 49.16 26.72 49.1 26.97C49.1 27.05 49.04 27.06 48.97 27.06H48.13C48.04 27.06 47.94 27.06 47.94 26.94C47.94 26.82 48.03 26.79 48.14 26.79C48.75 26.79 49.07 26.54 49.14 26C49.1656 25.7462 49.1031 25.4913 48.9628 25.2782C48.8226 25.0651 48.6132 24.9068 48.37 24.83C48.2058 24.7897 48.0342 24.7897 47.87 24.83C47.7066 24.8611 47.5526 24.9296 47.42 25.03C47.2878 25.1287 47.1786 25.255 47.1 25.4C47.0285 25.55 46.9909 25.7139 46.99 25.88C46.9964 25.9197 46.9998 25.9598 47 26C46.9 25.76 46.68 25.55 46.85 25.24C46.9517 25.0368 47.1014 24.8614 47.2861 24.729C47.4708 24.5966 47.6849 24.5111 47.91 24.48C48.1674 24.4449 48.4295 24.4781 48.67 24.5765C48.9105 24.6748 49.1209 24.8346 49.28 25.04C49.2421 24.7582 49.1293 24.4918 48.9534 24.2684C48.7775 24.0451 48.545 23.873 48.28 23.77C48.847 23.6224 49.3367 23.265 49.65 22.77C49.8917 23.3937 50.0693 24.0403 50.18 24.7C50.1491 25.3255 49.9057 25.9217 49.49 26.39H49.5ZM51.59 21.28C51.0442 21.2077 50.5487 20.924 50.21 20.49C49.7929 19.9016 49.3387 19.3404 48.85 18.81C48.74 18.7 48.85 18.59 48.8 18.41C49.3528 19.0099 50.0016 19.5135 50.72 19.9C50.5176 19.5313 50.2379 19.2106 49.9 18.96C49.6279 18.7314 49.3291 18.5366 49.01 18.38C48.9402 18.3532 48.8786 18.3087 48.8312 18.2508C48.7839 18.193 48.7524 18.1237 48.74 18.05C48.911 17.9816 49.0991 17.968 49.2782 18.0109C49.4573 18.0539 49.6186 18.1514 49.74 18.29C50.237 18.7004 50.7017 19.1484 51.13 19.63C51.4734 20.0639 51.6944 20.5818 51.77 21.13C51.78 21.3 51.7 21.29 51.58 21.28H51.59ZM53.21 20.28C52.6175 20.2821 52.0421 20.0809 51.58 19.71C50.88 19.12 50.2 18.51 49.51 17.9C49.51 17.9 49.39 17.83 49.46 17.76C49.53 17.69 49.58 17.76 49.63 17.76C50.178 18.2488 50.7863 18.6655 51.44 19L51.59 19.05V19C51.044 18.3247 50.3095 17.827 49.48 17.57C49.58 17.47 49.62 17.57 49.67 17.57C50.36 17.82 51.04 18.08 51.67 18.38C52.0403 18.5601 52.3704 18.8133 52.6402 19.1244C52.91 19.4354 53.114 19.7979 53.24 20.19C53.37 20.27 53.32 20.29 53.2 20.28H53.21ZM52.48 18.43C51.649 18.0355 50.7978 17.685 49.93 17.38C50.33 17.19 50.33 17.19 50.7 17.38C51.2907 17.646 51.9238 17.8051 52.57 17.85C51.8996 17.4316 51.181 17.0958 50.43 16.85C50.5458 16.8053 50.6742 16.8053 50.79 16.85L51.17 16.91C51.7965 16.9729 52.4139 17.1071 53.01 17.31C53.737 17.6023 54.3385 18.1401 54.71 18.83C53.9406 18.9101 53.1641 18.7715 52.47 18.43H52.48ZM55 17C53.4639 17.1058 51.9207 16.9845 50.42 16.64C50.2369 16.5838 50.0737 16.4762 49.95 16.33C50.41 16.04 50.84 16.33 51.27 16.33C51.8359 16.4148 52.4096 16.4349 52.98 16.39C52.2585 16.1417 51.5029 16.0067 50.74 15.99C50.7656 15.9375 50.8081 15.8951 50.8607 15.8697C50.9133 15.8443 50.973 15.8374 51.03 15.85C51.86 15.9 52.69 15.93 53.51 16C54.2955 16.1119 55.0504 16.3806 55.73 16.79C55.5039 16.91 55.2553 16.9815 55 17ZM53.15 15.69C52.4372 15.73 51.7228 15.73 51.01 15.69C50.84 15.69 50.78 15.57 50.7 15.44C51.6322 15.3837 52.5566 15.2364 53.46 15C52.7434 14.8608 52.0066 14.8608 51.29 15C51.1 15 50.92 15.07 50.74 15.12C50.6536 15.155 50.559 15.1651 50.4672 15.1492C50.3753 15.1333 50.2897 15.092 50.22 15.03C52.1698 14.3483 54.2528 14.1359 56.3 14.41C55.371 15.073 54.2922 15.4956 53.16 15.64L53.15 15.69ZM55.43 13.26C54.7144 13.7235 53.9167 14.046 53.08 14.21C52.13 14.45 51.15 14.63 50.21 14.93C50.21 14.93 50.12 15.01 50.09 14.93C50.06 14.85 50.28 14.84 50.27 14.7C50.22 14.7 50.19 14.7 50.16 14.7C49.8997 14.9247 49.5802 15.0696 49.2397 15.1175C48.8992 15.1654 48.5522 15.1142 48.24 14.97C48.4222 14.7914 48.5593 14.572 48.64 14.33C48.64 14.24 48.73 14.23 48.81 14.24C49.0536 14.295 49.3064 14.295 49.55 14.24C49.6985 14.2098 49.8515 14.2098 50 14.24C50.34 14.24 50.37 14.35 50.24 14.66C50.24 14.66 50.24 14.72 50.24 14.73C50.34 14.41 50.6 14.37 50.89 14.33C51.622 14.1841 52.3315 13.942 53 13.61L53.38 13.41C53.0423 13.3934 52.7042 13.4339 52.38 13.53C51.8085 13.6638 51.2471 13.8376 50.7 14.05C50.6137 14.101 50.5153 14.1279 50.415 14.1279C50.3147 14.1279 50.2163 14.101 50.13 14.05C50.05 14 49.94 13.99 49.84 13.94C52 13.17 54 12.25 56.3 12.27C56.1012 12.6537 55.8045 12.978 55.44 13.21L55.43 13.26ZM48.22 13.83C48.9004 13.1929 49.7398 12.7507 50.65 12.55C50.4833 13.0672 50.1665 13.5232 49.74 13.86C49.5078 13.9951 49.2413 14.0594 48.9731 14.0452C48.7048 14.031 48.4466 13.9388 48.23 13.78L48.22 13.83ZM55.08 8.99C55.1626 9.45003 55.127 9.9235 54.9766 10.366C54.8262 10.8085 54.5658 11.2056 54.22 11.52C53.1831 12.4365 51.9418 13.0914 50.6 13.43H50.37C50.4107 13.3256 50.4719 13.2304 50.55 13.15C50.623 13.0678 50.716 13.0058 50.82 12.97C51.7719 12.5556 52.6371 11.9653 53.37 11.23L53.54 11.04L53.68 10.85C53.3793 10.9576 53.0962 11.1093 52.84 11.3L50.73 12.86C50.7274 12.7316 50.7529 12.6042 50.8047 12.4868C50.8565 12.3693 50.9334 12.2646 51.03 12.18C51.75 11.59 52.4 10.93 53.08 10.3C53.5208 9.88898 53.9997 9.52067 54.51 9.2C54.6833 9.0742 54.8808 8.98567 55.09 8.94L55.08 8.99ZM50.14 11.48C50.1071 11.2609 50.1312 11.0371 50.21 10.83C50.9577 9.36322 51.9407 8.02887 53.12 6.88L53.37 6.65C53.545 7.19497 53.5937 7.77265 53.5123 8.33922C53.4308 8.9058 53.2214 9.44639 52.9 9.92C52.2231 10.8906 51.3596 11.7167 50.36 12.35C50.1181 12.5078 49.8509 12.6228 49.57 12.69C49.8066 12.4177 49.9807 12.0968 50.08 11.75C50.08 11.64 50.19 11.59 50.27 11.53C50.9973 10.9994 51.6266 10.3464 52.13 9.6C52.2594 9.40073 52.3541 9.18095 52.41 8.95C51.5702 9.69356 50.8126 10.525 50.15 11.43L50.14 11.48ZM49 11.33C49.2136 11.0651 49.4881 10.8559 49.8 10.72C49.92 10.67 50 10.67 50.01 10.83C50.0969 11.3262 49.9933 11.8369 49.72 12.26C49.3314 12.7933 48.8204 13.2254 48.23 13.52C48.23 13.52 48.12 13.6 48.05 13.52V13.47C48.2158 13.2698 48.3323 13.0334 48.39 12.78C48.4953 12.2611 48.7027 11.7682 49 11.33ZM47.34 14.16C47.6367 14.0351 47.9592 13.9836 48.28 14.01C48.56 14.01 48.58 14.08 48.49 14.35C48.3672 14.6613 48.1315 14.9148 47.83 15.06C48.0605 15.0608 48.2885 15.1084 48.5 15.2C48.67 15.28 48.84 15.36 48.66 15.59C48.4234 15.8209 48.118 15.9683 47.79 16.01C47.9901 16.1815 48.1476 16.3972 48.25 16.64C48.3 16.8 48.25 16.89 48.09 16.91C47.8057 16.9413 47.5183 16.8928 47.26 16.77C47.39 17.0087 47.4523 17.2784 47.44 17.55C47.37 17.94 47.28 17.99 46.91 17.83C46.6859 17.7289 46.4927 17.5702 46.35 17.37C46.28 17.54 46.3 17.7 46.23 17.84C46.16 17.98 46.04 18.09 45.82 17.97C45.6771 17.8762 45.5491 17.7616 45.44 17.63C45.3161 17.8329 45.1303 17.9906 44.91 18.08C44.77 18.08 44.7 18.08 44.67 17.97V17.87C44.62 17.71 44.74 17.47 44.67 17.39C44.6 17.31 44.36 17.39 44.21 17.29C44.21 17.44 44.36 17.46 44.45 17.47C44.54 17.48 44.63 17.57 44.62 17.69C44.6102 17.7597 44.6102 17.8303 44.62 17.9C44.68 18.22 44.74 18.26 45.08 18.2H45.15C44.9592 18.3801 44.8357 18.62 44.8 18.88C44.7483 19.2326 44.6295 19.5721 44.45 19.88C44.19 19.32 43.94 18.79 43.7 18.26C43.6352 18.0721 43.6352 17.8679 43.7 17.68C43.76 17.43 44.01 17.37 44.2 17.26C44.28 16.97 44.5 16.75 44.6 16.46C44.6 16.38 44.72 16.46 44.78 16.46C45.1989 16.5749 45.6411 16.5749 46.06 16.46C46.54 16.34 46.67 16.12 46.54 15.66C46.4385 15.3468 46.3114 15.0424 46.16 14.75C46.0997 14.6466 46.0606 14.5321 46.045 14.4134C46.0295 14.2947 46.0378 14.174 46.0695 14.0586C46.1011 13.9431 46.1555 13.8351 46.2294 13.7409C46.3034 13.6467 46.3954 13.5682 46.5 13.51C47.2884 13.0194 47.9334 12.3295 48.37 11.51C48.4744 12.005 48.4316 12.5198 48.2467 12.9907C48.0619 13.4616 47.7432 13.8681 47.33 14.16H47.34ZM47.61 9.45C47.4473 9.42992 47.2827 9.42992 47.12 9.45C47 9.45 47.05 9.27 47.03 9.17C47.01 9.07 47.1 8.97 47.23 9.05C47.3844 9.15084 47.5115 9.28824 47.6 9.45H47.61ZM46.89 7.87C47.01 7.87 47.22 7.87 47.2 8.12C47.1888 8.28827 47.141 8.45208 47.06 8.6C46.9404 8.82351 46.8916 9.0781 46.92 9.33C46.9508 9.60256 46.8795 9.87686 46.72 10.1C46.66 9.88 46.61 9.68 46.55 9.48C46.5011 9.32741 46.483 9.16662 46.4967 9.00698C46.5104 8.84733 46.5557 8.692 46.63 8.55C46.7103 8.39232 46.7675 8.22394 46.8 8.05C46.8 8 46.74 7.84 46.88 7.87H46.89ZM46.3 7.5C46.45 7.61 46.78 7.69 46.63 7.91C46.48 8.13 46.27 7.91 46.1 7.78C45.93 7.65 45.8 7.51 45.57 7.44C45.6797 7.36879 45.8099 7.33604 45.9403 7.3469C46.0706 7.35776 46.1936 7.41162 46.29 7.5H46.3ZM45.52 7.5C45.5835 7.73843 45.6921 7.96248 45.84 8.16C45.9278 8.29391 45.9984 8.43839 46.05 8.59C46.16 8.97 46.05 9.2 45.56 9.29C45.6471 9.19426 45.6954 9.06946 45.6954 8.94C45.6954 8.81054 45.6471 8.68574 45.56 8.59C45.47 8.46 45.42 8.31 45.34 8.17C45.279 8.05737 45.2627 7.92594 45.2942 7.80181C45.3257 7.67768 45.4027 7.56994 45.51 7.5H45.52ZM45.3 9.67C45.285 9.76731 45.2496 9.86036 45.1962 9.94307C45.1428 10.0258 45.0725 10.0963 44.99 10.15C44.99 10.15 44.89 10.15 44.91 10.15C44.93 10.15 44.97 9.81 45.05 9.65C45.13 9.49 45.13 9.65 45.17 9.65C45.21 9.65 45.29 9.59 45.3 9.67ZM44.93 8.38C45.06 8.38 45.12 8.46 45.07 8.57C44.9755 8.78422 44.8545 8.98578 44.71 9.17C44.71 9.22 44.62 9.17 44.56 9.17C44.5 9.17 44.4 9.17 44.43 9.04C44.46 8.91 44.5 8.73 44.55 8.57C44.6 8.41 44.75 8.37 44.93 8.38ZM44.25 9C44.16 8.83 44.09 8.7 44.03 8.56C43.97 8.42 43.97 8.39 44.03 8.34C44.0781 8.30111 44.1381 8.27993 44.2 8.28C44.2558 8.2656 44.3142 8.2656 44.37 8.28C44.47 8.34 44.45 8.43 44.37 8.52L44.25 9ZM44 7.62C44.12 7.62 44.17 7.57 44.15 7.47C44.15 7.37 44.2 7.35 44.27 7.36C44.34 7.37 44.39 7.36 44.38 7.43C44.37 7.5 44.38 7.64 44.57 7.63C44.76 7.62 44.63 7.63 44.64 7.73C44.65 7.83 44.64 7.83 44.57 7.82C44.36 7.82 44.37 7.92 44.38 8.06C44.39 8.2 44.38 8.17 44.28 8.17C44.18 8.17 44.14 8.17 44.15 8.06C44.16 7.95 44.15 7.79 43.95 7.82C43.88 7.82 43.89 7.75 43.89 7.7C43.89 7.65 43.94 7.61 44 7.62ZM43.53 8.39C43.65 8.3 43.91 8.39 43.97 8.59C44.03 8.79 44.07 8.97 44.12 9.17C44.0828 9.19138 44.0412 9.20394 43.9984 9.2067C43.9556 9.20947 43.9128 9.20236 43.8731 9.18593C43.8335 9.16951 43.7982 9.1442 43.7699 9.11196C43.7416 9.07972 43.7211 9.04142 43.71 9C43.66 8.92 43.6 8.84 43.55 8.75C43.5 8.66 43.36 8.51 43.53 8.39ZM44.67 9.53C44.3326 9.52808 43.9967 9.48442 43.67 9.4C44.0142 9.30976 44.3758 9.30976 44.72 9.4C44.7648 9.4336 44.801 9.47748 44.8253 9.52794C44.8497 9.57841 44.8616 9.63398 44.86 9.69C44.8305 10.0028 44.7277 10.3043 44.56 10.57C44.86 10.36 45.29 10.35 45.49 10.02C45.69 9.69 45.83 9.83 46.02 9.86C46.119 9.87428 46.2097 9.92342 46.2756 9.99858C46.3416 10.0737 46.3786 10.17 46.38 10.27C46.3949 10.4218 46.356 10.574 46.27 10.7C46.17 10.84 46.08 10.94 45.88 10.81C45.7836 10.7484 45.6739 10.7107 45.56 10.7C45.4428 10.6971 45.3265 10.7211 45.22 10.77C45.0723 10.857 44.8962 10.8822 44.73 10.84C44.7154 10.8153 44.6947 10.7946 44.67 10.78C44.6845 10.7866 44.6973 10.7963 44.7077 10.8084C44.718 10.8205 44.7257 10.8347 44.73 10.85C45.19 11.12 45.26 11.35 45.02 11.85C44.9329 11.655 44.7932 11.488 44.6166 11.3679C44.44 11.2478 44.2334 11.1793 44.02 11.17C43.94 11.17 43.89 11.17 43.83 11.17C43.6 11.4 43.3 11.52 43.1 11.8C42.93 11.35 43.61 10.87 44.1 10.8L43.92 11.05C44.08 11.05 44.13 10.93 44.19 10.85C44.2214 10.8015 44.2643 10.7614 44.3149 10.7335C44.3655 10.7056 44.4222 10.6907 44.48 10.69C44.48 10.5 44.41 10.44 44.22 10.58C44.03 10.72 43.93 10.77 43.96 10.45C43.7829 10.5702 43.5914 10.6676 43.39 10.74C43.32 10.74 43.18 10.89 43.22 10.66C43.22 10.59 43.22 10.59 43.13 10.61C43.04 10.63 42.9 10.7 42.94 10.48C42.94 10.48 42.94 10.48 42.87 10.48C42.68 10.58 42.7 10.42 42.68 10.31C42.2 10.7 41.79 10.76 41.46 10.49C41.6235 10.4594 41.7818 10.4055 41.93 10.33C42.2 10.17 42.2 10.17 42.02 9.94L41.97 9.85C42.26 9.69 41.91 9.59 41.97 9.45C42.8563 9.65171 43.7733 9.67888 44.67 9.53ZM42.83 9.53C42.5943 9.56488 42.3535 9.53052 42.1369 9.4311C41.9203 9.33169 41.7372 9.1715 41.61 8.97C41.55 8.86 41.54 8.81 41.7 8.81C41.9381 8.80666 42.1719 8.87305 42.3727 9.00099C42.5735 9.12893 42.7324 9.31282 42.83 9.53ZM42.23 6.84C42.38 6.84 42.54 6.93 42.52 7.08C42.42 7.48062 42.2862 7.87203 42.12 8.25C42.12 8.32 42.04 8.37 41.97 8.32C41.9 8.27 41.66 8.32 41.69 8.13C41.7164 7.74483 41.7938 7.36485 41.92 7C41.9184 6.96251 41.9264 6.92524 41.9433 6.89172C41.9602 6.8582 41.9853 6.82956 42.0164 6.80852C42.0475 6.78747 42.0834 6.77472 42.1208 6.77148C42.1582 6.76824 42.1958 6.77462 42.23 6.79V6.84ZM41.73 6.71C41.772 6.65642 41.8328 6.6207 41.9 6.61C41.7437 7.0611 41.6331 7.52677 41.57 8C41.57 8.06 41.57 8.16 41.46 8.14C41.35 8.12 41.34 8.07 41.35 7.98C41.4077 7.57906 41.5014 7.18414 41.63 6.8C41.6472 6.74368 41.6823 6.69451 41.73 6.66V6.71ZM40.89 5.98C41.02 5.98 41.06 5.98 41.05 5.83C41.04 5.68 41.05 5.69 41.15 5.69C41.25 5.69 41.29 5.69 41.28 5.81C41.27 5.93 41.28 6 41.45 5.99C41.62 5.98 41.53 5.99 41.54 6.08C41.55 6.17 41.48 6.19 41.4 6.19C41.32 6.19 41.26 6.19 41.29 6.27C41.32 6.35 41.16 6.52 41.29 6.61C41.3682 6.66136 41.4247 6.73974 41.4487 6.83015C41.4726 6.92056 41.4624 7.01664 41.42 7.1C41.35 7.33 41.26 7.56 41.16 7.83C41.05 7.56 40.95 7.33 40.86 7.09C40.8265 7.04847 40.8032 6.99964 40.792 6.94744C40.7809 6.89524 40.7822 6.84115 40.7958 6.78955C40.8094 6.73794 40.835 6.69027 40.8705 6.65039C40.906 6.61051 40.9503 6.57955 41 6.56C41.14 6.47 41 6.33 41 6.22C41 6.11 40.92 6.14 40.86 6.14C40.8 6.14 40.75 6.14 40.75 6.04C40.75 5.94 40.82 5.93 40.89 5.93V5.98ZM40.73 6.92C40.8422 7.27408 40.9324 7.63477 41 8C41 8.09 41 8.13 40.89 8.15C40.78 8.17 40.77 8.1 40.77 8.03C40.7159 7.52258 40.6052 7.0228 40.44 6.54C40.5125 6.56564 40.5772 6.60944 40.628 6.66721C40.6788 6.72498 40.7139 6.7948 40.73 6.87V6.92ZM40.1 6.84C40.29 6.77 40.39 6.84 40.45 7.03C40.5503 7.35625 40.6206 7.69097 40.66 8.03C40.72 8.3 40.49 8.22 40.41 8.29C40.33 8.36 40.27 8.29 40.23 8.23C40.11 7.88 39.95 7.55 39.86 7.23C39.77 6.91 39.93 6.85 40.1 6.79V6.84ZM40.76 8.84C40.6605 9.07791 40.4846 9.27588 40.26 9.40265C40.0355 9.52942 39.7751 9.57775 39.52 9.54C39.606 9.28948 39.7773 9.07714 40.0039 8.94005C40.2306 8.80297 40.4982 8.74986 40.76 8.79V8.84ZM38.87 8.46C38.95 8.55 38.87 8.65 38.87 8.74L38.61 9.16C38.56 9.23 38.52 9.29 38.43 9.25C38.34 9.21 38.25 9.25 38.3 9.1C38.35 8.95 38.37 8.8 38.41 8.66C38.4205 8.60578 38.4486 8.55655 38.49 8.52C38.5282 8.48064 38.5767 8.4529 38.63 8.44C38.69 8.37 38.8 8.33 38.87 8.41V8.46ZM37.8 7.62C37.95 7.62 37.99 7.62 37.97 7.44C37.95 7.26 37.97 7.36 38.07 7.36C38.17 7.36 38.18 7.36 38.17 7.44C38.16 7.52 38.22 7.64 38.37 7.62C38.52 7.6 38.46 7.62 38.46 7.72C38.4643 7.7339 38.4647 7.7487 38.4612 7.76282C38.4577 7.77693 38.4504 7.78983 38.4401 7.80011C38.4298 7.81039 38.4169 7.81768 38.4028 7.82119C38.3887 7.82469 38.3739 7.82428 38.36 7.82C38.18 7.82 38.16 7.89 38.17 8.02C38.18 8.15 38.17 8.18 38.06 8.17C37.95 8.16 38 8.1 38 8C38 7.9 38 7.76 37.83 7.79C37.66 7.82 37.74 7.79 37.74 7.7C37.74 7.61 37.71 7.61 37.8 7.62ZM37.42 8.37C37.63 8.37 37.76 8.44 37.82 8.62C37.8595 8.74763 37.8895 8.87798 37.91 9.01C37.91 9.07 37.99 9.18 37.91 9.2C37.83 9.22 37.72 9.25 37.66 9.13C37.6 9.01 37.44 8.8 37.34 8.62C37.24 8.44 37.27 8.38 37.42 8.37ZM37.32 9.71C37.3514 9.89267 37.3948 10.0731 37.45 10.25C37.2742 10.1378 37.1378 9.9735 37.06 9.78C37.06 9.71 37 9.6 37.13 9.58C37.26 9.56 37.3 9.58 37.32 9.71ZM37 8.12C36.9336 8.30275 36.8464 8.47723 36.74 8.64C36.6578 8.73024 36.6122 8.84792 36.6122 8.97C36.6122 9.09208 36.6578 9.20976 36.74 9.3C36.27 9.19 36.12 8.94 36.26 8.55C36.3467 8.33998 36.4539 8.13901 36.58 7.95C36.6798 7.8268 36.7423 7.67759 36.76 7.52C37.07 7.71 37.12 7.85 37 8.12ZM35.84 7.62C36.1 7.44 36.36 7.23 36.77 7.44C36.581 7.52889 36.4032 7.63965 36.24 7.77C36.1693 7.82866 36.0878 7.87283 36 7.9C35.89 7.9 35.76 8.04 35.67 7.9C35.58 7.76 35.76 7.69 35.86 7.62H35.84ZM35.48 7.86C35.68 8.19018 35.7955 8.56454 35.8165 8.94999C35.8374 9.33544 35.763 9.72011 35.6 10.07C35.5296 9.98267 35.4789 9.88118 35.4512 9.77246C35.4236 9.66374 35.4198 9.55034 35.44 9.44C35.4888 9.12048 35.4214 8.79403 35.25 8.52V8.42C35.08 8 35.1 8 35.5 7.86H35.48ZM34.83 9.29C34.95 9.13 35.09 8.91 35.27 8.98C35.45 9.05 35.27 9.27 35.27 9.47C35.09 9.32 34.93 9.42 34.76 9.47C34.77 9.37 34.82 9.33 34.85 9.29H34.83ZM34 11.63C34.2037 12.0275 34.4667 12.3917 34.78 12.71C35.1206 13.0335 35.4849 13.331 35.87 13.6C35.9755 13.66 36.0679 13.7405 36.1419 13.8367C36.2158 13.933 36.2697 14.0431 36.3005 14.1605C36.3312 14.2779 36.3382 14.4003 36.3209 14.5204C36.3037 14.6405 36.2625 14.756 36.2 14.86C36.0398 15.1807 35.9092 15.5155 35.81 15.86C35.72 16.23 35.81 16.4 36.16 16.53C36.6112 16.6802 37.0988 16.6802 37.55 16.53C37.7 16.53 37.77 16.53 37.83 16.66C37.8872 16.8079 37.961 16.9488 38.05 17.08C38.18 17.28 38.15 17.37 37.91 17.4H37.7V17.35V17.41C37.7402 17.5844 37.7402 17.7656 37.7 17.94C37.7 18.08 37.61 18.13 37.45 18.07C37.2324 17.972 37.0456 17.8164 36.91 17.62C36.8094 17.7558 36.6838 17.8712 36.54 17.96C36.32 18.08 36.23 18.06 36.13 17.83C36.1022 17.7582 36.0788 17.6847 36.06 17.61C36.06 17.54 36.06 17.46 36.06 17.35C35.9275 17.5018 35.7763 17.6362 35.61 17.75C35.44 17.83 35.25 17.98 35.09 17.88C34.93 17.78 34.93 17.52 34.93 17.31C34.93 17.1 35.12 16.96 35 16.85C34.88 16.74 34.7 16.85 34.54 16.91C34.38 16.97 34.19 16.91 34.11 16.83C34.03 16.75 34.11 16.54 34.23 16.41C34.3345 16.2694 34.448 16.1357 34.57 16.01C34.2739 15.9608 33.9991 15.8251 33.78 15.62C33.56 15.38 33.58 15.32 33.85 15.18C34.0495 15.0916 34.2625 15.0375 34.48 15.02C34.36 14.95 34.31 14.84 34.18 14.85C33.8519 15.0219 33.4751 15.0769 33.1115 15.006C32.748 14.9351 32.4195 14.7426 32.18 14.46C32.08 14.29 32.09 14.19 32.3 14.13C32.4913 14.0901 32.6887 14.0901 32.88 14.13C33.1363 14.2047 33.4054 14.2251 33.67 14.19C33.77 14.19 33.79 14.19 33.82 14.3C33.85 14.41 33.88 14.56 34.01 14.62C34.01 14.49 33.93 14.39 33.89 14.28C33.85 14.17 33.89 14.04 34.06 14.02C34.3989 13.9683 34.7456 14.0133 35.06 14.15C34.7429 13.8274 34.4795 13.456 34.28 13.05C34.0759 12.6054 33.98 12.1188 34 11.63ZM31.64 12.51C32.5547 12.7009 33.3989 13.1403 34.08 13.78C33.8775 13.9161 33.6436 13.9986 33.4005 14.0196C33.1574 14.0406 32.9129 13.9994 32.69 13.9C32.1971 13.571 31.836 13.0788 31.67 12.51H31.64ZM32.31 10.8C32.31 10.63 32.42 10.68 32.5 10.72C32.7598 10.825 32.9947 10.9834 33.1893 11.1849C33.384 11.3865 33.5341 11.6267 33.63 11.89C33.7775 12.4525 33.9647 13.0039 34.19 13.54C33.5006 13.2452 32.9155 12.7506 32.51 12.12C32.3043 11.7123 32.2443 11.2465 32.34 10.8H32.31ZM28.87 7C28.8748 6.86634 28.9202 6.73731 29 6.63C29.2938 6.88546 29.571 7.15934 29.83 7.45C30.7397 8.46724 31.516 9.59635 32.14 10.81C32.165 10.846 32.182 10.8869 32.19 10.93C32.19 11.08 32.19 11.23 32.19 11.41C31.5023 10.4767 30.7289 9.60958 29.88 8.82C29.9159 9.01772 29.9871 9.2074 30.09 9.38C30.6118 10.2021 31.2916 10.9125 32.09 11.47C32.1927 11.5381 32.2673 11.6411 32.3 11.76C32.4049 12.0823 32.5713 12.3811 32.79 12.64H32.72C31.182 11.964 29.9122 10.7961 29.11 9.32C28.7564 8.59988 28.6713 7.77725 28.87 7ZM27.39 9C27.6702 9.11819 27.9354 9.26925 28.18 9.45C29.0061 10.0827 29.791 10.7674 30.53 11.5C30.7311 11.6971 30.9449 11.8808 31.17 12.05C31.4256 12.2561 31.5907 12.554 31.63 12.88C30.7007 12.1129 29.6955 11.4428 28.63 10.88C29.0757 11.4897 29.649 11.9948 30.31 12.36C30.6648 12.575 31.0321 12.7687 31.41 12.94C31.5356 12.9699 31.6533 13.0264 31.7551 13.1058C31.8569 13.1852 31.9404 13.2855 32 13.4C31.8248 13.4037 31.6508 13.3696 31.49 13.3C30.1615 12.9395 28.9444 12.2519 27.95 11.3C27.6809 11.0065 27.4803 10.6569 27.3627 10.2764C27.2451 9.89599 27.2134 9.49417 27.27 9.1C27.23 8.92 27.3 8.94 27.39 9ZM27.44 12.38C29.1729 12.7327 30.8651 13.2622 32.49 13.96C32.3388 14.0439 32.1717 14.0952 31.9995 14.1107C31.8273 14.1262 31.6537 14.1056 31.49 14.05C30.8155 13.7597 30.1063 13.558 29.38 13.45C29.2535 13.4398 29.1265 13.4398 29 13.45C29.3042 13.6579 29.6427 13.8102 30 13.9C30.5576 14.0794 31.1298 14.2099 31.71 14.29C31.7645 14.2937 31.8167 14.3138 31.8595 14.3477C31.9024 14.3816 31.9339 14.4278 31.95 14.48C32.0348 14.6635 32.1615 14.8245 32.32 14.95C31 14.51 29.74 14.34 28.5 14C27.7222 13.7947 27.0075 13.3996 26.42 12.85C26.2661 12.7044 26.1407 12.5315 26.05 12.34C26.5123 12.2866 26.9795 12.2934 27.44 12.36V12.38Z" fill="#7E91B4"/>
</svg>
