<svg width="120" height="36" viewBox="0 0 120 36" fill="none" xmlns="http://www.w3.org/2000/svg">
<path d="M84.5709 33.8847V28.6655H86.0702V30.6024H87.6911V28.6655H89.2148V33.8847H87.7236V31.5588H86.1027V33.8847H84.5709Z" fill="#7E91B4"/>
<path d="M79.4246 32.4178C79.4177 32.0797 79.5207 31.7485 79.7179 31.4738C79.9152 31.1991 80.1961 30.9958 80.5187 30.8942C80.7977 30.7826 81.0887 30.7038 81.3859 30.6592L82.3746 30.5214V30.3431C82.3746 29.5894 81.9694 29.4597 81.4426 29.4516C80.9367 29.4657 80.4418 29.6019 80 29.8487L79.9028 28.9005C80.5055 28.6817 81.1417 28.5692 81.783 28.5682C82.1337 28.5618 82.4834 28.6082 82.8204 28.706C83.0765 28.779 83.3043 28.9282 83.4737 29.1337C83.6431 29.3393 83.7459 29.5915 83.7686 29.8568C83.7798 30.0322 83.7798 30.2082 83.7686 30.3836V33.6254C82.4719 34.1198 79.4246 34.4602 79.4246 32.4178ZM82.3827 33.0824V31.2103C81.7506 31.2994 80.8104 31.4048 80.8104 32.3125C80.8104 33.4309 82.0099 33.2283 82.3827 33.0581V33.0824Z" fill="#7E91B4"/>
<path d="M78.995 30.1C78.8873 29.6838 78.6589 29.3088 78.3386 29.0221C78.0986 28.8362 77.8244 28.6995 77.5316 28.6196C77.2388 28.5398 76.9331 28.5185 76.632 28.5569C76.331 28.5953 76.0404 28.6926 75.777 28.8434C75.5136 28.9941 75.2824 29.1953 75.0968 29.4354C75.0968 28.0576 75.6722 27.3688 76.8474 27.1824C78.0225 26.996 78.679 26.8744 78.679 26.8744L78.5574 25.756C78.5574 25.756 77.3661 25.9262 76.3692 26.1531C75.7558 26.286 75.1993 26.6075 74.7778 27.0726C74.3563 27.5377 74.091 28.123 74.0189 28.7465C73.8347 29.9445 73.8871 31.167 74.1729 32.3449C74.3188 32.8542 74.6331 33.2989 75.0644 33.6066C75.4956 33.9142 76.0185 34.0665 76.5475 34.0387C78.3305 34.0387 79.1409 32.9527 79.1409 31.2508C79.1378 30.8628 79.0888 30.4765 78.995 30.1ZM77.1715 32.8798C77.1036 32.9768 77.0123 33.0551 76.906 33.1075C76.7998 33.16 76.6821 33.1847 76.5637 33.1796C75.7046 33.1796 75.4858 31.7695 75.4858 31.1211C75.4599 30.6052 75.6052 30.0952 75.8991 29.6704C75.9778 29.5808 76.0752 29.5097 76.1845 29.4621C76.2937 29.4144 76.4121 29.3915 76.5313 29.3949C76.7172 29.4006 76.8963 29.4659 77.0422 29.5812C77.1882 29.6965 77.2932 29.8556 77.3417 30.0351C77.5019 30.4567 77.579 30.9053 77.5687 31.3561C77.5969 31.8929 77.4581 32.4251 77.1715 32.8798Z" fill="#7E91B4"/>
<path d="M90.0901 33.8847V28.6655H91.5813V31.0968L93.267 28.6655H94.7258L93.0239 30.9914L94.8879 33.8847H93.267L91.6461 31.2832V33.8847H90.0901Z" fill="#7E91B4"/>
<path d="M66.271 34.0387C65.7842 34.0541 65.2985 33.9827 64.8366 33.828L64.9662 32.9122C65.2939 33.1176 65.6737 33.2245 66.0603 33.2202C66.814 33.2202 67.2274 32.8717 67.2031 32.4097C67.2121 32.3076 67.1962 32.2048 67.1566 32.1102C67.1171 32.0156 67.0552 31.9321 66.9761 31.8667C66.8317 31.7353 66.6446 31.6605 66.4493 31.656C66.282 31.6456 66.1142 31.6456 65.9469 31.656H65.5741V30.7969H65.7118C66.271 30.7969 67.1463 30.7969 67.1463 30.0594C67.1463 29.5083 66.579 29.3706 66.2792 29.3787C65.8361 29.3782 65.4005 29.4927 65.0149 29.7109L64.9014 28.8195C65.4386 28.6233 66.0072 28.5271 66.579 28.5358C67.7866 28.5358 68.5403 29.0464 68.5079 29.873C68.4976 30.148 68.3991 30.4124 68.2268 30.6269C68.0546 30.8415 67.8178 30.9949 67.5516 31.0644C67.7908 31.1005 68.0199 31.1861 68.2242 31.3156C68.3851 31.426 68.5156 31.5753 68.6034 31.7496C68.6912 31.9238 68.7337 32.1174 68.7267 32.3125C68.734 32.6062 68.6529 32.8953 68.4939 33.1424C68.335 33.3895 68.1055 33.5832 67.8352 33.6983C67.345 33.9247 66.811 34.0409 66.271 34.0387Z" fill="#7E91B4"/>
<path d="M52.8095 34.0387C52.4434 34.0683 52.0753 34.0166 51.7314 33.8875C51.3876 33.7584 51.0764 33.5551 50.8202 33.2919C50.564 33.0287 50.369 32.7122 50.2492 32.365C50.1293 32.0178 50.0876 31.6484 50.127 31.2832C50.0946 30.9189 50.1426 30.5519 50.2677 30.2082C50.3928 29.8645 50.5919 29.5525 50.8509 29.2943C51.1099 29.0361 51.4225 28.8379 51.7666 28.7138C52.1106 28.5898 52.4778 28.5428 52.842 28.5763C53.2613 28.5704 53.6785 28.639 54.0738 28.7789L53.8955 29.7272C53.6476 29.5883 53.3692 29.5131 53.0851 29.5083C52.072 29.5083 51.6506 30.3188 51.6506 31.2508C51.6506 32.1828 52.0639 33.0905 53.0932 33.0905C53.376 33.0835 53.6533 33.0114 53.9036 32.8798L54.0009 33.8442C53.6173 33.9746 53.2147 34.0404 52.8095 34.0387Z" fill="#7E91B4"/>
<path d="M70.8339 33.05C70.8339 33.05 72.1954 33.3174 72.1954 32.0369C72.2059 31.8482 72.1638 31.6602 72.0738 31.4939C71.9118 31.2346 71.5714 31.186 71.2067 31.186H70.842L70.8339 33.05ZM69.3507 28.6655H70.8339V30.2864H71.4336C71.9613 30.2406 72.4897 30.3657 72.941 30.643C73.1386 30.7989 73.2971 30.9988 73.404 31.2267C73.5109 31.4546 73.5633 31.7042 73.557 31.9559C73.557 33.6659 71.7821 33.9901 70.8582 33.9901C70.3535 34.0037 69.8487 33.9684 69.3507 33.8847V28.6655Z" fill="#7E91B4"/>
<path d="M58.1666 31.1049C58.4388 31.0495 58.6826 30.8994 58.8548 30.6813C59.0269 30.4632 59.1161 30.1912 59.1067 29.9136C59.1136 29.6739 59.0454 29.438 58.9118 29.239C58.7781 29.0399 58.5856 28.8876 58.3611 28.8032C57.8149 28.6001 57.2333 28.5091 56.6511 28.5358C56.0488 28.5296 55.447 28.5729 54.8519 28.6655V33.8847C55.4483 33.9639 56.0494 34.0018 56.6511 33.9982C57.6965 33.9982 59.2931 33.7308 59.3336 32.3773C59.3374 32.3613 59.3374 32.3447 59.3336 32.3287C59.336 32.0131 59.2155 31.709 58.9978 31.4806C58.78 31.2523 58.4819 31.1175 58.1666 31.1049ZM56.6835 31.6479C56.8213 31.6479 56.9752 31.6479 57.1616 31.6479C57.3345 31.6498 57.5011 31.7129 57.6317 31.8262C57.7044 31.8903 57.7607 31.9708 57.7959 32.061C57.8311 32.1512 57.8443 32.2485 57.8343 32.3449C57.8343 32.9122 57.3399 33.1553 56.6754 33.1553C56.5539 33.1617 56.4322 33.1617 56.3107 33.1553V31.6479H56.6835ZM56.3107 30.8375V29.403C56.3107 29.403 56.4566 29.403 56.8375 29.403C57.5425 29.403 57.6965 29.8163 57.6965 30.0837C57.6965 30.6024 57.3724 30.8537 56.6592 30.8537L56.3107 30.8375Z" fill="#7E91B4"/>
<path d="M62.2674 28.5358C61.1733 28.5358 59.8361 28.7141 59.8361 30.1567C59.8131 30.4843 59.9121 30.8088 60.1141 31.0677C60.3161 31.3266 60.6069 31.5015 60.9302 31.5588L59.5362 33.9172H61.0842L62.2026 31.8343H62.6403V33.9172H64.091V28.6655C63.4877 28.5724 62.8778 28.529 62.2674 28.5358ZM62.5997 30.9266H62.235C61.5137 30.9266 61.2139 30.6835 61.2139 30.1162C61.2139 29.5489 61.6839 29.3624 62.0243 29.3624C62.205 29.348 62.3866 29.348 62.5673 29.3624L62.5997 30.9266Z" fill="#7E91B4"/>
<path d="M26 33.8847V26.6799H31.5029V33.8847H29.882V27.6929H27.6209V33.8847H26Z" fill="#7E91B4"/>
<path d="M32.3782 36V28.8032C33.6911 28.5358 37.2409 27.7902 37.2409 30.9752C37.2715 31.7236 37.0361 32.4587 36.5763 33.05C36.2456 33.415 35.8164 33.6765 35.3404 33.803C34.8645 33.9296 34.362 33.9157 33.8937 33.7632V36H32.3782ZM35.7253 31.0968C35.7253 29.1355 34.3476 29.3057 33.8613 29.4273V32.8393C34.1045 32.8717 35.7253 33.5119 35.7253 31.0968Z" fill="#7E91B4"/>
<path d="M40.2314 34.0387C38.5214 34.0387 37.8001 32.9446 37.8001 31.3156C37.8001 29.6866 38.6997 28.5763 40.434 28.5763C40.961 28.5522 41.4816 28.7001 41.9172 28.9977C42.2577 29.2394 42.5085 29.5871 42.6303 29.9865C42.7478 30.3866 42.8079 30.8014 42.8086 31.2184C42.8086 32.977 42.0711 33.982 40.2314 33.982V34.0387ZM40.353 33.2283C40.7906 33.2283 41.0824 32.8798 41.204 32.4178C41.2967 32.0387 41.3402 31.6492 41.3336 31.2589C41.3469 30.8284 41.2781 30.3994 41.131 29.9946C41.0805 29.8208 40.9732 29.6689 40.8264 29.5632C40.6795 29.4574 40.5014 29.4039 40.3206 29.4111C40.1132 29.4215 39.9149 29.499 39.7555 29.6321C39.5962 29.7651 39.4844 29.9464 39.4372 30.1486C39.3218 30.5071 39.267 30.8824 39.2751 31.2589C39.2751 31.9072 39.421 33.2283 40.3206 33.2283H40.353Z" fill="#7E91B4"/>
<path d="M43.1328 33.8847L43.6758 28.6655H45.4102L46.48 32.2152L47.5579 28.6655H49.2841L49.7785 33.8847H48.4007L48.109 30.1243L46.9662 33.8847H45.7749L44.624 30.1081L44.3404 33.8847H43.1328Z" fill="#7E91B4"/>
<path d="M71.928 5.58397C71.9258 4.10227 71.3357 2.68198 70.2872 1.63501C69.2387 0.588049 67.8176 -1.55609e-06 66.3359 0H58.4178C57.2023 0.0070214 56.0222 0.410496 55.0569 1.14916C54.0915 1.88783 53.3935 2.92133 53.0689 4.09275H62.6078C66.2792 4.09275 67.8352 5.79469 67.8352 9.80639V18.8591C69.0092 18.5282 70.0436 17.8241 70.782 16.8532C71.5204 15.8823 71.9227 14.6975 71.928 13.4777V5.58397Z" fill="#7E91B4"/>
<path d="M48.9599 17.3597C48.9599 18.0937 49.1046 18.8205 49.3858 19.4985C49.6669 20.1765 50.0789 20.7925 50.5983 21.3111C51.1177 21.8297 51.7342 22.2409 52.4126 22.521C53.091 22.8011 53.818 22.9448 54.552 22.9437H62.4701C63.6848 22.9458 64.8671 22.5511 65.837 21.8197C66.8069 21.0882 67.5114 20.06 67.8433 18.8915H58.2801C54.6087 18.8915 53.0527 17.1814 53.0527 13.2184V4.09275C51.8786 4.42088 50.8437 5.12314 50.105 6.0929C49.3664 7.06267 48.9643 8.24697 48.9599 9.46601V17.3597Z" fill="#7E91B4"/>
<path d="M64.95 8.82576C65.2761 8.73523 65.5591 8.53108 65.7479 8.25018C65.9366 7.96928 66.0187 7.63014 65.9793 7.29401C65.9793 6.19991 65.0959 5.67312 63.8478 5.67312H61.7326V8.28276H60.4845C60.2289 8.25005 59.9692 8.27288 59.7233 8.34968C59.4773 8.42648 59.2508 8.55545 59.0592 8.72779C58.8677 8.90012 58.7156 9.11176 58.6132 9.34826C58.5109 9.58475 58.4609 9.84054 58.4665 10.0982C58.4665 11.0059 58.9932 11.4111 59.9658 11.8892C60.5574 12.1891 61.2544 12.3674 61.2544 13.0401C61.2544 13.3967 60.9302 13.8505 60.2251 13.8505H58.9122C59.1009 13.5507 59.2098 13.2075 59.2283 12.8537C59.2283 12.4322 59.0743 10.7627 56.7483 10.7627H54.8113V17.2463H56.1081V14.4016L56.6348 14.9284H60.1765C61.7974 14.9284 62.6078 14.0774 62.6078 13.0563C62.631 12.7498 62.5839 12.4421 62.4701 12.1567H63.7668C65.8172 12.1567 66.2954 11.1355 66.2954 10.3413C66.3014 9.96616 66.1666 9.6024 65.9175 9.32182C65.6684 9.04124 65.3232 8.86424 64.95 8.82576ZM56.7159 13.8748H56.1081V11.7677H56.7159C56.8573 11.7499 57.0008 11.7631 57.1366 11.8065C57.2723 11.8498 57.397 11.9222 57.5019 12.0186C57.6068 12.1151 57.6894 12.2332 57.744 12.3648C57.7987 12.4964 57.8239 12.6384 57.8181 12.7807C57.8264 12.9273 57.8036 13.0739 57.751 13.211C57.6985 13.3481 57.6174 13.4724 57.5132 13.5758C57.409 13.6792 57.2841 13.7594 57.1467 13.8109C57.0092 13.8625 56.8624 13.8842 56.7159 13.8748ZM61.7326 9.87123V11.4435C61.397 11.2504 61.0475 11.0824 60.6871 10.941C60.2738 10.7627 59.8766 10.5277 59.8766 10.009C59.8766 9.74966 60.0387 9.36065 60.8249 9.36065H62.2837L61.7326 9.87123ZM63.0293 6.74291H63.6209C64.6177 6.74291 64.6664 7.35885 64.6664 7.55335C64.6664 7.74786 64.5205 8.3638 63.6695 8.3638H63.0293V6.74291ZM63.7668 11.1517H63.0293V9.36065H63.7668C64.6664 9.36065 64.9176 9.79018 64.9176 10.2521C64.9176 10.7141 64.5853 11.1517 63.7668 11.1517Z" fill="#7E91B4"/>
</svg>
