<svg width="66" height="20" viewBox="0 0 66 20" fill="none" xmlns="http://www.w3.org/2000/svg">
<path d="M46.5141 18.6366V15.766H47.3387V16.8313H48.2302V15.766H49.0682V18.6366H48.248V17.3573H47.3565V18.6366H46.5141Z" fill="#7E91B4"/>
<path d="M43.6836 17.8298C43.6798 17.6438 43.7364 17.4617 43.8449 17.3106C43.9534 17.1595 44.1079 17.0477 44.2853 16.9918C44.4388 16.9304 44.5988 16.8871 44.7623 16.8625L45.3061 16.7868V16.6887C45.3061 16.2742 45.0832 16.2028 44.7935 16.1984C44.5153 16.2061 44.243 16.281 44.0001 16.4168L43.9466 15.8953C44.2781 15.7749 44.628 15.7131 44.9807 15.7125C45.1736 15.709 45.3659 15.7345 45.5512 15.7883C45.6921 15.8285 45.8174 15.9105 45.9106 16.0236C46.0037 16.1366 46.0603 16.2753 46.0728 16.4213C46.0789 16.5177 46.0789 16.6145 46.0728 16.711V18.494C45.3596 18.7659 43.6836 18.9531 43.6836 17.8298ZM45.3105 18.1953V17.1656C44.9629 17.2147 44.4458 17.2726 44.4458 17.7719C44.4458 18.387 45.1055 18.2756 45.3105 18.1819V18.1953Z" fill="#7E91B4"/>
<path d="M43.4473 16.555C43.3881 16.3261 43.2624 16.1198 43.0863 15.9621C42.9543 15.8599 42.8035 15.7847 42.6424 15.7408C42.4814 15.6969 42.3133 15.6852 42.1477 15.7063C41.9821 15.7274 41.8223 15.7809 41.6774 15.8638C41.5325 15.9468 41.4054 16.0574 41.3033 16.1895C41.3033 15.4317 41.6198 15.0528 42.2661 14.9503C42.9124 14.8478 43.2735 14.7809 43.2735 14.7809L43.2066 14.1658C43.2066 14.1658 42.5514 14.2594 42.0031 14.3842C41.6657 14.4573 41.3597 14.6341 41.1279 14.8899C40.896 15.1457 40.7501 15.4677 40.7105 15.8106C40.6092 16.4695 40.6379 17.1418 40.7951 17.7897C40.8754 18.0698 41.0482 18.3144 41.2854 18.4836C41.5227 18.6528 41.8102 18.7366 42.1012 18.7213C43.0818 18.7213 43.5276 18.124 43.5276 17.1879C43.5258 16.9745 43.4989 16.7621 43.4473 16.555ZM42.4444 18.0839C42.407 18.1372 42.3568 18.1803 42.2984 18.2092C42.2399 18.238 42.1752 18.2516 42.1101 18.2488C41.6376 18.2488 41.5173 17.4732 41.5173 17.1166C41.503 16.8329 41.5829 16.5523 41.7446 16.3187C41.7878 16.2695 41.8414 16.2303 41.9015 16.2041C41.9616 16.1779 42.0267 16.1653 42.0923 16.1672C42.1945 16.1703 42.293 16.2062 42.3733 16.2696C42.4535 16.3331 42.5113 16.4206 42.538 16.5193C42.6261 16.7512 42.6685 16.9979 42.6628 17.2459C42.6783 17.5411 42.602 17.8338 42.4444 18.0839Z" fill="#7E91B4"/>
<path d="M49.5496 18.6366V15.766H50.3698V17.1032L51.2969 15.766H52.0992L51.1632 17.0453L52.1884 18.6366H51.2969L50.4054 17.2058V18.6366H49.5496Z" fill="#7E91B4"/>
<path d="M36.4491 18.7213C36.1813 18.7297 35.9142 18.6905 35.6602 18.6054L35.7315 18.1017C35.9117 18.2147 36.1206 18.2735 36.3332 18.2711C36.7478 18.2711 36.9751 18.0794 36.9617 17.8254C36.9667 17.7692 36.9579 17.7126 36.9362 17.6606C36.9145 17.6086 36.8804 17.5626 36.8369 17.5267C36.7575 17.4544 36.6546 17.4133 36.5472 17.4108C36.4552 17.4051 36.3629 17.4051 36.2708 17.4108H36.0658V16.9383H36.1416C36.4491 16.9383 36.9305 16.9383 36.9305 16.5327C36.9305 16.2296 36.6185 16.1538 36.4536 16.1583C36.2099 16.158 35.9703 16.221 35.7582 16.341L35.6958 15.8507C35.9913 15.7428 36.304 15.6899 36.6185 15.6947C37.2827 15.6947 37.6972 15.9755 37.6794 16.4302C37.6738 16.5814 37.6196 16.7268 37.5248 16.8448C37.4301 16.9628 37.2998 17.0472 37.1534 17.0854C37.285 17.1053 37.411 17.1523 37.5234 17.2236C37.6119 17.2843 37.6836 17.3664 37.7319 17.4623C37.7802 17.5581 37.8036 17.6646 37.7997 17.7719C37.8037 17.9334 37.7591 18.0924 37.6717 18.2283C37.5843 18.3642 37.4581 18.4707 37.3094 18.5341C37.0398 18.6586 36.7461 18.7225 36.4491 18.7213Z" fill="#7E91B4"/>
<path d="M29.0453 18.7213C28.8439 18.7375 28.6415 18.7092 28.4523 18.6382C28.2632 18.5671 28.0921 18.4553 27.9512 18.3105C27.8102 18.1658 27.703 17.9917 27.6371 17.8007C27.5712 17.6098 27.5482 17.4066 27.5699 17.2058C27.5521 17.0054 27.5785 16.8036 27.6473 16.6145C27.7161 16.4255 27.8256 16.2539 27.968 16.1119C28.1105 15.9698 28.2824 15.8608 28.4717 15.7926C28.6609 15.7244 28.8628 15.6985 29.0631 15.717C29.2938 15.7137 29.5232 15.7514 29.7407 15.8284L29.6426 16.3499C29.5063 16.2736 29.3531 16.2322 29.1969 16.2296C28.6397 16.2296 28.4079 16.6753 28.4079 17.1879C28.4079 17.7005 28.6352 18.1998 29.2013 18.1998C29.3568 18.1959 29.5094 18.1563 29.6471 18.0839L29.7005 18.6143C29.4896 18.686 29.2681 18.7222 29.0453 18.7213Z" fill="#7E91B4"/>
<path d="M38.9587 18.1775C38.9587 18.1775 39.7075 18.3246 39.7075 17.6203C39.7133 17.5165 39.6902 17.4131 39.6407 17.3217C39.5515 17.179 39.3643 17.1523 39.1637 17.1523H38.9631L38.9587 18.1775ZM38.143 15.766H38.9587V16.6575H39.2885C39.5788 16.6324 39.8694 16.7011 40.1176 16.8536C40.2263 16.9394 40.3135 17.0493 40.3723 17.1747C40.4311 17.3 40.4599 17.4373 40.4564 17.5757C40.4564 18.5163 39.4802 18.6946 38.972 18.6946C38.6945 18.702 38.4168 18.6826 38.143 18.6366V15.766Z" fill="#7E91B4"/>
<path d="M31.9917 17.1077C32.1414 17.0772 32.2755 16.9947 32.3702 16.8747C32.4648 16.7548 32.5139 16.6052 32.5087 16.4525C32.5125 16.3206 32.475 16.1909 32.4015 16.0814C32.328 15.972 32.2221 15.8882 32.0987 15.8418C31.7982 15.73 31.4783 15.68 31.1581 15.6947C30.8269 15.6913 30.4959 15.7151 30.1686 15.766V18.6366C30.4966 18.6801 30.8272 18.701 31.1581 18.699C31.7331 18.699 32.6113 18.5519 32.6336 17.8075C32.6356 17.7987 32.6356 17.7896 32.6336 17.7808C32.6348 17.6072 32.5686 17.44 32.4488 17.3143C32.329 17.1887 32.1651 17.1146 31.9917 17.1077ZM31.176 17.4063C31.2517 17.4063 31.3364 17.4063 31.439 17.4063C31.534 17.4074 31.6257 17.4421 31.6975 17.5044C31.7374 17.5396 31.7684 17.5839 31.7878 17.6335C31.8072 17.6832 31.8144 17.7367 31.8089 17.7897C31.8089 18.1017 31.537 18.2354 31.1715 18.2354C31.1047 18.239 31.0377 18.239 30.9709 18.2354V17.4063H31.176ZM30.9709 16.9606V16.1716C30.9709 16.1716 31.0512 16.1716 31.2607 16.1716C31.6485 16.1716 31.7331 16.399 31.7331 16.5461C31.7331 16.8313 31.5548 16.9695 31.1626 16.9695L30.9709 16.9606Z" fill="#7E91B4"/>
<path d="M34.2471 15.6947C33.6454 15.6947 32.9099 15.7928 32.9099 16.5862C32.8972 16.7663 32.9517 16.9448 33.0628 17.0872C33.1739 17.2296 33.3338 17.3258 33.5117 17.3573L32.745 18.6544H33.5964L34.2115 17.5089H34.4522V18.6544H35.2501V15.766C34.9183 15.7148 34.5828 15.691 34.2471 15.6947ZM34.4299 17.0096H34.2293C33.8326 17.0096 33.6677 16.8759 33.6677 16.5639C33.6677 16.2519 33.9262 16.1493 34.1134 16.1493C34.2128 16.1414 34.3127 16.1414 34.4121 16.1493L34.4299 17.0096Z" fill="#7E91B4"/>
<path d="M14.3 18.6366V14.6739H17.3267V18.6366H16.4352V15.2311H15.1915V18.6366H14.3Z" fill="#7E91B4"/>
<path d="M17.8081 19.8V15.8418C18.5302 15.6947 20.4825 15.2846 20.4825 17.0364C20.4994 17.448 20.3699 17.8523 20.117 18.1775C19.9351 18.3782 19.6991 18.5221 19.4373 18.5917C19.1755 18.6613 18.8992 18.6537 18.6416 18.5697V19.8H17.8081ZM19.649 17.1032C19.649 16.0245 18.8912 16.1181 18.6238 16.185V18.0616C18.7575 18.0794 19.649 18.4316 19.649 17.1032Z" fill="#7E91B4"/>
<path d="M22.1273 18.7213C21.1868 18.7213 20.7901 18.1195 20.7901 17.2236C20.7901 16.3276 21.2849 15.717 22.2388 15.717C22.5286 15.7037 22.8149 15.785 23.0545 15.9488C23.2418 16.0817 23.3797 16.2729 23.4467 16.4926C23.5114 16.7126 23.5444 16.9408 23.5448 17.1701C23.5448 18.1374 23.1392 18.6901 22.1273 18.6901V18.7213ZM22.1942 18.2756C22.4349 18.2756 22.5954 18.0839 22.6622 17.8298C22.7132 17.6213 22.7372 17.407 22.7335 17.1924C22.7408 16.9556 22.703 16.7197 22.6221 16.497C22.5943 16.4014 22.5353 16.3179 22.4545 16.2597C22.3738 16.2016 22.2758 16.1721 22.1764 16.1761C22.0623 16.1818 21.9532 16.2245 21.8656 16.2976C21.7779 16.3708 21.7165 16.4705 21.6905 16.5817C21.627 16.7789 21.5969 16.9853 21.6014 17.1924C21.6014 17.549 21.6816 18.2756 22.1764 18.2756H22.1942Z" fill="#7E91B4"/>
<path d="M23.7231 18.6366L24.0218 15.766H24.9756L25.564 17.7184L26.1569 15.766H27.1063L27.3782 18.6366H26.6204L26.46 16.5683L25.8315 18.6366H25.1762L24.5433 16.5594L24.3873 18.6366H23.7231Z" fill="#7E91B4"/>
<path d="M39.5604 3.07118C39.5592 2.25625 39.2347 1.47509 38.658 0.899258C38.0814 0.323427 37.2997 -8.55848e-07 36.4848 0H32.1299C31.4613 0.00386177 30.8123 0.225773 30.2813 0.632038C29.7504 1.0383 29.3665 1.60673 29.1879 2.25101H34.4344C36.4536 2.25101 37.3094 3.18708 37.3094 5.39352V10.3725C37.9551 10.1905 38.524 9.80325 38.9302 9.26926C39.3363 8.73528 39.5575 8.0836 39.5604 7.41274V3.07118Z" fill="#7E91B4"/>
<path d="M26.928 9.54786C26.928 9.95155 27.0076 10.3513 27.1622 10.7242C27.3168 11.0971 27.5435 11.4359 27.8291 11.7211C28.1148 12.0063 28.4539 12.2325 28.827 12.3865C29.2001 12.5406 29.6 12.6196 30.0037 12.619H34.3586C35.0267 12.6202 35.6769 12.4031 36.2104 12.0008C36.7438 11.5985 37.1313 11.033 37.3139 10.3903H32.0541C30.0349 10.3903 29.179 9.4498 29.179 7.2701V2.25101C28.5333 2.43148 27.9641 2.81773 27.5578 3.3511C27.1516 3.88447 26.9304 4.53584 26.928 5.2063V9.54786Z" fill="#7E91B4"/>
<path d="M35.7226 4.85417C35.9019 4.80438 36.0576 4.6921 36.1614 4.5376C36.2652 4.3831 36.3103 4.19658 36.2887 4.01171C36.2887 3.40995 35.8028 3.12022 35.1164 3.12022H33.953V4.55552H33.2665C33.1259 4.53753 32.9831 4.55008 32.8479 4.59232C32.7126 4.63456 32.588 4.7055 32.4826 4.80028C32.3773 4.89507 32.2936 5.01147 32.2373 5.14154C32.1811 5.27161 32.1535 5.4123 32.1566 5.55399C32.1566 6.05322 32.4463 6.27609 32.9812 6.53908C33.3066 6.70401 33.69 6.80207 33.69 7.17204C33.69 7.36817 33.5117 7.61779 33.1239 7.61779H32.4018C32.5056 7.45287 32.5654 7.26412 32.5756 7.06952C32.5756 6.83773 32.4909 5.9195 31.2116 5.9195H30.1463V9.48546H30.8595V7.92089L31.1492 8.21063H33.0971C33.9886 8.21063 34.4344 7.74259 34.4344 7.18096C34.4471 7.01241 34.4212 6.84318 34.3586 6.68618H35.0718C36.1995 6.68618 36.4625 6.12454 36.4625 5.68771C36.4658 5.48139 36.3917 5.28132 36.2547 5.127C36.1177 4.97268 35.9278 4.87533 35.7226 4.85417ZM31.1938 7.63116H30.8595V6.47222H31.1938C31.2716 6.46244 31.3505 6.46972 31.4252 6.49356C31.4998 6.5174 31.5684 6.55722 31.6261 6.61026C31.6838 6.66329 31.7292 6.72826 31.7593 6.80065C31.7893 6.87303 31.8032 6.9511 31.8 7.0294C31.8046 7.11001 31.792 7.19067 31.7631 7.26605C31.7342 7.34144 31.6896 7.40983 31.6323 7.46671C31.575 7.52358 31.5063 7.56765 31.4307 7.596C31.3551 7.62435 31.2744 7.63633 31.1938 7.63116ZM33.953 5.42918V6.29392C33.7684 6.18771 33.5762 6.09534 33.3779 6.01756C33.1506 5.9195 32.9322 5.79023 32.9322 5.50495C32.9322 5.36231 33.0213 5.14836 33.4537 5.14836H34.2561L33.953 5.42918ZM34.6661 3.7086H34.9915C35.5398 3.7086 35.5666 4.04737 35.5666 4.15435C35.5666 4.26132 35.4863 4.60009 35.0183 4.60009H34.6661V3.7086ZM35.0718 6.13345H34.6661V5.14836H35.0718C35.5666 5.14836 35.7047 5.3846 35.7047 5.63868C35.7047 5.89275 35.522 6.13345 35.0718 6.13345Z" fill="#7E91B4"/>
</svg>
