<svg width="66" height="20" viewBox="0 0 66 20" fill="none" xmlns="http://www.w3.org/2000/svg">
<path d="M14.3112 2.76496V17.1516H0V2.76496H14.3112ZM7.17148 3.25127C5.02125 3.25127 2.87101 3.25127 0.720782 3.25127C0.528472 3.25127 0.490616 3.31073 0.490616 3.48909C0.490616 7.80645 0.490616 12.1258 0.490616 16.4473C0.490616 16.6241 0.528472 16.6836 0.720782 16.6836C5.00913 16.6775 9.29698 16.6775 13.5843 16.6836C13.8205 16.6836 13.8205 16.6836 13.8205 16.4427V3.49367C13.8205 3.2528 13.8205 3.25127 13.5858 3.25127H7.17148Z" fill="#7E91B4"/>
<path d="M39.5037 4.52894V2.85352H40.8665V4.53046C41.5873 4.56705 42.2521 4.71645 42.6942 5.34301C43.0092 5.79121 43.0576 6.30497 43.0137 6.82939C42.9244 7.91178 42.2566 8.4606 40.8786 8.59628V10.2214H39.5067V8.59781C38.8208 8.55969 38.1893 8.42401 37.7411 7.863C37.3928 7.42852 37.3323 6.91477 37.3504 6.37814C37.3883 5.26679 38.05 4.69206 39.5037 4.52894ZM39.5703 7.66787V5.53358C39.0933 5.49699 38.6951 5.92689 38.6618 6.49858C38.633 7.17241 38.9873 7.64652 39.5703 7.66787ZM40.8044 5.52138V7.65567C41.3041 7.68921 41.6948 7.24406 41.713 6.63426C41.7312 5.99092 41.3556 5.51833 40.8044 5.52138Z" fill="#7E91B4"/>
<path d="M34.7384 10.2214H33.3589V8.5978C32.6775 8.55969 32.0536 8.42401 31.6054 7.87519C31.3118 7.49561 31.1654 7.0215 31.1935 6.54126C31.1935 5.96653 31.3449 5.44363 31.7901 5.04878C32.2353 4.65394 32.7653 4.56095 33.3407 4.53808V2.85656H34.7247V4.53351C35.4395 4.57009 36.0982 4.71949 36.5418 5.33539C36.8447 5.76682 36.9098 6.26685 36.875 6.78213C36.8008 7.89044 36.1799 8.42096 34.7353 8.61152L34.7384 10.2214ZM34.6505 5.52138V7.65566C35.1851 7.67091 35.5773 7.20594 35.5697 6.57632C35.5621 5.94671 35.176 5.49546 34.6505 5.52443V5.52138ZM33.427 5.52138C32.897 5.50613 32.5185 5.94976 32.5185 6.58852C32.5185 7.22728 32.8925 7.67701 33.427 7.66329V5.52138Z" fill="#7E91B4"/>
<path d="M31.1935 17.1548C31.3237 16.3315 31.4509 15.522 31.5796 14.7019H29.5097C29.4233 15.2339 29.3385 15.769 29.2537 16.2904C29.2144 16.5358 29.1826 16.7843 29.1341 17.0282C29.1235 17.0816 29.0554 17.1609 29.013 17.1624C28.5405 17.1715 28.0696 17.1624 27.5805 17.1624C27.6456 16.7432 27.7077 16.3422 27.7728 15.9428C28.0136 14.49 28.2498 13.0264 28.4815 11.566C28.5012 11.4364 28.5405 11.3937 28.6723 11.3968C29.1266 11.3968 29.5657 11.3968 30.0351 11.3968C29.92 12.1148 29.808 12.81 29.6929 13.531C29.7431 13.5386 29.7936 13.5437 29.8443 13.5463C30.4258 13.5463 31.0057 13.5463 31.5872 13.5463C31.7386 13.5463 31.7704 13.4929 31.7901 13.3618C31.884 12.752 31.9849 12.1392 32.093 11.5233C32.102 11.476 32.1656 11.4029 32.205 11.4029C32.6759 11.3937 33.1469 11.4029 33.639 11.4029C33.5648 11.877 33.4876 12.3328 33.421 12.7871C33.1953 14.1927 32.9667 15.5983 32.7456 17.0054C32.7259 17.138 32.6805 17.1761 32.5518 17.1746C32.152 17.1746 31.7523 17.1746 31.3525 17.1746C31.3071 17.167 31.2601 17.1593 31.1935 17.1548Z" fill="#7E91B4"/>
<path d="M35.6878 13.746C35.9104 13.5265 36.1239 13.3222 36.3298 13.1103C36.8447 12.5782 37.355 12.0432 37.8698 11.5096C37.9149 11.4548 37.9776 11.4176 38.047 11.4044C38.6527 11.4044 39.2675 11.4044 39.9292 11.4044L37.0809 14.1317L39.1796 17.1532C39.1085 17.1532 39.06 17.167 39.0116 17.167C38.4422 17.167 37.8729 17.167 37.3035 17.167C37.2532 17.1706 37.203 17.1591 37.1593 17.1338C37.1156 17.1086 37.0804 17.0707 37.0582 17.0252C36.5918 16.2919 36.1194 15.5632 35.6484 14.833C35.6227 14.7918 35.5939 14.7537 35.5394 14.6805C35.5 14.9107 35.4652 15.1028 35.4334 15.2903C35.335 15.8727 35.2411 16.455 35.1381 17.0359C35.129 17.0846 35.0669 17.1593 35.0291 17.1609C34.5445 17.1609 34.0615 17.1609 33.5482 17.1609C33.8661 15.2354 34.1811 13.3298 34.4976 11.409H36.086C35.9543 12.188 35.8226 12.9655 35.6878 13.746Z" fill="#7E91B4"/>
<path d="M26.0451 11.3998C26.4842 13.3283 26.9173 15.2309 27.3594 17.1685H27.0748C26.6629 17.1685 26.251 17.1685 25.8391 17.1685C25.724 17.1685 25.6665 17.1456 25.6453 17.016C25.6029 16.7767 25.5332 16.5419 25.4939 16.3026C25.4727 16.1989 25.4333 16.1623 25.3273 16.1623C24.6974 16.1623 24.0675 16.1623 23.4375 16.1699C23.402 16.1735 23.3676 16.1847 23.3368 16.2029C23.3059 16.2211 23.2794 16.2457 23.2588 16.2751C23.1074 16.5267 22.956 16.7889 22.8046 17.0374C22.7728 17.0877 22.7122 17.1532 22.6637 17.1532C22.1444 17.1532 21.625 17.1532 21.0768 17.1532C21.1132 17.0801 21.1344 17.0267 21.1616 16.9779C22.1863 15.1699 23.2109 13.3608 24.2355 11.5507C24.2582 11.4961 24.2976 11.4503 24.348 11.4198C24.3984 11.3894 24.4572 11.376 24.5157 11.3815C25.0123 11.4059 25.5211 11.3998 26.0451 11.3998ZM24.8851 13.1774L23.9357 15.0068H25.2198C25.1062 14.4107 24.9987 13.8207 24.8821 13.1774H24.8851Z" fill="#7E91B4"/>
<path d="M18.6253 13.6805C18.8918 13.6805 19.1401 13.6805 19.3824 13.6805C19.8078 13.6736 20.2292 13.7637 20.615 13.9442C20.8866 14.078 21.1062 14.2989 21.2395 14.5721C21.3727 14.8453 21.4119 15.1554 21.3509 15.4535C21.1995 16.4383 20.5938 16.9368 19.5868 17.1076C19.3298 17.1475 19.07 17.1668 18.81 17.1655C18.0953 17.1655 17.3805 17.1655 16.6673 17.1655H16.4538C16.7809 15.2294 17.105 13.3177 17.429 11.4029H21.3509C21.2919 11.781 21.2343 12.1499 21.1737 12.5326H18.8115C18.7434 12.9182 18.6858 13.2872 18.6253 13.6805ZM18.4738 14.7629C18.4042 15.1867 18.3391 15.577 18.2709 15.9825C18.4858 15.9941 18.7011 15.9941 18.916 15.9825C19.1126 15.9643 19.3058 15.9186 19.4899 15.8468C19.7185 15.7508 19.8306 15.4581 19.7927 15.1791C19.7609 14.9839 19.6186 14.8528 19.3476 14.8223C19.0765 14.7918 18.7767 14.7797 18.4738 14.7629Z" fill="#7E91B4"/>
<path d="M18.171 6.57024V8.51092H16.7112V2.7773C16.7279 2.76968 16.7445 2.75596 16.7597 2.75596C17.6016 2.75596 18.4435 2.73461 19.2839 2.77273C20.3106 2.81999 20.995 3.59138 21.0026 4.6448C21.0102 5.69823 20.3409 6.45133 19.3248 6.54127C19.0053 6.57024 18.6843 6.56109 18.3633 6.57024H18.171ZM18.171 5.29119C18.4132 5.29119 18.6434 5.30948 18.869 5.29119C19.2173 5.2546 19.4005 5.02897 19.4051 4.68139C19.4096 4.33381 19.2461 4.08989 18.8948 4.04415C18.6537 4.02963 18.412 4.02963 18.171 4.04415V5.29119Z" fill="#7E91B4"/>
<path d="M46.4299 4.92985V4.6097H47.7927V8.5124H46.448V8.15719C46.4177 8.15719 46.4011 8.14805 46.3965 8.15719C45.9544 8.7426 45.0125 8.80663 44.3705 8.43618C43.627 8.00779 43.2984 7.32787 43.3241 6.48483C43.3499 5.68142 43.683 5.02589 44.425 4.66458C45.0988 4.33682 45.7621 4.38408 46.3572 4.88716C46.3723 4.89631 46.392 4.90545 46.4299 4.92985ZM45.6107 7.43611C45.7264 7.44299 45.8422 7.42511 45.9506 7.38364C46.059 7.34217 46.1574 7.27807 46.2394 7.19554C46.3213 7.11301 46.385 7.01393 46.4262 6.90483C46.4674 6.79573 46.4851 6.67909 46.4783 6.56258C46.4826 6.44428 46.463 6.32635 46.4208 6.21586C46.3787 6.10536 46.3147 6.0046 46.2329 5.91961C46.151 5.83463 46.053 5.76718 45.9446 5.72132C45.8362 5.67547 45.7197 5.65215 45.6021 5.65276C45.4846 5.65338 45.3683 5.67792 45.2604 5.72492C45.1525 5.77191 45.0551 5.84038 44.9742 5.92622C44.8932 6.01206 44.8303 6.11349 44.7893 6.22442C44.7483 6.33535 44.7299 6.45348 44.7354 6.57172C44.7293 6.68829 44.7479 6.80484 44.79 6.91362C44.832 7.0224 44.8966 7.12093 44.9794 7.20268C45.0621 7.28443 45.1612 7.34751 45.2701 7.38776C45.3789 7.428 45.495 7.44449 45.6107 7.43611Z" fill="#7E91B4"/>
<path d="M25.6498 8.51245H24.3022L24.284 8.17097C24.2673 8.17097 24.2507 8.1603 24.2461 8.17097C23.5738 8.82802 22.5729 8.82802 21.8476 8.17097C20.8951 7.30506 20.9708 5.60982 21.999 4.83385C22.3327 4.5825 22.7429 4.45584 23.1593 4.47558C23.5756 4.49533 23.9722 4.66026 24.281 4.94209L24.3022 4.61585H25.6514L25.6498 8.51245ZM22.5971 6.54738C22.588 6.66337 22.6035 6.77997 22.6424 6.88951C22.6814 6.99904 22.7429 7.09903 22.8231 7.18286C22.9032 7.2667 23 7.33249 23.1073 7.37588C23.2145 7.41928 23.3296 7.43931 23.4451 7.43464C23.562 7.44447 23.6796 7.42916 23.7902 7.3897C23.9007 7.35025 24.0017 7.28756 24.0863 7.2058C24.171 7.12405 24.2374 7.02509 24.2811 6.91551C24.3249 6.80593 24.3449 6.68824 24.34 6.57025C24.334 6.34346 24.2411 6.1278 24.0807 5.96846C23.9203 5.80913 23.7048 5.71848 23.4795 5.71553C23.2542 5.71257 23.0364 5.79753 22.8719 5.9526C22.7075 6.10768 22.609 6.32082 22.5971 6.54738Z" fill="#7E91B4"/>
<path d="M51.28 6.45592C50.9408 6.99559 50.5774 7.52307 50.2745 8.07798C50.0807 8.43624 49.8505 8.58716 49.4493 8.53533C49.2019 8.51548 48.9535 8.51242 48.7058 8.52618C48.6887 8.52314 48.672 8.51855 48.6558 8.51246V4.60824H50.0186V6.59008L50.0625 6.6038L50.3351 6.18761C50.6531 5.69978 50.9726 5.21194 51.2876 4.71953C51.3094 4.67763 51.343 4.64314 51.3843 4.62037C51.4255 4.59759 51.4724 4.58754 51.5193 4.59147C51.9054 4.59909 52.2915 4.59147 52.6852 4.59147V8.50484H51.3224V6.46812L51.28 6.45592Z" fill="#7E91B4"/>
<path d="M30.5484 8.51393H29.1856V6.46654L29.1493 6.44824C29.116 6.49855 29.0796 6.54733 29.0478 6.60069C28.6798 7.18762 28.3089 7.7715 27.9485 8.36301C27.9206 8.41815 27.8766 8.46344 27.8225 8.49285C27.7684 8.52226 27.7067 8.5344 27.6456 8.52765C27.2761 8.5185 26.9082 8.52765 26.5236 8.52765V4.60666H27.8697V6.60984L27.9106 6.62813C27.9485 6.57325 27.9894 6.51989 28.0257 6.46349C28.4012 5.88723 28.7747 5.31097 29.1462 4.73471C29.1693 4.68974 29.205 4.6526 29.2489 4.62792C29.2928 4.60325 29.3429 4.59214 29.3931 4.59598C29.7731 4.60666 30.1502 4.59598 30.5469 4.59598L30.5484 8.51393Z" fill="#7E91B4"/>
<path d="M62.0281 4.60824H63.3834V5.98028H64.6296V4.60977H66V8.50942H64.6372V6.97425H63.3909V8.50637H62.0281V4.60824Z" fill="#7E91B4"/>
<path d="M61.3452 6.87514H58.5045C58.4182 7.42396 58.9027 7.85234 59.4781 7.72581C59.6374 7.66657 59.7866 7.58274 59.9203 7.47732C59.9672 7.44835 60.0142 7.39347 60.0611 7.39195C60.4669 7.39195 60.8712 7.39195 61.2937 7.39195C61.2514 7.59629 61.169 7.79004 61.0512 7.9618C60.9334 8.13355 60.7826 8.27983 60.6078 8.39201C59.8294 8.91491 58.5242 8.84936 57.8034 8.25786C57.2628 7.81118 57.0735 7.20596 57.1159 6.52908C57.1992 5.22564 58.1062 4.46187 59.41 4.55792C60.1035 4.60975 60.6804 4.85519 61.0469 5.47261C61.2801 5.90082 61.3838 6.38835 61.3452 6.87514ZM58.5196 6.05649H60.0596C60.0146 5.88543 59.9147 5.73414 59.7755 5.6262C59.6362 5.51826 59.4654 5.45973 59.2896 5.45973C59.1138 5.45973 58.943 5.51826 58.8037 5.6262C58.6645 5.73414 58.5646 5.88543 58.5196 6.05649Z" fill="#7E91B4"/>
<path d="M54.1752 6.94218V6.07017H54.9218C54.9921 6.07885 55.0634 6.06533 55.1258 6.03146C55.1882 5.9976 55.2386 5.94508 55.27 5.88114C55.291 5.83956 55.3022 5.79369 55.3028 5.74706C55.3034 5.70044 55.2934 5.65429 55.2735 5.61218C55.2536 5.57007 55.2244 5.53312 55.1881 5.50415C55.1518 5.47519 55.1094 5.455 55.0641 5.44513C54.7007 5.33232 54.3585 5.42836 54.0253 5.57319C53.9329 5.61435 53.8436 5.66618 53.7346 5.72564C53.6104 5.43294 53.4923 5.1509 53.3666 4.8521C53.6678 4.69171 53.9923 4.58056 54.3282 4.52281C54.7434 4.43002 55.174 4.43263 55.588 4.53044C56.0272 4.64325 56.4012 4.84905 56.4966 5.34299C56.5521 5.56428 56.5312 5.79799 56.4374 6.00575C56.3435 6.21352 56.1823 6.38299 55.9802 6.48636C56.0089 6.50005 56.0382 6.51226 56.068 6.52295C56.2395 6.57215 56.3931 6.67034 56.5103 6.80562C56.6275 6.94091 56.7032 7.10748 56.7283 7.28519C56.7642 7.48201 56.7432 7.68506 56.6677 7.8702C56.5923 8.05533 56.4656 8.21475 56.3028 8.32947C56.0528 8.51508 55.7567 8.62746 55.4472 8.65419C54.6821 8.75705 53.9048 8.60042 53.2379 8.20904L53.5877 7.28519L53.8906 7.43764C54.1871 7.59197 54.521 7.65857 54.8536 7.62973C54.9497 7.62182 55.0436 7.59651 55.1307 7.55503C55.193 7.52863 55.2447 7.48203 55.2776 7.42263C55.3105 7.36324 55.3228 7.29447 55.3124 7.22726C55.3094 7.16212 55.283 7.10029 55.2382 7.0532C55.1934 7.00612 55.1332 6.97697 55.0686 6.97115C54.9135 6.95032 54.7572 6.93861 54.6007 6.93608C54.4629 6.93761 54.3236 6.94218 54.1752 6.94218Z" fill="#7E91B4"/>
<path d="M52.3188 3.17977C52.075 3.78957 51.5056 4.10666 50.694 4.09446C50.008 4.08227 49.4447 3.73011 49.2479 3.17977C49.5401 3.07 49.8309 2.95872 50.1322 2.84286C50.1635 2.98977 50.2476 3.11987 50.3683 3.20821C50.489 3.29655 50.6379 3.33691 50.7864 3.32155C50.9331 3.33371 51.0791 3.29168 51.1973 3.2033C51.3155 3.11493 51.3976 2.98625 51.4284 2.84133L52.3188 3.17977Z" fill="#7E91B4"/>
<path d="M30.1714 3.17821C30.0063 3.71636 29.4037 4.09291 28.7056 4.09291C27.9061 4.09291 27.3019 3.75752 27.1111 3.17821L27.9894 2.83977C28.0969 3.20108 28.3528 3.33676 28.7056 3.31694C28.9903 3.3017 29.1341 3.19041 29.3022 2.84435L30.1714 3.17821Z" fill="#7E91B4"/>
<path d="M4.08848 6.91168C4.08848 7.28975 4.0809 7.67393 4.08848 8.04285C4.09638 8.12092 4.08503 8.19974 4.05545 8.27233C4.02587 8.34493 3.97896 8.40905 3.91888 8.45904C3.79579 8.57668 3.67903 8.70085 3.56909 8.83102L1.44914 6.68606L0.978211 7.22573L0.908556 7.19981C0.952469 6.92388 0.976697 6.64185 1.04484 6.37201C1.21398 5.60124 1.66338 4.92204 2.30469 4.46792C3.0815 3.92825 3.97945 4.02429 4.64723 4.69659C5.25293 5.30639 5.85863 5.91619 6.46433 6.52598C6.52792 6.57678 6.59524 6.62265 6.66573 6.66319L6.08425 7.1617L7.15634 8.23951L8.21632 7.17237L7.65756 6.71502L7.8317 6.53056C8.4374 5.92076 9.06429 5.32316 9.64879 4.6905C9.96164 4.35723 10.3886 4.15608 10.8432 4.12777C11.2978 4.09947 11.7461 4.24612 12.0973 4.53805C12.7886 5.09098 13.2335 5.89755 13.3345 6.78057C13.3565 6.9225 13.3565 7.06703 13.3345 7.20896L12.8923 6.68453L10.7739 8.83407C10.5891 8.6496 10.418 8.48801 10.2605 8.31269C10.2294 8.25442 10.2172 8.18775 10.2257 8.12213C10.2257 7.78217 10.2257 7.44068 10.2257 7.09919V6.90406L10.1788 6.88119C10.0137 7.04736 9.84262 7.20896 9.69119 7.38275C9.65939 7.41934 9.66696 7.49861 9.66696 7.55807C9.66696 8.00322 9.65939 8.44837 9.66696 8.892C9.67152 8.96084 9.66022 9.02981 9.63395 9.09354C9.60769 9.15726 9.56716 9.21402 9.51554 9.2594C9.28234 9.48045 9.06126 9.71675 8.8205 9.94542L12.9165 14.0615C12.3472 14.6348 11.8036 15.1805 11.2509 15.7385L7.1624 11.6224L3.06182 15.7492L1.42037 14.0951L5.50884 9.97896C5.24082 9.70912 4.99248 9.4713 4.75172 9.21671C4.6825 9.13795 4.64146 9.03813 4.63512 8.93316C4.62301 8.47581 4.63512 8.01846 4.62452 7.56111C4.61591 7.46311 4.57788 7.37006 4.51549 7.29433C4.40344 7.14188 4.2717 7.0123 4.14753 6.87204L4.08848 6.91168Z" fill="#7E91B4"/>
</svg>
