<svg width="120" height="36" viewBox="0 0 120 36" fill="none" xmlns="http://www.w3.org/2000/svg">
<path d="M26.0203 5.0272V31.1847H0V5.0272H26.0203ZM13.039 5.9114C9.12954 5.9114 5.22002 5.9114 1.31051 5.9114C0.960859 5.9114 0.89203 6.0195 0.89203 6.34381C0.89203 14.1936 0.89203 22.047 0.89203 29.9041C0.89203 30.2257 0.960859 30.3338 1.31051 30.3338C9.10751 30.3227 16.9036 30.3227 24.6988 30.3338C25.1283 30.3338 25.1283 30.3338 25.1283 29.8958V6.35212C25.1283 5.91418 25.1283 5.9114 24.7015 5.9114H13.039Z" fill="#7E91B4"/>
<path d="M71.8249 8.23443V5.18821H74.3028V8.2372C75.6133 8.30372 76.8219 8.57536 77.6259 9.71457C78.1985 10.5295 78.2866 11.4636 78.2068 12.4171C78.0443 14.3851 76.8302 15.3829 74.3248 15.6296V18.5843H71.8304V15.6324C70.5832 15.5631 69.4352 15.3164 68.6202 14.2964C67.987 13.5064 67.8769 12.5723 67.9099 11.5966C67.9787 9.57598 69.1819 8.53101 71.8249 8.23443ZM71.946 13.9416V10.061C71.0788 9.99452 70.3547 10.7762 70.2941 11.8156C70.2418 13.0407 70.8861 13.9028 71.946 13.9416ZM74.1899 10.0389V13.9194C75.0984 13.9804 75.8088 13.171 75.8418 12.0623C75.8748 10.8926 75.192 10.0333 74.1899 10.0389Z" fill="#7E91B4"/>
<path d="M63.1606 18.5843H60.6525V15.6324C59.4136 15.5631 58.2793 15.3164 57.4643 14.3185C56.9306 13.6284 56.6644 12.7664 56.7155 11.8932C56.7155 10.8482 56.9908 9.8975 57.8002 9.17961C58.6096 8.46171 59.5733 8.29263 60.6195 8.25105V5.19375H63.1359V8.24274C64.4354 8.30926 65.633 8.5809 66.4397 9.70071C66.9903 10.4851 67.1087 11.3943 67.0454 12.3311C66.9105 14.3462 65.7817 15.3108 63.1551 15.6573L63.1606 18.5843ZM63.001 10.0389V13.9194C63.9728 13.9471 64.6859 13.1017 64.6721 11.957C64.6584 10.8122 63.9563 9.99174 63.001 10.0444V10.0389ZM60.7764 10.0389C59.8128 10.0111 59.1245 10.8177 59.1245 11.9791C59.1245 13.1405 59.8045 13.9582 60.7764 13.9332V10.0389Z" fill="#7E91B4"/>
<path d="M56.7155 31.1905C56.9522 29.6937 57.1835 28.2219 57.4175 26.7306H53.6539C53.497 27.698 53.3428 28.6709 53.1886 29.6189C53.1171 30.0651 53.0592 30.5169 52.9711 30.9604C52.9519 31.0574 52.828 31.2016 52.7509 31.2043C51.8919 31.221 51.0356 31.2043 50.1464 31.2043C50.2648 30.4421 50.3776 29.7131 50.496 28.9869C50.9338 26.3454 51.3633 23.6844 51.7845 21.029C51.8203 20.7934 51.8919 20.7158 52.1314 20.7214C52.9574 20.7214 53.7558 20.7214 54.6093 20.7214C54.4 22.0269 54.1963 23.2908 53.987 24.6019C54.0783 24.6156 54.1702 24.6249 54.2624 24.6296C55.3196 24.6296 56.3741 24.6296 57.4313 24.6296C57.7066 24.6296 57.7644 24.5326 57.8002 24.2942C57.9709 23.1855 58.1544 22.0712 58.3508 20.9514C58.3674 20.8655 58.483 20.7325 58.5546 20.7325C59.4108 20.7158 60.267 20.7325 61.1618 20.7325C61.0269 21.5945 60.8865 22.4233 60.7654 23.2493C60.3552 25.8049 59.9394 28.3605 59.5375 30.9188C59.5017 31.16 59.4191 31.2293 59.1851 31.2265C58.4582 31.2265 57.7314 31.2265 57.0045 31.2265C56.9219 31.2127 56.8366 31.1988 56.7155 31.1905Z" fill="#7E91B4"/>
<path d="M64.8869 24.9927C65.2916 24.5936 65.6798 24.2222 66.0542 23.8369C66.9903 22.8695 67.9181 21.8966 68.8542 20.9265C68.9361 20.8269 69.0501 20.7592 69.1763 20.7353C70.2776 20.7353 71.3954 20.7353 72.5985 20.7353L67.4198 25.694L71.2357 31.1877C71.1063 31.1877 71.0182 31.2127 70.9301 31.2127C69.8949 31.2127 68.8597 31.2127 67.8245 31.2127C67.7331 31.2193 67.6418 31.1984 67.5624 31.1524C67.4829 31.1065 67.4189 31.0377 67.3785 30.9549C66.5305 29.6217 65.6715 28.2967 64.8153 26.969C64.7685 26.8942 64.7162 26.8249 64.6171 26.6919C64.5455 27.1104 64.4822 27.4596 64.4244 27.8006C64.2454 28.8594 64.0747 29.9182 63.8875 30.9743C63.871 31.063 63.7581 31.1988 63.6893 31.2016C62.8082 31.2016 61.93 31.2016 60.9966 31.2016C61.5748 27.7008 62.1475 24.236 62.7229 20.7436H65.611C65.3715 22.16 65.1319 23.5736 64.8869 24.9927Z" fill="#7E91B4"/>
<path d="M47.3547 20.7269C48.1531 24.2332 48.9405 27.6925 49.7444 31.2154H49.2268C48.478 31.2154 47.7291 31.2154 46.9802 31.2154C46.771 31.2154 46.6664 31.1738 46.6278 30.9382C46.5507 30.5031 46.4241 30.0762 46.3525 29.641C46.314 29.4526 46.2424 29.386 46.0496 29.386C44.9043 29.386 43.759 29.386 42.6137 29.3999C42.5491 29.4064 42.4866 29.4268 42.4305 29.4598C42.3744 29.4928 42.3261 29.5376 42.2888 29.5911C42.0135 30.0485 41.7382 30.5252 41.4629 30.977C41.405 31.0685 41.2949 31.1877 41.2068 31.1877C40.2625 31.1877 39.3181 31.1877 38.3215 31.1877C38.3876 31.0547 38.4261 30.9576 38.4757 30.8689C40.3386 27.5816 42.2016 24.2924 44.0646 21.0013C44.1058 20.9021 44.1775 20.8187 44.2691 20.7633C44.3607 20.708 44.4676 20.6836 44.5739 20.6937C45.477 20.738 46.4021 20.7269 47.3547 20.7269ZM45.2457 23.9588L43.5195 27.285H45.8542C45.6477 26.2012 45.4522 25.1285 45.2402 23.9588H45.2457Z" fill="#7E91B4"/>
<path d="M33.8641 24.8736C34.3487 24.8736 34.8002 24.8736 35.2407 24.8736C36.0141 24.861 36.7803 25.025 37.4818 25.3531C37.9755 25.5963 38.375 25.9979 38.6172 26.4947C38.8594 26.9915 38.9307 27.5552 38.8198 28.0972C38.5445 29.8878 37.4432 30.7942 35.6124 31.1046C35.1451 31.1772 34.6728 31.2124 34.2 31.21C32.9005 31.21 31.601 31.21 30.3042 31.21H29.916C30.5107 27.6898 31.0999 24.2139 31.6891 20.7325H38.8198C38.7125 21.42 38.6078 22.0907 38.4977 22.7865H34.2027C34.0789 23.4877 33.9742 24.1585 33.8641 24.8736ZM33.5888 26.8416C33.4621 27.6122 33.3438 28.3217 33.2199 29.059C33.6105 29.0801 34.002 29.0801 34.3927 29.059C34.7502 29.026 35.1014 28.9429 35.4362 28.8124C35.8519 28.6377 36.0556 28.1055 35.9868 27.5983C35.929 27.2435 35.6702 27.0051 35.1774 26.9497C34.6846 26.8943 34.1394 26.8721 33.5888 26.8416Z" fill="#7E91B4"/>
<path d="M33.0381 11.9459V15.4744H30.3841V5.04964C30.4143 5.03578 30.4446 5.01083 30.4722 5.01083C32.0029 5.01083 33.5337 4.97203 35.0617 5.04132C36.9284 5.12725 38.1728 6.52978 38.1866 8.4451C38.2003 10.3604 36.9834 11.7297 35.1361 11.8932C34.5551 11.9459 33.9715 11.9293 33.3878 11.9459H33.0381ZM33.0381 9.62034C33.4786 9.62034 33.8971 9.6536 34.3073 9.62034C34.9406 9.55382 35.2737 9.14359 35.282 8.51162C35.2902 7.87965 34.9929 7.43616 34.3541 7.353C33.9159 7.32659 33.4764 7.32659 33.0381 7.353V9.62034Z" fill="#7E91B4"/>
<path d="M84.4179 8.96336V8.38128H86.8958V15.4771H84.451V14.8313C84.3959 14.8313 84.3656 14.8146 84.3574 14.8313C83.5534 15.8956 81.841 16.012 80.6736 15.3385C79.3218 14.5596 78.7244 13.3234 78.7712 11.7906C78.818 10.3299 79.4237 9.13798 80.7727 8.48106C81.9979 7.88512 83.2038 7.97105 84.2858 8.88575C84.3133 8.90238 84.3491 8.91901 84.4179 8.96336ZM82.9285 13.5202C83.1389 13.5327 83.3495 13.5002 83.5466 13.4248C83.7436 13.3494 83.9225 13.2328 84.0716 13.0828C84.2206 12.9327 84.3364 12.7526 84.4113 12.5542C84.4862 12.3559 84.5184 12.1438 84.506 11.932C84.5137 11.7169 84.4782 11.5024 84.4015 11.3016C84.3248 11.1007 84.2086 10.9175 84.0598 10.7629C83.911 10.6084 83.7327 10.4858 83.5356 10.4024C83.3385 10.319 83.1267 10.2766 82.913 10.2777C82.6992 10.2789 82.4879 10.3235 82.2917 10.4089C82.0955 10.4944 81.9184 10.6189 81.7712 10.7749C81.624 10.931 81.5097 11.1154 81.4351 11.3171C81.3605 11.5188 81.3272 11.7336 81.3371 11.9486C81.326 12.1605 81.3599 12.3724 81.4363 12.5702C81.5128 12.768 81.6302 12.9472 81.7807 13.0958C81.9312 13.2444 82.1113 13.3591 82.3092 13.4323C82.5071 13.5055 82.7182 13.5354 82.9285 13.5202Z" fill="#7E91B4"/>
<path d="M46.6361 15.4772H44.1857L44.1527 14.8563C44.1224 14.8563 44.0921 14.8369 44.0839 14.8563C42.8615 16.0509 41.0416 16.0509 39.7228 14.8563C37.9911 13.2819 38.1288 10.1997 39.9982 8.78883C40.605 8.33181 41.3508 8.10152 42.1078 8.13743C42.8647 8.17333 43.5858 8.4732 44.1472 8.98562L44.1857 8.39246H46.6388L46.6361 15.4772ZM41.0857 11.9043C41.0692 12.1152 41.0972 12.3272 41.168 12.5264C41.2388 12.7255 41.3508 12.9073 41.4965 13.0598C41.6422 13.2122 41.8183 13.3318 42.0132 13.4107C42.2082 13.4896 42.4175 13.526 42.6274 13.5175C42.84 13.5354 43.0539 13.5076 43.2549 13.4358C43.4559 13.3641 43.6395 13.2501 43.7934 13.1015C43.9473 12.9528 44.068 12.7729 44.1475 12.5737C44.227 12.3744 44.2635 12.1604 44.2546 11.9459C44.2437 11.5336 44.0747 11.1414 43.7831 10.8517C43.4914 10.562 43.0997 10.3972 42.69 10.3919C42.2803 10.3865 41.8844 10.541 41.5854 10.8229C41.2863 11.1049 41.1072 11.4924 41.0857 11.9043Z" fill="#7E91B4"/>
<path d="M93.2364 11.738C92.6196 12.7193 91.9589 13.6783 91.4083 14.6872C91.0558 15.3386 90.6374 15.613 89.9078 15.5188C89.458 15.4827 89.0064 15.4771 88.556 15.5022C88.525 15.4966 88.4946 15.4883 88.4651 15.4772V8.37862H90.943V11.982L91.0228 12.0069L91.5184 11.2502C92.0965 10.3632 92.6775 9.47625 93.2501 8.58096C93.2899 8.50478 93.351 8.44207 93.4259 8.40067C93.5008 8.35926 93.5862 8.34098 93.6714 8.34813C94.3734 8.36198 95.0755 8.34813 95.7913 8.34813V15.4633H93.3134V11.7602L93.2364 11.738Z" fill="#7E91B4"/>
<path d="M55.5426 15.4799H53.0647V11.7573L52.9987 11.7241C52.9381 11.8155 52.872 11.9042 52.8142 12.0013C52.1452 13.0684 51.4707 14.13 50.8154 15.2055C50.7646 15.3057 50.6848 15.3881 50.5864 15.4415C50.4881 15.495 50.3759 15.5171 50.2648 15.5048C49.593 15.4882 48.924 15.5048 48.2247 15.5048V8.37574H50.6722V12.0179L50.7466 12.0511C50.8154 11.9514 50.8897 11.8544 50.9558 11.7518C51.6386 10.7041 52.3177 9.65631 52.9932 8.60857C53.0351 8.5268 53.1 8.45927 53.1798 8.41441C53.2596 8.36955 53.3508 8.34935 53.4419 8.35634C54.133 8.37574 54.8185 8.35634 55.5398 8.35634L55.5426 15.4799Z" fill="#7E91B4"/>
<path d="M112.778 8.37862H115.243V10.8732H117.508V8.38139H120V15.4717H117.522V12.6805H115.256V15.4661H112.778V8.37862Z" fill="#7E91B4"/>
<path d="M111.537 12.5003H106.372C106.215 13.4981 107.096 14.277 108.142 14.0469C108.432 13.9392 108.703 13.7868 108.946 13.5951C109.031 13.5425 109.117 13.4427 109.202 13.4399C109.94 13.4399 110.675 13.4399 111.443 13.4399C111.366 13.8114 111.216 14.1637 111.002 14.476C110.788 14.7883 110.514 15.0542 110.196 15.2582C108.781 16.2089 106.408 16.0897 105.097 15.0143C104.114 14.2021 103.77 13.1017 103.847 11.8711C103.999 9.50117 105.648 8.1125 108.018 8.28712C109.279 8.38136 110.328 8.82762 110.994 9.9502C111.418 10.7288 111.607 11.6152 111.537 12.5003ZM106.399 11.0118H109.199C109.118 10.7008 108.936 10.4257 108.683 10.2295C108.429 10.0332 108.119 9.92678 107.799 9.92678C107.48 9.92678 107.169 10.0332 106.916 10.2295C106.663 10.4257 106.481 10.7008 106.399 11.0118Z" fill="#7E91B4"/>
<path d="M98.5004 12.6221V11.0367H99.8577C99.9856 11.0525 100.115 11.0279 100.229 10.9663C100.342 10.9047 100.434 10.8092 100.491 10.693C100.529 10.6174 100.549 10.534 100.551 10.4492C100.552 10.3644 100.533 10.2805 100.497 10.204C100.461 10.1274 100.408 10.0602 100.342 10.0076C100.276 9.9549 100.199 9.91818 100.117 9.90024C99.4558 9.69512 98.8335 9.86975 98.2279 10.1331C98.0599 10.2079 97.8975 10.3021 97.6992 10.4102C97.4735 9.87806 97.2587 9.36528 97.0302 8.82201C97.5778 8.53039 98.1679 8.32829 98.7785 8.2233C99.5334 8.05458 100.316 8.05932 101.069 8.23716C101.868 8.44227 102.548 8.81646 102.721 9.71453C102.822 10.1169 102.784 10.5418 102.613 10.9195C102.443 11.2973 102.15 11.6054 101.782 11.7934C101.834 11.8183 101.888 11.8405 101.942 11.8599C102.254 11.9494 102.533 12.1279 102.746 12.3739C102.959 12.6198 103.097 12.9227 103.142 13.2458C103.208 13.6036 103.169 13.9728 103.032 14.3094C102.895 14.6461 102.665 14.9359 102.369 15.1445C101.914 15.482 101.376 15.6863 100.813 15.7349C99.422 15.9219 98.0086 15.6371 96.7962 14.9255L97.4322 13.2458L97.9828 13.523C98.522 13.8036 99.1291 13.9247 99.7338 13.8722C99.9085 13.8579 100.079 13.8118 100.238 13.7364C100.351 13.6884 100.445 13.6037 100.505 13.4957C100.565 13.3877 100.587 13.2627 100.568 13.1405C100.563 13.022 100.515 12.9096 100.433 12.824C100.352 12.7384 100.242 12.6854 100.125 12.6748C99.8427 12.6369 99.5586 12.6157 99.2741 12.6111C99.0235 12.6138 98.7702 12.6221 98.5004 12.6221Z" fill="#7E91B4"/>
<path d="M95.125 5.7814C94.6818 6.89012 93.6466 7.46665 92.1709 7.44448C90.9237 7.4223 89.8995 6.78202 89.5416 5.7814C90.073 5.58183 90.6016 5.37949 91.1494 5.16883C91.2064 5.43594 91.3592 5.67249 91.5787 5.83311C91.7982 5.99373 92.0689 6.06711 92.3388 6.03917C92.6056 6.0613 92.8712 5.98488 93.086 5.82419C93.3008 5.6635 93.4502 5.42955 93.5062 5.16606L95.125 5.7814Z" fill="#7E91B4"/>
<path d="M54.8571 5.77857C54.557 6.75701 53.4612 7.44165 52.192 7.44165C50.7383 7.44165 49.6398 6.83185 49.2929 5.77857L50.8897 5.16323C51.0852 5.82014 51.5505 6.06683 52.192 6.0308C52.7096 6.00308 52.9711 5.80074 53.2767 5.17154L54.8571 5.77857Z" fill="#7E91B4"/>
<path d="M7.43359 12.5667C7.43359 13.2541 7.41983 13.9526 7.43359 14.6234C7.44796 14.7653 7.42733 14.9086 7.37354 15.0406C7.31976 15.1726 7.23447 15.2892 7.12524 15.3801C6.90144 15.594 6.68914 15.8197 6.48925 16.0564L2.6348 12.1565L1.77857 13.1377L1.65192 13.0906C1.73176 12.5889 1.77581 12.0761 1.89971 11.5855C2.20724 10.1841 3.02432 8.94916 4.19035 8.12349C5.60273 7.14227 7.23536 7.3169 8.44951 8.53926C9.55079 9.64798 10.6521 10.7567 11.7533 11.8654C11.8689 11.9578 11.9913 12.0412 12.1195 12.1149L11.0623 13.0213L13.0115 14.9809L14.9388 13.0407L13.9228 12.2091L14.2394 11.8737C15.3407 10.765 16.4805 9.67847 17.5433 8.52817C18.1121 7.92223 18.8883 7.55651 19.7149 7.50504C20.5414 7.45358 21.3565 7.72022 21.9951 8.25099C23.252 9.25633 24.061 10.7228 24.2445 12.3283C24.2846 12.5864 24.2846 12.8491 24.2445 13.1072L23.4406 12.1537L19.5889 16.0619C19.253 15.7265 18.9419 15.4327 18.6555 15.114C18.5989 15.008 18.5767 14.8868 18.5922 14.7675C18.5922 14.1494 18.5922 13.5285 18.5922 12.9076V12.5528L18.5069 12.5113C18.2068 12.8134 17.8957 13.1072 17.6203 13.4232C17.5625 13.4897 17.5763 13.6338 17.5763 13.7419C17.5763 14.5513 17.5625 15.3607 17.5763 16.1673C17.5846 16.2924 17.564 16.4178 17.5163 16.5337C17.4685 16.6496 17.3948 16.7528 17.301 16.8353C16.877 17.2372 16.475 17.6668 16.0373 18.0826L23.4846 25.5665C22.4494 26.6086 21.461 27.601 20.4561 28.6154L13.0225 21.1316L5.56694 28.6348L2.58249 25.6274L10.0161 18.1436C9.52876 17.653 9.07724 17.2205 8.63948 16.7577C8.51364 16.6144 8.43901 16.433 8.42749 16.2421C8.40546 15.4106 8.42749 14.579 8.40822 13.7475C8.39256 13.5693 8.32343 13.4001 8.20999 13.2624C8.00625 12.9852 7.76673 12.7496 7.54097 12.4946L7.43359 12.5667Z" fill="#7E91B4"/>
</svg>
