<svg width="66" height="20" viewBox="0 0 66 20" fill="none" xmlns="http://www.w3.org/2000/svg">
<path d="M15.6742 4.28863H18.6337C20.1321 4.28863 21.1435 5.5091 21.1435 6.69259C21.1435 7.91306 20.1321 9.13352 18.6337 9.13352H16.7981V11.0937H15.6742V4.28863ZM18.5213 8.09798C19.4953 8.09798 20.0197 7.3583 20.0197 6.69259C20.0197 5.98989 19.4953 5.2872 18.5213 5.2872H16.7981V8.09798H18.5213Z" fill="#7E91B4"/>
<path d="M21.4807 8.61575C21.4807 7.17338 22.4921 6.02688 24.0655 6.02688C25.6763 6.02688 26.463 7.3583 26.463 8.68972V8.94861H22.6045C22.7544 9.79924 23.5036 10.28 24.515 10.28C25.1519 10.28 25.6763 10.0951 26.1259 9.83622V10.7608C25.7138 11.0567 25.0395 11.2416 24.2903 11.2416C22.7169 11.2416 21.4807 10.2061 21.4807 8.61575ZM25.3392 8.09798C25.3392 7.5802 24.9271 6.91449 24.028 6.91449C23.1664 6.91449 22.6794 7.50623 22.642 8.09798H25.3392Z" fill="#7E91B4"/>
<path d="M27.437 6.13786H28.5608V8.06102H31.1082V6.13786H32.232V11.0937H31.1082V9.0226H28.5608V11.0937H27.437V6.13786Z" fill="#7E91B4"/>
<path d="M33.1685 8.61575C33.1685 7.17338 34.18 6.02688 35.7533 6.02688C37.3641 6.02688 38.1508 7.3583 38.1508 8.68972V8.94861H34.2923C34.4422 9.79924 35.1914 10.28 36.2028 10.28C36.8397 10.28 37.3641 10.0951 37.8137 9.83622V10.7608C37.4016 11.0567 36.7273 11.2416 35.9781 11.2416C34.4047 11.2416 33.1685 10.2061 33.1685 8.61575ZM37.027 8.09798C37.027 7.5802 36.6149 6.91449 35.7159 6.91449C34.8543 6.91449 34.3673 7.50623 34.3298 8.09798H37.027Z" fill="#7E91B4"/>
<path d="M38.7876 8.61575C38.7876 7.06243 40.0239 6.02688 41.5223 6.02688C42.1217 6.02688 42.5712 6.13783 43.0207 6.35973V7.28433C42.5712 7.06243 42.1591 6.95148 41.6721 6.95148C40.6982 6.95148 39.874 7.61719 39.874 8.61575C39.874 9.61432 40.6607 10.28 41.6721 10.28C42.2341 10.28 42.6836 10.1691 43.0957 9.91019V10.8348C42.6087 11.0937 42.1217 11.2416 41.4848 11.2416C40.0239 11.2416 38.7876 10.1691 38.7876 8.61575Z" fill="#7E91B4"/>
<path d="M43.6576 8.61575C43.6576 7.06243 44.8938 6.02688 46.3922 6.02688C46.9916 6.02688 47.4411 6.13783 47.8907 6.35973V7.28433C47.4411 7.06243 47.0291 6.95148 46.5421 6.95148C45.5681 6.95148 44.7439 7.61719 44.7439 8.61575C44.7439 9.61432 45.5306 10.28 46.5421 10.28C47.104 10.28 47.5535 10.1691 47.9656 9.91019V10.8348C47.4786 11.0937 46.9916 11.2416 46.3548 11.2416C44.9313 11.2416 43.6576 10.1691 43.6576 8.61575Z" fill="#7E91B4"/>
<path d="M54.1092 10.1691V10.9827C53.9594 11.0937 53.6971 11.1307 53.4724 11.1307C52.9854 11.1307 52.5733 10.9088 52.4235 10.428C52.0488 10.8348 51.4495 11.2046 50.5879 11.2046C49.539 11.2046 48.7148 10.6129 48.7148 9.54035C48.7148 8.43083 49.539 8.09798 50.6253 8.09798C51.3745 8.09798 52.3485 8.09798 52.3485 8.09798V8.02401C52.3485 7.17338 51.6368 6.95148 50.8875 6.95148C50.2882 6.95148 49.6888 7.17338 49.3142 7.39528V6.4337C49.6888 6.24878 50.2507 6.02688 51.1498 6.02688C52.4984 6.02688 53.4724 6.65561 53.4724 7.91306V9.76225C53.4724 10.0581 53.6597 10.243 53.8844 10.243C53.8844 10.243 53.9968 10.243 54.1092 10.1691ZM52.2736 8.94861C52.2736 8.94861 51.4869 8.94861 50.9625 8.94861C50.2507 8.94861 49.7637 9.09654 49.7637 9.57733C49.7637 10.1321 50.2507 10.317 50.8501 10.317C51.4495 10.317 52.0114 10.0211 52.2736 9.72527V8.94861Z" fill="#7E91B4"/>
<path d="M54.8959 6.13786H56.0197V8.06102H58.5671V6.13786H59.6909V11.0937H58.5671V9.0226H56.0197V11.0937H54.8959V6.13786Z" fill="#7E91B4"/>
<path d="M60.6274 8.61575C60.6274 7.06243 61.8636 6.02688 63.3621 6.02688C63.9614 6.02688 64.411 6.13783 64.8605 6.35973V7.28433C64.411 7.06243 63.9989 6.95148 63.5119 6.95148C62.5379 6.95148 61.7138 7.61719 61.7138 8.61575C61.7138 9.61432 62.5005 10.28 63.5119 10.28C64.0738 10.28 64.5233 10.1691 64.9354 9.91019V10.8348C64.4484 11.0937 63.9614 11.2416 63.3246 11.2416C61.8636 11.2416 60.6274 10.1691 60.6274 8.61575Z" fill="#7E91B4"/>
<path d="M15.6742 13.7565H16.1987V14.7181L17.0978 13.7565H17.7346L16.6857 14.866L17.9219 16.1975H17.2851L16.2362 15.0879V16.1975H15.6742V13.7565Z" fill="#7E91B4"/>
<path d="M18.5962 13.7565H19.6826C20.207 13.7565 20.5442 14.0524 20.5442 14.4962C20.5442 14.94 20.207 15.2358 19.6826 15.2358H19.1206V16.1974H18.5962V13.7565ZM19.6451 14.792C19.8699 14.792 20.0197 14.6811 20.0197 14.4962C20.0197 14.3113 19.8699 14.2003 19.6451 14.2003H19.1206V14.792H19.6451Z" fill="#7E91B4"/>
<path d="M21.2934 13.7565H23.0915V14.2003H21.7804V14.6811H22.8293V15.1249H21.7804V15.7536H23.1664V16.1974H21.2934V13.7565Z" fill="#7E91B4"/>
<path d="M24.0655 15.7537C24.2903 15.4208 24.4026 14.977 24.4026 14.1633V13.7935H26.1258V15.7906H26.463V16.7522H25.976V16.2714H24.2903V16.7522H23.8033V15.7537H24.0655ZM25.6388 15.7537V14.2003H24.9271C24.9271 14.7181 24.8896 15.2359 24.6649 15.7537H25.6388Z" fill="#7E91B4"/>
<path d="M27.2497 13.7565H27.7741V15.3468L28.9729 13.7565H29.4224V16.1974H28.9354V14.6071L27.6618 16.1974H27.2497V13.7565Z" fill="#7E91B4"/>
<path d="M32.1945 13.7565V14.2003H31.4079V16.1974H30.8834V14.2003H30.0967V13.7565H32.1945Z" fill="#7E91B4"/>
<path d="M2.67528 13.7565H1.06445V6.91453C1.06445 4.58454 3.01242 2.66138 5.37247 2.66138H10.6919V6.87754C10.6919 9.24451 8.74395 11.1307 6.38391 11.1307H3.68672L4.2861 9.54038H6.34645C7.84489 9.54038 9.04364 8.3569 9.04364 6.87754V4.25168H5.335C3.83657 4.25168 2.63781 5.43517 2.63781 6.91453V13.7565H2.67528Z" fill="#7E91B4"/>
</svg>
