<svg width="124" height="36" viewBox="0 0 124 36" fill="none" xmlns="http://www.w3.org/2000/svg">
<path d="M29.4487 8.05727H35.0088C37.8241 8.05727 39.7243 10.3503 39.7243 12.5738C39.7243 14.8668 37.8241 17.1598 35.0088 17.1598H31.5601V20.8425H29.4487V8.05727ZM34.7977 15.2142C36.6276 15.2142 37.6129 13.8245 37.6129 12.5738C37.6129 11.2536 36.6276 9.93336 34.7977 9.93336H31.5601V15.2142H34.7977Z" fill="#7E91B4"/>
<path d="M40.3578 16.187C40.3578 13.4771 42.2581 11.3231 45.2141 11.3231C48.2405 11.3231 49.7185 13.8245 49.7185 16.326V16.8124H42.4692C42.7507 18.4105 44.1584 19.3138 46.0587 19.3138C47.2551 19.3138 48.2405 18.9664 49.0851 18.48V20.2171C48.3109 20.773 47.044 21.1204 45.6364 21.1204C42.6804 21.1204 40.3578 19.1749 40.3578 16.187ZM47.6071 15.2142C47.6071 14.2414 46.8329 12.9907 45.1437 12.9907C43.5249 12.9907 42.61 14.1025 42.5396 15.2142H47.6071Z" fill="#7E91B4"/>
<path d="M51.5484 11.5316H53.6598V15.1448H58.4458V11.5316H60.5572V20.8425H58.4458V16.9514H53.6598V20.8425H51.5484V11.5316Z" fill="#7E91B4"/>
<path d="M62.3167 16.187C62.3167 13.4771 64.217 11.3231 67.173 11.3231C70.1994 11.3231 71.6774 13.8245 71.6774 16.326V16.8124H64.4282C64.7097 18.4105 66.1173 19.3138 68.0176 19.3138C69.2141 19.3138 70.1994 18.9664 71.044 18.48V20.2171C70.2698 20.773 69.0029 21.1204 67.5953 21.1204C64.6393 21.1204 62.3167 19.1749 62.3167 16.187ZM69.566 15.2142C69.566 14.2414 68.7918 12.9907 67.1026 12.9907C65.4839 12.9907 64.5689 14.1025 64.4985 15.2142H69.566Z" fill="#7E91B4"/>
<path d="M72.8739 16.187C72.8739 13.2686 75.1965 11.3231 78.0117 11.3231C79.1378 11.3231 79.9824 11.5315 80.827 11.9484V13.6856C79.9824 13.2686 79.2082 13.0602 78.2932 13.0602C76.4633 13.0602 74.9149 14.3109 74.9149 16.187C74.9149 18.0631 76.393 19.3138 78.2932 19.3138C79.349 19.3138 80.1935 19.1054 80.9677 18.619V20.3561C80.0528 20.8425 79.1378 21.1204 77.9413 21.1204C75.1965 21.1204 72.8739 19.1054 72.8739 16.187Z" fill="#7E91B4"/>
<path d="M82.0235 16.187C82.0235 13.2686 84.346 11.3231 87.1613 11.3231C88.2874 11.3231 89.132 11.5315 89.9765 11.9484V13.6856C89.132 13.2686 88.3578 13.0602 87.4428 13.0602C85.6129 13.0602 84.0645 14.3109 84.0645 16.187C84.0645 18.0631 85.5425 19.3138 87.4428 19.3138C88.4985 19.3138 89.3431 19.1054 90.1173 18.619V20.3561C89.2023 20.8425 88.2874 21.1204 87.0909 21.1204C84.4164 21.1204 82.0235 19.1054 82.0235 16.187Z" fill="#7E91B4"/>
<path d="M101.66 19.1054V20.634C101.378 20.8425 100.886 20.912 100.463 20.912C99.5484 20.912 98.7742 20.4951 98.4927 19.5918C97.7889 20.3561 96.6628 21.051 95.044 21.051C93.0733 21.051 91.5249 19.9392 91.5249 17.9241C91.5249 15.8396 93.0733 15.2142 95.1144 15.2142C96.522 15.2142 98.3519 15.2142 98.3519 15.2142V15.0752C98.3519 13.4771 97.0147 13.0602 95.607 13.0602C94.4809 13.0602 93.3548 13.4771 92.651 13.894V12.0874C93.3548 11.74 94.4106 11.3231 96.0997 11.3231C98.6334 11.3231 100.463 12.5043 100.463 14.8668V18.341C100.463 18.8969 100.815 19.2443 101.238 19.2443C101.238 19.2443 101.449 19.2443 101.66 19.1054ZM98.2111 16.8124C98.2111 16.8124 96.7331 16.8124 95.7478 16.8124C94.4106 16.8124 93.4956 17.0903 93.4956 17.9936C93.4956 19.0359 94.4105 19.3833 95.5366 19.3833C96.6627 19.3833 97.7185 18.8274 98.2111 18.2716V16.8124Z" fill="#7E91B4"/>
<path d="M103.138 11.5316H105.249V15.1448H110.035V11.5316H112.147V20.8425H110.035V16.9514H105.249V20.8425H103.138V11.5316Z" fill="#7E91B4"/>
<path d="M113.906 16.187C113.906 13.2686 116.229 11.3231 119.044 11.3231C120.17 11.3231 121.015 11.5315 121.859 11.9484V13.6856C121.015 13.2686 120.24 13.0602 119.326 13.0602C117.496 13.0602 115.947 14.3109 115.947 16.187C115.947 18.0631 117.425 19.3138 119.326 19.3138C120.381 19.3138 121.226 19.1054 122 18.619V20.3561C121.085 20.8425 120.17 21.1204 118.974 21.1204C116.229 21.1204 113.906 19.1054 113.906 16.187Z" fill="#7E91B4"/>
<path d="M29.4487 25.8454H30.434V27.652L32.1232 25.8454H33.3197L31.349 27.93L33.6716 30.4314H32.4751L30.5044 28.3469V30.4314H29.4487V25.8454Z" fill="#7E91B4"/>
<path d="M34.9384 25.8454H36.9795C37.9648 25.8454 38.5982 26.4013 38.5982 27.2351C38.5982 28.0689 37.9648 28.6248 36.9795 28.6248H35.9238V30.4314H34.9384V25.8454ZM36.9091 27.7909C37.3314 27.7909 37.6129 27.5825 37.6129 27.2351C37.6129 26.8876 37.3314 26.6792 36.9091 26.6792H35.9238V27.7909H36.9091Z" fill="#7E91B4"/>
<path d="M40.0059 25.8454H43.3842V26.6792H40.9208V27.5825H42.8915V28.4163H40.9208V29.5976H43.5249V30.4314H40.0059V25.8454Z" fill="#7E91B4"/>
<path d="M45.2141 29.5976C45.6363 28.9723 45.8475 28.1384 45.8475 26.6098V25.9149H49.085V29.6671H49.7185V31.4737H48.8035V30.5704H45.6363V31.4737H44.7214V29.5976H45.2141ZM48.1701 29.5976V26.6792H46.8328C46.8328 27.652 46.7624 28.6248 46.3402 29.5976H48.1701Z" fill="#7E91B4"/>
<path d="M51.1965 25.8454H52.1818V28.8332L54.434 25.8454H55.2786V30.4314H54.3637V27.4435L51.9707 30.4314H51.1965V25.8454Z" fill="#7E91B4"/>
<path d="M60.4868 25.8454V26.6792H59.0088V30.4314H58.0235V26.6792H56.5455V25.8454H60.4868Z" fill="#7E91B4"/>
<path d="M5.02639 25.8455H2V12.9908C2 8.61321 5.65982 5 10.0938 5H20.088V12.9213C20.088 17.3683 16.4282 20.912 11.9941 20.912H6.92669L8.05279 17.9242H11.9238C14.739 17.9242 16.9912 15.7007 16.9912 12.9213V7.98785H10.0235C7.20821 7.98785 4.95601 10.2114 4.95601 12.9908V25.8455H5.02639Z" fill="#7E91B4"/>
</svg>
