<svg width="120" height="36" viewBox="0 0 120 36" fill="none" xmlns="http://www.w3.org/2000/svg">
<path fill-rule="evenodd" clip-rule="evenodd" d="M61.0195 12.6206L63.3581 8.8547L57.9789 0H53.4203L48.1644 8.93976L53.4203 17.7945H58.0833L52.8274 8.89723L55.721 3.80365L61.0195 12.6206Z" fill="#7E91B4"/>
<path fill-rule="evenodd" clip-rule="evenodd" d="M58.8849 0H63.3581L68.6567 8.8547L63.3581 17.7945H58.8849L63.9985 8.89723L58.8849 0Z" fill="#7E91B4"/>
<path fill-rule="evenodd" clip-rule="evenodd" d="M53.4203 8.91612L55.7637 5.21642L58.1212 8.91612L55.7637 12.6205L53.4203 8.91612Z" fill="#7E91B4"/>
<path fill-rule="evenodd" clip-rule="evenodd" d="M18 23.8708H22.9713C24.2426 23.8708 25.1865 24.1543 25.8174 24.6883C26.3943 25.1465 26.8245 25.7622 27.0555 26.4602C27.1325 26.689 27.1943 26.9226 27.2405 27.1595C27.2405 27.3815 27.2832 27.6083 27.2832 27.8115C27.2832 28.0147 27.2595 28.2226 27.2405 28.4447C27.1967 28.6883 27.1349 28.9283 27.0555 29.1629C26.8239 29.8606 26.3958 30.4773 25.8222 30.9395C25.1865 31.4923 24.2426 31.7616 22.976 31.7616H21.3205V35.6456H18V23.8708ZM21.3205 29.1676H22.2692C22.6399 29.203 23.0126 29.1238 23.3365 28.9408C23.5314 28.8157 23.6875 28.639 23.7872 28.4305C23.8335 28.319 23.8623 28.2011 23.8726 28.0808C23.8808 27.9928 23.8808 27.9042 23.8726 27.8162V27.6131C23.8726 27.5516 23.8726 27.4713 23.8299 27.4099C23.7702 27.1522 23.6268 26.9213 23.4219 26.7531C23.0791 26.5349 22.675 26.4322 22.2692 26.4602H21.3205V29.1676ZM34.8777 36C32.8047 36 31.2251 35.3621 30.1341 34.11C29.093 32.9 28.5207 31.3589 28.5207 29.7653C28.5207 28.1717 29.093 26.6307 30.1341 25.4206C31.2014 24.1496 32.781 23.5306 34.8777 23.5306C36.9743 23.5306 38.5539 24.1449 39.6212 25.4206C40.6809 26.6213 41.2585 28.1691 41.2435 29.7677C41.2677 31.3616 40.6963 32.9075 39.6402 34.1053C38.5729 35.3527 36.9933 35.9669 34.8966 35.9953L34.8777 36ZM34.8777 33.165C35.0087 33.1738 35.1403 33.1738 35.2714 33.165C35.4094 33.1476 35.5459 33.1192 35.6793 33.0799C36.2539 32.8975 36.7608 32.5488 37.1356 32.0782C37.6417 31.4186 37.8835 30.595 37.8139 29.7677C37.8718 28.9489 37.6309 28.1368 37.1356 27.4808C36.7665 27.0082 36.2568 26.6642 35.6793 26.498C35.5471 26.45 35.4105 26.4152 35.2714 26.394C35.1403 26.3851 35.0087 26.3851 34.8777 26.394C34.7409 26.3963 34.6045 26.409 34.4697 26.4318C34.3219 26.4479 34.1769 26.4828 34.038 26.5358C33.4592 26.7119 32.9489 27.0617 32.577 27.5375C32.1106 28.1843 31.8858 28.9732 31.9414 29.7677C31.8817 30.5758 32.1065 31.3794 32.577 32.0404C32.9558 32.5088 33.4635 32.857 34.038 33.0421C34.1795 33.0862 34.3237 33.1209 34.4697 33.1461C34.6055 33.1559 34.7419 33.1559 34.8777 33.1461V33.165ZM51.7553 35.1259C51.5329 35.2735 51.2998 35.4046 51.058 35.518C50.8254 35.6167 50.586 35.6988 50.3417 35.7637C50.0437 35.8433 49.7412 35.9048 49.4357 35.948C49.1511 35.948 48.8617 35.9858 48.5771 35.9858C46.9949 36.014 45.4637 35.4277 44.3079 34.351C43.1173 33.2689 42.5243 31.7333 42.5243 29.7677C42.5243 27.7217 43.16 26.1672 44.3885 25.1277C45.5256 24.116 46.9956 23.5545 48.5202 23.5495C48.733 23.5434 48.9458 23.5576 49.1558 23.5921C49.3598 23.5921 49.5875 23.6346 49.8104 23.6724C50.1509 23.7567 50.4866 23.8593 50.8161 23.9795C51.148 24.1208 51.4657 24.2933 51.7648 24.4945V27.8777C51.6959 27.791 51.6215 27.7089 51.5419 27.632C51.4612 27.5327 51.3569 27.4524 51.2525 27.3485C50.965 27.1027 50.646 26.8961 50.3038 26.7342C49.892 26.5466 49.4424 26.456 48.9898 26.4696C48.5634 26.4461 48.1375 26.5248 47.748 26.6991C47.3584 26.8734 47.0164 27.1382 46.7508 27.4713C46.2183 28.1422 45.941 28.979 45.9681 29.8338C45.9273 30.248 45.9748 30.666 46.1075 31.0606C46.2403 31.4552 46.4552 31.8173 46.7382 32.1234C47.0213 32.4294 47.3661 32.6724 47.75 32.8365C48.134 33.0005 48.5484 33.0818 48.9661 33.0752C49.5328 33.0799 50.0913 32.94 50.5884 32.6688C51.0151 32.4292 51.4075 32.1336 51.7553 31.79V35.14V35.1259ZM53.6527 23.8803H62.3714V26.7153H56.9543V28.4777H58.6999C59.0071 28.4746 59.3143 28.4872 59.6202 28.5155C60.0239 28.5377 60.4236 28.6075 60.8108 28.7234C61.4646 28.9139 62.0631 29.2573 62.5564 29.7251C62.8383 30.0328 63.0533 30.3952 63.188 30.7896C63.3227 31.1839 63.3742 31.6017 63.3391 32.0168C63.3753 32.4428 63.3246 32.8717 63.1901 33.2777C63.0556 33.6837 62.8401 34.0584 62.5564 34.3793C62.0694 34.8485 61.4801 35.1994 60.8345 35.4046C60.4402 35.527 60.0324 35.6016 59.6202 35.6267C59.2312 35.6267 58.9229 35.6692 58.6999 35.6692H53.648V23.8708L53.6527 23.8803ZM58.3679 33.2973C58.7818 33.3218 59.1943 33.2301 59.5585 33.0327C59.7232 32.9307 59.8553 32.7841 59.9393 32.61C60.0233 32.436 60.0558 32.2417 60.0329 32.0499C60.0468 31.8644 60.0101 31.6786 59.9266 31.5122C59.8431 31.3458 59.7159 31.205 59.5585 31.1049C59.1861 30.9059 58.7661 30.8128 58.3442 30.8355H56.9211V33.3114L58.3679 33.2973ZM68.1207 23.8708H72.148L76.3176 35.6503H72.7836L72.148 33.628H68.1207L67.466 35.6503H63.9131L68.1207 23.8708ZM68.78 31.0293H71.4696L70.1367 26.5877L68.78 31.0293ZM77.4845 23.8708H80.805V28.1234H84.8086V23.8708H88.1291V35.6503H84.8086V30.9253H80.805V35.6503H77.4845V23.8708ZM93.8072 23.8708V28.8227L97.3838 23.8756H101.264L96.7434 29.5739L101.364 35.6503H97.2178L93.7882 30.5993V35.6503H90.4677V23.8708H93.8072Z" fill="#7E91B4"/>
</svg>
