<svg width="66" height="20" viewBox="0 0 66 20" fill="none" xmlns="http://www.w3.org/2000/svg">
<path fill-rule="evenodd" clip-rule="evenodd" d="M33.5608 6.9413L34.847 4.87009L31.8884 0H29.3812L26.4905 4.91687L29.3812 9.78695H31.9458L29.0551 4.89348L30.6465 2.09201L33.5608 6.9413Z" fill="#7E91B4"/>
<path fill-rule="evenodd" clip-rule="evenodd" d="M32.3867 0H34.847L37.7612 4.87009L34.847 9.78695H32.3867L35.1992 4.89348L32.3867 0Z" fill="#7E91B4"/>
<path fill-rule="evenodd" clip-rule="evenodd" d="M29.3812 4.90387L30.67 2.86903L31.9667 4.90387L30.67 6.9413L29.3812 4.90387Z" fill="#7E91B4"/>
<path fill-rule="evenodd" clip-rule="evenodd" d="M9.90002 13.129H12.6342C13.3334 13.129 13.8526 13.2849 14.1996 13.5785C14.5169 13.8306 14.7535 14.1692 14.8805 14.5531C14.9229 14.6789 14.9569 14.8074 14.9823 14.9377C14.9823 15.0598 15.0058 15.1846 15.0058 15.2963C15.0058 15.4081 14.9927 15.5224 14.9823 15.6446C14.9582 15.7786 14.9242 15.9106 14.8805 16.0396C14.7532 16.4233 14.5177 16.7625 14.2022 17.0167C13.8526 17.3208 13.3334 17.4689 12.6368 17.4689H11.7263V19.6051H9.90002V13.129ZM11.7263 16.0422H12.2481C12.452 16.0617 12.657 16.0181 12.8351 15.9174C12.9423 15.8486 13.0281 15.7515 13.083 15.6368C13.1085 15.5755 13.1243 15.5106 13.1299 15.4445C13.1345 15.3961 13.1345 15.3473 13.1299 15.2989V15.1872C13.1299 15.1534 13.1299 15.1092 13.1064 15.0754C13.0737 14.9337 12.9948 14.8067 12.8821 14.7142C12.6936 14.5942 12.4713 14.5377 12.2481 14.5531H11.7263V16.0422ZM19.1827 19.8C18.0426 19.8 17.1738 19.4492 16.5738 18.7605C16.0012 18.095 15.6864 17.2474 15.6864 16.3709C15.6864 15.4944 16.0012 14.6469 16.5738 13.9814C17.1608 13.2823 18.0296 12.9419 19.1827 12.9419C20.3359 12.9419 21.2047 13.2797 21.7917 13.9814C22.3745 14.6417 22.6922 15.493 22.684 16.3722C22.6973 17.2489 22.383 18.0991 21.8021 18.7579C21.2151 19.444 20.3463 19.7818 19.1932 19.7974L19.1827 19.8ZM19.1827 18.2407C19.2548 18.2456 19.3272 18.2456 19.3993 18.2407C19.4752 18.2312 19.5502 18.2156 19.6237 18.194C19.9396 18.0936 20.2185 17.9018 20.4246 17.643C20.703 17.2802 20.8359 16.8273 20.7977 16.3722C20.8295 15.9219 20.697 15.4752 20.4246 15.1144C20.2216 14.8545 19.9412 14.6653 19.6237 14.5739C19.5509 14.5475 19.4758 14.5284 19.3993 14.5167C19.3272 14.5118 19.2548 14.5118 19.1827 14.5167C19.1075 14.518 19.0325 14.5249 18.9584 14.5375C18.8771 14.5463 18.7973 14.5656 18.7209 14.5947C18.4026 14.6916 18.1219 14.884 17.9174 15.1456C17.6609 15.5014 17.5372 15.9353 17.5678 16.3722C17.535 16.8167 17.6586 17.2587 17.9174 17.6222C18.1257 17.8799 18.405 18.0713 18.7209 18.1732C18.7987 18.1974 18.878 18.2165 18.9584 18.2303C19.0331 18.2358 19.108 18.2358 19.1827 18.2303V18.2407ZM28.4654 19.3192C28.3431 19.4004 28.2149 19.4725 28.0819 19.5349C27.954 19.5892 27.8223 19.6344 27.688 19.6701C27.5241 19.7138 27.3577 19.7476 27.1897 19.7714C27.0331 19.7714 26.874 19.7922 26.7174 19.7922C25.8472 19.8077 25.0051 19.4852 24.3694 18.893C23.7145 18.2979 23.3884 17.4533 23.3884 16.3722C23.3884 15.247 23.738 14.392 24.4137 13.8202C25.0391 13.2638 25.8476 12.955 26.6861 12.9522C26.8031 12.9489 26.9202 12.9567 27.0357 12.9756C27.1479 12.9756 27.2731 12.999 27.3958 13.0198C27.583 13.0662 27.7677 13.1226 27.9489 13.1887C28.1314 13.2665 28.3061 13.3613 28.4707 13.472V15.3327C28.4328 15.2851 28.3918 15.2399 28.348 15.1976C28.3037 15.143 28.2463 15.0988 28.1889 15.0417C28.0308 14.9065 27.8553 14.7929 27.6671 14.7038C27.4406 14.6006 27.1933 14.5508 26.9444 14.5583C26.7099 14.5453 26.4757 14.5886 26.2614 14.6845C26.0471 14.7804 25.8591 14.926 25.713 15.1092C25.4201 15.4782 25.2676 15.9384 25.2825 16.4086C25.26 16.6364 25.2862 16.8663 25.3592 17.0833C25.4322 17.3003 25.5504 17.4995 25.7061 17.6679C25.8617 17.8362 26.0514 17.9698 26.2625 18.0601C26.4737 18.1503 26.7016 18.195 26.9314 18.1914C27.2431 18.1939 27.5502 18.117 27.8236 17.9679C28.0583 17.836 28.2742 17.6735 28.4654 17.4845V19.327V19.3192ZM29.509 13.1342H34.3043V14.6934H31.3249V15.6628H32.285C32.4539 15.661 32.6229 15.668 32.7911 15.6835C33.0132 15.6957 33.233 15.7341 33.446 15.7979C33.8055 15.9026 34.1347 16.0915 34.4061 16.3488C34.5611 16.5181 34.6794 16.7174 34.7534 16.9343C34.8275 17.1511 34.8558 17.3809 34.8365 17.6092C34.8565 17.8435 34.8286 18.0794 34.7546 18.3027C34.6806 18.526 34.5621 18.7321 34.4061 18.9086C34.1382 19.1667 33.8141 19.3597 33.459 19.4726C33.2421 19.5399 33.0179 19.5809 32.7911 19.5947C32.5772 19.5947 32.4076 19.6181 32.285 19.6181H29.5064V13.129L29.509 13.1342ZM32.1023 18.3135C32.33 18.327 32.5569 18.2766 32.7572 18.168C32.8478 18.1119 32.9204 18.0313 32.9666 17.9355C33.0128 17.8398 33.0307 17.7329 33.0181 17.6274C33.0258 17.5254 33.0056 17.4232 32.9596 17.3317C32.9137 17.2402 32.8438 17.1628 32.7572 17.1077C32.5524 16.9983 32.3214 16.947 32.0893 16.9595H31.3066V18.3213L32.1023 18.3135ZM37.4664 13.129H39.6814L41.9747 19.6077H40.031L39.6814 18.4954H37.4664L37.1063 19.6077H35.1522L37.4664 13.129ZM37.829 17.0661H39.3083L38.5752 14.6233L37.829 17.0661ZM42.6165 13.129H44.4428V15.4679H46.6447V13.129H48.471V19.6077H46.6447V17.0089H44.4428V19.6077H42.6165V13.129ZM51.594 13.129V15.8525L53.5611 13.1316H55.6953L53.2089 16.2657L55.75 19.6077H53.4698L51.5835 16.8296V19.6077H49.7572V13.129H51.594Z" fill="#7E91B4"/>
</svg>
