<svg width="120" height="36" viewBox="0 0 120 36" fill="none" xmlns="http://www.w3.org/2000/svg">
<path d="M61.3072 13H67.5207V19.4782H63.2929V22.2499H61.3072V13ZM63.2929 17.4926H65.535V15.0105H63.2929V17.4926ZM23.4639 13H28.9575V14.9857H25.4495V22.2499H23.4639V13ZM15.7198 13H21.925V15.8792H19.9062V14.9857H17.6558V20.2725H19.9062V19.3707H21.8836V22.2499H15.7198V13ZM30.4385 13H36.652V22.2499H30.4385V13ZM32.4242 20.2725H34.6746V14.9857H32.4242V20.2725ZM7.81853 13H14.0651V22.2499H7.81853V13ZM9.80419 20.2725H12.0546V14.9857H9.80419V20.2725ZM0 13H6.21346V19.4782H1.98566V22.2499H0V13ZM1.98566 17.4926H4.2278V15.0105H1.98566V17.4926ZM81.3955 13H83.5135L81.9084 17.5836L83.6128 22.2499H81.5279L80.3116 18.5764H79.7821L78.599 22.2499H76.4479L78.1605 17.5836L76.5803 13H78.6983L79.7821 16.599H80.3116L81.3955 13ZM53.6707 13H59.8759V14.9857H57.7661V22.2499H55.7805V14.9857H53.6707V13ZM46.0838 13H52.2973V15.8792H50.3116V14.9857H48.0695V20.2725H50.3116V19.3707H52.2973V22.2499H46.0838V13ZM38.2984 13H44.5036V15.8792H42.5262V14.9857H40.2758V20.2725H42.5262V19.3707H44.5036V22.2499H38.2984V13ZM71.3927 14.9857L71.1528 18.0883H72.973L72.6834 14.9857H71.3927ZM69.6801 13H74.4622L75.2896 22.2499H73.3453L73.1467 20.0739H70.9625L70.7639 22.2499H68.7865L69.6801 13Z" fill="#7E91B4"/>
<path d="M100.036 18.6343H96.8009L98.406 14.3486L100.036 18.6343ZM102.667 22.2499L99.0761 13H97.8185L94.2195 22.2499H95.4606L96.4368 19.6768H100.4L101.368 22.2499H102.667Z" fill="#7E91B4"/>
<path d="M92.8047 14.0507V13H87.278V14.0507H92.8047ZM93.8472 19.6851C93.8442 19.3542 93.7941 19.0255 93.6983 18.7088C93.5902 18.3927 93.4055 18.1085 93.1605 17.8814C92.8677 17.6183 92.5201 17.4233 92.1429 17.3105C91.9036 17.2325 91.6568 17.1798 91.4065 17.1533V18.3116H91.4644C91.722 18.3756 91.9641 18.491 92.176 18.6509C92.3484 18.7809 92.4781 18.9596 92.5483 19.1638C92.6212 19.3423 92.6578 19.5336 92.6558 19.7264C92.6569 19.9299 92.6204 20.1319 92.5483 20.3221C92.4777 20.5174 92.3581 20.6912 92.2008 20.8268C92.0048 20.9805 91.7751 21.0854 91.5306 21.1329C91.1891 21.2128 90.8388 21.249 90.4881 21.2405H87.278V22.2581H90.3971C90.9559 22.2714 91.5135 22.2017 92.0519 22.0513C92.4416 21.9473 92.8033 21.7579 93.1109 21.497C93.3607 21.2725 93.5488 20.9876 93.6569 20.6696C93.7596 20.3486 93.8126 20.0138 93.8141 19.6768" fill="#7E91B4"/>
<path d="M103.767 13V22.2499H104.959V18.0303H109.633V22.2499H110.833V13H109.633V16.9134H104.959V13H103.767Z" fill="#7E91B4"/>
<path d="M117.361 16.5907L119.843 13H118.436L116.467 15.9206C116.327 16.1274 116.202 16.2929 116.095 16.4335C115.993 16.5561 115.873 16.6622 115.739 16.7479C115.62 16.8246 115.488 16.8806 115.35 16.9134C115.18 16.9278 115.008 16.9278 114.837 16.9134H114.01V13H112.819V22.2499H114.01V18.0055H114.837C115.008 17.9871 115.18 17.9871 115.35 18.0055C115.489 18.0346 115.622 18.0908 115.739 18.171C115.873 18.2568 115.993 18.3628 116.095 18.4854C116.202 18.6178 116.327 18.7915 116.467 18.9983L118.635 22.2085H119.967L117.328 18.3199C117.171 18.0794 116.988 17.8573 116.782 17.658C116.683 17.5716 116.575 17.4966 116.459 17.4346C116.576 17.3786 116.685 17.3061 116.782 17.2195C116.99 17.0188 117.173 16.7938 117.328 16.5494" fill="#7E91B4"/>
<path d="M90.6205 17.0872H88.3784V14.8533H87.278V17.0872H85.0359V18.1958H87.278V20.4297H88.3784V18.1958H90.6205V17.0872Z" fill="#7E91B4"/>
</svg>
