<svg width="66" height="20" viewBox="0 0 66 20" fill="none" xmlns="http://www.w3.org/2000/svg">
<path d="M33.719 7.1499H37.1364V10.7129H34.8111V12.2373H33.719V7.1499ZM34.8111 9.62081H36.0443V8.25567H34.8111V9.62081ZM12.9051 7.1499H15.9266V8.24202H13.9972V12.2373H12.9051V7.1499ZM8.64589 7.1499H12.0587V8.73347H10.9484V8.24202H9.7107V11.1498H10.9484V10.6538H12.036V12.2373H8.64589V7.1499ZM16.7412 7.1499H20.1586V12.2373H16.7412V7.1499ZM17.8333 11.1498H19.071V8.24202H17.8333V11.1498ZM4.30019 7.1499H7.7358V12.2373H4.30019V7.1499ZM5.39231 11.1498H6.63003V8.24202H5.39231V11.1498ZM0 7.1499H3.4174V10.7129H1.09211V12.2373H0V7.1499ZM1.09211 9.62081H2.32529V8.25567H1.09211V9.62081ZM44.7675 7.1499H45.9324L45.0496 9.67086L45.987 12.2373H44.8403L44.1714 10.2169H43.8802L43.2295 12.2373H42.0463L42.9883 9.67086L42.1191 7.1499H43.2841L43.8802 9.12936H44.1714L44.7675 7.1499ZM29.5189 7.1499H32.9317V8.24202H31.7714V12.2373H30.6793V8.24202H29.5189V7.1499ZM25.3461 7.1499H28.7635V8.73347H27.6714V8.24202H26.4382V11.1498H27.6714V10.6538H28.7635V12.2373H25.3461V7.1499ZM21.0641 7.1499H24.477V8.73347H23.3894V8.24202H22.1517V11.1498H23.3894V10.6538H24.477V12.2373H21.0641V7.1499ZM39.266 8.24202L39.134 9.94844H40.1351L39.9759 8.24202H39.266ZM38.3241 7.1499H40.9542L41.4093 12.2373H40.3399L40.2307 11.0406H39.0294L38.9202 12.2373H37.8326L38.3241 7.1499Z" fill="#7E91B4"/>
<path d="M55.0197 10.2488H53.2405L54.1233 7.89163L55.0197 10.2488ZM56.4668 12.2373L54.4919 7.1499H53.8002L51.8207 12.2373H52.5033L53.0403 10.8221H55.2199L55.7523 12.2373H56.4668Z" fill="#7E91B4"/>
<path d="M51.0426 7.72781V7.1499H48.0029V7.72781H51.0426ZM51.616 10.8267C51.6143 10.6447 51.5867 10.4639 51.5341 10.2897C51.4746 10.1159 51.373 9.95956 51.2383 9.83468C51.0772 9.68994 50.8861 9.58271 50.6786 9.5207C50.547 9.4778 50.4112 9.44882 50.2736 9.43424V10.0713H50.3054C50.4471 10.1065 50.5802 10.1699 50.6968 10.2579C50.7916 10.3294 50.8629 10.4277 50.9016 10.54C50.9417 10.6382 50.9618 10.7434 50.9607 10.8494C50.9613 10.9614 50.9412 11.0724 50.9016 11.1771C50.8628 11.2845 50.7969 11.3801 50.7104 11.4546C50.6026 11.5392 50.4763 11.5969 50.3418 11.623C50.154 11.667 49.9613 11.6868 49.7685 11.6822H48.0029V12.2419H49.7184C50.0257 12.2492 50.3325 12.2108 50.6285 12.1281C50.8429 12.0709 51.0418 11.9668 51.211 11.8232C51.3484 11.6998 51.4518 11.5431 51.5113 11.3682C51.5678 11.1916 51.5969 11.0075 51.5978 10.8221" fill="#7E91B4"/>
<path d="M57.072 7.1499V12.2373H57.7273V9.91659H60.2983V12.2373H60.9581V7.1499H60.2983V9.30227H57.7273V7.1499H57.072Z" fill="#7E91B4"/>
<path d="M64.5484 9.12481L65.9136 7.1499H65.14L64.057 8.75622C63.9796 8.86998 63.9113 8.96099 63.8522 9.03835C63.7963 9.10576 63.7303 9.16409 63.6565 9.21126C63.5909 9.25345 63.5186 9.28422 63.4426 9.30227C63.3488 9.31017 63.2544 9.31017 63.1605 9.30227H62.7055V7.1499H62.0502V12.2373H62.7055V9.90294H63.1605C63.2543 9.89278 63.3489 9.89278 63.4426 9.90294C63.5192 9.91895 63.5919 9.94987 63.6565 9.99395C63.7303 10.0411 63.7963 10.0994 63.8522 10.1669C63.9113 10.2397 63.9796 10.3352 64.057 10.449L65.2492 12.2146H65.9818L64.5302 10.0759C64.4442 9.94355 64.3434 9.82143 64.2299 9.71182C64.1756 9.66426 64.116 9.62304 64.0524 9.58895C64.1169 9.55811 64.1766 9.51827 64.2299 9.47064C64.3444 9.36026 64.4452 9.23651 64.5302 9.10205" fill="#7E91B4"/>
<path d="M49.8413 9.39784H48.6081V8.16921H48.0029V9.39784H46.7697V10.0076H48.0029V11.2362H48.6081V10.0076H49.8413V9.39784Z" fill="#7E91B4"/>
</svg>
