<svg width="120" height="36" viewBox="0 0 120 36" fill="none" xmlns="http://www.w3.org/2000/svg">
<path d="M32.6293 15.4093C33.3935 15.3449 34.1591 15.5153 34.8233 15.8975C35.1456 16.1129 35.4068 16.4074 35.5816 16.7527C35.7563 17.0981 35.8389 17.4825 35.8212 17.8689C35.8212 19.0431 35.0774 20.4274 33.0198 20.4274H31.2844V23.641H29.7473V15.4093H32.6293ZM32.6913 19.2223C32.9106 19.2512 33.1336 19.2354 33.3466 19.176C33.5597 19.1165 33.7584 19.0145 33.9308 18.8763C34.192 18.6105 34.3388 18.2534 34.3399 17.8813C34.3401 17.7062 34.3051 17.5329 34.2369 17.3716C34.1688 17.2102 34.0689 17.0642 33.9432 16.9419C33.6005 16.689 33.1786 16.5663 32.7533 16.5959H31.2844V19.21L32.6913 19.2223Z" fill="#7E91B4"/>
<path d="M37.2219 18.1471C37.7708 17.6652 38.477 17.3994 39.2083 17.3994C39.9396 17.3994 40.6458 17.6652 41.1947 18.1471C41.5088 18.4685 41.7547 18.8498 41.9177 19.2682C42.0806 19.6866 42.1572 20.1334 42.143 20.582C42.1565 21.0305 42.0796 21.4772 41.9167 21.8954C41.7538 22.3137 41.5082 22.6951 41.1947 23.0169C40.6458 23.4988 39.9396 23.7646 39.2083 23.7646C38.477 23.7646 37.7708 23.4988 37.2219 23.0169C36.9072 22.6956 36.6605 22.3145 36.4966 21.8962C36.3326 21.4779 36.2547 21.031 36.2674 20.582C36.2543 20.133 36.3321 19.686 36.4961 19.2677C36.6601 18.8493 36.9069 18.4682 37.2219 18.1471ZM38.2445 22.3124C38.3644 22.4499 38.5124 22.5602 38.6787 22.6358C38.845 22.7114 39.0256 22.7505 39.2083 22.7505C39.391 22.7505 39.5716 22.7114 39.7379 22.6358C39.9041 22.5602 40.0522 22.4499 40.172 22.3124C40.5263 21.8083 40.6889 21.1948 40.6307 20.582C40.6906 19.9691 40.5278 19.355 40.172 18.8516C40.0558 18.7084 39.909 18.5929 39.7422 18.5135C39.5755 18.4341 39.3931 18.3929 39.2083 18.3929C39.0235 18.3929 38.8411 18.4341 38.6743 18.5135C38.5076 18.5929 38.3607 18.7084 38.2445 18.8516C37.8917 19.3564 37.7293 19.9693 37.7859 20.582C37.7309 21.1946 37.8932 21.8069 38.2445 22.3124Z" fill="#7E91B4"/>
<path d="M46.9463 19.7661C46.921 19.4451 46.8167 19.1351 46.6426 18.8639C46.542 18.717 46.4056 18.5979 46.2462 18.5179C46.0869 18.4379 45.9098 18.3996 45.7315 18.4065C45.5316 18.4021 45.3343 18.4528 45.1615 18.5532C44.9887 18.6535 44.847 18.7995 44.7522 18.9751C44.516 19.4768 44.4054 20.0282 44.43 20.5819C44.4018 21.1398 44.5125 21.6961 44.7522 22.201C44.855 22.3688 44.9987 22.5078 45.1699 22.605C45.3412 22.7023 45.5344 22.7547 45.7315 22.7572C45.9064 22.7594 46.0791 22.7188 46.2347 22.6391C46.3903 22.5594 46.5239 22.4429 46.624 22.2999C46.8085 22.0232 46.9194 21.7042 46.9463 21.3729L48.223 21.5274C48.154 22.1318 47.8834 22.6955 47.4545 23.128C46.9613 23.5468 46.3293 23.7671 45.6819 23.746C44.9962 23.7675 44.3291 23.5214 43.8226 23.06C43.5075 22.733 43.2635 22.3446 43.1057 21.9193C42.9479 21.494 42.8796 21.0408 42.9053 20.5881C42.8654 19.7831 43.1185 18.9908 43.618 18.3571C43.877 18.0554 44.1982 17.8131 44.5598 17.6467C44.9213 17.4803 45.3147 17.3938 45.7129 17.393C46.0393 17.383 46.3644 17.4373 46.6697 17.5529C46.9749 17.6685 47.2543 17.8431 47.4917 18.0666C47.8835 18.4949 48.1363 19.0313 48.2168 19.6054L46.9463 19.7661Z" fill="#7E91B4"/>
<path d="M52.921 19.7663C52.8949 19.4463 52.7929 19.137 52.6235 18.864C52.5211 18.7175 52.3835 18.5988 52.2232 18.5189C52.063 18.439 51.8852 18.4005 51.7062 18.4067C51.5064 18.4029 51.3094 18.454 51.1367 18.5542C50.964 18.6545 50.8223 18.8001 50.7269 18.9753C50.4907 19.477 50.3801 20.0283 50.4047 20.5821C50.3795 21.1398 50.4901 21.6953 50.7269 22.2012C50.8297 22.3689 50.9734 22.5079 51.1446 22.6052C51.3159 22.7025 51.5091 22.7548 51.7062 22.7574C51.8812 22.7601 52.0541 22.7198 52.2098 22.64C52.3654 22.5602 52.499 22.4435 52.5987 22.3001C52.7832 22.0233 52.8941 21.7043 52.921 21.3731L54.1977 21.5276C54.1316 22.1328 53.8605 22.6974 53.4292 23.1282C52.936 23.5469 52.304 23.7673 51.6566 23.7462C50.9711 23.7664 50.3045 23.5205 49.7973 23.0602C49.4822 22.7331 49.2382 22.3448 49.0804 21.9195C48.9226 21.4942 48.8543 21.041 48.88 20.5882C48.8381 19.7869 49.0867 18.9972 49.5803 18.3634C49.8393 18.0618 50.1605 17.8195 50.5221 17.6531C50.8836 17.4867 51.277 17.4001 51.6752 17.3994C52.0016 17.3893 52.3267 17.4436 52.632 17.5592C52.9372 17.6748 53.2166 17.8494 53.454 18.073C53.8481 18.4997 54.1013 19.0369 54.1791 19.6118L52.921 19.7663Z" fill="#7E91B4"/>
<path d="M60.6373 21.8674C60.4703 22.4326 60.1136 22.9235 59.627 23.2579C59.021 23.6427 58.3041 23.8162 57.5886 23.7514C56.8731 23.6865 56.1993 23.3869 55.6728 22.8994C55.1215 22.2645 54.8295 21.4462 54.8547 20.6067C54.8335 20.1285 54.9199 19.6516 55.1076 19.211C55.2952 18.7704 55.5794 18.3773 55.9393 18.0605C56.4595 17.6249 57.1194 17.3902 57.7987 17.3993C58.2452 17.3792 58.6899 17.4684 59.0939 17.659C59.498 17.8497 59.8491 18.136 60.1166 18.4931C60.5291 19.1068 60.7452 19.8309 60.7364 20.5696V20.8477H56.3979C56.3894 21.2145 56.4591 21.5789 56.6025 21.9168C56.7134 22.1697 56.8953 22.3854 57.1262 22.5377C57.3571 22.6901 57.6272 22.7728 57.904 22.7758C58.1032 22.7787 58.3009 22.7412 58.4852 22.6658C58.6694 22.5904 58.8365 22.4786 58.9762 22.337C59.1459 22.1697 59.2586 21.9536 59.2985 21.7191L60.6373 21.8674ZM59.218 19.933C59.2248 19.5791 59.1325 19.2302 58.9515 18.9257C58.8292 18.7521 58.6668 18.6104 58.478 18.5125C58.2892 18.4146 58.0796 18.3635 57.8668 18.3633C57.6578 18.3657 57.4518 18.4127 57.2626 18.5012C57.0733 18.5897 56.9053 18.7176 56.7698 18.8763C56.5305 19.177 56.3996 19.5492 56.3979 19.933H59.218Z" fill="#7E91B4"/>
<path d="M66.6801 17.5229V23.6411H65.2794V18.555H63.6928C63.6556 19.3831 63.6308 19.7168 63.606 20.2792C63.5812 20.8416 63.5254 22.263 62.9862 22.9922C62.7553 23.2999 62.4246 23.5183 62.0504 23.6102C61.8899 23.6603 61.7227 23.6853 61.5545 23.6844C61.4329 23.6862 61.3117 23.6695 61.1951 23.6349V22.5843H61.3128C61.5244 22.5629 61.7259 22.4837 61.8954 22.3557C62.3727 21.9725 62.4222 21.1197 62.4718 20.4275C62.5338 19.5253 62.5462 18.9876 62.5524 18.1718V17.5229H66.6801Z" fill="#7E91B4"/>
<path d="M69.5497 19.6859H71.093C71.7017 19.6508 72.3006 19.8499 72.7664 20.2421C72.9401 20.4305 73.074 20.6518 73.1602 20.8927C73.2465 21.1337 73.2833 21.3895 73.2684 21.645C73.293 21.9328 73.2497 22.2225 73.1421 22.4907C73.0345 22.759 72.8655 22.9984 72.6487 23.19C72.2363 23.491 71.7337 23.6435 71.2232 23.6226H68.1738V17.5229H69.5683L69.5497 19.6859ZM69.5497 22.6152H70.653C70.9351 22.6434 71.2178 22.5664 71.4463 22.3989C71.5495 22.3054 71.6312 22.1907 71.6857 22.0626C71.7403 21.9346 71.7664 21.7964 71.7624 21.6573C71.7767 21.5062 71.7497 21.3539 71.6842 21.2168C71.6188 21.0797 71.5173 20.9629 71.3905 20.8787C71.1674 20.748 70.9115 20.6837 70.653 20.6933H69.5559L69.5497 22.6152Z" fill="#7E91B4"/>
<path d="M75.3013 17.5229L76.4355 19.4326L77.6131 17.5229H78.8899L77.0925 20.2916L79.2245 23.6411H77.5883L76.1938 21.336L74.7249 23.6411H73.4482L75.543 20.4584L73.6651 17.5229H75.3013Z" fill="#7E91B4"/>
<path d="M80.303 18.1471C80.8518 17.6652 81.5581 17.3994 82.2894 17.3994C83.0207 17.3994 83.7269 17.6652 84.2758 18.1471C84.5907 18.4682 84.8376 18.8493 85.0016 19.2677C85.1656 19.686 85.2433 20.133 85.2302 20.582C85.2446 21.0301 85.1686 21.4765 85.0068 21.8947C84.845 22.313 84.6006 22.6946 84.2882 23.0169C83.7393 23.4988 83.0331 23.7646 82.3018 23.7646C81.5704 23.7646 80.8642 23.4988 80.3154 23.0169C79.9951 22.6982 79.7427 22.3182 79.5734 21.8998C79.404 21.4814 79.3212 21.0331 79.3299 20.582C79.3156 20.1334 79.3923 19.6866 79.5552 19.2682C79.7181 18.8498 79.964 18.4685 80.2782 18.1471H80.303ZM81.3008 22.3124C81.4193 22.4524 81.5675 22.5644 81.7347 22.6403C81.9019 22.7162 82.084 22.7541 82.2677 22.7512C82.4503 22.7531 82.6312 22.7148 82.7972 22.639C82.9633 22.5631 83.1105 22.4516 83.2283 22.3124C83.5826 21.8083 83.7452 21.1948 83.687 20.582C83.7469 19.9691 83.5841 19.355 83.2283 18.8516C83.1111 18.7113 82.9642 18.5986 82.7981 18.5217C82.632 18.4447 82.4508 18.4055 82.2677 18.4067C82.0835 18.4045 81.9011 18.4434 81.7339 18.5204C81.5666 18.5973 81.4187 18.7105 81.3008 18.8516C80.948 19.3564 80.7856 19.9693 80.8422 20.582C80.7872 21.1946 80.9495 21.8069 81.3008 22.3124Z" fill="#7E91B4"/>
<path d="M85.974 19.1791C86.0385 18.8983 86.159 18.6332 86.3283 18.3996C86.4975 18.166 86.7122 17.9688 86.9594 17.8196C87.4868 17.5196 88.0882 17.3739 88.6948 17.3993C89.2741 17.3831 89.8485 17.5083 90.3682 17.7639C90.6175 17.8802 90.8289 18.0642 90.978 18.2949C91.1271 18.5256 91.2079 18.7935 91.2111 19.0679C91.2214 19.4093 91.0975 19.7411 90.866 19.9928C90.6344 20.2444 90.3135 20.396 89.9715 20.4151C90.3447 20.4571 90.6945 20.6174 90.9694 20.8725C91.2194 21.1534 91.3563 21.5166 91.3537 21.8921C91.3459 22.1823 91.2673 22.4662 91.1248 22.7192C90.9823 22.9723 90.78 23.1869 90.5356 23.3444C89.9647 23.6469 89.3217 23.7879 88.6762 23.7523C87.9582 23.796 87.2452 23.6074 86.6433 23.2147C86.2433 22.8875 85.9766 22.4261 85.8934 21.9169L87.1329 21.7006C87.1933 21.9241 87.2965 22.134 87.4366 22.3186C87.5825 22.4618 87.7578 22.5719 87.9503 22.6412C88.1429 22.7105 88.3482 22.7375 88.5523 22.7203C88.8727 22.7402 89.1919 22.6649 89.4695 22.504C89.5843 22.4279 89.6777 22.3238 89.7406 22.2016C89.8036 22.0793 89.834 21.943 89.829 21.8056C89.8368 21.6895 89.8174 21.5732 89.7722 21.4659C89.727 21.3586 89.6573 21.2633 89.5687 21.1876C89.2751 20.9855 88.9201 20.8916 88.5646 20.9219H87.9449V20.0073H88.5646C88.8343 20.0105 89.1019 19.9601 89.3518 19.8589C89.4792 19.7957 89.5849 19.6961 89.6555 19.5729C89.7261 19.4497 89.7584 19.3083 89.7484 19.1668C89.7517 19.0662 89.7302 18.9663 89.686 18.8758C89.6417 18.7853 89.5759 18.707 89.4943 18.6477C89.2362 18.4716 88.9264 18.3868 88.6142 18.4066C88.2449 18.3891 87.8816 18.5054 87.5916 18.7342C87.3795 18.9145 87.2389 19.1643 87.1949 19.4387L85.974 19.1791Z" fill="#7E91B4"/>
<path d="M98.4874 16.8494H94.5022V18.6724H96.2747C96.9304 18.6292 97.5826 18.7982 98.1341 19.1545C98.4596 19.3612 98.7257 19.6488 98.906 19.989C99.0864 20.3292 99.1749 20.7103 99.1629 21.095C99.1723 21.4356 99.1142 21.7747 98.9918 22.0928C98.8695 22.411 98.6855 22.7019 98.4502 22.949C98.1832 23.1981 97.8659 23.3876 97.5197 23.5048C97.1734 23.6221 96.806 23.6643 96.4421 23.6288H92.587V15.4094H98.4998L98.4874 16.8494ZM94.5022 22.2012H96.064C96.2149 22.2174 96.3675 22.2004 96.511 22.1512C96.6545 22.1021 96.7855 22.0221 96.8945 21.9169C96.9968 21.8118 97.0761 21.6867 97.1273 21.5495C97.1785 21.4122 97.2005 21.2659 97.192 21.1197C97.1971 20.9804 97.1733 20.8415 97.1221 20.7118C97.0709 20.5821 96.9934 20.4643 96.8945 20.3658C96.7764 20.258 96.6373 20.1755 96.4859 20.1234C96.3346 20.0713 96.1741 20.0507 96.0144 20.0629H94.5084L94.5022 22.2012Z" fill="#7E91B4"/>
<path d="M100.142 19.2223C100.21 18.9225 100.339 18.6398 100.521 18.392C100.704 18.1442 100.935 17.9367 101.202 17.7824C101.797 17.4947 102.456 17.3628 103.117 17.3992C104.127 17.3992 105.15 17.529 105.596 18.4807C105.783 18.9494 105.858 19.4553 105.813 19.9577V22.3247C105.806 22.7691 105.862 23.2124 105.981 23.641H104.233C104.175 23.3207 104.144 22.9962 104.14 22.6707C103.935 23.028 103.633 23.3202 103.269 23.5138C102.905 23.7073 102.494 23.7943 102.082 23.7646C101.53 23.784 100.986 23.6187 100.539 23.2949C100.341 23.1255 100.183 22.9148 100.076 22.6777C99.9687 22.4406 99.9152 22.183 99.9191 21.923C99.9188 21.526 100.046 21.1395 100.283 20.8202C100.519 20.5009 100.852 20.2658 101.233 20.1493C101.964 19.9094 102.726 19.7762 103.495 19.7538H104.072V19.624C104.09 19.3701 104.027 19.1168 103.892 18.901C103.651 18.6977 103.339 18.5978 103.024 18.6229C102.743 18.6072 102.464 18.6715 102.218 18.8083C102.107 18.8761 102.012 18.9659 101.937 19.0723C101.862 19.1786 101.811 19.2991 101.785 19.4263L100.142 19.2223ZM103.551 20.7488C103.271 20.7309 102.991 20.7687 102.726 20.8599C102.461 20.9512 102.217 21.094 102.008 21.2802C101.882 21.4359 101.814 21.6303 101.816 21.8303C101.811 21.9351 101.832 22.0394 101.879 22.1335C101.926 22.2276 101.996 22.3082 102.082 22.3679C102.276 22.5029 102.509 22.5703 102.745 22.5595C102.937 22.5603 103.126 22.5218 103.302 22.4463C103.478 22.3708 103.637 22.26 103.768 22.1207C103.998 21.804 104.112 21.4176 104.09 21.0269V20.6993L103.551 20.7488Z" fill="#7E91B4"/>
<path d="M109.011 17.5229V19.8157H110.951V17.5229H112.742V23.6411H110.951V21.0764H109.011V23.6411H107.22V17.5229H109.011Z" fill="#7E91B4"/>
<path d="M115.934 17.5229V19.8713H116.411C116.593 19.8876 116.776 19.8454 116.932 19.7509C117.088 19.6564 117.21 19.5145 117.279 19.346C117.533 18.8084 117.521 18.382 117.75 17.9617C117.802 17.8463 117.881 17.7456 117.982 17.6689C118.083 17.5923 118.201 17.5421 118.327 17.5229H119.808C119.622 17.7192 119.464 17.9395 119.337 18.178C119.145 18.5797 118.965 19.2224 118.86 19.5005C118.797 19.7219 118.666 19.9183 118.486 20.0623C118.306 20.2063 118.086 20.2908 117.856 20.3039C118.044 20.335 118.224 20.4063 118.382 20.5129C118.54 20.6196 118.674 20.7591 118.773 20.9219C118.956 21.2357 119.101 21.5696 119.207 21.9169C119.374 22.3989 119.448 22.5658 119.603 22.9366C119.698 23.1889 119.831 23.4246 120 23.6349H118.314C118.048 23.5546 117.868 23.3692 117.657 22.745C117.484 22.2692 117.459 22.127 117.354 21.8366L117.267 21.6203C117.225 21.4469 117.122 21.2947 116.976 21.1922C116.83 21.0897 116.651 21.0441 116.473 21.0641H115.934V23.6411H114.137V17.5229H115.934Z" fill="#7E91B4"/>
<path d="M15.5295 17.832C15.5125 18.0178 15.4265 18.1904 15.2883 18.3164C15.1501 18.4421 14.9698 18.512 14.7827 18.512C14.5956 18.512 14.4152 18.4421 14.277 18.3164C14.1389 18.1904 14.0528 18.0178 14.0358 17.832C14.0351 17.6868 14.0783 17.5447 14.1598 17.4241L14.3705 17.0718C14.3044 17.0139 14.2514 16.9426 14.2151 16.8628C14.1787 16.7827 14.1599 16.696 14.1598 16.6084C14.1599 16.5205 14.1787 16.4338 14.2151 16.354C14.2514 16.2742 14.3044 16.2029 14.3705 16.1448L14.1598 15.7988C14.0783 15.6782 14.0351 15.5361 14.0358 15.3909C14.0264 15.2874 14.0386 15.1831 14.0719 15.0845C14.1051 14.9861 14.1586 14.8955 14.2288 14.8188C14.2991 14.7419 14.3846 14.6807 14.48 14.6389C14.5754 14.5969 14.6784 14.5752 14.7827 14.5752C14.8869 14.5752 14.99 14.5969 15.0853 14.6389C15.1807 14.6807 15.2662 14.7419 15.3365 14.8188C15.4068 14.8955 15.4602 14.9861 15.4935 15.0845C15.5267 15.1831 15.539 15.2874 15.5295 15.3909C15.4609 15.7478 15.3419 16.0933 15.1762 16.4167V16.8062C15.3419 17.1296 15.4609 17.4751 15.5295 17.832Z" fill="#7E91B4"/>
<path d="M20.1779 24.667L19.6511 24.1665L20.1779 21.4412V24.667Z" fill="#7E91B4"/>
<path fill-rule="evenodd" clip-rule="evenodd" d="M13.2489 32.7441C10.4701 32.7451 7.76144 31.8745 5.50628 30.2556C3.25113 28.6367 1.56373 26.3516 0.682949 23.7236C-0.197838 21.0957 -0.227394 18.2581 0.598461 15.6125C1.42432 12.967 3.06375 10.6475 5.28469 8.98218L5.42105 8.87085V3H13.0134V6.33105H13.2365C16.7004 6.40576 19.9972 7.83032 22.4205 10.2993C24.8439 12.7686 26.2009 16.0859 26.2009 19.5408C26.2009 22.9954 24.8439 26.3127 22.4205 28.782C19.9972 31.251 16.7004 32.6755 13.2365 32.7502L13.2489 32.7441ZM13.2487 7.17773H12.6289V8.03687H13.2487C15.9656 8.03223 18.5972 8.98193 20.6817 10.7195C22.7662 12.4568 24.1703 14.8708 24.6475 17.5378C25.1248 20.2048 24.6446 22.9541 23.2914 25.3032C21.9382 27.6521 19.7983 29.4509 17.2475 30.3835C14.6968 31.3162 11.898 31.323 9.34264 30.4028C6.78727 29.4829 4.63857 27.6946 3.27375 25.3523C1.90892 23.01 1.4152 20.2629 1.87924 17.5938C2.34328 14.9246 3.73544 12.5037 5.81132 10.7559V9.66211C3.45664 11.4231 1.80721 13.9619 1.15818 16.8245C0.509148 19.6873 0.90287 22.6868 2.2689 25.2864C3.63493 27.886 5.88411 29.916 8.61398 31.0134C11.3438 32.1108 14.3762 32.2039 17.1686 31.2756C19.9609 30.3477 22.3309 28.459 23.8544 25.948C25.378 23.4368 25.9558 20.467 25.4843 17.5701C25.0128 14.6731 23.5229 12.0381 21.2811 10.1362C19.0394 8.23438 16.1921 7.19019 13.2487 7.19019V7.17773ZM8.25945 8.1355L8.62513 8.48779V3.85278H9.04038V10.6384L6.27615 7.93774V3.85278H6.6914V6.60913L7.05708 6.96753V3.85278H7.47853V7.36914L7.838 7.72754V3.85278H8.25945V8.1355ZM12.1703 10.1997L9.41225 12.9065V11.1575L12.1703 8.46924V10.1997ZM12.1703 17.0471L9.41225 19.7478V17.8999L12.1703 15.2117V17.0471ZM9.41225 15.1685L12.1703 12.4614V10.7373L9.41225 13.4255V15.1685ZM9.41225 17.4304L12.1703 14.7297V12.9993L9.41225 15.6875V17.4304ZM9.04038 19.7478L6.27615 17.0471V15.2117L9.04038 17.8999V19.7478ZM11.755 6.60913L11.3894 6.96753V3.85278H10.9741V7.37524L10.6084 7.72754V3.85278H10.1932V8.12939L9.8275 8.48779V3.85278H9.41225V10.6384L12.1703 7.93774V3.85278H11.755V6.60913ZM9.04038 12.9065L6.27615 10.1997V8.46924L9.04038 11.1575V12.9065ZM6.27615 12.4614L9.04038 15.1685V13.4194L6.27615 10.7373V12.4614ZM9.04038 17.4365L6.27615 14.7297V12.9993L9.04038 15.6875V17.4365ZM22.719 16.1572H16.0067C16.1528 15.9304 16.2302 15.6665 16.2299 15.397C16.2379 15.165 16.1898 14.9346 16.0897 14.7249C15.9896 14.5154 15.8403 14.333 15.6545 14.1931C15.4687 14.0532 15.2519 13.96 15.0224 13.9211C14.7928 13.8823 14.5573 13.8994 14.3357 13.9705C14.1141 14.0417 13.9129 14.165 13.7492 14.3301C13.5855 14.4951 13.4641 14.6973 13.3952 14.9189C13.3262 15.1406 13.3119 15.3757 13.3533 15.604C13.3946 15.8325 13.4906 16.0476 13.633 16.2314C13.569 16.2729 13.5162 16.3298 13.4795 16.3967C13.4427 16.4634 13.4231 16.5383 13.4222 16.6145C13.4236 16.6914 13.4435 16.7671 13.4802 16.8347C13.5168 16.9023 13.5692 16.9604 13.633 17.0039C13.4942 17.1875 13.4015 17.4016 13.3628 17.6282C13.324 17.855 13.3402 18.0874 13.41 18.3066C13.4799 18.5256 13.6013 18.7251 13.7642 18.8877C13.9271 19.0505 14.1268 19.1719 14.3464 19.2419C14.566 19.312 14.7993 19.3286 15.0266 19.2903C15.254 19.252 15.4689 19.1599 15.6533 19.022C15.8377 18.884 15.9863 18.7039 16.0866 18.4968C16.1869 18.2898 16.236 18.0618 16.2299 17.832C16.231 17.5625 16.1534 17.2983 16.0067 17.0718H21.0022V17.3748H20.5064V17.832H21.0022V18.2708H20.5064V19.0679H21.0022V18.6973H21.7273V19.0679H22.2232V18.2397H21.7273V17.832H22.2232V17.4119H21.7273V17.1089H22.719C22.8116 17.1074 22.8999 17.0696 22.9648 17.0037C23.0297 16.9377 23.0661 16.8491 23.0661 16.7566V16.5403C23.0661 16.448 23.0297 16.3594 22.9648 16.2935C22.8999 16.2275 22.8116 16.1897 22.719 16.1882V16.1572ZM3.76604 17.0779V15.261C4.06731 16.0581 4.54627 16.7766 5.16674 17.3621C5.48396 17.6753 5.84345 18.0232 6.28022 18.4453L6.28149 18.4468L6.29832 18.4629L6.34197 18.5051C6.69271 18.8445 7.09266 19.2314 7.5591 19.6858C8.00379 20.0308 8.3595 20.4763 8.59666 20.9858C8.83381 21.4954 8.94557 22.054 8.92263 22.6152V24.6299C8.69088 24.0342 8.30873 23.5083 7.81322 23.1033L4.95602 20.3037C4.16266 19.4185 3.73718 18.2649 3.76604 17.0779ZM6.6606 23.2793C6.04528 22.6851 5.57159 22.2278 5.16674 21.8242C4.59035 21.2966 4.11563 20.6682 3.76604 19.9702V21.54C3.75344 22.7297 4.17655 23.8833 4.95602 24.7844L7.81321 27.5715C8.31488 27.9973 8.69893 28.5442 8.92882 29.1599V27.0586C8.94777 26.5007 8.83412 25.946 8.59715 25.4402C8.36019 24.9343 8.00662 24.4915 7.5653 24.1479H7.5591L6.6606 23.2793ZM22.5578 25.1799C22.3843 25.458 22.2046 25.7236 22.0124 25.9895V23.5237H22.5578V25.1799ZM23.5991 22.918L23.6036 22.9043L23.6239 22.918H23.5991ZM23.6036 22.9043C23.2232 22.6528 22.7595 22.5579 22.3099 22.6399H22.0124V22.1948H23.8098C23.749 22.4312 23.6822 22.6677 23.6036 22.9043ZM11.1414 22.1333H11.6311V27.0588H11.1414V22.1333ZM10.0196 21.1877H11.6311C11.9432 21.1567 12.2555 21.2451 12.505 21.4348C12.6027 21.5537 12.675 21.6912 12.7176 21.8389C12.7603 21.9866 12.7723 22.1414 12.7529 22.2939V26.8979C12.7718 27.0522 12.7596 27.209 12.7171 27.3586C12.6745 27.5083 12.6024 27.6479 12.505 27.7693C12.1765 27.9866 11.7798 28.0767 11.3894 28.0227H11.1538V30.1919C11.315 30.2229 11.4761 30.2537 11.6435 30.2722V28.48C11.9333 28.5161 12.2272 28.4626 12.4855 28.3267C12.7438 28.1907 12.9539 27.9788 13.0876 27.72V30.3835H13.5524V22.3496C13.5216 22.0325 13.61 21.7153 13.8003 21.4595C14.0429 21.2656 14.3524 21.1746 14.6618 21.2063C14.718 21.2063 14.7777 21.2051 14.8399 21.2039H14.8416C15.2389 21.1965 15.7338 21.1875 16.0067 21.4595C16.1922 21.7173 16.276 22.0342 16.2422 22.3496V24.7102H15.139V22.2197H14.6618V30.3093C14.7854 30.3093 14.9054 30.2839 15.0273 30.2581C15.0643 30.2502 15.1015 30.2424 15.139 30.2351V25.2478H16.2422V30.0127C16.4716 29.9509 16.6947 29.8767 16.9178 29.7964V25.4087C16.9178 24.9143 17.0356 24.5435 17.5376 24.3704L16.986 21.3359H18.1016L18.2875 24.6545H18.4239L18.6098 21.3359H19.7874L19.1676 24.3704C19.6944 24.5557 19.7874 24.8772 19.7874 25.4087V28.2205C20.1159 27.979 20.4285 27.717 20.7233 27.4355V21.3113H23.9957C23.9957 21.2217 24.013 21.1296 24.0304 21.0366L24.0446 20.9585L24.0532 20.9055L24.0577 20.8726H16.4034L16.515 21.4163C16.3719 21.1873 16.1668 21.0029 15.9234 20.885C15.68 20.7668 15.4081 20.7197 15.139 20.7488H14.6618C14.3381 20.7034 14.0089 20.7756 13.7344 20.9529C13.46 21.1299 13.2589 21.3999 13.1681 21.7129C13.0805 21.3867 12.8752 21.104 12.5915 20.9194C12.3079 20.7346 11.9659 20.6606 11.6311 20.7119H9.53001V29.7532L10.0196 29.9138V21.1877ZM18.6036 28.999L18.1016 29.2649V25.2478H18.6036V28.999Z" fill="#7E91B4"/>
</svg>
