<svg width="66" height="20" viewBox="0 0 66 20" fill="none" xmlns="http://www.w3.org/2000/svg">
<path d="M17.9461 8.47527C18.3664 8.43983 18.7875 8.53354 19.1528 8.74379C19.3301 8.86222 19.4737 9.02422 19.5699 9.21416C19.666 9.40409 19.7114 9.61553 19.7016 9.82806C19.7016 10.4739 19.2926 11.2352 18.1609 11.2352H17.2064V13.0027H16.361V8.47527H17.9461ZM17.9802 10.5724C18.1008 10.5883 18.2235 10.5796 18.3406 10.5469C18.4578 10.5142 18.5671 10.4581 18.662 10.3821C18.8056 10.2359 18.8864 10.0395 18.8869 9.83486C18.887 9.73858 18.8678 9.64325 18.8303 9.55452C18.7928 9.46578 18.7379 9.38543 18.6688 9.31822C18.4803 9.17912 18.2482 9.11163 18.0143 9.12787H17.2064V10.5656L17.9802 10.5724Z" fill="#7E91B4"/>
<path d="M20.472 9.98106C20.7739 9.71603 21.1623 9.56982 21.5646 9.56982C21.9668 9.56982 22.3552 9.71603 22.6571 9.98106C22.8299 10.1578 22.9651 10.3676 23.0547 10.5977C23.1443 10.8278 23.1865 11.0735 23.1786 11.3203C23.1861 11.5669 23.1438 11.8126 23.0542 12.0426C22.9646 12.2727 22.8295 12.4824 22.6571 12.6595C22.3552 12.9245 21.9668 13.0707 21.5646 13.0707C21.1623 13.0707 20.7739 12.9245 20.472 12.6595C20.299 12.4827 20.1633 12.2731 20.0731 12.043C19.9829 11.813 19.9401 11.5672 19.9471 11.3203C19.9399 11.0733 19.9826 10.8275 20.0728 10.5974C20.163 10.3673 20.2988 10.1577 20.472 9.98106ZM21.0345 12.272C21.1004 12.3476 21.1818 12.4083 21.2733 12.4498C21.3647 12.4914 21.4641 12.5129 21.5646 12.5129C21.6651 12.5129 21.7644 12.4914 21.8558 12.4498C21.9473 12.4083 22.0287 12.3476 22.0946 12.272C22.2895 11.9947 22.3789 11.6573 22.3469 11.3203C22.3798 10.9831 22.2903 10.6454 22.0946 10.3685C22.0307 10.2898 21.9499 10.2262 21.8582 10.1826C21.7665 10.1389 21.6662 10.1163 21.5646 10.1163C21.4629 10.1163 21.3626 10.1389 21.2709 10.1826C21.1792 10.2262 21.0984 10.2898 21.0345 10.3685C20.8404 10.6462 20.7511 10.9833 20.7822 11.3203C20.752 11.6572 20.8413 11.994 21.0345 12.272Z" fill="#7E91B4"/>
<path d="M25.8204 10.8715C25.8065 10.6949 25.7492 10.5245 25.6534 10.3753C25.5981 10.2945 25.5231 10.229 25.4354 10.185C25.3478 10.141 25.2504 10.1199 25.1523 10.1237C25.0424 10.1213 24.9339 10.1492 24.8388 10.2044C24.7438 10.2596 24.6659 10.3399 24.6137 10.4364C24.4838 10.7124 24.423 11.0156 24.4365 11.3202C24.421 11.6271 24.4819 11.933 24.6137 12.2107C24.6702 12.303 24.7493 12.3794 24.8435 12.4329C24.9377 12.4864 25.0439 12.5152 25.1523 12.5166C25.2485 12.5178 25.3435 12.4955 25.4291 12.4517C25.5146 12.4078 25.5882 12.3438 25.6432 12.2651C25.7447 12.1129 25.8057 11.9374 25.8204 11.7553L26.5227 11.8402C26.4847 12.1726 26.3359 12.4827 26.1 12.7206C25.8287 12.9509 25.4811 13.0721 25.1251 13.0605C24.7479 13.0723 24.381 12.9369 24.1024 12.6832C23.9291 12.5033 23.7949 12.2897 23.7081 12.0558C23.6213 11.8219 23.5838 11.5726 23.5979 11.3236C23.576 10.8808 23.7152 10.4451 23.9899 10.0966C24.1323 9.93063 24.309 9.79735 24.5079 9.70584C24.7067 9.61432 24.9231 9.56672 25.1421 9.56631C25.3216 9.56078 25.5004 9.59066 25.6683 9.65424C25.8362 9.71782 25.9899 9.81384 26.1204 9.9368C26.3359 10.1723 26.475 10.4674 26.5193 10.7831L25.8204 10.8715Z" fill="#7E91B4"/>
<path d="M29.1065 10.8716C29.0922 10.6956 29.0361 10.5255 28.9429 10.3754C28.8866 10.2947 28.8109 10.2295 28.7228 10.1856C28.6346 10.1416 28.5369 10.1204 28.4384 10.1238C28.3285 10.1218 28.2202 10.1498 28.1252 10.205C28.0302 10.2601 27.9523 10.3402 27.8998 10.4365C27.7699 10.7125 27.709 11.0157 27.7226 11.3203C27.7087 11.627 27.7696 11.9326 27.8998 12.2108C27.9563 12.3031 28.0354 12.3795 28.1296 12.433C28.2237 12.4865 28.33 12.5153 28.4384 12.5167C28.5346 12.5182 28.6298 12.496 28.7154 12.4521C28.801 12.4083 28.8744 12.3441 28.9293 12.2652C29.0308 12.113 29.0918 11.9375 29.1065 11.7553L29.8087 11.8403C29.7724 12.1732 29.6233 12.4837 29.3861 12.7207C29.1148 12.951 28.7672 13.0721 28.4111 13.0606C28.0341 13.0717 27.6675 12.9364 27.3885 12.6833C27.2152 12.5034 27.081 12.2898 26.9942 12.0559C26.9074 11.8219 26.8699 11.5727 26.884 11.3237C26.861 10.8829 26.9977 10.4486 27.2692 10.1C27.4116 9.93412 27.5883 9.80084 27.7871 9.70933C27.986 9.61781 28.2023 9.57022 28.4214 9.5698C28.6009 9.56427 28.7797 9.59415 28.9476 9.65773C29.1155 9.72131 29.2691 9.81734 29.3997 9.94029C29.6165 10.175 29.7557 10.4704 29.7985 10.7866L29.1065 10.8716Z" fill="#7E91B4"/>
<path d="M33.3505 12.0272C33.2587 12.3381 33.0625 12.6081 32.7949 12.792C32.4615 13.0036 32.0673 13.0991 31.6737 13.0634C31.2802 13.0277 30.9096 12.8629 30.62 12.5948C30.3168 12.2456 30.1562 11.7955 30.1701 11.3338C30.1584 11.0708 30.2059 10.8085 30.3092 10.5662C30.4124 10.3239 30.5687 10.1077 30.7666 9.93343C31.0527 9.69384 31.4157 9.56477 31.7893 9.56974C32.0349 9.55869 32.2794 9.60775 32.5017 9.71261C32.7239 9.81748 32.917 9.97497 33.0642 10.1714C33.291 10.5089 33.4099 10.9071 33.405 11.3134V11.4664H31.0189C31.0142 11.6681 31.0525 11.8685 31.1314 12.0544C31.1924 12.1935 31.2924 12.3121 31.4194 12.3959C31.5464 12.4797 31.6949 12.5252 31.8472 12.5268C31.9568 12.5284 32.0655 12.5078 32.1668 12.4664C32.2682 12.4249 32.3601 12.3634 32.4369 12.2855C32.5302 12.1935 32.5922 12.0746 32.6142 11.9456L33.3505 12.0272ZM32.5699 10.9633C32.5736 10.7686 32.5229 10.5768 32.4233 10.4093C32.356 10.3138 32.2667 10.2359 32.1629 10.182C32.0591 10.1282 31.9438 10.1 31.8268 10.1C31.7118 10.1013 31.5985 10.1271 31.4944 10.1758C31.3903 10.2245 31.2979 10.2948 31.2234 10.3821C31.0918 10.5475 31.0198 10.7522 31.0189 10.9633H32.5699Z" fill="#7E91B4"/>
<path d="M36.6741 9.63777V13.0028H35.9037V10.2054H35.031C35.0106 10.6609 34.9969 10.8444 34.9833 11.1537C34.9697 11.463 34.939 12.2448 34.6424 12.6459C34.5154 12.8151 34.3335 12.9352 34.1277 12.9858C34.0395 13.0133 33.9475 13.0271 33.855 13.0265C33.7881 13.0276 33.7214 13.0184 33.6573 12.9994V12.4215H33.7221C33.8384 12.4097 33.9493 12.3662 34.0425 12.2958C34.305 12.085 34.3322 11.616 34.3595 11.2353C34.3936 10.739 34.4004 10.4433 34.4038 9.99466V9.63777H36.6741Z" fill="#7E91B4"/>
<path d="M38.2524 10.8274H39.1011C39.4359 10.8081 39.7654 10.9176 40.0215 11.1333C40.117 11.2369 40.1907 11.3586 40.2381 11.4912C40.2856 11.6237 40.3058 11.7644 40.2976 11.9049C40.3111 12.0632 40.2874 12.2225 40.2282 12.37C40.169 12.5176 40.076 12.6493 39.9568 12.7546C39.73 12.9202 39.4536 13.0041 39.1727 12.9926H37.4956V9.63777H38.2626L38.2524 10.8274ZM38.2524 12.4385H38.8591C39.0143 12.454 39.1698 12.4117 39.2955 12.3196C39.3522 12.2681 39.3972 12.205 39.4272 12.1346C39.4572 12.0642 39.4715 11.9882 39.4693 11.9117C39.4772 11.8285 39.4623 11.7448 39.4263 11.6694C39.3903 11.594 39.3345 11.5297 39.2648 11.4834C39.1421 11.4116 39.0013 11.3762 38.8591 11.3814H38.2558L38.2524 12.4385Z" fill="#7E91B4"/>
<path d="M41.4157 9.63777L42.0395 10.6881L42.6872 9.63777H43.3894L42.4009 11.1605L43.5735 13.0028H42.6736L41.9066 11.7349L41.0987 13.0028H40.3965L41.5487 11.2523L40.5158 9.63777H41.4157Z" fill="#7E91B4"/>
<path d="M44.1666 9.98106C44.4685 9.71603 44.8569 9.56982 45.2591 9.56982C45.6614 9.56982 46.0498 9.71603 46.3517 9.98106C46.5249 10.1577 46.6607 10.3673 46.7509 10.5974C46.8411 10.8275 46.8838 11.0733 46.8766 11.3203C46.8845 11.5667 46.8427 11.8122 46.7537 12.0422C46.6647 12.2723 46.5303 12.4822 46.3585 12.6595C46.0566 12.9245 45.6682 13.0707 45.266 13.0707C44.8638 13.0707 44.4753 12.9245 44.1734 12.6595C43.9973 12.4841 43.8585 12.2751 43.7654 12.045C43.6722 11.8149 43.6267 11.5684 43.6314 11.3203C43.6236 11.0735 43.6657 10.8278 43.7554 10.5977C43.845 10.3676 43.9802 10.1578 44.153 9.98106H44.1666ZM44.7154 12.272C44.7806 12.349 44.8621 12.4106 44.9541 12.4523C45.0461 12.4941 45.1462 12.5149 45.2472 12.5133C45.3477 12.5144 45.4471 12.4933 45.5385 12.4516C45.6298 12.4099 45.7108 12.3485 45.7756 12.272C45.9704 11.9947 46.0599 11.6573 46.0278 11.3203C46.0608 10.9831 45.9713 10.6454 45.7756 10.3685C45.7111 10.2914 45.6303 10.2294 45.5389 10.1871C45.4476 10.1448 45.3479 10.1232 45.2472 10.1238C45.1459 10.1226 45.0456 10.144 44.9536 10.1863C44.8616 10.2287 44.7803 10.2909 44.7154 10.3685C44.5214 10.6462 44.4321 10.9833 44.4632 11.3203C44.4329 11.6572 44.5222 11.994 44.7154 12.272Z" fill="#7E91B4"/>
<path d="M47.2857 10.5487C47.3212 10.3942 47.3874 10.2484 47.4805 10.1199C47.5737 9.99147 47.6917 9.88298 47.8277 9.8009C48.1177 9.63592 48.4485 9.55581 48.7821 9.56977C49.1007 9.56087 49.4167 9.62972 49.7025 9.77031C49.8396 9.83426 49.9559 9.93548 50.0379 10.0623C50.1199 10.1892 50.1643 10.3366 50.1661 10.4875C50.1717 10.6752 50.1036 10.8578 49.9763 10.9962C49.8489 11.1346 49.6724 11.2179 49.4844 11.2285C49.6896 11.2516 49.882 11.3397 50.0332 11.48C50.1707 11.6345 50.246 11.8343 50.2445 12.0408C50.2403 12.2004 50.197 12.3565 50.1186 12.4957C50.0402 12.6349 49.929 12.7529 49.7946 12.8396C49.4806 13.0059 49.1269 13.0835 48.7719 13.0639C48.377 13.088 47.9849 12.9842 47.6538 12.7682C47.4338 12.5883 47.2872 12.3345 47.2414 12.0544L47.9231 11.9355C47.9563 12.0584 48.0131 12.1738 48.0902 12.2754C48.1704 12.3541 48.2668 12.4147 48.3727 12.4528C48.4786 12.4909 48.5915 12.5058 48.7037 12.4963C48.88 12.5072 49.0556 12.4658 49.2082 12.3773C49.2714 12.3355 49.3227 12.2782 49.3573 12.211C49.392 12.1438 49.4087 12.0688 49.406 11.9932C49.4103 11.9294 49.3996 11.8654 49.3747 11.8064C49.3498 11.7474 49.3115 11.695 49.2628 11.6533C49.1013 11.5422 48.9061 11.4905 48.7106 11.5072H48.3697V11.0041H48.7106C48.8589 11.0059 49.006 10.9782 49.1435 10.9226C49.2135 10.8878 49.2717 10.833 49.3105 10.7652C49.3494 10.6975 49.3671 10.6197 49.3616 10.5419C49.3634 10.4865 49.3516 10.4316 49.3273 10.3818C49.3029 10.3321 49.2667 10.289 49.2219 10.2564C49.0799 10.1595 48.9095 10.1129 48.7378 10.1238C48.5347 10.1141 48.3349 10.1781 48.1754 10.3039C48.0587 10.4031 47.9814 10.5405 47.9572 10.6914L47.2857 10.5487Z" fill="#7E91B4"/>
<path d="M54.1681 9.26729H51.9762V10.27H52.9511C53.3117 10.2462 53.6704 10.3392 53.9737 10.5351C54.1528 10.6488 54.2991 10.807 54.3983 10.9941C54.4975 11.1812 54.5462 11.3908 54.5396 11.6024C54.5448 11.7897 54.5128 11.9762 54.4455 12.1512C54.3782 12.3262 54.277 12.4862 54.1476 12.6221C54.0007 12.7591 53.8263 12.8633 53.6358 12.9278C53.4454 12.9923 53.2433 13.0155 53.0431 12.996H50.9229V8.47533H54.1749L54.1681 9.26729ZM51.9762 12.2108H52.8352C52.9182 12.2197 53.0021 12.2103 53.081 12.1833C53.16 12.1563 53.232 12.1123 53.292 12.0545C53.3482 11.9967 53.3918 11.9278 53.42 11.8524C53.4482 11.7769 53.4603 11.6964 53.4556 11.616C53.4584 11.5394 53.4453 11.463 53.4172 11.3916C53.389 11.3203 53.3464 11.2555 53.292 11.2013C53.227 11.142 53.1505 11.0967 53.0673 11.068C52.984 11.0394 52.8958 11.0281 52.8079 11.0348H51.9796L51.9762 12.2108Z" fill="#7E91B4"/>
<path d="M55.0782 10.5724C55.1154 10.4075 55.1864 10.252 55.2867 10.1157C55.387 9.97946 55.5145 9.86531 55.6611 9.78046C55.9886 9.62223 56.3511 9.5497 56.7144 9.56972C57.2701 9.56972 57.8325 9.6411 58.0779 10.1645C58.1809 10.4223 58.2217 10.7005 58.1973 10.9769V12.2787C58.1932 12.5232 58.2242 12.767 58.2893 13.0027H57.328C57.2963 12.8265 57.2792 12.648 57.2769 12.4691C57.1643 12.6655 56.9983 12.8263 56.7981 12.9327C56.5978 13.0392 56.3715 13.087 56.1452 13.0707C55.8413 13.0813 55.5425 12.9904 55.2964 12.8123C55.1875 12.7192 55.1006 12.6033 55.0417 12.4729C54.9828 12.3425 54.9534 12.2008 54.9555 12.0578C54.9553 11.8395 55.0255 11.6269 55.1556 11.4513C55.2857 11.2756 55.4688 11.1463 55.6781 11.0823C56.0802 10.9503 56.4993 10.8771 56.9224 10.8647H57.2394V10.7934C57.2496 10.6537 57.215 10.5144 57.1405 10.3957C57.0079 10.2839 56.8364 10.2289 56.6633 10.2427C56.5089 10.2341 56.3552 10.2694 56.2201 10.3447C56.1591 10.382 56.1064 10.4314 56.0654 10.4899C56.0243 10.5484 55.9958 10.6146 55.9815 10.6846L55.0782 10.5724ZM56.953 11.412C56.7992 11.4021 56.6449 11.4229 56.4992 11.4731C56.3535 11.5233 56.2192 11.6019 56.1042 11.7043C56.035 11.7899 55.9977 11.8968 55.9986 12.0068C55.9958 12.0644 56.0078 12.1218 56.0335 12.1736C56.0591 12.2253 56.0976 12.2697 56.1452 12.3025C56.2518 12.3768 56.38 12.4138 56.5099 12.4079C56.6152 12.4083 56.7196 12.3871 56.8163 12.3456C56.9131 12.3041 57.0002 12.2431 57.0723 12.1665C57.1991 11.9923 57.2618 11.7798 57.2496 11.5649V11.3848L56.953 11.412Z" fill="#7E91B4"/>
<path d="M59.9562 9.63777V10.8988H61.0232V9.63777H62.0083V13.0028H61.0232V11.5922H59.9562V13.0028H58.9711V9.63777H59.9562Z" fill="#7E91B4"/>
<path d="M63.7638 9.63777V10.9294H64.0263C64.1264 10.9383 64.2267 10.9151 64.3126 10.8632C64.3984 10.8112 64.4654 10.7331 64.5035 10.6405C64.6433 10.3448 64.6365 10.1102 64.7626 9.8791C64.7909 9.81561 64.8348 9.76023 64.8902 9.71807C64.9456 9.6759 65.0107 9.64829 65.0796 9.63777H65.8943C65.7921 9.74569 65.705 9.86688 65.6353 9.99806C65.5296 10.219 65.4307 10.5725 65.3728 10.7254C65.3382 10.8472 65.2665 10.9552 65.1675 11.0344C65.0685 11.1136 64.9473 11.1601 64.8206 11.1673C64.9242 11.1844 65.023 11.2236 65.1101 11.2823C65.1972 11.3409 65.2705 11.4177 65.3251 11.5072C65.4256 11.6798 65.5057 11.8634 65.5637 12.0544C65.6557 12.3196 65.6966 12.4113 65.7818 12.6153C65.8337 12.754 65.9073 12.8837 66 12.9994H65.0728C64.9262 12.9552 64.8274 12.8532 64.7115 12.5099C64.616 12.2482 64.6024 12.17 64.5444 12.0103L64.4967 11.8913C64.474 11.796 64.4171 11.7122 64.3367 11.6559C64.2563 11.5995 64.158 11.5744 64.0604 11.5854H63.7638V13.0028H62.7753V9.63777H63.7638Z" fill="#7E91B4"/>
<path d="M8.54123 9.80776C8.53188 9.90995 8.48456 10.0049 8.40856 10.0742C8.33257 10.1433 8.23337 10.1817 8.13047 10.1817C8.02756 10.1817 7.92837 10.1433 7.85237 10.0742C7.77637 10.0049 7.72905 9.90995 7.71971 9.80776C7.71931 9.72787 7.74307 9.64972 7.78788 9.58339L7.90378 9.38962C7.86742 9.3578 7.83828 9.31859 7.81829 9.27468C7.79831 9.23064 7.78794 9.18297 7.78788 9.13477C7.78794 9.08643 7.79831 9.03876 7.81829 8.99485C7.83828 8.95094 7.86742 8.91173 7.90378 8.87977L7.78788 8.6895C7.74307 8.62317 7.71931 8.54502 7.71971 8.46512C7.7145 8.40819 7.72125 8.35085 7.73953 8.29661C7.7578 8.24249 7.7872 8.19268 7.82585 8.15051C7.8645 8.10822 7.91155 8.07451 7.964 8.05155C8.01645 8.02845 8.07314 8.0165 8.13047 8.0165C8.18779 8.0165 8.24448 8.02845 8.29693 8.05155C8.34938 8.07451 8.39643 8.10822 8.43508 8.15051C8.47373 8.19268 8.50313 8.24249 8.52141 8.29661C8.53968 8.35085 8.54643 8.40819 8.54123 8.46512C8.50349 8.66144 8.43807 8.85144 8.34693 9.02936V9.24353C8.43807 9.42145 8.50349 9.61145 8.54123 9.80776Z" fill="#7E91B4"/>
<path d="M11.0978 13.567L10.8081 13.2917L11.0978 11.7928V13.567Z" fill="#7E91B4"/>
<path fill-rule="evenodd" clip-rule="evenodd" d="M7.28689 18.0094C5.75856 18.01 4.26879 17.5311 3.02846 16.6407C1.78812 15.7503 0.860053 14.4935 0.375622 13.0481C-0.108811 11.6028 -0.125067 10.0421 0.329154 8.58705C0.783374 7.13202 1.68506 5.85625 2.90658 4.94034L2.98158 4.87911V1.65015H7.15736V3.48223H7.28008C9.18524 3.52332 10.9985 4.30682 12.3313 5.66477C13.6641 7.02285 14.4105 8.84741 14.4105 10.7476C14.4105 12.6476 13.6641 14.4722 12.3313 15.8302C10.9985 17.1882 9.18524 17.9717 7.28008 18.0128L7.28689 18.0094ZM7.28679 3.9479H6.94591V4.42042H7.28679C8.78106 4.41787 10.2285 4.94021 11.3749 5.89586C12.5214 6.85138 13.2937 8.17911 13.5562 9.64596C13.8186 11.1128 13.5545 12.6249 12.8103 13.9169C12.066 15.2088 10.8891 16.1982 9.48615 16.7111C8.08321 17.224 6.54391 17.2278 5.13845 16.7217C3.733 16.2157 2.55122 15.2322 1.80056 13.9439C1.04991 12.6557 0.77836 11.1448 1.03358 9.67671C1.28881 8.20865 2.05449 6.87716 3.19623 5.91587V5.31431C1.90115 6.28285 0.993965 7.6792 0.636997 9.2536C0.280031 10.8281 0.496579 12.4779 1.2479 13.9077C1.99921 15.3374 3.23626 16.454 4.73769 17.0575C6.23912 17.6611 7.90694 17.7123 9.44271 17.2017C10.9785 16.6914 12.282 15.6526 13.1199 14.2715C13.9579 12.8904 14.2757 11.257 14.0164 9.66368C13.7571 8.07035 12.9376 6.62109 11.7046 5.57507C10.4717 4.52905 8.90563 3.95475 7.28679 3.95475V3.9479ZM4.5427 4.47467L4.74382 4.66843V2.11918H4.97221V5.85128L3.45188 4.36591V2.11918H3.68027V3.63517L3.88139 3.83229V2.11918H4.11319V4.05317L4.3109 4.25029V2.11918H4.5427V4.47467ZM6.69365 5.60999L5.17674 7.09872V6.13676L6.69365 4.65823V5.60999ZM6.69365 9.37606L5.17674 10.8614V9.84509L6.69365 8.36657V9.37606ZM5.17674 8.3428L6.69365 6.85393V5.90566L5.17674 7.38419V8.3428ZM5.17674 9.58688L6.69365 8.1015V7.14974L5.17674 8.62827V9.58688ZM4.97221 10.8614L3.45188 9.37606V8.36657L4.97221 9.84509V10.8614ZM6.46527 3.63517L6.26415 3.83229V2.11918H6.03576V4.05653L5.83464 4.25029V2.11918H5.60625V4.47131L5.40513 4.66843V2.11918H5.17674V5.85128L6.69365 4.36591V2.11918H6.46527V3.63517ZM4.97221 7.09872L3.45188 5.60999V4.65823L4.97221 6.13676V7.09872ZM3.45188 6.85393L4.97221 8.3428V7.38084L3.45188 5.90566V6.85393ZM4.97221 9.59023L3.45188 8.1015V7.14974L4.97221 8.62827V9.59023ZM12.4954 8.88662H8.80371C8.88403 8.76188 8.92664 8.61672 8.92642 8.46848C8.93086 8.34092 8.90442 8.21416 8.84934 8.09882C8.79426 7.98361 8.71216 7.8833 8.60999 7.80636C8.50781 7.72942 8.38855 7.67812 8.26229 7.65677C8.13604 7.63543 8.0065 7.64482 7.88462 7.6839C7.76274 7.72311 7.65211 7.79092 7.56207 7.88169C7.47203 7.97246 7.40524 8.08364 7.36733 8.20557C7.32943 8.32749 7.32152 8.4568 7.34429 8.58235C7.36706 8.70803 7.41982 8.82633 7.49813 8.92744C7.46293 8.95027 7.43393 8.98156 7.41371 9.01835C7.3935 9.05501 7.38269 9.09623 7.38224 9.13812C7.383 9.18042 7.39393 9.22205 7.41409 9.25924C7.43425 9.29644 7.46307 9.32839 7.49813 9.35229C7.42181 9.45327 7.37085 9.57103 7.34952 9.69564C7.32819 9.82039 7.3371 9.94822 7.37552 10.0688C7.41394 10.1892 7.48074 10.299 7.57033 10.3884C7.65993 10.4779 7.76972 10.5447 7.89052 10.5832C8.01131 10.6218 8.1396 10.6309 8.26466 10.6098C8.38971 10.5887 8.50789 10.5381 8.60931 10.4622C8.71073 10.3864 8.79245 10.2873 8.84762 10.1734C8.90279 10.0595 8.92981 9.93412 8.92642 9.80776C8.92703 9.65952 8.88439 9.51423 8.80371 9.38962H11.5512V9.55626H11.2785V9.80776H11.5512V10.0491H11.2785V10.4875H11.5512V10.2836H11.95V10.4875H12.2227V10.032H11.95V9.80776H12.2227V9.57667H11.95V9.41003H12.4954C12.5464 9.40923 12.5949 9.38842 12.6306 9.35216C12.6663 9.31591 12.6863 9.26716 12.6863 9.21627V9.0973C12.6863 9.04655 12.6663 8.9978 12.6306 8.96155C12.5949 8.92529 12.5464 8.90448 12.4954 8.90367V8.88662ZM2.07132 9.39298V8.39369C2.23702 8.8321 2.50045 9.22728 2.84171 9.54928C3.01618 9.72156 3.2139 9.9129 3.45412 10.1451L3.45482 10.1459L3.46408 10.1547L3.48808 10.178C3.68099 10.3646 3.90096 10.5774 4.15751 10.8273C4.40208 11.0171 4.59772 11.2621 4.72816 11.5424C4.8586 11.8226 4.92006 12.1298 4.90744 12.4385V13.5466C4.77998 13.2189 4.5698 12.9297 4.29727 12.7069L2.72581 11.1672C2.28946 10.6803 2.05545 10.0458 2.07132 9.39298ZM3.66333 12.8038C3.32491 12.4769 3.06438 12.2254 2.84171 12.0035C2.52469 11.7133 2.2636 11.3677 2.07132 10.9838V11.8472C2.06439 12.5015 2.2971 13.136 2.72581 13.6316L4.29727 15.1645C4.57319 15.3987 4.78441 15.6995 4.91085 16.0381V14.8824C4.92127 14.5755 4.85877 14.2705 4.72843 13.9922C4.5981 13.714 4.40364 13.4704 4.16091 13.2815H4.15751L3.66333 12.8038ZM12.4068 13.8491C12.3114 14.0021 12.2125 14.1481 12.1068 14.2944V12.9382H12.4068V13.8491ZM12.9795 12.605L12.982 12.5975L12.9931 12.605H12.9795ZM12.982 12.5975C12.7727 12.4592 12.5177 12.407 12.2705 12.4521H12.1068V12.2073H13.0954C13.0619 12.3373 13.0252 12.4674 12.982 12.5975ZM6.1278 12.1735H6.39709V14.8825H6.1278V12.1735ZM5.5108 11.6534H6.39709C6.56878 11.6364 6.74054 11.685 6.87773 11.7893C6.93146 11.8547 6.97126 11.9303 6.9947 12.0115C7.01815 12.0928 7.02474 12.1779 7.01408 12.2618V14.794C7.0245 14.8789 7.01781 14.9651 6.99439 15.0474C6.97098 15.1297 6.93131 15.2065 6.87773 15.2733C6.69706 15.3928 6.47887 15.4423 6.26414 15.4126H6.13461V16.6057C6.22324 16.6227 6.31187 16.6397 6.4039 16.6499V15.6641C6.5633 15.684 6.72496 15.6546 6.86702 15.5798C7.00907 15.505 7.12466 15.3885 7.19816 15.2461V16.7111H7.45382V12.2924C7.43688 12.118 7.48547 11.9436 7.59017 11.8029C7.72362 11.6962 7.89382 11.6462 8.06399 11.6636C8.09487 11.6636 8.12775 11.6629 8.16194 11.6623H8.16286C8.38141 11.6582 8.65357 11.6533 8.8037 11.8029C8.90569 11.9447 8.9518 12.1189 8.93324 12.2924V13.5908H8.32647V12.221H8.06399V16.6703C8.13198 16.6703 8.19796 16.6563 8.26501 16.6421C8.28537 16.6378 8.30583 16.6335 8.32647 16.6295V13.8864H8.93324V16.5071C9.05936 16.4732 9.18208 16.4323 9.3048 16.3882V13.9749C9.3048 13.703 9.36956 13.499 9.64568 13.4038L9.34229 11.7349H9.95588L10.0581 13.5601H10.1331L10.2354 11.7349H10.8831L10.5422 13.4038C10.8319 13.5058 10.8831 13.6826 10.8831 13.9749V15.5214C11.0637 15.3886 11.2357 15.2445 11.3978 15.0897V11.7214H13.1976C13.1976 11.6721 13.2071 11.6214 13.2167 11.5703L13.2246 11.5273L13.2293 11.4982L13.2317 11.4801H9.02186L9.08322 11.7791C9.00453 11.6531 8.89176 11.5518 8.75788 11.4869C8.62401 11.4219 8.47447 11.396 8.32647 11.412H8.06399C7.88598 11.387 7.70487 11.4267 7.55394 11.5242C7.40302 11.6216 7.29242 11.7701 7.24247 11.9422C7.19425 11.7628 7.08134 11.6073 6.92535 11.5058C6.76936 11.4042 6.58127 11.3635 6.39709 11.3917H5.2415V16.3644L5.5108 16.4527V11.6534ZM10.232 15.9496L9.95588 16.0958V13.8864H10.232V15.9496Z" fill="#7E91B4"/>
</svg>
