<svg width="120" height="36" viewBox="0 0 120 36" fill="none" xmlns="http://www.w3.org/2000/svg">
<path d="M116.208 9.52749H119.052C118.313 9.99886 117.625 10.5484 117 11.1668L114.162 14.1053L115.716 16.3638C116.993 18.2764 118.426 20.0777 120 21.7491H115.932C115.38 20.4768 114.715 19.2576 113.946 18.1063L112.11 15.3196L113.7 13.2857C114.661 12.1235 115.502 10.8641 116.208 9.52749ZM111.894 10.8875V20.3588L112.02 21.0691C112.162 21.2319 112.355 21.3411 112.566 21.3788V21.7491H108.6V21.3788L109.152 21.0691C109.251 20.8466 109.292 20.602 109.272 20.3588V10.8875L109.2 10.2075C109.134 10.1228 109.05 10.0538 108.955 10.0055C108.859 9.95726 108.755 9.93086 108.648 9.9282V9.52749H112.59V9.9282C112.484 9.92959 112.38 9.95548 112.285 10.0039C112.19 10.0523 112.108 10.1219 112.044 10.2075L111.894 10.8875ZM106.026 10.8875V20.3588L106.146 21.0691L106.698 21.3788V21.7491H102.72V21.3788C102.942 21.3273 103.148 21.2209 103.32 21.0691L103.41 20.3588V15.441H98.766V20.3588L98.886 21.0691C99.0309 21.2316 99.2251 21.3406 99.438 21.3788V21.7491H95.43V21.3788C95.6581 21.3446 95.8688 21.2358 96.03 21.0691L96.15 20.3588V10.8875L96.03 10.2075C95.946 10.0618 95.742 9.9707 95.43 9.9282V9.52749H99.438V9.9282C99.3312 9.93001 99.2262 9.95604 99.1306 10.0044C99.0351 10.0527 98.9515 10.1221 98.886 10.2075L98.766 10.8875V14.6335H103.41V10.8875L103.32 10.2075C103.16 10.0442 102.947 9.94497 102.72 9.9282V9.52749H106.698V9.9282C106.591 9.93001 106.486 9.95604 106.391 10.0044C106.295 10.0527 106.212 10.1221 106.146 10.2075L106.026 10.8875ZM120 26.0355H31.5V24.8212H120V26.0355ZM86.79 9.9282V9.52749H90.276C90.3277 10.1527 90.4713 10.7666 90.702 11.3489L93.27 18.6345C93.6145 19.7054 94.0335 20.7503 94.524 21.7613H91.464L90.156 17.3717H86.268L85.44 20.2677L85.2 21.7491H82.998L86.91 12.5935C87.2111 11.9674 87.4135 11.2976 87.51 10.6082C87.492 10.25 87.258 9.99498 86.79 9.9282ZM88.2 11.5675L86.55 16.4913H89.856L88.2 11.5675ZM82.026 12.1746H81.354L81.198 11.6525C81.1177 11.1773 80.8544 10.7537 80.466 10.4746L78.81 10.25H77.184C76.9255 10.2198 76.665 10.2868 76.452 10.4382C76.3328 10.5979 76.2791 10.798 76.302 10.9968V13.9049H76.974C78.93 13.9049 80.286 14.1073 81.042 14.5121C82.122 15.0463 82.662 16.0987 82.662 17.6692C82.662 19.1931 82.23 20.2859 81.378 20.9477C80.622 21.482 79.452 21.7491 77.856 21.7491H73.056V21.3788L73.656 21.0691L73.746 20.3588V10.8875L73.656 10.2075C73.5837 10.1177 73.492 10.0458 73.388 9.99741C73.284 9.949 73.1704 9.92533 73.056 9.9282V9.52749H82.056L82.026 12.1746ZM76.278 14.6821V19.9156C76.2592 20.0566 76.268 20.1999 76.304 20.3375C76.3401 20.475 76.4026 20.604 76.488 20.717C76.7317 20.9085 77.039 20.9977 77.346 20.9659H77.712C78.0423 20.9904 78.3734 20.9291 78.6737 20.7877C78.974 20.6464 79.2336 20.4298 79.428 20.1584C79.8066 19.4266 79.975 18.6021 79.914 17.7785C79.9832 16.9789 79.8005 16.1776 79.392 15.4896C79.026 14.9492 78.342 14.6821 77.346 14.6821H76.278ZM71.934 13.0124C71.934 14.4331 71.508 15.441 70.65 16.0785C69.91 16.6128 68.768 16.8799 67.224 16.8799H66.024V20.3466L66.144 21.057C66.2969 21.2349 66.5119 21.3459 66.744 21.3666V21.737H62.766V21.3666L63.318 21.057L63.444 20.3466V10.8875L63.318 10.2075C63.2531 10.1215 63.1696 10.0516 63.074 10.0032C62.9783 9.95476 62.873 9.92912 62.766 9.9282V9.52749H67.782C68.818 9.44883 69.8556 9.6588 70.782 10.1346C71.57 10.677 71.962 11.6403 71.958 13.0246L71.934 13.0124ZM66.186 10.3835C66.06 10.4625 66 10.6507 66 10.936V16.1088H67.2C67.5198 16.1362 67.8405 16.0687 68.1229 15.9145C68.4053 15.7603 68.6371 15.5261 68.79 15.2406C69.0964 14.4979 69.2318 13.6945 69.186 12.891C69.186 11.1364 68.466 10.2561 67.014 10.2561H66.708L66.186 10.3835ZM60.894 12.1746H60.252L60.096 11.6525C59.9816 11.1836 59.7129 10.7682 59.334 10.4746L57.708 10.25H56.358L55.872 10.3775L55.746 10.8571V14.6335H57.342C58.0837 14.7067 58.8313 14.5788 59.508 14.2631V15.8113C58.8313 15.4956 58.0837 15.3678 57.342 15.441H55.746V20.0188C55.7309 20.1696 55.7576 20.3217 55.8234 20.458C55.8891 20.5942 55.9912 20.7092 56.118 20.7899L57.648 20.9781H57.984L59.634 20.7291C60.0151 20.3694 60.2539 19.8817 60.306 19.357L60.426 18.8895H61.2V21.737H52.476V21.3666C52.705 21.3356 52.9167 21.2264 53.076 21.057L53.196 20.3466V10.8875L53.076 10.2075C53.0037 10.1177 52.912 10.0458 52.808 9.99741C52.704 9.949 52.5904 9.92533 52.476 9.9282V9.52749H60.918L60.894 12.1746ZM50.466 12.1746H49.848L49.692 11.6525C49.5936 11.1768 49.3214 10.7562 48.93 10.4746L47.31 10.25H45.6C45.342 10.2277 45.0842 10.294 44.868 10.4382C44.7949 10.6146 44.7641 10.806 44.778 10.9968V13.9049H45.45C47.386 13.9049 48.742 14.1073 49.518 14.5121C50.574 15.0463 51.108 16.0967 51.108 17.6692C51.108 19.2417 50.682 20.2859 49.824 20.9477C49.084 21.482 47.912 21.7491 46.308 21.7491H41.466V21.3788C41.695 21.3477 41.9067 21.2385 42.066 21.0691L42.192 20.3588V10.8875L42.066 10.2075C41.988 10.0618 41.784 9.9707 41.466 9.9282V9.52749H50.466V12.1746ZM38.316 10.5171C37.7978 10.2096 37.199 10.0698 36.6 10.1164C36.0864 10.0718 35.5709 10.1746 35.1124 10.413C34.6539 10.6514 34.2712 11.0158 34.008 11.4643C33.576 12.2475 33.366 13.5285 33.366 15.3013C33.366 17.0742 33.6 18.3856 34.068 19.2295C34.3548 19.7506 34.7843 20.1769 35.3048 20.4569C35.8253 20.7369 36.4146 20.8589 37.002 20.8081C38.0449 20.7973 39.0714 20.5439 40.002 20.0674L40.368 20.8445C39.1282 21.5841 37.7088 21.9584 36.27 21.9252C32.434 21.9252 30.518 19.8731 30.522 15.7688C30.522 11.4582 32.51 9.30083 36.486 9.29678C37.6832 9.24113 38.8792 9.43113 40.002 9.85534V12.3932H39.264L39.054 11.6525C38.9297 11.206 38.6719 10.8094 38.316 10.5171ZM44.802 14.6942V19.9277C44.7681 20.2079 44.8318 20.4913 44.982 20.7291C45.2366 20.922 45.5536 21.0109 45.87 20.9781H46.2C47.668 20.9781 48.402 19.9156 48.402 17.7906C48.4697 16.9919 48.2893 16.1917 47.886 15.5017C47.496 14.9614 46.806 14.6942 45.804 14.6942H44.802Z" fill="#7E91B4"/>
<path d="M20.028 7.57855L21.102 8.56818L7.58399 16.4609L1.03799 12.5935L1.63799 11.3792L7.57199 14.8156L20.028 7.57855ZM17.31 6L18.744 6.74071L7.58399 13.2431L2.39999 10.2499L3.26999 9.1571L7.58399 11.6646L17.31 6ZM22.05 9.58817L22.842 10.6749L7.58399 19.5513L0.215994 15.3013L0.551994 13.9413L7.58399 18.0273L22.05 9.58817Z" fill="#7E91B4"/>
<path d="M24.252 13.5831C24.7006 14.8743 24.9279 16.2336 24.924 17.6023C24.9243 18.9925 24.6973 20.3732 24.252 21.6884L23.946 22.5262C23.3205 24.0262 22.4161 25.3907 21.282 26.5454C20.1443 27.6898 18.7945 28.5955 17.31 29.2108C15.7739 29.8835 14.1178 30.2307 12.444 30.2308C10.7717 30.2349 9.11675 29.8876 7.584 29.2108C6.11736 28.5786 4.7804 27.6747 3.64201 26.5454C2.49649 25.4001 1.59049 24.0333 0.978005 22.5262C0.331062 20.9672 -0.00144947 19.2932 4.74936e-06 17.6023V16.7706L7.584 21.1298L23.58 11.8467L24.252 13.5831Z" fill="#7E91B4"/>
</svg>
