<svg width="66" height="20" viewBox="0 0 66 20" fill="none" xmlns="http://www.w3.org/2000/svg">
<path d="M63.9144 5.23992H65.4786C65.0719 5.49918 64.6936 5.8014 64.35 6.14152L62.7891 7.75771L63.6438 8.99991C64.3464 10.0518 65.1345 11.0426 66 11.9618H63.7626C63.4589 11.262 63.0933 10.5915 62.6703 9.95828L61.6605 8.42556L62.535 7.30692C63.0638 6.6677 63.526 5.97505 63.9144 5.23992ZM61.5417 5.98791V11.1971L61.611 11.5878C61.6892 11.6774 61.795 11.7374 61.9113 11.7581V11.9618H59.73V11.7581L60.0336 11.5878C60.0881 11.4654 60.1109 11.3309 60.0996 11.1971V5.98791L60.06 5.61392C60.0237 5.56732 59.9776 5.5294 59.9251 5.50285C59.8727 5.4763 59.815 5.46178 59.7564 5.46031V5.23992H61.9245V5.46031C61.8662 5.46108 61.8088 5.47532 61.7568 5.50194C61.7047 5.52856 61.6594 5.56686 61.6242 5.61392L61.5417 5.98791ZM58.3143 5.98791V11.1971L58.3803 11.5878L58.6839 11.7581V11.9618H56.496V11.7581C56.6182 11.7298 56.7316 11.6713 56.826 11.5878L56.8755 11.1971V8.49235H54.3213V11.1971L54.3873 11.5878C54.467 11.6772 54.5738 11.7371 54.6909 11.7581V11.9618H52.4865V11.7581C52.6119 11.7393 52.7278 11.6795 52.8165 11.5878L52.8825 11.1971V5.98791L52.8165 5.61392C52.7703 5.53378 52.6581 5.48369 52.4865 5.46031V5.23992H54.6909V5.46031C54.6322 5.46131 54.5744 5.47563 54.5219 5.50221C54.4693 5.52879 54.4233 5.56697 54.3873 5.61392L54.3213 5.98791V8.04823H56.8755V5.98791L56.826 5.61392C56.7379 5.5241 56.6207 5.46954 56.496 5.46031V5.23992H58.6839V5.46031C58.6252 5.46131 58.5674 5.47563 58.5149 5.50221C58.4623 5.52879 58.4163 5.56697 58.3803 5.61392L58.3143 5.98791ZM66 14.3193H17.325V13.6515H66V14.3193ZM47.7345 5.46031V5.23992H49.6518C49.6802 5.58378 49.7592 5.92142 49.8861 6.2417L51.2985 10.2488C51.4879 10.8378 51.7184 11.4125 51.9882 11.9685H50.3052L49.5858 9.55423H47.4474L46.992 11.147L46.86 11.9618H45.6489L47.8005 6.92624C47.9661 6.5819 48.0774 6.21347 48.1305 5.83431C48.1206 5.63729 47.9919 5.49705 47.7345 5.46031ZM48.51 6.36191L47.6025 9.07004H49.4208L48.51 6.36191ZM45.1143 6.69583H44.7447L44.6589 6.40866C44.6147 6.14732 44.4699 5.91436 44.2563 5.76085L43.3455 5.63729H42.4512C42.309 5.62072 42.1657 5.65755 42.0486 5.74081C41.983 5.82864 41.9535 5.93869 41.9661 6.04802V7.64752H42.3357C43.4115 7.64752 44.1573 7.75883 44.5731 7.98144C45.1671 8.2753 45.4641 8.8541 45.4641 9.71785C45.4641 10.556 45.2265 11.1571 44.7579 11.521C44.3421 11.8149 43.6986 11.9618 42.8208 11.9618H40.1808V11.7581L40.5108 11.5878L40.5603 11.1971V5.98791L40.5108 5.61392C40.471 5.56453 40.4206 5.52501 40.3634 5.49838C40.3062 5.47176 40.2437 5.45873 40.1808 5.46031V5.23992H45.1308L45.1143 6.69583ZM41.9529 8.07494V10.9534C41.9425 11.0309 41.9474 11.1098 41.9672 11.1854C41.987 11.2611 42.0214 11.332 42.0684 11.3942C42.2025 11.4995 42.3715 11.5485 42.5403 11.5311H42.7416C42.9233 11.5445 43.1053 11.5108 43.2705 11.4331C43.4357 11.3553 43.5785 11.2362 43.6854 11.0869C43.8936 10.6845 43.9862 10.231 43.9527 9.77796C43.9908 9.33818 43.8903 8.89749 43.6656 8.51906C43.4643 8.22187 43.0881 8.07494 42.5403 8.07494H41.9529ZM39.5637 7.15665C39.5637 7.93803 39.3294 8.49235 38.8575 8.84297C38.4505 9.13682 37.8224 9.28375 36.9732 9.28375H36.3132V11.1905L36.3792 11.5811C36.4633 11.679 36.5816 11.74 36.7092 11.7514V11.9551H34.5213V11.7514L34.8249 11.5811L34.8942 11.1905V5.98791L34.8249 5.61392C34.7892 5.5666 34.7433 5.52817 34.6907 5.50155C34.6381 5.47492 34.5801 5.46082 34.5213 5.46031V5.23992H37.2801C37.8499 5.19666 38.4206 5.31215 38.9301 5.57385C39.3635 5.87215 39.5791 6.40198 39.5769 7.16333L39.5637 7.15665ZM36.4023 5.71076C36.333 5.75417 36.3 5.85768 36.3 6.01463V8.85966H36.96C37.1359 8.87474 37.3123 8.8376 37.4676 8.75279C37.6229 8.66798 37.7504 8.53917 37.8345 8.38215C38.003 7.97368 38.0775 7.53177 38.0523 7.08986C38.0523 6.12482 37.6563 5.64063 36.8577 5.64063H36.6894L36.4023 5.71076ZM33.4917 6.69583H33.1386L33.0528 6.40866C32.9899 6.15081 32.8421 5.92232 32.6337 5.76085L31.7394 5.63729H30.9969L30.7296 5.70742L30.6603 5.97122V8.04823H31.5381C31.946 8.08848 32.3572 8.01817 32.7294 7.84453V8.69604C32.3572 8.5224 31.946 8.4521 31.5381 8.49235H30.6603V11.0101C30.652 11.0931 30.6667 11.1768 30.7029 11.2517C30.739 11.3266 30.7951 11.3898 30.8649 11.4342L31.7064 11.5377H31.8912L32.7987 11.4008C33.0083 11.203 33.1397 10.9348 33.1683 10.6462L33.2343 10.389H33.66V11.9551H28.8618V11.7514C28.9878 11.7344 29.1042 11.6743 29.1918 11.5811L29.2578 11.1905V5.98791L29.1918 5.61392C29.152 5.56453 29.1016 5.52501 29.0444 5.49838C28.9872 5.47176 28.9247 5.45873 28.8618 5.46031V5.23992H33.5049L33.4917 6.69583ZM27.7563 6.69583H27.4164L27.3306 6.40866C27.2765 6.14704 27.1268 5.91571 26.9115 5.76085L26.0205 5.63729H25.08C24.9381 5.62504 24.7963 5.66151 24.6774 5.74081C24.6372 5.83784 24.6203 5.9431 24.6279 6.04802V7.64752H24.9975C26.0623 7.64752 26.8081 7.75883 27.2349 7.98144C27.8157 8.2753 28.1094 8.85299 28.1094 9.71785C28.1094 10.5827 27.8751 11.1571 27.4032 11.521C26.9962 11.8149 26.3516 11.9618 25.4694 11.9618H22.8063V11.7581C22.9323 11.7411 23.0487 11.681 23.1363 11.5878L23.2056 11.1971V5.98791L23.1363 5.61392C23.0934 5.53378 22.9812 5.48369 22.8063 5.46031V5.23992H27.7563V6.69583ZM21.0738 5.78422C20.7888 5.6151 20.4594 5.5382 20.13 5.56383C19.8475 5.53932 19.564 5.59586 19.3118 5.72698C19.0597 5.8581 18.8491 6.05848 18.7044 6.30514C18.4668 6.7359 18.3513 7.44049 18.3513 8.41554C18.3513 9.3906 18.48 10.1119 18.7374 10.576C18.8952 10.8627 19.1314 11.0971 19.4176 11.2511C19.7039 11.4051 20.0281 11.4722 20.3511 11.4442C20.9247 11.4383 21.4893 11.2989 22.0011 11.0369L22.2024 11.4643C21.5205 11.8711 20.7399 12.0769 19.9485 12.0587C17.8387 12.0587 16.7849 10.93 16.7871 8.67267C16.7871 6.3018 17.8805 5.11526 20.0673 5.11303C20.7258 5.08243 21.3836 5.18693 22.0011 5.42024V6.81605H21.5952L21.4797 6.40866C21.4114 6.1631 21.2696 5.94497 21.0738 5.78422ZM24.6411 8.08162V10.96C24.6225 11.1142 24.6575 11.27 24.7401 11.4008C24.8801 11.5069 25.0545 11.5558 25.2285 11.5377H25.41C26.2174 11.5377 26.6211 10.9534 26.6211 9.78464C26.6584 9.34534 26.5591 8.90523 26.3373 8.52574C26.1228 8.22855 25.7433 8.08162 25.1922 8.08162H24.6411Z" fill="#7E91B4"/>
<path d="M11.0154 4.16801L11.6061 4.7123L4.1712 9.05332L0.570897 6.92622L0.900897 6.25837L4.1646 8.14839L11.0154 4.16801ZM9.5205 3.2998L10.3092 3.70719L4.1712 7.28352L1.32 5.63728L1.7985 5.03621L4.1712 6.41532L9.5205 3.2998ZM12.1275 5.2733L12.5631 5.87102L4.1712 10.753L0.118797 8.41553L0.303597 7.66754L4.1712 9.91485L12.1275 5.2733Z" fill="#7E91B4"/>
<path d="M13.3386 7.47051C13.5853 8.18069 13.7103 8.92831 13.7082 9.68109C13.7084 10.4457 13.5835 11.2051 13.3386 11.9284L13.1703 12.3892C12.8263 13.2142 12.3289 13.9647 11.7051 14.5998C11.0794 15.2292 10.337 15.7273 9.5205 16.0657C8.67564 16.4357 7.76481 16.6267 6.8442 16.6267C5.92443 16.629 5.01421 16.438 4.1712 16.0657C3.36455 15.7181 2.62922 15.2209 2.0031 14.5998C1.37307 13.9699 0.874772 13.2181 0.537903 12.3892C0.182084 11.5318 -0.000797207 10.611 2.61215e-06 9.68109V9.22362L4.1712 11.6212L12.969 6.51549L13.3386 7.47051Z" fill="#7E91B4"/>
</svg>
