<svg width="66" height="20" viewBox="0 0 66 20" fill="none" xmlns="http://www.w3.org/2000/svg">
<path d="M4.95744 6.13298V8.25788H4.14633C3.65003 8.25788 3.17407 8.45585 2.82313 8.80826C2.4722 9.16066 2.27504 9.63861 2.27504 10.137C2.27504 10.6354 2.4722 11.1133 2.82313 11.4657C3.17407 11.8181 3.65003 12.0161 4.14633 12.0161H4.95744V14.141C5.87623 13.9523 6.70194 13.4507 7.29493 12.7211C7.88791 11.9916 8.21179 11.0787 8.21179 10.137C8.21179 9.19525 7.88791 8.28241 7.29493 7.55282C6.70194 6.82324 5.87623 6.32169 4.95744 6.13298Z" fill="#7E91B4"/>
<path d="M4.14632 12.6705C3.80993 12.6786 3.47532 12.619 3.16219 12.4953C2.84906 12.3716 2.56373 12.1863 2.32297 11.9502C2.08222 11.7141 1.8909 11.4321 1.76028 11.1207C1.62966 10.8093 1.56237 10.4748 1.56237 10.1369C1.56237 9.79905 1.62966 9.46456 1.76028 9.15316C1.8909 8.84176 2.08222 8.55974 2.32297 8.32367C2.56373 8.08761 2.84906 7.90228 3.16219 7.77858C3.47532 7.65487 3.80993 7.5953 4.14632 7.60336H4.30854V6.05077C4.25399 6.05077 4.20087 6.05077 4.14632 6.05077C3.60552 6.04057 3.06812 6.13872 2.56553 6.33949C2.06294 6.54026 1.60524 6.83961 1.21919 7.22006C0.833147 7.60051 0.526493 8.05441 0.317156 8.55524C0.107819 9.05608 0 9.59378 0 10.1369C0 10.6801 0.107819 11.2178 0.317156 11.7186C0.526493 12.2195 0.833147 12.6734 1.21919 13.0538C1.60524 13.4343 2.06294 13.7336 2.56553 13.9344C3.06812 14.1352 3.60552 14.2333 4.14632 14.2231C4.20087 14.2231 4.25399 14.2231 4.30854 14.2231V12.6705H4.14632Z" fill="#7E91B4"/>
<path d="M13.96 11.5547C13.69 11.7794 13.3616 11.9218 13.0136 11.9648C12.6656 12.0079 12.3126 11.95 11.9964 11.7979C11.6802 11.6457 11.414 11.4058 11.2294 11.1065C11.0447 10.8071 10.9494 10.4609 10.9546 10.1089C10.9598 9.75679 11.0654 9.41361 11.2589 9.11994C11.4523 8.82627 11.7255 8.59441 12.0461 8.45183C12.3667 8.30924 12.7213 8.2619 13.0679 8.3154C13.4144 8.3689 13.7385 8.52101 14.0016 8.75371L14.6476 8.105C14.2564 7.74462 13.7694 7.50586 13.2458 7.41762C12.7222 7.32938 12.1844 7.39545 11.6974 7.60782C11.2104 7.8202 10.7951 8.16977 10.5019 8.61424C10.2087 9.0587 10.05 9.57899 10.0452 10.1121C10.0403 10.6452 10.1894 11.1684 10.4745 11.6181C10.7596 12.0679 11.1684 12.4251 11.6515 12.6463C12.1345 12.8676 12.6711 12.9436 13.1962 12.8649C13.7214 12.7863 14.2125 12.5566 14.6103 12.2034L13.96 11.5547Z" fill="#7E91B4"/>
<path d="M43.1684 7.59187L41.1457 10.044L39.1071 7.59187L39.0971 7.61494V7.59187H38.2831V12.672H39.0971V8.94985L41.1457 11.3962L43.1684 9.0003V12.672H43.9809V7.59187H43.1684Z" fill="#7E91B4"/>
<path d="M20.7288 10.1376C20.7285 10.683 20.5672 11.2161 20.2652 11.6694C19.9633 12.1227 19.5343 12.4759 19.0324 12.6844C18.5306 12.893 17.9785 12.9474 17.4458 12.8408C16.9132 12.7342 16.424 12.4715 16.0401 12.0857C15.6561 11.7 15.3947 11.2086 15.2889 10.6737C15.183 10.1388 15.2375 9.58436 15.4454 9.08053C15.6533 8.5767 16.0053 8.14608 16.4569 7.84312C16.9085 7.54016 17.4394 7.37845 17.9825 7.37845C18.711 7.37884 19.4095 7.6697 19.9245 8.18711C20.4395 8.70452 20.7288 9.40611 20.7288 10.1376ZM19.8157 10.1376C19.8157 9.77355 19.7082 9.41763 19.5068 9.11489C19.3053 8.81216 19.019 8.57621 18.684 8.43687C18.3491 8.29754 17.9805 8.26108 17.6248 8.33212C17.2692 8.40315 16.9426 8.57848 16.6862 8.83593C16.4298 9.09339 16.2552 9.4214 16.1845 9.7785C16.1137 10.1356 16.15 10.5057 16.2888 10.8421C16.4275 11.1785 16.6625 11.466 16.964 11.6683C17.2655 11.8706 17.6199 11.9785 17.9825 11.9785C18.4686 11.9782 18.9347 11.7841 19.2784 11.4389C19.6221 11.0938 19.8154 10.6258 19.8157 10.1376Z" fill="#7E91B4"/>
<path d="M37.449 10.1376C37.4488 10.683 37.2875 11.2161 36.9855 11.6694C36.6836 12.1227 36.2546 12.4759 35.7527 12.6844C35.2509 12.893 34.6987 12.9474 34.1661 12.8408C33.6335 12.7342 33.1443 12.4715 32.7604 12.0857C32.3764 11.7 32.115 11.2086 32.0092 10.6737C31.9033 10.1388 31.9578 9.58436 32.1657 9.08053C32.3736 8.5767 32.7256 8.14608 33.1772 7.84312C33.6288 7.54016 34.1597 7.37845 34.7028 7.37845C35.4313 7.37884 36.1298 7.6697 36.6448 8.18711C37.1598 8.70452 37.449 9.40611 37.449 10.1376ZM36.536 10.1376C36.536 9.77355 36.4285 9.41763 36.2271 9.11489C36.0256 8.81216 35.7393 8.57621 35.4043 8.43687C35.0693 8.29754 34.7007 8.26108 34.3451 8.33212C33.9895 8.40315 33.6629 8.57848 33.4065 8.83593C33.1501 9.09339 32.9755 9.4214 32.9048 9.7785C32.834 10.1356 32.8703 10.5057 33.0091 10.8421C33.1478 11.1785 33.3828 11.466 33.6843 11.6683C33.9858 11.8706 34.3402 11.9785 34.7028 11.9785C34.9438 11.9789 35.1826 11.9316 35.4054 11.8393C35.6283 11.7469 35.8308 11.6114 36.0014 11.4405C36.1721 11.2695 36.3075 11.0664 36.4 10.8429C36.4924 10.6194 36.5401 10.3797 36.5403 10.1376" fill="#7E91B4"/>
<path d="M31.9464 7.59034H30.8482L28.7594 9.7311H27.9167V7.59179H27.1028V12.6719H27.9167V10.5485H28.7523L30.8209 12.6676H31.9192L29.4557 10.1448L31.9464 7.59034Z" fill="#7E91B4"/>
<path d="M66 7.59034H64.9018L62.813 9.7311H61.9703V7.59179H61.1563V12.6719H61.9703V10.5485H62.8058L64.8745 12.6676H65.9727L63.5093 10.1448L66 7.59034Z" fill="#7E91B4"/>
<path d="M54.1062 12.672H55.0034L52.7739 7.59187H51.8595L49.63 12.672H50.5273L51.0111 11.5764H53.6238L54.1062 12.672ZM51.3786 10.759L52.3217 8.62405L53.2664 10.759H51.3786Z" fill="#7E91B4"/>
<path d="M26.0749 11.2016C26.0749 11.0027 26.0346 10.8059 25.9563 10.6233C25.8781 10.4406 25.7636 10.2758 25.6198 10.1391C25.8313 9.93687 25.9777 9.67569 26.0402 9.38919C26.1026 9.10268 26.0782 8.80397 25.9701 8.53152C25.862 8.25907 25.6752 8.02534 25.4336 7.86044C25.1921 7.69553 24.907 7.607 24.6149 7.60624H21.6676V12.6821H24.625C25.0124 12.6779 25.3825 12.5198 25.6542 12.2423C25.9259 11.9649 26.0772 11.5907 26.0749 11.2016ZM22.4859 8.41929H24.6106C24.7835 8.41929 24.9492 8.48825 25.0715 8.61099C25.1937 8.73372 25.2624 8.90019 25.2624 9.07377C25.2624 9.24735 25.1937 9.41382 25.0715 9.53656C24.9492 9.6593 24.7835 9.72825 24.6106 9.72825H22.4816L22.4859 8.41929ZM24.6135 11.856H22.4816V10.5485H24.625C24.7924 10.5579 24.9498 10.6317 25.0644 10.7546C25.179 10.8776 25.242 11.0401 25.2403 11.2085C25.2387 11.3768 25.1724 11.5381 25.0554 11.6587C24.9384 11.7793 24.7796 11.85 24.612 11.856H24.6135Z" fill="#7E91B4"/>
<path d="M59.3432 7.60331V9.73109H56.3887V7.60331H55.5747V12.6561H56.3887V10.5485H59.3432V12.6561H60.1557V7.60331H59.3432Z" fill="#7E91B4"/>
<path d="M49.3414 11.2016C49.3411 10.8124 49.1873 10.4393 48.9137 10.1638C48.6401 9.88821 48.2689 9.73266 47.8814 9.73114H45.7467V8.41929H48.849V7.60192H44.9327V12.6821H47.8886C48.2765 12.6783 48.6471 12.5204 48.9193 12.2429C49.1916 11.9655 49.3433 11.5911 49.3414 11.2016ZM47.8814 11.856H45.7467V10.5485H47.8886C48.056 10.5579 48.2134 10.6317 48.328 10.7546C48.4426 10.8776 48.5057 11.0401 48.504 11.2085C48.5023 11.3768 48.4361 11.5381 48.3191 11.6587C48.2021 11.7793 48.0433 11.85 47.8757 11.856H47.8814Z" fill="#7E91B4"/>
</svg>
