<svg width="120" height="36" viewBox="0 0 120 36" fill="none" xmlns="http://www.w3.org/2000/svg">
<path d="M9.01352 11.1508V15.0142H7.53878C6.63643 15.0142 5.77103 15.3742 5.13297 16.0149C4.4949 16.6557 4.13645 17.5247 4.13645 18.4308C4.13645 19.3369 4.4949 20.2059 5.13297 20.8467C5.77103 21.4874 6.63643 21.8473 7.53878 21.8473H9.01352V25.7108C10.6841 25.3677 12.1853 24.4558 13.2635 23.1293C14.3417 21.8028 14.9305 20.143 14.9305 18.4308C14.9305 16.7185 14.3417 15.0588 13.2635 13.7323C12.1853 12.4058 10.6841 11.4939 9.01352 11.1508Z" fill="#7E91B4"/>
<path d="M7.53877 23.0372C6.92714 23.0519 6.31877 22.9436 5.74944 22.7187C5.18012 22.4937 4.66133 22.1568 4.22359 21.7276C3.78585 21.2984 3.43801 20.7856 3.20052 20.2194C2.96302 19.6532 2.84068 19.0451 2.84068 18.4307C2.84068 17.8164 2.96302 17.2082 3.20052 16.642C3.43801 16.0758 3.78585 15.5631 4.22359 15.1339C4.66133 14.7047 5.18012 14.3677 5.74944 14.1428C6.31877 13.9179 6.92714 13.8095 7.53877 13.8242H7.83372V11.0013C7.73453 11.0013 7.63795 11.0013 7.53877 11.0013C6.55549 10.9828 5.5784 11.1612 4.6646 11.5263C3.75079 11.8913 2.91862 12.4356 2.21672 13.1273C1.51481 13.819 0.95726 14.6443 0.576648 15.5549C0.196035 16.4655 0 17.4432 0 18.4307C0 19.4183 0.196035 20.3959 0.576648 21.3065C0.95726 22.2171 1.51481 23.0424 2.21672 23.7341C2.91862 24.4259 3.75079 24.9701 4.6646 25.3352C5.5784 25.7002 6.55549 25.8787 7.53877 25.8601C7.63795 25.8601 7.73453 25.8601 7.83372 25.8601V23.0372H7.53877Z" fill="#7E91B4"/>
<path d="M25.3818 21.0085C24.891 21.4171 24.2939 21.6758 23.6611 21.7542C23.0284 21.8325 22.3866 21.7272 21.8116 21.4506C21.2367 21.174 20.7527 20.7377 20.417 20.1935C20.0813 19.6492 19.908 19.0198 19.9175 18.3797C19.927 17.7395 20.119 17.1156 20.4707 16.5816C20.8224 16.0477 21.3191 15.6261 21.9021 15.3669C22.485 15.1076 23.1297 15.0215 23.7598 15.1188C24.3899 15.2161 24.9791 15.4927 25.4575 15.9158L26.6321 14.7363C25.9207 14.081 25.0354 13.6469 24.0833 13.4865C23.1313 13.3261 22.1534 13.4462 21.2679 13.8323C20.3825 14.2185 19.6275 14.854 19.0943 15.6622C18.5612 16.4703 18.2727 17.4162 18.2639 18.3856C18.2551 19.3549 18.5263 20.306 19.0446 21.1238C19.563 21.9416 20.3062 22.5909 21.1845 22.9933C22.0628 23.3956 23.0384 23.5337 23.9931 23.3907C24.9479 23.2478 25.841 22.83 26.5642 22.188L25.3818 21.0085Z" fill="#7E91B4"/>
<path d="M78.488 13.8033L74.8103 18.2617L71.1039 13.8033L71.0856 13.8453V13.8033H69.6057V23.0399H71.0856V16.2724L74.8103 20.7203L78.488 16.3641V23.0399H79.9654V13.8033H78.488Z" fill="#7E91B4"/>
<path d="M37.6887 18.432C37.6882 19.4236 37.3949 20.3927 36.8459 21.217C36.2969 22.0412 35.5169 22.6834 34.6045 23.0625C33.692 23.4416 32.6881 23.5406 31.7197 23.3468C30.7513 23.153 29.8618 22.6753 29.1638 21.9739C28.4657 21.2726 27.9904 20.3792 27.798 19.4066C27.6055 18.434 27.7046 17.426 28.0826 16.51C28.4606 15.5939 29.1006 14.811 29.9216 14.2601C30.7427 13.7093 31.708 13.4153 32.6954 13.4153C34.02 13.416 35.29 13.9448 36.2263 14.8856C37.1627 15.8263 37.6887 17.1019 37.6887 18.432ZM36.0286 18.432C36.0286 17.77 35.8331 17.1229 35.4669 16.5724C35.1006 16.022 34.5801 15.593 33.971 15.3397C33.3619 15.0863 32.6917 15.0201 32.0452 15.1492C31.3986 15.2784 30.8047 15.5971 30.3385 16.0652C29.8724 16.5333 29.5549 17.1297 29.4263 17.779C29.2977 18.4283 29.3637 19.1013 29.616 19.7129C29.8683 20.3245 30.2955 20.8472 30.8436 21.215C31.3918 21.5828 32.0362 21.7791 32.6954 21.7791C33.5793 21.7784 34.4267 21.4255 35.0516 20.798C35.6765 20.1704 36.0279 19.3195 36.0286 18.432Z" fill="#7E91B4"/>
<path d="M68.0892 18.432C68.0887 19.4236 67.7954 20.3927 67.2464 21.217C66.6974 22.0412 65.9174 22.6834 65.005 23.0625C64.0925 23.4416 63.0887 23.5406 62.1202 23.3468C61.1518 23.153 60.2624 22.6753 59.5643 21.9739C58.8662 21.2726 58.3909 20.3792 58.1985 19.4066C58.006 18.434 58.1051 17.426 58.4831 16.51C58.8611 15.5939 59.5011 14.811 60.3222 14.2601C61.1432 13.7093 62.1085 13.4153 63.096 13.4153C64.4205 13.416 65.6905 13.9448 66.6269 14.8856C67.5632 15.8263 68.0892 17.1019 68.0892 18.432ZM66.4291 18.432C66.4291 17.77 66.2337 17.1229 65.8674 16.5724C65.5011 16.022 64.9806 15.593 64.3715 15.3397C63.7625 15.0863 63.0923 15.0201 62.4457 15.1492C61.7991 15.2784 61.2052 15.5971 60.7391 16.0652C60.2729 16.5333 59.9555 17.1297 59.8268 17.779C59.6982 18.4283 59.7642 19.1013 60.0165 19.7129C60.2688 20.3245 60.696 20.8472 61.2442 21.215C61.7923 21.5828 62.4367 21.7791 63.096 21.7791C63.5342 21.7798 63.9684 21.6937 64.3735 21.5259C64.7787 21.358 65.1469 21.1116 65.4572 20.8008C65.7674 20.4899 66.0137 20.1207 66.1818 19.7143C66.3499 19.3078 66.4366 18.8721 66.437 18.432" fill="#7E91B4"/>
<path d="M58.0845 13.8005H56.0877L52.2899 17.6928H50.7577V13.8032H49.2778V23.0398H50.7577V19.179H52.2769L56.0381 23.0319H58.0349L53.5558 18.4451L58.0845 13.8005Z" fill="#7E91B4"/>
<path d="M120 13.8005H118.003L114.205 17.6928H112.673V13.8032H111.193V23.0398H112.673V19.179H114.192L117.954 23.0319H119.95L115.471 18.4451L120 13.8005Z" fill="#7E91B4"/>
<path d="M98.3749 23.0399H100.006L95.9527 13.8033H94.29L90.2364 23.0399H91.8678L92.7474 21.0479H97.4979L98.3749 23.0399ZM93.4156 19.5618L95.1305 15.68L96.8479 19.5618H93.4156Z" fill="#7E91B4"/>
<path d="M47.4089 20.3664C47.409 20.0048 47.3356 19.6471 47.1933 19.3149C47.0511 18.9828 46.8429 18.6833 46.5815 18.4346C46.9661 18.067 47.2323 17.5921 47.3458 17.0712C47.4593 16.5502 47.4149 16.0071 47.2184 15.5118C47.0218 15.0164 46.6821 14.5914 46.243 14.2916C45.8039 13.9918 45.2854 13.8308 44.7544 13.8294H39.3957V23.0582H44.7727C45.4772 23.0506 46.15 22.7631 46.6441 22.2587C47.1381 21.7542 47.4131 21.0739 47.4089 20.3664ZM40.8835 15.3077H44.7466C45.0608 15.3077 45.3623 15.4331 45.5845 15.6562C45.8067 15.8794 45.9316 16.1821 45.9316 16.4977C45.9316 16.8133 45.8067 17.1159 45.5845 17.3391C45.3623 17.5623 45.0608 17.6876 44.7466 17.6876H40.8757L40.8835 15.3077ZM44.7518 21.5563H40.8757V19.179H44.7727C45.0771 19.1961 45.3632 19.3303 45.5716 19.5538C45.78 19.7773 45.8945 20.0728 45.8915 20.3789C45.8885 20.6851 45.7681 20.9783 45.5553 21.1975C45.3426 21.4168 45.0538 21.5453 44.7492 21.5563H44.7518Z" fill="#7E91B4"/>
<path d="M107.897 13.8241V17.6928H102.525V13.8241H101.045V23.0109H102.525V19.1789H107.897V23.0109H109.374V13.8241H107.897Z" fill="#7E91B4"/>
<path d="M89.7117 20.3664C89.711 19.6589 89.4314 18.9805 88.9339 18.4795C88.4365 17.9785 87.7617 17.6957 87.0572 17.6929H83.1759V15.3077H88.8164V13.8216H81.6959V23.0582H87.0702C87.7755 23.0513 88.4493 22.7642 88.9443 22.2598C89.4393 21.7553 89.7152 21.0746 89.7117 20.3664ZM87.0572 21.5563H83.1759V19.179H87.0702C87.3746 19.1961 87.6608 19.3303 87.8692 19.5538C88.0775 19.7773 88.1921 20.0728 88.1891 20.3789C88.1861 20.6851 88.0657 20.9783 87.8529 21.1975C87.6402 21.4168 87.3514 21.5453 87.0468 21.5563H87.0572Z" fill="#7E91B4"/>
</svg>
