<svg width="120" height="36" viewBox="0 0 120 36" fill="none" xmlns="http://www.w3.org/2000/svg">
<path d="M13.3032 31.7097C16.4315 31.7094 19.4597 30.6027 21.856 28.5839C24.2524 26.5651 25.8636 23.7634 26.4069 20.6706C26.9501 17.5778 26.3906 14.3918 24.8267 11.672C23.2627 8.95216 20.7942 6.87241 17.8547 5.79795L17.9081 6.10105C21.0258 7.28316 23.5701 9.62555 25.0124 12.6416C26.4547 15.6577 26.6843 19.1157 25.6533 22.2972C24.6223 25.4787 22.4101 28.1393 19.4762 29.7262C16.5422 31.3131 13.1121 31.7044 9.89825 30.8188C6.68443 29.9332 3.93397 27.8388 2.21819 24.9706C0.50241 22.1024 -0.0467981 18.6809 0.684649 15.4169C1.4161 12.1528 3.37197 9.29706 6.146 7.44283C8.92003 5.5886 12.299 4.87842 15.581 5.4598L16.0328 5.27836C15.1347 5.0932 14.2201 4.99994 13.3032 5C9.77496 5 6.39125 6.40703 3.89641 8.91155C1.40158 11.4161 0 14.8129 0 18.3549C0 21.8968 1.40158 25.2937 3.89641 27.7982C6.39125 30.3027 9.77496 31.7097 13.3032 31.7097Z" fill="#7E91B4"/>
<path d="M15.4619 5.97101C15.1148 6.08648 14.7985 6.18957 14.6095 6.237C14.1063 6.36483 10.7872 7.51537 8.78054 9.43293C9.12751 8.55801 9.60163 7.73949 10.1875 7.00402C9.47023 7.20184 8.77404 7.46979 8.10891 7.80403C7.03882 9.26179 5.69351 12.1216 5.69351 14.5258C5.69351 14.5258 5.05063 12.5505 5.5867 9.51128L5.57644 9.52365C4.89041 10.1293 4.27758 10.8137 3.75051 11.5629C3.62522 13.2722 3.61495 15.5382 5.00134 18.7052C5.00134 18.7052 3.60057 17.6908 2.33125 14.2866V14.3052C1.92485 15.4126 1.68936 16.5759 1.63292 17.7547C2.76874 19.8393 4.47759 21.93 7.91174 23.7961C7.91174 23.7961 5.09171 23.3837 1.91225 20.9816C2.19975 22.2651 2.70409 23.4897 3.4034 24.6022C5.98977 25.7832 8.82689 26.3038 11.6622 26.1177C11.6622 26.1177 9.58157 27.2992 5.32791 26.9425C5.32791 26.9425 6.06938 27.858 8.0247 28.7982C9.79312 29.6477 12.0976 29.1178 12.8637 28.6064C13.4824 28.1681 13.952 27.5495 14.2092 26.8345C14.4663 26.1195 14.4985 25.3424 14.3015 24.6084C14.0097 25.0937 13.5496 25.4535 13.0095 25.6188C13.2365 25.4169 13.4181 25.169 13.5424 24.8914C13.6667 24.6137 13.7308 24.3128 13.7305 24.0084C13.7305 22.9651 12.8781 22.262 11.8101 22.1733C10.9597 22.0991 9.55076 22.2043 9.10301 22.2043C8.65525 22.2043 8.04935 22.2146 7.63856 21.7012C8.05302 21.6826 8.46522 21.6295 8.87091 21.5424C9.37823 21.4311 10.4463 21.0352 11.0768 21.0682C10.9855 20.9684 10.8727 20.8908 10.7471 20.8411C10.6215 20.7915 10.4864 20.7711 10.3518 20.7816C10.0355 20.7816 9.96976 20.8867 9.7541 20.9445C9.53932 21.0113 9.30792 20.9997 9.10082 20.9118C8.89372 20.8239 8.72425 20.6653 8.62239 20.464C8.62239 20.464 9.06398 20.8084 9.44395 20.6991C9.62976 20.6436 9.79447 20.5329 9.91635 20.3816C10.0879 20.2683 10.2882 20.2068 10.4935 20.2042C10.7168 20.1972 10.9353 20.2703 11.1097 20.4104C11.2966 20.5692 11.6766 20.5362 11.4547 20.3156C11.3249 20.1776 11.1687 20.0674 10.9954 19.9916C10.8221 19.9158 10.6353 19.8759 10.4463 19.8743C9.64935 19.8743 8.21161 20.031 7.70634 20.2867C7.42149 20.4204 7.16596 20.6097 6.95461 20.8434C6.91148 20.9032 6.81289 20.9053 6.817 20.8042C6.83959 20.3135 7.04704 18.9857 7.66321 18.4186C8.27938 17.8516 9.98003 17.4042 10.6393 17.2784C10.6393 17.2784 10.4709 16.8928 10.666 16.6454C10.9515 16.2887 11.8984 15.6145 17.4316 15.6145C17.2721 15.7422 17.128 15.8882 17.0024 16.0495C17.0024 16.0495 19.1631 16.1671 20.3749 16.7753C20.5638 16.8681 20.9397 16.9032 21.0691 16.0495L20.7199 15.8268C20.7199 15.8268 20.7528 15.699 20.7836 15.5402C20.8144 15.3815 20.7836 15.3526 20.6583 15.4145C20.5935 15.4382 20.538 15.4823 20.5002 15.5402C20.5002 15.5402 20.1859 15.6722 20.1531 15.4763C20.1202 15.2804 19.7751 14.8124 19.0809 14.7196C19.0809 14.7196 19.4301 14.2454 20.2291 14.3505C20.2291 14.3505 20.2907 14.5815 20.4591 14.5175C20.6275 14.4536 20.8596 14.3114 20.8699 14.499C20.8801 14.6866 20.9746 15.0021 21.4142 14.5175C21.6757 14.6488 21.9761 14.6788 22.2583 14.6021C22.6547 14.4557 22.9423 14.1897 23.0367 13.5485C23.0353 13.4312 23.0795 13.318 23.16 13.233C23.1943 13.205 23.222 13.1696 23.241 13.1295C23.26 13.0893 23.2699 13.0455 23.2699 13.001C23.2699 12.9566 23.26 12.9127 23.241 12.8726C23.222 12.8325 23.1943 12.7971 23.16 12.7691C22.7301 12.4647 22.2807 12.1892 21.8147 11.9443C21.5004 11.7773 20.9561 11.5876 20.913 10.3422C20.8719 9.13189 20.4694 8.48652 19.0337 7.17928C18.9946 7.14629 18.9638 7.11536 18.9228 7.07825C18.9228 7.07825 18.9228 7.0968 18.9228 7.12567C18.9138 7.24437 18.9214 7.36373 18.9454 7.48032C18.9454 7.48032 18.4627 6.92979 17.3495 6.65556C17.3495 6.65556 17.368 6.58133 17.3926 6.47618C17.4418 6.27217 17.4802 6.06569 17.5076 5.85761C17.5323 5.62874 17.3495 5.3875 16.9736 5.47822C16.7128 5.53595 16.0452 5.77101 15.4599 5.96895L15.4619 5.97101ZM18.9536 10.3628C19.1708 10.3732 19.3844 10.4228 19.5841 10.5092C19.7217 10.5505 20.0257 10.6247 20.1325 9.79376C20.1343 9.78666 20.1384 9.78037 20.1442 9.77588C20.15 9.77139 20.1571 9.76895 20.1644 9.76895C20.1716 9.76895 20.1787 9.77139 20.1845 9.77588C20.1903 9.78037 20.1944 9.78666 20.1962 9.79376C20.2409 10.1501 20.2478 10.5102 20.2167 10.868C20.1736 11.1216 20.0463 11.1422 19.8593 11.0371C19.7501 10.9604 19.6285 10.9033 19.4999 10.868C19.3972 10.8474 19.2945 10.8886 19.3767 11.0371C19.5148 11.3026 19.572 11.6031 19.541 11.901C19.541 11.901 19.0706 10.9958 18.514 10.5505C18.1649 10.2762 18.8098 10.3484 18.9495 10.3608L18.9536 10.3628ZM13.5497 12.534C13.7551 12.4515 13.825 12.6371 13.7818 12.767C13.5764 13.3732 13.2991 14.2639 13.4018 14.6639C13.5045 15.0639 14.4945 15.2969 14.4945 15.2969C14.3076 15.3196 13.2396 15.367 12.9808 15.4248C12.722 15.4825 12.3112 15.5237 12.3934 15.0248C12.4981 14.4165 12.8042 13.3134 12.8042 13.3134C12.4192 13.4499 12.0467 13.6196 11.6909 13.8206C11.4855 13.9485 11.4178 13.9258 11.4855 13.7773C12.3338 11.7876 14.131 9.66592 15.2237 8.77724L15.2463 8.84116C13.8188 10.4907 12.8925 12.7588 12.8925 12.7588C13.1073 12.6717 13.3267 12.5967 13.5497 12.534ZM16.4519 6.48236C16.6183 6.37514 16.6799 6.43288 16.6183 6.50092C16.3871 6.78131 16.1988 7.09472 16.0596 7.43083C16.0144 7.59991 16.0391 7.63702 16.1438 7.68444C16.2486 7.73187 16.2486 7.82878 16.1007 7.85146C15.8255 7.89051 15.5546 7.9554 15.2914 8.04527C15.0265 8.136 14.9895 7.97929 15.0511 7.87208C15.4008 7.30314 15.8811 6.8266 16.4519 6.48236Z" fill="#7E91B4"/>
<path d="M21.5394 26.786H21.5291C21.0362 25.1364 19.6806 24.0663 18.9145 23.1488C18.6064 22.7735 18.1504 22.2477 18.1504 22.2477C18.5582 22.4347 18.9905 22.5624 19.4341 22.6271C19.0894 22.2892 18.7663 21.9297 18.4667 21.5508C17.8083 20.792 17.0088 20.1693 16.113 19.7178C14.6321 19.0436 13.0896 18.959 12.8801 18.9178C12.6706 18.8765 12.227 18.959 12.4981 18.5343C12.7692 18.1095 14.3692 16.8703 14.3692 16.8703C14.0344 16.8703 12.5617 16.9982 12.1099 17.06C11.658 17.1219 11.5677 16.9755 11.543 16.6827C11.543 16.6827 10.6578 17.5198 11.0809 17.9466C11.1569 17.9856 11.2417 18.0042 11.327 18.0006C11.4123 17.997 11.4952 17.9713 11.5677 17.926C11.8429 17.8031 12.1308 17.7111 12.4262 17.6518C12.2504 17.9203 12.0959 18.2023 11.9641 18.4951C11.8819 18.7487 11.8593 18.8745 12.2578 19.0003C12.6562 19.126 14.6752 19.7611 15.9137 20.6044C17.1522 21.4477 18.4462 22.5261 19.393 24.5138C20.3399 26.5014 19.8162 28.0025 19.6703 28.2767C20.3434 27.8466 20.9698 27.3469 21.5394 26.786Z" fill="#7E91B4"/>
<path d="M24.2937 22.5899C23.0778 21.5981 20.9438 19.829 18.3374 19.2187C18.3374 19.2187 22.0509 20.7095 23.3777 24.4601C23.7377 23.8652 24.0443 23.2394 24.2937 22.5899Z" fill="#7E91B4"/>
<path d="M14.7101 30.0561C15.4867 29.965 16.2524 29.7971 16.9961 29.5551C17.3925 28.6252 17.83 26.4148 17.3679 24.7055C17.3741 24.7035 17.4603 28.7283 14.7101 30.0561Z" fill="#7E91B4"/>
<path d="M23.5502 16.8393C22.6915 17.049 21.8017 17.0979 20.9253 16.9836C22.4213 17.7006 23.794 18.6521 24.992 19.8022V19.7816C25.048 19.3074 25.0768 18.8303 25.0783 18.3527C25.0783 18.2929 25.0783 18.2599 25.0783 18.196C24.723 18.0517 22.5233 17.4249 22.5233 17.4249C22.729 17.4186 22.9301 17.362 23.1091 17.26C23.2881 17.1579 23.4395 17.0135 23.5502 16.8393Z" fill="#7E91B4"/>
<path d="M107.165 16.4561L105.234 12.054H103.333C103.601 12.2451 103.82 12.4982 103.971 12.7921L102.355 16.4582C102.205 16.8215 101.967 17.1413 101.663 17.3881H103.573C103.471 17.2978 103.401 17.1777 103.371 17.0449C103.341 16.9121 103.353 16.7732 103.406 16.6479L103.577 16.2499H105.506L105.678 16.6479C105.791 16.8974 105.791 17.0603 105.516 17.3881H107.907C107.584 17.1465 107.328 16.8256 107.165 16.4561ZM104.014 15.2747L104.54 14.087L105.06 15.2747H104.014Z" fill="#7E91B4"/>
<path d="M51.2391 12.8929C52.0196 12.8929 52.1942 13.1486 52.5701 13.6146L53.3608 11.794C53.0959 11.9895 52.7794 12.1022 52.4509 12.1177C52.0402 12.1177 51.8348 11.961 51.1796 11.961C49.4995 11.961 48.3678 13.0682 48.3678 14.7177C48.3678 16.3672 49.3947 17.4868 51.0974 17.4868C51.5007 17.4952 51.8997 17.4026 52.2584 17.2171C52.617 17.0317 52.9239 16.7595 53.1513 16.425L52.7652 15.5507C52.3441 16.1528 51.8964 16.5569 51.2309 16.5549C50.3806 16.5549 49.8815 15.7301 49.8815 14.7177C49.8897 13.7507 50.3498 12.8929 51.2391 12.8929Z" fill="#7E91B4"/>
<path d="M58.2388 16.4025L56.5957 14.4272L58.1279 12.9612C58.471 12.6148 58.8536 12.3103 59.2678 12.054H56.7785C57.0784 12.3839 57.1112 12.5076 56.8956 12.7179L55.4044 14.1468V12.889C55.4012 12.7319 55.4318 12.576 55.4942 12.4318C55.5566 12.2877 55.6493 12.1588 55.7659 12.054H53.5765C53.6948 12.1576 53.7889 12.2862 53.8521 12.4305C53.9153 12.5749 53.946 12.7314 53.942 12.889V16.5551C53.944 16.7109 53.9123 16.8653 53.8492 17.0076C53.7861 17.15 53.693 17.277 53.5765 17.3799H55.7659C55.651 17.2758 55.5594 17.1485 55.4971 17.0064C55.4348 16.8642 55.4032 16.7104 55.4044 16.5551V15.2252L56.6368 16.7035C56.8422 16.9592 56.7764 17.0912 56.532 17.3881H59.3315C58.9119 17.1273 58.5419 16.7936 58.2388 16.4025Z" fill="#7E91B4"/>
<path d="M64.7662 12.054H62.5788C62.6954 12.1588 62.788 12.2877 62.8504 12.4318C62.9128 12.576 62.9435 12.7319 62.9402 12.889V12.9097L61.217 14.9551V12.8932C61.2132 12.7358 61.2438 12.5795 61.3066 12.4352C61.3694 12.2909 61.4629 12.1622 61.5805 12.0581H59.3931C59.5098 12.1629 59.6024 12.2918 59.6648 12.436C59.7272 12.5801 59.7578 12.7361 59.7546 12.8932V16.5592C59.7558 16.7145 59.7243 16.8683 59.6619 17.0105C59.5996 17.1527 59.508 17.2799 59.3931 17.384H61.5805C61.4647 17.2806 61.3722 17.1535 61.3095 17.0112C61.2468 16.869 61.2152 16.7148 61.217 16.5592V16.5118L62.9402 14.4643V16.553C62.9415 16.7083 62.9099 16.8622 62.8476 17.0043C62.7853 17.1465 62.6936 17.2738 62.5788 17.3778H64.7662C64.6506 17.2742 64.5584 17.147 64.4957 17.0048C64.433 16.8626 64.4013 16.7086 64.4026 16.553V12.889C64.3992 12.7317 64.43 12.5755 64.4928 12.4313C64.5556 12.2871 64.6488 12.1584 64.7662 12.054Z" fill="#7E91B4"/>
<path d="M67.237 10.2147C67.0367 10.3806 66.9098 10.6192 66.8837 10.8786C66.8837 11.3549 67.3479 11.7508 68.305 11.7508C69.2621 11.7508 69.7243 11.3549 69.7243 10.8786C69.7122 10.7499 69.6748 10.6249 69.6142 10.5109C69.5535 10.397 69.4708 10.2962 69.371 10.2147H68.42C68.5879 10.3531 68.6985 10.5494 68.7302 10.7652C68.7302 10.86 68.6213 11.0518 68.305 11.0518C67.9887 11.0518 67.8819 10.86 67.8819 10.7652C67.9105 10.5488 68.0208 10.3517 68.19 10.2147H67.237Z" fill="#7E91B4"/>
<path d="M41.8527 12.054C41.9301 12.1606 41.9751 12.2874 41.9824 12.419C41.9897 12.5507 41.9589 12.6817 41.8938 12.7963C41.8938 12.7963 41.2776 14.2911 40.9387 15.1035L39.9508 12.8004C39.8822 12.688 39.8477 12.558 39.8513 12.4262C39.855 12.2944 39.8967 12.1665 39.9713 12.0581H37.671C37.9634 12.3169 38.1985 12.6344 38.3611 12.9901C38.3611 12.9901 39.881 16.3448 40.1541 16.953C39.7885 17.8067 39.4764 18.1427 39.0594 18.1427C38.5274 18.1427 38.3056 17.7963 37.9996 17.2252L37.4676 18.3592C37.6626 18.5842 37.9016 18.7664 38.1698 18.8945C38.438 19.0226 38.7297 19.0937 39.0265 19.1036C40.2589 19.1036 40.7498 18.1902 41.2222 17.0829L42.968 12.9818C43.1036 12.6412 43.2999 12.3282 43.5472 12.0581L41.8527 12.054Z" fill="#7E91B4"/>
<path d="M37.141 11.9321C36.681 11.4702 35.9785 11.2249 35.1097 11.2249H32.5916C32.7283 11.3373 32.8367 11.4804 32.9081 11.6427C32.9795 11.8049 33.0118 11.9818 33.0024 12.1589V16.4518C33.0119 16.6292 32.9797 16.8064 32.9083 16.969C32.837 17.1317 32.7285 17.2752 32.5916 17.3879H34.9516C34.8142 17.2756 34.7053 17.1322 34.6339 16.9695C34.5625 16.8067 34.5306 16.6293 34.5408 16.4518V15.6414H35.1056C35.844 15.6737 36.565 15.4105 37.1102 14.9095C37.3072 14.7062 37.4616 14.4653 37.5642 14.2011C37.6669 13.9369 37.7157 13.6548 37.7079 13.3713C37.714 13.1056 37.6669 12.8413 37.5696 12.5941C37.4722 12.3469 37.3265 12.1218 37.141 11.9321ZM34.5449 12.3115H34.8345C35.6047 12.3115 36.1079 12.563 36.1079 13.3631C36.1079 14.1631 35.7341 14.5507 34.9351 14.5507H34.5449V12.3115Z" fill="#7E91B4"/>
<path d="M46.244 16.5549C45.3978 16.5549 44.8966 15.7301 44.8966 14.7177C44.8966 13.7507 45.3608 12.8929 46.244 12.8929C47.0306 12.8929 47.2031 13.1486 47.5811 13.6146L48.3677 11.794C48.1038 11.9898 47.7878 12.1025 47.4599 12.1177C47.0491 12.1177 46.8437 11.961 46.1885 11.961C44.5084 11.961 43.3788 13.0682 43.3788 14.7177C43.3788 16.3672 44.4057 17.4868 46.1043 17.4868C46.5095 17.4964 46.9107 17.4043 47.2715 17.2189C47.6323 17.0334 47.9413 16.7606 48.1705 16.425L47.7906 15.5507C47.3613 16.1528 46.9156 16.5569 46.244 16.5549Z" fill="#7E91B4"/>
<path d="M95.7535 12.054H93.562C93.6799 12.158 93.7737 12.2866 93.8369 12.4309C93.9 12.5751 93.931 12.7315 93.9276 12.889V14.1406H92.3461V12.889C92.3418 12.7316 92.3722 12.5751 92.4351 12.4308C92.4979 12.2865 92.5916 12.1578 92.7096 12.054H90.5119C90.6292 12.1584 90.7225 12.2871 90.7853 12.4313C90.8481 12.5755 90.8788 12.7317 90.8755 12.889V16.5551C90.8768 16.7106 90.8451 16.8646 90.7824 17.0069C90.7197 17.1491 90.6275 17.2763 90.5119 17.3798H92.7096C92.5934 17.2768 92.5008 17.1497 92.438 17.0074C92.3753 16.865 92.3439 16.7107 92.3461 16.5551V15.1406H93.9276V16.5551C93.9289 16.7108 93.897 16.865 93.8339 17.0073C93.7709 17.1496 93.6781 17.2766 93.562 17.3798H95.7535C95.6373 17.2766 95.5446 17.1496 95.4815 17.0073C95.4185 16.865 95.3865 16.7108 95.3879 16.5551V12.889C95.3845 12.7315 95.4155 12.5751 95.4786 12.4309C95.5418 12.2866 95.6356 12.158 95.7535 12.054Z" fill="#7E91B4"/>
<path d="M89.7623 16.4561L87.8275 12.054H85.9276C86.1964 12.2451 86.4155 12.4982 86.5664 12.7921L84.952 16.4582C84.801 16.8212 84.5624 17.1407 84.2578 17.3881H86.1679C86.0663 17.2979 85.9954 17.1779 85.9652 17.0452C85.935 16.9124 85.947 16.7735 85.9995 16.6479L86.1741 16.2499H88.0924L88.2629 16.6479C88.3759 16.8974 88.3759 17.0603 88.1047 17.3881H90.4934C90.1738 17.1458 89.922 16.8248 89.7623 16.4561ZM86.6095 15.2747L87.1353 14.087L87.6529 15.2747H86.6095Z" fill="#7E91B4"/>
<path d="M65.6103 17.3881H67.7998C67.6849 17.2841 67.5932 17.1568 67.5309 17.0146C67.4686 16.8725 67.437 16.7187 67.4383 16.5633V16.5118L69.1615 14.4643V16.553C69.1627 16.7083 69.1311 16.8621 69.0688 17.0043C69.0065 17.1465 68.9149 17.2738 68.8 17.3778H70.9874C70.8719 17.2742 70.7796 17.147 70.7169 17.0048C70.6543 16.8626 70.6225 16.7086 70.6239 16.553V12.889C70.6205 12.7317 70.6513 12.5755 70.7141 12.4313C70.7768 12.2871 70.8701 12.1584 70.9874 12.054H68.8C68.9166 12.1588 69.0093 12.2877 69.0717 12.4318C69.1341 12.576 69.1647 12.7319 69.1615 12.889V12.9097L67.4383 14.9551V12.8932C67.435 12.7361 67.4657 12.5801 67.5281 12.436C67.5905 12.2918 67.6831 12.1629 67.7998 12.0581H65.6103C65.7286 12.1618 65.8228 12.2903 65.8859 12.4347C65.9491 12.579 65.9798 12.7356 65.9759 12.8932V16.5592C65.9784 16.7157 65.947 16.8709 65.8839 17.014C65.8207 17.1571 65.7274 17.2848 65.6103 17.3881Z" fill="#7E91B4"/>
<path d="M100.858 16.0705V12.889C100.854 12.7317 100.885 12.5755 100.948 12.4313C101.01 12.2871 101.104 12.1584 101.221 12.054H96.8791C96.9967 12.1581 97.0903 12.2868 97.1531 12.4311C97.2159 12.5753 97.2465 12.7317 97.2427 12.889V15.0685C97.2427 15.9943 97.0763 16.3881 96.2157 16.7448V18.0417C96.671 17.6387 97.2521 17.4075 97.8588 17.3881H99.8306C100.436 17.4138 101.015 17.6442 101.474 18.0417V16.7035C101.092 16.5901 100.858 16.4602 100.858 16.0705ZM99.3171 16.386H98.1115C98.2881 16.0417 98.3168 15.6437 98.3168 15.0685V13.1612C98.3168 13.1014 98.3394 13.0561 98.4195 13.0561H99.3993V16.285C99.3952 16.3633 99.3726 16.386 99.3171 16.386Z" fill="#7E91B4"/>
<path d="M112.417 13.5095C112.357 13.1884 112.201 12.893 111.971 12.662C111.575 12.2662 110.963 12.0435 110.205 12.0435H107.925C108.042 12.1483 108.134 12.2772 108.197 12.4213C108.259 12.5655 108.29 12.7214 108.287 12.8785V16.5446C108.288 16.6999 108.256 16.8537 108.194 16.9959C108.132 17.138 108.04 17.2653 107.925 17.3693H110.11C109.995 17.2658 109.903 17.1386 109.84 16.9964C109.777 16.8541 109.745 16.7001 109.747 16.5446V15.893H110.205C110.844 15.9192 111.467 15.6901 111.938 15.2559C112.11 15.0786 112.244 14.8688 112.334 14.6386C112.423 14.4085 112.466 14.1627 112.46 13.9157C112.46 13.8114 112.452 13.7073 112.435 13.6043C112.846 13.2971 113.23 13.0517 113.668 13.0517H114.339V16.557C114.341 16.7125 114.31 16.8667 114.247 17.009C114.184 17.1513 114.092 17.2784 113.976 17.3817H116.165C116.05 17.2777 115.959 17.1504 115.897 17.0082C115.834 16.8661 115.803 16.7123 115.804 16.557V13.0517H116.27C116.716 13.0517 116.816 13.1239 117.092 13.5363L117.743 12.0497H113.041L112.417 13.5095ZM109.747 13.0435H109.975C110.264 13.0141 110.553 13.0992 110.78 13.2806C110.927 13.4514 111.001 13.6738 110.985 13.8992C110.985 14.5837 110.698 14.8868 110.061 14.8868H109.751L109.747 13.0435Z" fill="#7E91B4"/>
<path d="M80.037 16.2889L79.6139 15.3508C79.1825 16.0023 78.7019 16.4869 77.8208 16.4869C76.8349 16.4869 76.1243 15.5508 76.1243 14.2889C76.1243 13.1899 76.685 12.1074 77.8208 12.1074C78.7204 12.1074 79.0285 12.4621 79.3715 12.9198L80.2341 10.9569C79.9444 11.1606 79.5999 11.2714 79.2462 11.2744C78.8354 11.2744 78.4 11.0909 77.7509 11.0909C75.7977 11.0909 74.4873 12.3796 74.4873 14.2889C74.4873 16.1446 75.6703 17.5034 77.6565 17.5034C78.1232 17.5196 78.5864 17.4167 79.0027 17.2043C79.4191 16.9919 79.7749 16.677 80.037 16.2889Z" fill="#7E91B4"/>
<path d="M81.6904 16.5549C81.6921 16.7105 81.6606 16.8646 81.5979 17.0069C81.5351 17.1492 81.4427 17.2763 81.3268 17.3797H83.5286C83.4128 17.2763 83.3203 17.1492 83.2576 17.0069C83.1949 16.8646 83.1633 16.7105 83.1651 16.5549V13.0497H83.7135C84.1592 13.0497 84.2578 13.1219 84.5351 13.5342L85.1841 12.0476H80.3081L79.6262 13.6703C80.0657 13.3301 80.4745 13.0518 80.9448 13.0518H81.6986L81.6904 16.5549Z" fill="#7E91B4"/>
<path d="M119.039 11.6415C118.849 11.6415 118.663 11.6981 118.505 11.8043C118.346 11.9104 118.223 12.0612 118.151 12.2377C118.078 12.4141 118.059 12.6082 118.096 12.7955C118.133 12.9827 118.225 13.1547 118.36 13.2895C118.494 13.4244 118.666 13.5161 118.853 13.5531C119.039 13.5901 119.232 13.5707 119.408 13.4974C119.584 13.424 119.734 13.3 119.839 13.1411C119.944 12.9821 120 12.7953 120 12.6044C119.998 12.3492 119.897 12.1049 119.717 11.9246C119.537 11.7443 119.293 11.6426 119.039 11.6415ZM119.039 13.4168C118.879 13.4168 118.723 13.3693 118.591 13.2804C118.458 13.1914 118.354 13.065 118.293 12.917C118.232 12.7691 118.216 12.6063 118.247 12.4491C118.278 12.292 118.355 12.1476 118.467 12.0342C118.58 11.9208 118.724 11.8435 118.88 11.812C119.036 11.7805 119.199 11.7962 119.346 11.8572C119.494 11.9182 119.62 12.0218 119.709 12.1548C119.798 12.2878 119.846 12.4442 119.846 12.6044C119.843 12.8189 119.758 13.0239 119.607 13.1759C119.456 13.328 119.252 13.4151 119.039 13.4188V13.4168Z" fill="#7E91B4"/>
<path d="M34.4668 23.9881C34.245 23.9881 33.8075 24.0232 33.5837 24.0376V22.6974H35.0009C35.1294 22.6819 35.2597 22.6952 35.3826 22.7362C35.5054 22.7771 35.6178 22.8449 35.7115 22.9345V22.1345C35.6307 22.1473 35.5489 22.1535 35.4671 22.153H32.5916C32.7 22.227 32.7862 22.3293 32.8408 22.4488C32.8955 22.5684 32.9166 22.7007 32.9018 22.8314V26.2232C32.9163 26.3539 32.8952 26.4861 32.8405 26.6056C32.7859 26.7251 32.6998 26.8274 32.5916 26.9016H34.2347C34.6455 26.9016 36.2147 26.8603 36.2147 25.3881C36.2024 24.4974 35.5677 23.9881 34.4668 23.9881ZM34.284 26.4088C34.0493 26.4071 33.8151 26.3864 33.5837 26.3469V24.5263C33.7459 24.5139 33.9944 24.4974 34.1546 24.4974C34.4484 24.4974 35.4281 24.4974 35.4281 25.3861C35.4281 25.7634 35.2658 26.4088 34.284 26.4088Z" fill="#7E91B4"/>
<path d="M40.9182 26.2025L39.2915 22.1529H38.1844C38.2257 22.1711 38.2628 22.1977 38.2933 22.231C38.3239 22.2644 38.3472 22.3036 38.3619 22.3465C38.3766 22.3893 38.3822 22.4347 38.3786 22.4798C38.3749 22.5249 38.3619 22.5688 38.3405 22.6086L36.987 26.0396C36.8849 26.3887 36.6677 26.6926 36.3708 26.9015H37.6484C37.3321 26.6767 37.3937 26.4004 37.4861 26.1612L37.9113 25.0973H39.731L40.2425 26.3716C40.27 26.4188 40.2865 26.4716 40.2908 26.5261C40.2951 26.5806 40.287 26.6354 40.2673 26.6863C40.2475 26.7373 40.2166 26.7831 40.1767 26.8203C40.1369 26.8576 40.0891 26.8853 40.0371 26.9015H41.4912C41.2191 26.7495 41.0144 26.4998 40.9182 26.2025ZM38.09 24.6416L38.8171 22.7694L39.5544 24.6416H38.09Z" fill="#7E91B4"/>
<path d="M46.4535 22.1571H45.1431C45.2528 22.2298 45.3402 22.3318 45.3954 22.4516C45.4505 22.5715 45.4713 22.7044 45.4553 22.8354V24.0293H42.8509V22.8354C42.8349 22.7044 42.8556 22.5715 42.9108 22.4516C42.9659 22.3318 43.0533 22.2298 43.1631 22.1571H41.8527C41.9625 22.2298 42.0498 22.3318 42.105 22.4516C42.1602 22.5715 42.1809 22.7044 42.1649 22.8354V26.2272C42.1807 26.3583 42.1598 26.4911 42.1047 26.6109C42.0495 26.7307 41.9623 26.8327 41.8527 26.9056H43.1672C43.0576 26.8327 42.9704 26.7307 42.9152 26.6109C42.8601 26.4911 42.8392 26.3583 42.855 26.2272V24.5777H45.4594V26.2272C45.4751 26.3583 45.4543 26.4911 45.3992 26.6109C45.344 26.7307 45.2568 26.8327 45.1472 26.9056H46.4535C46.3441 26.8326 46.2571 26.7305 46.2023 26.6107C46.1475 26.4909 46.1271 26.3581 46.1433 26.2272V22.8354C46.1269 22.7046 46.1472 22.5717 46.202 22.4518C46.2568 22.332 46.3439 22.2299 46.4535 22.1571Z" fill="#7E91B4"/>
<path d="M48.4417 26.2272V22.8354C48.4269 22.7049 48.4477 22.5729 48.502 22.4534C48.5563 22.3339 48.6419 22.2314 48.7498 22.1571H47.4414C47.5498 22.231 47.636 22.3333 47.6906 22.4529C47.7453 22.5724 47.7664 22.7047 47.7516 22.8354V26.2272C47.7661 26.3579 47.745 26.4901 47.6903 26.6097C47.6357 26.7292 47.5496 26.8315 47.4414 26.9056H48.7498C48.6421 26.8311 48.5566 26.7286 48.5023 26.6092C48.4481 26.4897 48.4271 26.3577 48.4417 26.2272Z" fill="#7E91B4"/>
<path d="M50.0971 25.3241L49.3187 24.2932L50.9618 22.1571H49.6617C49.7292 22.1835 49.7879 22.2285 49.8311 22.2868C49.8743 22.3451 49.9003 22.4145 49.9061 22.487C49.9061 22.6251 49.8137 22.7736 49.6309 23.0189L48.5752 24.4437L49.7788 26.0932C50.1156 26.5613 50.395 26.9736 50.9207 26.9468L51.6437 26.9138C51.0563 26.5674 50.7113 26.1468 50.0971 25.3241Z" fill="#7E91B4"/>
<path d="M119.219 12.6558C119.276 12.6392 119.324 12.6031 119.356 12.554C119.388 12.5049 119.401 12.446 119.394 12.3878C119.399 12.3462 119.394 12.304 119.38 12.2647C119.365 12.2254 119.342 12.1899 119.312 12.1611C119.281 12.1323 119.245 12.111 119.205 12.0988C119.165 12.0866 119.123 12.0839 119.082 12.0909H118.72V13.1899H118.856V12.7239H119.061C119.232 12.7239 119.228 12.8558 119.232 12.9589C119.232 13.1033 119.232 13.1383 119.263 13.1899H119.402C119.371 13.1063 119.361 13.0165 119.371 12.928C119.367 12.8002 119.357 12.6888 119.219 12.6558ZM119.076 12.5919H118.856V12.2063H119.061C119.176 12.2063 119.25 12.2517 119.25 12.3919C119.248 12.5651 119.135 12.594 119.076 12.594V12.5919Z" fill="#7E91B4"/>
</svg>
