<svg width="66" height="20" viewBox="0 0 66 20" fill="none" xmlns="http://www.w3.org/2000/svg">
<path d="M7.31675 17.4403C9.03733 17.4402 10.7028 16.8315 12.0208 15.7211C13.3388 14.6108 14.225 13.0698 14.5238 11.3688C14.8226 9.66781 14.5149 7.9155 13.6547 6.41959C12.7945 4.92369 11.4368 3.77983 9.82006 3.18887L9.84943 3.35558C11.5642 4.00574 12.9635 5.29405 13.7568 6.9529C14.5501 8.61175 14.6763 10.5136 14.1093 12.2635C13.5423 14.0133 12.3256 15.4766 10.7119 16.3494C9.09822 17.2222 7.21164 17.4374 5.44404 16.9504C3.67644 16.4633 2.16368 15.3113 1.22 13.7338C0.276326 12.1563 -0.0257389 10.2745 0.376557 8.47928C0.778852 6.68405 1.85458 5.11339 3.3803 4.09356C4.90602 3.07373 6.76444 2.68313 8.56953 3.00289L8.81806 2.9031C8.32406 2.80126 7.82105 2.74997 7.31675 2.75C5.37623 2.75 3.51519 3.52386 2.14303 4.90135C0.770871 6.27884 0 8.14711 0 10.0952C0 12.0432 0.770871 13.9115 2.14303 15.289C3.51519 16.6665 5.37623 17.4403 7.31675 17.4403Z" fill="#7E91B4"/>
<path d="M8.50406 3.28406C8.31314 3.34756 8.13918 3.40427 8.03525 3.43035C7.75848 3.50066 5.93297 4.13345 4.8293 5.18811C5.02013 4.7069 5.2809 4.25672 5.60311 3.85221C5.20863 3.96101 4.82572 4.10838 4.4599 4.29222C3.87135 5.09398 3.13143 6.6669 3.13143 7.98919C3.13143 7.98919 2.77785 6.90278 3.07269 5.2312L3.06704 5.23801C2.68973 5.57113 2.35267 5.94756 2.06278 6.35957C1.99387 7.29969 1.98822 8.546 2.75074 10.2879C2.75074 10.2879 1.98032 9.72994 1.28219 7.85764V7.86785C1.05867 8.47694 0.929146 9.11673 0.898108 9.76509C1.52281 10.9116 2.46268 12.0615 4.35145 13.0878C4.35145 13.0878 2.80044 12.861 1.05174 11.5399C1.20986 12.2458 1.48725 12.9193 1.87187 13.5312C3.29437 14.1808 4.85479 14.4671 6.4142 14.3648C6.4142 14.3648 5.26986 15.0146 2.93035 14.8184C2.93035 14.8184 3.33816 15.3219 4.41359 15.839C5.38622 16.3062 6.65369 16.0148 7.07505 15.7335C7.41531 15.4924 7.67362 15.1523 7.81505 14.759C7.95647 14.3657 7.97419 13.9383 7.8658 13.5346C7.70536 13.8015 7.45228 13.9994 7.15525 14.0903C7.28006 13.9793 7.37996 13.8429 7.44831 13.6903C7.51667 13.5376 7.55193 13.372 7.55176 13.2046C7.55176 12.6308 7.08295 12.2441 6.49553 12.1953C6.02786 12.1545 5.25292 12.2123 5.00665 12.2123C4.76039 12.2123 4.42714 12.218 4.20121 11.9356C4.42916 11.9254 4.65587 11.8962 4.879 11.8483C5.15803 11.7871 5.74545 11.5693 6.09225 11.5875C6.04201 11.5326 5.98001 11.4899 5.91093 11.4626C5.84185 11.4353 5.7675 11.4241 5.69348 11.4299C5.51952 11.4299 5.48337 11.4877 5.36475 11.5195C5.24662 11.5562 5.11936 11.5498 5.00545 11.5015C4.89155 11.4531 4.79834 11.3659 4.74231 11.2552C4.74231 11.2552 4.98519 11.4446 5.19417 11.3845C5.29637 11.354 5.38696 11.2931 5.45399 11.2099C5.54835 11.1476 5.65851 11.1137 5.77143 11.1123C5.89424 11.1084 6.0144 11.1487 6.11032 11.2257C6.21312 11.3131 6.42211 11.2949 6.3001 11.1736C6.22871 11.0977 6.14278 11.0371 6.04746 10.9954C5.95214 10.9537 5.84942 10.9317 5.74544 10.9309C5.30714 10.9309 4.51638 11.0171 4.23849 11.1577C4.08182 11.2312 3.94128 11.3353 3.82504 11.4639C3.80131 11.4968 3.74709 11.4979 3.74935 11.4423C3.76178 11.1724 3.87587 10.4421 4.21477 10.1303C4.55366 9.81839 5.48901 9.57231 5.85163 9.50313C5.85163 9.50313 5.759 9.29106 5.86632 9.15498C6.02334 8.95879 6.54411 8.58796 9.58739 8.58796C9.49966 8.6582 9.42042 8.73851 9.35129 8.82724C9.35129 8.82724 10.5397 8.89188 11.2062 9.22642C11.3101 9.27746 11.5168 9.29673 11.588 8.82724L11.396 8.70477C11.396 8.70477 11.414 8.63445 11.431 8.54713C11.4479 8.45981 11.431 8.44394 11.3621 8.47796C11.3264 8.49101 11.2959 8.51527 11.2751 8.54713C11.2751 8.54713 11.1023 8.61971 11.0842 8.51198C11.0661 8.40425 10.8763 8.14682 10.4945 8.09579C10.4945 8.09579 10.6865 7.83496 11.126 7.89279C11.126 7.89279 11.1599 8.01981 11.2525 7.98465C11.3451 7.9495 11.4728 7.87125 11.4784 7.97444C11.4841 8.07764 11.536 8.25115 11.7778 7.98465C11.9216 8.05682 12.0869 8.07337 12.2421 8.03115C12.4601 7.95063 12.6182 7.80434 12.6702 7.45165C12.6694 7.38715 12.6937 7.32489 12.738 7.27814C12.7569 7.26273 12.7721 7.24327 12.7826 7.2212C12.793 7.19914 12.7984 7.175 12.7984 7.15057C12.7984 7.12613 12.793 7.10199 12.7826 7.07992C12.7721 7.05786 12.7569 7.0384 12.738 7.02299C12.5016 6.85561 12.2544 6.70408 11.9981 6.56937C11.8252 6.47751 11.5259 6.37318 11.5022 5.68822C11.4796 5.02254 11.2581 4.66759 10.4685 3.9486C10.4471 3.93046 10.4301 3.91345 10.4075 3.89304C10.4075 3.89304 10.4075 3.90324 10.4075 3.91912C10.4026 3.9844 10.4068 4.05005 10.4199 4.11417C10.4199 4.11417 10.1545 3.81139 9.54221 3.66056C9.54221 3.66056 9.55237 3.61973 9.56593 3.5619C9.59299 3.4497 9.61411 3.33613 9.62919 3.22168C9.64275 3.09581 9.54221 2.96312 9.33548 3.01302C9.19201 3.04477 8.82488 3.17406 8.50293 3.28292L8.50406 3.28406ZM10.4245 5.69956C10.5439 5.70526 10.6614 5.73253 10.7713 5.78008C10.847 5.80276 11.0141 5.84358 11.0729 5.38657C11.0739 5.38266 11.0761 5.3792 11.0793 5.37673C11.0825 5.37426 11.0864 5.37292 11.0904 5.37292C11.0944 5.37292 11.0983 5.37426 11.1015 5.37673C11.1046 5.3792 11.1069 5.38266 11.1079 5.38657C11.1325 5.58255 11.1363 5.78061 11.1192 5.9774C11.0955 6.11689 11.0254 6.12823 10.9226 6.07039C10.8625 6.02825 10.7957 5.99679 10.725 5.9774C10.6685 5.96606 10.612 5.98874 10.6572 6.07039C10.7332 6.21642 10.7646 6.38169 10.7475 6.54555C10.7475 6.54555 10.4889 6.04771 10.1827 5.80276C9.99068 5.65193 10.3454 5.69162 10.4222 5.69843L10.4245 5.69956ZM7.45235 6.8937C7.56531 6.84834 7.60372 6.95041 7.58 7.02185C7.46704 7.35526 7.31453 7.84516 7.37101 8.06517C7.4275 8.28517 7.97199 8.41332 7.97199 8.41332C7.86919 8.42579 7.28177 8.45187 7.13943 8.48363C6.9971 8.51538 6.77117 8.53806 6.81635 8.26362C6.87397 7.92908 7.04228 7.32237 7.04228 7.32237C6.83055 7.39744 6.6257 7.49078 6.43001 7.60135C6.31705 7.67166 6.27977 7.65918 6.31705 7.57753C6.78359 6.48318 7.77204 5.31626 8.37302 4.82748L8.38544 4.86264C7.60033 5.76987 7.09086 7.01732 7.09086 7.01732C7.209 6.96946 7.32968 6.92819 7.45235 6.8937ZM9.04855 3.5653C9.14005 3.50633 9.17394 3.53808 9.14005 3.57551C9.01289 3.72972 8.90933 3.9021 8.83278 4.08696C8.80793 4.17995 8.82149 4.20036 8.8791 4.22644C8.93671 4.25253 8.93671 4.30583 8.85538 4.3183C8.70402 4.33978 8.55501 4.37547 8.41029 4.4249C8.26457 4.4748 8.24424 4.38861 8.27812 4.32964C8.47041 4.01673 8.7346 3.75463 9.04855 3.5653Z" fill="#7E91B4"/>
<path d="M11.8467 14.7323H11.841C11.5699 13.825 10.8243 13.2365 10.403 12.7318C10.2335 12.5254 9.98274 12.2363 9.98274 12.2363C10.207 12.3391 10.4448 12.4093 10.6888 12.4449C10.4992 12.259 10.3215 12.0613 10.1567 11.8529C9.79458 11.4356 9.35485 11.0931 8.86213 10.8448C8.04765 10.474 7.19928 10.4275 7.08406 10.4048C6.96883 10.3821 6.72483 10.4275 6.87394 10.1938C7.02306 9.96024 7.90305 9.27868 7.90305 9.27868C7.71892 9.27868 6.90896 9.34899 6.66044 9.38301C6.41191 9.41703 6.36221 9.33652 6.34865 9.17548C6.34865 9.17548 5.86177 9.6359 6.09448 9.87065C6.13629 9.8921 6.18292 9.90232 6.22983 9.90033C6.27674 9.89835 6.32235 9.88421 6.36221 9.85931C6.51359 9.79171 6.67195 9.74113 6.8344 9.70848C6.73774 9.85618 6.65276 10.0113 6.58023 10.1723C6.53505 10.3118 6.52262 10.381 6.74177 10.4501C6.96093 10.5193 8.07137 10.8686 8.75255 11.3324C9.43373 11.7962 10.1454 12.3893 10.6662 13.4826C11.1869 14.5758 10.8989 15.4014 10.8187 15.5522C11.1889 15.3156 11.5334 15.0408 11.8467 14.7323Z" fill="#7E91B4"/>
<path d="M13.3615 12.4245C12.6928 11.879 11.5191 10.906 10.0856 10.5703C10.0856 10.5703 12.128 11.3902 12.8577 13.453C13.0557 13.1259 13.2243 12.7816 13.3615 12.4245Z" fill="#7E91B4"/>
<path d="M8.09058 16.5309C8.51769 16.4807 8.93883 16.3884 9.34788 16.2553C9.5659 15.7438 9.80652 14.5282 9.55235 13.588C9.55573 13.5869 9.60318 15.8005 8.09058 16.5309Z" fill="#7E91B4"/>
<path d="M12.9526 9.26161C12.4803 9.37693 11.9909 9.40384 11.5089 9.34099C12.3317 9.73534 13.0867 10.2586 13.7456 10.8912V10.8799C13.7764 10.619 13.7922 10.3567 13.7931 10.094C13.7931 10.0611 13.7931 10.043 13.7931 10.0078C13.5976 9.92842 12.3878 9.58367 12.3878 9.58367C12.5009 9.58026 12.6116 9.54912 12.71 9.49299C12.8084 9.43686 12.8917 9.35743 12.9526 9.26161Z" fill="#7E91B4"/>
<path d="M58.9408 9.05087L57.8789 6.62969H56.8329C56.9807 6.73478 57.1012 6.87403 57.1842 7.03568L56.2952 9.052C56.213 9.25183 56.0821 9.4277 55.9145 9.56345H56.9651C56.9092 9.51379 56.8703 9.44776 56.8539 9.3747C56.8375 9.30165 56.8444 9.22526 56.8736 9.15633L56.9673 8.93746H58.0281L58.1229 9.15633C58.1851 9.29355 58.1851 9.38314 58.0337 9.56345H59.3486C59.1711 9.43059 59.0306 9.25406 58.9408 9.05087ZM57.2079 8.40106L57.4971 7.74786L57.7829 8.40106H57.2079Z" fill="#7E91B4"/>
<path d="M28.1815 7.09112C28.6108 7.09112 28.7068 7.23174 28.9135 7.48803L29.3485 6.48667C29.2028 6.59425 29.0287 6.65619 28.848 6.66472C28.6221 6.66472 28.5091 6.57853 28.1488 6.57853C27.2247 6.57853 26.6023 7.18751 26.6023 8.09474C26.6023 9.00198 27.1671 9.61776 28.1036 9.61776C28.3254 9.62239 28.5449 9.5714 28.7421 9.46943C28.9394 9.36745 29.1082 9.2177 29.2332 9.03373L29.0209 8.5529C28.7893 8.88404 28.543 9.10631 28.177 9.10518C27.7093 9.10518 27.4348 8.65156 27.4348 8.09474C27.4393 7.56288 27.6924 7.09112 28.1815 7.09112Z" fill="#7E91B4"/>
<path d="M32.0314 9.02138L31.1276 7.93497L31.9704 7.12867C32.159 6.93815 32.3695 6.77066 32.5973 6.62969H31.2282C31.3931 6.81114 31.4112 6.87918 31.2926 6.99485L30.4724 7.78074V7.08898C30.4707 7.00256 30.4875 6.91678 30.5218 6.83751C30.5561 6.75824 30.6071 6.68735 30.6713 6.62969H29.467C29.5321 6.6867 29.5839 6.75741 29.6187 6.8368C29.6534 6.91618 29.6703 7.00229 29.6681 7.08898V9.1053C29.6692 9.191 29.6517 9.2759 29.617 9.3542C29.5823 9.4325 29.5312 9.50234 29.467 9.55892H30.6713C30.6081 9.5017 30.5577 9.43169 30.5234 9.35351C30.4891 9.27532 30.4718 9.19072 30.4724 9.1053V8.37384L31.1502 9.18695C31.2632 9.32757 31.227 9.40015 31.0926 9.56345H32.6323C32.4015 9.42003 32.198 9.23647 32.0314 9.02138Z" fill="#7E91B4"/>
<path d="M35.6214 6.62969H34.4183C34.4825 6.68735 34.5334 6.75824 34.5677 6.83751C34.6021 6.91678 34.6189 7.00256 34.6171 7.08898V7.10032L33.6693 8.22529V7.09125C33.6673 7.00468 33.6841 6.9187 33.7186 6.83936C33.7532 6.76001 33.8046 6.68922 33.8693 6.63196H32.6662C32.7304 6.68962 32.7813 6.76051 32.8157 6.83978C32.85 6.91905 32.8668 7.00483 32.865 7.09125V9.10757C32.8657 9.19299 32.8483 9.27758 32.8141 9.35577C32.7798 9.43396 32.7294 9.50397 32.6662 9.56119H33.8693C33.8056 9.50435 33.7547 9.43445 33.7202 9.35619C33.6857 9.27793 33.6684 9.19314 33.6693 9.10757V9.08149L34.6171 7.95539V9.10417C34.6178 9.18959 34.6004 9.27418 34.5662 9.35237C34.5319 9.43056 34.4815 9.50057 34.4183 9.55778H35.6214C35.5578 9.50081 35.5071 9.43088 35.4726 9.35265C35.4381 9.27442 35.4207 9.18971 35.4214 9.10417V7.08898C35.4196 7.00244 35.4365 6.91654 35.471 6.83723C35.5056 6.75792 35.5569 6.6871 35.6214 6.62969Z" fill="#7E91B4"/>
<path d="M36.9803 5.61806C36.8702 5.70934 36.8004 5.84056 36.786 5.98322C36.786 6.24518 37.0413 6.46292 37.5678 6.46292C38.0942 6.46292 38.3483 6.24518 38.3483 5.98322C38.3417 5.91245 38.3212 5.84372 38.2878 5.78102C38.2544 5.71833 38.209 5.66293 38.1541 5.61806H37.631C37.7234 5.69423 37.7842 5.80216 37.8016 5.92085C37.8016 5.97302 37.7417 6.07848 37.5678 6.07848C37.3938 6.07848 37.3351 5.97302 37.3351 5.92085C37.3508 5.80185 37.4115 5.69346 37.5045 5.61806H36.9803Z" fill="#7E91B4"/>
<path d="M23.019 6.62969C23.0615 6.68832 23.0863 6.75805 23.0903 6.83047C23.0943 6.9029 23.0774 6.97494 23.0416 7.03794C23.0416 7.03794 22.7027 7.86012 22.5163 8.30693L21.9729 7.04021C21.9352 6.97838 21.9162 6.90688 21.9182 6.8344C21.9202 6.76193 21.9432 6.6916 21.9842 6.63196H20.719C20.8799 6.77429 21.0092 6.94892 21.0986 7.14454C21.0986 7.14454 21.9345 8.98963 22.0848 9.32417C21.8837 9.79366 21.712 9.97851 21.4827 9.97851C21.1901 9.97851 21.0681 9.78799 20.8998 9.47386L20.6072 10.0976C20.7144 10.2213 20.8459 10.3215 20.9934 10.392C21.1409 10.4624 21.3013 10.5016 21.4646 10.507C22.1424 10.507 22.4124 10.0046 22.6722 9.39561L23.6324 7.14001C23.707 6.95265 23.8149 6.78048 23.951 6.63196L23.019 6.62969Z" fill="#7E91B4"/>
<path d="M20.4276 6.56265C20.1745 6.30863 19.7882 6.17368 19.3103 6.17368H17.9254C18.0006 6.2355 18.0602 6.31421 18.0995 6.40346C18.1387 6.49271 18.1565 6.58998 18.1513 6.6874V9.04847C18.1566 9.14607 18.1388 9.24353 18.0996 9.33298C18.0603 9.42242 18.0007 9.50133 17.9254 9.56332H19.2234C19.1478 9.50157 19.0879 9.42271 19.0487 9.3332C19.0094 9.2437 18.9918 9.14611 18.9974 9.04847V8.60279H19.3081C19.7142 8.62055 20.1108 8.47575 20.4106 8.20021C20.519 8.08841 20.6039 7.95594 20.6603 7.81063C20.7168 7.66532 20.7437 7.51013 20.7394 7.35422C20.7427 7.20806 20.7168 7.06271 20.6633 6.92676C20.6097 6.7908 20.5296 6.667 20.4276 6.56265ZM18.9997 6.77132H19.159C19.5826 6.77132 19.8594 6.90967 19.8594 7.34968C19.8594 7.78969 19.6538 8.00289 19.2143 8.00289H18.9997V6.77132Z" fill="#7E91B4"/>
<path d="M25.4342 9.10518C24.9688 9.10518 24.6931 8.65156 24.6931 8.09475C24.6931 7.56288 24.9484 7.09112 25.4342 7.09112C25.8668 7.09112 25.9617 7.23174 26.1696 7.48803L26.6022 6.48667C26.4571 6.5944 26.2833 6.65638 26.1029 6.66472C25.877 6.66472 25.764 6.57853 25.4037 6.57853C24.4796 6.57853 23.8583 7.18751 23.8583 8.09475C23.8583 9.00198 24.4231 9.61776 25.3574 9.61776C25.5802 9.62301 25.8009 9.57236 25.9993 9.47037C26.1978 9.36839 26.3677 9.21831 26.4938 9.03373L26.2848 8.5529C26.0487 8.88404 25.8036 9.10631 25.4342 9.10518Z" fill="#7E91B4"/>
<path d="M52.6644 6.62969H51.4591C51.5239 6.6869 51.5755 6.75765 51.6103 6.83699C51.645 6.91633 51.662 7.00233 51.6602 7.08898V7.77734H50.7903V7.08898C50.788 7.00238 50.8047 6.91633 50.8393 6.83695C50.8738 6.75757 50.9254 6.6868 50.9903 6.62969H49.7816C49.8461 6.6871 49.8974 6.75792 49.9319 6.83723C49.9664 6.91654 49.9834 7.00244 49.9815 7.08898V9.1053C49.9823 9.19084 49.9648 9.27555 49.9303 9.35378C49.8958 9.43201 49.8451 9.50194 49.7816 9.55892H50.9903C50.9264 9.50223 50.8754 9.43234 50.8409 9.35405C50.8064 9.27576 50.7891 9.19091 50.7903 9.1053V8.32735H51.6602V9.1053C51.6609 9.19095 51.6434 9.27576 51.6087 9.35401C51.574 9.43227 51.523 9.50214 51.4591 9.55892H52.6644C52.6005 9.50214 52.5495 9.43227 52.5149 9.35401C52.4802 9.27576 52.4626 9.19095 52.4634 9.1053V7.08898C52.4615 7.00233 52.4785 6.91633 52.5132 6.83699C52.548 6.75765 52.5996 6.6869 52.6644 6.62969Z" fill="#7E91B4"/>
<path d="M49.3692 9.05087L48.3051 6.62969H47.2602C47.408 6.73478 47.5285 6.87403 47.6115 7.03568L46.7236 9.052C46.6405 9.25164 46.5093 9.4274 46.3418 9.56345H47.3923C47.3365 9.51382 47.2975 9.44786 47.2809 9.37484C47.2642 9.30181 47.2708 9.2254 47.2997 9.15633L47.3957 8.93746H48.4508L48.5446 9.15633C48.6067 9.29355 48.6067 9.38314 48.4576 9.56345H49.7714C49.5956 9.43021 49.4571 9.25365 49.3692 9.05087ZM47.6352 8.40106L47.9244 7.74786L48.2091 8.40106H47.6352Z" fill="#7E91B4"/>
<path d="M36.0857 9.56345H37.2899C37.2267 9.50624 37.1763 9.43623 37.142 9.35804C37.1077 9.27985 37.0904 9.19526 37.091 9.10984V9.08149L38.0388 7.95539V9.10417C38.0395 9.18959 38.0221 9.27418 37.9879 9.35237C37.9536 9.43056 37.9032 9.50057 37.84 9.55778H39.0431C38.9795 9.50081 38.9288 9.43088 38.8943 9.35265C38.8598 9.27442 38.8424 9.18971 38.8431 9.10417V7.08898C38.8413 7.00244 38.8582 6.91654 38.8927 6.83723C38.9273 6.75792 38.9786 6.6871 39.0431 6.62969H37.84C37.9041 6.68735 37.9551 6.75824 37.9894 6.83751C38.0238 6.91678 38.0406 7.00256 38.0388 7.08898V7.10032L37.091 8.22529V7.09125C37.0893 7.00483 37.1061 6.91905 37.1404 6.83978C37.1748 6.76051 37.2257 6.68962 37.2899 6.63196H36.0857C36.1507 6.68896 36.2025 6.75968 36.2373 6.83907C36.272 6.91845 36.2889 7.00456 36.2867 7.09125V9.10757C36.2881 9.19364 36.2708 9.27899 36.2361 9.35771C36.2014 9.43642 36.1501 9.50662 36.0857 9.56345Z" fill="#7E91B4"/>
<path d="M55.4716 8.8388V7.08898C55.4698 7.00244 55.4867 6.91654 55.5212 6.83723C55.5558 6.75792 55.6071 6.6871 55.6716 6.62969H53.2835C53.3482 6.68695 53.3997 6.75774 53.4342 6.83709C53.4687 6.91643 53.4855 7.00241 53.4835 7.08898V8.28766C53.4835 8.79684 53.392 9.01344 52.9186 9.20963V9.92294C53.1691 9.70127 53.4886 9.57415 53.8223 9.56345H54.9068C55.2398 9.57762 55.5583 9.7043 55.8105 9.92294V9.18695C55.6004 9.12458 55.4716 9.05313 55.4716 8.8388ZM54.6244 9.01231H53.9613C54.0584 8.82292 54.0743 8.60405 54.0743 8.28766V7.23867C54.0743 7.20578 54.0867 7.18084 54.1307 7.18084H54.6696V8.95674C54.6673 8.99983 54.6549 9.01231 54.6244 9.01231Z" fill="#7E91B4"/>
<path d="M61.8293 7.43022C61.7962 7.25362 61.7108 7.09117 61.5842 6.96413C61.3662 6.74639 61.0295 6.62391 60.6127 6.62391H59.3588C59.4229 6.68157 59.4739 6.75246 59.5082 6.83174C59.5425 6.91101 59.5594 6.99679 59.5576 7.0832V9.09952C59.5583 9.18494 59.5409 9.26954 59.5066 9.34773C59.4724 9.42592 59.422 9.49593 59.3588 9.55314H60.5607C60.4972 9.49617 60.4464 9.42623 60.412 9.348C60.3775 9.26978 60.36 9.18506 60.3608 9.09952V8.74117H60.6127C60.9642 8.75557 61.307 8.62957 61.5661 8.39075C61.6604 8.29325 61.7344 8.17782 61.7836 8.05124C61.8329 7.92466 61.8565 7.78948 61.853 7.65362C61.8532 7.59627 61.8487 7.53899 61.8395 7.48238C62.0654 7.31341 62.2767 7.17846 62.5173 7.17846H62.8867V9.10633C62.8876 9.1919 62.8703 9.27668 62.8358 9.35494C62.8013 9.4332 62.7505 9.50311 62.6867 9.55994H63.8909C63.8277 9.50273 63.7774 9.43272 63.7431 9.35453C63.7088 9.27634 63.6915 9.19175 63.6921 9.10633V7.17846H63.9486C64.1937 7.17846 64.249 7.21815 64.4004 7.44496L64.7585 6.62732H62.1727L61.8293 7.43022ZM60.3608 7.17392H60.4862C60.6451 7.15775 60.804 7.20455 60.929 7.30434C61.01 7.39827 61.0506 7.52061 61.042 7.64455C61.042 8.02105 60.8838 8.18775 60.5336 8.18775H60.363L60.3608 7.17392Z" fill="#7E91B4"/>
<path d="M44.0203 8.95891L43.7876 8.44292C43.5504 8.80128 43.2861 9.06778 42.8014 9.06778C42.2592 9.06778 41.8683 8.55292 41.8683 7.85889C41.8683 7.25445 42.1767 6.65908 42.8014 6.65908C43.2962 6.65908 43.4657 6.85413 43.6543 7.10589L44.1288 6.02629C43.9694 6.13836 43.78 6.19925 43.5854 6.20093C43.3595 6.20093 43.12 6.1 42.763 6.1C41.6887 6.1 40.968 6.80877 40.968 7.85889C40.968 8.87953 41.6187 9.62686 42.7111 9.62686C42.9678 9.63579 43.2225 9.5792 43.4515 9.46238C43.6805 9.34556 43.8762 9.17233 44.0203 8.95891Z" fill="#7E91B4"/>
<path d="M44.9297 9.1052C44.9307 9.19077 44.9133 9.27556 44.8788 9.35382C44.8443 9.43208 44.7935 9.50199 44.7298 9.55882H45.9408C45.877 9.50199 45.8262 9.43208 45.7917 9.35382C45.7572 9.27556 45.7398 9.19077 45.7408 9.1052V7.17733H46.0424C46.2876 7.17733 46.3418 7.21702 46.4943 7.44383L46.8512 6.62619H44.1695L43.7944 7.51868C44.0362 7.33156 44.261 7.17847 44.5196 7.17847H44.9342L44.9297 9.1052Z" fill="#7E91B4"/>
<path d="M65.4713 6.40282C65.3667 6.40282 65.2645 6.43398 65.1775 6.49235C65.0905 6.55071 65.0228 6.63367 64.9828 6.73071C64.9428 6.82776 64.9324 6.93453 64.9529 7.03751C64.9734 7.14049 65.0238 7.23506 65.0979 7.30924C65.1719 7.38342 65.2663 7.43387 65.3689 7.45422C65.4715 7.47457 65.5778 7.4639 65.6744 7.42356C65.771 7.38321 65.8535 7.31501 65.9115 7.22758C65.9694 7.14016 66.0002 7.03744 66 6.93242C65.9991 6.79204 65.9431 6.65768 65.8441 6.55853C65.7451 6.45937 65.6112 6.40342 65.4713 6.40282ZM65.4713 7.37923C65.3836 7.37923 65.2978 7.35312 65.2248 7.3042C65.1518 7.25528 65.0949 7.18574 65.0613 7.10437C65.0276 7.023 65.0188 6.93344 65.0358 6.84702C65.0529 6.7606 65.095 6.68119 65.157 6.61881C65.219 6.55644 65.298 6.5139 65.384 6.49658C65.4701 6.47925 65.5593 6.48792 65.6404 6.52148C65.7216 6.55503 65.791 6.61198 65.8399 6.68512C65.8888 6.75827 65.9151 6.84432 65.9153 6.93242C65.9138 7.05038 65.8667 7.16313 65.7838 7.24676C65.7009 7.33038 65.5888 7.37831 65.4713 7.38036V7.37923Z" fill="#7E91B4"/>
<path d="M18.9568 13.1935C18.8348 13.1935 18.5941 13.2127 18.471 13.2207V12.4836H19.2505C19.3212 12.4751 19.3929 12.4823 19.4604 12.5049C19.528 12.5274 19.5898 12.5647 19.6413 12.614V12.174C19.5969 12.181 19.5519 12.1844 19.5069 12.1842H17.9254C17.985 12.2248 18.0324 12.2811 18.0625 12.3469C18.0925 12.4126 18.1041 12.4854 18.096 12.5573V14.4228C18.104 14.4946 18.0923 14.5674 18.0623 14.6331C18.0322 14.6988 17.9849 14.7551 17.9254 14.7959H18.8291C19.055 14.7959 19.9181 14.7732 19.9181 13.9635C19.9113 13.4736 19.5623 13.1935 18.9568 13.1935ZM18.8562 14.5248C18.7271 14.5239 18.5983 14.5125 18.471 14.4908V13.4894C18.5603 13.4826 18.6969 13.4736 18.7851 13.4736C18.9466 13.4736 19.4854 13.4736 19.4854 13.9623C19.4854 14.1699 19.3962 14.5248 18.8562 14.5248Z" fill="#7E91B4"/>
<path d="M22.505 14.4114L21.6103 12.1841H21.0014C21.0242 12.1941 21.0445 12.2088 21.0613 12.2271C21.0781 12.2454 21.091 12.267 21.099 12.2906C21.1071 12.3141 21.1102 12.3391 21.1082 12.3639C21.1062 12.3887 21.0991 12.4128 21.0873 12.4347L20.3429 14.3218C20.2867 14.5138 20.1672 14.681 20.004 14.7958H20.7066C20.5326 14.6722 20.5665 14.5202 20.6174 14.3887L20.8512 13.8035H21.8521L22.1334 14.5044C22.1485 14.5303 22.1576 14.5594 22.1599 14.5893C22.1623 14.6193 22.1579 14.6495 22.147 14.6775C22.1361 14.7055 22.1191 14.7307 22.0972 14.7512C22.0753 14.7717 22.049 14.7869 22.0204 14.7958H22.8202C22.6705 14.7122 22.5579 14.5749 22.505 14.4114ZM20.9495 13.5529L21.3494 12.5232L21.7549 13.5529H20.9495Z" fill="#7E91B4"/>
<path d="M25.5494 12.1864H24.8287C24.8891 12.2264 24.9371 12.2825 24.9675 12.3484C24.9978 12.4143 25.0092 12.4874 25.0004 12.5595V13.2161H23.568V12.5595C23.5592 12.4874 23.5706 12.4143 23.6009 12.3484C23.6313 12.2825 23.6793 12.2264 23.7397 12.1864H23.019C23.0794 12.2264 23.1274 12.2825 23.1578 12.3484C23.1881 12.4143 23.1995 12.4874 23.1907 12.5595V14.425C23.1994 14.497 23.1879 14.5701 23.1576 14.636C23.1272 14.7019 23.0793 14.758 23.019 14.7981H23.742C23.6817 14.758 23.6337 14.7019 23.6034 14.636C23.5731 14.5701 23.5616 14.497 23.5703 14.425V13.5177H25.0027V14.425C25.0113 14.497 24.9999 14.5701 24.9695 14.636C24.9392 14.7019 24.8912 14.758 24.831 14.7981H25.5494C25.4892 14.758 25.4414 14.7018 25.4113 14.6359C25.3811 14.57 25.3699 14.4969 25.3788 14.425V12.5595C25.3698 12.4875 25.381 12.4144 25.4111 12.3485C25.4412 12.2826 25.4891 12.2264 25.5494 12.1864Z" fill="#7E91B4"/>
<path d="M26.6429 14.425V12.5595C26.6348 12.4877 26.6463 12.4151 26.6761 12.3493C26.706 12.2836 26.7531 12.2273 26.8124 12.1864H26.0928C26.1524 12.2271 26.1998 12.2833 26.2298 12.3491C26.2599 12.4148 26.2715 12.4876 26.2634 12.5595V14.425C26.2714 14.4969 26.2597 14.5696 26.2297 14.6353C26.1996 14.701 26.1523 14.7573 26.0928 14.7981H26.8124C26.7531 14.7571 26.7061 14.7007 26.6763 14.635C26.6464 14.5693 26.6349 14.4967 26.6429 14.425Z" fill="#7E91B4"/>
<path d="M27.5534 13.9283L27.1253 13.3613L28.029 12.1864H27.3139C27.351 12.2009 27.3833 12.2257 27.4071 12.2577C27.4309 12.2898 27.4452 12.328 27.4484 12.3678C27.4484 12.4438 27.3975 12.5255 27.297 12.6604L26.7164 13.444L27.3783 14.3513C27.5636 14.6087 27.7172 14.8355 28.0064 14.8208L28.404 14.8026C28.081 14.6121 27.8912 14.3808 27.5534 13.9283Z" fill="#7E91B4"/>
<path d="M65.5707 6.9607C65.6015 6.95154 65.6281 6.93169 65.6457 6.90469C65.6633 6.87769 65.6707 6.84529 65.6667 6.81328C65.6693 6.7904 65.6666 6.76723 65.6587 6.74559C65.6509 6.72395 65.6381 6.70445 65.6215 6.68861C65.6048 6.67277 65.5847 6.66104 65.5628 6.65433C65.5408 6.64763 65.5176 6.64614 65.495 6.64998H65.2962V7.25442H65.3708V6.99813H65.4837C65.5775 6.99813 65.5752 7.0707 65.5775 7.12741C65.5775 7.20679 65.5775 7.22607 65.5944 7.25442H65.6712C65.6542 7.20847 65.6484 7.15907 65.6543 7.11039C65.652 7.04008 65.6464 6.97885 65.5707 6.9607ZM65.4916 6.92555H65.3708V6.71348H65.4837C65.547 6.71348 65.5877 6.73843 65.5877 6.81555C65.5865 6.91081 65.5244 6.92668 65.4916 6.92668V6.92555Z" fill="#7E91B4"/>
</svg>
