<svg width="66" height="20" viewBox="0 0 66 20" fill="none" xmlns="http://www.w3.org/2000/svg">
<path d="M12.9388 19.4772C12.3917 19.6966 11.8055 19.7991 11.2172 19.7781C8.89061 19.7781 7.69995 18.3096 7.69995 16.3694C7.69995 14.0536 9.33353 12.7585 11.3648 12.7585C11.9356 12.7363 12.5044 12.8398 13.0317 13.0618L12.7007 14.2919C12.2963 14.1262 11.863 14.0443 11.4267 14.0512C10.2194 14.0512 9.28352 14.7878 9.28352 16.2972C9.28352 17.6573 10.0813 18.5119 11.4267 18.5119C11.8614 18.5081 12.2923 18.4291 12.7007 18.2783L12.9388 19.4772Z" fill="#7E91B4"/>
<path d="M13.5937 14.7951C14.2459 14.7202 14.9019 14.6832 15.5583 14.6843C16.3846 14.6843 17.9682 14.7734 17.9682 15.9433C17.9682 16.5764 17.461 16.9062 16.9728 17.0098V17.029C17.6872 17.1518 18.1777 17.5634 18.1777 18.2326C18.1777 19.6192 16.2917 19.7396 15.2964 19.7396C14.7276 19.7402 14.1592 19.7097 13.5937 19.6481V14.7951ZM15.082 18.7935C15.2505 18.811 15.42 18.8174 15.5893 18.8128C16.1084 18.8128 16.6251 18.6611 16.6251 18.1773C16.6251 17.756 16.2275 17.5538 15.5202 17.5538H15.082V18.7935ZM15.082 16.6679H15.4702C16.0774 16.6679 16.4656 16.5066 16.4656 16.1335C16.4656 15.8109 16.2084 15.6111 15.6012 15.6111C15.4275 15.6108 15.254 15.6228 15.082 15.6472V16.6679Z" fill="#7E91B4"/>
<path d="M23.038 19.6674H21.5425V17.8138H21.233C21.0977 17.8117 20.9638 17.8425 20.8428 17.9037C20.7218 17.9648 20.6171 18.0546 20.5376 18.1653C20.2781 18.406 20.159 18.8875 20.009 19.263C19.9494 19.405 19.8994 19.5037 19.8185 19.665H18.2063C18.3276 19.4978 18.4276 19.3158 18.504 19.1234C18.654 18.7334 18.8921 18.0979 19.1922 17.7657C19.3561 17.5836 19.5714 17.4567 19.8089 17.4022V17.3733C19.2612 17.3131 18.554 16.94 18.554 16.1552C18.554 15.5389 18.8921 15.1923 19.3803 14.9516C19.8304 14.7301 20.5067 14.6603 21.1734 14.6603C21.7967 14.6555 22.4196 14.6925 23.038 14.771V19.6674ZM21.5425 15.6473C21.3748 15.6204 21.2051 15.6083 21.0353 15.6112C20.5471 15.6112 20.128 15.8013 20.128 16.2443C20.128 16.6872 20.6043 16.8894 21.0544 16.8894C21.2925 16.8894 21.4235 16.8894 21.5521 16.8894L21.5425 15.6473Z" fill="#7E91B4"/>
<path d="M24.3334 16.6679H25.0478C25.667 16.6679 25.9646 16.4561 25.9646 16.1865C25.9646 15.9169 25.6765 15.705 25.1383 15.705C24.7073 15.7168 24.2863 15.8385 23.9143 16.0589L23.6143 15.161C24.2191 14.8193 24.9027 14.6457 25.5955 14.6579C26.4838 14.6579 27.5696 14.9708 27.5696 15.977C27.572 16.6102 26.9886 16.94 26.5123 17.0507V17.0916C27.11 17.1614 27.7792 17.5033 27.7792 18.2495C27.7792 19.4531 26.3504 19.7589 25.3574 19.7589C24.6965 19.7669 24.0449 19.601 23.4666 19.2774L23.7833 18.3289C24.2182 18.5445 24.6945 18.6612 25.1788 18.6708C25.817 18.6708 26.1147 18.4301 26.1147 18.1484C26.1147 17.756 25.7074 17.5947 25.0597 17.5947H24.3334V16.6679Z" fill="#7E91B4"/>
<path d="M29.7914 14.7445V16.2057C30.0461 16.1677 30.3031 16.1476 30.5606 16.1456C31.6964 16.1456 32.8919 16.5476 32.8919 17.8571C32.903 18.1162 32.8475 18.3737 32.7306 18.6046C32.6137 18.8354 32.4395 19.0316 32.2251 19.1739C31.5941 19.6192 30.6487 19.7396 29.9009 19.7396C29.3583 19.7403 28.8161 19.7097 28.2769 19.6481V14.7445H29.7914ZM29.7914 18.6611C29.9295 18.6611 30.07 18.6924 30.2986 18.6924C30.7963 18.6924 31.394 18.5215 31.394 17.9269C31.394 17.3323 30.7463 17.1807 30.2796 17.1807C30.1198 17.1858 29.9606 17.2027 29.8033 17.2312L29.7914 18.6611Z" fill="#7E91B4"/>
<path d="M38.7761 12.8813V14.1403H35.828V15.2982C36.0991 15.2656 36.3718 15.2487 36.6448 15.2476C37.3168 15.2281 37.978 15.4217 38.5356 15.8013C38.7877 15.9858 38.9908 16.2305 39.1267 16.5136C39.2626 16.7967 39.327 17.1094 39.3143 17.4238C39.3231 17.7104 39.2706 17.9955 39.1605 18.2597C39.0504 18.524 38.8851 18.7611 38.6761 18.9548C38.0284 19.5374 36.9734 19.7396 35.9471 19.7396C35.4009 19.7451 34.855 19.7113 34.3135 19.6385V12.8813H38.7761ZM35.8161 18.5504C36.0107 18.581 36.2074 18.5947 36.4043 18.5913C36.7644 18.6003 37.1153 18.4752 37.3902 18.2399C37.497 18.1397 37.5815 18.0177 37.6381 17.882C37.6948 17.7463 37.7223 17.5999 37.7188 17.4527C37.724 17.3055 37.6944 17.1592 37.6322 17.0261C37.5701 16.8929 37.4773 16.7767 37.3616 16.6872C37.0667 16.4798 36.7134 16.3742 36.3543 16.3863C36.1743 16.3899 35.9946 16.4036 35.8161 16.4272V18.5504Z" fill="#7E91B4"/>
<path d="M43.9935 18.4709C43.9855 18.8734 44.0094 19.2759 44.065 19.6746H42.7053L42.6148 19.1931H42.5838C42.4114 19.3931 42.1966 19.5512 41.9554 19.6558C41.7143 19.7604 41.4529 19.8088 41.1907 19.7973C40.9858 19.8096 40.7805 19.779 40.5877 19.7075C40.395 19.6359 40.2189 19.5249 40.0705 19.3815C39.9221 19.238 39.8046 19.0651 39.7253 18.8737C39.646 18.6822 39.6066 18.4763 39.6095 18.2687C39.6095 16.9905 40.7454 16.3766 42.4671 16.3862V16.3164C42.4671 16.054 42.329 15.6809 41.5813 15.6809C41.1084 15.6857 40.6449 15.8142 40.2358 16.054L39.9572 15.0671C40.5436 14.768 41.1937 14.6192 41.8504 14.6338C43.4744 14.6338 43.9935 15.5967 43.9935 16.7594V18.4709ZM42.5195 17.3323C41.7242 17.3323 41.105 17.5153 41.105 18.1074C41.0994 18.1874 41.1111 18.2676 41.1394 18.3425C41.1678 18.4174 41.212 18.4851 41.2689 18.5408C41.3259 18.5966 41.3943 18.639 41.4692 18.6652C41.5441 18.6914 41.6239 18.7007 41.7027 18.6924C41.8758 18.6931 42.0447 18.6393 42.186 18.5383C42.3273 18.4373 42.4339 18.2943 42.4909 18.1291C42.5104 18.043 42.52 17.955 42.5195 17.8667V17.3323Z" fill="#7E91B4"/>
<path d="M46.1272 14.7445V16.5283H47.6608V14.7445H49.1872V19.6674H47.6608V17.7151H46.1272V19.6674H44.6103V14.7445H46.1272Z" fill="#7E91B4"/>
<path d="M51.4137 14.7445V16.7089H51.5852L52.8092 14.7445H54.5832L52.7901 16.8509C53.3664 16.9616 53.726 17.496 54.0141 18.211C54.1737 18.613 54.3642 19.198 54.6023 19.6553H53.0187C52.8431 19.3064 52.6966 18.9432 52.5806 18.5697C52.3615 18.004 52.0638 17.7031 51.5637 17.7031H51.4137V19.6674H49.9111V14.7445H51.4137Z" fill="#7E91B4"/>
<path d="M36.259 0.129992H36.3233V0H29.1318C28.2951 0.00254728 27.4935 0.340151 26.9026 0.938881C26.3117 1.53761 25.9795 2.34867 25.9789 3.19444C25.9789 3.20648 25.9789 3.21611 25.9789 3.22815H33.1609C33.1691 2.40318 33.4992 1.61485 34.0794 1.03465C34.6596 0.454445 35.4429 0.129317 36.259 0.129992Z" fill="#7E91B4"/>
<path d="M26.0361 9.55201H25.9718V9.68441H33.1562C33.9939 9.68633 34.798 9.35194 35.3919 8.75474C35.9858 8.15754 36.3208 7.3464 36.3233 6.49959C36.3233 6.48756 36.3233 6.47793 36.3233 6.46589H29.1318C29.1205 7.28834 28.7894 8.07324 28.21 8.65079C27.6307 9.22833 26.8497 9.55209 26.0361 9.55201Z" fill="#7E91B4"/>
<path d="M36.2591 6.32388H36.3186C36.2778 5.51646 35.9356 4.75473 35.3611 4.19229C34.7866 3.62984 34.0225 3.30853 33.2229 3.29313C33.2311 4.10105 33.5548 4.87297 34.1235 5.44067C34.6922 6.00836 35.4598 6.32583 36.2591 6.32388Z" fill="#7E91B4"/>
<path d="M25.9837 3.37016C26.0245 4.17757 26.3667 4.93931 26.9412 5.50175C27.5157 6.06419 28.2798 6.38551 29.0794 6.40091C29.0737 5.58961 28.7503 4.81365 28.1799 4.2429C27.6095 3.67216 26.8386 3.35315 26.036 3.35571L25.9837 3.37016Z" fill="#7E91B4"/>
</svg>
