<svg width="120" height="36" viewBox="0 0 120 36" fill="none" xmlns="http://www.w3.org/2000/svg">
<path d="M23.5253 35.413C22.5304 35.8121 21.4645 35.9984 20.3949 35.9601C16.1648 35.9601 14 33.2903 14 29.7625C14 25.552 16.9701 23.1972 20.6633 23.1972C21.7012 23.1569 22.7353 23.345 23.6941 23.7487L23.0923 25.9853C22.357 25.6839 21.5693 25.5351 20.7759 25.5476C18.5808 25.5476 16.8792 26.8869 16.8792 29.6312C16.8792 32.1041 18.3297 33.6579 20.7759 33.6579C21.5663 33.651 22.3498 33.5074 23.0923 33.2334L23.5253 35.413Z" fill="#7E91B4"/>
<path d="M24.7159 26.9001C25.9018 26.7639 27.0944 26.6967 28.2879 26.6988C29.7903 26.6988 32.6695 26.8607 32.6695 28.9879C32.6695 30.139 31.7473 30.7386 30.8597 30.9268V30.9618C32.1586 31.185 33.0505 31.9335 33.0505 33.1503C33.0505 35.6713 29.6214 35.8902 27.8116 35.8902C26.7775 35.8913 25.7441 35.8358 24.7159 35.7238V26.9001ZM27.422 34.1701C27.7283 34.2018 28.0364 34.2135 28.3442 34.2051C29.2881 34.2051 30.2276 33.9293 30.2276 33.0496C30.2276 32.2836 29.5045 31.916 28.2186 31.916H27.422V34.1701ZM27.422 30.3053H28.1277C29.2318 30.3053 29.9375 30.0121 29.9375 29.3336C29.9375 28.7471 29.4699 28.3839 28.3658 28.3839C28.0501 28.3832 27.7347 28.4051 27.422 28.4495V30.3053Z" fill="#7E91B4"/>
<path d="M41.8874 35.7589H39.1683V32.3887H38.6055C38.3595 32.3849 38.1162 32.4409 37.8961 32.5521C37.6761 32.6634 37.4857 32.8265 37.3412 33.0278C36.8693 33.4654 36.6528 34.3408 36.38 35.0236C36.2718 35.2818 36.1809 35.4613 36.0337 35.7545H33.1025C33.323 35.4505 33.5048 35.1197 33.6437 34.7698C33.9164 34.0607 34.3494 32.9052 34.8949 32.3012C35.1931 31.9701 35.5845 31.7395 36.0163 31.6403V31.5878C35.0205 31.4784 33.7346 30.7999 33.7346 29.3731C33.7346 28.2526 34.3494 27.6224 35.237 27.1847C36.0553 26.782 37.2849 26.6551 38.4972 26.6551C39.6304 26.6464 40.7629 26.7137 41.8874 26.8564V35.7589ZM39.1683 28.4496C38.8634 28.4007 38.5548 28.3787 38.2461 28.3839C37.3585 28.3839 36.5965 28.7297 36.5965 29.535C36.5965 30.3404 37.4624 30.708 38.2807 30.708C38.7137 30.708 38.9518 30.708 39.1856 30.708L39.1683 28.4496Z" fill="#7E91B4"/>
<path d="M44.2427 30.3053H45.5416C46.6673 30.3053 47.2085 29.9202 47.2085 29.43C47.2085 28.9397 46.6846 28.5546 45.7061 28.5546C44.9225 28.576 44.157 28.7973 43.4807 29.198L42.9351 27.5654C44.0349 26.9442 45.2778 26.6286 46.5374 26.6507C48.1524 26.6507 50.1267 27.2196 50.1267 29.0492C50.131 30.2003 49.0703 30.7999 48.2043 31.0012V31.0757C49.2911 31.2026 50.5077 31.8241 50.5077 33.1809C50.5077 35.3693 47.9099 35.9252 46.1044 35.9252C44.9028 35.9398 43.7181 35.6381 42.6667 35.0498L43.2425 33.3254C44.0332 33.7173 44.8992 33.9294 45.7797 33.9469C46.9401 33.9469 47.4813 33.5092 47.4813 32.9971C47.4813 32.2837 46.7409 31.9904 45.5632 31.9904H44.2427V30.3053Z" fill="#7E91B4"/>
<path d="M54.1663 26.8082V29.465C54.6294 29.3957 55.0966 29.3592 55.5647 29.3555C57.63 29.3555 59.8035 30.0865 59.8035 32.4675C59.8238 32.9385 59.7227 33.4068 59.5102 33.8265C59.2977 34.2461 58.981 34.6028 58.5912 34.8616C57.4438 35.6713 55.7249 35.8902 54.3654 35.8902C53.3788 35.8914 52.393 35.8359 51.4126 35.7239V26.8082H54.1663ZM54.1663 33.9294C54.4174 33.9294 54.6728 33.9863 55.0885 33.9863C55.9934 33.9863 57.0801 33.6755 57.0801 32.5944C57.0801 31.5133 55.9025 31.2376 55.0538 31.2376C54.7634 31.2469 54.474 31.2777 54.1879 31.3295L54.1663 33.9294Z" fill="#7E91B4"/>
<path d="M70.5021 23.4205V25.7096H65.1419V27.8149C65.6348 27.7557 66.1307 27.725 66.627 27.723C67.8488 27.6875 69.0509 28.0395 70.0648 28.7296C70.5233 29.0651 70.8925 29.51 71.1395 30.0247C71.3866 30.5395 71.5037 31.108 71.4806 31.6796C71.4966 32.2007 71.4012 32.7191 71.201 33.1995C71.0007 33.6799 70.7003 34.111 70.3202 34.4633C69.1426 35.5225 67.2245 35.8902 65.3584 35.8902C64.3653 35.9002 63.3728 35.8388 62.3883 35.7063V23.4205H70.5021ZM65.1203 33.728C65.474 33.7837 65.8318 33.8086 66.1897 33.8024C66.8445 33.8188 67.4824 33.5913 67.9822 33.1634C68.1764 32.9812 68.3301 32.7594 68.4331 32.5127C68.5361 32.2659 68.586 31.9999 68.5797 31.7322C68.5893 31.4646 68.5353 31.1986 68.4223 30.9565C68.3093 30.7143 68.1406 30.503 67.9302 30.3403C67.394 29.9632 66.7517 29.7713 66.0988 29.7932C65.7715 29.7999 65.4449 29.8247 65.1203 29.8676V33.728Z" fill="#7E91B4"/>
<path d="M79.9884 33.5835C79.9738 34.3153 80.0172 35.0471 80.1182 35.7719H77.646L77.4815 34.8966H77.4252C77.1117 35.2601 76.7212 35.5477 76.2827 35.7379C75.8442 35.9281 75.369 36.016 74.8923 35.9952C74.5197 36.0175 74.1464 35.9618 73.796 35.8317C73.4455 35.7016 73.1254 35.4998 72.8556 35.239C72.5858 34.9782 72.3721 34.6639 72.2279 34.3158C72.0837 33.9677 72.012 33.5932 72.0174 33.2159C72.0174 30.8918 74.0827 29.7757 77.213 29.7932V29.6662C77.213 29.1892 76.9619 28.5107 75.6024 28.5107C74.7427 28.5194 73.8999 28.7531 73.1561 29.1892L72.6496 27.3946C73.7157 26.8509 74.8978 26.5803 76.0917 26.6068C79.0445 26.6068 79.9884 28.3576 79.9884 30.4716V33.5835ZM77.3083 31.5133C75.8622 31.5133 74.7365 31.8459 74.7365 32.9226C74.7262 33.068 74.7476 33.2139 74.7991 33.35C74.8506 33.4861 74.9309 33.6092 75.0345 33.7106C75.1381 33.812 75.2624 33.8892 75.3986 33.9368C75.5349 33.9844 75.6798 34.0013 75.8232 33.9862C76.1378 33.9875 76.445 33.8896 76.7019 33.706C76.9589 33.5224 77.1527 33.2623 77.2563 32.962C77.2917 32.8055 77.3091 32.6454 77.3083 32.4849V31.5133Z" fill="#7E91B4"/>
<path d="M83.8677 26.8082V30.0515H86.656V26.8082H89.4314V35.7589H86.656V32.2093H83.8677V35.7589H81.1097V26.8082H83.8677Z" fill="#7E91B4"/>
<path d="M93.4796 26.8082V30.3797H93.7913L96.0168 26.8082H99.2424L95.9821 30.638C97.0299 30.8393 97.6837 31.811 98.2076 33.1109C98.4977 33.8418 98.844 34.9054 99.277 35.737H96.3978C96.0785 35.1025 95.812 34.4422 95.6011 33.763C95.2028 32.7345 94.6616 32.1874 93.7524 32.1874H93.4796V35.7589H90.7476V26.8082H93.4796Z" fill="#7E91B4"/>
<path d="M65.9256 0.23635H66.0425V0H52.9669C51.4457 0.00463141 49.9884 0.618457 48.9139 1.70706C47.8395 2.79566 47.2356 4.27031 47.2345 5.80808C47.2345 5.82996 47.2345 5.84747 47.2345 5.86935H60.2927C60.3075 4.36942 60.9077 2.93609 61.9626 1.88118C63.0175 0.826264 64.4418 0.235121 65.9256 0.23635Z" fill="#7E91B4"/>
<path d="M47.3384 17.3673H47.2215V17.608H60.2841C61.8071 17.6115 63.2692 17.0035 64.349 15.9177C65.4288 14.8319 66.0379 13.3571 66.0425 11.8174C66.0425 11.7956 66.0425 11.7781 66.0425 11.7562H52.9669C52.9464 13.2515 52.3444 14.6786 51.2911 15.7287C50.2377 16.7788 48.8177 17.3674 47.3384 17.3673Z" fill="#7E91B4"/>
<path d="M65.9257 11.498H66.0339C65.9597 10.0299 65.3375 8.64497 64.293 7.62234C63.2484 6.59971 61.8592 6.0155 60.4053 5.98751C60.4202 7.45646 61.0088 8.85994 62.0428 9.89212C63.0768 10.9243 64.4725 11.5015 65.9257 11.498Z" fill="#7E91B4"/>
<path d="M47.2431 6.12756C47.3174 7.59559 47.9395 8.98055 48.984 10.0032C50.0286 11.0258 51.4178 11.61 52.8717 11.638C52.8614 10.1629 52.2733 8.75208 51.2362 7.71437C50.1991 6.67665 48.7976 6.09663 47.3384 6.10129L47.2431 6.12756Z" fill="#7E91B4"/>
</svg>
