<svg width="120" height="36" viewBox="0 0 120 36" fill="none" xmlns="http://www.w3.org/2000/svg">
<path d="M41.9382 23.0924V17.5354H45.2259V15.5132H36.2564V17.5354H39.5441V23.0924H41.9382ZM48.2376 23.0924L52.2276 18.6818V23.0924H54.5419V15.5132H52.499L48.509 19.9238V15.5132H46.1947V23.0924H48.2376ZM58.6086 23.0924V20.2741H62.3271V23.0924H64.6414V15.5132H62.3271V18.2837H58.6086V15.5132H56.2943V23.0924H58.6086ZM71.0862 23.0924C71.6129 23.0924 72.0914 23.0446 72.5386 22.9172C73.7357 22.5828 74.5176 21.6116 74.5176 20.29C74.5176 19.0321 73.8471 18.1563 72.7781 17.7583C72.2671 17.5672 71.6605 17.5513 71.0862 17.5513H68.7081V15.5132H66.3938V23.0924H71.0862ZM70.7924 21.2612L68.7081 21.2613V19.3346H70.6871C71.0062 19.3346 71.3095 19.3346 71.5809 19.4302C71.9638 19.5575 72.1871 19.876 72.1871 20.2581C72.1871 20.6562 71.9638 20.9906 71.5967 21.1498C71.3648 21.2511 71.1324 21.2603 70.7924 21.2612ZM77.9857 23.0924V20.2263H78.6243L81.3852 23.0924H84.4652L80.619 19.1435L84.3219 15.5132H81.4172L78.6243 18.3633H77.9857V15.5132H75.6714V23.0924H77.9857ZM89.3638 23.3312C92.46 23.3312 94.3271 21.5797 94.3271 19.3187C94.3271 17.0577 92.46 15.3062 89.3638 15.3062C86.2514 15.3062 84.3843 17.0577 84.3843 19.3187C84.3843 21.5797 86.2514 23.3312 89.3638 23.3312ZM89.3638 21.4842C87.8157 21.4842 86.8262 20.5607 86.8262 19.3187C86.8262 18.0767 87.8157 17.1691 89.3638 17.1691C90.8957 17.1691 91.9014 18.0767 91.9014 19.3187C91.9014 20.5607 90.8957 21.4842 89.3638 21.4842ZM102.08 23.4268V22.6625C105.001 22.5988 106.741 21.4683 106.741 19.3028C106.741 17.1373 105.001 15.9112 102.08 15.8476V15.0833H99.7662V15.8476C96.8619 15.9112 95.1219 17.1373 95.1219 19.3028C95.1219 21.4683 96.8619 22.5988 99.7662 22.6625V23.4268H102.08ZM99.7662 21.0383C98.1705 20.9747 97.4681 20.3218 97.4681 19.3028C97.4681 18.2837 98.1705 17.5513 99.7662 17.4876V21.0383ZM102.08 21.0383V17.4876C103.692 17.5513 104.379 18.2837 104.379 19.3028C104.379 20.3218 103.692 20.9747 102.08 21.0383ZM114.494 23.4268V22.6625C117.415 22.5988 119.155 21.4683 119.155 19.3028C119.155 17.1373 117.415 15.9112 114.494 15.8476V15.0833H112.18V15.8476C109.275 15.9112 107.536 17.1373 107.536 19.3028C107.536 21.4683 109.275 22.5988 112.18 22.6625V23.4268H114.494ZM112.18 21.0383C110.584 20.9747 109.882 20.3218 109.882 19.3028C109.882 18.2837 110.584 17.5513 112.18 17.4876V21.0383ZM114.494 21.0383V17.4876C116.106 17.5513 116.793 18.2837 116.793 19.3028C116.793 20.3218 116.106 20.9747 114.494 21.0383Z" fill="#7E91B4"/>
<path fill-rule="evenodd" clip-rule="evenodd" d="M13.5921 22.3983C13.5374 22.3932 13.4923 22.4354 13.4876 22.4887C13.484 22.544 13.5247 22.591 13.5801 22.5926C13.6336 22.597 13.6803 22.556 13.6855 22.5019C13.6871 22.4493 13.6476 22.4003 13.5921 22.3983Z" fill="#7E91B4"/>
<path fill-rule="evenodd" clip-rule="evenodd" d="M18.0362 29.9428L17.5985 28.7407C18.1192 28.5827 19.0153 28.2423 19.4167 28.0162L19.149 28.8904L20.0563 29.1917C19.5077 29.4663 18.8421 29.7227 18.0362 29.9428ZM15.3169 31.0232C14.2616 31.0232 13.057 30.7812 12.7019 30.655L13.2409 29.1993C13.6887 29.3298 14.6191 29.468 15.2942 29.4636H15.3369C16.012 29.468 16.9417 29.3298 17.3914 29.1993L17.9296 30.655C17.5745 30.7812 16.3699 31.0232 15.3169 31.0232ZM10.5748 29.1917L11.4838 28.8904L11.2148 28.0162C11.6154 28.2423 12.5128 28.5827 13.0327 28.7407L12.5946 29.9428C11.7914 29.7227 11.123 29.4663 10.5748 29.1917ZM20.097 28.9242L19.5448 28.7132L19.6972 28.1436L19.8652 27.523C19.8652 27.523 18.8869 28.0528 17.5075 28.4505C17.1161 28.5624 16.82 28.6133 16.82 28.6133V29.0361C16.82 29.0361 16.0822 29.1638 15.3369 29.1638H15.2942C14.5481 29.1638 13.8115 29.0361 13.8115 29.0361V28.6133C13.8115 28.6133 13.5147 28.5624 13.124 28.4505C11.7451 28.0528 10.7675 27.523 10.7675 27.523L10.9327 28.1436L11.0883 28.7132L10.5341 28.9242L9.91966 29.1535C10.6239 29.4926 11.5999 29.9862 12.4932 30.2303L12.2826 30.8051C12.2826 30.8051 13.4153 31.3194 15.3026 31.3245L15.3082 31.3254H15.3281C17.2178 31.3202 18.3494 30.8051 18.3494 30.8051L18.1379 30.2303C19.0313 29.9862 20.0089 29.4926 20.7103 29.1535L20.097 28.9242Z" fill="#7E91B4"/>
<path fill-rule="evenodd" clip-rule="evenodd" d="M13.0095 5.75826L13.2605 5.78453L13.369 5.55604L13.6854 4.88092L14.2724 5.18425L14.4998 5.30009L15.3146 4.494L15.9498 5.12095L16.1317 5.30009L16.3591 5.18425L16.9433 4.88092L17.2637 5.55604L17.3702 5.78453L17.6212 5.75826L17.8614 5.7292C17.7517 5.9764 17.6703 6.21126 17.6124 6.40512C16.9784 6.05283 16.1552 5.8522 15.3146 5.8522C14.4782 5.8522 13.6555 6.05283 13.0195 6.40512C12.9604 6.21126 12.8802 5.9764 12.7705 5.7292L13.0095 5.75826ZM15.3146 6.20449C16.439 6.20449 17.3387 6.57589 17.8354 6.97196C17.8354 6.97196 17.9831 6.08547 18.487 5.30327L17.5817 5.40597L17.1077 4.40205L16.1975 4.87017L15.3146 4L14.4343 4.87017L13.5222 4.40205L13.0494 5.40597L12.1441 5.30327C12.6484 6.08547 12.7952 6.97196 12.7952 6.97196C13.2956 6.57589 14.1921 6.20449 15.3146 6.20449Z" fill="#7E91B4"/>
<path fill-rule="evenodd" clip-rule="evenodd" d="M29.5644 21.1178C29.5644 21.1178 29.1731 21.7973 28.2749 21.7973H28.2641C27.1856 21.7909 26.7511 21.1349 26.7511 21.1349C26.7511 21.1349 26.8134 21.9883 26.4251 23.1404C25.9575 24.5288 26.4291 25.5208 26.4291 25.5208C26.4291 25.5208 26.1774 25.5889 25.8877 25.5889C25.7767 25.5889 25.661 25.5777 25.5517 25.5495C24.6512 25.3361 24.4265 24.5181 24.4265 24.5181C24.4265 24.5181 24.5095 27.2802 21.2812 27.2802H21.256C21.256 27.2802 21.5405 26.8945 21.6243 25.7835C21.7775 23.7339 23.1684 23.4524 23.1684 23.4524C23.1684 23.4524 22.4263 23.3593 22.1043 23.0719C21.6012 22.6169 21.6371 22.0914 21.6371 22.0914C22.7731 22.0755 23.5172 21.6898 24.0842 21.0354C24.6983 20.3268 24.7992 19.5633 24.7992 19.5633C24.7992 19.5633 24.1883 20.1158 23.0076 20.1158C22.9035 20.1158 22.7926 20.1107 22.6789 20.0995C22.1199 20.0546 21.7336 19.6999 21.7336 19.6999C22.9634 18.9133 23.8256 17.5416 23.0607 15.4748C22.4479 13.8184 20.9755 12.5817 19.4933 11.6498C19.0001 11.3425 18.7248 11.0005 18.7248 10.7067C18.7248 10.0145 19.7119 9.99222 20.1161 9.52769C20.5829 8.98711 20.2901 8.11093 19.8854 7.58311C19.8854 7.58311 20.0219 7.55565 20.2366 7.55565C20.6635 7.55565 21.4017 7.66232 22.0085 8.29008C22.8145 9.12165 22.4802 10.028 22.4802 10.028L22.696 10.0702C22.8249 10.0973 22.9538 10.1021 23.0871 10.1092C23.1158 10.1092 23.1453 10.1108 23.1741 10.1108C24.3447 10.1108 24.8678 8.88958 24.8678 8.88958C24.8678 8.88958 26.1127 10.4169 24.2801 11.6139C23.9649 11.8185 23.8256 12.0084 23.8623 12.2106L23.8906 12.3436L24.0211 12.3667C25.349 12.7257 26.0213 13.6401 26.8421 14.6794C28.089 16.2598 29.8517 16.3107 30.0692 16.3107H30.0927C30.0927 16.3107 29.6905 17.5781 28.5047 17.5781C28.4848 17.5781 28.468 17.5782 28.4485 17.577C27.9038 17.5575 27.6241 17.3497 27.6241 17.3497C27.6241 17.3497 27.4123 20.2261 29.5644 21.1178ZM28.5047 17.9663C29.9587 17.9663 30.4455 16.4907 30.465 16.4274L30.6278 15.9071L30.0828 15.9242H30.0808C29.8889 15.9242 28.2841 15.8816 27.1469 14.4398L27.0396 14.3057C26.2963 13.3634 25.5916 12.4662 24.3315 12.0574C24.3679 12.0243 24.4201 11.9842 24.4915 11.9376C25.1607 11.4993 25.5493 10.9659 25.6471 10.3477C25.7903 9.417 25.1946 8.6746 25.1686 8.64434L24.7637 8.1448L24.5107 8.73712C24.4939 8.77451 24.0686 9.72271 23.1741 9.72271H23.1074C23.046 9.71953 22.9873 9.71715 22.9299 9.71236C22.9614 9.28963 22.884 8.63479 22.2886 8.02019C21.5728 7.28098 20.6954 7.16992 20.2366 7.16992C19.9916 7.16992 19.8288 7.20018 19.8104 7.20217L19.1992 7.32318L19.5766 7.81919C19.8723 8.20172 20.1408 8.90711 19.8224 9.27529C19.7203 9.39273 19.5112 9.48788 19.3113 9.58342C18.8999 9.7725 18.3369 10.0364 18.3369 10.7067C18.3369 11.1406 18.6749 11.5945 19.2865 11.9802C21.0968 13.1158 22.2136 14.3013 22.696 15.6097C23.4426 17.6219 22.4686 18.77 21.523 19.3751L21.0988 19.6473L21.4703 19.9873C21.5202 20.0315 21.9738 20.4303 22.645 20.4876C22.7723 20.496 22.8935 20.5032 23.0076 20.5032C23.4374 20.5032 23.8037 20.4355 24.1013 20.3447C24.0199 20.4876 23.9182 20.6342 23.7921 20.7806C23.2519 21.4052 22.5867 21.6898 21.6307 21.7049L21.2752 21.7109L21.2481 22.0664C21.2449 22.138 21.2181 22.7976 21.8434 23.3581C21.9391 23.4449 22.0544 23.5161 22.1762 23.5742C21.7516 23.9556 21.3207 24.6192 21.2373 25.7556C21.1667 26.705 20.94 27.0557 20.9373 27.0593L20.5446 27.6576L21.2544 27.6672C22.4271 27.6672 23.3249 27.3448 23.9473 26.705C24.3148 26.3265 24.5251 25.899 24.6492 25.5208C24.8534 25.694 25.1164 25.8464 25.4604 25.9272C25.5904 25.9579 25.7328 25.9742 25.8877 25.9742C26.2188 25.9742 26.4962 25.9041 26.5269 25.8966L26.9801 25.7767L26.7798 25.3552C26.7651 25.3209 26.3868 24.4739 26.7938 23.2662C26.9685 22.7435 27.0584 22.2761 27.1018 21.9119C27.3875 22.06 27.7694 22.1826 28.2633 22.1842C29.3849 22.1842 29.8801 21.3479 29.902 21.3128L30.1227 20.9291L29.7133 20.7607C28.3763 20.207 28.0806 18.7198 28.0211 17.9154C28.142 17.9388 28.2801 17.9599 28.4361 17.9643L28.5047 17.9663Z" fill="#7E91B4"/>
<path fill-rule="evenodd" clip-rule="evenodd" d="M26.871 11.6531C27.1419 11.6531 27.4575 11.745 27.7559 12.0527C28.6932 13.0017 29.5646 13.0547 29.5646 13.0547C29.4062 13.4046 28.947 13.7115 28.4717 13.7115C28.3616 13.7115 28.2511 13.6952 28.1418 13.6573C27.4974 13.44 27.2664 12.4755 26.1344 11.8748C26.1344 11.8748 26.45 11.6531 26.871 11.6531ZM25.9496 12.2175C26.4919 12.5061 26.8083 12.8923 27.0852 13.2346C27.3574 13.569 27.6155 13.8906 28.0201 14.0244C28.1637 14.0737 28.3162 14.0968 28.4717 14.0968C29.0778 14.0968 29.6875 13.7262 29.9186 13.2135L30.1512 12.6996L29.5886 12.6662C29.5622 12.6658 28.8388 12.5993 28.0341 11.7793C27.7029 11.4425 27.3023 11.2662 26.871 11.2662C26.3439 11.2662 25.9533 11.5289 25.9102 11.5556L25.3931 11.919L25.9496 12.2175Z" fill="#7E91B4"/>
<path fill-rule="evenodd" clip-rule="evenodd" d="M26.2045 17.341V17.3609C25.8786 14.7341 23.9665 12.8369 21.8383 11.6841C21.642 11.5782 21.46 11.4895 21.2836 11.4039C21.9313 11.5042 22.9746 11.5161 23.7798 10.8195C23.7798 10.8195 22.5477 11.7239 20.024 10.9023C20.7223 11.3545 22.0801 11.9926 23.3198 13.0264C26.4176 15.7424 24.2012 18.3915 24.2012 18.3915C25.3144 17.2323 25.3611 15.9904 25.0335 14.9765C25.6196 15.9498 25.9943 17.1312 25.936 18.589C25.8506 20.676 24.7003 22.4817 23.4905 23.9322C22.9088 24.636 22.7791 25.501 22.7791 25.501C22.7791 25.501 23.0137 24.7379 23.6869 23.9521C24.9836 22.4375 26.0928 20.8643 26.2377 18.5969C26.3717 19.0085 26.9248 20.1522 27.8006 20.5829C27.8006 20.5829 26.6993 19.9209 26.2045 17.341Z" fill="#7E91B4"/>
<path fill-rule="evenodd" clip-rule="evenodd" d="M9.35021 27.2804C6.1215 27.2804 6.20412 24.5182 6.20412 24.5182C6.20412 24.5182 5.97864 25.3358 5.07893 25.5492C4.97116 25.5778 4.85626 25.5886 4.74373 25.5886C4.45407 25.5886 4.20312 25.5209 4.20312 25.5209C4.20312 25.5209 4.67273 24.529 4.20469 23.1401C3.81806 21.9885 3.8807 21.1346 3.8807 21.1346C3.8807 21.1346 3.44659 21.7906 2.36729 21.797H2.35651C1.45876 21.797 1.06693 21.1179 1.06693 21.1179C3.21836 20.2258 3.00768 17.3494 3.00768 17.3494C3.00768 17.3494 2.72798 17.5576 2.18255 17.5771C2.1626 17.5779 2.14464 17.5779 2.12589 17.5779C0.939252 17.5779 0.537057 16.3109 0.537057 16.3109H0.5614C0.780453 16.3109 2.54165 16.2595 3.78773 14.6792C4.6085 13.6399 5.28159 12.7263 6.60788 12.3664L6.74116 12.3433L6.7695 12.2108C6.80621 12.0085 6.66735 11.8183 6.35212 11.6141C4.51993 10.4167 5.76397 8.88968 5.76397 8.88968C5.76397 8.88968 6.28469 10.1106 7.45855 10.1106C7.48688 10.1106 7.51402 10.1094 7.54435 10.1094C7.67602 10.1022 7.80607 10.097 7.93497 10.07L8.15083 10.0282C8.15083 10.0282 7.81569 9.12176 8.62326 8.29024C9.23055 7.66247 9.96831 7.55578 10.3944 7.55578C10.6107 7.55578 10.7447 7.58325 10.7447 7.58325C10.3414 8.11109 10.0485 8.98684 10.5157 9.52742C10.9195 9.99233 11.905 10.0147 11.905 10.7069C11.905 11.0002 11.6305 11.3426 11.1378 11.6495C9.65426 12.5814 8.18274 13.8186 7.57026 15.4749C6.80621 17.5417 7.66845 18.9134 8.89936 19.7C8.89936 19.7 8.51231 20.0543 7.95255 20.0993C7.8384 20.1104 7.72869 20.1156 7.62255 20.1156C6.44312 20.1156 5.83221 19.5631 5.83221 19.5631C5.83221 19.5631 5.93397 20.3266 6.54445 21.0355C7.11502 21.6899 7.85835 22.0753 8.99431 22.0912C8.99431 22.0912 9.03021 22.617 8.52788 23.072C8.2055 23.3594 7.46255 23.4526 7.46255 23.4526C7.46255 23.4526 8.85469 23.734 9.00788 25.7836C9.09088 26.8943 9.37335 27.2804 9.37335 27.2804H9.35021ZM9.69336 27.0594C9.69259 27.0559 9.46712 26.7048 9.39493 25.7558C9.31031 24.6189 8.8794 23.9553 8.45407 23.5744C8.57697 23.5162 8.69107 23.445 8.78683 23.3578C9.41207 22.7974 9.38536 22.1382 9.38097 22.0661L9.35702 21.7106L8.99912 21.7051C8.04588 21.6899 7.37955 21.4053 6.83893 20.7807C6.71364 20.6343 6.61226 20.4877 6.52969 20.3448C6.82735 20.4356 7.19164 20.5029 7.62255 20.5029C7.73788 20.5029 7.85836 20.4961 7.98526 20.4878C8.65636 20.4305 9.11083 20.0316 9.1615 19.9874L9.53298 19.6471L9.10883 19.3752C8.16002 18.7697 7.19002 17.6221 7.93497 15.6095C8.41778 14.3014 9.53298 13.116 11.346 11.9799C11.9577 11.5942 12.2925 11.1404 12.2925 10.7069C12.2925 10.0361 11.7315 9.77223 11.3197 9.58315C11.1194 9.48761 10.9103 9.39288 10.8086 9.27544C10.4898 8.90722 10.7587 8.20145 11.0544 7.81892L11.4342 7.32291L10.8197 7.2019C10.8018 7.20031 10.6406 7.16966 10.3944 7.16966C9.93555 7.16966 9.05974 7.28072 8.34474 8.01992C7.74821 8.63495 7.67002 9.28936 7.70074 9.71251C7.64331 9.71688 7.58502 9.71926 7.52397 9.72287H7.45855C6.56121 9.72287 6.13745 8.77424 6.12069 8.73723L5.86855 8.14491L5.45997 8.64412C5.43721 8.67433 4.84031 9.41716 4.98554 10.3474C5.08169 10.966 5.47154 11.499 6.14026 11.9377C6.21288 11.9839 6.26316 12.0241 6.29983 12.0571C5.03783 12.4663 4.33397 13.3632 3.59102 14.3058L3.48369 14.4395C2.34813 15.8813 0.740553 15.9243 0.548233 15.9243L0 15.9072L0.167186 16.4275C0.186338 16.4904 0.671124 17.966 2.12589 17.966L2.19611 17.964C2.35013 17.9596 2.48818 17.9386 2.61068 17.9151C2.55082 18.72 2.25397 20.2067 0.91691 20.7609L0.508329 20.9288L0.729376 21.313C0.750924 21.348 1.24689 22.184 2.37048 22.184C2.86165 22.1823 3.2435 22.0597 3.52918 21.9121C3.57267 22.2759 3.66245 22.7436 3.83761 23.2663C4.24459 24.474 3.86594 25.3211 3.85157 25.3549L3.65048 25.7765L4.10454 25.8967C4.13445 25.9039 4.41335 25.9743 4.74373 25.9743C4.89816 25.9743 5.04059 25.9576 5.16988 25.9273C5.51383 25.8462 5.77997 25.6941 5.98226 25.5209C6.10516 25.8987 6.31659 26.3262 6.68331 26.7048C7.30735 27.3445 8.20388 27.6669 9.37616 27.6669L10.0864 27.6578L9.69336 27.0594Z" fill="#7E91B4"/>
<path fill-rule="evenodd" clip-rule="evenodd" d="M2.87422 12.0527C3.17387 11.745 3.48908 11.6531 3.7616 11.6531C4.17975 11.6531 4.49694 11.8748 4.49694 11.8748C3.36619 12.4759 3.13277 13.4404 2.48679 13.6573C2.37985 13.6952 2.26933 13.7115 2.15921 13.7115C1.684 13.7115 1.22394 13.405 1.06714 13.0547C1.06714 13.0547 1.93816 13.0017 2.87422 12.0527ZM2.15921 14.0968C2.31482 14.0968 2.46724 14.0737 2.61088 14.0248C3.01666 13.8906 3.27442 13.5694 3.54654 13.2346C3.82504 12.8923 4.13785 12.5057 4.68009 12.2175L5.23871 11.9194L4.72042 11.5556C4.6769 11.5285 4.28828 11.2662 3.7616 11.2662C3.32908 11.2662 2.92809 11.4425 2.59691 11.7793C1.79172 12.5997 1.06993 12.6662 1.0436 12.6666L0.4822 12.6996L0.712824 13.2139C0.944643 13.7266 1.55352 14.0968 2.15921 14.0968Z" fill="#7E91B4"/>
<path fill-rule="evenodd" clip-rule="evenodd" d="M4.69634 18.5886C4.63572 17.1312 5.01077 15.9502 5.5981 14.9761C5.27053 15.9904 5.31482 17.232 6.43001 18.3915C6.43001 18.3915 4.21315 15.7424 7.31263 13.0264C8.55153 11.9926 9.9081 11.3545 10.606 10.9019C8.08348 11.7235 6.85134 10.8195 6.85134 10.8195C7.65653 11.5161 8.69996 11.5046 9.3471 11.4039C9.17196 11.4891 8.98801 11.5783 8.79291 11.6837C6.66425 12.8365 4.75301 14.7337 4.42544 17.3609V17.341C3.93148 19.9209 2.83101 20.5829 2.83101 20.5829C3.70643 20.1518 4.25786 19.0085 4.39191 18.5969C4.53834 20.8643 5.6472 22.4371 6.94391 23.9521C7.61668 24.7375 7.85406 25.501 7.85406 25.501C7.85406 25.501 7.72239 24.6356 7.13825 23.9323C5.93006 22.4817 4.78053 20.6761 4.69634 18.5886Z" fill="#7E91B4"/>
<path fill-rule="evenodd" clip-rule="evenodd" d="M14.5864 13.2735V13.7946C14.7667 13.5761 15.1142 13.6206 15.1142 13.6206V14.3714C15.1142 14.3714 15.1023 14.7412 14.9706 14.9008H15.7235C15.5939 14.7412 15.5807 14.3714 15.5807 14.3714V13.6206C15.5807 13.6206 15.9294 13.5761 16.1082 13.7946V13.2735H14.5864Z" fill="#7E91B4"/>
<path fill-rule="evenodd" clip-rule="evenodd" d="M14.2628 10.1841C14.5038 10.3748 14.6427 10.4067 14.6474 10.4095L14.7416 10.4528V9.96243L13.8566 9.59144C13.8566 9.59144 13.8642 9.87563 14.2628 10.1841Z" fill="#7E91B4"/>
<path fill-rule="evenodd" clip-rule="evenodd" d="M16.3673 10.1841C16.7671 9.87563 16.7747 9.59144 16.7747 9.59144L15.8897 9.96243V10.4528L15.9831 10.4095C15.9879 10.4067 16.1267 10.3748 16.3673 10.1841Z" fill="#7E91B4"/>
<path fill-rule="evenodd" clip-rule="evenodd" d="M15.3147 8.87738L13.1828 8.03745C13.3643 7.60875 14.2002 7.24492 15.3147 7.24372C16.4307 7.24492 17.2666 7.60875 17.4469 8.03745L15.3147 8.87738ZM16.9043 11.5102L15.471 12.2633V9.21255L17.4158 8.55414L16.9043 11.5102ZM17.7917 12.3195L18.4472 12.6992H18.4564L18.6212 12.7952C18.2509 12.8971 17.9684 13.0822 17.731 13.3238C17.7222 13.3318 17.7147 13.3405 17.705 13.3497C17.6508 13.4074 17.5969 13.4699 17.545 13.534C17.5355 13.5463 17.5251 13.559 17.5143 13.573C17.4641 13.6379 17.4158 13.7051 17.3699 13.7744C17.3623 13.7864 17.3539 13.7983 17.3459 13.8098C17.2917 13.8906 17.2394 13.977 17.1879 14.0662C16.7211 14.8683 15.9766 15.3476 15.3147 15.3487C14.6531 15.3476 13.9086 14.8683 13.4425 14.0662C13.3918 13.9794 13.3404 13.8946 13.2869 13.8134C13.2761 13.7983 13.2662 13.7824 13.2566 13.7692C13.2111 13.7024 13.1644 13.6371 13.1181 13.5758C13.1062 13.559 13.095 13.5463 13.083 13.5316C13.0328 13.4699 12.9808 13.4082 12.9278 13.3517C12.9166 13.3425 12.9095 13.3318 12.8995 13.3226C12.6608 13.0798 12.3792 12.8971 12.0089 12.7952L12.1753 12.6992H12.1825L12.8388 12.3195L13.5123 11.935L15.3115 12.9118L15.3147 12.9078L15.3198 12.9118L17.1185 11.935L17.7917 12.3195ZM20.3768 15.0331C20.2299 15.4196 20.1087 15.8376 20.1087 16.2536L20.1098 18.9381C19.5473 18.8442 19.481 18.2399 19.479 18.2137L19.4687 18.0911L19.3474 18.0803C19.1032 18.0568 18.9412 17.9541 18.8043 17.8212C18.5286 17.5461 18.5282 17.1007 18.5286 17.0963C18.5246 17.1193 18.2254 17.5381 18.5729 17.9955C18.7193 18.1878 18.9312 18.3064 19.2053 18.353C19.2699 18.6881 19.5197 19.1614 20.1098 19.2335V20.5471H18.4508C17.6859 20.1228 18.0099 19.3752 18.0247 19.3433L18.0897 19.2016L17.9433 19.1463C17.1146 18.8398 17.3428 18.0154 17.3539 17.9796L17.387 17.8594L17.2745 17.806C16.5907 17.4896 16.6828 16.6381 16.692 16.6019C16.4817 16.7722 16.4059 17.1194 16.5508 17.4597C16.4726 17.5493 16.3672 17.6572 16.2519 17.7762C15.5433 17.5958 15.5213 16.9466 15.5213 16.9168L15.5197 16.8168L15.4264 16.781C15.1498 16.6787 14.9599 16.5254 14.8662 16.3196C14.7616 16.0919 14.7983 15.8527 14.827 15.7377C14.9085 15.7564 14.989 15.7687 15.066 15.7755C15.1458 15.7834 15.2277 15.7886 15.3098 15.7886H15.321C15.4028 15.7886 15.4838 15.7834 15.564 15.7755C16.0057 15.7317 16.4997 15.5426 17.0144 15.0331H20.3768ZM18.3039 26.7323L18.4891 25.7693C18.4987 25.7124 18.5107 25.646 18.5186 25.5906C18.5713 25.6129 18.6264 25.6304 18.6862 25.6416C18.7557 25.6547 18.8191 25.6615 18.8773 25.6615C19.1599 25.6615 19.325 25.513 19.4343 25.3864L19.5764 25.2212L19.4603 25.0401C19.4499 25.0222 19.1926 24.6166 18.9954 24.3391C18.9563 24.2845 18.9192 24.23 18.8817 24.1715C18.6567 23.8359 18.3758 23.4152 17.8112 23.4152L17.7605 23.4164C17.6676 23.4223 17.5881 23.4407 17.5231 23.4649C17.3459 23.3826 17.1628 23.3396 16.9729 23.3396C16.7391 23.3396 16.5432 23.404 16.4119 23.4482C16.3744 23.459 16.3409 23.4709 16.3145 23.4757L15.2596 23.3726C15.246 23.3698 15.2033 23.3443 15.1507 23.2826V23.277L15.3793 23.1859C15.3147 22.4276 14.5848 21.961 14.1779 21.803C14.1603 21.727 14.1236 21.6513 14.0598 21.5896L13.8328 21.3751L13.6337 21.6135L13.5355 21.7345L12.0584 21.1295L13.0192 22.3328L12.6401 22.9061C12.5017 23.053 12.6545 23.2006 12.6545 23.2006L13.0463 23.4701L13.4525 23.3189C13.4665 23.3189 13.4788 23.322 13.4928 23.3236C13.4728 23.3853 13.4473 23.6266 13.4306 23.6942L12.7255 23.5561L11.9849 23.9729C11.6043 24.2523 11.5524 24.7133 11.6937 25.0294L11.7759 25.2085L11.8928 25.4616L12.1518 25.355C12.1558 25.3538 12.1593 25.3522 12.1613 25.3506C12.0684 25.6475 12.1063 25.9298 12.2718 26.1145L12.4295 26.3119L12.6389 26.5758L12.8688 26.3294C12.9358 26.2626 13.1557 26.0173 13.2227 25.8076L13.2726 25.6475L13.1608 25.5241L13.1421 25.5019L13.2686 25.2944L14.1883 25.5106L14.3958 25.558L14.5055 25.3769L14.5657 25.2782C14.5769 25.257 14.5797 25.2538 14.622 25.2538C14.6547 25.2538 14.687 25.257 14.7225 25.265C15.0697 25.3303 15.3897 25.3629 15.6741 25.3629C15.9499 25.3629 16.1147 25.3522 16.3106 25.2873C16.3106 25.2873 16.8045 25.847 16.8217 25.8685L16.5192 26.8L16.5057 26.8561C15.9327 26.9027 15.6538 27.0277 15.3166 27.3636C14.827 26.8792 14.4803 26.8282 13.1644 26.8282C11.5891 26.8282 10.5218 25.9071 10.5218 24.435V20.8373H20.1098L20.1115 24.435C20.1115 25.628 19.4096 26.4608 18.3039 26.7323ZM12.3979 24.6978L12.4478 24.8224C12.4147 24.9314 12.0408 25.0847 12.0408 25.0847L11.9598 24.9083C11.874 24.72 11.8928 24.4028 12.1529 24.2089L12.7594 23.8399L13.403 23.9765C13.391 24.1799 13.5128 24.3323 13.5128 24.3323L12.8388 24.203L12.4358 24.4812C12.3672 24.5286 12.3624 24.6166 12.3979 24.6978ZM18.2022 25.7148L17.9955 26.7908C17.8631 26.8095 17.7238 26.8191 17.5802 26.8246L17.798 25.7904C17.8631 25.4835 17.0355 25.3872 16.6269 24.7829C16.4275 25.007 16.052 25.0739 15.6741 25.0739C15.3294 25.0739 14.9855 25.019 14.776 24.978C14.7229 24.9692 14.6722 24.9637 14.622 24.9637C14.5015 24.9637 14.3913 25.0011 14.3148 25.1281L14.2549 25.2296L13.1273 24.9645L12.8472 25.4278C12.8077 25.5034 12.8049 25.566 12.8688 25.6364L12.9446 25.7196C12.8923 25.8832 12.6577 26.1312 12.6577 26.1312L12.4901 25.9222C12.3576 25.7741 12.3792 25.5034 12.5176 25.2526L12.9645 24.4995L13.9197 24.6369L13.7713 24.2997C13.5718 23.8535 13.8758 23.2858 13.9086 22.959C13.8974 23.0577 13.8064 23.08 13.7007 23.08C13.6041 23.08 13.4968 23.0617 13.4254 23.0617C13.397 23.0617 13.3731 23.0645 13.3599 23.0744L13.1014 23.2305L12.8975 23.0505C12.8728 23.0163 12.8648 22.9351 12.925 22.8746L13.397 22.3456L12.8388 21.6955L13.6205 22.0868L13.8591 21.7982C13.9249 21.8623 13.8962 22.0303 13.8962 22.0303C14.1396 22.0359 14.8243 22.4133 14.8606 23.2942C14.8622 23.3212 14.8622 23.3515 14.8622 23.3806C14.8622 23.3806 14.8686 23.3913 14.8805 23.4092C14.9288 23.4757 15.0625 23.6457 15.2317 23.6616L16.3118 23.7683H16.3158C16.4342 23.7683 16.67 23.6294 16.9729 23.6294C17.1373 23.6294 17.3204 23.6711 17.5163 23.7941C17.5163 23.7941 17.6145 23.7165 17.7737 23.7086C17.7857 23.7069 17.7996 23.7069 17.8112 23.7069C18.2952 23.7069 18.4967 24.1441 18.7568 24.5063C18.9519 24.7829 19.2137 25.1929 19.2137 25.1929C19.1171 25.3072 19.0274 25.3709 18.8773 25.3709C18.8359 25.3709 18.7891 25.3673 18.7377 25.357C18.2182 25.2618 18.1432 24.1958 17.8467 24.1118C17.8311 24.1074 17.8148 24.1058 17.7996 24.1058C17.7043 24.1058 17.6624 24.1906 17.6624 24.1906C17.798 24.554 17.7186 24.7006 17.865 24.9808C17.9736 25.1882 18.1671 25.359 18.2469 25.4397C18.2469 25.4397 18.2254 25.597 18.2022 25.7148ZM17.2079 26.8318C17.0627 26.8318 16.9286 26.8338 16.8081 26.8385L17.1245 25.8553C17.174 25.7196 16.9242 25.5444 16.8209 25.3908C16.9769 25.4883 17.3803 25.7025 17.575 25.7877C17.5554 25.8199 17.2079 26.8318 17.2079 26.8318ZM12.5033 17.9728L12.5488 16.2639L12.933 15.8579L13.1744 16.3623L12.6984 18.0027L12.5033 17.9728ZM12.7798 18.5022C12.8428 18.634 12.9561 18.7212 13.0355 18.7714C13.0328 18.8951 13.0212 19.0858 12.9885 19.255C12.9808 19.2928 12.9709 19.3274 12.9605 19.3621C12.9549 19.384 12.9486 19.4019 12.9442 19.4166C12.8265 19.4166 12.5962 19.4019 12.4071 19.3334C12.1984 19.2566 11.8864 18.874 11.9586 18.4525C12.0484 18.3976 12.2583 18.2801 12.4546 18.2801C12.605 18.2801 12.7084 18.3506 12.7798 18.5022ZM17.2327 18.9616C16.937 19.1785 16.1753 19.7339 15.8988 19.9265L13.2398 19.4496C13.2458 19.4258 13.2522 19.4019 13.2582 19.3788C13.2929 19.2411 13.3284 19.0532 13.3304 18.8323L15.5656 18.8677L15.6083 18.8247C15.6422 18.7905 16.3505 18.1078 16.7116 17.7156C16.7973 17.8232 16.9043 17.9251 17.0455 18.0154C16.9972 18.2765 17.0176 18.6483 17.2327 18.9616ZM13.6161 15.0331C13.9361 15.35 14.2489 15.547 14.5462 15.6553C14.5078 15.8085 14.4572 16.1242 14.6 16.4387C14.7173 16.6926 14.9296 16.8881 15.2364 17.0182C15.2696 17.3319 15.469 17.8033 16.0185 18.0114C15.7775 18.2534 15.5433 18.4819 15.4483 18.5743L13.2179 18.5389C13.1676 18.5138 13.081 18.4569 13.0427 18.3765C13.0383 18.3653 13.0308 18.3593 13.0264 18.3482L13.3902 18.4067C13.3978 18.4075 13.4058 18.4075 13.4134 18.4075C13.484 18.4075 13.545 18.3593 13.5566 18.2873C13.5686 18.2069 13.5148 18.1329 13.4361 18.1205L12.9885 18.0501L13.4852 16.3384L13.0144 15.35L12.2607 16.1453L12.2144 17.9251L11.7077 17.8451C11.6295 17.8299 11.5544 17.8868 11.5405 17.9661C11.5285 18.0441 11.582 18.1185 11.6618 18.1324L11.874 18.1651C11.7982 18.2081 11.7479 18.2423 11.742 18.2471L11.6989 18.2773L11.6869 18.3299C11.564 18.8295 11.8425 19.3035 12.1438 19.5157L12.1334 19.579C12.1206 19.6558 12.1386 19.7303 12.1845 19.7932C12.2288 19.8573 12.2954 19.8959 12.3712 19.909C12.3868 19.9118 12.4035 19.913 12.4183 19.913C12.5488 19.913 12.6625 19.823 12.6944 19.6917C12.8065 19.7048 12.9095 19.7076 12.9797 19.7076H13.0391L15.9658 20.235L16.0153 20.202C16.2483 20.0396 17.1373 19.3935 17.4289 19.179C17.5091 19.2482 17.5985 19.3103 17.7067 19.3621C17.6125 19.6777 17.6065 20.1637 17.9796 20.5471H10.5218V16.2536C10.5218 15.8376 10.3997 15.4196 10.2553 15.0331H13.6161ZM13.2131 8.55414L15.159 9.21255V12.2633L13.7262 11.5102L13.2131 8.55414ZM17.9612 8.18596C17.9612 7.44196 16.7052 6.77202 15.319 6.77202H15.3115C13.9253 6.77202 12.6692 7.44196 12.6692 8.18596L12.6968 8.36905L13.2502 11.5393L12.6944 11.8609L11.256 12.6992H11.2612C11.2612 12.6992 10.9376 12.8648 10.7876 12.9667C10.2397 13.3465 10.1232 13.9002 10.4416 14.1291C10.5198 13.6777 10.8778 13.206 11.5477 13.206C12.03 13.206 12.3979 13.4544 12.6944 13.8266C12.771 13.9205 12.8436 14.0212 12.911 14.1291C12.994 14.2652 13.0778 14.3851 13.1608 14.5001H9.4557C9.7278 15.0462 9.98675 15.6246 9.98675 16.2536V24.435C9.98675 26.4158 11.5129 27.3608 13.1644 27.3608C14.4408 27.3608 14.6124 27.3027 15.3166 28.0025C16.0177 27.3027 16.1897 27.3608 17.4668 27.3608C19.1191 27.3608 20.6437 26.4158 20.6437 24.435V16.2536C20.6437 15.6246 20.9023 15.0462 21.176 14.5001H17.4692C17.5518 14.3851 17.6352 14.2652 17.7186 14.1291C17.7873 14.0212 17.8595 13.9205 17.9341 13.8266C18.2333 13.4528 18.6004 13.206 19.0832 13.206C19.7523 13.206 20.1099 13.6777 20.1892 14.1291C20.5073 13.9002 20.3923 13.3465 19.8413 12.9667C19.6937 12.8648 19.3697 12.6992 19.3697 12.6992H19.3749L17.3803 11.5393L17.9341 8.36905L17.9612 8.18596Z" fill="#7E91B4"/>
</svg>
