<svg width="66" height="20" viewBox="0 0 66 20" fill="none" xmlns="http://www.w3.org/2000/svg">
<path d="M23.066 12.7007V9.64441H24.8743V8.5322H19.941V9.64441H21.7493V12.7007H23.066ZM26.5307 12.7007L28.7252 10.2749V12.7007H29.998V8.5322H28.8745L26.68 10.958V8.5322H25.4071V12.7007H26.5307ZM32.2347 12.7007V11.1507H34.2799V12.7007H35.5528V8.5322H34.2799V10.056H32.2347V8.5322H30.9619V12.7007H32.2347ZM39.0974 12.7007C39.3871 12.7007 39.6503 12.6745 39.8962 12.6044C40.5546 12.4205 40.9847 11.8863 40.9847 11.1594C40.9847 10.4676 40.6159 9.98594 40.028 9.767C39.7469 9.66191 39.4133 9.65316 39.0974 9.65316H37.7895V8.5322H36.5166V12.7007H39.0974ZM38.9358 11.6936L37.7895 11.6937V10.634H38.8779C39.0534 10.634 39.2202 10.634 39.3695 10.6865C39.5801 10.7566 39.7029 10.9318 39.7029 11.1419C39.7029 11.3609 39.5801 11.5448 39.3782 11.6324C39.2506 11.6881 39.1228 11.6931 38.9358 11.6936ZM42.8921 12.7007V11.1244H43.2434L44.7619 12.7007H46.4559L44.3405 10.5289L46.377 8.5322H44.7794L43.2434 10.0998H42.8921V8.5322H41.6193V12.7007H42.8921ZM49.1501 12.8321C50.853 12.8321 51.8799 11.8688 51.8799 10.6252C51.8799 9.38168 50.853 8.41835 49.1501 8.41835C47.4383 8.41835 46.4114 9.38168 46.4114 10.6252C46.4114 11.8688 47.4383 12.8321 49.1501 12.8321ZM49.1501 11.8163C48.2986 11.8163 47.7544 11.3083 47.7544 10.6252C47.7544 9.94215 48.2986 9.44298 49.1501 9.44298C49.9926 9.44298 50.5458 9.94215 50.5458 10.6252C50.5458 11.3083 49.9926 11.8163 49.1501 11.8163ZM56.1443 12.8847V12.4643C57.7508 12.4293 58.7075 11.8075 58.7075 10.6165C58.7075 9.42547 57.7508 8.75113 56.1443 8.71612V8.29575H54.8714V8.71612C53.2741 8.75113 52.3171 9.42547 52.3171 10.6165C52.3171 11.8075 53.2741 12.4293 54.8714 12.4643V12.8847H56.1443ZM54.8714 11.571C53.9938 11.536 53.6075 11.177 53.6075 10.6165C53.6075 10.056 53.9938 9.65316 54.8714 9.61812V11.571ZM56.1443 11.571V9.61812C57.0308 9.65316 57.4085 10.056 57.4085 10.6165C57.4085 11.177 57.0308 11.536 56.1443 11.571ZM62.9719 12.8847V12.4643C64.5784 12.4293 65.5351 11.8075 65.5351 10.6165C65.5351 9.42547 64.5784 8.75113 62.9719 8.71612V8.29575H61.699V8.71612C60.1014 8.75113 59.1447 9.42547 59.1447 10.6165C59.1447 11.8075 60.1014 12.4293 61.699 12.4643V12.8847H62.9719ZM61.699 11.571C60.8214 11.536 60.4351 11.177 60.4351 10.6165C60.4351 10.056 60.8214 9.65316 61.699 9.61812V11.571ZM62.9719 11.571V9.61812C63.8584 9.65316 64.2361 10.056 64.2361 10.6165C64.2361 11.177 63.8584 11.536 62.9719 11.571Z" fill="#7E91B4"/>
<path fill-rule="evenodd" clip-rule="evenodd" d="M7.47566 12.319C7.44559 12.3162 7.42079 12.3394 7.41817 12.3687C7.41618 12.3992 7.43857 12.425 7.46908 12.4259C7.49849 12.4283 7.52416 12.4058 7.52702 12.376C7.52788 12.3471 7.50617 12.3201 7.47566 12.319Z" fill="#7E91B4"/>
<path fill-rule="evenodd" clip-rule="evenodd" d="M9.9199 16.4685L9.67916 15.8073C9.96555 15.7204 10.4584 15.5332 10.6792 15.4088L10.5319 15.8897L11.031 16.0554C10.7292 16.2064 10.3632 16.3474 9.9199 16.4685ZM8.42432 17.0627C7.84389 17.0627 7.18135 16.9296 6.98604 16.8602L7.28252 16.0595C7.52876 16.1313 8.0405 16.2073 8.41183 16.2049H8.4353C8.80662 16.2073 9.31794 16.1313 9.56526 16.0595L9.86129 16.8602C9.66599 16.9296 9.00347 17.0627 8.42432 17.0627ZM5.81614 16.0554L6.31607 15.8897L6.16814 15.4088C6.38848 15.5332 6.88202 15.7204 7.16796 15.8073L6.92701 16.4685C6.48526 16.3474 6.11767 16.2064 5.81614 16.0554ZM11.0533 15.9083L10.7496 15.7922L10.8335 15.4789L10.9259 15.1376C10.9259 15.1376 10.3878 15.429 9.62911 15.6477C9.41385 15.7093 9.251 15.7373 9.251 15.7373V15.9698C9.251 15.9698 8.84523 16.04 8.4353 16.04H8.41183C8.00145 16.04 7.59634 15.9698 7.59634 15.9698V15.7373C7.59634 15.7373 7.43306 15.7093 7.21822 15.6477C6.4598 15.429 5.92213 15.1376 5.92213 15.1376L6.01299 15.4789L6.09858 15.7922L5.79378 15.9083L5.45581 16.0344C5.84314 16.2209 6.37992 16.4924 6.87128 16.6266L6.75541 16.9427C6.75541 16.9427 7.37843 17.2256 8.41644 17.2285L8.4195 17.2289H8.43048C9.46979 17.226 10.0922 16.9427 10.0922 16.9427L9.97585 16.6266C10.4672 16.4924 11.0049 16.2209 11.3907 16.0344L11.0533 15.9083Z" fill="#7E91B4"/>
<path fill-rule="evenodd" clip-rule="evenodd" d="M7.15524 3.16699L7.29326 3.18144L7.35295 3.05577L7.52698 2.68446L7.84981 2.85129L7.97489 2.915L8.42301 2.47165L8.77237 2.81648L8.87244 2.915L8.99753 2.85129L9.31881 2.68446L9.49502 3.05577L9.5536 3.18144L9.69166 3.16699L9.82376 3.15101C9.76342 3.28697 9.71866 3.41615 9.68684 3.52277C9.33811 3.32901 8.88538 3.21866 8.42301 3.21866C7.96303 3.21866 7.51054 3.32901 7.16071 3.52277C7.12823 3.41615 7.08413 3.28697 7.02379 3.15101L7.15524 3.16699ZM8.42301 3.41242C9.04142 3.41242 9.53629 3.61669 9.80949 3.83453C9.80949 3.83453 9.8907 3.34696 10.1678 2.91675L9.66992 2.97323L9.40922 2.42108L8.90864 2.67855L8.42301 2.19995L7.93888 2.67855L7.43723 2.42108L7.17718 2.97323L6.67925 2.91675C6.95663 3.34696 7.03738 3.83453 7.03738 3.83453C7.31259 3.61669 7.80568 3.41242 8.42301 3.41242Z" fill="#7E91B4"/>
<path fill-rule="evenodd" clip-rule="evenodd" d="M16.2604 11.6147C16.2604 11.6147 16.0452 11.9885 15.5512 11.9885H15.5453C14.9521 11.985 14.7131 11.6241 14.7131 11.6241C14.7131 11.6241 14.7473 12.0935 14.5338 12.7271C14.2766 13.4908 14.536 14.0364 14.536 14.0364C14.536 14.0364 14.3975 14.0738 14.2382 14.0738C14.1772 14.0738 14.1136 14.0677 14.0534 14.0521C13.5581 13.9348 13.4346 13.4849 13.4346 13.4849C13.4346 13.4849 13.4802 15.0041 11.7046 15.0041H11.6908C11.6908 15.0041 11.8473 14.7919 11.8934 14.1809C11.9776 13.0536 12.7426 12.8988 12.7426 12.8988C12.7426 12.8988 12.3345 12.8476 12.1574 12.6895C11.8806 12.4393 11.9004 12.1502 11.9004 12.1502C12.5252 12.1415 12.9345 11.9293 13.2463 11.5694C13.584 11.1797 13.6395 10.7598 13.6395 10.7598C13.6395 10.7598 13.3036 11.0637 12.6542 11.0637C12.5969 11.0637 12.5359 11.0608 12.4734 11.0547C12.1659 11.03 11.9535 10.8349 11.9535 10.8349C12.6298 10.4023 13.1041 9.64781 12.6834 8.51109C12.3463 7.60008 11.5365 6.91986 10.7213 6.40732C10.45 6.23831 10.2986 6.05024 10.2986 5.88865C10.2986 5.50793 10.8416 5.49567 11.0639 5.24018C11.3206 4.94286 11.1595 4.46096 10.937 4.17066C10.937 4.17066 11.0121 4.15556 11.1301 4.15556C11.3649 4.15556 11.7709 4.21423 12.1047 4.5595C12.548 5.01686 12.3641 5.51537 12.3641 5.51537L12.4828 5.53858C12.5537 5.55347 12.6246 5.55608 12.6979 5.56003C12.7137 5.56003 12.7299 5.56092 12.7457 5.56092C13.3896 5.56092 13.6773 4.88922 13.6773 4.88922C13.6773 4.88922 14.362 5.72927 13.354 6.38761C13.1807 6.50015 13.1041 6.60459 13.1243 6.71579L13.1399 6.78893L13.2116 6.80163C13.942 6.99911 14.3117 7.50202 14.7631 8.07364C15.4489 8.94282 16.4185 8.97086 16.5381 8.97086H16.551C16.551 8.97086 16.3298 9.66793 15.6776 9.66793C15.6666 9.66793 15.6574 9.66796 15.6466 9.66728C15.3471 9.65657 15.1933 9.54228 15.1933 9.54228C15.1933 9.54228 15.0767 11.1243 16.2604 11.6147ZM15.6776 9.88141C16.4773 9.88141 16.745 9.06981 16.7558 9.03501L16.8453 8.74884L16.5455 8.75828H16.5444C16.4389 8.75828 15.5562 8.73484 14.9308 7.94185L14.8718 7.86806C14.4629 7.34984 14.0754 6.85637 13.3823 6.6315C13.4023 6.61334 13.4311 6.59124 13.4703 6.5656C13.8384 6.32456 14.0521 6.03119 14.1059 5.69117C14.1847 5.1793 13.857 4.77098 13.8428 4.75434L13.62 4.47959L13.4809 4.80537C13.4717 4.82593 13.2377 5.34744 12.7457 5.34744H12.7091C12.6753 5.34569 12.643 5.34439 12.6114 5.34175C12.6288 5.10925 12.5862 4.74909 12.2588 4.41106C11.8651 4.00449 11.3825 3.94341 11.1301 3.94341C10.9954 3.94341 10.9059 3.96005 10.8957 3.96114L10.5595 4.0277L10.7671 4.3005C10.9298 4.5109 11.0775 4.89886 10.9023 5.10136C10.8461 5.16595 10.7312 5.21829 10.6212 5.27083C10.395 5.37483 10.0853 5.51997 10.0853 5.88865C10.0853 6.12729 10.2712 6.3769 10.6076 6.58904C11.6033 7.21366 12.2175 7.86565 12.4828 8.5853C12.8934 9.69202 12.3577 10.3234 11.8376 10.6562L11.6044 10.806L11.8087 10.993C11.8361 11.0173 12.0856 11.2366 12.4547 11.2682C12.5247 11.2728 12.5914 11.2767 12.6542 11.2767C12.8906 11.2767 13.092 11.2395 13.2557 11.1896C13.211 11.2682 13.155 11.3487 13.0857 11.4293C12.7885 11.7728 12.4227 11.9293 11.8969 11.9377L11.7014 11.941L11.6864 12.1364C11.6847 12.1759 11.67 12.5387 12.0138 12.8469C12.0665 12.8946 12.1299 12.9338 12.1969 12.9658C11.9634 13.1755 11.7264 13.5405 11.6805 14.1656C11.6417 14.6877 11.517 14.8806 11.5155 14.8826L11.2996 15.2117L11.6899 15.2169C12.3349 15.2169 12.8287 15.0396 13.171 14.6877C13.3731 14.4795 13.4888 14.2444 13.557 14.0364C13.6694 14.1316 13.814 14.2155 14.0032 14.2599C14.0747 14.2768 14.1531 14.2858 14.2382 14.2858C14.4204 14.2858 14.5729 14.2472 14.5898 14.2431L14.8391 14.1772L14.7289 13.9453C14.7208 13.9265 14.5128 13.4606 14.7366 12.7963C14.8327 12.5089 14.8821 12.2518 14.906 12.0515C15.0631 12.1329 15.2731 12.2004 15.5448 12.2013C16.1617 12.2013 16.434 11.7413 16.4461 11.722L16.5675 11.5109L16.3423 11.4183C15.6069 11.1138 15.4443 10.2959 15.4116 9.8534C15.4781 9.8663 15.554 9.8779 15.6399 9.88031L15.6776 9.88141Z" fill="#7E91B4"/>
<path fill-rule="evenodd" clip-rule="evenodd" d="M14.779 6.40916C14.928 6.40916 15.1016 6.45972 15.2658 6.62896C15.7813 7.15091 16.2606 7.18002 16.2606 7.18002C16.1734 7.37246 15.9208 7.54128 15.6595 7.54128C15.5989 7.54128 15.5381 7.53229 15.478 7.51149C15.1236 7.39195 14.9965 6.86148 14.3739 6.53111C14.3739 6.53111 14.5475 6.40916 14.779 6.40916ZM14.2723 6.7196C14.5706 6.87833 14.7446 7.09071 14.8969 7.279C15.0465 7.46289 15.1885 7.63979 15.411 7.71337C15.4901 7.74051 15.5739 7.75321 15.6595 7.75321C15.9928 7.75321 16.3281 7.54938 16.4552 7.26737L16.5831 6.98473L16.2737 6.96634C16.2592 6.96613 15.8614 6.92957 15.4187 6.47856C15.2366 6.29333 15.0162 6.19634 14.779 6.19634C14.4891 6.19634 14.2743 6.34083 14.2506 6.35552L13.9662 6.55541L14.2723 6.7196Z" fill="#7E91B4"/>
<path fill-rule="evenodd" clip-rule="evenodd" d="M14.4125 9.53752V9.54847C14.2332 8.10369 13.1816 7.06026 12.011 6.42621C11.9031 6.36797 11.803 6.31916 11.706 6.27207C12.0622 6.32726 12.6361 6.33382 13.0789 5.95069C13.0789 5.95069 12.4012 6.4481 11.0132 5.99623C11.3972 6.24492 12.144 6.59589 12.8259 7.16446C14.5297 8.65826 13.3106 10.1153 13.3106 10.1153C13.9229 9.47774 13.9486 8.79468 13.7684 8.23703C14.0908 8.77234 14.2969 9.42214 14.2648 10.2239C14.2179 11.3718 13.5852 12.3649 12.9198 13.1627C12.5998 13.5497 12.5285 14.0255 12.5285 14.0255C12.5285 14.0255 12.6576 13.6058 13.0278 13.1736C13.741 12.3406 14.3511 11.4753 14.4307 10.2283C14.5045 10.4547 14.8086 11.0837 15.2903 11.3205C15.2903 11.3205 14.6846 10.9564 14.4125 9.53752Z" fill="#7E91B4"/>
<path fill-rule="evenodd" clip-rule="evenodd" d="M5.14262 15.0042C3.36682 15.0042 3.41226 13.485 3.41226 13.485C3.41226 13.485 3.28825 13.9347 2.79341 14.052C2.73414 14.0678 2.67094 14.0737 2.60905 14.0737C2.44974 14.0737 2.31171 14.0365 2.31171 14.0365C2.31171 14.0365 2.57 13.4909 2.31258 12.727C2.09993 12.0936 2.13439 11.624 2.13439 11.624C2.13439 11.624 1.89562 11.9848 1.30201 11.9883H1.29608C0.802317 11.9883 0.586814 11.6148 0.586814 11.6148C1.7701 11.1242 1.65423 9.54213 1.65423 9.54213C1.65423 9.54213 1.50039 9.65663 1.2004 9.66737C1.18943 9.66781 1.17955 9.66781 1.16924 9.66781C0.516589 9.66781 0.295382 8.97092 0.295382 8.97092H0.30877C0.429249 8.97092 1.39791 8.94268 2.08325 8.07349C2.53467 7.50187 2.90488 6.99941 3.63433 6.80148L3.70764 6.78878L3.72322 6.71588C3.74342 6.60465 3.66704 6.5 3.49366 6.3877C2.48596 5.72912 3.17019 4.88928 3.17019 4.88928C3.17019 4.88928 3.45658 5.56077 4.1022 5.56077C4.11778 5.56077 4.13271 5.56011 4.14939 5.56011C4.22181 5.55617 4.29334 5.55332 4.36424 5.53843L4.48296 5.51543C4.48296 5.51543 4.29863 5.01692 4.74279 4.55958C5.0768 4.21431 5.48257 4.15563 5.71692 4.15563C5.83588 4.15563 5.90961 4.17074 5.90961 4.17074C5.68775 4.46105 5.52667 4.94271 5.78366 5.24003C6.00572 5.49573 6.54776 5.50801 6.54776 5.88874C6.54776 6.05009 6.3968 6.23837 6.12578 6.40717C5.30984 6.91971 4.5005 7.60017 4.16364 8.51116C3.74342 9.64787 4.21765 10.4023 4.89465 10.8349C4.89465 10.8349 4.68177 11.0298 4.3739 11.0546C4.31112 11.0607 4.25078 11.0635 4.1924 11.0635C3.54371 11.0635 3.20772 10.7596 3.20772 10.7596C3.20772 10.7596 3.26369 11.1796 3.59945 11.5695C3.91326 11.9294 4.3221 12.1413 4.94687 12.1501C4.94687 12.1501 4.96662 12.4393 4.69033 12.6896C4.51302 12.8476 4.1044 12.8989 4.1044 12.8989C4.1044 12.8989 4.87008 13.0537 4.95433 14.1809C4.99998 14.7918 5.15535 15.0042 5.15535 15.0042H5.14262ZM5.33135 14.8826C5.33093 14.8807 5.20691 14.6876 5.16721 14.1656C5.12067 13.5403 4.88367 13.1754 4.64974 12.9659C4.71734 12.9339 4.78009 12.8947 4.83276 12.8467C5.17664 12.5385 5.16195 12.1759 5.15954 12.1363L5.14636 11.9408L4.94951 11.9377C4.42523 11.9294 4.05875 11.7729 3.76141 11.4294C3.6925 11.3488 3.63674 11.2682 3.59133 11.1896C3.75504 11.2395 3.9554 11.2766 4.1924 11.2766C4.25583 11.2766 4.3221 11.2728 4.39189 11.2682C4.761 11.2367 5.01096 11.0173 5.03882 10.993L5.24314 10.8058L5.00986 10.6563C4.48801 10.3233 3.95451 9.69211 4.36424 8.58515C4.62978 7.86574 5.24314 7.21374 6.24031 6.58889C6.57673 6.37675 6.76085 6.12717 6.76085 5.88874C6.76085 5.51982 6.45232 5.37468 6.22583 5.27068C6.11567 5.21814 6.00067 5.16604 5.94473 5.10145C5.76938 4.89892 5.91728 4.51075 6.0799 4.30036L6.28882 4.02755L5.95086 3.961C5.94098 3.96012 5.85233 3.94326 5.71692 3.94326C5.46455 3.94326 4.98285 4.00435 4.5896 4.41091C4.26152 4.74917 4.21851 5.1091 4.2354 5.34183C4.20382 5.34424 4.17176 5.34554 4.13819 5.34753H4.1022C3.60867 5.34753 3.3756 4.82578 3.36638 4.80543L3.2277 4.47965L3.00299 4.75422C2.99047 4.77083 2.66217 5.17939 2.74205 5.69102C2.79493 6.03127 3.00935 6.32442 3.37714 6.56569C3.41708 6.59109 3.44474 6.61319 3.46491 6.63138C2.77081 6.85643 2.38369 7.34969 1.97506 7.86815L1.91603 7.9417C1.29147 8.73469 0.407304 8.75834 0.301528 8.75834L0 8.74893L0.0919522 9.03507C0.102486 9.06966 0.369118 9.88126 1.16924 9.88126L1.20786 9.88016C1.29257 9.87776 1.3685 9.86616 1.43587 9.85325C1.40295 10.2959 1.23968 11.1137 0.5043 11.4184L0.279581 11.5108L0.401157 11.7221C0.413008 11.7414 0.685787 12.2011 1.30376 12.2011C1.57391 12.2002 1.78392 12.1328 1.94105 12.0516C1.96497 12.2517 2.01435 12.509 2.11069 12.7964C2.33453 13.4607 2.12627 13.9266 2.11837 13.9452L2.00776 14.177L2.2575 14.2431C2.27395 14.2471 2.42734 14.2858 2.60905 14.2858C2.69399 14.2858 2.77233 14.2766 2.84343 14.26C3.03261 14.2153 3.17899 14.1317 3.29024 14.0365C3.35784 14.2442 3.47413 14.4794 3.67582 14.6876C4.01905 15.0394 4.51213 15.2168 5.15689 15.2168L5.54752 15.2117L5.33135 14.8826Z" fill="#7E91B4"/>
<path fill-rule="evenodd" clip-rule="evenodd" d="M1.58082 6.62896C1.74563 6.45972 1.919 6.40916 2.06888 6.40916C2.29886 6.40916 2.47332 6.53111 2.47332 6.53111C1.85141 6.86169 1.72302 7.39216 1.36773 7.51149C1.30892 7.53229 1.24813 7.54128 1.18756 7.54128C0.926198 7.54128 0.673169 7.37269 0.586926 7.18002C0.586926 7.18002 1.06599 7.15091 1.58082 6.62896ZM1.18756 7.75321C1.27315 7.75321 1.35698 7.74051 1.43598 7.71357C1.65916 7.63979 1.80093 7.4631 1.9506 7.279C2.10377 7.09071 2.27582 6.8781 2.57405 6.7196L2.88129 6.55561L2.59623 6.35552C2.57229 6.34062 2.35855 6.19634 2.06888 6.19634C1.831 6.19634 1.61045 6.29333 1.4283 6.47856C0.985448 6.92978 0.588461 6.96634 0.573978 6.96657L0.26521 6.98473L0.392053 7.2676C0.519554 7.54959 0.854436 7.75321 1.18756 7.75321Z" fill="#7E91B4"/>
<path fill-rule="evenodd" clip-rule="evenodd" d="M2.58299 10.2237C2.54965 9.42214 2.75592 8.77257 3.07896 8.23682C2.89879 8.79467 2.92315 9.47753 3.5365 10.1153C3.5365 10.1153 2.31723 8.65828 4.02194 7.16448C4.70334 6.59589 5.44946 6.24495 5.83328 5.99602C4.44592 6.44789 3.76824 5.95069 3.76824 5.95069C4.21109 6.33382 4.78498 6.32747 5.14091 6.2721C5.04458 6.31895 4.94341 6.36799 4.8361 6.426C3.66534 7.06005 2.61415 8.10348 2.43399 9.54847V9.53752C2.16232 10.9565 1.55706 11.3205 1.55706 11.3205C2.03853 11.0834 2.34183 10.4547 2.41555 10.2283C2.49609 11.4753 3.10596 12.3404 3.81915 13.1736C4.18917 13.6056 4.31973 14.0255 4.31973 14.0255C4.31973 14.0255 4.24731 13.5495 3.92604 13.1627C3.26153 12.3649 2.62929 11.3718 2.58299 10.2237Z" fill="#7E91B4"/>
<path fill-rule="evenodd" clip-rule="evenodd" d="M8.02251 7.30039V7.58698C8.1217 7.46678 8.31283 7.49129 8.31283 7.49129V7.90421C8.31283 7.90421 8.30626 8.10762 8.23384 8.19542H8.64794C8.57663 8.10762 8.56937 7.90421 8.56937 7.90421V7.49129C8.56937 7.49129 8.76119 7.46678 8.85948 7.58698V7.30039H8.02251Z" fill="#7E91B4"/>
<path fill-rule="evenodd" clip-rule="evenodd" d="M7.84455 5.60123C7.9771 5.70611 8.05347 5.72362 8.05609 5.72516L8.1079 5.74902V5.47929L7.62115 5.27525C7.62115 5.27525 7.62531 5.43155 7.84455 5.60123Z" fill="#7E91B4"/>
<path fill-rule="evenodd" clip-rule="evenodd" d="M9.00203 5.60123C9.22192 5.43155 9.22609 5.27525 9.22609 5.27525L8.73934 5.47929V5.74902L8.7907 5.72516C8.79334 5.72362 8.86969 5.70611 9.00203 5.60123Z" fill="#7E91B4"/>
<path fill-rule="evenodd" clip-rule="evenodd" d="M8.42306 4.88251L7.25051 4.42055C7.35038 4.18476 7.81013 3.98466 8.42306 3.984C9.03686 3.98466 9.49661 4.18476 9.59579 4.42055L8.42306 4.88251ZM9.29735 6.33056L8.50907 6.74478V5.06685L9.57869 4.70473L9.29735 6.33056ZM9.78541 6.77567L10.146 6.98451H10.151L10.2417 7.0373C10.038 7.09334 9.88263 7.19514 9.75205 7.32803C9.74723 7.33242 9.74306 7.33723 9.73777 7.34227C9.70794 7.37402 9.67832 7.40838 9.64977 7.44363C9.64451 7.45042 9.63882 7.45742 9.63288 7.46508C9.60525 7.50077 9.57869 7.53777 9.55344 7.57587C9.54928 7.58245 9.54467 7.58901 9.54027 7.59536C9.51044 7.6398 9.48168 7.68731 9.45337 7.73635C9.19663 8.17751 8.78711 8.4411 8.42306 8.44176C8.0592 8.4411 7.64971 8.17751 7.39338 7.73635C7.36552 7.68864 7.3372 7.642 7.30779 7.59732C7.30187 7.58901 7.2964 7.58026 7.29111 7.57302C7.2661 7.53626 7.24043 7.50035 7.21497 7.46662C7.2084 7.45742 7.20225 7.45042 7.19567 7.44232C7.16801 7.40838 7.13947 7.37446 7.11029 7.34337C7.10414 7.33833 7.10021 7.33242 7.09471 7.32738C6.96347 7.19383 6.80855 7.09334 6.60489 7.0373L6.6964 6.98451H6.70036L7.06137 6.77567L7.43178 6.56418L8.42131 7.10144L8.42306 7.09925L8.42592 7.10144L9.41518 6.56418L9.78541 6.77567ZM11.2072 8.26816C11.1265 8.48074 11.0598 8.71063 11.0598 8.93941L11.0604 10.4159C10.751 10.3643 10.7146 10.0319 10.7135 10.0175L10.7078 9.95003L10.6411 9.94413C10.5068 9.93119 10.4177 9.8747 10.3424 9.80159C10.1907 9.6503 10.1905 9.40532 10.1907 9.40291C10.1885 9.41559 10.024 9.64591 10.2151 9.89748C10.2956 10.0032 10.4122 10.0685 10.5629 10.0941C10.5985 10.2784 10.7358 10.5387 11.0604 10.5784V11.3009H10.1479C9.72724 11.0675 9.90544 10.6563 9.91356 10.6388L9.94934 10.5608L9.8688 10.5304C9.41301 10.3619 9.53852 9.90843 9.54467 9.88873L9.56287 9.8226L9.50098 9.79326C9.12486 9.61921 9.17554 9.1509 9.1806 9.13099C9.06494 9.22469 9.02324 9.41561 9.10291 9.6028C9.05991 9.65205 9.00198 9.71139 8.93854 9.77685C8.5488 9.67766 8.53673 9.32058 8.53673 9.30417L8.53584 9.2492L8.4845 9.2295C8.33242 9.17324 8.22797 9.08895 8.1764 8.97576C8.11889 8.85052 8.13908 8.71894 8.15487 8.65568C8.19966 8.66597 8.24397 8.67274 8.28632 8.67647C8.33022 8.68084 8.37521 8.68369 8.42042 8.68369H8.42657C8.47154 8.68369 8.51609 8.68084 8.5602 8.67647C8.80314 8.65238 9.07481 8.54839 9.35791 8.26816H11.2072ZM10.0672 14.7027L10.169 14.1731C10.1743 14.1418 10.1809 14.1052 10.1852 14.0748C10.2142 14.087 10.2445 14.0967 10.2774 14.1028C10.3156 14.11 10.3505 14.1138 10.3825 14.1138C10.5379 14.1138 10.6287 14.0321 10.6889 13.9625L10.767 13.8716L10.7032 13.772C10.6974 13.7622 10.5559 13.5391 10.4475 13.3864C10.426 13.3564 10.4056 13.3265 10.3849 13.2943C10.2612 13.1097 10.1067 12.8783 9.79615 12.8783L9.76828 12.879C9.71716 12.8822 9.67348 12.8923 9.63772 12.9057C9.54027 12.8604 9.43954 12.8367 9.33509 12.8367C9.2065 12.8367 9.09875 12.8722 9.02654 12.8965C9.00591 12.9024 8.98749 12.909 8.97298 12.9116L8.39276 12.8549C8.38529 12.8533 8.36183 12.8393 8.33286 12.8054V12.8023L8.4586 12.7522C8.42306 12.3351 8.02167 12.0785 7.79784 11.9916C7.78818 11.9498 7.76799 11.9082 7.73286 11.8743L7.60801 11.7563L7.49851 11.8874L7.44451 11.9539L6.6321 11.6212L7.16055 12.283L6.95207 12.5983C6.87591 12.6791 6.95996 12.7603 6.95996 12.7603L7.17548 12.9085L7.39888 12.8253C7.40656 12.8253 7.41337 12.8271 7.42104 12.8279C7.41007 12.8619 7.39603 12.9946 7.38681 13.0318L6.99903 12.9558L6.59172 13.185C6.38238 13.3387 6.35383 13.5923 6.43154 13.7661L6.47674 13.8646L6.54104 14.0038L6.68346 13.9452C6.68566 13.9445 6.68763 13.9436 6.68873 13.9428C6.6376 14.1061 6.65845 14.2613 6.74952 14.3629L6.83621 14.4715L6.95142 14.6167L7.07781 14.4811C7.11469 14.4444 7.23561 14.3095 7.27246 14.1941L7.29991 14.1061L7.23844 14.0382L7.22815 14.026L7.29771 13.9119L7.80355 14.0308L7.91766 14.0568L7.97801 13.9572L8.01114 13.9029C8.01729 13.8913 8.01881 13.8896 8.0421 13.8896C8.06009 13.8896 8.07785 13.8913 8.09738 13.8957C8.28831 13.9316 8.46431 13.9496 8.62077 13.9496C8.77242 13.9496 8.86306 13.9436 8.97081 13.908C8.97081 13.908 9.24248 14.2158 9.25191 14.2276L9.08558 14.7399L9.07811 14.7708C8.76299 14.7964 8.60959 14.8652 8.42414 15.0499C8.15487 14.7835 7.96418 14.7555 7.24043 14.7555C6.37402 14.7555 5.78699 14.2488 5.78699 13.4392V11.4605H11.0604L11.0613 13.4392C11.0613 14.0954 10.6753 14.5534 10.0672 14.7027ZM6.81887 13.5837L6.84629 13.6523C6.82809 13.7122 6.62244 13.7965 6.62244 13.7965L6.57792 13.6995C6.53072 13.596 6.54104 13.4215 6.68412 13.3148L7.01768 13.1119L7.37167 13.187C7.36507 13.2989 7.43201 13.3827 7.43201 13.3827L7.06137 13.3116L6.83972 13.4646C6.80198 13.4907 6.79933 13.5391 6.81887 13.5837ZM10.0112 14.1431L9.89754 14.7349C9.8247 14.7452 9.74809 14.7504 9.6691 14.7535L9.78892 14.1847C9.8247 14.0159 9.36953 13.9629 9.14482 13.6306C9.03511 13.7538 8.8286 13.7906 8.62077 13.7906C8.43118 13.7906 8.24201 13.7604 8.1268 13.7379C8.09759 13.733 8.06973 13.73 8.0421 13.73C7.97581 13.73 7.91523 13.7506 7.87311 13.8204L7.84019 13.8762L7.22003 13.7304L7.06598 13.9852C7.04424 14.0268 7.04269 14.0612 7.07781 14.1L7.11951 14.1457C7.09075 14.2357 6.96171 14.3721 6.96171 14.3721L6.86955 14.2572C6.79669 14.1757 6.80855 14.0268 6.88469 13.8889L7.13048 13.4747L7.65584 13.5502L7.5742 13.3648C7.46449 13.1194 7.63172 12.8071 7.64971 12.6274C7.64355 12.6817 7.59353 12.6939 7.53536 12.6939C7.48227 12.6939 7.42324 12.6839 7.38396 12.6839C7.36837 12.6839 7.3552 12.6854 7.34797 12.6909L7.20575 12.7767L7.09361 12.6777C7.08001 12.6589 7.07561 12.6143 7.10875 12.581L7.36837 12.29L7.06137 11.9325L7.49126 12.1477L7.6225 11.989C7.65869 12.0242 7.6429 12.1166 7.6429 12.1166C7.77676 12.1197 8.15335 12.3273 8.17331 12.8117C8.1742 12.8266 8.1742 12.8433 8.1742 12.8593C8.1742 12.8593 8.17771 12.8652 8.18428 12.875C8.21084 12.9116 8.28436 13.0051 8.37741 13.0138L8.97147 13.0725H8.97367C9.03883 13.0725 9.16852 12.9961 9.33509 12.9961C9.4255 12.9961 9.52623 13.0191 9.63398 13.0867C9.63398 13.0867 9.68796 13.044 9.77554 13.0397C9.78211 13.0388 9.78979 13.0388 9.79615 13.0388C10.0624 13.0388 10.1732 13.2792 10.3163 13.4784C10.4236 13.6306 10.5675 13.8561 10.5675 13.8561C10.5144 13.9189 10.4651 13.9539 10.3825 13.9539C10.3597 13.9539 10.334 13.952 10.3057 13.9463C10.02 13.8939 9.97875 13.3076 9.81569 13.2614C9.80713 13.259 9.79814 13.2582 9.78979 13.2582C9.73735 13.2582 9.71431 13.3048 9.71431 13.3048C9.78892 13.5047 9.74524 13.5853 9.82577 13.7394C9.88549 13.8534 9.9919 13.9474 10.0358 13.9918C10.0358 13.9918 10.024 14.0783 10.0112 14.1431ZM9.46434 14.7574C9.38446 14.7574 9.31074 14.7585 9.24445 14.7611L9.41848 14.2204C9.4457 14.1457 9.30833 14.0494 9.25147 13.9649C9.33729 14.0185 9.55915 14.1363 9.66625 14.1832C9.65548 14.2009 9.46434 14.7574 9.46434 14.7574ZM6.8768 9.885L6.90181 8.94511L7.11314 8.72178L7.2459 8.99919L6.9841 9.90143L6.8768 9.885ZM7.02886 10.1762C7.06354 10.2487 7.12587 10.2966 7.16953 10.3242C7.16801 10.3923 7.16165 10.4971 7.14366 10.5902C7.13947 10.611 7.13399 10.63 7.12828 10.6491C7.12522 10.6611 7.12171 10.671 7.1193 10.6791C7.05456 10.6791 6.92793 10.671 6.8239 10.6333C6.70913 10.5911 6.53753 10.3807 6.57724 10.1488C6.62663 10.1186 6.74205 10.054 6.85004 10.054C6.93274 10.054 6.9896 10.0928 7.02886 10.1762ZM9.47796 10.4288C9.31535 10.5482 8.8964 10.8536 8.74434 10.9596L7.28192 10.6972C7.28519 10.6841 7.2887 10.671 7.292 10.6583C7.31109 10.5825 7.33063 10.4792 7.33173 10.3577L8.56109 10.3772L8.58458 10.3535C8.60323 10.3347 8.99276 9.95923 9.19136 9.74356C9.23853 9.80269 9.29735 9.85874 9.37503 9.90843C9.34848 10.052 9.35966 10.2565 9.47796 10.4288ZM7.48885 8.26816C7.66485 8.44244 7.83689 8.55079 8.0004 8.61034C7.97932 8.69463 7.95145 8.86826 8.03002 9.04121C8.09453 9.1809 8.21129 9.28839 8.38003 9.35998C8.39826 9.53251 8.50797 9.79174 8.81016 9.90624C8.67761 10.0393 8.5488 10.165 8.49658 10.2158L7.26984 10.1963C7.24219 10.1825 7.19457 10.1512 7.17349 10.107C7.17108 10.1009 7.16691 10.0976 7.1645 10.0915L7.36463 10.1236C7.36882 10.1241 7.37319 10.1241 7.37735 10.1241C7.4162 10.1241 7.44977 10.0976 7.45614 10.058C7.46274 10.0137 7.43311 9.97302 7.38987 9.96623L7.14366 9.92748L7.41688 8.98605L7.1579 8.44244L6.74336 8.87986L6.7179 9.85874L6.43921 9.81473C6.39621 9.8064 6.35493 9.8377 6.34726 9.88128C6.34068 9.92419 6.37009 9.96513 6.41396 9.97279L6.53072 9.99074C6.48903 10.0144 6.46137 10.0332 6.4581 10.0358L6.43439 10.0525L6.42779 10.0814C6.36019 10.3562 6.51338 10.6169 6.67906 10.7336L6.67335 10.7684C6.66634 10.8107 6.67621 10.8516 6.70146 10.8862C6.72581 10.9215 6.76245 10.9427 6.80415 10.9499C6.81271 10.9515 6.82193 10.9521 6.83005 10.9521C6.90181 10.9521 6.96436 10.9026 6.9819 10.8304C7.04358 10.8376 7.10021 10.8391 7.13881 10.8391H7.17152L8.78119 11.1292L8.8084 11.111C8.93658 11.0217 9.4255 10.6664 9.58592 10.5484C9.63002 10.5865 9.67918 10.6206 9.73866 10.6491C9.68688 10.8227 9.68358 11.09 9.88876 11.3009H5.78699V8.93941C5.78699 8.71063 5.71984 8.48074 5.6404 8.26816H7.48885ZM7.2672 4.70473L8.33747 5.06685V6.74478L7.54943 6.33056L7.2672 4.70473ZM9.87868 4.50223C9.87868 4.09303 9.18785 3.72456 8.42547 3.72456H8.42131C7.65893 3.72456 6.96808 4.09303 6.96808 4.50223L6.98324 4.60293L7.2876 6.34655L6.9819 6.52344L6.19079 6.98451H6.19365C6.19365 6.98451 6.01566 7.0756 5.93316 7.13165C5.63184 7.34052 5.56778 7.64506 5.74289 7.77095C5.78592 7.52267 5.98276 7.26323 6.35121 7.26323C6.61652 7.26323 6.81887 7.39986 6.9819 7.60456C7.02405 7.65621 7.06399 7.71161 7.10107 7.77095C7.14672 7.84583 7.19282 7.91173 7.23844 7.97499H5.20064C5.35029 8.27537 5.49271 8.59349 5.49271 8.93941V13.4392C5.49271 14.5286 6.33212 15.0484 7.24043 15.0484C7.94244 15.0484 8.03681 15.0164 8.42414 15.4013C8.80971 15.0164 8.90431 15.0484 9.60677 15.0484C10.5155 15.0484 11.354 14.5286 11.354 13.4392V8.93941C11.354 8.59349 11.4963 8.27537 11.6468 7.97499H9.60808C9.65352 7.91173 9.69938 7.84583 9.74524 7.77095C9.783 7.71161 9.82271 7.65621 9.86375 7.60456C10.0283 7.39897 10.2302 7.26323 10.4958 7.26323C10.8638 7.26323 11.0604 7.52267 11.1041 7.77095C11.279 7.64506 11.2158 7.34052 10.9127 7.13165C10.8315 7.0756 10.6533 6.98451 10.6533 6.98451H10.6562L9.55915 6.34655L9.86375 4.60293L9.87868 4.50223Z" fill="#7E91B4"/>
</svg>
