<svg width="66" height="20" viewBox="0 0 66 20" fill="none" xmlns="http://www.w3.org/2000/svg">
<path d="M0 7.40657H3.60466C5.22581 10.1639 7.56393 12.4521 10.3814 14.0386V17.5663C7.97288 16.7616 5.7848 15.4274 3.98518 13.6663C2.18556 11.9051 0.82228 9.76369 0 7.40657Z" fill="#7E91B4"/>
<path d="M10.3814 7.40657L10.3814 14.0386C7.56393 12.4521 5.22581 10.1639 3.60466 7.40657H10.3814Z" fill="#7E91B4"/>
<path d="M10.3814 7.40657H3.60466C2.74987 5.94983 2.10983 4.38212 1.70354 2.75H5.62327C6.88521 2.75 8.09547 3.2406 8.98779 4.11387C9.88012 4.98715 10.3814 6.17158 10.3814 7.40657Z" fill="#7E91B4"/>
<path d="M15.1396 12.0631V15.8992C13.4716 15.5022 11.8696 14.8758 10.3814 14.0386L10.3814 7.40657C11.6434 7.40657 12.8536 7.89717 13.7459 8.77045C14.6383 9.64372 15.1396 10.8281 15.1396 12.0631Z" fill="#7E91B4"/>
<path d="M10.344 2.75C10.6013 3.90187 11.191 4.95731 12.0429 5.79104C12.8948 6.62477 13.9733 7.20178 15.1503 7.4536V2.75H10.344Z" fill="#7E91B4"/>
<path d="M29.0509 12.7896H28.4528C27.9775 12.7896 27.7906 12.8993 27.7906 13.2704C27.7853 13.3392 27.7957 13.4083 27.821 13.4727C27.8464 13.5371 27.8861 13.5952 27.9372 13.6427C27.9883 13.6902 28.0496 13.726 28.1166 13.7475C28.1836 13.769 28.2547 13.7756 28.3246 13.7669C28.471 13.7619 28.6149 13.7284 28.7479 13.6682C28.8808 13.6081 29.0002 13.5226 29.099 13.4167L29.0509 12.7896ZM29.4087 14.2999L29.2218 13.9498C28.8921 14.2295 28.4725 14.3867 28.0362 14.394C27.8889 14.402 27.7414 14.38 27.6031 14.3294C27.4648 14.2788 27.3388 14.2007 27.2329 14.1001C27.127 13.9994 27.0436 13.8783 26.9879 13.7445C26.9323 13.6107 26.9055 13.4671 26.9095 13.3226C26.9095 12.4394 27.4915 12.2356 28.3567 12.2356H29.0509V12.0161C29.0509 11.5928 28.9387 11.3733 28.4101 11.3733C28.0715 11.3969 27.7376 11.4636 27.4168 11.5719L27.1872 11.0492C27.6247 10.8707 28.0912 10.7698 28.5649 10.7513C29.5636 10.7513 29.9214 11.1956 29.9214 11.9481V14.2999H29.4087ZM32.1376 5.93799H31.5341C31.0642 5.93799 30.8773 6.05297 30.8773 6.41881C30.8676 6.48967 30.8747 6.56176 30.8982 6.62948C30.9216 6.69721 30.9606 6.75873 31.0123 6.80929C31.0639 6.85984 31.1268 6.89806 31.196 6.92098C31.2652 6.94389 31.3389 6.95089 31.4113 6.94143C31.5571 6.93755 31.7006 6.90448 31.8328 6.84425C31.9651 6.78403 32.0833 6.69793 32.1803 6.59127L32.1376 5.93799ZM32.4953 7.4536L32.3031 7.10344C31.9759 7.38711 31.5547 7.54496 31.1176 7.54767C30.9724 7.55549 30.8272 7.53425 30.6908 7.48523C30.5543 7.43622 30.4296 7.36047 30.3241 7.26261C30.2186 7.16476 30.1346 7.04687 30.0773 6.91616C30.02 6.78545 29.9906 6.64466 29.9908 6.50242C29.9908 5.61397 30.5729 5.41537 31.438 5.41537H32.1376V5.18019C32.1376 4.75687 32.0254 4.53737 31.4967 4.53737C31.1563 4.56303 30.8206 4.63154 30.4981 4.74119L30.2738 4.18721C30.7106 4.01284 31.1749 3.91382 31.6462 3.89454C32.6449 3.89454 33.0027 4.33354 33.0027 5.09135V7.4536H32.4953ZM46.914 5.94322H46.3105C45.8406 5.94322 45.6484 6.0582 45.6484 6.42403C45.6387 6.4949 45.6458 6.56699 45.6693 6.63471C45.6927 6.70243 45.7317 6.76396 45.7834 6.81451C45.835 6.86507 45.8979 6.90329 45.9671 6.9262C46.0363 6.94912 46.11 6.95612 46.1824 6.94665C46.3282 6.94277 46.4717 6.9097 46.6039 6.84948C46.7362 6.78926 46.8544 6.70316 46.9514 6.5965L46.914 5.94322ZM47.2718 7.4536L47.0795 7.10344C46.7511 7.38508 46.3307 7.54263 45.894 7.54767C45.7489 7.55549 45.6037 7.53425 45.4672 7.48523C45.3308 7.43622 45.206 7.36047 45.1005 7.26261C44.995 7.16476 44.9111 7.04687 44.8537 6.91616C44.7964 6.78545 44.767 6.64466 44.7672 6.50242C44.7672 5.61397 45.3493 5.41537 46.2144 5.41537H46.914V5.18019C46.914 4.75687 46.7965 4.53737 46.2732 4.53737C45.9327 4.56303 45.5971 4.63154 45.2745 4.74119L45.0502 4.18721C45.4869 4.01233 45.9513 3.91329 46.4227 3.89454C47.4213 3.89454 47.7791 4.33354 47.7791 5.09135V7.4536H47.2718ZM58.2086 4.64712V7.4536H57.3221V4.64712H56.3822V3.98339H59.1485V4.64712H58.2086ZM61.4127 5.95367H60.8093C60.3394 5.95367 60.1524 6.06865 60.1524 6.43448C60.1428 6.50535 60.1499 6.57744 60.1733 6.64516C60.1968 6.71288 60.2358 6.77441 60.2875 6.82497C60.3391 6.87552 60.402 6.91374 60.4712 6.93666C60.5404 6.95957 60.6141 6.96657 60.6865 6.95711C60.8327 6.95155 60.9765 6.91776 61.1093 6.85767C61.2422 6.79758 61.3617 6.71237 61.4608 6.60695L61.4127 5.95367ZM61.7812 7.4536L61.5943 7.10344C61.2659 7.38508 60.8454 7.54263 60.4088 7.54767C60.2632 7.55623 60.1174 7.53553 59.9803 7.48685C59.8433 7.43817 59.7178 7.36254 59.6118 7.26461C59.5057 7.16668 59.4213 7.04854 59.3636 6.91746C59.306 6.78637 59.2764 6.64513 59.2766 6.50242C59.2766 5.61397 59.8641 5.41537 60.7292 5.41537H61.4127V5.18019C61.4127 4.75687 61.3006 4.53737 60.7719 4.53737C60.4332 4.56307 60.0993 4.63158 59.7786 4.74119L59.549 4.18721C59.9876 4.01286 60.4537 3.91385 60.9268 3.89454C61.9201 3.89454 62.2779 4.33354 62.2779 5.09135V7.4536H61.7812ZM40.4576 7.22887C40.0891 7.43134 39.6734 7.53753 39.2508 7.53722C38.2147 7.53722 37.7662 6.9153 37.7662 5.77075C37.7662 4.51646 38.3856 3.91022 39.3682 3.91022C39.7242 3.90199 40.0754 3.99065 40.3829 4.16631L40.1212 4.75687C39.9179 4.67472 39.7003 4.63212 39.4804 4.63144C38.9464 4.63144 38.69 4.9816 38.69 5.71327C38.69 6.52856 38.9143 6.82122 39.4804 6.82122C39.7347 6.81157 39.9841 6.74923 40.212 6.63831L40.4576 7.22887ZM36.9224 14.3208L35.7155 12.6798V14.3052H34.829V10.835H35.7155V12.3453L36.7836 10.835H37.7608L36.5966 12.4028L37.9531 14.3208H36.9224ZM32.9867 14.3208V12.8471H31.705V14.3208H30.8239V10.835H31.705V12.1572H32.9867V10.835H33.8891V14.3208H32.9867ZM65.1135 7.4536V4.70461H64.3392C64.3392 6.56514 63.9066 7.20796 63.0415 7.5947L62.7211 6.9153C63.3459 6.52856 63.6076 6.30383 63.6076 3.98339H66V7.4536H65.1135ZM55.0045 7.4536V5.31085L53.4024 7.4536H52.7616V3.98339H53.6427V6.14182L55.2448 3.98339H55.9016V7.4536H55.0045ZM50.9405 7.4536V4.70461H49.5093V7.4536H48.6442V3.98339H51.8003V7.4536H50.9405ZM43.5977 7.4536L41.9636 5.28994V7.4536H41.0397V2.75H41.9636V4.77777L43.4695 2.75H44.5376L42.8074 4.92411L44.7298 7.4536H43.5977ZM36.2015 7.4536V6.01116H34.8077V7.4536H33.9265V3.98339H34.8077V5.28994H36.2015V3.98339H37.088V7.4536H36.2015ZM27.8814 4.63144C27.721 4.6274 27.5623 4.6643 27.4209 4.73853C27.2795 4.81276 27.1603 4.92175 27.075 5.05476V6.62263C27.2881 6.73717 27.5262 6.79991 27.7692 6.80554C28.3033 6.80554 28.5596 6.52856 28.5596 5.69759C28.5596 5.01818 28.3673 4.65234 27.86 4.65234L27.8814 4.63144ZM27.9348 7.54244C27.6256 7.55409 27.3195 7.47785 27.0536 7.32294V8.60859H26.1672V3.96771H26.5997L26.9201 4.42762C27.0739 4.26553 27.2597 4.13565 27.4662 4.04582C27.6727 3.95599 27.8957 3.90809 28.1217 3.90499C28.9922 3.90499 29.4781 4.60531 29.4781 5.67146C29.4781 6.7376 28.88 7.53199 27.9348 7.53199V7.54244ZM24.8321 3.4869V7.4536H23.9082V3.4869H22.5572V2.75H26.1672V3.4869H24.8321Z" fill="#7E91B4"/>
<path d="M24.7039 13.6206H23.9883V12.199H24.5651C25.2593 12.199 25.4676 12.3819 25.4676 12.9202C25.4676 13.4585 25.2219 13.6206 24.6933 13.6206H24.7039ZM24.6933 11.5301H23.9883V10.3019H25.8895V9.6016H23.0859V14.3052H24.6879C25.6865 14.3052 26.4555 13.8819 26.4555 12.8471C26.4555 11.8123 25.8735 11.5039 24.7253 11.5039" fill="#7E91B4"/>
</svg>
