<svg width="120" height="36" viewBox="0 0 120 36" fill="none" xmlns="http://www.w3.org/2000/svg">
<path d="M0 13.4665H6.55393C9.50147 18.4798 13.7526 22.6402 18.8753 25.5248V31.9388C14.4961 30.4757 10.5178 28.0499 7.24578 24.8477C3.97375 21.6456 1.49505 17.7522 0 13.4665Z" fill="#7E91B4"/>
<path d="M18.8753 13.4665L18.8753 25.5248C13.7526 22.6402 9.50147 18.4798 6.55393 13.4665H18.8753Z" fill="#7E91B4"/>
<path d="M18.8753 13.4665H6.55393C4.99976 10.8179 3.83605 7.96748 3.09734 5H10.2241C12.5186 5 14.719 5.892 16.3414 7.47977C17.9639 9.06754 18.8753 11.2211 18.8753 13.4665Z" fill="#7E91B4"/>
<path d="M27.5265 21.933V28.9076C24.4939 28.1859 21.5812 27.0469 18.8753 25.5248L18.8753 13.4665C21.1697 13.4665 23.3702 14.3585 24.9926 15.9463C26.615 17.534 27.5265 19.6875 27.5265 21.933Z" fill="#7E91B4"/>
<path d="M18.8073 5C19.2752 7.09431 20.3472 9.01328 21.8961 10.5292C23.4451 12.045 25.4059 13.0941 27.5459 13.552V5H18.8073Z" fill="#7E91B4"/>
<path d="M52.8198 23.2537H51.7323C50.8682 23.2537 50.5284 23.4533 50.5284 24.128C50.5187 24.2531 50.5376 24.3787 50.5837 24.4958C50.6298 24.6129 50.7019 24.7185 50.7949 24.8049C50.8878 24.8913 50.9993 24.9564 51.1211 24.9954C51.2429 25.0345 51.3721 25.0465 51.4993 25.0307C51.7655 25.0216 52.0271 24.9606 52.2689 24.8513C52.5106 24.742 52.7276 24.5865 52.9072 24.394L52.8198 23.2537ZM53.4703 25.9999L53.1305 25.3632C52.5312 25.8717 51.7681 26.1577 50.975 26.1709C50.707 26.1855 50.4388 26.1455 50.1874 26.0535C49.936 25.9615 49.7068 25.8195 49.5143 25.6365C49.3218 25.4534 49.1702 25.2333 49.069 24.99C48.9677 24.7467 48.9192 24.4856 48.9263 24.223C48.9263 22.6171 49.9846 22.2465 51.5576 22.2465H52.8198V21.8474C52.8198 21.0777 52.6159 20.6787 51.6547 20.6787C51.0392 20.7216 50.4321 20.843 49.8487 21.0397L49.4312 20.0895C50.2267 19.7649 51.075 19.5815 51.9362 19.5479C53.7519 19.5479 54.4025 20.3556 54.4025 21.7239V25.9999H53.4703ZM58.4319 10.7964H57.3347C56.4803 10.7964 56.1405 11.0054 56.1405 11.6706C56.1229 11.7994 56.1359 11.9305 56.1785 12.0536C56.221 12.1767 56.292 12.2886 56.386 12.3805C56.4799 12.4724 56.5942 12.5419 56.72 12.5836C56.8458 12.6253 56.9798 12.638 57.1114 12.6208C57.3765 12.6137 57.6374 12.5536 57.8778 12.4441C58.1183 12.3346 58.3333 12.1781 58.5096 11.9841L58.4319 10.7964ZM59.0824 13.552L58.7329 12.9153C58.138 13.4311 57.3721 13.7181 56.5774 13.723C56.3135 13.7373 56.0495 13.6986 55.8014 13.6095C55.5533 13.5204 55.3265 13.3827 55.1347 13.2048C54.9429 13.0268 54.7902 12.8125 54.686 12.5748C54.5818 12.3372 54.5283 12.0812 54.5287 11.8226C54.5287 10.2072 55.587 9.84613 57.16 9.84613H58.4319V9.41853C58.4319 8.64885 58.228 8.24976 57.2668 8.24976C56.6478 8.29642 56.0375 8.42097 55.4511 8.62034L55.0433 7.61311C55.8374 7.29607 56.6817 7.11604 57.5386 7.08098C59.3543 7.08098 60.0049 7.87917 60.0049 9.25699V13.552H59.0824ZM85.2982 10.8059H84.201C83.3465 10.8059 82.997 11.0149 82.997 11.6801C82.9794 11.8089 82.9924 11.94 83.035 12.0631C83.0776 12.1862 83.1486 12.2981 83.2425 12.39C83.3364 12.4819 83.4507 12.5514 83.5766 12.5931C83.7024 12.6348 83.8363 12.6475 83.968 12.6303C84.2331 12.6232 84.4939 12.5631 84.7344 12.4536C84.9749 12.3441 85.1898 12.1876 85.3661 11.9936L85.2982 10.8059ZM85.9487 13.552L85.5992 12.9153C85.002 13.4274 84.2376 13.7139 83.4436 13.723C83.1798 13.7373 82.9157 13.6986 82.6677 13.6095C82.4196 13.5204 82.1927 13.3827 82.0009 13.2048C81.8091 13.0268 81.6565 12.8125 81.5523 12.5748C81.4481 12.3372 81.3945 12.0812 81.3949 11.8226C81.3949 10.2072 82.4533 9.84613 84.0262 9.84613H85.2982V9.41853C85.2982 8.64885 85.0846 8.24976 84.133 8.24976C83.514 8.29642 82.9038 8.42097 82.3173 8.62034L81.9095 7.61311C82.7034 7.29515 83.5478 7.11508 84.4049 7.08098C86.2206 7.08098 86.8711 7.87917 86.8711 9.25699V13.552H85.9487ZM105.834 8.4493V13.552H104.222V8.4493H102.513V7.24252H107.543V8.4493H105.834ZM111.66 10.8249H110.562C109.708 10.8249 109.368 11.0339 109.368 11.6991C109.35 11.8279 109.363 11.959 109.406 12.0821C109.449 12.2052 109.52 12.3171 109.614 12.409C109.707 12.5009 109.822 12.5704 109.948 12.6121C110.073 12.6538 110.207 12.6665 110.339 12.6493C110.605 12.6392 110.866 12.5777 111.108 12.4685C111.35 12.3592 111.567 12.2043 111.747 12.0126L111.66 10.8249ZM112.329 13.552L111.99 12.9153C111.392 13.4274 110.628 13.7139 109.834 13.723C109.569 13.7386 109.304 13.701 109.055 13.6125C108.806 13.5239 108.578 13.3864 108.385 13.2084C108.192 13.0303 108.039 12.8155 107.934 12.5772C107.829 12.3389 107.775 12.0821 107.776 11.8226C107.776 10.2072 108.844 9.84613 110.417 9.84613H111.66V9.41853C111.66 8.64885 111.456 8.24976 110.494 8.24976C109.879 8.29649 109.272 8.42106 108.688 8.62034L108.271 7.61311C109.068 7.2961 109.916 7.11609 110.776 7.08098C112.582 7.08098 113.232 7.87917 113.232 9.25699V13.552H112.329ZM73.5593 13.1434C72.8892 13.5115 72.1335 13.7046 71.365 13.704C69.4814 13.704 68.6657 12.5733 68.6657 10.4923C68.6657 8.21175 69.7921 7.10949 71.5786 7.10949C72.2257 7.09453 72.8644 7.25572 73.4234 7.5751L72.9476 8.64885C72.5781 8.49949 72.1823 8.42203 71.7825 8.4208C70.8116 8.4208 70.3455 9.05745 70.3455 10.3878C70.3455 11.8701 70.7533 12.4022 71.7825 12.4022C72.245 12.3847 72.6983 12.2713 73.1127 12.0696L73.5593 13.1434ZM67.1316 26.0379L64.9373 23.0542V26.0094H63.3255V19.6999H64.9373V22.4461L66.8792 19.6999H68.656L66.5394 22.5506L69.0056 26.0379H67.1316ZM59.9757 26.0379V23.3583H57.6454V26.0379H56.0434V19.6999H57.6454V22.104H59.9757V19.6999H61.6166V26.0379H59.9757ZM118.388 13.552V8.55383H116.98C116.98 11.9366 116.194 13.1054 114.621 13.8086L114.038 12.5733C115.174 11.8701 115.65 11.4615 115.65 7.24252H120V13.552H118.388ZM100.008 13.552V9.65608L97.0952 13.552H95.9301V7.24252H97.5322V11.1669L100.445 7.24252H101.639V13.552H100.008ZM92.6191 13.552V8.55383H90.017V13.552H88.444V7.24252H94.1824V13.552H92.6191ZM79.2685 13.552L76.2974 9.61808V13.552H74.6177V5H76.2974V8.68686L79.0355 5H80.9774L77.8315 8.95292L81.327 13.552H79.2685ZM65.8209 13.552V10.9294H63.2867V13.552H61.6846V7.24252H63.2867V9.61808H65.8209V7.24252H67.4326V13.552H65.8209ZM50.6934 8.4208C50.4018 8.41345 50.1132 8.48055 49.8561 8.61551C49.5991 8.75047 49.3823 8.94863 49.2273 9.19048V12.0411C49.6147 12.2494 50.0476 12.3635 50.4895 12.3737C51.4605 12.3737 51.9265 11.8701 51.9265 10.3592C51.9265 9.12396 51.577 8.45881 50.6546 8.45881L50.6934 8.4208ZM50.7905 13.7135C50.2283 13.7347 49.6719 13.5961 49.1884 13.3144V15.652H47.5767V7.21402H48.3631L48.9457 8.05021C49.2253 7.75551 49.563 7.51936 49.9385 7.35604C50.314 7.19272 50.7195 7.10561 51.1303 7.09999C52.713 7.09999 53.5966 8.37329 53.5966 10.3117C53.5966 12.2502 52.5091 13.6945 50.7905 13.6945V13.7135ZM45.1493 6.33981V13.552H43.4695V6.33981H41.013V5H47.5767V6.33981H45.1493Z" fill="#7E91B4"/>
<path d="M44.9163 24.7647H43.6152V22.18H44.6638C45.926 22.18 46.3047 22.5126 46.3047 23.4914C46.3047 24.4701 45.8581 24.7647 44.8968 24.7647H44.9163ZM44.8968 20.9638H43.6152V18.7307H47.0718V17.4574H41.9743V26.0094H44.8871C46.7028 26.0094 48.101 25.2398 48.101 23.3583C48.101 21.4769 47.0426 20.9163 44.9551 20.9163" fill="#7E91B4"/>
</svg>
