<svg width="121" height="36" viewBox="0 0 121 36" fill="none" xmlns="http://www.w3.org/2000/svg">
<path d="M16.5926 17.7775C16.5926 22.073 13.102 25.5551 8.79628 25.5551C6.87735 25.5551 5.12034 24.8635 3.76207 23.7165C3.94368 23.581 4.17892 23.406 4.43917 23.2124C5.27803 22.5885 6.37673 21.7713 6.77682 21.4585C7.43571 20.9433 10.8655 18.0831 11.9055 17.1593C12.9455 16.2356 14.3986 14.8925 14.3986 14.8925C14.8695 14.4702 15.2476 14.1162 15.5115 13.8238C16.1983 14.9824 16.5926 16.334 16.5926 17.7775Z" fill="#7E91B4"/>
<path d="M3.01886 22.9999C3.29759 22.6089 3.71025 22.0281 4.18445 21.3607C5.77304 19.1247 8.05232 15.9166 8.30117 15.6173C8.30117 15.6173 9.20225 14.4555 9.28772 14.3134C9.3732 14.1713 9.40882 14.054 9.16663 13.9048C9.09731 13.8621 8.98012 13.7923 8.84448 13.7115C8.50627 13.5101 8.0533 13.2403 7.94145 13.1515C7.78474 13.0272 7.80967 12.5688 8.29761 12.4729C8.75549 12.3829 12.4312 12.077 14.2097 12.1806C12.8074 10.8305 10.899 10 8.79628 10C4.49051 10 1 13.4821 1 17.7775C1 19.7876 1.76433 21.6195 3.01886 22.9999Z" fill="#7E91B4"/>
<path d="M27.9967 11.4213V21.1281C27.9967 23.2599 26.1161 24.9014 23.6302 24.9014C21.1442 24.9014 19.2637 23.2706 19.2637 21.1281V13.6916C19.2646 13.0904 19.5042 12.514 19.93 12.0885C20.3559 11.6631 20.9333 11.4231 21.536 11.4213H21.6962V21.1103C21.6962 22.2615 22.7255 22.9721 23.7192 22.9721C23.9734 22.984 24.2274 22.945 24.4661 22.8572C24.7049 22.7694 24.9236 22.6347 25.1092 22.4611C25.2949 22.2875 25.4437 22.0785 25.5469 21.8465C25.6501 21.6145 25.7056 21.3641 25.7101 21.1103V13.5531C25.7203 12.9866 25.9522 12.4465 26.3561 12.0482C26.76 11.6499 27.304 11.4249 27.872 11.4213H27.9967Z" fill="#7E91B4"/>
<path d="M32.7906 14.8428C36.11 14.8428 36.6407 16.701 36.6407 17.8167V24.7593H36.5338C35.9362 24.7529 35.3646 24.5144 34.9404 24.0945C34.5161 23.6746 34.2726 23.1063 34.2615 22.5102V17.8557C34.2615 17.1984 33.998 16.4345 32.7016 16.4345C32.242 16.418 31.7837 16.4904 31.3517 16.6477V24.7593H28.9726V15.5712C30.191 15.1013 31.4844 14.8546 32.7906 14.8428Z" fill="#7E91B4"/>
<path d="M38.8666 11.4212C39.0287 11.415 39.1905 11.4409 39.3426 11.4972C39.4947 11.5536 39.6342 11.6393 39.753 11.7496C39.8718 11.8599 39.9676 11.9924 40.0349 12.1397C40.1022 12.287 40.1397 12.4461 40.1452 12.6079C40.1374 12.7674 40.0982 12.9238 40.0296 13.0681C39.9611 13.2124 39.8646 13.3417 39.7458 13.4487C39.627 13.5557 39.4882 13.6382 39.3373 13.6915C39.1864 13.7447 39.0264 13.7677 38.8666 13.7591C38.5424 13.7766 38.2244 13.6653 37.9821 13.4496C37.7399 13.2339 37.593 12.9313 37.5738 12.6079C37.5895 12.2802 37.734 11.9719 37.976 11.7498C38.218 11.5277 38.538 11.4096 38.8666 11.4212ZM40.0383 14.857V22.5279C40.0383 23.1197 39.8027 23.6872 39.3832 24.1057C38.9638 24.5241 38.3949 24.7592 37.8017 24.7592H37.6842V14.8428L40.0383 14.857Z" fill="#7E91B4"/>
<path d="M46.7982 11.2152C47.8624 11.1894 48.9128 11.4588 49.8327 11.9933V14.3312C49.5399 13.9432 49.1555 13.6334 48.7137 13.4294C48.2719 13.2255 47.7864 13.1337 47.3004 13.1622C44.8856 13.1622 43.3826 15.5356 43.3826 17.9943C43.3826 20.3144 44.9462 22.8477 47.3004 22.8477C48.3297 22.8477 49.2735 22.5457 49.822 21.8031V24.1055C49.131 24.6171 48.0412 24.9014 46.7697 24.9014C42.9339 24.9014 40.9109 21.3945 40.9109 18.0121C40.9109 14.6296 42.9446 11.2152 46.7982 11.2152Z" fill="#7E91B4"/>
<path d="M54.0354 14.8427C54.4814 14.8451 54.9267 14.8808 55.3674 14.9493V16.8431C55.0152 16.6206 54.6123 16.4909 54.1962 16.4661C53.7801 16.4412 53.3645 16.522 52.9883 16.701V22.5279C52.9845 23.1185 52.7477 23.6839 52.329 24.1016C51.9104 24.5192 51.3437 24.7555 50.7516 24.7592H50.627V15.6066C51.6823 15.0747 52.8534 14.8122 54.0354 14.8427Z" fill="#7E91B4"/>
<path d="M63.6017 19.9094L57.6895 20.723C57.8854 22.3325 58.7045 23.1852 60.1826 23.1852C61.2923 23.2325 62.3839 22.8934 63.2704 22.2259V24.2121C62.2364 24.7089 61.0984 24.9525 59.9511 24.9227C57.0591 24.9227 55.321 22.9756 55.321 19.8596C55.321 16.8289 56.9166 14.8641 59.545 14.8641C62.1735 14.8641 63.5732 16.5837 63.5732 19.5576L63.6017 19.9094ZM61.5466 18.5628C61.4754 16.598 60.2502 16.3848 59.5949 16.3848H59.5059C58.1738 16.4203 57.5541 17.3583 57.5541 19.1099L61.5466 18.5628Z" fill="#7E91B4"/>
<path d="M72.1245 11.4213V24.6349C71.0631 24.7939 69.9923 24.8829 68.9191 24.9014H68.7589C65.8669 24.8659 64.2855 23.2031 64.2855 20.2079C64.2855 17.2127 65.9381 15.2336 68.4917 15.2336C68.928 15.23 69.3631 15.2777 69.7882 15.3758V13.6561C69.7891 13.0655 70.0239 12.4992 70.4416 12.0806C70.8592 11.662 71.4257 11.425 72.0177 11.4213H72.1245ZM69.7988 16.7508C69.533 16.6787 69.2587 16.6429 68.9832 16.6442C67.0315 16.6442 66.6219 18.5237 66.6219 20.08C66.6219 22.258 67.3342 23.3381 68.823 23.3381C69.1498 23.3294 69.4758 23.2997 69.7988 23.2492V16.7508Z" fill="#7E91B4"/>
<path d="M74.404 11.4212C74.7312 11.4097 75.0496 11.5282 75.2894 11.7507C75.5291 11.9732 75.6705 12.2815 75.6826 12.6079C75.666 12.9297 75.522 13.2318 75.2822 13.4476C75.0424 13.6635 74.7265 13.7756 74.404 13.7591C74.0794 13.7766 73.761 13.6654 73.5182 13.4498C73.2753 13.2342 73.1278 12.9316 73.1076 12.6079C73.1242 12.2799 73.2695 11.9716 73.512 11.7496C73.7546 11.5276 74.075 11.4096 74.404 11.4212ZM75.5757 14.857V22.528C75.5757 23.1197 75.3401 23.6873 74.9206 24.1057C74.5012 24.5242 73.9323 24.7592 73.3391 24.7592H73.2322V14.8428L75.5757 14.857Z" fill="#7E91B4"/>
<path d="M79.7107 11.4213V14.857H81.2386V16.7508H79.7107V21.9986C79.7107 22.6346 79.9244 22.83 80.6153 22.83C80.8285 22.823 81.0391 22.781 81.2386 22.7056V24.6704C80.8594 24.8186 80.4563 24.8968 80.049 24.9014C78.3074 24.9014 77.3494 24.0522 77.3494 22.5102V16.7508H76.3201V14.8428H77.3494V13.6383C77.3522 13.0494 77.5887 12.4855 78.0072 12.07C78.4257 11.6545 78.9921 11.4213 79.5825 11.4213H79.7107Z" fill="#7E91B4"/>
<path d="M92.1762 17.5537V17.607C93.4584 17.8557 95.2178 18.9749 95.2178 20.9255C95.2178 23.5867 93.0808 24.7592 89.9538 24.7592C86.9656 24.7592 85.8793 24.7059 85.8793 24.7059V11.915C87.114 11.3807 88.4519 11.1259 89.7971 11.1689C93.1058 11.1689 94.7619 12.6079 94.7619 14.5763C94.7405 16.4203 93.3337 17.305 92.1762 17.5537ZM92.3009 14.7503C92.3009 13.2758 91.4496 12.5866 89.8078 12.5866C89.2893 12.5777 88.7726 12.6497 88.2763 12.7997V17.0207H89.0598C91.4639 17.106 92.283 16.3634 92.283 14.7503H92.3009ZM89.0456 18.2465L88.262 18.2643V23.2385H89.8647C91.4995 23.2385 92.6748 22.6167 92.6748 20.8935C92.657 19.0459 91.6242 18.1719 89.0278 18.2465H89.0456Z" fill="#7E91B4"/>
<path d="M101.08 18.4952V17.8379C101.08 16.5766 100.297 16.2426 99.1569 16.2426C98.2166 16.2426 97.2728 16.5979 96.2221 17.1451V15.5675C97.2611 15.0737 98.3978 14.8187 99.5487 14.8214C101.561 14.8214 103.231 15.834 103.231 18.3175V24.6348C102.201 24.7968 101.161 24.8859 100.118 24.9013H99.6199C96.9879 24.9013 95.6202 23.7998 95.6202 21.9381C95.606 19.3835 98.0955 18.7794 101.08 18.4952ZM101.08 19.5966C98.9966 19.7885 97.7358 20.2149 97.7358 21.867C97.7358 23.0892 98.4837 23.6435 99.7623 23.6435C100.203 23.6503 100.644 23.6206 101.08 23.5547V19.5966Z" fill="#7E91B4"/>
<path d="M108.047 14.8215C111.373 14.8215 111.907 16.6833 111.907 17.8025V24.7593H111.8C111.202 24.752 110.629 24.5124 110.204 24.0912C109.779 23.6701 109.536 23.1005 109.525 22.5031V17.838C109.525 17.1807 109.258 16.4168 107.958 16.4168C107.498 16.4008 107.04 16.4732 106.608 16.63V24.7593H104.225V15.5499C105.445 15.08 106.739 14.8333 108.047 14.8215Z" fill="#7E91B4"/>
<path d="M115.305 22.4355C115.308 22.7411 115.249 23.0442 115.133 23.3268C115.017 23.6095 114.845 23.866 114.627 24.0813C114.41 24.2966 114.151 24.4662 113.867 24.5802C113.583 24.6942 113.278 24.7502 112.972 24.745H112.954V13.6844C112.951 13.379 113.01 13.0761 113.126 12.7936C113.243 12.5111 113.415 12.2548 113.632 12.0399C113.85 11.8249 114.108 11.6556 114.393 11.542C114.677 11.4284 114.981 11.3728 115.287 11.3785H115.305V19.4332L118.258 15.0701H120.48L117.438 19.5043L121 24.7592H118.507L115.301 19.8418L115.305 22.4355Z" fill="#7E91B4"/>
</svg>
