<svg width="66" height="20" viewBox="0 0 66 20" fill="none" xmlns="http://www.w3.org/2000/svg">
<path d="M9.05044 9.69665C9.05044 12.0396 7.14653 13.9389 4.79793 13.9389C3.75124 13.9389 2.79287 13.5617 2.05199 12.9361C2.15105 12.8621 2.27937 12.7667 2.42132 12.6611C2.87888 12.3208 3.47817 11.8751 3.6964 11.7044C4.0558 11.4234 5.92659 9.86332 6.49386 9.35944C7.06112 8.85556 7.85373 8.12299 7.85373 8.12299C8.11062 7.89266 8.31684 7.69954 8.46076 7.54007C8.83542 8.172 9.05044 8.90927 9.05044 9.69665Z" fill="#7E91B4"/>
<path d="M1.64661 12.5452C1.79864 12.3319 2.02373 12.0151 2.28239 11.6511C3.14889 10.4315 4.39213 8.6816 4.52787 8.51835C4.52787 8.51835 5.01936 7.88462 5.06599 7.8071C5.11261 7.72958 5.13204 7.66562 4.99994 7.58423C4.96212 7.56093 4.89821 7.52286 4.82422 7.4788C4.63974 7.36893 4.39267 7.22178 4.33166 7.17337C4.24618 7.10554 4.25978 6.85554 4.52593 6.80321C4.77568 6.75411 6.78063 6.58725 7.75069 6.64375C6.9858 5.90733 5.94489 5.45435 4.79793 5.45435C2.44933 5.45435 0.54541 7.35369 0.54541 9.69665C0.54541 10.793 0.962317 11.7923 1.64661 12.5452Z" fill="#7E91B4"/>
<path d="M15.2709 6.22958V11.5242C15.2709 12.687 14.2451 13.5824 12.8891 13.5824C11.5332 13.5824 10.5074 12.6928 10.5074 11.5242V7.46797C10.5079 7.14002 10.6386 6.82562 10.8709 6.59354C11.1032 6.36147 11.4181 6.2306 11.7469 6.22958H11.8343V11.5145C11.8343 12.1424 12.3957 12.53 12.9377 12.53C13.0764 12.5365 13.2149 12.5152 13.3451 12.4674C13.4754 12.4195 13.5946 12.346 13.6959 12.2513C13.7972 12.1566 13.8784 12.0426 13.9347 11.9161C13.991 11.7895 14.0212 11.653 14.0237 11.5145V7.39239C14.0292 7.08338 14.1557 6.7888 14.376 6.57154C14.5963 6.35427 14.8931 6.23155 15.2029 6.22958H15.2709Z" fill="#7E91B4"/>
<path d="M17.8857 8.09587C19.6963 8.09587 19.9858 9.10945 19.9858 9.71798V13.5048H19.9275C19.6015 13.5014 19.2898 13.3713 19.0583 13.1423C18.8269 12.9132 18.6941 12.6032 18.6881 12.2781V9.7393C18.6881 9.38077 18.5443 8.9641 17.8372 8.9641C17.5865 8.95508 17.3365 8.99457 17.1009 9.08038V13.5048H15.8032V8.49316C16.4678 8.23689 17.1733 8.10231 17.8857 8.09587Z" fill="#7E91B4"/>
<path d="M21.1999 6.22955C21.2884 6.22618 21.3766 6.24027 21.4596 6.27101C21.5425 6.30175 21.6186 6.34853 21.6834 6.40868C21.7482 6.46882 21.8005 6.54114 21.8372 6.62148C21.8739 6.70182 21.8943 6.7886 21.8973 6.87685C21.8931 6.96384 21.8717 7.04914 21.8343 7.12785C21.7969 7.20655 21.7443 7.27711 21.6795 7.33546C21.6147 7.39382 21.539 7.43881 21.4567 7.46787C21.3744 7.49692 21.2871 7.50946 21.1999 7.50476C21.0231 7.51429 20.8496 7.4536 20.7175 7.33594C20.5853 7.21828 20.5053 7.05323 20.4947 6.87685C20.5033 6.69811 20.5821 6.52994 20.7141 6.40878C20.8461 6.28762 21.0207 6.22323 21.1999 6.22955ZM21.8391 8.1036V12.2878C21.8391 12.6106 21.7105 12.9201 21.4817 13.1484C21.2529 13.3766 20.9426 13.5048 20.6191 13.5048H20.555V8.09585L21.8391 8.1036Z" fill="#7E91B4"/>
<path d="M25.5263 6.11716C26.1067 6.10312 26.6797 6.25005 27.1814 6.54159V7.8168C27.0217 7.60516 26.812 7.4362 26.5711 7.32495C26.3301 7.21371 26.0653 7.16364 25.8002 7.17919C24.483 7.17919 23.6632 8.47378 23.6632 9.81488C23.6632 11.0804 24.5161 12.4622 25.8002 12.4622C26.3616 12.4622 26.8764 12.2975 27.1756 11.8924V13.1483C26.7987 13.4273 26.2043 13.5824 25.5107 13.5824C23.4185 13.5824 22.315 11.6696 22.315 9.82457C22.315 7.97959 23.4243 6.11716 25.5263 6.11716Z" fill="#7E91B4"/>
<path d="M29.4738 8.09584C29.7171 8.09715 29.96 8.11659 30.2004 8.15398V9.18694C30.0083 9.0656 29.7885 8.99484 29.5615 8.98128C29.3346 8.96773 29.1079 9.01181 28.9027 9.10942V12.2878C28.9006 12.6099 28.7714 12.9183 28.5431 13.1461C28.3147 13.3739 28.0056 13.5028 27.6827 13.5048H27.6147V8.51251C28.1903 8.22237 28.8291 8.0792 29.4738 8.09584Z" fill="#7E91B4"/>
<path d="M34.6918 10.8595L31.467 11.3033C31.5738 12.1812 32.0206 12.6463 32.8268 12.6463C33.4321 12.6721 34.0275 12.4871 34.5111 12.123V13.2064C33.9471 13.4774 33.3264 13.6103 32.7006 13.594C31.1231 13.594 30.1751 12.532 30.1751 10.8323C30.1751 9.1792 31.0454 8.10748 32.4791 8.10748C33.9128 8.10748 34.6763 9.04548 34.6763 10.6676L34.6918 10.8595ZM33.5709 10.125C33.532 9.05323 32.8637 8.93695 32.5063 8.93695H32.4577C31.7312 8.95633 31.3931 9.46797 31.3931 10.4234L33.5709 10.125Z" fill="#7E91B4"/>
<path d="M39.3406 6.22958V13.437C38.7617 13.5237 38.1776 13.5723 37.5922 13.5824H37.5048C35.9274 13.563 35.0648 12.656 35.0648 11.0223C35.0648 9.38853 35.9662 8.30906 37.3591 8.30906C37.5971 8.30708 37.8344 8.3331 38.0662 8.38658V7.44859C38.0667 7.12645 38.1948 6.81756 38.4226 6.58923C38.6504 6.3609 38.9594 6.23163 39.2824 6.22958H39.3406ZM38.0721 9.13659C37.9271 9.0973 37.7774 9.07774 37.6272 9.07845C36.5626 9.07845 36.3392 10.1037 36.3392 10.9525C36.3392 12.1405 36.7277 12.7297 37.5398 12.7297C37.7181 12.7249 37.8959 12.7087 38.0721 12.6812V9.13659Z" fill="#7E91B4"/>
<path d="M40.584 6.22956C40.7624 6.22328 40.9361 6.28792 41.0669 6.40928C41.1977 6.53064 41.2748 6.69881 41.2814 6.87686C41.2723 7.05238 41.1938 7.21713 41.063 7.33488C40.9322 7.45263 40.7599 7.51374 40.584 7.50477C40.4069 7.51432 40.2332 7.45368 40.1008 7.33607C39.9683 7.21846 39.8878 7.05341 39.8768 6.87686C39.8859 6.69795 39.9651 6.52979 40.0975 6.40867C40.2298 6.28756 40.4045 6.22323 40.584 6.22956ZM41.2231 8.10362V12.2878C41.2231 12.6106 41.0946 12.9201 40.8658 13.1484C40.637 13.3766 40.3267 13.5048 40.0031 13.5048H39.9448V8.09587L41.2231 8.10362Z" fill="#7E91B4"/>
<path d="M43.4785 6.22958V8.10363H44.312V9.13659H43.4785V11.999C43.4785 12.3459 43.5951 12.4525 43.972 12.4525C44.0883 12.4487 44.2031 12.4258 44.312 12.3847V13.4564C44.1051 13.5372 43.8852 13.5799 43.6631 13.5824C42.7131 13.5824 42.1905 13.1192 42.1905 12.2781V9.13659H41.6291V8.09588H42.1905V7.4389C42.1921 7.11763 42.3211 6.81005 42.5494 6.58343C42.7776 6.3568 43.0866 6.22958 43.4086 6.22958H43.4785Z" fill="#7E91B4"/>
<path d="M50.2779 9.57453V9.6036C50.9773 9.73926 51.937 10.3497 51.937 11.4137C51.937 12.8653 50.7713 13.5048 49.0657 13.5048C47.4358 13.5048 46.8433 13.4757 46.8433 13.4757V6.49892C47.5167 6.20746 48.2465 6.06847 48.9802 6.09193C50.7849 6.09193 51.6883 6.87683 51.6883 7.95048C51.6766 8.95631 50.9093 9.43887 50.2779 9.57453ZM50.3459 8.04545C50.3459 7.24117 49.8816 6.8652 48.986 6.8652C48.7032 6.86039 48.4214 6.89962 48.1507 6.98148V9.28383H48.5781C49.8894 9.33035 50.3362 8.9253 50.3362 8.04545H50.3459ZM48.5703 9.95245L48.1429 9.96214V12.6753H49.0171C49.9088 12.6753 50.5499 12.3362 50.5499 11.3963C50.5402 10.3885 49.9768 9.91175 48.5606 9.95245H48.5703Z" fill="#7E91B4"/>
<path d="M55.1346 10.0881V9.72956C55.1346 9.04157 54.7072 8.8594 54.0855 8.8594C53.5727 8.8594 53.0579 9.0532 52.4848 9.35165V8.49117C53.0515 8.22183 53.6715 8.08276 54.2992 8.08419C55.3969 8.08419 56.308 8.63652 56.308 9.99119V13.437C55.7462 13.5254 55.1788 13.5739 54.6101 13.5823H54.3381C52.9025 13.5823 52.1565 12.9815 52.1565 11.966C52.1487 10.5726 53.5066 10.2431 55.1346 10.0881ZM55.1346 10.6889C53.9981 10.7935 53.3104 11.0261 53.3104 11.9273C53.3104 12.5939 53.7184 12.8963 54.4158 12.8963C54.6563 12.8999 54.8967 12.8837 55.1346 12.8478V10.6889Z" fill="#7E91B4"/>
<path d="M58.9345 8.08425C60.7489 8.08425 61.0403 9.09977 61.0403 9.71024V13.5049H60.9821C60.6554 13.5009 60.3431 13.3702 60.1114 13.1405C59.8797 12.9108 59.7467 12.6001 59.7407 12.2742V9.72962C59.7407 9.37109 59.595 8.95442 58.8859 8.95442C58.6353 8.9457 58.3853 8.98517 58.1496 9.0707V13.5049H56.85V8.48155C57.5152 8.22525 58.2214 8.09067 58.9345 8.08425Z" fill="#7E91B4"/>
<path d="M62.8936 12.2374C62.8952 12.404 62.8633 12.5694 62.7998 12.7235C62.7363 12.8777 62.6425 13.0176 62.5239 13.1351C62.4052 13.2525 62.2643 13.345 62.1092 13.4072C61.9542 13.4694 61.7882 13.4999 61.6212 13.4971H61.6115V7.46404C61.6099 7.29744 61.6418 7.13222 61.7053 6.97814C61.7688 6.82406 61.8627 6.68426 61.9813 6.567C62.1 6.44973 62.241 6.35739 62.396 6.29543C62.551 6.23347 62.7169 6.20316 62.8839 6.20627H62.8936V10.5997L64.5041 8.21986H65.7163L64.0573 10.6385L66 13.5048H64.6401L62.8917 10.8226L62.8936 12.2374Z" fill="#7E91B4"/>
</svg>
