<svg width="66" height="20" viewBox="0 0 66 20" fill="none" xmlns="http://www.w3.org/2000/svg">
<path d="M19.1113 16.4836H21.4361L24.9886 9.88361H22.6637L21.2949 12.6864L19.9261 9.88361H17.5687L20.1977 14.5987L19.1113 16.4836Z" fill="#7E91B4"/>
<path d="M47.9108 16.4836H50.8169L50.8006 16.4781V14.8391H48.9212C47.8348 14.8391 47.145 14.5987 47.145 13.2328C47.145 11.8669 47.7913 11.5227 48.9212 11.5227H50.8169V9.88361H47.9108C46.303 9.88361 45.0374 11.1457 45.0374 13.2656C45.0374 15.145 46.2813 16.4836 47.9108 16.4836Z" fill="#7E91B4"/>
<path d="M56.2758 16.4836H58.4486V9.88361H55.8467L53.3861 14.3965V9.88361H51.2623V16.4836H53.8098L56.2758 11.8286V16.4836Z" fill="#7E91B4"/>
<path fill-rule="evenodd" clip-rule="evenodd" d="M32.9625 16.4836H30.7083L33.4785 9.88361H35.8848L38.1661 15.3472L40.453 9.88361H42.8267L45.5969 16.4836H43.3372L41.6642 11.7303L39.9532 16.4836H36.3954L35.8848 15.1123H33.5056L32.9625 16.4836ZM35.3416 13.6098L34.6735 11.7303L33.9891 13.6098H35.3416Z" fill="#7E91B4"/>
<path fill-rule="evenodd" clip-rule="evenodd" d="M25.1298 16.4836H27.2536V14.5659H29.5459C31.7675 14.5659 31.7675 12.5826 31.7675 12.1401C31.8016 11.8373 31.7677 11.5307 31.6685 11.2429C31.5692 10.955 31.407 10.6932 31.1939 10.4767C30.9807 10.2602 30.722 10.0946 30.4368 9.99192C30.1516 9.88928 29.8472 9.85227 29.5459 9.88361H25.1298V16.4836ZM28.7908 12.9268H27.2536V11.5227H28.7908L28.8254 11.5225C29.0844 11.5208 29.6491 11.517 29.6491 12.2056C29.6491 12.9268 29.0298 12.9268 28.7908 12.9268Z" fill="#7E91B4"/>
<path fill-rule="evenodd" clip-rule="evenodd" d="M65.1189 11.5227V9.88361H58.8723V16.4836H63.2177C65.4393 16.4836 65.4393 15.1177 65.4393 14.3965C65.4393 13.6753 65.4393 12.375 63.1851 12.375H61.0124V11.5227H65.1189ZM61.0124 14.9429V13.9157H62.8266C63.3046 13.9157 63.3046 14.2272 63.3046 14.3965C63.3046 14.5659 63.3046 14.9429 62.8266 14.9429H61.0124Z" fill="#7E91B4"/>
<path d="M8.44322 6.66556C8.2885 6.60956 8.12373 6.58722 7.95979 6.6V0H7.37858V6.6C7.22719 6.59033 7.07546 6.61267 6.93317 6.66556L6.96576 2.18543H6.42258C6.42258 2.18543 6.45517 3.4202 6.27049 6.76937C5.00559 7.03824 3.84874 7.67938 2.94705 8.61128C2.04535 9.54318 1.43954 10.7237 1.20663 12.0029C0.973717 13.282 1.12424 14.6019 1.63905 15.7947C2.15386 16.9876 3.0097 17.9995 4.09776 18.7018C4.17392 18.6166 4.24296 18.5253 4.30417 18.4286V18.4669C6.25419 15.97 6.7322 12.2767 6.86799 9.02583C6.58468 9.08746 6.29815 9.13307 6.00976 9.16242C5.61883 11.9299 4.38983 14.5091 2.48994 16.5492C1.88803 15.7508 1.55332 14.7809 1.53394 13.7791C1.53394 11.4189 3.41335 9.4356 5.94458 8.78543C6.51613 8.65087 7.1012 8.58304 7.6882 8.58328C8.2754 8.57924 8.86092 8.64712 9.43181 8.78543C10.6385 9.09663 11.7304 9.75106 12.5768 10.6704C13.3425 11.4396 13.7952 12.4686 13.8465 13.5558C13.8977 14.6431 13.5437 15.7105 12.8539 16.5492C10.9635 14.4991 9.73281 11.9225 9.32318 9.15695C9.04708 9.12965 8.77308 9.08402 8.50297 9.02036C8.63877 12.2712 9.11677 15.9974 11.0668 18.4942C11.111 18.5352 11.1552 18.5913 11.1901 18.6355C11.2109 18.6618 11.2284 18.6841 11.2406 18.6964C12.3286 17.9975 13.1858 16.9895 13.7035 15.8001C14.2212 14.6106 14.3761 13.2934 14.1486 12.0152C13.9212 10.7371 13.3215 9.55574 12.4257 8.62085C11.5298 7.68595 10.3782 7.03966 9.11677 6.76391C8.97787 5.24197 8.92165 3.71353 8.94838 2.18543H8.4052L8.44322 6.66556Z" fill="#7E91B4"/>
<path d="M7.37858 8.99305H7.99781C8.06299 12.1018 8.2694 16.0028 9.29602 18.6363C9.41819 18.9277 9.556 19.2122 9.70883 19.4886C9.05151 19.6798 8.37229 19.7845 7.6882 19.8C7.00541 19.79 6.32728 19.6852 5.67299 19.4886C5.82359 19.1856 5.94813 18.9045 6.06991 18.6296L6.11297 18.5324C7.0744 15.9318 7.34599 12.069 7.37858 8.99305Z" fill="#7E91B4"/>
</svg>
