<svg width="120" height="36" viewBox="0 0 120 36" fill="none" xmlns="http://www.w3.org/2000/svg">
<path d="M34.7479 29.9702H38.9748L45.4338 17.9702H41.2068L38.7181 23.0662L36.2293 17.9702H31.9431L36.7231 26.543L34.7479 29.9702Z" fill="#7E91B4"/>
<path d="M87.1107 29.9702H92.3943L92.3647 29.9603V26.9801H88.9476C86.9724 26.9801 85.7181 26.543 85.7181 24.0596C85.7181 21.5762 86.8934 20.9503 88.9476 20.9503H92.3943V17.9702H87.1107C84.1873 17.9702 81.8862 20.2649 81.8862 24.1192C81.8862 27.5364 84.1479 29.9702 87.1107 29.9702Z" fill="#7E91B4"/>
<path d="M102.32 29.9702H106.27V17.9702H101.54L97.0657 26.1755V17.9702H93.2042V29.9702H97.836L102.32 21.5066V29.9702Z" fill="#7E91B4"/>
<path fill-rule="evenodd" clip-rule="evenodd" d="M59.9318 29.9702H55.8332L60.87 17.9702H65.2451L69.393 27.904L73.5509 17.9702H77.8667L82.9035 29.9702H78.795L75.7532 21.3278L72.6423 29.9702H66.1735L65.2451 27.4768H60.9194L59.9318 29.9702ZM64.2575 24.745L63.0427 21.3278L61.7984 24.745H64.2575Z" fill="#7E91B4"/>
<path fill-rule="evenodd" clip-rule="evenodd" d="M45.6905 29.9702H49.5521V26.4834H53.7198C57.7591 26.4834 57.7591 22.8775 57.7591 22.0728C57.821 21.5224 57.7595 20.965 57.579 20.4416C57.3986 19.9182 57.1037 19.4422 56.7162 19.0486C56.3286 18.655 55.8583 18.3538 55.3397 18.1671C54.8212 17.9805 54.2676 17.9132 53.7198 17.9702H45.6905V29.9702ZM52.347 23.5033H49.5521V20.9503H52.347L52.4099 20.95C52.8808 20.9469 53.9074 20.94 53.9074 22.1921C53.9074 23.5033 52.7815 23.5033 52.347 23.5033Z" fill="#7E91B4"/>
<path fill-rule="evenodd" clip-rule="evenodd" d="M118.398 20.9503V17.9702H107.041V29.9702H114.941C118.981 29.9702 118.981 27.4868 118.981 26.1755C118.981 24.8642 118.981 22.5 114.882 22.5H110.932V20.9503H118.398ZM110.932 27.1689V25.3013H114.23C115.099 25.3013 115.099 25.8675 115.099 26.1755C115.099 26.4834 115.099 27.1689 114.23 27.1689H110.932Z" fill="#7E91B4"/>
<path d="M15.3514 12.1192C15.07 12.0174 14.7705 11.9768 14.4724 12V0H13.4156V12C13.1404 11.9824 12.8645 12.023 12.6058 12.1192L12.6651 3.97351H11.6775C11.6775 3.97351 11.7367 6.21854 11.4009 12.3079C9.10111 12.7968 6.99776 13.9625 5.35831 15.6569C3.71887 17.3512 2.61738 19.4977 2.19391 21.8234C1.77044 24.149 2.04411 26.5489 2.98013 28.7177C3.91614 30.8865 5.47222 32.7263 7.45052 34.0033C7.58899 33.8484 7.71451 33.6823 7.82581 33.5066V33.5762C11.3713 29.0364 12.2404 22.3212 12.4873 16.4106C11.9722 16.5227 11.4512 16.6056 10.9269 16.6589C10.2161 21.6908 7.98155 26.3802 4.52721 30.0894C3.43282 28.6378 2.82426 26.8744 2.78903 25.053C2.78903 20.7616 6.20614 17.1556 10.8084 15.9735C11.8476 15.7289 12.9113 15.6055 13.9786 15.606C15.0462 15.5986 16.1108 15.722 17.1488 15.9735C19.3427 16.5393 21.3281 17.7292 22.867 19.4007C24.2591 20.7993 25.0823 22.6701 25.1754 24.647C25.2686 26.6239 24.625 28.5646 23.3707 30.0894C19.9336 26.3621 17.6961 21.6773 16.9513 16.649C16.4493 16.5994 15.9511 16.5164 15.46 16.4007C15.7069 22.3113 16.576 29.0861 20.1215 33.6258C20.2018 33.7004 20.2822 33.8023 20.3456 33.8827C20.3834 33.9306 20.4154 33.9711 20.4375 33.9934C22.4156 32.7228 23.9742 30.89 24.9155 28.7274C25.8568 26.5648 26.1385 24.1697 25.7248 21.8459C25.3112 19.522 24.2209 17.3741 22.5921 15.6743C20.9634 13.9745 18.8695 12.7994 16.576 12.298C16.3234 9.53085 16.2212 6.75188 16.2698 3.97351H15.2822L15.3514 12.1192Z" fill="#7E91B4"/>
<path d="M13.4156 16.351H14.5415C14.66 22.0033 15.0353 29.096 16.9019 33.8841C17.124 34.4139 17.3746 34.9313 17.6525 35.4338C16.4573 35.7815 15.2224 35.9718 13.9786 36C12.7372 35.9817 11.5042 35.7912 10.3146 35.4338C10.5884 34.8829 10.8148 34.3718 11.0362 33.872L11.1145 33.6954C12.8626 28.9669 13.3564 21.9437 13.4156 16.351Z" fill="#7E91B4"/>
</svg>
