<svg width="120" height="36" viewBox="0 0 120 36" fill="none" xmlns="http://www.w3.org/2000/svg">
<path d="M73.422 17.2856H67.6158V13.357H84.3202L83.0159 17.2499L77.9535 17.2875V34H73.4219L73.422 17.2856ZM52.8881 13.3484L57.3666 13.3774C62.1926 13.4085 62.1453 13.4051 63.246 13.8081C63.9864 14.0791 64.4848 14.4129 65.1486 15.0819C65.6578 15.5948 65.8164 15.8127 66.0853 16.3677C66.5096 17.243 66.6587 17.9893 66.6036 18.9628C66.5097 20.6261 65.7143 22.0174 64.4299 22.7656L64.0567 22.9829L64.6383 23.288C65.3402 23.6564 66.2092 24.4519 66.6113 25.0942C67.3732 26.3112 67.5943 28.0705 67.1894 29.6944C67.1132 30 66.904 30.551 66.7244 30.9189C66.4569 31.4671 66.2932 31.6927 65.817 32.1689C65.1521 32.8339 64.6763 33.1414 63.8048 33.4692C62.6386 33.9079 62.3495 33.9285 57.3719 33.9285H52.8881V13.3484ZM61.0482 29.8335C61.4896 29.6157 61.7326 29.3638 61.9824 28.8648C62.5964 27.6385 62.2342 26.01 61.2326 25.4946C60.841 25.293 59.983 25.2059 58.6233 25.2296L57.455 25.25L57.4363 27.571C57.4261 28.8475 57.4345 29.9362 57.455 29.9903C57.4858 30.0709 57.7764 30.0835 59.0698 30.0601C60.6228 30.0321 60.6533 30.0285 61.0482 29.8335ZM60.6963 21.2091C61.794 20.8343 62.2439 19.1075 61.5002 18.1239C61.0291 17.5009 60.4919 17.3571 58.6354 17.3571H57.4196V21.3748L58.9243 21.3376C59.862 21.3144 60.5297 21.2659 60.6963 21.2091ZM85.4591 13.2856H92.2919C96.0501 13.2856 99.1251 13.3099 99.1253 13.3392C99.1255 13.3689 98.8333 14.2528 98.4759 15.3035L97.826 17.2142H90.0615V21.0524L92.0971 21.0917C93.4505 21.1178 94.3479 21.1681 94.7743 21.2422C97.0333 21.6341 98.5214 22.6529 99.3766 24.3929C99.8968 25.4513 99.9997 25.9587 100 27.4644C100 28.6227 99.9821 28.818 99.8177 29.4337C99.1397 31.9713 97.2463 33.4916 94.3118 33.8546C93.9596 33.8982 92.0075 33.9289 89.5854 33.9289H85.4591V13.2856ZM92.945 29.9286C94.0416 29.785 94.6513 29.2105 94.8769 28.1079C95.118 26.9297 94.6751 25.7599 93.8242 25.3276C93.3036 25.0632 92.8377 25.0002 91.4035 25.0002H90.0617V30.0002L91.2477 29.998C91.8998 29.9968 92.6639 29.9655 92.945 29.9286ZM26.9712 23.5229C26.0604 22.8979 24.2557 21.1603 23.38 20.065C22.0467 18.3976 20.9485 16.3757 20.2474 14.2971C19.9012 13.2706 19.8993 13.3085 20.3633 12.0001C20.9984 10.2093 22.1165 8.18404 23.3209 6.64288C23.926 5.86845 25.6962 4.10629 26.4668 3.51122L27.1289 3H45.0882L44.9098 3.58929C44.8118 3.91358 44.6368 4.42787 44.521 4.73215L44.3105 5.28573H27.7592L27.3484 5.63573C27.1276 5.8237 26.908 6.01323 26.6898 6.20431L26.442 6.42288L35.0981 6.42574C39.8591 6.42738 43.7541 6.44302 43.7541 6.46052C43.7541 6.51652 43.2507 7.37125 42.8158 8.05339L42.3947 8.71383L24.4697 8.75011L24.1315 9.25012C23.9454 9.52512 23.7918 9.7904 23.7901 9.83941C23.7876 9.91048 25.5917 9.92869 32.583 9.92869H41.3789L40.8142 10.5051C40.5033 10.8221 39.9593 11.3203 39.605 11.6123L38.9607 12.143H22.5963L22.1745 13.3209L22.3862 13.9258C23.3127 16.574 24.9649 19.0648 26.9913 20.8687L27.5405 21.3575H34.8331C38.8441 21.3575 42.1257 21.3471 42.1257 21.3341C42.1257 21.2602 41.7177 20.3173 41.4747 19.8298C40.8116 18.4991 39.9605 17.3144 38.8907 16.2328L38.2376 15.5724L24.318 15.5361L23.9994 14.8901C23.8242 14.5347 23.6104 14.0445 23.5244 13.8008L23.3679 13.3576H39.0022L40.04 14.3729C42.0367 16.3262 43.4134 18.3563 44.2848 20.6326C44.5579 21.3459 44.9134 22.67 44.9924 23.2683L45.042 23.6433H36.0939C27.8265 23.6433 27.1328 23.6337 26.9712 23.5229Z" fill="#7E91B4"/>
</svg>
