<svg width="66" height="20" viewBox="0 0 66 20" fill="none" xmlns="http://www.w3.org/2000/svg">
<path d="M40.3821 9.50723H37.1887V7.3465H46.3761L45.6588 9.48758L42.8744 9.50825V18.7001H40.382L40.3821 9.50723ZM29.0885 7.34178L31.5516 7.35769C34.2059 7.37482 34.1799 7.37294 34.7853 7.59459C35.1925 7.74368 35.4666 7.92722 35.8317 8.29521C36.1118 8.57729 36.199 8.69711 36.3469 9.00236C36.5803 9.48381 36.6623 9.89427 36.632 10.4297C36.5803 11.3445 36.1429 12.1097 35.4364 12.5212L35.2312 12.6407L35.5511 12.8085C35.9371 13.0111 36.4151 13.4487 36.6362 13.8019C37.0553 14.4713 37.1769 15.4389 36.9542 16.3321C36.9123 16.5001 36.7972 16.8032 36.6984 17.0055C36.5513 17.307 36.4612 17.4311 36.1994 17.6931C35.8337 18.0588 35.572 18.2279 35.0927 18.4082C34.4513 18.6495 34.2922 18.6608 31.5546 18.6608H29.0885V7.34178ZM33.5765 16.4086C33.8193 16.2888 33.9529 16.1502 34.0903 15.8758C34.428 15.2013 34.2288 14.3057 33.6779 14.0222C33.4626 13.9113 32.9907 13.8634 32.2428 13.8764L31.6003 13.8877L31.59 15.1642C31.5843 15.8663 31.589 16.465 31.6003 16.4948C31.6172 16.5391 31.777 16.5461 32.4884 16.5332C33.3425 16.5178 33.3593 16.5158 33.5765 16.4086ZM33.383 11.6651C33.9867 11.459 34.2341 10.5093 33.8251 9.96829C33.566 9.62563 33.2706 9.54655 32.2495 9.54655H31.5808V11.7563L32.4084 11.7358C32.9241 11.7231 33.2913 11.6964 33.383 11.6651ZM47.0025 7.30725H50.7606C52.8276 7.30725 54.5188 7.32061 54.5189 7.33671C54.5191 7.35302 54.3583 7.83918 54.1617 8.41708L53.8043 9.46798H49.5338V11.579L50.6534 11.6006C51.3978 11.6149 51.8913 11.6426 52.1259 11.6834C53.3683 11.8989 54.1868 12.4593 54.6571 13.4163C54.9432 13.9984 54.9998 14.2774 55 15.1056C55.0002 15.7426 54.9902 15.85 54.8997 16.1887C54.5268 17.5844 53.4854 18.4205 51.8715 18.6202C51.6778 18.6442 50.6041 18.6611 49.272 18.6611H47.0025V7.30725ZM51.1198 16.4609C51.7229 16.3819 52.0582 16.0659 52.1823 15.4595C52.3149 14.8115 52.0713 14.1681 51.6033 13.9303C51.317 13.7849 51.0607 13.7502 50.2719 13.7502H49.5339V16.5002L50.1862 16.4991C50.5449 16.4984 50.9652 16.4812 51.1198 16.4609ZM14.8341 12.9377C14.3332 12.594 13.3407 11.6383 12.859 11.0359C12.1257 10.1188 11.5217 9.00676 11.1361 7.86354C10.9456 7.299 10.9446 7.31982 11.1998 6.60018C11.5491 5.61528 12.1641 4.50137 12.8265 3.65373C13.1593 3.22779 14.1329 2.25861 14.5568 1.93132L14.9209 1.65015H24.7985L24.7004 1.97426C24.6465 2.15261 24.5502 2.43547 24.4866 2.60283L24.3708 2.9073H15.2676L15.0416 3.0998C14.9202 3.20318 14.7994 3.30743 14.6794 3.41252L14.5431 3.53273L19.3039 3.5343C21.9225 3.53521 24.0648 3.54381 24.0648 3.55343C24.0648 3.58424 23.7879 4.05433 23.5487 4.42951L23.3171 4.79275L13.4583 4.81271L13.2723 5.08771C13.17 5.23896 13.0855 5.38487 13.0845 5.41182C13.0832 5.45091 14.0754 5.46093 17.9207 5.46093H22.7584L22.4478 5.77796C22.2768 5.95232 21.9776 6.22634 21.7828 6.3869L21.4284 6.67879H12.4279L12.196 7.32666L12.3124 7.65933C12.822 9.11582 13.7307 10.4858 14.8452 11.4779L15.1473 11.7468H19.1582C21.3642 11.7468 23.1692 11.741 23.1692 11.7339C23.1692 11.6933 22.9448 11.1747 22.8111 10.9066C22.4464 10.1747 21.9783 9.52306 21.3899 8.92819L21.0307 8.56499L13.3749 8.54499L13.1996 8.18969C13.1033 7.99424 12.9857 7.72462 12.9384 7.59058L12.8523 7.34681H21.4512L22.022 7.90522C23.1202 8.97954 23.8774 10.0961 24.3567 11.3481C24.5069 11.7404 24.7024 12.4686 24.7458 12.7977L24.7731 13.004H19.8516C15.3046 13.004 14.9231 12.9987 14.8341 12.9377Z" fill="#7E91B4"/>
</svg>
