<svg width="66" height="20" viewBox="0 0 66 20" fill="none" xmlns="http://www.w3.org/2000/svg">
<path fill-rule="evenodd" clip-rule="evenodd" d="M41.0067 13.6573H40.4808V11.588H43.1839V13.6381H42.7817V14.1018H44.4445V13.6381H43.9766V9.71416H44.4445V9.31946H42.7817V9.71416H43.1839V11.1895H40.4808V9.71416H40.9951V9.31946H39.3168V9.71416L39.7228 9.7065V13.6381H39.3168V14.1133H41.0067V13.6573Z" fill="#7E91B4"/>
<path fill-rule="evenodd" clip-rule="evenodd" d="M46.4631 11.3466L46.3162 11.4769L46.4631 11.6225L47.1398 12.2816L48.5126 13.6343H48.1724V14.1018H50.16V13.6381H49.5219L47.1747 11.3811L49.0966 9.72182H49.7076V9.31946H47.8011V9.71416H48.3232L47.1398 10.7565L46.4631 11.3466Z" fill="#7E91B4"/>
<path fill-rule="evenodd" clip-rule="evenodd" d="M46.6101 14.1018V13.6381H46.146V9.71416H46.6101V9.31946H45.0091V9.71416H45.3571V13.6381H45.0091V14.1018H46.6101Z" fill="#7E91B4"/>
<path fill-rule="evenodd" clip-rule="evenodd" d="M33.4505 14.1056H34.978V13.6343H34.483L35.1481 12.1398H37.0236L37.7971 13.6381H37.2325V14.1018H39.1892V13.6381H38.76L36.227 8.77915L36.0685 9.09721L33.8952 13.6381H33.4505V14.1056ZM36.0143 10.2047L36.0685 10.3158L36.8419 11.7681H35.3337L36.0298 10.2047H36.0143Z" fill="#7E91B4"/>
<path fill-rule="evenodd" clip-rule="evenodd" d="M47.0625 14.7149V15.7802H47.426V15.1096H48.7137V19.0336H48.2303V19.5011H49.9821V19.0336H49.4987V15.1096H50.7942V15.7802H51.15V14.7149H47.0625Z" fill="#7E91B4"/>
<path fill-rule="evenodd" clip-rule="evenodd" d="M40.214 15.1058H40.6007V16.5773H37.9788V15.1058H38.4777V14.7111H36.8496V15.1058L37.2441 15.0943V19.0221H36.8496V19.5011H38.4854V19.0451H37.9788V16.9758H40.6007V19.0221H40.214V19.4896H41.8265V19.0221H41.3702V15.1058H41.8265V14.7111H40.214V15.1058Z" fill="#7E91B4"/>
<path fill-rule="evenodd" clip-rule="evenodd" d="M33.4505 12.7797C33.4505 12.7529 33.4505 12.7299 33.4505 12.7031C33.4524 12.6699 33.4524 12.6366 33.4505 12.6035C33.4505 12.417 33.413 12.2324 33.3402 12.0605C33.2674 11.8885 33.1607 11.7327 33.0264 11.6021C32.8921 11.4715 32.7329 11.3688 32.558 11.2999C32.3832 11.231 32.1962 11.1974 32.0081 11.2009H30.7049V12.1321H31.1341V11.5305H31.5208C31.787 11.5341 32.0425 11.6351 32.2381 11.814C32.4337 11.993 32.5556 12.2373 32.5804 12.5C32.5804 13.0556 32.3329 13.6496 31.486 13.6496H30.3916V9.71413H32.4257V10.4154H32.9246V9.32326H28.9608V9.70646H29.5448V13.6381H28.9608V14.1018H31.5788C32.5765 14.1018 33.4002 13.5921 33.4505 12.7797Z" fill="#7E91B4"/>
<path fill-rule="evenodd" clip-rule="evenodd" d="M46.7957 19.0336V14.485L43.2573 18.1905V15.1096H43.7446V14.7149H42.0353V15.1134H42.4607V19.8L45.9411 16.1289V19.0336H45.5312V19.5011H47.2133V19.0336H46.7957Z" fill="#7E91B4"/>
<path fill-rule="evenodd" clip-rule="evenodd" d="M31.0684 16.7152C31.6678 16.5965 32.1009 16.2554 32.097 15.7036C32.0932 15.1518 31.6098 14.7149 30.4342 14.7149H28.52V15.7802H29.0614V15.1135H30.4033C30.6108 15.1081 30.8125 15.1824 30.966 15.321C31.1195 15.4595 31.213 15.6516 31.2269 15.8569C31.2211 15.9611 31.1943 16.0632 31.1481 16.1571C31.102 16.2509 31.0374 16.3348 30.9582 16.4036C30.879 16.4725 30.7867 16.525 30.6868 16.5581C30.5869 16.5912 30.4813 16.6043 30.3762 16.5965H29.421V17.5238H29.8696V16.926H30.4651C30.6 16.9337 30.732 16.9681 30.8533 17.0271C30.9745 17.0862 31.0827 17.1686 31.1713 17.2697C31.2599 17.3707 31.3273 17.4883 31.3694 17.6155C31.4115 17.7427 31.4275 17.877 31.4164 18.0105C31.4164 18.5853 31.1303 19.0451 30.2292 19.0451H29.0691V18.4473H28.5277V19.5011H30.5425C30.8485 19.5136 31.1533 19.4545 31.4321 19.3287C31.7109 19.2029 31.9559 19.0139 32.1473 18.7769C32.2792 18.5758 32.3552 18.3436 32.3674 18.1041C32.3796 17.8645 32.3277 17.626 32.2169 17.4127C32.0929 17.2136 31.9231 17.0463 31.7215 16.9244C31.52 16.8026 31.2922 16.7296 31.0568 16.7114L31.0684 16.7152Z" fill="#7E91B4"/>
<path fill-rule="evenodd" clip-rule="evenodd" d="M36.0801 19.0336H33.8101V16.9068H34.9973V17.5238H35.4536V16.5083H33.8101V15.1096H35.7475V15.7802H36.2618V14.7149H32.6268V15.1135H33.0599V19.0336H32.6268V19.5011H36.5403V18.4435H36.0801V19.0336Z" fill="#7E91B4"/>
<path fill-rule="evenodd" clip-rule="evenodd" d="M22.093 11.5918L21.8841 7.03942H21.8609L21.7179 7.00876L21.482 12.1781L21.8687 11.8256C21.9421 11.749 22.0234 11.6723 22.1007 11.5957L22.093 11.5918Z" fill="#7E91B4"/>
<path fill-rule="evenodd" clip-rule="evenodd" d="M20.8632 13.937L20.6854 14.0673L20.4765 18.7424H21.2499L21.0373 13.8182L20.8787 13.937H20.8632Z" fill="#7E91B4"/>
<path fill-rule="evenodd" clip-rule="evenodd" d="M22.2631 6.23853L22.035 1.35655L21.9151 1.32589L21.6947 6.15423C21.7488 6.15423 21.8029 6.17722 21.8609 6.18871C21.9924 6.21171 22.1278 6.22704 22.2476 6.23853H22.2631Z" fill="#7E91B4"/>
<path fill-rule="evenodd" clip-rule="evenodd" d="M21.1339 12.4885L20.871 6.74049C20.8275 6.72493 20.7849 6.70702 20.7434 6.68684L20.4533 13.094L20.871 12.7491L21.1417 12.5077L21.1339 12.4885Z" fill="#7E91B4"/>
<path fill-rule="evenodd" clip-rule="evenodd" d="M22.2476 18.7424L21.9847 13.0289L21.8609 13.14L21.7217 13.2511L21.4704 18.7271H22.2438L22.2476 18.7424Z" fill="#7E91B4"/>
<path fill-rule="evenodd" clip-rule="evenodd" d="M23.2453 18.7424L22.9476 12.182C22.9148 12.208 22.8837 12.2361 22.8548 12.2663C22.8277 12.2969 22.7929 12.3238 22.762 12.3544L22.4681 18.7424H23.2453Z" fill="#7E91B4"/>
<path fill-rule="evenodd" clip-rule="evenodd" d="M23.984 9.39994L23.8718 6.89764L23.7365 6.93596L23.6011 9.9096C23.6901 9.79464 23.7829 9.67968 23.8718 9.56088C23.9199 9.5054 23.9639 9.44648 24.0033 9.38461L23.984 9.39994Z" fill="#7E91B4"/>
<path fill-rule="evenodd" clip-rule="evenodd" d="M24.243 18.7424L23.8989 11.2086L23.8525 11.2508L23.8099 11.3006L23.4658 18.7424H24.243Z" fill="#7E91B4"/>
<path fill-rule="evenodd" clip-rule="evenodd" d="M23.0443 10.5725L22.8818 7.08921H22.8548C22.8122 7.08921 22.762 7.08921 22.7117 7.08921L22.5299 11.1282C22.6382 11.0132 22.7504 10.8906 22.8548 10.7679C22.9166 10.7028 22.9824 10.6338 23.0443 10.561V10.5725Z" fill="#7E91B4"/>
<path fill-rule="evenodd" clip-rule="evenodd" d="M21.3196 6.0469L21.0837 0.931165L21.0025 0.873685L20.7782 5.81315C20.8058 5.82736 20.8342 5.84015 20.8632 5.85147C21.011 5.92293 21.1634 5.98439 21.3196 6.0354V6.0469Z" fill="#7E91B4"/>
<path fill-rule="evenodd" clip-rule="evenodd" d="M16.5863 16.3972L16.4819 18.7424H17.2553L17.1393 16.152L16.8686 16.2707C16.7796 16.3167 16.683 16.3589 16.5863 16.3972Z" fill="#7E91B4"/>
<path fill-rule="evenodd" clip-rule="evenodd" d="M15.5692 16.8072L15.4842 18.7232H16.2576L16.157 16.5581L15.867 16.6731L15.5654 16.788L15.5692 16.8072Z" fill="#7E91B4"/>
<path fill-rule="evenodd" clip-rule="evenodd" d="M17.611 15.9296L17.4796 18.7423H18.253L18.1138 15.6767C18.0326 15.715 17.9513 15.761 17.8663 15.807C17.7812 15.853 17.6961 15.8913 17.611 15.9373V15.9296Z" fill="#7E91B4"/>
<path fill-rule="evenodd" clip-rule="evenodd" d="M25.2446 18.7424L24.854 10.243L24.4635 18.7424H25.2446Z" fill="#7E91B4"/>
<path fill-rule="evenodd" clip-rule="evenodd" d="M19.8771 14.6344L19.6722 14.7686L19.4904 18.7423H20.2638L20.0705 14.5041L19.8771 14.6344Z" fill="#7E91B4"/>
<path fill-rule="evenodd" clip-rule="evenodd" d="M20.1092 0L19.8771 5.18854C20.0308 5.32999 20.1964 5.45819 20.3721 5.57175L20.1092 0Z" fill="#7E91B4"/>
<path fill-rule="evenodd" clip-rule="evenodd" d="M19.8771 13.527L20.1826 13.2932L19.8771 6.53738L19.8501 6.06604C19.8287 6.04362 19.8054 6.0231 19.7805 6.00473L19.4286 13.7339H19.5987C19.6915 13.6611 19.7805 13.5959 19.8771 13.527Z" fill="#7E91B4"/>
<path fill-rule="evenodd" clip-rule="evenodd" d="M24.2469 8.32314V8.66419H25.6622V19.0374H15.198V8.66419H19.3706V8.32314H14.85V19.3747H26.0025V8.32314H24.2469Z" fill="#7E91B4"/>
<path fill-rule="evenodd" clip-rule="evenodd" d="M18.632 15.3855L18.4773 18.7424H19.2507L19.1037 15.1211L18.8794 15.2476C18.8047 15.2977 18.7273 15.3438 18.6474 15.3855H18.632Z" fill="#7E91B4"/>
<path fill-rule="evenodd" clip-rule="evenodd" d="M33.261 13.4772V13.9485H34.7846V13.4772H34.2935L34.9586 11.9866H36.8303L37.6037 13.4772H37.043V13.9485H38.9765V13.4772H38.5743L36.0337 8.62205L35.8829 8.9401L33.7096 13.4772H33.261ZM35.8249 10.0514L35.8829 10.1587L36.6563 11.6072H35.1288L35.8249 10.0514Z" fill="#7E91B4"/>
<path fill-rule="evenodd" clip-rule="evenodd" d="M33.2649 12.6188V12.4502C33.2644 12.263 33.2263 12.0779 33.1529 11.9055C33.0795 11.733 32.9721 11.5768 32.8372 11.4459C32.7022 11.315 32.5423 11.2121 32.3667 11.143C32.1912 11.074 32.0036 11.0403 31.8147 11.0438H30.527V11.975H30.9485V11.3772H31.3352C31.6003 11.379 31.8552 11.4785 32.0504 11.6563C32.2455 11.8341 32.3669 12.0775 32.3909 12.3391C32.3909 12.8947 32.1512 13.4887 31.3004 13.4887H30.1983V9.58001H32.2517V10.2774H32.7544V9.16616H28.7714V9.54936H29.3514V13.4772H28.7714V13.9485H31.3894C32.3871 13.9485 33.2185 13.4312 33.2687 12.6188H33.2649Z" fill="#7E91B4"/>
<path fill-rule="evenodd" clip-rule="evenodd" d="M40.8172 13.504H40.2913V11.4309H42.9944V13.4772H42.5922V13.9485H44.2589V13.4772H43.791V9.56085H44.2589V9.16616H42.5922V9.56085H42.9944V11.0323H40.2913V9.56085H40.8017V9.16616H39.1312V9.56085L39.5334 9.54936V13.4772H39.1312V13.9562H40.8172V13.504Z" fill="#7E91B4"/>
<path fill-rule="evenodd" clip-rule="evenodd" d="M46.4167 13.9485V13.4772H45.9565V9.56085H46.4167V9.16616H44.8157V9.56085H45.1638V13.4772H44.8157V13.9485H46.4167Z" fill="#7E91B4"/>
<path fill-rule="evenodd" clip-rule="evenodd" d="M46.2736 11.1933L46.1267 11.3236L46.2736 11.4615L46.9465 12.1245L48.327 13.4772H47.979V13.9485H49.9667V13.4772H49.3325L46.9813 11.2278L48.911 9.56085H49.5142V9.16616H47.6116V9.56085H48.1298L46.9465 10.5993L46.2736 11.1933Z" fill="#7E91B4"/>
<path fill-rule="evenodd" clip-rule="evenodd" d="M46.6023 18.8727V14.3317L46.2736 14.6804L43.064 18.0335V14.9563H43.5512V14.5617H41.8459V14.9563H42.2674V19.6467L45.7516 15.9718V18.8727H45.3417V19.3402H47.0238V18.8727H46.6023Z" fill="#7E91B4"/>
<path fill-rule="evenodd" clip-rule="evenodd" d="M46.873 14.5616V15.6193H47.2327V14.9563H48.5243V18.8726H48.0447V19.3402H49.7927V18.8726H49.3131V14.9563H50.6009V15.6193H50.9644V14.5616H46.873Z" fill="#7E91B4"/>
<path fill-rule="evenodd" clip-rule="evenodd" d="M30.8828 16.5619C31.4783 16.4431 31.9114 16.1021 31.9037 15.5503C31.8959 14.9985 31.4203 14.5616 30.2447 14.5616H28.3112V15.6193H28.8564V14.9448H30.1944C30.3005 14.9397 30.4066 14.9555 30.5064 14.9914C30.6063 15.0273 30.6979 15.0825 30.776 15.1538C30.8541 15.2252 30.9171 15.3112 30.9613 15.4069C31.0056 15.5026 31.0301 15.606 31.0336 15.7112C31.0294 15.8157 31.0036 15.9183 30.9579 16.0125C30.9122 16.1068 30.8475 16.1908 30.7678 16.2594C30.6881 16.3279 30.5951 16.3796 30.4945 16.4112C30.3939 16.4428 30.2878 16.4537 30.1828 16.4431H29.2315V17.3782H29.684V16.765H30.2795C30.4137 16.7738 30.5448 16.8087 30.6653 16.8678C30.7858 16.9269 30.8934 17.0091 30.9818 17.1095C31.0702 17.2099 31.1377 17.3266 31.1804 17.453C31.2231 17.5793 31.2403 17.7127 31.2308 17.8457C31.2308 18.4166 30.9446 18.8726 30.0436 18.8726H28.8835V18.294H28.3305V19.3402H30.3491C30.6544 19.3555 30.9591 19.2989 31.238 19.175C31.517 19.0511 31.7624 18.8635 31.9539 18.6274C32.0863 18.4252 32.1631 18.1923 32.1766 17.9517C32.1902 17.711 32.1401 17.4711 32.0313 17.2555C31.9059 17.0583 31.7357 16.8928 31.5343 16.7724C31.3328 16.6519 31.1057 16.5799 30.8712 16.5619H30.8828Z" fill="#7E91B4"/>
<path fill-rule="evenodd" clip-rule="evenodd" d="M40.0245 14.9487H40.415V16.4202H37.7855V14.9487H38.292V14.5502H36.664V14.9487L37.0507 14.9372V18.8689H36.664V19.3402H38.2998V18.888H37.7855V16.8149H40.415V18.8689H40.0245V19.3364H41.6409V18.8689H41.1807V14.9487H41.6409V14.5502H40.0245V14.9487Z" fill="#7E91B4"/>
<path fill-rule="evenodd" clip-rule="evenodd" d="M35.8945 18.8765H33.6168V16.7459H34.804V17.3705H35.2641V16.3512H33.6168V14.9563H35.558V15.6193H36.0685V14.5616H32.4335V14.9563H32.8666V18.8726H32.4335V19.3402H36.3469V18.2902H35.8945V18.8765Z" fill="#7E91B4"/>
</svg>
