<svg width="120" height="36" viewBox="0 0 120 36" fill="none" xmlns="http://www.w3.org/2000/svg">
<path fill-rule="evenodd" clip-rule="evenodd" d="M74.5577 24.8315H73.6015V21.0691H78.5161V24.7966H77.7849V25.6397H80.8082V24.7966H79.9575V17.6621H80.8082V16.9445H77.7849V17.6621H78.5161V20.3445H73.6015V17.6621H74.5366V16.9445H71.4851V17.6621L72.2234 17.6482V24.7966H71.4851V25.6606H74.5577V24.8315Z" fill="#7E91B4"/>
<path fill-rule="evenodd" clip-rule="evenodd" d="M84.4784 20.6302L84.2113 20.8671L84.4784 21.1318L85.7089 22.3302L88.2049 24.7896H87.5861V25.6397H91.2001V24.7966H90.0399L85.7721 20.6929L89.2665 17.676H90.3774V16.9445H86.9112V17.6621H87.8603L85.7089 19.5572L84.4784 20.6302Z" fill="#7E91B4"/>
<path fill-rule="evenodd" clip-rule="evenodd" d="M84.7456 25.6397V24.7966H83.9019V17.6621H84.7456V16.9445H81.8348V17.6621H82.4676V24.7966H81.8348V25.6397H84.7456Z" fill="#7E91B4"/>
<path fill-rule="evenodd" clip-rule="evenodd" d="M60.8191 25.6466H63.5964V24.7897H62.6964L63.9057 22.0724H67.3158L68.722 24.7966H67.6954V25.6397H71.2531V24.7966H70.4727L65.8674 15.9621L65.5791 16.5404L61.6277 24.7966H60.8191V25.6466ZM65.4807 18.5539L65.5791 18.756L66.9853 21.3966H64.2432L65.5088 18.5539H65.4807Z" fill="#7E91B4"/>
<path fill-rule="evenodd" clip-rule="evenodd" d="M85.5682 26.7544V28.6913H86.2291V27.4721H88.5705V34.6066H87.6916V35.4566H90.8766V34.6066H89.9977V27.4721H92.3531V28.6913H93V26.7544H85.5682Z" fill="#7E91B4"/>
<path fill-rule="evenodd" clip-rule="evenodd" d="M73.1163 27.465H73.8194V30.1405H69.0524V27.465H69.9594V26.7474H66.9994V27.465L67.7165 27.4441V34.5856H66.9994V35.4565H69.9735V34.6274H69.0524V30.8651H73.8194V34.5856H73.1163V35.4356H76.0483V34.5856H75.2186V27.465H76.0483V26.7474H73.1163V27.465Z" fill="#7E91B4"/>
<path fill-rule="evenodd" clip-rule="evenodd" d="M60.8191 23.2359C60.8191 23.1871 60.8191 23.1453 60.8191 23.0965C60.8226 23.0362 60.8226 22.9757 60.8191 22.9154C60.8192 22.5764 60.751 22.2407 60.6186 21.9281C60.4862 21.6155 60.2923 21.3322 60.0481 21.0948C59.8039 20.8573 59.5144 20.6705 59.1964 20.5453C58.8785 20.42 58.5386 20.3589 58.1965 20.3654H55.8271V22.0584H56.6075V20.9645H57.3106C57.7946 20.9711 58.2591 21.1547 58.6148 21.4801C58.9704 21.8055 59.1921 22.2497 59.2371 22.7273C59.2371 23.7375 58.7871 24.8175 57.2474 24.8175H55.2576V17.662H58.9559V18.9371H59.8629V16.9514H52.6561V17.6481H53.7178V24.7966H52.6561V25.6396H57.4161C59.2301 25.6396 60.7277 24.7129 60.8191 23.2359Z" fill="#7E91B4"/>
<path fill-rule="evenodd" clip-rule="evenodd" d="M85.0831 34.6065V26.3363L78.6497 33.0737V27.472H79.5356V26.7544H76.4279V27.479H77.2013V36L83.5292 29.3253V34.6065H82.784V35.4565H85.8424V34.6065H85.0831Z" fill="#7E91B4"/>
<path fill-rule="evenodd" clip-rule="evenodd" d="M56.488 30.3914C57.5778 30.1754 58.3653 29.5553 58.3583 28.552C58.3512 27.5487 57.4724 26.7544 55.3349 26.7544H51.8546V28.6913H52.8389V27.479H55.2787C55.6561 27.4692 56.0227 27.6044 56.3019 27.8563C56.581 28.1082 56.751 28.4574 56.7763 28.8307C56.7656 29.0202 56.7169 29.2058 56.633 29.3765C56.5491 29.5472 56.4317 29.6996 56.2877 29.8248C56.1437 29.95 55.9759 30.0455 55.7942 30.1057C55.6125 30.1659 55.4205 30.1896 55.2295 30.1754H53.4928V31.8615H54.3084V30.7746H55.3912C55.6364 30.7886 55.8764 30.8511 56.0969 30.9584C56.3174 31.0657 56.514 31.2157 56.6751 31.3994C56.8363 31.5831 56.9588 31.7969 57.0353 32.0282C57.1118 32.2595 57.1409 32.5037 57.1208 32.7463C57.1208 33.7914 56.6005 34.6275 54.9623 34.6275H52.853V33.5406H51.8686V35.4566H55.5318C56.0883 35.4792 56.6424 35.3719 57.1493 35.1431C57.6561 34.9144 58.1016 34.5707 58.4497 34.1398C58.6896 33.7741 58.8276 33.3521 58.8499 32.9165C58.8721 32.4809 58.7777 32.0472 58.5762 31.6594C58.3507 31.2974 58.0421 30.9932 57.6756 30.7717C57.3091 30.5501 56.895 30.4174 56.4669 30.3844L56.488 30.3914Z" fill="#7E91B4"/>
<path fill-rule="evenodd" clip-rule="evenodd" d="M65.6002 34.6066H61.473V30.7397H63.6315V31.8615H64.4612V30.0151H61.473V27.4721H64.9955V28.6913H65.9307V26.7544H59.3215V27.479H60.109V34.6066H59.3215V35.4566H66.4369V33.5336H65.6002V34.6066Z" fill="#7E91B4"/>
<path fill-rule="evenodd" clip-rule="evenodd" d="M40.1691 21.0761L39.7894 12.7989H39.7472L39.4871 12.7432L39.0582 22.1421L39.7613 21.5011C39.8948 21.3617 40.0425 21.2224 40.1831 21.083L40.1691 21.0761Z" fill="#7E91B4"/>
<path fill-rule="evenodd" clip-rule="evenodd" d="M37.9332 25.34L37.6098 25.5769L37.2301 34.077H38.6363L38.2496 25.1241L37.9613 25.34H37.9332Z" fill="#7E91B4"/>
<path fill-rule="evenodd" clip-rule="evenodd" d="M40.4784 11.3428L40.0636 2.46645L39.8456 2.41071L39.4449 11.1895C39.5433 11.1895 39.6417 11.2313 39.7472 11.2522C39.9863 11.294 40.2323 11.3219 40.4503 11.3428H40.4784Z" fill="#7E91B4"/>
<path fill-rule="evenodd" clip-rule="evenodd" d="M38.4254 22.7064L37.9473 12.2554C37.8682 12.2271 37.7907 12.1946 37.7152 12.1579L37.1879 23.8072L37.9473 23.1801L38.4394 22.7412L38.4254 22.7064Z" fill="#7E91B4"/>
<path fill-rule="evenodd" clip-rule="evenodd" d="M40.4503 34.0771L39.9722 23.6888L39.7472 23.8909L39.4941 24.0929L39.0371 34.0492H40.4433L40.4503 34.0771Z" fill="#7E91B4"/>
<path fill-rule="evenodd" clip-rule="evenodd" d="M42.2643 34.0771L41.7229 22.1491C41.6632 22.1963 41.6068 22.2475 41.5542 22.3023C41.5049 22.3581 41.4417 22.4069 41.3854 22.4626L40.8511 34.0771H42.2643Z" fill="#7E91B4"/>
<path fill-rule="evenodd" clip-rule="evenodd" d="M43.6072 17.0908L43.4033 12.5412L43.1572 12.6108L42.9112 18.0174C43.0729 17.8084 43.2416 17.5994 43.4033 17.3834C43.4908 17.2825 43.5707 17.1754 43.6424 17.0629L43.6072 17.0908Z" fill="#7E91B4"/>
<path fill-rule="evenodd" clip-rule="evenodd" d="M44.0783 34.077L43.4525 20.3793L43.3682 20.456L43.2908 20.5465L42.6651 34.077H44.0783Z" fill="#7E91B4"/>
<path fill-rule="evenodd" clip-rule="evenodd" d="M41.8987 19.2227L41.6034 12.8895H41.5542C41.4768 12.8895 41.3854 12.8895 41.294 12.8895L40.9636 20.233C41.1604 20.024 41.3643 19.801 41.5542 19.5781C41.6667 19.4596 41.7862 19.3342 41.8987 19.2018V19.2227Z" fill="#7E91B4"/>
<path fill-rule="evenodd" clip-rule="evenodd" d="M38.7629 10.9944L38.334 1.69303L38.1863 1.58852L37.7785 10.5694C37.8288 10.5952 37.8805 10.6185 37.9332 10.639C38.2018 10.769 38.479 10.8807 38.7629 10.9735V10.9944Z" fill="#7E91B4"/>
<path fill-rule="evenodd" clip-rule="evenodd" d="M30.1569 29.8131L29.9671 34.0771H31.3733L31.1624 29.3672L30.6702 29.5832C30.5085 29.6668 30.3327 29.7434 30.1569 29.8131Z" fill="#7E91B4"/>
<path fill-rule="evenodd" clip-rule="evenodd" d="M28.3078 30.5586L28.1531 34.0422H29.5593L29.3765 30.1057L28.8491 30.3147L28.3007 30.5237L28.3078 30.5586Z" fill="#7E91B4"/>
<path fill-rule="evenodd" clip-rule="evenodd" d="M32.0201 28.963L31.7811 34.077H33.1873L32.9342 28.5031C32.7865 28.5728 32.6389 28.6564 32.4842 28.74C32.3295 28.8236 32.1748 28.8933 32.0201 28.9769V28.963Z" fill="#7E91B4"/>
<path fill-rule="evenodd" clip-rule="evenodd" d="M45.8993 34.0771L45.1892 18.6236L44.4791 34.0771H45.8993Z" fill="#7E91B4"/>
<path fill-rule="evenodd" clip-rule="evenodd" d="M36.1403 26.6081L35.7677 26.8519L35.4372 34.077H36.8434L36.4918 26.3712L36.1403 26.6081Z" fill="#7E91B4"/>
<path fill-rule="evenodd" clip-rule="evenodd" d="M36.5622 0L36.1403 9.43372C36.4198 9.69089 36.7208 9.92398 37.0403 10.1304L36.5622 0Z" fill="#7E91B4"/>
<path fill-rule="evenodd" clip-rule="evenodd" d="M36.1403 24.5945L36.6958 24.1695L36.1403 11.8861L36.0911 11.0292C36.0523 10.9884 36.0099 10.9511 35.9645 10.9177L35.3247 24.9707H35.6341C35.8028 24.8383 35.9645 24.7199 36.1403 24.5945Z" fill="#7E91B4"/>
<path fill-rule="evenodd" clip-rule="evenodd" d="M44.0853 15.133V15.7531H46.6587V34.6135H27.6328V15.7531H35.2192V15.133H27V35.2267H47.2774V15.133H44.0853Z" fill="#7E91B4"/>
<path fill-rule="evenodd" clip-rule="evenodd" d="M33.8763 27.9737L33.5951 34.077H35.0013L34.7341 27.4929L34.3263 27.7228C34.1904 27.8141 34.0496 27.8978 33.9044 27.9737H33.8763Z" fill="#7E91B4"/>
<path fill-rule="evenodd" clip-rule="evenodd" d="M60.4746 24.504V25.361H63.2448V24.504H62.3519L63.5612 21.7937H66.9642L68.3704 24.504H67.3509V25.361H70.8664V24.504H70.1352L65.5158 15.6764L65.2416 16.2547L61.2902 24.504H60.4746ZM65.1362 18.2752L65.2416 18.4703L66.6478 21.104H63.8706L65.1362 18.2752Z" fill="#7E91B4"/>
<path fill-rule="evenodd" clip-rule="evenodd" d="M60.4816 22.9433V22.6367C60.4808 22.2964 60.4116 21.9598 60.278 21.6463C60.1445 21.3328 59.9494 21.0488 59.704 20.8108C59.4586 20.5728 59.1678 20.3856 58.8487 20.2601C58.5295 20.1345 58.1883 20.0732 57.845 20.0797H55.5037V21.7728H56.2701V20.6859H56.9732C57.4551 20.6891 57.9186 20.8699 58.2735 21.1932C58.6283 21.5165 58.849 21.959 58.8926 22.4347C58.8926 23.4449 58.4567 24.5248 56.9099 24.5248H54.906V17.4182H58.6395V18.6863H59.5535V16.6657H52.3116V17.3625H53.3663V24.5039H52.3116V25.3609H57.0716C58.8856 25.3609 60.3973 24.4203 60.4887 22.9433H60.4816Z" fill="#7E91B4"/>
<path fill-rule="evenodd" clip-rule="evenodd" d="M74.2132 24.5527H73.2569V20.7834H78.1716V24.5039H77.4404V25.3609H80.4707V24.5039H79.62V17.3834H80.4707V16.6657H77.4404V17.3834H78.1716V20.0588H73.2569V17.3834H74.185V16.6657H71.1476V17.3834L71.8789 17.3625V24.5039H71.1476V25.3748H74.2132V24.5527Z" fill="#7E91B4"/>
<path fill-rule="evenodd" clip-rule="evenodd" d="M84.3941 25.3609V24.5039H83.5574V17.3834H84.3941V16.6657H81.4832V17.3834H82.116V24.5039H81.4832V25.3609H84.3941Z" fill="#7E91B4"/>
<path fill-rule="evenodd" clip-rule="evenodd" d="M84.1339 20.3514L83.8667 20.5883L84.1339 20.8391L85.3573 22.0445L87.8674 24.5039H87.2346V25.3609H90.8485V24.5039H89.6954L85.4206 20.4141L88.9291 17.3834H90.0259V16.6657H86.5666V17.3834H87.5088L85.3573 19.2715L84.1339 20.3514Z" fill="#7E91B4"/>
<path fill-rule="evenodd" clip-rule="evenodd" d="M84.7315 34.3139V26.0577L84.1339 26.6917L78.2982 32.7881V27.1934H79.1841V26.4757H76.0834V27.1934H76.8498V35.7213L83.1847 29.0397V34.3139H82.4394V35.1639H85.4979V34.3139H84.7315Z" fill="#7E91B4"/>
<path fill-rule="evenodd" clip-rule="evenodd" d="M85.2237 26.4757V28.3987H85.8776V27.1933H88.226V34.3139H87.3541V35.1639H90.5321V34.3139H89.6603V27.1933H92.0016V28.3987H92.6625V26.4757H85.2237Z" fill="#7E91B4"/>
<path fill-rule="evenodd" clip-rule="evenodd" d="M56.1505 30.1126C57.2333 29.8966 58.0208 29.2765 58.0067 28.2733C57.9927 27.27 57.1278 26.4757 54.9904 26.4757H51.4749V28.3987H52.4663V27.1724H54.899C55.0919 27.1631 55.2847 27.1919 55.4663 27.2571C55.6478 27.3223 55.8145 27.4227 55.9565 27.5524C56.0985 27.6821 56.213 27.8385 56.2934 28.0125C56.3738 28.1865 56.4184 28.3746 56.4247 28.5659C56.4171 28.7559 56.3703 28.9423 56.2872 29.1137C56.2041 29.2851 56.0865 29.4378 55.9416 29.5625C55.7966 29.6872 55.6275 29.7811 55.4446 29.8386C55.2617 29.896 55.0688 29.9158 54.8779 29.8966H53.1483V31.5967H53.9709V30.4819H55.0537C55.2977 30.4978 55.536 30.5613 55.7551 30.6688C55.9743 30.7763 56.1698 30.9256 56.3305 31.1081C56.4912 31.2907 56.614 31.5029 56.6917 31.7326C56.7694 31.9623 56.8005 32.205 56.7833 32.4467C56.7833 33.4848 56.263 34.3139 54.6248 34.3139H52.5155V33.2618H51.5101V35.1639H55.1803C55.7354 35.1919 56.2893 35.089 56.7965 34.8637C57.3037 34.6384 57.7498 34.2972 58.0981 33.868C58.3388 33.5004 58.4784 33.0769 58.503 32.6394C58.5277 32.2019 58.4366 31.7656 58.2387 31.3737C58.0108 31.015 57.7013 30.7142 57.3351 30.4952C56.9688 30.2763 56.5559 30.1452 56.1294 30.1126H56.1505Z" fill="#7E91B4"/>
<path fill-rule="evenodd" clip-rule="evenodd" d="M72.7718 27.1795H73.4819V29.8549H68.7009V27.1795H69.6219V26.4549H66.6619V27.1795L67.365 27.1586V34.307H66.6619V35.164H69.636V34.3418H68.7009V30.5725H73.4819V34.307H72.7718V35.157H75.7108V34.307H74.8741V27.1795H75.7108V26.4549H72.7718V27.1795Z" fill="#7E91B4"/>
<path fill-rule="evenodd" clip-rule="evenodd" d="M65.2627 34.3209H61.1214V30.447H63.28V31.5827H64.1166V29.7294H61.1214V27.1933H64.651V28.3987H65.5791V26.4757H58.97V27.1933H59.7574V34.3139H58.97V35.1639H66.0853V33.2549H65.2627V34.3209Z" fill="#7E91B4"/>
</svg>
