<svg width="178" height="22" viewBox="0 0 178 22" fill="none" xmlns="http://www.w3.org/2000/svg">
<path d="M19.3817 21.8044H0.692204C0.50862 21.8044 0.332555 21.7315 0.202742 21.6017C0.0729284 21.4719 0 21.2958 0 21.1122V0.692204C0 0.50862 0.0729284 0.332555 0.202742 0.202742C0.332555 0.0729284 0.50862 0 0.692204 0H17.2186V1.38441H1.38441V20.42H18.6895V4.74506H4.67238V16.6458L15.9813 6.63651C16.0811 6.54816 16.2044 6.49055 16.3363 6.4706C16.4681 6.45065 16.6029 6.4692 16.7245 6.52404C16.846 6.57888 16.9492 6.66766 17.0215 6.77971C17.0938 6.89176 17.1322 7.02231 17.132 7.15566V18.7899H15.7476V8.69062L4.43876 18.7016C4.33887 18.79 4.21559 18.8476 4.08374 18.8675C3.95189 18.8875 3.81708 18.8689 3.69552 18.8141C3.57397 18.7593 3.47084 18.6705 3.39854 18.5584C3.32624 18.4464 3.28784 18.3158 3.28797 18.1825V4.05286C3.28797 3.86927 3.3609 3.69321 3.49071 3.56339C3.62052 3.43358 3.79659 3.36065 3.98017 3.36065H19.3817C19.5653 3.36065 19.7414 3.43358 19.8712 3.56339C20.001 3.69321 20.0739 3.86927 20.0739 4.05286V21.1122C20.0739 21.2958 20.001 21.4719 19.8712 21.6017C19.7414 21.7315 19.5653 21.8044 19.3817 21.8044Z" fill="white"/>
<path d="M27.735 6.47194H39.6498V9.90229H31.6685V11.869H35.5105C37.1266 11.869 38.392 12.3417 39.3068 13.2869C40.2215 14.2169 40.6789 15.3832 40.6789 16.7859C40.6789 18.1885 40.2215 19.3624 39.3068 20.3077C38.392 21.2529 37.1266 21.7256 35.5105 21.7256H27.735V6.47194ZM35.0302 15.2994H31.6685V18.2952H35.0302C35.5181 18.2952 35.9145 18.1656 36.2194 17.9064C36.5244 17.632 36.6768 17.2585 36.6768 16.7859C36.6768 16.3285 36.5244 15.9702 36.2194 15.711C35.9145 15.4366 35.5181 15.2994 35.0302 15.2994Z" fill="white"/>
<path d="M45.7004 21.7256H42.3387V10.6798H45.8605V16.4657L49.794 10.6798H53.3387V21.7256H49.8168V15.6424L45.7004 21.7256Z" fill="white"/>
<path d="M59.9884 22C57.732 22 55.9939 21.413 54.7742 20.2391L56.3522 18.158C57.3584 18.9203 58.5705 19.3015 59.9884 19.3015C61.2081 19.3015 61.8179 19.0118 61.8179 18.4324C61.8179 17.7921 61.1547 17.4719 59.8283 17.4719H57.6557V14.842H59.8283C61.0175 14.842 61.6121 14.5371 61.6121 13.9272C61.6121 13.6833 61.452 13.4851 61.1318 13.3326C60.8117 13.1802 60.3924 13.104 59.874 13.104C58.5324 13.104 57.4423 13.5003 56.6038 14.2931L54.9115 12.2807C56.1464 11.0457 57.7396 10.4283 59.6911 10.4283C61.4749 10.413 62.8394 10.6798 63.7846 11.2287C64.7451 11.7775 65.233 12.5322 65.2483 13.4927C65.2483 14.1178 64.9662 14.6667 64.4021 15.1393C63.8532 15.6119 63.1824 15.9168 62.3896 16.0541C63.1519 16.0998 63.8532 16.359 64.4936 16.8316C65.1339 17.3042 65.4541 17.9141 65.4541 18.6611C65.4693 19.6521 64.9815 20.4525 63.9905 21.0624C62.9995 21.6722 61.6654 21.9848 59.9884 22Z" fill="white"/>
<path d="M70.8065 21.7256H67.2847V10.6798H70.8065V14.4761H74.7628V10.6798H78.2847V21.7256H74.7628V17.5405H70.8065V21.7256Z" fill="white"/>
<path d="M86.1464 22C84.4084 22 82.9676 21.474 81.8242 20.422C80.6807 19.3548 80.109 17.9446 80.109 16.1913C80.109 14.5599 80.6579 13.1878 81.7556 12.0748C82.8685 10.9619 84.2788 10.4054 85.9863 10.4054C87.6482 10.4054 89.0051 10.9695 90.057 12.0977C91.109 13.2107 91.635 14.6972 91.635 16.5572V17.3119H83.768C83.8748 17.8607 84.1721 18.3257 84.6599 18.7069C85.1478 19.088 85.7729 19.2786 86.5352 19.2786C86.9621 19.2786 87.45 19.1947 87.9988 19.027C88.5629 18.8441 88.9898 18.6154 89.2795 18.341L90.766 20.5364C90.2324 21.009 89.5463 21.3749 88.7078 21.6341C87.8845 21.878 87.0307 22 86.1464 22ZM88.2732 15.0249C88.2123 14.5371 87.9988 14.1026 87.6329 13.7214C87.267 13.325 86.7181 13.1268 85.9863 13.1268C85.3003 13.1268 84.7743 13.3174 84.4084 13.6985C84.0425 14.0797 83.8138 14.5218 83.7223 15.0249H88.2732Z" fill="white"/>
<path d="M98.6752 22C96.9372 22 95.4965 21.4664 94.353 20.3992C93.2096 19.3167 92.6378 17.9141 92.6378 16.1913C92.6378 14.4837 93.2096 13.0963 94.353 12.0291C95.4965 10.9466 96.9372 10.4054 98.6752 10.4054C99.773 10.4054 100.703 10.6036 101.465 11C102.243 11.3964 102.822 11.8766 103.203 12.4408L100.916 14.5676C100.444 13.8663 99.7501 13.5156 98.8353 13.5156C98.0883 13.5156 97.4708 13.7595 96.9829 14.2474C96.4951 14.72 96.2511 15.368 96.2511 16.1913C96.2511 17.0146 96.4951 17.6701 96.9829 18.158C97.4708 18.6459 98.0883 18.8898 98.8353 18.8898C99.7196 18.8898 100.413 18.5315 100.916 17.815L103.203 19.9647C102.822 20.5288 102.243 21.009 101.465 21.4054C100.703 21.8018 99.773 22 98.6752 22Z" fill="white"/>
<path d="M107.137 21.7256H105.307V6.47194H107.205V18.3867L115.987 6.47194H117.931V21.7256H116.033V9.55925L107.137 21.7256Z" fill="white"/>
<path d="M123.145 21.7256H121.43V10.6798H123.145V15.2765H128.908V10.6798H130.623V21.7256H128.908V16.7859H123.145V21.7256Z" fill="white"/>
<path d="M140.246 21.7256H134.048V10.6798H140.131C141.092 10.6798 141.847 10.939 142.395 11.4574C142.96 11.9757 143.242 12.6618 143.242 13.5156C143.242 14.1407 143.066 14.6819 142.716 15.1393C142.38 15.5814 141.961 15.8787 141.458 16.0312C142.022 16.1684 142.495 16.4962 142.876 17.0146C143.272 17.5329 143.47 18.1046 143.47 18.7297C143.47 19.6292 143.181 20.3534 142.601 20.9023C142.037 21.4511 141.252 21.7256 140.246 21.7256ZM139.903 20.2162C140.452 20.2162 140.886 20.0638 141.206 19.7588C141.526 19.4539 141.687 19.0423 141.687 18.5239C141.687 18.0513 141.526 17.6473 141.206 17.3119C140.886 16.9764 140.452 16.8087 139.903 16.8087H135.763V20.2162H139.903ZM139.834 15.2994C140.352 15.2994 140.757 15.1622 141.046 14.8877C141.336 14.5981 141.481 14.2245 141.481 13.7672C141.481 13.2793 141.336 12.8981 141.046 12.6237C140.757 12.334 140.352 12.1892 139.834 12.1892H135.763V15.2994H139.834Z" fill="white"/>
<path d="M151.697 22C150.05 22 148.701 21.4664 147.649 20.3992C146.597 19.3167 146.071 17.9141 146.071 16.1913C146.071 14.5752 146.589 13.2107 147.626 12.0977C148.663 10.9695 149.958 10.4054 151.514 10.4054C153.145 10.4054 154.433 10.9695 155.378 12.0977C156.339 13.2107 156.819 14.6209 156.819 16.3285V16.763H147.877C147.954 17.8455 148.35 18.7526 149.067 19.4844C149.783 20.2162 150.713 20.5821 151.857 20.5821C153.229 20.5821 154.365 20.1171 155.264 19.1871L156.087 20.3077C154.959 21.4359 153.496 22 151.697 22ZM155.127 15.5052C155.112 14.5599 154.791 13.7138 154.166 12.9667C153.541 12.2044 152.649 11.8233 151.491 11.8233C150.393 11.8233 149.524 12.1968 148.884 12.9439C148.259 13.6909 147.923 14.5447 147.877 15.5052H155.127Z" fill="white"/>
<path d="M164.468 22C162.837 22 161.511 21.4511 160.489 20.3534C159.468 19.2405 158.957 17.8531 158.957 16.1913C158.957 14.5295 159.468 13.1497 160.489 12.052C161.511 10.9543 162.837 10.4054 164.468 10.4054C166.176 10.4054 167.525 11.0457 168.516 12.3264L167.373 13.3784C166.671 12.4179 165.734 11.9376 164.56 11.9376C163.401 11.9376 162.471 12.334 161.77 13.1268C161.084 13.9196 160.741 14.9411 160.741 16.1913C160.741 17.4414 161.084 18.4705 161.77 19.2786C162.471 20.0714 163.401 20.4678 164.56 20.4678C165.719 20.4678 166.656 19.9875 167.373 19.027L168.516 20.079C167.525 21.3597 166.176 22 164.468 22Z" fill="white"/>
<path d="M174.648 21.7256H172.933V12.1892H169.731V10.6798H177.872V12.1892H174.648V21.7256Z" fill="white"/>
</svg>
